<svg xmlns="http://www.w3.org/2000/svg" width="24" height="24" viewBox="0 0 24 24"><path d="M8.378906 5.001563C8.367188 5.008594 8.327344 5.017969 8.292188 5.025C8.23125 5.039063 7.96875 5.271094 7.96875 5.313281C7.96875 5.322656 7.947656 5.346094 7.921875 5.3625C7.896094 5.378906 7.875 5.407031 7.875 5.425781C7.875 5.444531 7.853906 5.470313 7.828125 5.484375C7.802344 5.498437 7.78125 5.528906 7.78125 5.554688C7.78125 5.580469 7.760156 5.610938 7.734375 5.625C7.708594 5.639062 7.6875 5.669531 7.6875 5.695313C7.6875 5.721094 7.666406 5.751563 7.640625 5.765625C7.614844 5.779687 7.59375 5.810156 7.59375 5.833594C7.59375 5.857031 7.572656 5.894531 7.546875 5.917969C7.521094 5.941406 7.5 5.990625 7.5 6.025781C7.5 6.067969 7.483594 6.100781 7.453125 6.117188C7.417969 6.135938 7.40625 6.166406 7.40625 6.232031C7.40625 6.290625 7.389844 6.332812 7.359375 6.360937C7.321875 6.39375 7.3125 6.433594 7.3125 6.550781C7.3125 6.644531 7.296094 6.742969 7.265625 6.817969C7.228125 6.914063 7.21875 6.991406 7.21875 7.230469C7.21875 7.476563 7.225781 7.5375 7.265625 7.614844C7.296094 7.673437 7.3125 7.753125 7.3125 7.832812C7.3125 7.928906 7.324219 7.96875 7.359375 8.001562C7.3875 8.027344 7.40625 8.074219 7.40625 8.11875C7.40625 8.163281 7.425 8.210156 7.453125 8.235937C7.478906 8.259375 7.5 8.308594 7.5 8.34375C7.5 8.385938 7.483594 8.41875 7.546875 8.435156C7.572656 8.449219 7.59375 8.479687 7.59375 8.505469C7.59375 8.53125 7.614844 8.561719 7.640625 8.575781C7.666406 8.589844 7.6875 8.617969 7.6875 8.639062C7.6875 8.657812 7.729688 8.716406 7.78125 8.765625C7.832812 8.817187 7.875 8.861719 7.875 8.866406C7.875 8.871094 8.022656 9.025781 8.203125 9.210937C8.383594 9.39375 8.53125 9.548437 8.53125 9.553125C8.53125 9.557813 8.676562 9.707812 8.854688 9.883594C9.030469 10.061719 9.189844 10.221094 9.203906 10.242188C9.250781 10.300781 9.182813 10.410937 9.051562 10.495313C8.990625 10.532813 8.896875 10.605469 8.842969 10.654688C8.655469 10.823438 8.601563 10.867969 8.566406 10.882031C8.547656 10.889063 8.53125 10.907813 8.53125 10.921875C8.53125 10.935937 8.489062 10.989844 8.4375 11.039063C8.385938 11.090625 8.34375 11.139844 8.34375 11.153906C8.34375 11.165625 8.322656 11.186719 8.296875 11.200781C8.271094 11.214844 8.25 11.240625 8.25 11.259375C8.25 11.275781 8.228906 11.299219 8.203125 11.30625C8.177344 11.313281 8.15625 11.341406 8.15625 11.364844C8.15625 11.390625 8.135156 11.421094 8.109375 11.435156C8.083594 11.449219 8.0625 11.479687 8.0625 11.505469C8.0625 11.528906 8.041406 11.557031 8.015625 11.564062C7.989844 11.571094 7.96875 11.596875 7.96875 11.617969C7.96875 11.641406 7.947656 11.671875 7.921875 11.688281C7.896094 11.704687 7.875 11.735156 7.875 11.760938C7.875 11.784375 7.853906 11.821875 7.828125 11.845313C7.802344 11.86875 7.78125 11.90625 7.78125 11.927344C7.78125 11.948438 7.760156 11.985938 7.734375 12.009375C7.708594 12.032813 7.6875 12.075 7.6875 12.105469C7.6875 12.135938 7.666406 12.171094 7.640625 12.185156C7.605469 12.203906 7.59375 12.234375 7.59375 12.297656C7.59375 12.35625 7.577344 12.398438 7.546875 12.426563C7.514063 12.452344 7.5 12.494531 7.5 12.555469C7.5 12.614063 7.483594 12.667969 7.453125 12.700781C7.420313 12.740625 7.40625 12.7875 7.40625 12.874219C7.40625 12.944531 7.389844 13.021875 7.366406 13.064063C7.33125 13.125 7.324219 13.216406 7.317187 13.680469C7.310156 14.196094 7.3125 14.233594 7.357031 14.320313C7.389844 14.38125 7.40625 14.45625 7.40625 14.538281C7.40625 14.627344 7.420313 14.68125 7.453125 14.723437C7.48125 14.758594 7.5 14.817187 7.5 14.875781C7.5 14.936719 7.514063 14.98125 7.546875 15.009375C7.582031 15.042187 7.59375 15.082031 7.59375 15.173437C7.59375 15.264844 7.605469 15.304688 7.640625 15.3375C7.675781 15.370312 7.6875 15.410156 7.6875 15.510937C7.6875 15.602344 7.701563 15.663281 7.734375 15.7125C7.7625 15.757031 7.78125 15.822656 7.78125 15.888281C7.78125 15.946875 7.795313 16.052344 7.814062 16.125C7.839844 16.235156 7.839844 16.267969 7.814062 16.3125C7.797656 16.342969 7.783594 16.396875 7.78125 16.432031C7.78125 16.467188 7.7625 16.509375 7.739062 16.525781C7.715625 16.542188 7.689844 16.572656 7.682813 16.59375C7.675781 16.6125 7.617188 16.654688 7.55625 16.685156C7.492969 16.715625 7.422656 16.748438 7.401563 16.760156C7.378125 16.769531 7.335938 16.778906 7.307813 16.778906C7.228125 16.778906 7.099219 16.830469 7.014844 16.89375C6.942187 16.947656 6.9375 16.959375 6.9375 17.102344C6.9375 17.238281 6.944531 17.257031 7.0125 17.325L7.085156 17.4L8.68125 17.407031C9.560156 17.409375 10.298437 17.407031 10.326562 17.402344C10.352344 17.395312 10.425 17.350781 10.483594 17.30625C10.575 17.235937 10.614844 17.177344 10.710937 16.980469C10.863281 16.664062 10.921875 16.417969 10.921875 16.085156C10.921875 15.553125 10.725 15.067969 10.3125 14.5875C10.235156 14.496094 10.017187 14.23125 9.827344 13.994531C9.201562 13.21875 9.152344 13.113281 9.152344 12.525C9.152344 12.213281 9.159375 12.147656 9.215625 11.946094C9.250781 11.819531 9.302344 11.671875 9.330469 11.617969C9.391406 11.496094 9.644531 11.130469 9.754687 11.003906L9.834375 10.914844L9.916406 10.971094C9.963281 11.001562 10.059375 11.088281 10.132031 11.160937C10.202344 11.233594 10.265625 11.294531 10.270312 11.294531C10.277344 11.294531 10.432031 11.442187 10.614844 11.622656C10.8 11.805469 10.975781 11.969531 11.00625 11.990625C11.036719 12.009375 11.0625 12.035156 11.0625 12.046875C11.0625 12.065625 11.557031 12.5625 11.786719 12.775781C11.852344 12.836719 11.90625 12.897656 11.90625 12.911719C11.90625 12.923437 11.915625 12.935156 11.925 12.935156C11.953125 12.935156 14.15625 15.135937 14.15625 15.161719C14.15625 15.175781 14.163281 15.185156 14.175 15.185156C14.196094 15.1875 14.4375 15.407812 14.4375 15.426562C14.4375 15.45 14.744531 15.747656 14.767969 15.747656C14.779687 15.747656 14.800781 15.773437 14.8125 15.80625C14.824219 15.839062 14.852344 15.871875 14.871094 15.878906C14.889844 15.888281 14.90625 15.911719 14.90625 15.935156C14.90625 15.95625 14.927344 15.99375 14.953125 16.017187C14.978906 16.040625 15 16.078125 15 16.101562C15 16.125 15.021094 16.155469 15.046875 16.169531C15.075 16.183594 15.09375 16.21875 15.09375 16.251562C15.09375 16.284375 15.1125 16.319531 15.140625 16.333594C15.173437 16.35 15.1875 16.382812 15.1875 16.436719C15.1875 16.483594 15.20625 16.530469 15.234375 16.55625C15.264844 16.582031 15.28125 16.628906 15.28125 16.678125C15.28125 16.725 15.302344 16.785937 15.328125 16.81875C15.367969 16.870312 15.375 16.914844 15.375 17.116406C15.375 17.325 15.379687 17.360156 15.421875 17.395312C15.447656 17.416406 15.46875 17.460937 15.46875 17.49375C15.46875 17.608594 15.745312 17.683594 15.9 17.610937C16.0125 17.557031 16.394531 17.179688 16.504687 17.010937C16.778906 16.596094 16.928906 16.139062 16.959375 15.649219C16.978125 15.335156 16.942969 14.960156 16.872656 14.702344C16.809375 14.463281 16.598437 14.020312 16.476562 13.865625C16.425 13.797656 16.003125 13.359375 15.54375 12.892969C15.084375 12.424219 14.7 12.028125 14.690625 12.011719C14.610937 11.871094 14.589844 11.742187 14.589844 11.376562C14.592187 10.954687 14.608594 10.879687 14.779687 10.488281C14.896875 10.221094 15.030469 9.989062 15.199219 9.759375C15.325781 9.588281 15.494531 9.421875 15.546094 9.417187C15.616406 9.410156 15.696094 9.424219 15.764062 9.457031C15.834375 9.4875 15.839062 9.499219 15.855469 9.646875C15.864844 9.733594 15.885937 9.827344 15.904687 9.853125C15.923437 9.876562 15.9375 9.942187 15.9375 9.996094C15.9375 10.082812 15.946875 10.099219 16.03125 10.157812C16.230469 10.296094 16.401562 10.232812 16.610156 9.949219C16.914844 9.536719 17.109375 8.971875 17.109375 8.505469C17.109375 7.921875 16.886719 7.3875 16.507031 7.052344C16.275 6.848437 15.799219 6.58125 15.297656 6.372656C14.94375 6.225 14.711719 6.028125 14.573437 5.753906C14.517187 5.641406 14.503125 5.585156 14.505469 5.472656C14.507812 5.294531 14.453906 5.123437 14.374219 5.060156C14.301562 5.003906 14.158594 4.999219 14.0625 5.048437C13.9875 5.088281 13.6875 5.371875 13.6875 5.404687C13.6875 5.414062 13.666406 5.4375 13.640625 5.453906C13.614844 5.470312 13.59375 5.500781 13.59375 5.524219C13.59375 5.545312 13.572656 5.578125 13.546875 5.594531C13.521094 5.610937 13.5 5.636719 13.5 5.655469C13.5 5.671875 13.478906 5.704687 13.453125 5.728125C13.427344 5.751562 13.40625 5.789062 13.40625 5.8125C13.40625 5.835937 13.385156 5.866406 13.359375 5.880469C13.328906 5.896875 13.3125 5.929687 13.3125 5.971875C13.3125 6.007031 13.291406 6.05625 13.265625 6.079687C13.2375 6.105469 13.21875 6.152344 13.21875 6.194531C13.21875 6.241406 13.202344 6.278906 13.171875 6.297656C13.136719 6.31875 13.125 6.351562 13.125 6.43125C13.125 6.4875 13.103906 6.588281 13.078125 6.653906C13.040625 6.752344 13.03125 6.827344 13.03125 7.082812C13.03125 7.352344 13.038281 7.401562 13.078125 7.4625C13.103906 7.5 13.125 7.565625 13.125 7.603125C13.125 7.647656 13.141406 7.685156 13.171875 7.703906C13.197656 7.720312 13.21875 7.757812 13.21875 7.790625C13.21875 7.823437 13.2375 7.858594 13.265625 7.872656C13.291406 7.886719 13.3125 7.9125 13.3125 7.93125C13.3125 7.95 13.333594 7.978125 13.359375 7.994531C13.385156 8.010937 13.40625 8.04375 13.40625 8.064844C13.40625 8.088281 13.427344 8.116406 13.453125 8.130469C13.478906 8.144531 13.5 8.167969 13.5 8.182031C13.5 8.217187 13.666406 8.369531 13.839844 8.49375C13.980469 8.594531 14.479687 8.857031 14.53125 8.857031C14.545312 8.857031 14.599219 8.878125 14.653125 8.90625C14.742187 8.953125 14.746875 8.957812 14.732812 9.039844C14.723437 9.100781 14.692969 9.152344 14.625 9.210937C14.573437 9.257812 14.53125 9.307031 14.53125 9.321094C14.53125 9.335156 14.510156 9.358594 14.484375 9.372656C14.458594 9.386719 14.4375 9.417187 14.4375 9.442969C14.4375 9.46875 14.416406 9.499219 14.390625 9.513281C14.3625 9.527344 14.34375 9.5625 14.34375 9.595312C14.34375 9.628125 14.325 9.663281 14.296875 9.677344C14.26875 9.69375 14.25 9.726562 14.25 9.766406C14.25 9.803906 14.23125 9.841406 14.203125 9.860156C14.177344 9.876562 14.15625 9.914062 14.15625 9.946875C14.15625 9.979687 14.1375 10.014844 14.109375 10.028906C14.076562 10.047656 14.0625 10.078125 14.0625 10.134375C14.0625 10.190625 14.048437 10.221094 14.015625 10.239844C13.982812 10.258594 13.96875 10.289062 13.96875 10.345312C13.96875 10.401562 13.954687 10.432031 13.921875 10.450781C13.884375 10.469531 13.875 10.5 13.875 10.582031C13.875 10.640625 13.858594 10.717969 13.839844 10.750781C13.821094 10.785937 13.792969 10.839844 13.78125 10.872656C13.767187 10.905469 13.741406 10.957031 13.722656 10.9875C13.692187 11.041406 13.652344 11.003906 11.632031 8.983594C10.5 7.851562 9.4875 6.832031 9.382031 6.719531C9.225 6.550781 9.171094 6.46875 9.049219 6.225C8.929687 5.978906 8.896875 5.889844 8.859375 5.676562C8.833594 5.538281 8.8125 5.376562 8.8125 5.317969C8.810156 5.125781 8.716406 5.022656 8.519531 5.003906C8.45625 4.996875 8.392969 4.994531 8.378906 4.999219ZM10.624219 18.5625C10.567969 18.588281 10.495313 18.632813 10.4625 18.663281C10.408594 18.714844 10.401563 18.738281 10.401563 18.890625C10.401563 19.033594 10.410937 19.066406 10.457812 19.117969C10.560937 19.230469 10.626562 19.242188 11.146875 19.242188C11.617969 19.242188 11.629687 19.244531 11.674219 19.29375C11.714062 19.342969 11.716406 19.394531 11.71875 19.926563L11.71875 20.503125L11.789062 20.561719C11.892187 20.648438 12.023438 20.664844 12.147656 20.603906C12.3375 20.507813 12.339844 20.505469 12.346875 19.832813L12.353906 19.242188L12.475781 19.239844C12.54375 19.239844 12.764062 19.239844 12.967969 19.242188C13.303125 19.244531 13.347656 19.239844 13.441406 19.195313C13.553906 19.141406 13.628906 19.040625 13.652344 18.914063C13.673437 18.792187 13.586719 18.635156 13.464844 18.574219C13.375781 18.529688 13.319531 18.527344 12.046875 18.522656C10.790625 18.517969 10.717969 18.520312 10.624219 18.5625Z"/></svg>
