<svg xmlns="http://www.w3.org/2000/svg" width="24" height="24" viewBox="0 0 24 24"><path d="M16.359375 2.995312C16.228125 3.044531 16.125 3.1125 16.125 3.152344C16.125 3.166406 16.103906 3.199219 16.078125 3.222656C16.052344 3.246094 16.03125 3.295312 16.03125 3.332812C16.03125 3.370312 16.017187 3.405469 15.996094 3.4125C15.977344 3.421875 15.960938 3.454688 15.960938 3.492188C15.960938 3.527344 15.977344 3.569531 15.996094 3.585938C16.014844 3.602344 16.03125 3.639844 16.03125 3.667969C16.03125 3.73125 16.164844 3.857812 16.282031 3.904687C16.324219 3.923438 16.422656 3.944531 16.5 3.953906C16.65 3.967969 16.875 4.078125 16.875 4.134375C16.875 4.150781 16.898438 4.18125 16.924219 4.2C16.971094 4.230469 16.975781 4.251562 16.973438 4.497656C16.973438 4.732031 16.96875 4.767187 16.924219 4.814062C16.896094 4.842187 16.875 4.889062 16.875 4.917187C16.875 4.945313 16.853906 4.980469 16.828125 4.996875C16.802344 5.013281 16.78125 5.039063 16.78125 5.053125C16.78125 5.085938 16.492969 5.378906 16.441406 5.4C16.422656 5.407031 16.40625 5.425781 16.40625 5.442188C16.40625 5.458594 16.385156 5.486719 16.359375 5.503125C16.25625 5.566406 16.340625 5.8125 16.464844 5.8125C16.530469 5.8125 16.795313 5.603906 17.102344 5.310937C17.458594 4.973437 17.64375 4.65 17.707031 4.265625C17.789063 3.747656 17.7375 3.54375 17.4375 3.203906C17.271094 3.016406 17.153906 2.976562 16.722656 2.964844C16.525781 2.957812 16.439062 2.967187 16.359375 2.995312ZM18.363281 2.983594C18.203906 3.044531 18.105469 3.1125 18.098438 3.166406C18.09375 3.196875 18.067969 3.246094 18.042188 3.274219C18 3.31875 17.995313 3.346875 18.007031 3.454687C18.014063 3.527344 18.0375 3.609375 18.05625 3.6375C18.077344 3.665625 18.09375 3.705469 18.09375 3.724219C18.09375 3.817969 18.363281 3.960937 18.536719 3.960937C18.707813 3.960937 18.9375 4.089844 18.9375 4.183594C18.9375 4.211719 18.958594 4.263281 18.984375 4.296094C19.021875 4.342969 19.03125 4.389844 19.03125 4.51875C19.03125 4.65 19.021875 4.6875 18.984375 4.722656C18.958594 4.746094 18.9375 4.795312 18.9375 4.830469C18.9375 4.872656 18.921094 4.905469 18.890625 4.921875C18.864844 4.935937 18.84375 4.966406 18.84375 4.992187C18.84375 5.017969 18.822656 5.048437 18.796875 5.0625C18.771094 5.076562 18.75 5.102344 18.75 5.121094C18.75 5.139844 18.728906 5.167969 18.703125 5.184375C18.677344 5.200781 18.65625 5.226562 18.65625 5.238281C18.65625 5.252344 18.614063 5.294531 18.5625 5.334375C18.510938 5.371875 18.46875 5.409375 18.46875 5.41875C18.46875 5.430469 18.452344 5.4375 18.433594 5.4375C18.4125 5.4375 18.386719 5.460937 18.375 5.489062C18.360938 5.519531 18.339844 5.561719 18.323438 5.582812C18.3 5.615625 18.302344 5.629687 18.335156 5.667187C18.35625 5.690625 18.375 5.721094 18.375 5.735156C18.375 5.746875 18.396094 5.777344 18.419531 5.798437C18.475781 5.847656 18.501563 5.835937 18.742969 5.655469C19.239844 5.282812 19.546875 4.896094 19.692188 4.464844C19.739063 4.324219 19.746094 4.253906 19.746094 3.960937C19.746094 3.646875 19.741406 3.611719 19.6875 3.508594C19.617188 3.370312 19.413281 3.138281 19.296094 3.067969C19.249219 3.0375 19.1625 3.004687 19.103906 2.992969C18.939844 2.957812 18.445312 2.953125 18.363281 2.983594ZM8.296875 5.486719C8.252344 5.5125 8.177344 5.575781 8.130469 5.622656C8.083594 5.671875 8.029687 5.716406 8.008594 5.725781C7.985156 5.735156 7.96875 5.75625 7.96875 5.775C7.96875 5.796094 7.947656 5.821875 7.921875 5.835938C7.896094 5.85 7.875 5.873437 7.875 5.889844C7.875 5.90625 7.832812 5.955469 7.78125 6C7.729688 6.044531 7.6875 6.100781 7.6875 6.121875C7.6875 6.145312 7.666406 6.173437 7.640625 6.1875C7.6125 6.201563 7.59375 6.236719 7.59375 6.269531C7.59375 6.302344 7.572656 6.339844 7.546875 6.35625C7.51875 6.375 7.5 6.4125 7.5 6.447656C7.5 6.480469 7.478906 6.527344 7.453125 6.550781C7.420313 6.58125 7.40625 6.623437 7.40625 6.691406C7.40625 6.759375 7.392187 6.801562 7.359375 6.832031C7.324219 6.864844 7.3125 6.904687 7.3125 6.996094C7.3125 7.06875 7.29375 7.1625 7.265625 7.221094C7.225781 7.310156 7.21875 7.375781 7.21875 7.710937C7.21875 8.057812 7.223437 8.104687 7.265625 8.167969C7.29375 8.2125 7.3125 8.278125 7.3125 8.34375C7.3125 8.421094 7.324219 8.460937 7.359375 8.491406C7.3875 8.514844 7.40625 8.559375 7.40625 8.608594C7.40625 8.655469 7.425 8.7 7.453125 8.725781C7.478906 8.746875 7.5 8.791406 7.5 8.824219C7.5 8.857031 7.51875 8.892187 7.546875 8.90625C7.572656 8.920312 7.59375 8.950781 7.59375 8.976562C7.59375 9.002344 7.614844 9.032812 7.640625 9.046875C7.666406 9.060937 7.6875 9.091406 7.6875 9.117187C7.6875 9.142969 7.708594 9.173437 7.734375 9.1875C7.760156 9.201562 7.78125 9.225 7.78125 9.236719C7.78125 9.267187 8.00625 9.494531 8.095312 9.550781C8.128125 9.574219 8.15625 9.6 8.15625 9.611719C8.15625 9.621094 8.198438 9.675 8.25 9.726562C8.301562 9.778125 8.34375 9.827344 8.34375 9.834375C8.34375 9.846094 8.421094 9.923437 8.892187 10.378125C9.002344 10.483594 9.09375 10.582031 9.09375 10.59375C9.09375 10.605469 9.114844 10.626562 9.140625 10.640625C9.175781 10.659375 9.1875 10.689844 9.1875 10.757812C9.1875 10.8375 9.178125 10.85625 9.1125 10.889062C9.070313 10.910156 9.016406 10.945312 8.995313 10.966406C8.929688 11.027344 8.885156 11.0625 8.871094 11.0625C8.864062 11.0625 8.8125 11.104688 8.760938 11.15625C8.707031 11.207812 8.653125 11.25 8.64375 11.25C8.634375 11.25 8.625 11.264063 8.625 11.282812C8.625 11.301562 8.603906 11.325 8.578125 11.332031C8.552344 11.339063 8.53125 11.357813 8.53125 11.371875C8.53125 11.385937 8.467969 11.45625 8.390625 11.53125C8.313281 11.60625 8.25 11.676562 8.25 11.685938C8.25 11.697656 8.228906 11.721094 8.203125 11.7375C8.177344 11.753906 8.15625 11.782031 8.15625 11.800781C8.15625 11.819531 8.135156 11.845312 8.109375 11.859375C8.083594 11.873438 8.0625 11.896875 8.0625 11.913281C8.0625 11.929688 8.041406 11.955469 8.015625 11.971875C7.989844 11.988281 7.96875 12.016406 7.96875 12.035156C7.96875 12.053906 7.947656 12.079687 7.921875 12.09375C7.896094 12.107813 7.875 12.142969 7.875 12.171094C7.875 12.199219 7.853906 12.236719 7.828125 12.253125C7.802344 12.269531 7.78125 12.302344 7.78125 12.328125C7.78125 12.353906 7.760156 12.386719 7.734375 12.403125C7.708594 12.419531 7.6875 12.459375 7.6875 12.492188C7.6875 12.525 7.666406 12.564844 7.640625 12.58125C7.607813 12.6 7.59375 12.635156 7.59375 12.691406C7.59375 12.747656 7.579687 12.778125 7.546875 12.796875C7.509375 12.815625 7.5 12.846094 7.5 12.935156C7.5 13.017187 7.488281 13.059375 7.453125 13.089844C7.417969 13.120313 7.40625 13.1625 7.40625 13.251562C7.403906 13.319531 7.385156 13.410937 7.359375 13.464844C7.319531 13.549219 7.314844 13.614844 7.3125 14.128125C7.3125 14.650781 7.317187 14.704687 7.359375 14.789063C7.389844 14.85 7.40625 14.927344 7.40625 15.01875C7.40625 15.124219 7.417969 15.171094 7.453125 15.210938C7.483594 15.246094 7.5 15.297656 7.5 15.367969C7.5 15.440625 7.514063 15.480469 7.546875 15.508594C7.582031 15.539063 7.59375 15.578906 7.59375 15.670313C7.59375 15.759375 7.605469 15.799219 7.640625 15.832031C7.673437 15.8625 7.6875 15.904688 7.6875 15.977344C7.6875 16.047656 7.703906 16.103906 7.734375 16.141406C7.767187 16.18125 7.78125 16.2375 7.78125 16.310156C7.78125 16.371094 7.797656 16.441406 7.816406 16.467188C7.860937 16.525781 7.860937 16.696875 7.816406 16.734375C7.797656 16.750781 7.78125 16.797656 7.78125 16.842188C7.78125 16.896094 7.767187 16.928906 7.734375 16.945313C7.708594 16.959375 7.6875 16.985156 7.6875 17.003906C7.6875 17.04375 7.469531 17.15625 7.396875 17.15625C7.282031 17.15625 6.9375 17.303906 6.9375 17.350781C6.9375 17.369531 6.916406 17.402344 6.890625 17.425781C6.822656 17.489063 6.825 17.676563 6.897656 17.744531C7.019531 17.861719 6.99375 17.859375 8.664844 17.859375L10.230469 17.859375L10.347656 17.803125C10.589063 17.692969 10.746094 17.421094 10.851563 16.933594C10.95 16.492969 10.891406 15.989063 10.701563 15.6C10.570313 15.332813 10.399219 15.105469 10.080469 14.777344C9.520313 14.196094 9.208594 13.680469 9.138281 13.216406C9.100781 12.984375 9.138281 12.541406 9.210938 12.328125C9.314063 12.032813 9.433594 11.817188 9.686719 11.479688L9.803906 11.322656L9.88125 11.385938C9.925781 11.421094 10.549219 12.0375 11.271094 12.754688C11.992969 13.474219 12.595313 14.0625 12.609375 14.0625C12.623438 14.0625 12.642188 14.08125 12.649219 14.102344C12.658594 14.125781 13.148438 14.627344 13.739063 15.217969C14.329688 15.808594 14.8125 16.300781 14.8125 16.3125C14.8125 16.324219 14.833594 16.340625 14.859375 16.347656C14.885156 16.354687 14.90625 16.382813 14.90625 16.408594C14.90625 16.432031 14.927344 16.464844 14.953125 16.48125C14.978906 16.497656 15 16.530469 15 16.551563C15 16.575 15.021094 16.603125 15.046875 16.617188C15.072656 16.63125 15.09375 16.664063 15.09375 16.6875C15.09375 16.713281 15.114844 16.746094 15.140625 16.7625C15.171094 16.783594 15.1875 16.81875 15.1875 16.867969C15.1875 16.919531 15.201563 16.952344 15.234375 16.96875C15.269531 16.9875 15.28125 17.017969 15.28125 17.083594C15.28125 17.139844 15.297656 17.186719 15.325781 17.2125C15.358594 17.242969 15.370312 17.301562 15.384375 17.500781C15.39375 17.639062 15.4125 17.765625 15.426562 17.782031C15.440625 17.798437 15.459375 17.847656 15.466406 17.8875C15.4875 17.988281 15.560156 18.023437 15.754687 18.023437C15.9 18.023437 15.916406 18.01875 16.024219 17.932031C16.427344 17.608594 16.746094 17.08125 16.879687 16.516406C16.921875 16.335937 16.93125 16.228125 16.93125 15.855469C16.933594 15.382031 16.903125 15.194531 16.771875 14.875781C16.596094 14.451562 16.448438 14.264062 15.623438 13.441406C15.234375 13.054687 14.847656 12.65625 14.763281 12.557812L14.608594 12.379687L14.580469 12.05625C14.55 11.730469 14.552344 11.730469 14.620312 11.414062C14.660156 11.240625 14.732812 10.989844 14.784375 10.85625C14.946094 10.44375 15.370312 9.874219 15.553125 9.829687C15.590625 9.820312 15.625781 9.827344 15.653906 9.853125C15.677344 9.874219 15.705469 9.890625 15.719531 9.890625C15.780469 9.890625 15.84375 10.000781 15.84375 10.110937C15.84375 10.188281 15.857812 10.242187 15.890625 10.282031C15.921094 10.321875 15.9375 10.378125 15.9375 10.441406C15.9375 10.523437 15.949219 10.549219 16.0125 10.600781C16.127344 10.696875 16.21875 10.703906 16.345312 10.628906C16.485937 10.546875 16.577344 10.432031 16.764844 10.101562C16.980469 9.717187 17.0625 9.45 17.088281 9.046875C17.104687 8.770312 17.1 8.7 17.060156 8.496094C17.003906 8.217187 16.945312 8.08125 16.769531 7.816406C16.575 7.523437 16.342969 7.340625 15.890625 7.122656C15.01875 6.700781 15.021094 6.700781 14.833594 6.515625C14.735156 6.419531 14.639062 6.314062 14.617969 6.28125C14.599219 6.248437 14.554687 6.096094 14.519531 5.94375C14.444531 5.60625 14.416406 5.545312 14.301562 5.486719C14.226562 5.446875 14.200781 5.444531 14.109375 5.467969C13.992187 5.498437 13.78125 5.639062 13.78125 5.685937C13.78125 5.702344 13.760156 5.728125 13.734375 5.742187C13.708594 5.75625 13.6875 5.782031 13.6875 5.800781C13.6875 5.819531 13.666406 5.845312 13.640625 5.859375C13.614844 5.873437 13.59375 5.903906 13.59375 5.929687C13.59375 5.955469 13.572656 5.985937 13.546875 6C13.521094 6.014062 13.5 6.049219 13.5 6.077344C13.5 6.105469 13.478906 6.142969 13.453125 6.159375C13.427344 6.175781 13.40625 6.213281 13.40625 6.246094C13.40625 6.278906 13.3875 6.314062 13.359375 6.328125C13.33125 6.342187 13.3125 6.377344 13.3125 6.410156C13.3125 6.442969 13.29375 6.478125 13.265625 6.492187C13.232812 6.510937 13.21875 6.541406 13.21875 6.597656C13.21875 6.653906 13.204687 6.684375 13.171875 6.703125C13.134375 6.721875 13.125 6.752344 13.125 6.841406C13.125 6.923437 13.113281 6.965625 13.078125 6.996094C13.047656 7.024219 13.03125 7.06875 13.03125 7.125C13.03125 7.174219 13.014844 7.258594 12.996094 7.3125C12.951562 7.436719 12.951562 7.563281 12.996094 7.640625C13.014844 7.673437 13.028906 7.736719 13.03125 7.783594C13.03125 7.832812 13.05 7.889062 13.078125 7.921875C13.103906 7.952344 13.125 8.00625 13.125 8.041406C13.125 8.083594 13.14375 8.121094 13.171875 8.1375C13.197656 8.153906 13.21875 8.191406 13.21875 8.219531C13.21875 8.247656 13.239844 8.282812 13.265625 8.296875C13.291406 8.310937 13.3125 8.336719 13.3125 8.355469C13.3125 8.374219 13.291406 8.402344 13.359375 8.41875C13.427344 8.435156 13.40625 8.460937 13.40625 8.477344C13.40625 8.521875 13.755469 8.866406 13.867969 8.932031C13.919531 8.9625 14.0625 9.046875 14.184375 9.119531C14.303906 9.192187 14.472656 9.283594 14.559375 9.31875C14.704687 9.382031 14.71875 9.391406 14.71875 9.457031C14.71875 9.508594 14.695312 9.548437 14.625 9.609375C14.573437 9.653906 14.53125 9.703125 14.53125 9.719531C14.53125 9.735937 14.510156 9.759375 14.484375 9.773437C14.458594 9.7875 14.4375 9.817969 14.4375 9.841406C14.4375 9.864844 14.416406 9.902344 14.390625 9.925781C14.364844 9.949219 14.34375 9.986719 14.34375 10.010156C14.34375 10.033594 14.322656 10.064062 14.296875 10.078125C14.271094 10.092187 14.25 10.127344 14.25 10.157812C14.25 10.188281 14.228906 10.230469 14.203125 10.253906C14.177344 10.277344 14.15625 10.314844 14.15625 10.338281C14.15625 10.361719 14.135156 10.392187 14.109375 10.40625C14.078906 10.422656 14.0625 10.455469 14.0625 10.497656C14.0625 10.532812 14.041406 10.582031 14.015625 10.605469C13.9875 10.63125 13.96875 10.678125 13.96875 10.725C13.96875 10.778906 13.954687 10.811719 13.921875 10.828125C13.886719 10.846875 13.875 10.877344 13.875 10.947656C13.875 11.008594 13.858594 11.064844 13.828125 11.102344C13.797656 11.139844 13.78125 11.198437 13.78125 11.259375C13.78125 11.315625 13.7625 11.378906 13.736719 11.411719L13.694531 11.467969L13.4625 11.257031C13.333594 11.139844 12.342187 10.160156 11.257031 9.079687L9.285937 7.113281L9.13125 6.808594C8.974219 6.501562 8.807812 6.053906 8.779687 5.859375C8.749219 5.667187 8.695312 5.533594 8.625 5.484375C8.538281 5.423437 8.402344 5.423437 8.296875 5.486719ZM4.628906 16.732031C4.436719 16.757813 4.21875 16.905469 4.21875 17.010937C4.21875 17.034375 4.197656 17.074219 4.171875 17.097656C4.139062 17.128125 4.125 17.170313 4.125 17.238281C4.125 17.30625 4.139062 17.348438 4.171875 17.378906C4.197656 17.402344 4.21875 17.444531 4.21875 17.472656C4.21875 17.571094 4.357031 17.648438 4.647656 17.707031C4.830469 17.746875 5.0625 17.85 5.0625 17.894531C5.0625 17.910938 5.083594 17.941406 5.109375 17.964844C5.151563 18.002344 5.15625 18.0375 5.15625 18.28125C5.15625 18.525 5.151563 18.560156 5.109375 18.597656C5.083594 18.621094 5.0625 18.658594 5.0625 18.682031C5.0625 18.705469 5.041406 18.735937 5.015625 18.75C4.989844 18.764063 4.96875 18.794531 4.96875 18.820313C4.96875 18.846094 4.947656 18.876562 4.921875 18.890625C4.896094 18.904688 4.875 18.930469 4.875 18.946875C4.875 18.965625 4.853906 18.984375 4.828125 18.991406C4.802344 18.998437 4.78125 19.019531 4.78125 19.040625C4.78125 19.061719 4.769531 19.078125 4.757813 19.078125C4.74375 19.078125 4.6875 19.120312 4.635938 19.171875C4.582031 19.223438 4.530469 19.265625 4.521094 19.265625C4.488281 19.265625 4.474219 19.389844 4.5 19.4625C4.514062 19.502344 4.549219 19.553906 4.579688 19.575C4.63125 19.6125 4.638281 19.610156 4.889062 19.415625C5.355469 19.054688 5.571094 18.813281 5.742188 18.454687C5.859375 18.215625 5.892188 18.044531 5.894531 17.707031C5.894531 17.416406 5.892188 17.395313 5.826562 17.261719C5.735156 17.074219 5.507813 16.849219 5.367188 16.804688C5.308594 16.788281 5.252344 16.764844 5.238281 16.755469C5.203125 16.732031 4.7625 16.713281 4.628906 16.732031Z"/></svg>
