<svg xmlns="http://www.w3.org/2000/svg" width="24" height="24" viewBox="0 0 24 24"><path d="M7.565804 4.815372C7.685412 4.734766 7.836223 4.726966 7.937631 4.791971C8.007835 4.838773 8.101442 5.025987 8.101442 5.124794C8.101442 5.158597 8.143045 5.327609 8.192449 5.501822C8.306857 5.89965 8.579877 6.46129 8.76449 6.674506C8.899699 6.830517 13.281014 11.191031 13.478628 11.365243C13.548833 11.427648 13.587835 11.448448 13.587835 11.422446C13.587835 11.401645 13.606038 11.370442 13.62684 11.352242C13.65024 11.334041 13.665842 11.276835 13.665842 11.211832C13.665842 11.149427 13.686644 11.074021 13.717846 11.027218C13.746448 10.983015 13.76985 10.90761 13.76985 10.855606C13.76985 10.795802 13.788051 10.746398 13.821853 10.715196C13.850455 10.689194 13.873857 10.63459 13.873857 10.595588C13.873857 10.548783 13.894658 10.50718 13.92586 10.488979C13.959663 10.465577 13.977864 10.426575 13.977864 10.371971C13.977864 10.314767 13.993464 10.278364 14.029868 10.260163C14.05847 10.244562 14.081872 10.21076 14.081872 10.182158C14.081872 10.153555 14.105274 10.119754 14.133876 10.104152C14.162477 10.088552 14.18588 10.049547 14.18588 10.015746C14.18588 9.981943 14.209281 9.93514 14.237883 9.909138C14.266485 9.883136 14.289886 9.841533 14.289886 9.818131C14.289886 9.79473 14.313289 9.753127 14.34189 9.727124C14.370492 9.701123 14.393894 9.65952 14.393894 9.633518C14.393894 9.607516 14.417296 9.573713 14.445898 9.558113C14.4745 9.542512 14.497902 9.51651 14.497902 9.498308C14.497902 9.480107 14.544704 9.425503 14.601909 9.3761C14.679914 9.308496 14.705916 9.266892 14.705916 9.207088C14.705916 9.134282 14.687716 9.121282 14.412095 8.988671C14.118274 8.848262 13.806252 8.661049 13.64244 8.525839C13.465628 8.380228 13.249812 8.159212 13.249812 8.12281C13.249812 8.104608 13.22641 8.073405 13.197808 8.055204C13.169207 8.037004 13.145804 8.008402 13.145804 7.9876C13.145804 7.969398 13.122402 7.932996 13.093801 7.906994C13.065199 7.880992 13.041797 7.839389 13.041797 7.813387C13.041797 7.787386 13.018395 7.753583 12.989794 7.737982C12.95339 7.71978 12.93779 7.683378 12.93779 7.623574C12.93779 7.57417 12.914388 7.511765 12.885786 7.477964C12.854584 7.444161 12.833782 7.381757 12.833782 7.329753C12.833782 7.28035 12.815581 7.173742 12.792179 7.095736C12.753177 6.965727 12.753177 6.944925 12.792179 6.843518C12.815581 6.783713 12.833782 6.687507 12.833782 6.630302C12.833782 6.557497 12.849382 6.508094 12.885786 6.476892C12.924788 6.443089 12.93779 6.396286 12.93779 6.305279C12.93779 6.206472 12.948191 6.172669 12.989794 6.151868C13.026196 6.131066 13.041797 6.097264 13.041797 6.034859C13.041797 5.972455 13.057398 5.938653 13.093801 5.917852C13.127604 5.89965 13.145804 5.863247 13.145804 5.813844C13.145804 5.76444 13.164005 5.728038 13.197808 5.709837C13.22641 5.694235 13.249812 5.657833 13.249812 5.631831C13.249812 5.603229 13.273214 5.566826 13.301816 5.548625C13.330418 5.530424 13.35382 5.488821 13.35382 5.457618C13.35382 5.426416 13.377221 5.387414 13.405824 5.371812C13.434425 5.356212 13.457827 5.322409 13.457827 5.293807C13.457827 5.265204 13.481229 5.231402 13.50983 5.215801C13.538432 5.2002 13.561834 5.171597 13.561834 5.150796C13.561834 5.129994 13.585237 5.098792 13.613838 5.080591C13.64244 5.06239 13.665842 5.033788 13.665842 5.020787C13.665842 4.971384 13.90766 4.815372 14.029868 4.78417C14.133876 4.755568 14.157277 4.758168 14.240483 4.804972C14.347091 4.864776 14.412095 4.979184 14.448499 5.174198C14.461498 5.247003 14.497902 5.392613 14.526504 5.49402C14.575908 5.660432 14.604509 5.707236 14.778722 5.89445L14.976336 6.105065L15.652385 6.440488C16.437641 6.827917 16.710661 7.012529 16.918674 7.290751C17.428312 7.982399 17.490717 8.848262 17.095488 9.685521C16.923876 10.049547 16.71586 10.358971 16.570251 10.462978C16.41684 10.572186 16.263428 10.577386 16.14122 10.478579C16.068415 10.418775 16.058014 10.392773 16.058014 10.283565C16.058014 10.200359 16.042412 10.145755 16.013811 10.114552C15.982608 10.085951 15.961806 10.013145 15.954006 9.914338C15.941005 9.771328 15.933205 9.755728 15.857799 9.714125C15.813596 9.690722 15.748591 9.65172 15.712189 9.628318C15.652385 9.589315 15.644585 9.589315 15.543176 9.66472C15.358563 9.79993 14.947734 10.353769 14.822926 10.63459C14.729319 10.850405 14.633111 11.165028 14.575907 11.456249C14.523903 11.713667 14.521303 11.750071 14.555105 12.093295L14.586308 12.45472L14.708517 12.600331C14.77352 12.678337 15.18955 13.104768 15.631583 13.549399C16.076214 13.99143 16.484444 14.412662 16.541647 14.485467C16.949877 14.995103 17.139692 15.49694 17.168293 16.136585C17.207296 17.057053 16.960278 17.753902 16.354435 18.42215C16.136021 18.663967 16.052814 18.71077 15.839598 18.71077C15.636783 18.71077 15.537976 18.666567 15.537976 18.578159C15.537976 18.549559 15.522375 18.500154 15.501575 18.468952C15.478172 18.43515 15.45477 18.302542 15.444369 18.15173C15.431369 17.959316 15.413167 17.87611 15.379365 17.829306C15.350763 17.795506 15.329962 17.730499 15.329962 17.683697C15.329962 17.634293 15.30916 17.582289 15.277958 17.553686C15.246756 17.525085 15.225954 17.473082 15.225954 17.426277C15.225954 17.374273 15.207753 17.33267 15.17395 17.311869C15.145349 17.293669 15.121946 17.257265 15.121946 17.228662C15.121946 17.202662 15.098544 17.16626 15.069942 17.150658C15.041341 17.135057 15.017939 17.101254 15.017939 17.072653C15.017939 17.04405 14.994537 17.010248 14.965936 16.994648C14.937333 16.979046 14.913932 16.950443 14.913932 16.932243C14.913932 16.914042 14.820325 16.802233 14.705916 16.685225C14.591508 16.570816 14.497902 16.466808 14.497902 16.453808C14.497902 16.443407 14.453698 16.401804 14.399096 16.357601C14.347092 16.315998 14.256084 16.230192 14.19888 16.165186C14.141676 16.102783 14.037668 15.996176 13.967463 15.93117C13.741247 15.717955 13.665842 15.63995 13.665842 15.621749C13.665842 15.611348 13.621638 15.569745 13.567036 15.525541C13.515032 15.483938 13.424025 15.398132 13.36682 15.333127C13.309616 15.268124 13.205608 15.164116 13.138004 15.099111C12.841582 14.81569 12.417752 14.389259 12.417752 14.368458C12.417752 14.358057 12.391751 14.332056 12.360548 14.311255C12.266942 14.24885 12.001722 13.988832 12.001722 13.960229C12.001722 13.944628 11.975721 13.916026 11.944518 13.892624C11.845711 13.82762 11.585692 13.570201 11.585692 13.538999C11.585692 13.523397 11.575292 13.510397 11.55969 13.510397C11.528488 13.510397 10.753633 12.73554 10.753633 12.706939C10.753633 12.693938 10.72243 12.665336 10.686028 12.639334C10.600222 12.584729 9.60955 11.601859 9.60955 11.573257C9.60955 11.542055 9.448339 11.404245 9.414536 11.404245C9.398935 11.404245 9.357332 11.375644 9.323529 11.33924L9.263725 11.276835L9.097314 11.484851C8.899699 11.737069 8.787891 11.924282 8.681284 12.184301C8.546074 12.509325 8.512271 12.683537 8.509672 13.055364C8.504471 13.406389 8.527873 13.538999 8.647481 13.853621C8.754089 14.139642 9.157118 14.688281 9.596549 15.148514C10.098386 15.676352 10.329803 16.074181 10.428609 16.591618C10.550817 17.231264 10.358404 18.021721 9.996979 18.364944C9.967748 18.392481 9.945211 18.415394 9.91979 18.434458C9.793842 18.528904 9.597057 18.528889 8.164344 18.528767L8.000035 18.528757C6.481526 18.528757 6.270911 18.523556 6.177304 18.487154C6.1201 18.463753 6.073297 18.43515 6.073297 18.42215C6.073297 18.409147 6.049895 18.375345 6.021293 18.346745C5.992691 18.318142 5.969289 18.260939 5.969289 18.221935C5.969289 18.180332 5.992691 18.125729 6.021293 18.099726C6.049895 18.073725 6.073297 18.024321 6.073297 17.990519C6.073297 17.943714 6.101899 17.917713 6.211107 17.868309C6.374918 17.792904 6.515328 17.748701 6.582933 17.748701C6.663539 17.748701 6.855953 17.647293 6.936559 17.561487C6.978162 17.514683 7.009364 17.45488 7.009364 17.413277C7.009364 17.374273 7.027565 17.31967 7.048367 17.291067C7.09517 17.228662 7.09777 17.051851 7.048367 16.968645C7.027565 16.932241 7.011964 16.843836 7.009364 16.77103C7.009364 16.672222 6.996363 16.62542 6.95736 16.591618C6.918358 16.557816 6.905356 16.511011 6.905356 16.422606C6.905356 16.3342 6.892355 16.287395 6.853353 16.253593C6.81435 16.219791 6.801349 16.172987 6.801349 16.084581C6.801349 15.996175 6.788348 15.949371 6.749345 15.915569C6.712943 15.881766 6.697341 15.834964 6.697341 15.759558C6.697341 15.689353 6.679141 15.626948 6.645338 15.582745C6.606335 15.533341 6.593334 15.478738 6.593334 15.364329C6.593334 15.260322 6.577734 15.190117 6.54913 15.148514C6.507528 15.09131 6.502328 15.002904 6.494526 14.441263C6.486726 13.83802 6.489326 13.791216 6.53873 13.676807C6.572533 13.604003 6.593334 13.499995 6.593334 13.41939C6.593334 13.317983 6.606335 13.273779 6.645338 13.237377C6.68174 13.203574 6.697341 13.156771 6.697341 13.081366C6.697341 13.00596 6.712943 12.959156 6.749345 12.925355C6.780548 12.896751 6.801349 12.844748 6.801349 12.792745C6.801349 12.732941 6.816951 12.696538 6.853353 12.678336C6.887156 12.660135 6.905356 12.623733 6.905356 12.574328C6.905356 12.524925 6.923557 12.488523 6.95736 12.470322C6.985962 12.45472 7.009364 12.418318 7.009364 12.392316C7.009364 12.363714 7.032766 12.327312 7.061368 12.309111C7.08997 12.290909 7.113371 12.249306 7.113371 12.218104C7.113371 12.186902 7.136773 12.147898 7.165375 12.132298C7.193977 12.116695 7.217379 12.088094 7.217379 12.067292C7.217379 12.046491 7.240781 12.015288 7.269382 11.997087C7.297984 11.978887 7.321386 11.950284 7.321386 11.932083C7.321386 11.913882 7.344788 11.887879 7.37339 11.872279C7.401992 11.856677 7.425394 11.828075 7.425394 11.807274C7.425394 11.786472 7.448796 11.75527 7.477397 11.737069C7.505999 11.718868 7.529401 11.692865 7.529401 11.682465C7.529401 11.669464 7.599606 11.591458 7.685412 11.505652C7.771219 11.422446 7.841424 11.344441 7.841424 11.33924C7.841424 11.33144 7.896028 11.274236 7.963632 11.214431C8.031238 11.154627 8.109242 11.079222 8.140445 11.045419C8.171647 11.014216 8.210649 10.988215 8.223651 10.988215C8.239252 10.988215 8.278255 10.959614 8.314657 10.925811C8.35106 10.894608 8.423865 10.840004 8.475869 10.808803C8.556475 10.756799 8.569476 10.735997 8.569476 10.65019C8.569476 10.574786 8.556475 10.540983 8.517472 10.520182C8.488871 10.50458 8.465468 10.481179 8.465468 10.468178C8.465468 10.444776 8.21325 10.189959 7.922029 9.922138C7.820622 9.828531 7.737416 9.737525 7.737416 9.719324C7.737416 9.703723 7.719215 9.688122 7.698414 9.688122C7.675012 9.688122 7.64901 9.66732 7.641209 9.643918C7.630808 9.620517 7.485198 9.464505 7.316186 9.295494C7.147174 9.129082 7.009364 8.978271 7.009364 8.96267C7.009364 8.947068 6.985962 8.923667 6.95736 8.908066C6.928759 8.892465 6.905356 8.858663 6.905356 8.83006C6.905356 8.801458 6.881955 8.767655 6.853353 8.752055C6.824751 8.736453 6.801349 8.702651 6.801349 8.674048C6.801349 8.645447 6.777947 8.611644 6.749345 8.596044C6.715542 8.577843 6.697341 8.541439 6.697341 8.492036C6.697341 8.442633 6.679141 8.40623 6.645338 8.388028C6.606335 8.367228 6.593334 8.333425 6.593334 8.260619C6.593334 8.195614 6.575133 8.146211 6.54133 8.115008C6.504928 8.081206 6.489326 8.034403 6.489326 7.948597C6.489326 7.873191 6.471126 7.800386 6.437323 7.750983C6.390519 7.680778 6.385319 7.628774 6.385319 7.282949C6.385319 6.950125 6.393119 6.87732 6.437323 6.778513C6.471126 6.705708 6.489326 6.609501 6.489326 6.502893C6.489326 6.375484 6.499727 6.331281 6.54133 6.294878C6.577733 6.261075 6.593334 6.214272 6.593334 6.141467C6.593334 6.066061 6.608936 6.019259 6.645338 5.988057C6.67394 5.964654 6.697341 5.912651 6.697341 5.873648C6.697341 5.829445 6.718143 5.787842 6.749345 5.76704C6.777947 5.748839 6.801349 5.707236 6.801349 5.670833C6.801349 5.634431 6.82215 5.595428 6.853353 5.579827C6.881955 5.564225 6.905356 5.533023 6.905356 5.509622C6.905356 5.488821 6.95216 5.423816 7.009364 5.369212C7.066567 5.312008 7.113371 5.257404 7.113371 5.241802C7.113371 5.228802 7.136773 5.2028 7.165375 5.184598C7.193977 5.166398 7.217379 5.137794 7.217379 5.122194C7.217379 5.103993 7.243382 5.07539 7.277183 5.051989C7.308385 5.031188 7.362989 4.984384 7.399393 4.950581C7.435794 4.914179 7.5112 4.854375 7.565804 4.815372ZM16.578051 2.017572C16.622255 1.986369 17.155293 1.99937 17.332106 2.035773C17.540121 2.079976 17.636326 2.150181 17.841742 2.4206C18.000353 2.626015 18.018555 2.683219 18.028955 3.010843C18.049757 3.645288 17.888546 4.050917 17.425713 4.537152C17.183895 4.78937 16.713261 5.163797 16.640455 5.163797C16.502645 5.163797 16.41424 4.890777 16.526047 4.820572C16.554649 4.802372 16.578051 4.773769 16.578051 4.755568C16.578051 4.737367 16.588451 4.721766 16.598852 4.721766C16.632656 4.721766 16.994081 4.37074 16.994081 4.336938C16.994081 4.321337 17.017483 4.295335 17.046085 4.279734C17.079887 4.261533 17.098089 4.22513 17.098089 4.175726C17.098089 4.126323 17.116289 4.08992 17.150091 4.071719C17.189095 4.050917 17.202095 4.017115 17.202095 3.933908C17.202095 3.871504 17.220297 3.798699 17.241098 3.770097C17.287903 3.707692 17.287903 3.629688 17.241098 3.567283C17.220297 3.53868 17.202095 3.484077 17.202095 3.442474C17.202095 3.398271 17.183895 3.361867 17.150091 3.343666C17.12149 3.328066 17.098089 3.302063 17.098089 3.281262C17.098089 3.224058 16.900475 3.135651 16.689859 3.096649C16.578051 3.078448 16.455843 3.049845 16.419439 3.036845C16.310232 2.992641 16.162022 2.839231 16.162022 2.766425C16.162022 2.730022 16.14382 2.685819 16.123018 2.667618C16.102217 2.649417 16.084017 2.613014 16.084017 2.584412C16.084017 2.55581 16.102217 2.516808 16.123018 2.496006C16.14382 2.472604 16.162022 2.4232 16.162022 2.381598C16.162022 2.332193 16.180222 2.295791 16.214025 2.27759C16.242626 2.261989 16.266029 2.230787 16.266029 2.204784C16.266029 2.155381 16.422039 2.043573 16.492245 2.043573C16.518248 2.043573 16.557249 2.030572 16.578051 2.017572ZM12.331945 19.441422C12.438554 19.371218 12.474957 19.360817 12.641369 19.360817C12.807781 19.360817 12.841582 19.368616 12.953391 19.444023C13.135404 19.566231 13.20301 19.709242 13.192609 19.948458C13.184807 20.096668 13.169207 20.153873 13.112001 20.239679C12.976792 20.447695 12.729774 20.554302 12.508759 20.504898C12.376149 20.476297 12.209738 20.377489 12.209738 20.330687C12.209738 20.312485 12.186336 20.286484 12.157734 20.270882C12.11093 20.244881 12.10573 20.216278 12.10573 19.945858C12.10573 19.67544 12.11093 19.646837 12.157734 19.620834C12.186336 19.605234 12.209738 19.576632 12.209738 19.558432C12.209738 19.53763 12.264341 19.485626 12.331945 19.441422ZM10.678227 19.415421C10.800437 19.340015 11.052654 19.340015 11.198264 19.412821C11.320474 19.475225 11.442682 19.654638 11.468684 19.808048C11.531088 20.169474 11.263269 20.504898 10.914844 20.504898C10.761433 20.504898 10.675628 20.476297 10.540418 20.38269C10.462412 20.330687 10.44161 20.299484 10.44161 20.23448C10.43901 20.190275 10.423409 20.125271 10.402608 20.088869C10.353205 20.005663 10.355803 19.82885 10.402608 19.766445C10.423409 19.737844 10.44161 19.69364 10.44161 19.665039C10.44161 19.607834 10.550818 19.493425 10.678227 19.415421ZM11.715702 20.894928C11.82751 20.822121 12.11353 20.915728 12.220139 21.061338C12.368349 21.256353 12.37875 21.544973 12.24614 21.734787C12.129132 21.8986 11.949718 22.000006 11.770306 22.000006C11.614294 22.000006 11.377678 21.903799 11.377678 21.841394C11.377678 21.823193 11.351676 21.789391 11.323073 21.768591C11.27367 21.734787 11.268471 21.706186 11.26587 21.466969C11.26587 21.227751 11.27107 21.201748 11.323073 21.165346C11.351676 21.144545 11.377678 21.102942 11.377678 21.076941C11.377678 21.019735 11.525888 20.920929 11.614294 20.920929C11.648097 20.920929 11.694901 20.907927 11.715702 20.894928Z"/></svg>
