<svg xmlns="http://www.w3.org/2000/svg" width="24" height="24" viewBox="0 0 24 24"><path d="M 12.1253114716,2.03541640625 C 11.9853685847,2.08713499404 11.8241289688,2.21490887784 11.8241289688,2.2727126162 C 11.8241289688,2.29096547188 11.7967483872,2.3213886287 11.7632839531,2.33964148438 C 11.729819519,2.35789434005 11.7024389375,2.38831749688 11.7024389375,2.40961292784 C 11.7024389375,2.43090965683 11.675058356,2.46437409091 11.6415939219,2.48566952188 C 11.6081294878,2.50696495284 11.5807489063,2.54347196221 11.5807489063,2.56780996846 C 11.5807489063,2.59214797471 11.5533683247,2.62561370683 11.5199038906,2.6438665625 C 11.4864394565,2.66211941817 11.459058875,2.70166900284 11.459058875,2.73513473495 C 11.459058875,2.76859916904 11.4316782935,2.8081487537 11.3982138594,2.82640160938 C 11.3647494253,2.84465446505 11.3373688438,2.88420404971 11.3373688438,2.91766978183 C 11.3373688438,2.95113421591 11.3099882622,2.99068380058 11.2765238281,3.00893665625 C 11.2369742435,3.03023208721 11.2156788125,3.07282424716 11.2156788125,3.1306266875 C 11.2156788125,3.18842912784 11.1943833815,3.23102128779 11.1548337969,3.25231671875 C 11.1092003597,3.276654725 11.0939887813,3.31620430966 11.0939887813,3.40138733154 C 11.0939887813,3.47744392558 11.0726933503,3.53524636591 11.0331437656,3.57175337529 C 10.9844677531,3.61434423721 10.97229875,3.666062825 10.97229875,3.80600571192 C 10.97229875,3.92465446591 10.951003319,4.02504776817 10.9114537344,4.1041469375 C 10.8566925713,4.21062539034 10.8506087188,4.28363940909 10.8506087188,4.76431568154 C 10.8506087188,5.25411838183 10.8566925713,5.31496339745 10.9114537344,5.39710384404 C 10.9479607438,5.45186370909 10.97229875,5.54008930625 10.97229875,5.613103325 C 10.97229875,5.69828634688 10.9905529037,5.75608878721 11.0331437656,5.79259579659 C 11.069650775,5.8260615287 11.0939887813,5.88690654433 11.0939887813,5.94166640938 C 11.0939887813,6.002511425 11.1152842122,6.0511874375 11.1548337969,6.07552544375 C 11.188298231,6.09682087471 11.2156788125,6.13941303466 11.2156788125,6.17287746875 C 11.2156788125,6.20634190284 11.243059394,6.24893406279 11.2765238281,6.27022949375 C 11.3099882622,6.29152492471 11.3373688438,6.3249893588 11.3373688438,6.3432435125 C 11.3373688438,6.41017238067 11.6811435065,6.72352518466 11.8728049813,6.8300036375 C 12.0492548775,6.9273556625 13.0288602781,7.30155218409 13.2296494787,7.34414434404 C 13.30874735,7.36239719971 13.30874735,7.36848235029 13.2935357716,7.53580581875 C 13.2813667685,7.65749585 13.2600713375,7.72138344091 13.2205217528,7.75180529971 C 13.190099894,7.77310073067 13.1627193125,7.82481931846 13.1627193125,7.86436890312 C 13.1627193125,7.90391848779 13.135338731,7.949551925 13.1018742969,7.96780478067 C 13.0623247122,7.98910150966 13.0410292813,8.03169237159 13.0410292813,8.08949481192 C 13.0410292813,8.14729855029 13.0197338503,8.1929319875 12.9801842656,8.21726999375 C 12.940634681,8.24465057529 12.91933925,8.2902840125 12.91933925,8.35417160341 C 12.91933925,8.42110047159 12.9010863943,8.46369263154 12.8584942344,8.4849880625 C 12.8189446497,8.50628349346 12.7976492188,8.54887565341 12.7976492188,8.60667809375 C 12.7976492188,8.66448053409 12.7763537878,8.70707269404 12.7368042031,8.728368125 C 12.6972546185,8.74966355596 12.6759591875,8.79225571591 12.6759591875,8.85005815625 C 12.6759591875,8.90786059659 12.6546637565,8.95045275654 12.6151141719,8.9717481875 C 12.57252331,8.99304361846 12.5542691563,9.03563577841 12.5542691563,9.10560722188 C 12.5542691563,9.1664522375 12.52993115,9.22729725313 12.4934241406,9.26076168721 C 12.4477907034,9.30031127188 12.432579125,9.35507113692 12.432579125,9.4585083125 C 12.432579125,9.56194419005 12.4173675466,9.61670535312 12.3717341094,9.65625493779 C 12.3291432475,9.69580322442 12.3108890938,9.7505643875 12.3108890938,9.83878998466 C 12.3108890938,9.91788785596 12.2926362381,9.98481802216 12.2652556565,10.0061134531 C 12.2135370688,10.0517468903 12.2044106409,10.2464509403 12.2500440781,10.4016054057 C 12.2743820844,10.4867884275 12.2713395091,10.5324231628 12.2287486472,10.6297751878 C 12.1983254903,10.696704056 12.1526920531,10.7758032253 12.1283540469,10.8031825088 C 12.085763185,10.848817244 12.0735941818,10.8457746687 11.9519041506,10.7271272128 C 11.8819314091,10.6571544713 11.7328620943,10.4959161534 11.6202984909,10.3711835469 C 11.5046923122,10.2464509403 11.2886928313,10.015239881 11.1365809412,9.85400026505 C 10.7745521247,9.47371989091 10.528130785,9.21208567471 9.60328654745,8.22639642159 C 9.18041271534,7.77310073067 8.70886416875,7.27417160255 8.5567522787,7.11597456192 C 6.64317621279,5.11113162159 6.42109158125,4.8647089838 6.24159910966,4.54527362529 C 6.19292309716,4.46009060341 6.13816193409,4.37186500625 6.11686650313,4.347527 C 6.02255705341,4.2319208213 5.82481042813,3.77862642841 5.75483898466,3.50482320909 C 5.70920554745,3.34054231591 5.6666133875,3.07890809971 5.65748695966,2.92679620966 C 5.63010637813,2.497838525 5.49928991904,2.34876791221 5.19202226563,2.39744392471 C 5.07033223438,2.41569807841 5.02165622188,2.45220508779 4.78740258721,2.68341614716 C 4.64137454971,2.82640160938 4.52272709375,2.96026064375 4.52272709375,2.97547222216 C 4.52272709375,2.99372507784 4.49534651221,3.02414823466 4.46188207813,3.04544366563 C 4.42841764404,3.06673909659 4.4010370625,3.10628868125 4.4010370625,3.1306266875 C 4.4010370625,3.15496469375 4.37365648096,3.19451427841 4.34019204687,3.21580970938 C 4.30672761279,3.23710514034 4.27934703125,3.27969730029 4.27934703125,3.31316173438 C 4.27934703125,3.34358359317 4.25196644971,3.38617575313 4.21850201563,3.4044286088 C 4.18503758154,3.4226827625 4.157657,3.46223234716 4.157657,3.49265420596 C 4.157657,3.52307736279 4.13027641846,3.57175337529 4.09681198437,3.60217523409 C 4.06334755029,3.63259839091 4.03596696875,3.69040083125 4.03596696875,3.72690784063 C 4.03596696875,3.76645742529 4.00858638721,3.81513343779 3.97512195313,3.83642886875 C 3.9325310912,3.86380945029 3.9142769375,3.9094428875 3.9142769375,3.98245690625 C 3.9142769375,4.05242834971 3.89298150654,4.11023079005 3.85343192188,4.14369652216 C 3.80779848466,4.1832448088 3.79258690625,4.2319208213 3.79258690625,4.347527 C 3.79258690625,4.45704802812 3.77433405058,4.52701947159 3.72869931534,4.58786448721 C 3.66785429971,4.6700049338 3.66481302245,4.71259709375 3.66481302245,5.36059683466 C 3.66177044716,6.00859527755 3.66481302245,6.0511874375 3.72869931534,6.15158203779 C 3.77433405058,6.22459605654 3.79258690625,6.30673650313 3.79258690625,6.4223413838 C 3.79258690625,6.55011656563 3.80779848466,6.60183515341 3.85343192188,6.64442601534 C 3.88993893125,6.67789044942 3.9142769375,6.73873546505 3.9142769375,6.80262305596 C 3.9142769375,6.86651064687 3.93557236846,6.92431308721 3.97512195313,6.95473624404 C 4.00858638721,6.98515810284 4.03596696875,7.03687669063 4.03596696875,7.0733837 C 4.03596696875,7.10684813409 4.06334755029,7.16160929716 4.09681198437,7.19203115596 C 4.13027641846,7.22245431279 4.157657,7.27721417784 4.157657,7.3167637625 C 4.157657,7.35631334716 4.18503758154,7.40194678438 4.21850201563,7.42019964005 C 4.25196644971,7.43845379375 4.27934703125,7.47800337841 4.27934703125,7.5114678125 C 4.27934703125,7.54493224659 4.30672761279,7.58448183125 4.34019204687,7.60273468692 C 4.37365648096,7.62098884062 4.4010370625,7.65445327471 4.4010370625,7.67879128096 C 4.4010370625,7.70312928721 4.42841764404,7.7365937213 4.46188207813,7.754847875 C 4.49534651221,7.77310073067 4.52272709375,7.80656646279 4.52272709375,7.83090446904 C 4.52272709375,7.87653790625 4.59269853721,7.95867835284 4.94255835058,8.3207058713 C 5.04599422813,8.43022689942 5.13117725,8.52757892442 5.13117725,8.533664075 C 5.13117725,8.54279050284 5.2954594412,8.71315654659 5.49624734375,8.91090317188 C 5.69703654433,9.11169107442 5.8613174375,9.28814226875 5.8613174375,9.30639512442 C 5.8613174375,9.32160670284 5.88869801904,9.35202985966 5.92216245313,9.37332529062 C 5.95562688721,9.39462072159 5.98300746875,9.42200130313 5.98300746875,9.43721288154 C 5.98300746875,9.44938188466 6.06514791534,9.54369133438 6.16554251563,9.64408593466 C 6.26593711591,9.74447923692 6.3480775625,9.83878998466 6.3480775625,9.85400026505 C 6.3480775625,9.86921184346 6.22334495596,10.0000283025 6.07123306591,10.1490989153 C 5.49320476846,10.7058317818 5.13117725,11.0739431528 5.13117725,11.1013237344 C 5.13117725,11.1165353128 5.10379666846,11.1439145963 5.07033223438,11.16216875 C 5.03686780029,11.1804229037 5.00948721875,11.2138873378 5.00948721875,11.238225344 C 5.00948721875,11.2625633503 4.98210663721,11.2960277844 4.94864220313,11.3142819381 C 4.91517776904,11.3325347937 4.8877971875,11.3659992278 4.8877971875,11.3903372341 C 4.8877971875,11.4146752403 4.86041660596,11.4481396744 4.82695217188,11.4663938281 C 4.79348773779,11.4846479818 4.76610715625,11.5181124159 4.76610715625,11.5424504222 C 4.76610715625,11.5667884284 4.73872657471,11.6032954378 4.70526214063,11.6245908687 C 4.67179770654,11.6458862997 4.644417125,11.6884784597 4.644417125,11.7158577432 C 4.644417125,11.7462809 4.61703654346,11.7858304847 4.58357210938,11.8071259156 C 4.55010767529,11.8284213466 4.52272709375,11.8679709312 4.52272709375,11.8953515128 C 4.52272709375,11.9227307963 4.49534651221,11.9683655315 4.46188207813,11.9987873903 C 4.42841764404,12.0292105472 4.4010370625,12.0778865597 4.4010370625,12.1083084185 C 4.4010370625,12.1387315753 4.37365648096,12.1782798619 4.34019204687,12.1965340156 C 4.30064246221,12.2178294466 4.27934703125,12.2604216065 4.27934703125,12.3182240469 C 4.27934703125,12.3760264872 4.25805160029,12.4186186472 4.21850201563,12.4399140781 C 4.17286857841,12.4642520844 4.157657,12.503801669 4.157657,12.5920272662 C 4.157657,12.6802515653 4.14244542159,12.71980115 4.09681198437,12.7441391563 C 4.05117854716,12.7684771625 4.03596696875,12.8080267472 4.03596696875,12.9053787722 C 4.03596696875,12.9966456466 4.01771411308,13.0514068097 3.97512195313,13.087913819 C 3.92948851591,13.1244208284 3.9142769375,13.1761381182 3.9142769375,13.2856591463 C 3.9142769375,13.3738847435 3.89298150654,13.4590677653 3.86255834971,13.5047025006 C 3.79258690625,13.6050958028 3.76216504745,14.1466170909 3.7865030537,14.9436861466 C 3.79867205683,15.4699958563 3.81084105995,15.5521363028 3.85951707245,15.6099387432 C 3.89602408183,15.6555734784 3.9142769375,15.7225023466 3.9142769375,15.8320233747 C 3.9142769375,15.9506708307 3.92948851591,16.0023894185 3.97512195313,16.0449815784 C 4.02075539034,16.0875724403 4.03596696875,16.1392910281 4.03596696875,16.2579384841 C 4.03596696875,16.3705020875 4.05422112245,16.440473531 4.09681198437,16.495234694 C 4.13027641846,16.537825556 4.157657,16.6169247253 4.157657,16.6777697409 C 4.157657,16.7416560338 4.17895243096,16.8025010494 4.21850201563,16.8359667815 C 4.26413545284,16.8785576435 4.27934703125,16.9302762313 4.27934703125,17.0489236872 C 4.27934703125,17.1675711432 4.29455860966,17.219289731 4.34019204687,17.2618818909 C 4.38582548409,17.3044727528 4.4010370625,17.3561913406 4.4010370625,17.4717962213 C 4.4010370625,17.5752333969 4.42233249346,17.6573738435 4.46188207813,17.7182188591 C 4.51360066591,17.7942754531 4.52272709375,17.8612043213 4.52272709375,18.1319649653 C 4.52272709375,18.4148946125 4.5166432412,18.4605280497 4.46188207813,18.5092040622 C 4.42841764404,18.539627219 4.4010370625,18.582218081 4.4010370625,18.6065560872 C 4.4010370625,18.734331269 4.02684054091,18.9624997531 3.59484028096,19.10244264 C 3.52791141279,19.123739369 3.43664324034,19.166330231 3.39100980313,19.199794665 C 3.30886935654,19.2545558281 3.30582678125,19.2728086838 3.30582678125,19.4979358906 C 3.30582678125,19.8782175628 3.10199630341,19.847794406 5.63314895341,19.847794406 C 7.76272450029,19.847794406 7.76272450029,19.847794406 7.88745710683,19.7808655378 C 8.24339947471,19.589202765 8.4898221125,19.0568092028 8.57500513438,18.2932045812 C 8.6054282912,18.0194013619 8.60238571591,17.9433460659 8.54458327558,17.6056552557 C 8.43810352471,16.9789522438 8.20385118808,16.5256565528 7.59235845654,15.7711783591 C 7.43111884063,15.5703904565 7.25771022159,15.348305825 7.21207678438,15.2813756588 C 7.16340077188,15.2114042153 6.99303472813,14.9771505807 6.8348376875,14.764193675 C 6.33590855938,14.0827295 6.19900694971,13.7298284094 6.17466894346,13.0483642344 C 6.15945866308,12.6254917003 6.16249994034,12.5920259682 6.25376811279,12.2269558744 C 6.30852797784,12.017041544 6.38762714716,11.7706189063 6.43021800909,11.6793507338 C 6.53061260938,11.475520256 6.79528810284,11.0830695807 6.980865725,10.8640275244 L 7.11776733466,10.7027892065 L 7.22728836279,10.8062250841 C 7.28813337841,10.8640275244 7.36114739716,10.9187886875 7.39156925596,10.9279151153 C 7.4189498375,10.9400841185 7.44328784375,10.9613795494 7.44328784375,10.9765911278 C 7.44328784375,10.9948452815 7.47371100058,11.0404787188 7.51325928721,11.0800283034 C 7.78706250654,11.378168231 8.44418867529,12.0687588338 8.6541043037,12.2786744622 C 8.79100461534,12.4186186472 8.90356821875,12.5403086784 8.90356821875,12.5494351062 C 8.90356821875,12.5585615341 9.09522969346,12.7563081594 9.32948332813,12.990561794 C 9.56373696279,13.2248141307 9.7553984375,13.422560756 9.7553984375,13.4286459065 C 9.7553984375,13.4347297591 9.88925747188,13.574673944 10.0535396631,13.7389548372 C 10.2178205563,13.9032370284 10.3608060185,14.0644753463 10.3729750216,14.0918559278 C 10.3821027475,14.1192365094 10.4125246063,14.1435745156 10.4399051878,14.1435745156 C 10.464243194,14.1435745156 10.485538625,14.158786094 10.485538625,14.1770389497 C 10.485538625,14.1952931034 10.6224402347,14.3443624182 10.7897637031,14.5086446094 C 10.9570871716,14.6729255025 11.0939887813,14.8159122628 11.0939887813,14.8280812659 C 11.0939887813,14.8372076938 11.1730879506,14.9254332909 11.2704399756,15.0197427406 C 11.3647494253,15.1170947656 11.4986084597,15.2600802278 11.5624960506,15.3391793972 C 11.6294249188,15.4182772685 11.7206930912,15.5125867182 11.7693691037,15.5460524503 L 11.8545521256,15.6068974659 L 11.9032281381,15.521714444 C 12.2956775153,14.8037432597 12.4690861344,14.5603631972 12.8889173912,14.1466170909 C 13.2174804756,13.8241378591 13.5642964156,13.5655462182 13.9932541003,13.3221661557 C 14.1544937162,13.2308992813 14.2883527506,13.1487588347 14.2883527506,13.1365898315 C 14.2883527506,13.1244208284 14.1697039966,12.9601386372 14.0236759591,12.7715197378 C 13.7559578903,12.4216599244 13.524746831,11.9866183872 13.4243535287,11.6519714503 C 13.330042781,11.3294922185 13.2996209222,10.870112675 13.3391705068,10.3316339622 C 13.3756775162,9.81140940312 13.4091419503,9.65929621505 13.5764654188,9.25467783466 C 13.6738174438,9.01738162471 14.2183800091,8.04994652529 14.3461551909,7.88870690938 L 14.4039576313,7.81265031534 L 14.4587187943,7.90391848779 C 14.4891406531,7.95259450029 14.5347740903,8.00127051279 14.5621546719,8.00735436534 C 14.6169145369,8.02256594375 14.6595066969,8.2233538463 14.6686331247,8.50019964091 C 14.6747182753,8.73141070029 14.7355632909,8.84397300567 14.8755061778,8.88352259034 C 15.1097598125,8.94741018125 15.2740407057,8.82876272529 15.4930827619,8.43631205 C 16.0467730531,7.44758022159 16.1441250781,6.28239849688 15.7516744028,5.38493484091 C 15.5873935097,5.01682217188 15.505251765,4.90121599317 15.1949428344,4.60611864091 C 14.9971962091,4.41749844346 14.8724636025,4.3292728463 14.6473376938,4.21671054091 C 14.3522390435,4.07068250341 13.914154931,3.89727388438 13.7711694688,3.86989330284 C 13.7285786068,3.860766875 13.5551699878,3.78775285625 13.3878452213,3.70561240966 C 13.1535928847,3.59304880625 13.0471131338,3.52307736279 12.9497624068,3.41355633466 C 12.703339769,3.13366926279 12.5877335903,2.80206360313 12.5846923131,2.35485306279 C 12.5816497378,2.15102128692 12.5268885747,2.06279698779 12.3808605372,2.02020482784 C 12.2774246597,1.98978296904 12.2348324997,1.9928242463 12.1253114716,2.03541640625 Z M 16.0102660438,13.4955747747 C 15.9980970406,13.5077437778 15.8946611631,13.5290405068 15.785140135,13.54120951 C 15.6725765315,13.5533785131 15.5143794909,13.574673944 15.429196469,13.5898855225 C 15.2831684315,13.617264806 15.2314498438,13.6324763844 15.0945482341,13.6872375475 C 15.0610838,13.6994065506 14.985027206,13.7267858341 14.9272247656,13.7480825631 C 14.7507748693,13.8089275787 14.4313382128,13.9671246193 14.3187746094,14.0523076412 C 14.260972169,14.0979410784 14.1605775688,14.1618286693 14.0997325531,14.1983356787 C 13.8654789185,14.3291521378 13.2844093438,14.8280812659 13.2844093438,14.8950101341 C 13.2844093438,14.9071791372 13.2570287622,14.937602294 13.2235643281,14.958897725 C 13.190099894,14.980193156 13.1627193125,15.0167001653 13.1627193125,15.0410381716 C 13.1627193125,15.0653761778 13.135338731,15.09884191 13.1018742969,15.1170947656 C 13.0684098628,15.1353489193 13.0410292813,15.174897206 13.0410292813,15.2083629381 C 13.0410292813,15.2418273722 13.0136486997,15.2813769568 12.9801842656,15.2996298125 C 12.9467198315,15.3178839662 12.91933925,15.3574322528 12.91933925,15.390897985 C 12.91933925,15.424362419 12.8919586685,15.4639120037 12.8584942344,15.4821648594 C 12.8250298003,15.5004190131 12.7976492188,15.5460524503 12.7976492188,15.585602035 C 12.7976492188,15.6251503216 12.7702686372,15.6799114847 12.7368042031,15.7103333435 C 12.703339769,15.7407565003 12.6759591875,15.7955163653 12.6759591875,15.83506595 C 12.6759591875,15.8746155347 12.648578606,15.9202489719 12.6151141719,15.9385031256 C 12.57252331,15.9597985565 12.5542691563,16.0023894185 12.5542691563,16.07236216 C 12.5542691563,16.1332071756 12.52993115,16.1940521912 12.4934241406,16.2275166253 C 12.4508332787,16.26706621 12.432579125,16.321826075 12.432579125,16.4100516722 C 12.432579125,16.4921921188 12.411283694,16.5652061375 12.3717341094,16.6169247253 C 12.3291432475,16.6686433131 12.3108890938,16.7386147565 12.3108890938,16.8420506341 C 12.3108890938,16.9241923787 12.2865510875,17.0276282563 12.259170506,17.079346844 C 12.1800726347,17.2162484537 12.1800726347,18.2810355781 12.259170506,18.4240210403 C 12.2895936628,18.4818247787 12.3108890938,18.5852606563 12.3108890938,18.6856552565 C 12.3108890938,18.8043027125 12.3291432475,18.8712328787 12.3717341094,18.929035319 C 12.4051985435,18.971626181 12.432579125,19.0507253503 12.432579125,19.1115703659 C 12.432579125,19.1754579568 12.453874556,19.2363029725 12.4934241406,19.2697674065 C 12.5268885747,19.3001892653 12.5542691563,19.361034281 12.5542691563,19.4066690162 C 12.5542691563,19.4523024534 12.5816497378,19.513147469 12.6151141719,19.5435693278 C 12.648578606,19.5739924847 12.6759591875,19.6378800756 12.6759591875,19.6835135128 C 12.6759591875,19.7382733778 12.6972546185,19.7808655378 12.7368042031,19.8021609688 C 12.7702686372,19.8204151225 12.7976492188,19.8599634091 12.7976492188,19.8934291412 C 12.7976492188,19.9268935753 12.8250298003,19.96644316 12.8584942344,19.9846960156 C 12.8950012437,20.0029501693 12.91933925,20.0485836065 12.91933925,20.0911744685 C 12.91933925,20.1337666284 12.9436772563,20.1794000656 12.9801842656,20.1976542193 C 13.0136486997,20.215907075 13.0410292813,20.2493715091 13.0410292813,20.2737095153 C 13.0410292813,20.2980475216 13.0684098628,20.3315132537 13.1018742969,20.3497661094 C 13.135338731,20.3680202631 13.1627193125,20.3953995466 13.1627193125,20.410611125 C 13.1627193125,20.4258227034 13.2174791775,20.4957941469 13.2844093438,20.5627243131 C 13.35133951,20.6296531812 13.406099375,20.6935407722 13.406099375,20.7026672 C 13.406099375,20.723962631 13.579507994,20.89737125 13.5977608497,20.89737125 C 13.6038460003,20.89737125 13.6799025943,20.9612588409 13.7650843182,21.037315435 C 14.1727465719,21.4084693813 14.9515627719,21.7857084781 15.5782657838,21.9195675125 C 15.9129140188,21.989538956 16.3692509869,22.0169195375 16.7556178097,21.989538956 C 18.3345456406,21.8800179278 19.7735305847,20.8304423818 20.3819807409,19.3458240006 C 21.0299804818,17.760811019 20.6618678128,15.8989535409 19.4601790787,14.6911796563 C 19.3506580506,14.5816586281 19.1407424222,14.3991235813 18.9886292341,14.2865599778 C 18.705700885,14.0766456475 18.0911655781,13.7511238403 17.8477855156,13.6872375475 C 17.7717289216,13.6659408185 17.6835046225,13.638561535 17.6500388903,13.6263925318 C 17.4249129815,13.5351243594 16.0802374872,13.4286459065 16.0102660438,13.4955747747 Z M 16.7647442375,15.0623349006 C 16.9016458472,15.132306344 17.0568003125,15.2844182341 17.0568003125,15.348305825 C 17.0568003125,15.369601256 17.084180894,15.4030669881 17.1176453281,15.4213198438 C 17.1724064912,15.4487004253 17.1784903438,15.4852074347 17.1784903438,15.7194610693 C 17.1784903438,15.9506721287 17.1724064912,15.9902204153 17.1176453281,16.0236861475 C 17.084180894,16.0449815784 17.0568003125,16.0814885878 17.0568003125,16.1088691693 C 17.0568003125,16.1636290344 16.9229412781,16.3066144966 16.8164628253,16.364418235 C 16.6886876435,16.4313471031 16.3023221188,16.4161355247 16.153251506,16.3400802287 C 15.9402946003,16.2305592006 15.818604569,16.1027840188 15.7486331256,15.9141651193 C 15.5204633435,15.3117988156 16.174548235,14.7611510997 16.7647442375,15.0623349006 Z M 17.0811383188,16.9028956497 C 17.1358994818,16.9880786716 17.148068485,17.0397972594 17.1328569065,17.1067274256 C 17.1206879034,17.1584447153 17.1146027528,17.24058646 17.1176453281,17.2923037497 C 17.1176453281,17.3409797622 17.126771756,17.8277398872 17.1358994818,18.3692611753 C 17.148068485,19.2150062435 17.1450259097,19.3701620068 17.105476325,19.4735978844 C 17.0780957435,19.5374854753 17.0568003125,19.6165833466 17.0568003125,19.6500490787 C 17.0568003125,19.7382733778 17.1906593469,19.8112873966 17.3944898247,19.8356254028 C 17.6074480284,19.8599634091 17.6713356193,19.9177671475 17.6804620472,20.0850906159 C 17.6835046225,20.1550620594 17.6956736256,20.2493715091 17.7078426287,20.2950062443 C 17.7230529091,20.3497661094 17.7139264813,20.3984421219 17.6804620472,20.453203285 L 17.6287434594,20.5323011562 L 16.5304906028,20.5323011562 C 15.7547169781,20.5323011562 15.4048584628,20.5231747284 15.331844444,20.4957941469 L 15.2314498438,20.4592871375 L 15.2314498438,20.16114721 C 15.2314498438,19.826498975 15.2071118375,19.8569221318 15.5174220662,19.8173725472 C 15.5995625128,19.805203544 15.6999571131,19.7839081131 15.7395053997,19.7686965347 L 15.8094781412,19.7413159531 L 15.8033929906,18.6552320997 L 15.7942665628,17.5691495443 L 15.68778811,17.5417689628 C 15.6299843716,17.5295999597 15.5326323466,17.5052619534 15.4748299063,17.4930929503 C 15.2375349943,17.4413743625 15.2253659912,17.4231215068 15.2375349943,17.1401918597 C 15.2405762716,17.0002476747 15.2527452747,16.8785576435 15.2618730006,16.8724737909 C 15.2801258563,16.8542196372 16.2688576847,16.7994597722 16.6917302188,16.7964171969 L 17.0111668753,16.7933746216 Z"/></svg>
