<svg xmlns="http://www.w3.org/2000/svg" viewBox="0 0 24 24" width="24" height="24"><path fill="currentColor" d="M 4.14330359375,3.40117435312 c -0.1023669,0.01919379375 -0.239922421875,0.1151627625 -0.4094676,0.28790690625 c -0.076775175,0.076775175 -0.15355035,0.137555521875 -0.169545178125,0.137555521875 s -0.028790690625,0.022392759375 -0.028790690625,0.047984484375 s -0.028790690625,0.0639793125 -0.0639793125,0.086372071875 s -0.0639793125,0.05758138125 -0.0639793125,0.079974140625 s -0.028790690625,0.054382415625 -0.0639793125,0.073576209375 s -0.0639793125,0.054382415625 -0.0639793125,0.079974140625 s -0.028790690625,0.060780346875 -0.0639793125,0.079974140625 s -0.0639793125,0.05758138125 -0.0639793125,0.0895710375 c 0,0.028790690625 -0.028790690625,0.073576209375 -0.0639793125,0.09596896875 s -0.0639793125,0.073576209375 -0.0639793125,0.118361728125 s -0.025591725,0.092770003125 -0.0639793125,0.111963796875 c -0.041586553125,0.022392759375 -0.0639793125,0.067178278125 -0.0639793125,0.127958625 s -0.022392759375,0.105565865625 -0.0639793125,0.127958625 c -0.047984484375,0.025591725 -0.0639793125,0.067178278125 -0.0639793125,0.17274414375 c 0,0.09596896875 -0.01919379375,0.15355035 -0.0639793125,0.195136903125 c -0.047984484375,0.04478551875 -0.0639793125,0.099167934375 -0.0639793125,0.23672345625 c 0,0.124759659375 -0.01919379375,0.207932765625 -0.0639793125,0.27511104375 c -0.05758138125,0.086372071875 -0.0639793125,0.150351384375 -0.0639793125,0.681379678125 c 0,0.540625190625 0.00639793125,0.59500760625 0.0639793125,0.668583815625 c 0.041586553125,0.054382415625 0.0639793125,0.131157590625 0.0639793125,0.2175296625 c 0,0.092770003125 0.01919379375,0.150351384375 0.0639793125,0.1919379375 c 0.0383875875,0.035188621875 0.0639793125,0.099167934375 0.0639793125,0.163147246875 c 0,0.073576209375 0.01919379375,0.118361728125 0.0639793125,0.1407544875 c 0.041586553125,0.022392759375 0.0639793125,0.067178278125 0.0639793125,0.127958625 s 0.022392759375,0.105565865625 0.0639793125,0.127958625 c 0.035188621875,0.01919379375 0.0639793125,0.060780346875 0.0639793125,0.092770003125 s 0.028790690625,0.08317310625 0.0639793125,0.1151627625 s 0.0639793125,0.076775175 0.0639793125,0.099167934375 s 0.028790690625,0.05758138125 0.0639793125,0.076775175 s 0.0639793125,0.05118345 0.0639793125,0.073576209375 c 0,0.035188621875 0.14715241875,0.182341040625 0.508635534375,0.508635534375 c 0.07037724375,0.067178278125 0.131157590625,0.13435655625 0.131157590625,0.15355035 c 0,0.015994828125 0.028790690625,0.047984484375 0.0639793125,0.07037724375 s 0.0639793125,0.054382415625 0.0639793125,0.073576209375 c 0.003198965625,0.015994828125 0.13435655625,0.15355035 0.2943048375,0.303901734375 c 0.425462428125,0.393472771875 0.7293641625,0.700573471875 0.7293641625,0.73576209375 c 0,0.015994828125 0.028790690625,0.04478551875 0.0639793125,0.0639793125 c 0.047984484375,0.025591725 0.0639793125,0.067178278125 0.0639793125,0.15994828125 c 0,0.10876483125 -0.0127958625,0.13435655625 -0.1023669,0.179142075 c -0.05758138125,0.028790690625 -0.131157590625,0.076775175 -0.15994828125,0.105565865625 c -0.0895710375,0.08317310625 -0.150351384375,0.131157590625 -0.169545178125,0.131157590625 c -0.009596896875,0 -0.079974140625,0.05758138125 -0.150351384375,0.127958625 c -0.073576209375,0.07037724375 -0.14715241875,0.127958625 -0.15994828125,0.127958625 s -0.025591725,0.015994828125 -0.025591725,0.035188621875 s -0.1151627625,0.14715241875 -0.25591725,0.284707940625 s -0.25591725,0.265514146875 -0.25591725,0.284707940625 s -0.028790690625,0.047984484375 -0.0639793125,0.067178278125 s -0.0639793125,0.054382415625 -0.0639793125,0.079974140625 s -0.028790690625,0.060780346875 -0.0639793125,0.079974140625 s -0.0639793125,0.05118345 -0.0639793125,0.073576209375 s -0.028790690625,0.05758138125 -0.0639793125,0.079974140625 s -0.0639793125,0.060780346875 -0.0639793125,0.086372071875 s -0.028790690625,0.060780346875 -0.0639793125,0.079974140625 s -0.0639793125,0.067178278125 -0.0639793125,0.105565865625 s -0.028790690625,0.0895710375 -0.0639793125,0.111963796875 s -0.0639793125,0.067178278125 -0.0639793125,0.1023669 s -0.028790690625,0.079974140625 -0.0639793125,0.1023669 s -0.0639793125,0.07037724375 -0.0639793125,0.10876483125 c 0,0.035188621875 -0.028790690625,0.092770003125 -0.0639793125,0.124759659375 c -0.0383875875,0.035188621875 -0.0639793125,0.099167934375 -0.0639793125,0.156749315625 c 0,0.060780346875 -0.025591725,0.12156069375 -0.0639793125,0.156749315625 c -0.04478551875,0.0383875875 -0.0639793125,0.092770003125 -0.0639793125,0.1919379375 s -0.01919379375,0.156749315625 -0.0639793125,0.19833586875 c -0.047984484375,0.04478551875 -0.0639793125,0.099167934375 -0.0639793125,0.230325525 c 0,0.10876483125 -0.022392759375,0.2175296625 -0.0639793125,0.297503803125 c -0.05758138125,0.1151627625 -0.0639793125,0.188738971875 -0.0639793125,0.886113478125 c 0,0.700573471875 0.00639793125,0.770950715625 0.0639793125,0.8829145125 c 0.041586553125,0.079974140625 0.0639793125,0.179142075 0.0639793125,0.303901734375 c 0,0.14715241875 0.0127958625,0.201534834375 0.0639793125,0.246320353125 c 0.047984484375,0.041586553125 0.0639793125,0.099167934375 0.0639793125,0.207932765625 s 0.015994828125,0.1663462125 0.0639793125,0.207932765625 c 0.047984484375,0.04478551875 0.0639793125,0.099167934375 0.0639793125,0.22392759375 s 0.015994828125,0.179142075 0.0639793125,0.22392759375 c 0.047984484375,0.041586553125 0.0639793125,0.099167934375 0.0639793125,0.207932765625 c 0,0.105565865625 0.01919379375,0.17274414375 0.0639793125,0.22392759375 c 0.041586553125,0.05118345 0.0639793125,0.118361728125 0.0639793125,0.214330696875 c 0,0.076775175 0.022392759375,0.18554000625 0.05118345,0.2431213875 c 0.07037724375,0.13435655625 0.073576209375,0.323095528125 0.003198965625,0.3966717375 c -0.028790690625,0.035188621875 -0.054382415625,0.099167934375 -0.054382415625,0.14715241875 c 0,0.04478551875 -0.025591725,0.1023669 -0.05758138125,0.124759659375 s -0.067178278125,0.0639793125 -0.076775175,0.092770003125 c -0.022392759375,0.05758138125 -0.271912078125,0.15994828125 -0.537426225,0.220728628125 c -0.252718284375,0.05758138125 -0.47984484375,0.179142075 -0.47984484375,0.25591725 c 0,0.035188621875 -0.028790690625,0.076775175 -0.0639793125,0.09596896875 c -0.05118345,0.028790690625 -0.0639793125,0.067178278125 -0.0639793125,0.207932765625 c 0,0.169545178125 0.003198965625,0.179142075 0.13435655625,0.26231518125 l 0.13435655625,0.0895710375 l 4.44976118438,0 l 0.127958625,-0.08317310625 c 0.33909035625,-0.22392759375 0.489441740625,-0.5246303625 0.639793125,-1.27638728437 c 0.041586553125,-0.2047338 0.05118345,-0.35828415 0.0383875875,-0.639793125 c -0.03198965625,-0.62059933125 -0.067178278125,-0.732563128125 -0.399870703125,-1.31157590625 c -0.143953453125,-0.252718284375 -0.438258290625,-0.617400365625 -0.719767265625,-0.8829145125 c -0.150351384375,-0.143953453125 -0.297503803125,-0.303901734375 -0.329493459375,-0.35188621875 c -0.03198965625,-0.05118345 -0.127958625,-0.182341040625 -0.214330696875,-0.2943048375 c -0.175943109375,-0.22392759375 -0.419064496875,-0.579012778125 -0.489441740625,-0.713369334375 c -0.207932765625,-0.406268634375 -0.291105871875,-0.90210830625 -0.239922421875,-1.44913142813 c 0.028790690625,-0.31349863125 0.05118345,-0.412666565625 0.179142075,-0.7293641625 c 0.1407544875,-0.355085184375 0.37747794375,-0.751756921875 0.6142014,-1.0364648625 l 0.1151627625,-0.137555521875 l 0.188738971875,0.1663462125 c 0.105565865625,0.092770003125 0.969286584375,0.94049589375 1.92257834062,1.88738971875 s 1.74343626563,1.73383936875 1.75623212813,1.74343626563 c 0.329493459375,0.316697596875 2.9686401,3.00062975625 2.9814359625,3.0326194125 c 0.009596896875,0.025591725 0.0383875875,0.04478551875 0.067178278125,0.04478551875 c 0.025591725,0 0.047984484375,0.028790690625 0.047984484375,0.0639793125 s 0.028790690625,0.079974140625 0.0639793125,0.1023669 s 0.0639793125,0.067178278125 0.0639793125,0.09596896875 c 0,0.03198965625 0.028790690625,0.073576209375 0.0639793125,0.09596896875 s 0.0639793125,0.0639793125 0.0639793125,0.092770003125 s 0.028790690625,0.076775175 0.0639793125,0.10876483125 s 0.0639793125,0.099167934375 0.0639793125,0.14715241875 c 0,0.05758138125 0.022392759375,0.1023669 0.0639793125,0.124759659375 c 0.04478551875,0.022392759375 0.0639793125,0.067178278125 0.0639793125,0.1407544875 c 0,0.05758138125 0.025591725,0.1407544875 0.060780346875,0.182341040625 c 0.04478551875,0.060780346875 0.0639793125,0.15994828125 0.08317310625,0.444656221875 c 0.0127958625,0.227126559375 0.0383875875,0.39027380625 0.067178278125,0.42866139375 c 0.025591725,0.035188621875 0.04478551875,0.0895710375 0.04478551875,0.118361728125 c 0,0.067178278125 0.13435655625,0.111963796875 0.3966717375,0.137555521875 l 0.1919379375,0.015994828125 l 0.297503803125,-0.291105871875 c 0.79974140625,-0.78694554375 1.12923486563,-1.60268177812 1.12923486563,-2.8022938875 c 0,-0.742160025 -0.23672345625,-1.44273349688 -0.6781807125,-2.00575144687 c -0.07037724375,-0.0895710375 -0.56941588125,-0.60780346875 -1.11004107187,-1.151627625 c -0.994878309375,-1.00767417187 -1.407544875,-1.458728325 -1.41394280625,-1.5482993625 c -0.003198965625,-0.028790690625 -0.00639793125,-0.1023669 -0.009596896875,-0.163147246875 c -0.00639793125,-0.060780346875 -0.01919379375,-0.24951931875 -0.03198965625,-0.41586553125 c -0.022392759375,-0.239922421875 -0.015994828125,-0.33909035625 0.025591725,-0.47984484375 c 0.025591725,-0.09596896875 0.07037724375,-0.28790690625 0.09596896875,-0.4222634625 c 0.025591725,-0.137555521875 0.079974140625,-0.316697596875 0.1151627625,-0.399870703125 c 0.0383875875,-0.086372071875 0.0895710375,-0.220728628125 0.1151627625,-0.303901734375 s 0.1151627625,-0.2431213875 0.19833586875,-0.35188621875 c 0.086372071875,-0.111963796875 0.214330696875,-0.28790690625 0.284707940625,-0.3966717375 c 0.163147246875,-0.239922421875 0.438258290625,-0.49264070625 0.537426225,-0.49264070625 c 0.0383875875,0 0.0895710375,0.022392759375 0.111963796875,0.047984484375 s 0.05118345,0.047984484375 0.067178278125,0.047984484375 s 0.0639793125,0.03198965625 0.10876483125,0.07037724375 c 0.067178278125,0.05758138125 0.079974140625,0.09596896875 0.079974140625,0.24951931875 c 0,0.137555521875 0.015994828125,0.201534834375 0.0639793125,0.25591725 c 0.041586553125,0.047984484375 0.0639793125,0.118361728125 0.0639793125,0.21113173125 c 0,0.118361728125 0.0127958625,0.143953453125 0.105565865625,0.19833586875 c 0.22392759375,0.13435655625 0.35188621875,0.118361728125 0.591808640625,-0.079974140625 c 0.15355035,-0.124759659375 0.201534834375,-0.195136903125 0.46065105,-0.66538485 c 0.1663462125,-0.2943048375 0.21113173125,-0.412666565625 0.35828415,-0.91490416875 c 0.07037724375,-0.2431213875 0.073576209375,-1.049260725 0.003198965625,-1.24439762813 c -0.025591725,-0.073576209375 -0.047984484375,-0.17274414375 -0.047984484375,-0.220728628125 c 0,-0.12156069375 -0.12156069375,-0.36468208125 -0.3454882875,-0.690976575 c -0.259116215625,-0.380676909375 -0.25591725,-0.374278978125 -0.4222634625,-0.47984484375 c -0.079974140625,-0.05118345 -0.2175296625,-0.143953453125 -0.3071007,-0.21113173125 c -0.086372071875,-0.067178278125 -0.259116215625,-0.1663462125 -0.383875875,-0.220728628125 c -0.12156069375,-0.054382415625 -0.457452084375,-0.2175296625 -0.74855795625,-0.361483115625 c -0.476645878125,-0.23672345625 -0.5502220875,-0.284707940625 -0.770950715625,-0.502237603125 c -0.13435655625,-0.131157590625 -0.265514146875,-0.27511104375 -0.2943048375,-0.3198965625 s -0.08317310625,-0.246320353125 -0.12156069375,-0.4478551875 s -0.099167934375,-0.41586553125 -0.13435655625,-0.476645878125 c -0.08317310625,-0.137555521875 -0.23672345625,-0.201534834375 -0.412666565625,-0.17274414375 c -0.124759659375,0.01919379375 -0.31349863125,0.118361728125 -0.33909035625,0.175943109375 c -0.00639793125,0.015994828125 -0.03198965625,0.025591725 -0.05758138125,0.025591725 s -0.060780346875,0.035188621875 -0.076775175,0.079974140625 s -0.054382415625,0.0895710375 -0.079974140625,0.099167934375 c -0.025591725,0.0127958625 -0.047984484375,0.0383875875 -0.047984484375,0.0639793125 c 0,0.022392759375 -0.028790690625,0.05758138125 -0.0639793125,0.076775175 s -0.0639793125,0.060780346875 -0.0639793125,0.09596896875 s -0.028790690625,0.076775175 -0.0639793125,0.09596896875 s -0.0639793125,0.067178278125 -0.0639793125,0.105565865625 s -0.028790690625,0.0895710375 -0.0639793125,0.111963796875 s -0.0639793125,0.07037724375 -0.0639793125,0.111963796875 c 0,0.0383875875 -0.028790690625,0.0895710375 -0.0639793125,0.111963796875 s -0.0639793125,0.073576209375 -0.0639793125,0.118361728125 s -0.025591725,0.092770003125 -0.0639793125,0.111963796875 c -0.04478551875,0.022392759375 -0.0639793125,0.067178278125 -0.0639793125,0.137555521875 c 0,0.0639793125 -0.025591725,0.124759659375 -0.0639793125,0.15994828125 c -0.04478551875,0.0383875875 -0.0639793125,0.092770003125 -0.0639793125,0.182341040625 s -0.01919379375,0.143953453125 -0.0639793125,0.182341040625 s -0.0639793125,0.09596896875 -0.0639793125,0.18554000625 c 0,0.07037724375 -0.022392759375,0.156749315625 -0.047984484375,0.188738971875 c -0.0639793125,0.086372071875 -0.0639793125,0.49264070625 0,0.5758138125 c 0.025591725,0.035188621875 0.047984484375,0.118361728125 0.047984484375,0.18554000625 c 0,0.086372071875 0.015994828125,0.127958625 0.0639793125,0.15355035 c 0.04478551875,0.025591725 0.0639793125,0.067178278125 0.0639793125,0.143953453125 s 0.01919379375,0.124759659375 0.0639793125,0.150351384375 c 0.035188621875,0.022392759375 0.0639793125,0.073576209375 0.0639793125,0.111963796875 s 0.028790690625,0.086372071875 0.0639793125,0.105565865625 s 0.0639793125,0.0639793125 0.0639793125,0.099167934375 s 0.01919379375,0.07037724375 0.041586553125,0.079974140625 c 0.01919379375,0.00639793125 0.1151627625,0.111963796875 0.21113173125,0.230325525 c 0.175943109375,0.2175296625 0.2943048375,0.316697596875 0.611002434375,0.5118345 c 0.49264070625,0.3071007 0.758154853125,0.457452084375 0.898909340625,0.50543656875 c 0.1407544875,0.05118345 0.156749315625,0.067178278125 0.156749315625,0.15355035 c 0,0.073576209375 -0.03198965625,0.127958625 -0.127958625,0.21113173125 c -0.07037724375,0.060780346875 -0.127958625,0.127958625 -0.127958625,0.143953453125 c 0,0.01919379375 -0.028790690625,0.05118345 -0.0639793125,0.073576209375 s -0.0639793125,0.067178278125 -0.0639793125,0.1023669 s -0.028790690625,0.079974140625 -0.0639793125,0.1023669 s -0.0639793125,0.076775175 -0.0639793125,0.12156069375 s -0.028790690625,0.099167934375 -0.0639793125,0.12156069375 s -0.0639793125,0.073576209375 -0.0639793125,0.118361728125 s -0.025591725,0.092770003125 -0.0639793125,0.111963796875 s -0.0639793125,0.067178278125 -0.0639793125,0.111963796875 s -0.025591725,0.092770003125 -0.0639793125,0.111963796875 c -0.041586553125,0.022392759375 -0.0639793125,0.067178278125 -0.0639793125,0.127958625 s -0.022392759375,0.10876483125 -0.0639793125,0.13435655625 c -0.041586553125,0.028790690625 -0.0639793125,0.076775175 -0.0639793125,0.143953453125 c 0,0.07037724375 -0.01919379375,0.1151627625 -0.0639793125,0.137555521875 c -0.047984484375,0.025591725 -0.0639793125,0.067178278125 -0.0639793125,0.175943109375 c 0,0.086372071875 -0.01919379375,0.15994828125 -0.05118345,0.1919379375 c -0.028790690625,0.028790690625 -0.060780346875,0.118361728125 -0.07037724375,0.201534834375 s -0.041586553125,0.182341040625 -0.07037724375,0.22392759375 l -0.05758138125,0.07037724375 l -0.297503803125,-0.265514146875 c -0.1663462125,-0.14715241875 -1.52590660313,-1.49071798125 -3.02302251563,-2.98463492813 l -2.72231974687,-2.71592181562 l -0.22392759375,-0.463850015625 c -0.124759659375,-0.25591725 -0.239922421875,-0.508635534375 -0.259116215625,-0.559818984375 c -0.073576209375,-0.201534834375 -0.195136903125,-0.64619105625 -0.227126559375,-0.822134165625 c -0.041586553125,-0.22392759375 -0.1023669,-0.323095528125 -0.2431213875,-0.39027380625 c -0.05758138125,-0.028790690625 -0.111963796875,-0.047984484375 -0.118361728125,-0.047984484375 c -0.003198965625,0.003198965625 -0.04478551875,0.0127958625 -0.0895710375,0.01919379375 M 19.0088968531,10.8515652937 c -0.0127958625,0.0127958625 -0.092770003125,0.035188621875 -0.175943109375,0.047984484375 c -0.239922421875,0.03198965625 -0.674981746875,0.21113173125 -0.85092485625,0.3454882875 c -0.233524490625,0.175943109375 -0.4990386375,0.425462428125 -0.4990386375,0.4734469125 c 0,0.01919379375 -0.028790690625,0.047984484375 -0.0639793125,0.05758138125 s -0.0639793125,0.04478551875 -0.0639793125,0.073576209375 c 0,0.03198965625 -0.028790690625,0.073576209375 -0.0639793125,0.09596896875 s -0.0639793125,0.060780346875 -0.0639793125,0.086372071875 s -0.028790690625,0.060780346875 -0.0639793125,0.079974140625 c -0.1023669,0.054382415625 -0.0895710375,0.2943048375 0.01919379375,0.380676909375 c 0.124759659375,0.099167934375 0.179142075,0.08317310625 0.278310009375,-0.076775175 c 0.127958625,-0.201534834375 0.348687253125,-0.383875875 0.56301795,-0.46704898125 c 0.25591725,-0.1023669 0.690976575,-0.1023669 0.911705203125,-0.003198965625 c 0.188738971875,0.086372071875 0.46704898125,0.361483115625 0.46704898125,0.463850015625 c 0,0.0383875875 0.028790690625,0.09596896875 0.0639793125,0.127958625 c 0.060780346875,0.05118345 0.0639793125,0.092770003125 0.0639793125,0.623798296875 s -0.003198965625,0.5758138125 -0.0639793125,0.630196228125 c -0.035188621875,0.03198965625 -0.0639793125,0.09596896875 -0.0639793125,0.1407544875 c 0,0.047984484375 -0.025591725,0.099167934375 -0.0639793125,0.124759659375 c -0.035188621875,0.022392759375 -0.0639793125,0.054382415625 -0.0639793125,0.073576209375 c 0,0.092770003125 -0.502237603125,0.476645878125 -0.6269972625,0.476645878125 c -0.022392759375,0 -0.12156069375,0.035188621875 -0.2175296625,0.076775175 c -0.156749315625,0.07037724375 -0.17274414375,0.086372071875 -0.1919379375,0.19833586875 c -0.0127958625,0.07037724375 -0.009596896875,0.188738971875 0.00639793125,0.2687131125 l 0.025591725,0.143953453125 l 0.271912078125,0.00639793125 c 0.355085184375,0.00639793125 0.63339519375,0.1023669 0.9085062375,0.31349863125 c 0.111963796875,0.086372071875 0.2047338,0.175943109375 0.207932765625,0.19833586875 c 0,0.022392759375 0.028790690625,0.054382415625 0.0639793125,0.073576209375 s 0.0639793125,0.060780346875 0.0639793125,0.092770003125 s 0.028790690625,0.08317310625 0.0639793125,0.1151627625 s 0.0639793125,0.0895710375 0.0639793125,0.124759659375 c 0,0.0383875875 0.028790690625,0.092770003125 0.0639793125,0.124759659375 c 0.041586553125,0.035188621875 0.0639793125,0.092770003125 0.0639793125,0.17274414375 c 0,0.067178278125 0.028790690625,0.163147246875 0.0639793125,0.2175296625 c 0.05758138125,0.086372071875 0.0639793125,0.150351384375 0.0639793125,0.7037724375 s -0.00639793125,0.617400365625 -0.0639793125,0.7037724375 c -0.035188621875,0.05118345 -0.0639793125,0.14715241875 -0.0639793125,0.207932765625 c 0,0.076775175 -0.01919379375,0.124759659375 -0.0639793125,0.15355035 c -0.035188621875,0.022392759375 -0.0639793125,0.073576209375 -0.0639793125,0.1151627625 c 0,0.0383875875 -0.028790690625,0.099167934375 -0.0639793125,0.131157590625 s -0.0639793125,0.08317310625 -0.0639793125,0.1151627625 s -0.028790690625,0.073576209375 -0.0639793125,0.092770003125 s -0.0639793125,0.054382415625 -0.0639793125,0.079974140625 c 0,0.022392759375 -0.028790690625,0.054382415625 -0.0639793125,0.0639793125 s -0.0639793125,0.03198965625 -0.0639793125,0.05118345 c 0,0.0383875875 -0.3710800125,0.22392759375 -0.527829328125,0.26231518125 c -0.21113173125,0.05118345 -0.65898691875,0.0639793125 -0.79974140625,0.022392759375 c -0.438258290625,-0.131157590625 -0.758154853125,-0.342289321875 -1.04286279375,-0.681379678125 c -0.0895710375,-0.10876483125 -0.18554000625,-0.21113173125 -0.21113173125,-0.22392759375 c -0.0639793125,-0.0383875875 -0.201534834375,0.028790690625 -0.28790690625,0.137555521875 c -0.07037724375,0.086372071875 -0.07037724375,0.0895710375 -0.009596896875,0.15994828125 c 0.035188621875,0.041586553125 0.0639793125,0.0895710375 0.0639793125,0.111963796875 s 0.028790690625,0.0639793125 0.0639793125,0.09596896875 s 0.0639793125,0.076775175 0.0639793125,0.099167934375 s 0.028790690625,0.05758138125 0.0639793125,0.076775175 s 0.0639793125,0.054382415625 0.0639793125,0.079974140625 s 0.028790690625,0.0639793125 0.0639793125,0.086372071875 s 0.0639793125,0.054382415625 0.0639793125,0.07037724375 c 0,0.0127958625 0.05758138125,0.08317310625 0.127958625,0.150351384375 c 0.07037724375,0.07037724375 0.127958625,0.137555521875 0.127958625,0.156749315625 c 0,0.015994828125 0.022392759375,0.03198965625 0.047984484375,0.03198965625 s 0.060780346875,0.025591725 0.076775175,0.05758138125 c 0.047984484375,0.0895710375 0.56941588125,0.3454882875 0.866919684375,0.42866139375 c 0.227126559375,0.060780346875 0.35188621875,0.073576209375 0.751756921875,0.073576209375 c 0.281508975,0 0.559818984375,-0.01919379375 0.67178278125,-0.04478551875 c 0.303901734375,-0.067178278125 0.66538485,-0.2175296625 0.924501065625,-0.387074840625 c 0.866919684375,-0.566216915625 1.30197900937,-1.41714177187 1.305177975,-2.5591725 c 0.003198965625,-0.630196228125 -0.12156069375,-1.1388317625 -0.40306966875,-1.64106936563 c -0.118361728125,-0.214330696875 -0.540625190625,-0.64619105625 -0.7293641625,-0.745358990625 c -0.163147246875,-0.086372071875 -0.69737450625,-0.30070276875 -0.7549558875,-0.303901734375 c -0.03198965625,0 0.01919379375,-0.035188621875 0.10876483125,-0.073576209375 c 0.0895710375,-0.041586553125 0.265514146875,-0.17274414375 0.393472771875,-0.291105871875 c 0.406268634375,-0.383875875 0.62059933125,-0.783746578125 0.71017036875,-1.33396866562 c 0.099167934375,-0.6014055375 -0.195136903125,-1.33716763125 -0.68457864375,-1.714645575 c -0.201534834375,-0.156749315625 -0.56941588125,-0.323095528125 -0.8061393375,-0.367881046875 c -0.214330696875,-0.0383875875 -0.796542440625,-0.0639793125 -0.82533313125,-0.035188621875"/></svg>
