<svg xmlns="http://www.w3.org/2000/svg" width="24" height="24" viewBox="0 0 24 24"><path d="M12.125312 2.035416C12.234833 1.992824 12.277425 1.989783 12.38086 2.020205C12.526889 2.062797 12.58165 2.151021 12.584692 2.354853C12.587733 2.802064 12.70334 3.133669 12.949762 3.413556C13.047113 3.523077 13.153593 3.593049 13.387845 3.705612C13.55517 3.787753 13.728579 3.860767 13.77117 3.869893C13.914155 3.897274 14.352239 4.070683 14.647338 4.216711C14.872463 4.329273 14.997196 4.417499 15.194942 4.606119C15.505252 4.901216 15.587394 5.016822 15.751675 5.384935C16.144125 6.282399 16.046774 7.44758 15.493083 8.436312C15.274041 8.828763 15.10976 8.947411 14.875506 8.883523C14.735563 8.843973 14.674718 8.731411 14.668633 8.500199C14.659507 8.223353 14.616915 8.022566 14.562155 8.007355C14.534774 8.00127 14.489141 7.952594 14.458719 7.903918L14.403957 7.81265L14.346155 7.888707C14.21838 8.049947 13.673818 9.017382 13.576466 9.254678C13.409142 9.659296 13.375677 9.811409 13.33917 10.331634C13.299621 10.870112 13.330043 11.329493 13.424354 11.651972C13.524747 11.986618 13.755958 12.421659 14.023676 12.77152C14.169704 12.960138 14.288353 13.124421 14.288353 13.13659C14.288353 13.148759 14.154493 13.230899 13.993254 13.322166C13.564297 13.565546 13.217481 13.824138 12.888917 14.146617C12.469086 14.560363 12.295677 14.803743 11.903228 15.521714L11.854552 15.606897L11.769369 15.546052C11.720693 15.512587 11.629425 15.418278 11.562496 15.339179C11.498609 15.26008 11.364749 15.117095 11.27044 15.019743C11.173088 14.925433 11.093988 14.837208 11.093988 14.828081C11.093988 14.815912 10.957088 14.672926 10.789763 14.508645C10.62244 14.344362 10.485538 14.195293 10.485538 14.177039C10.485538 14.158786 10.464243 14.143575 10.439905 14.143575C10.412524 14.143575 10.382103 14.119237 10.372975 14.091856C10.360806 14.064475 10.21782 13.903237 10.053539 13.738955C9.889257 13.574674 9.755399 13.43473 9.755399 13.428646C9.755399 13.422561 9.563737 13.224814 9.329483 12.990561C9.09523 12.756309 8.903568 12.558561 8.903568 12.549435C8.903568 12.540309 8.791004 12.418618 8.654104 12.278674C8.444189 12.068759 7.787063 11.378168 7.513259 11.080029C7.473711 11.040479 7.443288 10.994845 7.443288 10.976591C7.443288 10.96138 7.41895 10.940084 7.391569 10.927916C7.361147 10.918789 7.288133 10.864028 7.227288 10.806225L7.117767 10.702789L6.980866 10.864028C6.795288 11.08307 6.530612 11.47552 6.430218 11.679351C6.387627 11.770618 6.308528 12.017041 6.253768 12.226955C6.1625 12.592026 6.159459 12.625492 6.174669 13.048365C6.199007 13.729829 6.335908 14.082729 6.834838 14.764194C6.993035 14.977151 7.163401 15.211404 7.212077 15.281376C7.25771 15.348306 7.431119 15.570391 7.592359 15.771178C8.203851 16.525656 8.438104 16.978952 8.544583 17.605656C8.602386 17.943346 8.605429 18.019402 8.575006 18.293205C8.489822 19.056808 8.2434 19.589203 7.887457 19.780865C7.762724 19.847794 7.762724 19.847794 5.633149 19.847794C5.444509 19.847794 5.27106 19.847963 5.111586 19.848118C3.698882 19.849495 3.382793 19.849802 3.317656 19.722103C3.298881 19.685295 3.300955 19.63785 3.303628 19.576733C3.304681 19.552652 3.305827 19.526449 3.305827 19.497936C3.305827 19.272808 3.308869 19.254557 3.39101 19.199795C3.436643 19.16633 3.527911 19.123739 3.59484 19.102442C4.026841 18.9625 4.401037 18.734331 4.401037 18.606556C4.401037 18.582218 4.428418 18.539627 4.461882 18.509205C4.516643 18.460527 4.522727 18.414894 4.522727 18.131966C4.522727 17.861204 4.513601 17.794275 4.461882 17.71822C4.422332 17.657373 4.401037 17.575233 4.401037 17.471796C4.401037 17.356192 4.385826 17.304472 4.340192 17.261883C4.294559 17.21929 4.279347 17.167572 4.279347 17.048923C4.279347 16.930277 4.264135 16.878557 4.218502 16.835966C4.178952 16.802502 4.157657 16.741655 4.157657 16.677771C4.157657 16.616924 4.130276 16.537825 4.096812 16.495235C4.054221 16.440474 4.035967 16.370502 4.035967 16.257938C4.035967 16.139292 4.020755 16.087572 3.975122 16.044981C3.929488 16.00239 3.914277 15.950671 3.914277 15.832024C3.914277 15.722503 3.896024 15.655574 3.859517 15.609939C3.810841 15.552136 3.798672 15.469995 3.786503 14.943686C3.762165 14.146617 3.792587 13.605096 3.862558 13.504703C3.892982 13.459067 3.914277 13.373885 3.914277 13.285659C3.914277 13.176138 3.929488 13.124421 3.975122 13.087914C4.017714 13.051407 4.035967 12.996646 4.035967 12.905378C4.035967 12.808026 4.051178 12.768477 4.096812 12.744139C4.142446 12.719801 4.157657 12.680251 4.157657 12.592028C4.157657 12.503801 4.172869 12.464252 4.218502 12.439914C4.258051 12.418618 4.279347 12.376026 4.279347 12.318224C4.279347 12.260422 4.300642 12.21783 4.340192 12.196534C4.373656 12.17828 4.401037 12.138732 4.401037 12.108309C4.401037 12.077887 4.428418 12.02921 4.461882 11.998787C4.495347 11.968366 4.522727 11.92273 4.522727 11.895351C4.522727 11.86797 4.550107 11.828422 4.583572 11.807126C4.617036 11.78583 4.644417 11.746281 4.644417 11.715858C4.644417 11.688478 4.671798 11.645886 4.705262 11.624591C4.738727 11.603295 4.766107 11.566789 4.766107 11.54245C4.766107 11.518112 4.793488 11.484648 4.826952 11.466393C4.860416 11.44814 4.887797 11.414676 4.887797 11.390337C4.887797 11.365999 4.915178 11.332535 4.948642 11.314281C4.982107 11.296028 5.009487 11.262564 5.009487 11.238225C5.009487 11.213887 5.036868 11.180423 5.070332 11.162169C5.103796 11.143914 5.131177 11.116535 5.131177 11.101324C5.131177 11.073943 5.493205 10.705832 6.071233 10.149099C6.223345 10.000029 6.348078 9.869212 6.348078 9.854C6.348078 9.83879 6.265937 9.744479 6.165543 9.644086C6.065148 9.543692 5.983007 9.449382 5.983007 9.437213C5.983007 9.422001 5.955627 9.394621 5.922163 9.373325C5.888698 9.35203 5.861318 9.321607 5.861318 9.306396C5.861318 9.288142 5.697037 9.111691 5.496247 8.910903C5.295459 8.713157 5.131177 8.54279 5.131177 8.533664C5.131177 8.527579 5.045994 8.430227 4.942558 8.320705C4.592699 7.958678 4.522727 7.876538 4.522727 7.830904C4.522727 7.806566 4.495347 7.773101 4.461882 7.754848C4.428418 7.736594 4.401037 7.703129 4.401037 7.678791C4.401037 7.654453 4.373656 7.620989 4.340192 7.602735C4.306727 7.584482 4.279347 7.544932 4.279347 7.511468C4.279347 7.478004 4.251966 7.438454 4.218502 7.4202C4.185038 7.401947 4.157657 7.356313 4.157657 7.316764C4.157657 7.277214 4.130276 7.222455 4.096812 7.192031C4.063347 7.161609 4.035967 7.106848 4.035967 7.073384C4.035967 7.036877 4.008586 6.985158 3.975122 6.954736C3.935572 6.924313 3.914277 6.866511 3.914277 6.802623C3.914277 6.738736 3.889939 6.67789 3.853432 6.644426C3.807798 6.601835 3.792587 6.550117 3.792587 6.422341C3.792587 6.306736 3.774334 6.224596 3.728699 6.151582C3.664813 6.051188 3.66177 6.008595 3.664813 5.360597C3.664813 4.712597 3.667854 4.670005 3.728699 4.587864C3.774334 4.52702 3.792587 4.457048 3.792587 4.347527C3.792587 4.231921 3.807798 4.183245 3.853432 4.143696C3.892982 4.110231 3.914277 4.052428 3.914277 3.982457C3.914277 3.909443 3.932531 3.863809 3.975122 3.836429C4.008586 3.815133 4.035967 3.766457 4.035967 3.726908C4.035967 3.690401 4.063347 3.632598 4.096812 3.602175C4.130276 3.571753 4.157657 3.523077 4.157657 3.492654C4.157657 3.462232 4.185038 3.422683 4.218502 3.404429C4.251966 3.386176 4.279347 3.343584 4.279347 3.313162C4.279347 3.279697 4.306727 3.237105 4.340192 3.21581C4.373656 3.194514 4.401037 3.154965 4.401037 3.130627C4.401037 3.106289 4.428418 3.066739 4.461882 3.045444C4.495347 3.024148 4.522727 2.993725 4.522727 2.975472C4.522727 2.960261 4.641375 2.826402 4.787403 2.683416C5.021656 2.452205 5.070332 2.415698 5.192022 2.397444C5.49929 2.348768 5.630106 2.497838 5.657487 2.926796C5.666614 3.078908 5.709206 3.340542 5.754839 3.504823C5.824811 3.778626 6.022557 4.231921 6.116867 4.347527C6.138162 4.371865 6.192923 4.460091 6.241599 4.545274C6.421092 4.864709 6.643176 5.111132 8.556752 7.115974C8.708864 7.274172 9.180412 7.773101 9.603287 8.226397C10.528131 9.212086 10.774552 9.47372 11.13658 9.854C11.288692 10.01524 11.504692 10.246451 11.620298 10.371183C11.732862 10.495916 11.881931 10.657154 11.951904 10.727127C12.073594 10.845775 12.085763 10.848817 12.128354 10.803183C12.152692 10.775804 12.198325 10.696704 12.228748 10.629775C12.271339 10.532423 12.274382 10.486789 12.250044 10.401606C12.204411 10.246451 12.213537 10.051747 12.265256 10.006113C12.292636 9.984818 12.310889 9.917888 12.310889 9.83879C12.310889 9.750565 12.329144 9.695804 12.371734 9.656255C12.417368 9.616705 12.432579 9.561944 12.432579 9.458508C12.432579 9.355071 12.447791 9.300311 12.493424 9.260761C12.529931 9.227297 12.554269 9.166452 12.554269 9.105607C12.554269 9.035636 12.572523 8.993044 12.615114 8.971748C12.654664 8.950453 12.67596 8.907861 12.67596 8.850059C12.67596 8.792255 12.697254 8.749663 12.736804 8.728368C12.776354 8.707072 12.797649 8.66448 12.797649 8.606678C12.797649 8.548876 12.818945 8.506284 12.858494 8.484988C12.901087 8.463693 12.919339 8.421101 12.919339 8.354172C12.919339 8.290284 12.940635 8.244651 12.980185 8.21727C13.019733 8.192932 13.041029 8.147299 13.041029 8.089495C13.041029 8.031693 13.062325 7.989101 13.101874 7.967805C13.135339 7.949552 13.16272 7.903918 13.16272 7.864369C13.16272 7.824819 13.1901 7.773101 13.220522 7.751805C13.260072 7.721384 13.281366 7.657496 13.293536 7.535806C13.308747 7.368482 13.308747 7.362397 13.22965 7.344144C13.02886 7.301552 12.049254 6.927356 11.872805 6.830004C11.681144 6.723525 11.337369 6.410172 11.337369 6.343244C11.337369 6.324989 11.309988 6.291525 11.276524 6.270229C11.243059 6.248934 11.215679 6.206342 11.215679 6.172877C11.215679 6.139413 11.188298 6.096821 11.154834 6.075525C11.115284 6.051188 11.093988 6.002512 11.093988 5.941667C11.093988 5.886907 11.069651 5.826062 11.033144 5.792596C10.990553 5.756089 10.972299 5.698287 10.972299 5.613103C10.972299 5.540089 10.947961 5.451864 10.911454 5.397104C10.856692 5.314963 10.850609 5.254118 10.850609 4.764316C10.850609 4.283639 10.856692 4.210625 10.911454 4.104147C10.951003 4.025048 10.972299 3.924654 10.972299 3.806006C10.972299 3.666063 10.984468 3.614344 11.033144 3.571753C11.072694 3.535246 11.093988 3.477444 11.093988 3.401387C11.093988 3.316204 11.1092 3.276655 11.154834 3.252317C11.194384 3.231021 11.215679 3.188429 11.215679 3.130627C11.215679 3.072824 11.236975 3.030232 11.276524 3.008937C11.309988 2.990684 11.337369 2.951134 11.337369 2.91767C11.337369 2.884204 11.364749 2.844655 11.398213 2.826402C11.431678 2.808149 11.459059 2.768599 11.459059 2.735135C11.459059 2.701669 11.48644 2.662119 11.519904 2.643867C11.553369 2.625614 11.580749 2.592148 11.580749 2.56781C11.580749 2.543472 11.60813 2.506965 11.641594 2.48567C11.675058 2.464374 11.702439 2.43091 11.702439 2.409613C11.702439 2.388318 11.729819 2.357894 11.763284 2.339642C11.796748 2.321389 11.824129 2.290966 11.824129 2.272713C11.824129 2.214909 11.985369 2.087135 12.125312 2.035416ZM16.010265 13.495575C16.080238 13.428646 17.424913 13.535125 17.65004 13.626392C17.683504 13.638561 17.771729 13.665941 17.847786 13.687238C18.091166 13.751123 18.705702 14.076646 18.988628 14.28656C19.140743 14.399123 19.350658 14.581658 19.460178 14.691179C20.661867 15.898953 21.02998 17.760811 20.381981 19.345823C19.773531 20.830442 18.334545 21.880018 16.755617 21.989538C16.369251 22.01692 15.912914 21.989538 15.578266 21.919567C14.951563 21.785709 14.172747 21.40847 13.765084 21.037315C13.679903 20.961258 13.603846 20.897371 13.597761 20.897371C13.579508 20.897371 13.406099 20.723963 13.406099 20.702667C13.406099 20.693541 13.351339 20.629654 13.28441 20.562725C13.217479 20.495794 13.16272 20.425823 13.16272 20.41061C13.16272 20.395399 13.135339 20.368021 13.101874 20.349766C13.06841 20.331512 13.041029 20.298048 13.041029 20.27371C13.041029 20.249371 13.013649 20.215906 12.980185 20.197655C12.943677 20.179399 12.919339 20.133766 12.919339 20.091175C12.919339 20.048584 12.895001 20.002951 12.858494 19.984695C12.825029 19.966444 12.797649 19.926893 12.797649 19.893429C12.797649 19.859962 12.770268 19.820415 12.736804 19.80216C12.697254 19.780865 12.67596 19.738274 12.67596 19.683514C12.67596 19.63788 12.648579 19.573992 12.615114 19.54357C12.58165 19.513147 12.554269 19.452303 12.554269 19.40667C12.554269 19.361034 12.526889 19.30019 12.493424 19.269768C12.453875 19.236303 12.432579 19.175459 12.432579 19.11157C12.432579 19.050726 12.405198 18.971626 12.371734 18.929035C12.329144 18.871233 12.310889 18.804302 12.310889 18.685656C12.310889 18.58526 12.289594 18.481825 12.259171 18.424021C12.180073 18.281036 12.180073 17.216248 12.259171 17.079348C12.286551 17.027628 12.310889 16.924192 12.310889 16.842051C12.310889 16.738615 12.329144 16.668644 12.371734 16.616924C12.411283 16.565207 12.432579 16.492191 12.432579 16.410051C12.432579 16.321827 12.450833 16.267067 12.493424 16.227516C12.529931 16.194052 12.554269 16.133207 12.554269 16.072363C12.554269 16.00239 12.572523 15.959799 12.615114 15.938503C12.648579 15.920249 12.67596 15.874616 12.67596 15.835066C12.67596 15.795516 12.70334 15.740756 12.736804 15.710333C12.770268 15.679912 12.797649 15.625151 12.797649 15.585602C12.797649 15.546052 12.825029 15.500419 12.858494 15.482164C12.891958 15.463912 12.919339 15.424362 12.919339 15.390898C12.919339 15.357432 12.94672 15.317883 12.980185 15.29963C13.013649 15.281377 13.041029 15.241827 13.041029 15.208363C13.041029 15.174897 13.06841 15.135349 13.101874 15.117095C13.135339 15.098842 13.16272 15.065376 13.16272 15.041039C13.16272 15.0167 13.1901 14.980193 13.223564 14.958898C13.257029 14.937602 13.28441 14.907179 13.28441 14.89501C13.28441 14.828081 13.865479 14.329152 14.099732 14.198336C14.160578 14.161829 14.260972 14.097941 14.318774 14.052308C14.431338 13.967125 14.750775 13.808928 14.927225 13.748082C14.985027 13.726786 15.061084 13.699407 15.094548 13.687238C15.23145 13.632477 15.283169 13.617265 15.429196 13.589886C15.51438 13.574674 15.672577 13.553378 15.78514 13.541209C15.894661 13.52904 15.998097 13.507744 16.010265 13.495575ZM17.081139 16.902895 17.011168 16.793375 16.69173 16.796417C16.268858 16.799459 15.280126 16.854219 15.261873 16.872475C15.252746 16.878557 15.240577 17.000248 15.237535 17.140192C15.225366 17.423122 15.237535 17.441374 15.47483 17.493093C15.532632 17.505262 15.629984 17.5296 15.687788 17.541769L15.794267 17.569149L15.803393 18.655231L15.809478 19.741316L15.739506 19.768696C15.699957 19.783909 15.599563 19.805204 15.517422 19.817373C15.365204 19.836773 15.29351 19.839336 15.259969 19.876413C15.230136 19.909391 15.230484 19.969671 15.2312 20.093386C15.231319 20.114132 15.23145 20.136663 15.23145 20.161148V20.459288L15.331844 20.495794C15.404859 20.523174 15.754717 20.532301 16.530491 20.532301H17.628744L17.680462 20.453203C17.713926 20.398441 17.723053 20.349766 17.707842 20.295006C17.695673 20.249371 17.683504 20.155062 17.680462 20.085091C17.671335 19.917767 17.607449 19.859962 17.394489 19.835625C17.190659 19.811287 17.056801 19.738274 17.056801 19.650049C17.056801 19.616583 17.078096 19.537485 17.105476 19.473598C17.145025 19.370161 17.148069 19.215006 17.135899 18.369261C17.126772 17.82774 17.117645 17.340981 17.117645 17.292303C17.114603 17.240587 17.120687 17.158445 17.132856 17.106728C17.148069 17.039797 17.135899 16.988079 17.081139 16.902895ZM16.764744 15.062335C16.174549 14.761151 15.520463 15.311799 15.748633 15.914165C15.818604 16.102783 15.940294 16.230558 16.153252 16.34008C16.302322 16.416136 16.688688 16.431347 16.816463 16.364418C16.922941 16.306614 17.056801 16.16363 17.056801 16.10887C17.056801 16.081488 17.084181 16.044981 17.117645 16.023685C17.172407 15.99022 17.17849 15.950672 17.17849 15.719461C17.17849 15.485208 17.172407 15.4487 17.117645 15.42132C17.084181 15.403067 17.056801 15.369601 17.056801 15.348306C17.056801 15.284418 16.901646 15.132306 16.764744 15.062335Z"/></svg>
