<svg xmlns="http://www.w3.org/2000/svg" viewBox="0 0 24 24" width="24" height="24"><path fill="currentColor" d="M 8.25703125,5.07890625 c -0.05625,0.03046875 -0.10078125,0.065625 -0.10078125,0.07734375 s -0.0421875,0.065625 -0.09375,0.1171875 s -0.09375,0.10546875 -0.09375,0.1171875 s -0.02109375,0.0328125 -0.046875,0.046875 s -0.046875,0.03984375 -0.046875,0.05859375 s -0.02109375,0.046875 -0.046875,0.06328125 s -0.046875,0.046875 -0.046875,0.065625 s -0.02109375,0.04921875 -0.046875,0.065625 s -0.046875,0.046875 -0.046875,0.0703125 c 0,0.02109375 -0.02109375,0.05390625 -0.046875,0.0703125 c -0.03046875,0.01875 -0.046875,0.05390625 -0.046875,0.0984375 s -0.01640625,0.07734375 -0.046875,0.09375 c -0.03515625,0.01875 -0.046875,0.04921875 -0.046875,0.1171875 s -0.01171875,0.0984375 -0.046875,0.1171875 s -0.046875,0.04921875 -0.046875,0.12421875 c 0,0.05625 -0.01640625,0.12421875 -0.03984375,0.15703125 c -0.03046875,0.0421875 -0.046875,0.13359375 -0.0609375,0.33984375 c -0.0234375,0.35859375 -0.0234375,0.39140625 0,0.70546875 c 0.0140625,0.196875 0.028125,0.27421875 0.0609375,0.30703125 c 0.02109375,0.02578125 0.03984375,0.08203125 0.03984375,0.12890625 c 0,0.0515625 0.01640625,0.09609375 0.046875,0.12421875 c 0.028125,0.02578125 0.046875,0.07265625 0.046875,0.11953125 c 0,0.05390625 0.0140625,0.0890625 0.046875,0.1078125 c 0.02578125,0.01640625 0.046875,0.05390625 0.046875,0.08203125 s 0.02109375,0.06328125 0.046875,0.07734375 s 0.046875,0.04453125 0.046875,0.0703125 s 0.02109375,0.05625 0.046875,0.0703125 s 0.046875,0.0421875 0.046875,0.0609375 s 0.14765625,0.1828125 0.328125,0.3609375 s 0.328125,0.33046875 0.328125,0.3375 c 0,0.02109375 0.3328125,0.3421875 0.35390625,0.3421875 c 0.01171875,0 0.02109375,0.01640625 0.02109375,0.03515625 s 0.02109375,0.046875 0.046875,0.06328125 s 0.046875,0.03984375 0.046875,0.04921875 c 0,0.01171875 0.08671875,0.10546875 0.1921875,0.20859375 c 0.22265625,0.21796875 0.22265625,0.20859375 -0.0140625,0.37265625 c -0.08671875,0.0609375 -0.17109375,0.12421875 -0.18515625,0.14296875 c -0.01640625,0.01875 -0.075,0.0703125 -0.13359375,0.11484375 c -0.1171875,0.08671875 -0.234375,0.196875 -0.234375,0.21796875 c 0,0.00703125 -0.06328125,0.07734375 -0.140625,0.15234375 c -0.07734375,0.07734375 -0.140625,0.1546875 -0.140625,0.17109375 s -0.02109375,0.04453125 -0.046875,0.0609375 s -0.046875,0.04453125 -0.046875,0.06328125 s -0.02109375,0.04453125 -0.046875,0.05859375 s -0.046875,0.03984375 -0.046875,0.05859375 s -0.02109375,0.04453125 -0.046875,0.05859375 s -0.046875,0.04453125 -0.046875,0.0703125 s -0.02109375,0.05625 -0.046875,0.0703125 c -0.028125,0.0140625 -0.046875,0.04921875 -0.046875,0.08203125 s -0.01875,0.06796875 -0.046875,0.08203125 s -0.046875,0.04921875 -0.046875,0.08203125 s -0.01875,0.06796875 -0.046875,0.08203125 c -0.0328125,0.01875 -0.046875,0.04921875 -0.046875,0.10546875 s -0.0140625,0.08671875 -0.046875,0.10546875 c -0.03515625,0.01875 -0.046875,0.04921875 -0.046875,0.1125 c 0,0.05859375 -0.01640625,0.10078125 -0.046875,0.12890625 c -0.03046875,0.0234375 -0.046875,0.06796875 -0.046875,0.1171875 c 0,0.046875 -0.02109375,0.103125 -0.046875,0.13359375 c -0.03515625,0.03984375 -0.046875,0.08671875 -0.046875,0.1875 c 0,0.075 -0.01875,0.17578125 -0.03984375,0.225 c -0.05859375,0.13828125 -0.0609375,0.95625 0,1.040625 c 0.028125,0.03984375 0.03984375,0.103125 0.03984375,0.2109375 c 0,0.1125 0.01171875,0.17109375 0.046875,0.22265625 c 0.028125,0.0421875 0.046875,0.11015625 0.046875,0.16640625 c 0,0.065625 0.0140625,0.11015625 0.046875,0.13828125 c 0.03515625,0.03046875 0.046875,0.07265625 0.046875,0.1546875 c 0,0.08671875 0.009375,0.11953125 0.04453125,0.1359375 c 0.03515625,0.01875 0.04453125,0.05859375 0.05390625,0.196875 c 0.00703125,0.1078125 0.02578125,0.19453125 0.04921875,0.2296875 c 0.02578125,0.03515625 0.03984375,0.103125 0.03984375,0.18515625 c 0.00234375,0.0703125 0.01640625,0.17109375 0.03515625,0.22265625 c 0.04453125,0.11953125 0.0421875,0.19921875 0,0.25546875 c -0.01875,0.02578125 -0.03515625,0.075 -0.03515625,0.1125 c 0,0.03984375 -0.01640625,0.07265625 -0.046875,0.0890625 c -0.02578125,0.0140625 -0.046875,0.03515625 -0.046875,0.04921875 c 0,0.04921875 -0.13359375,0.13359375 -0.2578125,0.16171875 c -0.2109375,0.046875 -0.328125,0.0984375 -0.4125,0.178125 c -0.0703125,0.065625 -0.0796875,0.08671875 -0.0796875,0.19453125 c 0,0.09375 0.009375,0.12421875 0.046875,0.14765625 c 0.02578125,0.01640625 0.046875,0.0421875 0.046875,0.05859375 s 0.02109375,0.03984375 0.04453125,0.05390625 c 0.03046875,0.0140625 0.59296875,0.0234375 1.6640625,0.0234375 l 1.6171875,0 l 0.12421875,-0.10078125 c 0.06796875,-0.05625 0.1359375,-0.1265625 0.15234375,-0.159375 c 0.0140625,-0.03046875 0.075,-0.15703125 0.13359375,-0.27890625 c 0.13125,-0.271875 0.15703125,-0.4078125 0.15703125,-0.815625 c 0,-0.346875 0.0046875,-0.31640625 -0.12421875,-0.67265625 c -0.11484375,-0.32109375 -0.27890625,-0.57421875 -0.62578125,-0.9609375 c -0.06796875,-0.07734375 -0.21328125,-0.2578125 -0.32109375,-0.3984375 c -0.11015625,-0.14296875 -0.28828125,-0.37265625 -0.39609375,-0.51328125 c -0.26953125,-0.34453125 -0.30234375,-0.45 -0.30234375,-0.9515625 c 0.00234375,-0.31171875 0.009375,-0.3984375 0.06328125,-0.61640625 c 0.075,-0.30234375 0.09140625,-0.33515625 0.3046875,-0.61875 c 0.225,-0.29765625 0.271875,-0.36328125 0.28125,-0.39140625 c 0.01875,-0.05390625 0.2765625,0.16640625 0.82734375,0.70546875 c 0.14765625,0.1453125 0.27421875,0.26484375 0.28125,0.26484375 c 0.01640625,0 0.15,0.13359375 0.15,0.15 c 0,0.02109375 0.3328125,0.3421875 0.35390625,0.3421875 c 0.01171875,0 0.02109375,0.01171875 0.02109375,0.0234375 c 0,0.0140625 0.04921875,0.0703125 0.1078125,0.12421875 c 0.1875,0.17109375 3.2671875,3.253125 3.2671875,3.26953125 c 0,0.009375 0.02109375,0.03046875 0.046875,0.046875 s 0.046875,0.0421875 0.046875,0.0609375 c 0,0.01640625 0.02109375,0.04921875 0.046875,0.07265625 s 0.046875,0.0609375 0.046875,0.08671875 c 0,0.0234375 0.02109375,0.0609375 0.046875,0.08203125 c 0.02578125,0.0234375 0.046875,0.06328125 0.046875,0.0890625 s 0.02109375,0.0609375 0.046875,0.07734375 s 0.046875,0.05390625 0.046875,0.084375 c 0,0.028125 0.02109375,0.07265625 0.046875,0.09609375 c 0.03046875,0.028125 0.046875,0.07265625 0.046875,0.12890625 c 0,0.0515625 0.01875,0.1078125 0.04453125,0.13828125 c 0.0328125,0.0375 0.046875,0.10546875 0.0609375,0.3046875 c 0.009375,0.178125 0.02578125,0.2671875 0.04921875,0.2859375 c 0.01875,0.0140625 0.0328125,0.0609375 0.0328125,0.10078125 c 0,0.09375 0.10078125,0.1546875 0.28125,0.17109375 c 0.1265625,0.01171875 0.13125,0.009375 0.25546875,-0.103125 c 0.38671875,-0.34453125 0.49453125,-0.46640625 0.6234375,-0.70546875 c 0.14765625,-0.26953125 0.196875,-0.39609375 0.27421875,-0.69609375 c 0.04921875,-0.1921875 0.05390625,-0.2578125 0.0515625,-0.7265625 c -0.00234375,-0.41953125 -0.01171875,-0.534375 -0.0421875,-0.62109375 c -0.0234375,-0.05859375 -0.05390625,-0.159375 -0.0703125,-0.22265625 c -0.028125,-0.1078125 -0.08671875,-0.24375 -0.18515625,-0.421875 c -0.02109375,-0.03984375 -0.05625,-0.1078125 -0.075,-0.1546875 c -0.0234375,-0.0515625 -0.403125,-0.46171875 -0.96796875,-1.0453125 l -0.93046875,-0.95859375 l -0.04921875,-0.1640625 c -0.04453125,-0.140625 -0.04921875,-0.2109375 -0.04453125,-0.525 c 0.0046875,-0.34921875 0.00703125,-0.3703125 0.0796875,-0.55078125 c 0.12890625,-0.31875 0.47578125,-0.90703125 0.675,-1.153125 c 0.04453125,-0.05390625 0.121875,-0.11953125 0.17578125,-0.1453125 c 0.09375,-0.04453125 0.09609375,-0.04453125 0.20390625,-0.0046875 c 0.065625,0.02578125 0.11015625,0.0609375 0.1171875,0.08671875 c 0.0046875,0.02578125 0.028125,0.0703125 0.0515625,0.10078125 c 0.03515625,0.04453125 0.04453125,0.09609375 0.04453125,0.25078125 c 0,0.18515625 0.00234375,0.196875 0.065625,0.2390625 c 0.03515625,0.02578125 0.1125,0.06328125 0.1734375,0.08203125 c 0.1640625,0.05625 0.25546875,0.01640625 0.41015625,-0.1734375 c 0.06796875,-0.08203125 0.1359375,-0.1828125 0.15,-0.2203125 c 0.01640625,-0.03984375 0.04921875,-0.0984375 0.07265625,-0.13359375 s 0.06328125,-0.11953125 0.08671875,-0.1875 c 0.02578125,-0.06796875 0.065625,-0.17109375 0.09140625,-0.2296875 c 0.028125,-0.05859375 0.0703125,-0.215625 0.0984375,-0.3515625 c 0.0421875,-0.20859375 0.046875,-0.28828125 0.03515625,-0.52734375 c -0.01171875,-0.18515625 -0.0328125,-0.32578125 -0.06328125,-0.41015625 c -0.02578125,-0.0703125 -0.0609375,-0.1875 -0.08203125,-0.2578125 c -0.13359375,-0.49453125 -0.69140625,-0.9515625 -1.60078125,-1.3125 c -0.3234375,-0.12890625 -0.4265625,-0.2015625 -0.65390625,-0.45703125 c -0.1453125,-0.16640625 -0.18984375,-0.28359375 -0.18984375,-0.5015625 c 0,-0.309375 -0.065625,-0.42421875 -0.24375,-0.42421875 c -0.05625,0 -0.12890625,0.02109375 -0.178125,0.04921875 c -0.09375,0.05625 -0.328125,0.28828125 -0.328125,0.3234375 c 0,0.0140625 -0.02109375,0.03515625 -0.046875,0.04921875 s -0.046875,0.0375 -0.046875,0.05390625 s -0.02109375,0.0421875 -0.046875,0.05859375 s -0.046875,0.04453125 -0.046875,0.06328125 s -0.02109375,0.04453125 -0.046875,0.05859375 s -0.046875,0.03984375 -0.046875,0.05625 s -0.02109375,0.04921875 -0.046875,0.07265625 s -0.046875,0.0609375 -0.046875,0.084375 s -0.02109375,0.05390625 -0.046875,0.06796875 c -0.0328125,0.01640625 -0.046875,0.04921875 -0.046875,0.103125 c 0,0.046875 -0.01875,0.09375 -0.046875,0.11953125 s -0.046875,0.07265625 -0.046875,0.1171875 s -0.01875,0.09140625 -0.046875,0.1171875 c -0.0375,0.0328125 -0.046875,0.07265625 -0.046875,0.1875 c 0,0.084375 -0.01875,0.2015625 -0.046875,0.28125 c -0.0609375,0.178125 -0.0609375,0.35390625 0,0.4453125 c 0.03046875,0.046875 0.046875,0.11015625 0.046875,0.1921875 c 0,0.0984375 0.009375,0.1265625 0.046875,0.14765625 c 0.028125,0.01640625 0.046875,0.04921875 0.046875,0.0890625 c 0,0.0375 0.01875,0.075 0.046875,0.09375 c 0.02578125,0.01640625 0.046875,0.0421875 0.046875,0.0609375 c 0,0.01640625 0.02109375,0.04921875 0.046875,0.07265625 s 0.046875,0.05625 0.046875,0.07265625 s 0.02109375,0.0421875 0.046875,0.05625 s 0.046875,0.03515625 0.046875,0.046875 c 0,0.046875 0.22265625,0.26015625 0.375,0.3609375 c 0.20625,0.1359375 0.48515625,0.28125 0.6375,0.33046875 c 0.19921875,0.065625 0.3,0.12421875 0.3,0.17578125 c 0,0.0421875 -0.2203125,0.28125 -0.26015625,0.28125 c -0.01171875,0 -0.02109375,0.02109375 -0.02109375,0.046875 c 0,0.0234375 -0.02109375,0.05625 -0.046875,0.0703125 s -0.046875,0.04453125 -0.046875,0.0703125 s -0.02109375,0.05625 -0.046875,0.0703125 c -0.03046875,0.01640625 -0.046875,0.04921875 -0.046875,0.09375 s -0.01640625,0.07734375 -0.046875,0.09375 c -0.028125,0.0140625 -0.046875,0.04921875 -0.046875,0.08203125 s -0.02109375,0.0703125 -0.046875,0.08671875 c -0.028125,0.01875 -0.046875,0.05625 -0.046875,0.09140625 c 0,0.0328125 -0.02109375,0.0796875 -0.046875,0.103125 s -0.046875,0.07265625 -0.046875,0.1078125 c 0,0.0421875 -0.01640625,0.075 -0.046875,0.09140625 s -0.046875,0.04921875 -0.046875,0.09140625 c 0,0.03515625 -0.02109375,0.084375 -0.046875,0.1078125 c -0.0328125,0.028125 -0.046875,0.07265625 -0.046875,0.1359375 s -0.0234375,0.13125 -0.0703125,0.20859375 c -0.0375,0.0609375 -0.0703125,0.12421875 -0.0703125,0.13828125 c 0,0.065625 -0.01171875,0.05390625 -2.39296875,-2.33671875 c -1.1296875,-1.13203125 -2.090625,-2.11640625 -2.1375,-2.18203125 c -0.04453125,-0.06796875 -0.10078125,-0.178125 -0.12421875,-0.24609375 c -0.02109375,-0.06796875 -0.065625,-0.17109375 -0.0984375,-0.22734375 c -0.06328125,-0.11015625 -0.11953125,-0.41484375 -0.121875,-0.6609375 c 0,-0.21796875 -0.12421875,-0.328125 -0.36796875,-0.3234375 c -0.0984375,0.00234375 -0.1640625,0.01875 -0.234375,0.0609375 M 19.11328125,9.778125 c -0.0375,0.01171875 -0.1078125,0.0328125 -0.15234375,0.046875 c -0.26015625,0.075 -0.7734375,0.39609375 -0.7734375,0.4828125 c 0,0.0140625 -0.02109375,0.0328125 -0.046875,0.03984375 s -0.046875,0.03046875 -0.046875,0.046875 c 0,0.01875 -0.02109375,0.04453125 -0.046875,0.05859375 s -0.046875,0.04453125 -0.046875,0.0703125 s -0.02109375,0.05625 -0.046875,0.0703125 c -0.03046875,0.01640625 -0.046875,0.04921875 -0.046875,0.09375 s -0.01640625,0.07734375 -0.046875,0.09375 s -0.046875,0.04921875 -0.046875,0.09375 s -0.01640625,0.07734375 -0.046875,0.09375 c -0.03515625,0.01875 -0.046875,0.04921875 -0.046875,0.12890625 s -0.01171875,0.1125 -0.046875,0.13359375 c -0.03046875,0.01875 -0.046875,0.05625 -0.046875,0.103125 c 0,0.06796875 0.01171875,0.0796875 0.14296875,0.1359375 c 0.07734375,0.0328125 0.1453125,0.0609375 0.15234375,0.0609375 c 0.0046875,0 0.0515625,-0.08671875 0.10546875,-0.19453125 c 0.1921875,-0.3796875 0.37265625,-0.57890625 0.6375,-0.70546875 c 0.1453125,-0.065625 0.3984375,-0.13125 0.5109375,-0.13125 c 0.1359375,0 0.39609375,0.065625 0.54609375,0.1359375 c 0.1640625,0.07734375 0.4359375,0.328125 0.4359375,0.403125 c 0,0.02578125 0.02109375,0.065625 0.046875,0.08671875 c 0.03046875,0.028125 0.046875,0.0703125 0.046875,0.12890625 c 0,0.0609375 0.0140625,0.09375 0.04453125,0.11015625 c 0.0375,0.02109375 0.046875,0.065625 0.0609375,0.28828125 c 0.0328125,0.5203125 0.0046875,1.01484375 -0.06328125,1.08984375 c -0.028125,0.03046875 -0.0421875,0.084375 -0.0421875,0.16640625 c 0,0.09375 -0.01171875,0.13125 -0.046875,0.16171875 c -0.028125,0.02578125 -0.046875,0.0703125 -0.046875,0.11484375 c 0,0.0421875 -0.01875,0.0890625 -0.046875,0.11484375 c -0.02578125,0.0234375 -0.046875,0.07265625 -0.046875,0.1078125 c 0,0.0421875 -0.01640625,0.075 -0.046875,0.09140625 c -0.0328125,0.01640625 -0.046875,0.04921875 -0.046875,0.10078125 c 0,0.04921875 -0.01640625,0.084375 -0.046875,0.10546875 c -0.02578125,0.01640625 -0.046875,0.05390625 -0.046875,0.08671875 s -0.01875,0.06796875 -0.046875,0.08203125 c -0.02578125,0.0140625 -0.046875,0.04921875 -0.046875,0.0796875 s -0.02109375,0.07265625 -0.046875,0.09609375 s -0.046875,0.0609375 -0.046875,0.08203125 s -0.02109375,0.05859375 -0.046875,0.08203125 s -0.046875,0.05859375 -0.046875,0.0796875 s -0.02109375,0.0515625 -0.046875,0.06796875 s -0.046875,0.05390625 -0.046875,0.08671875 s -0.01875,0.06796875 -0.046875,0.08203125 c -0.02578125,0.0140625 -0.046875,0.04453125 -0.046875,0.0703125 s -0.02109375,0.05625 -0.046875,0.0703125 s -0.046875,0.03984375 -0.046875,0.05859375 s -0.02109375,0.04453125 -0.046875,0.05859375 s -0.046875,0.03984375 -0.046875,0.05859375 s -0.02109375,0.04453125 -0.046875,0.05859375 s -0.046875,0.04453125 -0.046875,0.0703125 s -0.02109375,0.05625 -0.046875,0.0703125 s -0.046875,0.04453125 -0.046875,0.0703125 s -0.02109375,0.05625 -0.046875,0.0703125 s -0.046875,0.0375 -0.046875,0.05390625 s -0.02109375,0.0421875 -0.046875,0.05859375 s -0.046875,0.04453125 -0.046875,0.06328125 s -0.02109375,0.04453125 -0.046875,0.05859375 s -0.046875,0.03984375 -0.046875,0.05859375 s -0.02109375,0.046875 -0.046875,0.06328125 s -0.046875,0.0421875 -0.046875,0.05859375 s -0.02109375,0.03984375 -0.046875,0.05390625 s -0.046875,0.0375 -0.046875,0.05390625 s -0.02109375,0.0421875 -0.046875,0.05859375 s -0.046875,0.04453125 -0.046875,0.06328125 s -0.02109375,0.04453125 -0.046875,0.05859375 s -0.046875,0.03984375 -0.046875,0.05859375 s -0.02109375,0.046875 -0.046875,0.06328125 s -0.046875,0.046875 -0.046875,0.065625 s -0.02109375,0.04921875 -0.046875,0.065625 s -0.046875,0.04453125 -0.046875,0.06328125 s -0.02109375,0.04453125 -0.046875,0.05859375 s -0.046875,0.03515625 -0.046875,0.046875 s -0.0421875,0.065625 -0.09375,0.1171875 s -0.09375,0.103125 -0.09375,0.1125 s -0.0421875,0.05390625 -0.09375,0.0984375 s -0.09375,0.09375 -0.09375,0.11015625 s -0.02109375,0.03984375 -0.046875,0.05390625 s -0.046875,0.0421875 -0.046875,0.065625 c 0,0.02109375 -0.02109375,0.05390625 -0.046875,0.0703125 s -0.046875,0.04921875 -0.046875,0.07265625 c 0,0.02578125 -0.01640625,0.075 -0.0375,0.1125 c -0.03515625,0.0609375 -0.0328125,0.07265625 0.0140625,0.17578125 l 0.04921875,0.1125 l 3.91640625,0 l 0.06328125,-0.065625 c 0.09140625,-0.09140625 0.15,-0.2671875 0.2484375,-0.7453125 c 0.04921875,-0.2296875 0.1125,-0.50625 0.14296875,-0.6140625 c 0.0703125,-0.23671875 0.0703125,-0.253125 0.0046875,-0.271875 c -0.11953125,-0.03046875 -0.2765625,0.009375 -0.2765625,0.0703125 c 0,0.01640625 -0.02109375,0.0421875 -0.046875,0.05625 s -0.046875,0.03515625 -0.046875,0.046875 c 0,0.0421875 -0.19921875,0.215625 -0.30234375,0.2625 c -0.05625,0.02578125 -0.16171875,0.05859375 -0.234375,0.0703125 c -0.16171875,0.03046875 -1.87265625,0.03515625 -2.015625,0.0046875 l -0.103125,-0.02109375 l 0.30234375,-0.290625 c 0.16640625,-0.16171875 0.50625,-0.50390625 0.75703125,-0.76171875 c 1.02890625,-1.06640625 1.47421875,-1.771875 1.71328125,-2.72109375 c 0.07734375,-0.3 0.0796875,-0.91171875 0.0046875,-1.21171875 c -0.0984375,-0.40078125 -0.27890625,-0.740625 -0.5203125,-0.98203125 c -0.121875,-0.11953125 -0.20859375,-0.178125 -0.40078125,-0.271875 c -0.13359375,-0.065625 -0.28359375,-0.13125 -0.33046875,-0.1453125 c -0.04921875,-0.0140625 -0.12421875,-0.0375 -0.16640625,-0.04921875 c -0.0984375,-0.03046875 -1.059375,-0.02578125 -1.153125,0.0046875"/></svg>
