<svg xmlns="http://www.w3.org/2000/svg" viewBox="0 0 24 24" width="24" height="24"><path fill="currentColor" d="M 12.065625,4.25625 c -0.0375,0.01875 -0.065625,0.04453125 -0.065625,0.05625 s -0.02109375,0.028125 -0.046875,0.03515625 s -0.046875,0.03046875 -0.046875,0.046875 c 0,0.01875 -0.02109375,0.04453125 -0.046875,0.05859375 s -0.046875,0.03984375 -0.046875,0.05859375 s -0.02109375,0.046875 -0.046875,0.06328125 s -0.046875,0.046875 -0.046875,0.065625 s -0.02109375,0.04921875 -0.046875,0.065625 s -0.046875,0.04921875 -0.046875,0.07265625 c 0,0.02578125 -0.02109375,0.05390625 -0.046875,0.0609375 c -0.028125,0.009375 -0.046875,0.03515625 -0.046875,0.065625 c 0,0.028125 -0.02109375,0.065625 -0.046875,0.08203125 s -0.046875,0.05390625 -0.046875,0.08671875 s -0.01875,0.06796875 -0.046875,0.08203125 c -0.03515625,0.01875 -0.046875,0.04921875 -0.046875,0.1265625 c 0,0.0703125 -0.0140625,0.1125 -0.046875,0.14296875 c -0.0375,0.0328125 -0.046875,0.07265625 -0.046875,0.178125 c 0,0.08203125 -0.01875,0.18515625 -0.046875,0.25546875 c -0.03984375,0.10078125 -0.046875,0.1734375 -0.046875,0.4875 c 0,0.328125 0.0046875,0.375 0.046875,0.43828125 c 0.03046875,0.04453125 0.046875,0.11015625 0.046875,0.178125 c 0,0.07734375 0.0140625,0.11953125 0.046875,0.15 c 0.028125,0.02578125 0.046875,0.07265625 0.046875,0.11953125 c 0,0.05390625 0.0140625,0.0890625 0.046875,0.1078125 c 0.02578125,0.01640625 0.046875,0.04921875 0.046875,0.07265625 c 0,0.02109375 0.02109375,0.05859375 0.046875,0.0796875 c 0.02578125,0.0234375 0.046875,0.0515625 0.046875,0.065625 c 0,0.0421875 0.21796875,0.234375 0.375,0.33515625 c 0.1640625,0.103125 0.8109375,0.34453125 1.03359375,0.38671875 c 0.11953125,0.02109375 0.13359375,0.028125 0.1125,0.065625 c -0.01171875,0.0234375 -0.02109375,0.084375 -0.02109375,0.1359375 c 0,0.0703125 -0.01171875,0.10078125 -0.046875,0.11953125 c -0.03046875,0.01640625 -0.046875,0.04921875 -0.046875,0.09375 s -0.01640625,0.07734375 -0.046875,0.09375 c -0.0328125,0.01875 -0.046875,0.04921875 -0.046875,0.10546875 s -0.0140625,0.08671875 -0.046875,0.10546875 c -0.03046875,0.01640625 -0.046875,0.04921875 -0.046875,0.09375 s -0.01640625,0.07734375 -0.046875,0.09375 s -0.046875,0.04921875 -0.046875,0.09375 s -0.01640625,0.07734375 -0.046875,0.09375 s -0.046875,0.04921875 -0.046875,0.09375 s -0.01640625,0.07734375 -0.046875,0.09375 c -0.03515625,0.01875 -0.046875,0.04921875 -0.046875,0.1171875 s -0.01171875,0.0984375 -0.046875,0.1171875 c -0.0375,0.02109375 -0.046875,0.04921875 -0.046875,0.15 c 0,0.09375 -0.01171875,0.13359375 -0.046875,0.16640625 c -0.03046875,0.028125 -0.046875,0.07265625 -0.046875,0.1265625 c 0,0.046875 -0.01640625,0.10546875 -0.03515625,0.12890625 c -0.02578125,0.0328125 -0.03515625,0.1078125 -0.03515625,0.253125 c 0,0.14296875 -0.01171875,0.234375 -0.03984375,0.3 c -0.0234375,0.0515625 -0.046875,0.09375 -0.05390625,0.09375 c -0.01875,0 -0.2109375,-0.18984375 -0.3140625,-0.30703125 c -0.1171875,-0.13359375 -0.25078125,-0.27890625 -0.6703125,-0.72421875 c -0.18984375,-0.19921875 -0.61171875,-0.64921875 -0.9375,-0.99609375 c -0.328125,-0.34921875 -0.684375,-0.72890625 -0.796875,-0.84375 c -0.11015625,-0.1171875 -0.29765625,-0.31171875 -0.4125,-0.43359375 c -0.1171875,-0.121875 -0.31171875,-0.328125 -0.43359375,-0.45703125 c -0.87421875,-0.9234375 -0.84609375,-0.89296875 -0.9421875,-1.0828125 c -0.03515625,-0.065625 -0.07265625,-0.1265625 -0.08671875,-0.1359375 c -0.04921875,-0.03046875 -0.2296875,-0.4265625 -0.27890625,-0.609375 c -0.0703125,-0.2671875 -0.11953125,-0.54375 -0.11953125,-0.6796875 c 0,-0.065625 -0.009375,-0.12890625 -0.01875,-0.14296875 c -0.0796875,-0.1125 -0.32109375,-0.140625 -0.440625,-0.0515625 c -0.11953125,0.09140625 -0.384375,0.365625 -0.384375,0.3984375 c 0,0.01640625 -0.02109375,0.04453125 -0.046875,0.0609375 s -0.046875,0.04453125 -0.046875,0.06328125 s -0.02109375,0.046875 -0.046875,0.06328125 s -0.046875,0.04921875 -0.046875,0.0703125 c 0,0.0234375 -0.02109375,0.05390625 -0.046875,0.0703125 s -0.046875,0.05390625 -0.046875,0.08203125 s -0.02109375,0.06328125 -0.046875,0.07734375 c -0.03046875,0.01640625 -0.046875,0.04921875 -0.046875,0.09375 s -0.01640625,0.07734375 -0.046875,0.09375 c -0.0328125,0.01640625 -0.046875,0.04921875 -0.046875,0.103125 c 0,0.046875 -0.01875,0.09375 -0.046875,0.11953125 c -0.03515625,0.03046875 -0.046875,0.07265625 -0.046875,0.15703125 c 0,0.06796875 -0.01875,0.14765625 -0.046875,0.19921875 c -0.0421875,0.0796875 -0.046875,0.13359375 -0.046875,0.57421875 c 0,0.44296875 0.0046875,0.496875 0.046875,0.57421875 c 0.0328125,0.0609375 0.046875,0.13359375 0.046875,0.234375 c 0,0.121875 0.00703125,0.15234375 0.046875,0.17578125 c 0.0328125,0.02109375 0.046875,0.05625 0.046875,0.1171875 c 0,0.06328125 0.0140625,0.09609375 0.046875,0.1171875 c 0.028125,0.01875 0.046875,0.05625 0.046875,0.09140625 c 0,0.0328125 0.02109375,0.0796875 0.046875,0.103125 s 0.046875,0.065625 0.046875,0.09375 s 0.02109375,0.0703125 0.046875,0.09375 s 0.046875,0.0609375 0.046875,0.084375 s 0.02109375,0.05390625 0.046875,0.06796875 s 0.046875,0.0375 0.046875,0.05390625 s 0.02109375,0.0421875 0.046875,0.05859375 s 0.046875,0.03984375 0.046875,0.05390625 c 0,0.01171875 0.03515625,0.05859375 0.07734375,0.10078125 c 0.03984375,0.04453125 0.15,0.16171875 0.2390625,0.26015625 c 0.09140625,0.0984375 0.28828125,0.3046875 0.440625,0.459375 c 0.15,0.1546875 0.27421875,0.290625 0.27421875,0.30234375 s 0.02109375,0.03515625 0.046875,0.0515625 s 0.046875,0.03984375 0.046875,0.05390625 c 0,0.01171875 0.0421875,0.0609375 0.09375,0.10546875 s 0.09375,0.09140625 0.09375,0.103125 s 0.01640625,0.0421875 0.03984375,0.065625 c 0.03515625,0.03984375 0.03515625,0.04453125 0,0.084375 c -0.0234375,0.0234375 -0.03984375,0.05390625 -0.03984375,0.065625 s -0.075,0.0890625 -0.16640625,0.1734375 c -0.22265625,0.20390625 -0.48984375,0.46875 -0.48984375,0.48515625 c 0,0.00703125 -0.06328125,0.07265625 -0.140625,0.14765625 s -0.140625,0.14765625 -0.140625,0.16171875 c 0,0.01171875 -0.02109375,0.03515625 -0.046875,0.04921875 s -0.046875,0.03984375 -0.046875,0.05859375 s -0.02109375,0.04453125 -0.046875,0.05859375 s -0.046875,0.04453125 -0.046875,0.0703125 s -0.02109375,0.05625 -0.046875,0.0703125 s -0.046875,0.04453125 -0.046875,0.0703125 s -0.02109375,0.05625 -0.046875,0.0703125 s -0.046875,0.04453125 -0.046875,0.0703125 s -0.02109375,0.05625 -0.046875,0.0703125 c -0.028125,0.0140625 -0.046875,0.04921875 -0.046875,0.08203125 s -0.01875,0.06796875 -0.046875,0.08203125 c -0.03046875,0.01640625 -0.046875,0.04921875 -0.046875,0.09375 s -0.01640625,0.07734375 -0.046875,0.09375 c -0.0328125,0.01640625 -0.046875,0.04921875 -0.046875,0.103125 c 0,0.046875 -0.01875,0.09375 -0.046875,0.11953125 c -0.03046875,0.028125 -0.046875,0.07265625 -0.046875,0.12890625 s -0.01640625,0.10078125 -0.046875,0.12890625 c -0.03515625,0.03046875 -0.046875,0.07265625 -0.046875,0.159375 c 0,0.07265625 -0.01640625,0.14296875 -0.04453125,0.18984375 c -0.06796875,0.1125 -0.0890625,0.5390625 -0.0609375,1.1671875 c 0.01640625,0.31640625 0.02578125,0.375 0.0609375,0.4078125 c 0.0328125,0.03046875 0.04453125,0.07265625 0.04453125,0.16171875 c 0,0.08671875 0.0140625,0.140625 0.046875,0.1828125 c 0.03046875,0.03984375 0.046875,0.09375 0.046875,0.1640625 c 0,0.06796875 0.01640625,0.12421875 0.046875,0.1640625 c 0.028125,0.03515625 0.046875,0.09375 0.046875,0.15 c 0,0.0609375 0.0140625,0.103125 0.046875,0.13125 c 0.03515625,0.03046875 0.046875,0.06796875 0.046875,0.1640625 s 0.01171875,0.1359375 0.046875,0.16875 c 0.0328125,0.03046875 0.046875,0.07265625 0.046875,0.15 c 0,0.06796875 0.01640625,0.13359375 0.046875,0.178125 c 0.03984375,0.05859375 0.046875,0.11015625 0.046875,0.33046875 c 0,0.2296875 -0.0046875,0.26484375 -0.046875,0.30234375 c -0.02578125,0.0234375 -0.046875,0.05625 -0.046875,0.075 c 0,0.0890625 -0.21796875,0.234375 -0.4875,0.3234375 c -0.0984375,0.03515625 -0.2203125,0.08671875 -0.2671875,0.11953125 L 5.34375,17.484375 l 0,0.1875 c 0,0.29296875 -0.15703125,0.26953125 1.78125,0.26953125 l 1.62890625,0 l 0.1171875,-0.06328125 c 0.24375,-0.12890625 0.39609375,-0.384375 0.47578125,-0.7921875 c 0.08671875,-0.43828125 0.08671875,-0.51328125 0.00703125,-1.04765625 c -0.0421875,-0.2765625 -0.3984375,-0.890625 -0.73828125,-1.26796875 c -0.09609375,-0.10546875 -0.20859375,-0.25078125 -0.253125,-0.31875 c -0.0421875,-0.06796875 -0.16640625,-0.24609375 -0.2765625,-0.39140625 c -0.11015625,-0.14765625 -0.22734375,-0.309375 -0.26015625,-0.3609375 c -0.0703125,-0.11015625 -0.18984375,-0.4125 -0.234375,-0.59765625 c -0.0421875,-0.17578125 -0.0421875,-0.8203125 0,-0.9609375 c 0.01640625,-0.05859375 0.046875,-0.1734375 0.06328125,-0.253125 c 0.046875,-0.2203125 0.28828125,-0.6234375 0.53203125,-0.890625 l 0.09375,-0.0984375 l 0.09609375,0.08203125 c 0.0515625,0.046875 0.13125,0.1125 0.17109375,0.14765625 c 0.0421875,0.03515625 0.07734375,0.075 0.07734375,0.08671875 c 0,0.0140625 0.06328125,0.084375 0.140625,0.159375 s 0.140625,0.14296875 0.140625,0.14765625 c 0,0.00703125 0.08671875,0.0984375 0.19453125,0.20625 c 0.10546875,0.11015625 0.29296875,0.3046875 0.41484375,0.43828125 c 0.121875,0.13125 0.35390625,0.37265625 0.515625,0.53671875 c 0.4546875,0.46640625 0.84375,0.871875 0.84375,0.88359375 c 0,0.0046875 0.1078125,0.1171875 0.24140625,0.25078125 c 0.13125,0.13359375 0.403125,0.41484375 0.60234375,0.62578125 c 0.19921875,0.20859375 0.43125,0.45 0.515625,0.53671875 c 0.31171875,0.32109375 0.515625,0.54140625 0.515625,0.5625 c 0,0.01171875 0.02109375,0.0328125 0.046875,0.046875 s 0.046875,0.03984375 0.046875,0.05859375 s 0.02109375,0.04453125 0.046875,0.05859375 s 0.046875,0.03984375 0.046875,0.05859375 s 0.02109375,0.04453125 0.046875,0.05859375 s 0.046875,0.04453125 0.046875,0.0703125 s 0.02109375,0.05625 0.046875,0.0703125 s 0.046875,0.03984375 0.046875,0.05859375 s 0.02109375,0.046875 0.046875,0.06328125 s 0.046875,0.05390625 0.046875,0.08203125 s 0.02109375,0.06328125 0.046875,0.07734375 s 0.046875,0.04921875 0.046875,0.0796875 s 0.02109375,0.07265625 0.046875,0.09609375 s 0.046875,0.06796875 0.046875,0.0984375 s 0.02109375,0.07265625 0.046875,0.09375 c 0.0328125,0.028125 0.046875,0.0703125 0.046875,0.1359375 c 0,0.05390625 0.01875,0.12421875 0.046875,0.1640625 c 0.0421875,0.06328125 0.046875,0.11015625 0.046875,0.4265625 c 0,0.29296875 0.00703125,0.3609375 0.0375,0.39140625 c 0.02109375,0.02109375 0.04453125,0.06796875 0.05390625,0.103125 c 0.0328125,0.12890625 0.3890625,0.28828125 0.7359375,0.33046875 c 0.3515625,0.0421875 0.66328125,-0.03984375 0.98203125,-0.26015625 c 0.09375,-0.06328125 0.21796875,-0.14296875 0.27890625,-0.1734375 s 0.17578125,-0.11015625 0.2578125,-0.17578125 l 0.1453125,-0.121875 l -0.06796875,-0.05625 c -0.18984375,-0.15234375 -0.24140625,-0.178125 -0.30234375,-0.15234375 c -0.0328125,0.0140625 -0.05859375,0.046875 -0.05859375,0.06796875 c 0,0.0234375 -0.02109375,0.07265625 -0.046875,0.1125 c -0.02578125,0.0375 -0.046875,0.1078125 -0.046875,0.1546875 c 0,0.05859375 -0.02109375,0.10546875 -0.07265625,0.1640625 l -0.0703125,0.0796875 l -0.403125,-0.00234375 c -0.35390625,0 -0.421875,-0.00703125 -0.5625,-0.05390625 l -0.15703125,-0.05390625 l 0.17578125,-0.18515625 c 0.71953125,-0.76640625 0.97265625,-1.8046875 0.6984375,-2.85703125 c -0.07265625,-0.28359375 -0.2625,-0.6796875 -0.4546875,-0.94921875 c -0.08203125,-0.11484375 -0.33515625,-0.3984375 -0.5578125,-0.628125 c -0.9375,-0.95625 -1.1296875,-1.3828125 -1.0921875,-2.42109375 c 0.01640625,-0.4828125 0.05859375,-0.6375 0.3046875,-1.12265625 c 0.1640625,-0.3234375 0.4734375,-0.85546875 0.496875,-0.85546875 c 0.00703125,0 0.0515625,0.03984375 0.10078125,0.0890625 c 0.08671875,0.09140625 0.1171875,0.19453125 0.1265625,0.45 c 0.009375,0.20625 0.18515625,0.33046875 0.35390625,0.25078125 c 0.09140625,-0.04453125 0.2203125,-0.22265625 0.36328125,-0.50859375 c 0.2390625,-0.47578125 0.3140625,-0.80625 0.29765625,-1.3125 c -0.00703125,-0.196875 -0.02578125,-0.40546875 -0.04921875,-0.49921875 c -0.0421875,-0.1734375 -0.18984375,-0.525 -0.27890625,-0.665625 c -0.10546875,-0.1640625 -0.41484375,-0.43828125 -0.62578125,-0.55078125 c -0.2203125,-0.11953125 -0.5296875,-0.25078125 -0.65625,-0.2765625 c -0.41484375,-0.0890625 -0.75234375,-0.33515625 -0.91640625,-0.66796875 c -0.05859375,-0.121875 -0.07265625,-0.1828125 -0.0890625,-0.4125 c -0.0234375,-0.35390625 -0.03515625,-0.37265625 -0.2203125,-0.37265625 c -0.08203125,0.00234375 -0.1734375,0.01640625 -0.20859375,0.0375 M 21.47578125,8.76328125 c -0.1078125,0.01875 -0.28828125,0.13125 -0.28828125,0.18046875 c 0,0.01640625 -0.02109375,0.0421875 -0.046875,0.05625 s -0.046875,0.03984375 -0.046875,0.05859375 s -0.02109375,0.046875 -0.046875,0.06328125 s -0.046875,0.04921875 -0.046875,0.0703125 c 0,0.0234375 -0.02109375,0.0515625 -0.046875,0.065625 s -0.046875,0.03984375 -0.046875,0.05859375 s -0.02109375,0.04453125 -0.046875,0.05859375 s -0.046875,0.04453125 -0.046875,0.0703125 c 0,0.0234375 -0.02109375,0.0515625 -0.046875,0.05859375 s -0.046875,0.03046875 -0.046875,0.046875 c 0,0.01875 -0.02109375,0.04453125 -0.046875,0.05859375 s -0.046875,0.04453125 -0.046875,0.0703125 s -0.02109375,0.05625 -0.046875,0.0703125 s -0.046875,0.03984375 -0.046875,0.05859375 s -0.02109375,0.046875 -0.046875,0.06328125 s -0.046875,0.046875 -0.046875,0.065625 s -0.02109375,0.04921875 -0.046875,0.065625 s -0.046875,0.04453125 -0.046875,0.06328125 s -0.02109375,0.04453125 -0.046875,0.05859375 s -0.046875,0.04453125 -0.046875,0.0703125 s -0.02109375,0.05625 -0.046875,0.0703125 s -0.046875,0.0375 -0.046875,0.05390625 s -0.02109375,0.0421875 -0.046875,0.05859375 s -0.046875,0.04453125 -0.046875,0.06328125 s -0.02109375,0.04453125 -0.046875,0.05859375 s -0.046875,0.03984375 -0.046875,0.05859375 s -0.02109375,0.04453125 -0.046875,0.05859375 s -0.046875,0.04453125 -0.046875,0.0703125 s -0.02109375,0.05625 -0.046875,0.0703125 s -0.046875,0.04453125 -0.046875,0.0703125 s -0.02109375,0.05625 -0.046875,0.0703125 s -0.046875,0.03984375 -0.046875,0.05859375 s -0.02109375,0.04453125 -0.046875,0.05859375 s -0.046875,0.03984375 -0.046875,0.05859375 s -0.02109375,0.04453125 -0.046875,0.05859375 s -0.046875,0.03984375 -0.046875,0.05859375 s -0.02109375,0.04453125 -0.046875,0.05859375 s -0.046875,0.04453125 -0.046875,0.0703125 s -0.02109375,0.05625 -0.046875,0.0703125 s -0.046875,0.03984375 -0.046875,0.05859375 s -0.02109375,0.046875 -0.046875,0.06328125 s -0.046875,0.046875 -0.046875,0.065625 s -0.02109375,0.04921875 -0.046875,0.065625 s -0.046875,0.04453125 -0.046875,0.06328125 s -0.02109375,0.04453125 -0.046875,0.05859375 s -0.046875,0.04453125 -0.046875,0.0703125 c 0,0.0234375 -0.02109375,0.0515625 -0.046875,0.05859375 s -0.046875,0.03515625 -0.046875,0.05859375 c 0,0.02109375 -0.02109375,0.046875 -0.046875,0.05390625 c -0.028125,0.00703125 -0.046875,0.0328125 -0.046875,0.0609375 c 0,0.02578125 -0.02109375,0.05859375 -0.046875,0.07265625 s -0.046875,0.04453125 -0.046875,0.0703125 s -0.02109375,0.05625 -0.046875,0.0703125 s -0.046875,0.03984375 -0.046875,0.05859375 s -0.02109375,0.046875 -0.046875,0.06328125 s -0.046875,0.0421875 -0.046875,0.05859375 s -0.02109375,0.03984375 -0.046875,0.05390625 s -0.046875,0.03984375 -0.046875,0.05859375 s -0.02109375,0.04453125 -0.046875,0.05859375 s -0.046875,0.04453125 -0.046875,0.0703125 s -0.02109375,0.05625 -0.046875,0.0703125 s -0.046875,0.0421875 -0.046875,0.065625 c 0,0.02109375 -0.02109375,0.05390625 -0.046875,0.0703125 s -0.046875,0.04453125 -0.046875,0.06328125 s -0.02109375,0.04453125 -0.046875,0.05859375 s -0.046875,0.03984375 -0.046875,0.05859375 s -0.02109375,0.046875 -0.046875,0.06328125 s -0.046875,0.046875 -0.046875,0.065625 s -0.02109375,0.04921875 -0.046875,0.065625 s -0.046875,0.04453125 -0.046875,0.06328125 s -0.02109375,0.04453125 -0.046875,0.05859375 s -0.046875,0.03984375 -0.046875,0.05859375 s -0.02109375,0.046875 -0.046875,0.06328125 s -0.046875,0.046875 -0.046875,0.065625 s -0.02109375,0.04921875 -0.046875,0.065625 s -0.046875,0.04921875 -0.046875,0.07265625 c 0,0.02578125 -0.02109375,0.05390625 -0.046875,0.0609375 s -0.046875,0.03515625 -0.046875,0.05859375 c 0,0.02578125 -0.02109375,0.05625 -0.046875,0.0703125 s -0.046875,0.03984375 -0.046875,0.05859375 s -0.02109375,0.046875 -0.046875,0.06328125 s -0.046875,0.046875 -0.046875,0.065625 s -0.02109375,0.04921875 -0.046875,0.065625 s -0.046875,0.04453125 -0.046875,0.06328125 s -0.02109375,0.04453125 -0.046875,0.05859375 s -0.046875,0.04453125 -0.046875,0.0703125 s -0.02109375,0.05625 -0.046875,0.0703125 s -0.046875,0.03984375 -0.046875,0.05859375 s -0.02109375,0.04453125 -0.046875,0.05859375 c -0.03515625,0.01875 -0.046875,0.04921875 -0.046875,0.11953125 c 0,0.0890625 0.0046875,0.09609375 0.24140625,0.2671875 c 0.13125,0.0984375 0.3234375,0.24140625 0.4265625,0.31875 c 0.3375,0.253125 0.4078125,0.30234375 0.43828125,0.30234375 c 0.01640625,-0.00234375 0.35859375,-0.45703125 0.75703125,-1.0125 c 0.40078125,-0.55546875 0.9796875,-1.359375 1.28671875,-1.7859375 c 0.64921875,-0.89765625 1.9453125,-2.70234375 2.08828125,-2.90859375 c 0.11953125,-0.17109375 0.15234375,-0.2625 0.15234375,-0.421875 c 0,-0.2203125 -0.1640625,-0.4546875 -0.42421875,-0.60234375 c -0.11484375,-0.065625 -0.30234375,-0.09375 -0.459375,-0.06796875"/><path fill="currentColor" d="M 16.659375,15.00234375 c -0.04453125,0.0328125 -0.065625,0.0703125 -0.065625,0.11484375 s -0.01640625,0.07734375 -0.046875,0.09375 c -0.028125,0.0140625 -0.046875,0.04921875 -0.046875,0.08203125 s -0.01875,0.06796875 -0.046875,0.08203125 c -0.03046875,0.01640625 -0.046875,0.04921875 -0.046875,0.09140625 c 0,0.03515625 -0.02109375,0.084375 -0.046875,0.1078125 c -0.03515625,0.0328125 -0.046875,0.07265625 -0.046875,0.1640625 c 0,0.08671875 -0.0140625,0.140625 -0.046875,0.1828125 c -0.0328125,0.03984375 -0.046875,0.09375 -0.046875,0.17578125 c 0,0.084375 -0.01171875,0.1265625 -0.046875,0.15703125 c -0.02578125,0.0234375 -0.046875,0.06796875 -0.046875,0.09609375 c 0,0.03046875 -0.02109375,0.06796875 -0.046875,0.084375 s -0.046875,0.05390625 -0.046875,0.08203125 s -0.02109375,0.06328125 -0.046875,0.07734375 s -0.046875,0.0375 -0.046875,0.05390625 s -0.02109375,0.0421875 -0.046875,0.05859375 s -0.046875,0.046875 -0.046875,0.07265625 c 0,0.0234375 -0.02109375,0.0609375 -0.046875,0.084375 s -0.046875,0.0515625 -0.046875,0.0609375 c 0,0.01640625 0.37265625,0.30234375 0.48515625,0.37265625 c 0.065625,0.0421875 0.09375,0.01875 0.33515625,-0.2953125 c 0.20390625,-0.2625 0.3,-0.3421875 0.6421875,-0.52734375 c 0.12890625,-0.0703125 0.28125,-0.1734375 0.3421875,-0.23203125 c 0.11015625,-0.1078125 0.3515625,-0.41484375 0.3515625,-0.44765625 c 0,-0.009375 -0.1453125,-0.12421875 -0.32109375,-0.253125 c -0.178125,-0.13125 -0.4265625,-0.31640625 -0.553125,-0.4125 s -0.24609375,-0.17578125 -0.26953125,-0.17578125 c -0.02109375,0 -0.06796875,0.0234375 -0.103125,0.04921875"/></svg>
