<svg xmlns="http://www.w3.org/2000/svg" width="24" height="24" viewBox="0 0 24 24"><path d="M7.846881 2.016637C8.069163 1.968476 8.324786 2.027751 8.454452 2.157415C8.53966 2.238919 8.554479 2.294489 8.576706 2.576046C8.624867 3.213254 8.665619 3.379966 8.928654 3.913442L9.176867 4.417281L9.843713 5.102651C11.110719 6.395589 16.163927 11.433978 16.23802 11.47473C16.297297 11.508072 16.312115 11.504369 16.312115 11.456207C16.312115 11.422864 16.338049 11.389522 16.367685 11.378407C16.397324 11.363589 16.423256 11.333952 16.423256 11.304314C16.423256 11.274676 16.456598 11.189468 16.497351 11.115375C16.538101 11.037576 16.571444 10.91532 16.571444 10.841227C16.571444 10.756019 16.597376 10.68563 16.645538 10.641173C16.686289 10.604126 16.719631 10.526328 16.719631 10.470757C16.719631 10.404073 16.745565 10.352206 16.793726 10.326274C16.845591 10.300342 16.867821 10.248475 16.867821 10.166972C16.867821 10.089173 16.893753 10.033603 16.941914 10.00026C16.982666 9.974328 17.016008 9.915052 17.016008 9.866891C17.016008 9.822434 17.049351 9.752046 17.090101 9.714998C17.130854 9.677952 17.164196 9.611267 17.164196 9.563107C17.164196 9.514945 17.197538 9.459375 17.238289 9.437146C17.279041 9.414919 17.312384 9.359347 17.312384 9.314891C17.312384 9.270434 17.345726 9.21116 17.386478 9.185226C17.427229 9.159294 17.460571 9.107428 17.460571 9.066676C17.460571 9.025926 17.493914 8.974059 17.534666 8.948126C17.575417 8.922194 17.608759 8.885146 17.608759 8.866624C17.608759 8.8481 17.67174 8.774006 17.753242 8.699912C17.879202 8.581362 17.949593 8.462811 17.960705 8.344261C17.968115 8.273872 17.897724 8.218301 17.693968 8.140503C17.364248 8.018248 16.793726 7.732985 16.526987 7.558865C16.278774 7.395858 15.830504 6.943884 15.830504 6.854971C15.830504 6.829039 15.797162 6.791993 15.756411 6.769764C15.715659 6.747537 15.682317 6.699375 15.682317 6.658624C15.682317 6.617871 15.648974 6.569711 15.608223 6.547482C15.567472 6.525255 15.534129 6.477093 15.534129 6.436342C15.534129 6.395589 15.500786 6.347429 15.460034 6.3252C15.419284 6.302973 15.385941 6.247401 15.385941 6.195536C15.385941 6.147375 15.352598 6.047348 15.308142 5.97696C15.241458 5.865818 15.234048 5.788019 15.234048 5.332341C15.234048 4.880369 15.241458 4.79516 15.308142 4.661791C15.356303 4.569174 15.385941 4.443214 15.385941 4.328369C15.385941 4.180181 15.40076 4.135725 15.460034 4.102382C15.5119 4.076449 15.534129 4.024583 15.534129 3.939375C15.534129 3.865281 15.563766 3.791187 15.608223 3.750436C15.648974 3.713388 15.682317 3.635591 15.682317 3.580019C15.682317 3.513335 15.708249 3.461469 15.756411 3.435536C15.800867 3.413309 15.830504 3.357737 15.830504 3.305872C15.830504 3.254005 15.860142 3.198436 15.904598 3.176208C15.94535 3.153979 15.978692 3.105818 15.978692 3.065066C15.978692 3.024315 16.012035 2.976154 16.052786 2.953926C16.093538 2.931697 16.126881 2.887241 16.126881 2.850195C16.126881 2.816852 16.160223 2.764985 16.200974 2.739053C16.241726 2.71312 16.275068 2.676073 16.275068 2.653845C16.275068 2.609389 16.552919 2.327832 16.775202 2.150006C16.904865 2.046275 16.953028 2.027751 17.134558 2.027751C17.464277 2.027751 17.571712 2.194463 17.571712 2.694597C17.571712 2.950221 17.586531 3.024315 17.679148 3.209549C17.905136 3.654113 18.290424 3.972718 18.868357 4.187589C19.235121 4.324664 19.924196 4.680315 20.272436 4.906301C20.694773 5.187859 21.020786 5.502758 21.220839 5.825067C21.372732 6.069576 21.424597 6.202945 21.595015 6.788288C21.624651 6.888314 21.657995 7.166166 21.669107 7.399563C21.702452 8.081227 21.528328 8.766596 21.14304 9.463078C20.820732 10.048422 20.502129 10.333684 20.246504 10.270703C20.05386 10.226247 19.831577 10.096583 19.831577 10.033603C19.831577 10.00026 19.798235 9.907642 19.761189 9.833549C19.713028 9.737227 19.6908 9.611267 19.687096 9.429738C19.68339 9.133362 19.668571 9.107428 19.431471 9.014812C19.283283 8.95924 19.261053 8.95924 19.1388 9.018515C18.912813 9.122247 18.275604 10.05583 18.005161 10.674516C17.723604 11.326543 17.716196 11.35618 17.71249 12.048959C17.712255 12.07856 17.711998 12.107156 17.71175 12.134809C17.708609 12.483967 17.706818 12.682932 17.768396 12.859844C17.855776 13.110908 18.070747 13.317563 18.590506 13.845737C20.66143 15.942595 20.739229 16.027803 20.97633 16.487186C21.080061 16.687241 21.191202 16.946568 21.224545 17.061415C21.254183 17.17626 21.306047 17.339268 21.335684 17.417067C21.420895 17.639347 21.472759 18.558113 21.428303 19.00638C21.324572 20.036287 20.965216 20.825388 20.287256 21.499641C19.776009 22.014595 19.601887 22.084986 19.249941 21.921978C19.116571 21.862703 19.090639 21.833065 19.090639 21.747856C19.090639 21.688581 19.057297 21.614487 19.016544 21.57744C18.953564 21.521872 18.942451 21.470005 18.942451 21.147696C18.942451 20.840206 18.931337 20.769815 18.868357 20.688313C18.827606 20.636446 18.794262 20.540125 18.794262 20.466032C18.794262 20.391937 18.764626 20.303024 18.720169 20.254864C18.679417 20.206701 18.646074 20.121494 18.646074 20.065924C18.646074 19.999239 18.616438 19.939964 18.571981 19.914032C18.531229 19.8881 18.497887 19.839937 18.497887 19.806595C18.497887 19.773254 18.464544 19.717682 18.423794 19.680635C18.383041 19.643587 18.349699 19.588018 18.349699 19.554676C18.349699 19.521334 18.316357 19.465763 18.275604 19.428717C18.234854 19.395374 18.201511 19.343508 18.201511 19.310165C18.201511 19.280529 18.168169 19.239777 18.127417 19.217548C18.086666 19.195318 18.053324 19.14716 18.053324 19.106407C18.053324 19.069361 18.019981 19.024904 17.979229 19.01379C17.938478 19.002676 17.905136 18.976742 17.905136 18.95822C17.905136 18.939695 17.082693 18.102434 16.075016 17.098461C15.067336 16.094488 14.041136 15.064582 13.789217 14.816367C13.537297 14.564447 13.3039 14.334758 13.274262 14.30512C13.244625 14.275482 12.82229 13.86426 12.340678 13.390059C11.859069 12.919562 11.347821 12.423134 11.203337 12.289764C11.058854 12.156395 10.940304 12.02673 10.940304 12.000797C10.940304 11.97857 10.914371 11.956341 10.881028 11.956341C10.847686 11.956341 10.814343 11.922998 10.803229 11.882247C10.792116 11.841496 10.758773 11.808153 10.729136 11.808153C10.699498 11.808153 10.666155 11.778515 10.655042 11.741469C10.647633 11.708126 10.580948 11.637737 10.510559 11.585871C10.436465 11.534006 10.336438 11.456207 10.280867 11.415456L10.184546 11.337657L10.003015 11.563643C9.714049 11.922998 9.425082 12.345334 9.347283 12.52316C9.184277 12.889924 9.110182 13.315965 9.110182 13.919831C9.106479 14.820072 9.169457 14.964555 10.073403 16.109306C10.325323 16.424208 10.643928 16.816904 10.781002 16.97991C11.46637 17.776421 11.688652 18.172823 11.847955 18.898943C11.925754 19.243481 11.910935 19.902918 11.814612 20.295614C11.729404 20.647562 11.41821 21.295883 11.273727 21.418139C11.231127 21.453947 11.199226 21.48348 11.163777 21.507853C10.99685 21.622614 10.751233 21.622915 8.939025 21.625139C8.826843 21.625278 8.708657 21.625423 8.584116 21.625603C7.280062 21.629307 6.139016 21.629307 6.042694 21.629307C5.901915 21.625603 5.84264 21.603373 5.735203 21.510756C5.612947 21.40332 5.605539 21.381092 5.605539 21.162516C5.605539 20.936527 5.609244 20.929119 5.746318 20.836502C5.916734 20.721657 6.105673 20.636446 6.253861 20.61422C6.546532 20.562353 6.791042 20.436394 6.791042 20.332663C6.791042 20.314138 6.824385 20.277092 6.865136 20.254864C6.909593 20.228931 6.93923 20.177065 6.93923 20.114086C6.93923 20.058514 6.965163 19.980717 6.9948 19.943668C7.065189 19.851051 7.065189 19.673225 6.9948 19.550972C6.965163 19.499105 6.942935 19.373146 6.93923 19.273119C6.93923 19.161978 6.909593 19.024904 6.865136 18.939695C6.82068 18.850784 6.791042 18.721119 6.791042 18.602568C6.791042 18.46179 6.772519 18.398809 6.716949 18.346945C6.661378 18.295078 6.642854 18.232098 6.642854 18.087614C6.642854 17.946836 6.620625 17.872744 6.56876 17.809763C6.520599 17.754192 6.494667 17.672689 6.494667 17.568956C6.494667 17.461523 6.472437 17.394836 6.420573 17.346676C6.365003 17.294811 6.346478 17.231831 6.346478 17.083643C6.346478 16.953978 6.320546 16.835428 6.26868 16.739105C6.198291 16.598328 6.194586 16.542757 6.205699 15.727724C6.216815 14.990488 6.227928 14.846004 6.283498 14.745978C6.320546 14.67559 6.346478 14.549629 6.346478 14.427374C6.346478 14.275482 6.365003 14.212502 6.420573 14.160635C6.465029 14.119884 6.494667 14.04579 6.494667 13.975401C6.494667 13.905012 6.524304 13.830918 6.56876 13.790166C6.609512 13.753119 6.642854 13.686434 6.642854 13.641977C6.642854 13.597522 6.676197 13.530838 6.716949 13.49379C6.757699 13.456743 6.791042 13.378944 6.791042 13.31967C6.791042 13.260394 6.824385 13.1863 6.865136 13.152958C6.905888 13.115911 6.93923 13.052931 6.93923 13.01218C6.93923 12.971427 6.972573 12.915857 7.013324 12.889924C7.054075 12.863992 7.087418 12.812125 7.087418 12.771374C7.087418 12.734328 7.120761 12.682462 7.161512 12.660234C7.202263 12.638005 7.235606 12.58614 7.235606 12.549092C7.235606 12.508341 7.268949 12.456474 7.3097 12.430542C7.350451 12.40461 7.383794 12.345334 7.383794 12.300878C7.383794 12.256422 7.417137 12.200851 7.457888 12.178622C7.498639 12.156394 7.531982 12.115643 7.531982 12.086004C7.531982 12.056367 7.565324 12.01191 7.606076 11.985978C7.646827 11.960046 7.68017 11.919294 7.68017 11.89336C7.68017 11.867428 7.713512 11.826676 7.754264 11.800744C7.795015 11.77481 7.828358 11.737764 7.828358 11.715535C7.828358 11.697013 7.895043 11.630327 7.976545 11.571053C8.058048 11.508072 8.124734 11.437683 8.124734 11.411751C8.124734 11.385818 8.158076 11.34877 8.198828 11.326543C8.239578 11.304314 8.272922 11.270971 8.272922 11.248744C8.272922 11.178355 8.513727 10.967187 8.736009 10.844932C9.043498 10.674515 9.162048 10.581899 9.162048 10.511509C9.162048 10.478167 9.180573 10.43371 9.2028 10.411482C9.228734 10.385549 9.187982 10.318865 9.054612 10.185494C8.950881 10.081763 8.865673 9.985441 8.865673 9.974328C8.865673 9.963213 8.598935 9.689066 8.272922 9.363052C7.946908 9.037039 7.68017 8.755482 7.68017 8.736959C7.68017 8.71473 7.646827 8.681388 7.606076 8.659161C7.565324 8.636931 7.531982 8.59618 7.531982 8.566543C7.531982 8.536905 7.517163 8.510973 7.498639 8.510973C7.480117 8.510973 7.328224 8.381307 7.161512 8.222006C6.854023 7.933038 6.642854 7.670005 6.642854 7.573684C6.642854 7.544046 6.609512 7.492179 6.56876 7.455133C6.528009 7.418086 6.494667 7.340288 6.494667 7.281013C6.494667 7.225441 6.461324 7.143939 6.420573 7.103188C6.379821 7.062435 6.346478 6.988341 6.346478 6.943884C6.346478 6.895723 6.313136 6.817925 6.272385 6.769764C6.216815 6.706784 6.198291 6.63269 6.198291 6.484502C6.198291 6.336314 6.176062 6.254811 6.124197 6.188126C6.057511 6.102919 6.050103 6.036233 6.050103 5.613898C6.050103 5.232315 6.064921 5.095241 6.124197 4.928529C6.168653 4.79516 6.198291 4.621039 6.198291 4.465443C6.198291 4.254275 6.209404 4.209818 6.272385 4.176476C6.327955 4.146838 6.346478 4.098677 6.346478 3.994945C6.346478 3.902329 6.372411 3.831938 6.420573 3.787482C6.461324 3.750436 6.494667 3.672637 6.494667 3.617067C6.494667 3.550381 6.520599 3.498516 6.56876 3.472582C6.613217 3.450355 6.642854 3.394785 6.642854 3.342918C6.642854 3.291053 6.672492 3.235482 6.716949 3.213254C6.757699 3.191025 6.791042 3.142865 6.791042 3.102113C6.791042 3.061361 6.824385 3.0132 6.865136 2.990972C6.905888 2.968743 6.93923 2.927992 6.93923 2.898355C6.93923 2.868717 6.972573 2.82426 7.013324 2.798328C7.054075 2.772396 7.087418 2.731644 7.087418 2.70571C7.087418 2.679778 7.154103 2.590865 7.235606 2.509361C7.317109 2.427858 7.383794 2.350059 7.383794 2.338946C7.383794 2.261147 7.687578 2.049978 7.846881 2.016637ZM3.197486 7.688529C3.227124 7.67371 3.312332 7.666302 3.38272 7.670005C3.490157 7.677415 3.51609 7.692234 3.5235 7.770033C3.542022 7.921925 3.712439 8.410945 3.786533 8.522086C3.823579 8.581362 4.486721 9.270434 5.257298 10.052127C6.476142 11.2932 6.661378 11.46732 6.672492 11.385818C6.679902 11.337657 6.70954 11.274676 6.739177 11.252449C6.768815 11.226515 6.791042 11.170945 6.791042 11.122784C6.791042 11.078327 6.824385 11.011643 6.865136 10.974595C6.909593 10.933845 6.93923 10.85975 6.93923 10.785656C6.93923 10.718972 6.961459 10.648582 6.991097 10.633763C7.094828 10.574488 7.224493 10.378139 7.250425 10.25218C7.250947 10.24927 7.251462 10.246425 7.251966 10.243638L7.251969 10.243619C7.258948 10.205012 7.263851 10.177895 7.257919 10.153396C7.243012 10.09181 7.159671 10.04679 6.868841 9.878005C6.776224 9.822434 6.616922 9.689066 6.520599 9.574221L6.342773 9.374166L6.324251 8.925898C6.302022 8.451696 6.33166 8.325737 6.453915 8.325737C6.490962 8.325737 6.76511 8.581362 7.091123 8.922194C7.406023 9.248207 7.832063 9.696476 8.039526 9.911347L8.421109 10.30775L8.280332 10.4263C8.109915 10.574488 7.99507 10.585604 7.961727 10.455937C7.913565 10.263293 7.74315 10.381844 7.487525 10.789361C7.43566 10.870864 7.357862 11.04869 7.313405 11.185763C7.268949 11.322838 7.183741 11.496958 7.120761 11.574758C6.920706 11.83779 6.253861 12.863992 6.183472 13.019588C6.142721 13.108501 6.090854 13.178892 6.061216 13.178892C6.001941 13.178892 4.716412 11.90077 4.716412 11.841496C4.716412 11.785926 4.508948 11.585871 4.453379 11.585871C4.427446 11.585871 4.360761 11.541414 4.305191 11.48955L4.201459 11.389522L4.105136 11.496958C4.053271 11.556233 3.956948 11.704421 3.890265 11.826676C3.782828 12.03414 3.771714 12.074891 3.771714 12.419428C3.771714 12.763966 3.779123 12.804717 3.879151 12.975132C4.008815 13.193709 4.190345 13.43081 4.405217 13.660501C4.890532 14.171749 5.012787 14.775616 4.746049 15.305387C4.701435 15.395732 4.677304 15.457198 4.634128 15.498984C4.542261 15.587895 4.364171 15.587716 3.719087 15.587067C3.660331 15.587008 3.597701 15.586945 3.530908 15.586945C2.556573 15.586945 2.497298 15.58324 2.415794 15.512851L2.326881 15.438757L2.419499 15.364662C2.471366 15.327617 2.563982 15.272045 2.623257 15.249817C2.686237 15.223884 2.778855 15.172018 2.83813 15.134971C2.934452 15.064582 2.938157 15.049763 2.938157 14.742273C2.938157 14.482944 2.923338 14.397736 2.864063 14.308824C2.823312 14.245843 2.789969 14.149522 2.789969 14.093951C2.789969 14.034677 2.756626 13.945764 2.715875 13.893897C2.649189 13.808689 2.641781 13.742005 2.641781 13.234462C2.641781 12.723213 2.649189 12.663938 2.715875 12.586139C2.756626 12.537978 2.789969 12.449066 2.789969 12.378675C2.789969 12.293468 2.812196 12.241603 2.864063 12.215669C2.908519 12.193441 2.938157 12.137872 2.938157 12.086004C2.938157 12.03414 2.967794 11.978568 3.012251 11.956341C3.053002 11.934112 3.086345 11.889655 3.086345 11.860018C3.086345 11.789629 3.416063 11.45991 3.656869 11.28579C3.923605 11.09685 3.905083 11.04869 3.38272 10.518918C3.138211 10.270703 2.938157 10.052125 2.938157 10.029898C2.938157 10.007668 2.912224 9.981736 2.882587 9.970623C2.852949 9.959509 2.819607 9.911347 2.804788 9.870596C2.793674 9.82614 2.749218 9.752046 2.708466 9.707589C2.641781 9.637199 2.634372 9.574221 2.634372 9.0852C2.634372 8.585065 2.638076 8.536905 2.71217 8.459106C2.756626 8.410945 2.789969 8.329442 2.789969 8.259051C2.789969 8.181254 2.812196 8.129388 2.864063 8.103456C2.904814 8.081227 2.938157 8.025656 2.938157 7.977496C2.938157 7.899697 3.075231 7.744099 3.197486 7.688529Z"/></svg>
