<svg xmlns="http://www.w3.org/2000/svg" width="24" height="24" viewBox="0 0 24 24"><path d="M12.138281 4.21875C12.030469 4.258594 11.90625 4.357031 11.90625 4.401563C11.90625 4.415625 11.885156 4.439063 11.859375 4.453125C11.833594 4.467187 11.8125 4.490625 11.8125 4.507031C11.8125 4.523438 11.791406 4.549219 11.765625 4.565625C11.739844 4.582031 11.71875 4.610156 11.71875 4.628906C11.71875 4.647656 11.697656 4.673438 11.671875 4.6875C11.646094 4.701562 11.625 4.732031 11.625 4.757813C11.625 4.783594 11.603906 4.814063 11.578125 4.828125C11.552344 4.842187 11.53125 4.872656 11.53125 4.898438C11.53125 4.924219 11.510156 4.954688 11.484375 4.96875C11.453906 4.985156 11.4375 5.017969 11.4375 5.0625C11.4375 5.107031 11.421094 5.139844 11.390625 5.15625C11.355469 5.175 11.34375 5.205469 11.34375 5.271094C11.34375 5.329688 11.327344 5.374219 11.296875 5.402344C11.259375 5.435156 11.25 5.475 11.25 5.582812C11.25 5.674219 11.233594 5.751562 11.203125 5.8125C11.160937 5.894531 11.15625 5.950781 11.15625 6.321094C11.15625 6.698438 11.160937 6.745313 11.203125 6.808594C11.23125 6.850781 11.25 6.91875 11.25 6.975C11.25 7.040625 11.264063 7.085156 11.296875 7.113281C11.325 7.139063 11.34375 7.185938 11.34375 7.228125C11.34375 7.275 11.360156 7.3125 11.390625 7.33125C11.416406 7.347656 11.4375 7.380469 11.4375 7.40625C11.4375 7.432031 11.458594 7.464844 11.484375 7.48125C11.510156 7.497656 11.53125 7.523437 11.53125 7.5375C11.53125 7.589062 11.796094 7.830469 11.94375 7.9125C12.079687 7.9875 12.834375 8.275781 12.989063 8.308594C13.05 8.322656 13.05 8.327344 13.038281 8.45625C13.028906 8.55 13.0125 8.599219 12.982031 8.622656C12.958594 8.639062 12.9375 8.678906 12.9375 8.709375C12.9375 8.739844 12.916406 8.775 12.890625 8.789062C12.860156 8.805469 12.84375 8.838281 12.84375 8.882812C12.84375 8.927344 12.827344 8.9625 12.796875 8.98125C12.766406 9.002344 12.75 9.0375 12.75 9.086719C12.75 9.138281 12.735938 9.171094 12.703125 9.1875C12.672656 9.203906 12.65625 9.236719 12.65625 9.28125C12.65625 9.325781 12.639844 9.358594 12.609375 9.375C12.578906 9.391406 12.5625 9.424219 12.5625 9.46875C12.5625 9.513281 12.546094 9.546094 12.515625 9.5625C12.482813 9.578906 12.46875 9.611719 12.46875 9.665625C12.46875 9.7125 12.45 9.759375 12.421875 9.785156C12.386719 9.815625 12.375 9.857812 12.375 9.9375C12.375 10.017187 12.363281 10.059375 12.328125 10.089844C12.295313 10.120312 12.28125 10.1625 12.28125 10.230469C12.28125 10.291406 12.267188 10.342969 12.246094 10.359375C12.20625 10.394531 12.199219 10.544531 12.234375 10.664062C12.253125 10.729687 12.250781 10.764844 12.217969 10.839844C12.194531 10.891406 12.159375 10.952344 12.140625 10.973437C12.107813 11.008594 12.098438 11.00625 12.004688 10.914844C11.950781 10.860937 11.835938 10.736719 11.749219 10.640625C11.660156 10.544531 11.49375 10.366406 11.376563 10.242187C11.097656 9.949219 10.907813 9.747656 10.195313 8.988281C9.869531 8.639062 9.50625 8.254687 9.389063 8.132812C7.914844 6.588281 7.74375 6.398437 7.605469 6.152344C7.567969 6.086719 7.525781 6.01875 7.509375 6C7.436719 5.910937 7.284375 5.561719 7.230469 5.350781C7.195313 5.224219 7.1625 5.022656 7.155469 4.905469C7.134375 4.575 7.033594 4.460156 6.796875 4.497656C6.703125 4.511719 6.665625 4.539844 6.485156 4.717969C6.372656 4.828125 6.28125 4.93125 6.28125 4.942969C6.28125 4.957031 6.260156 4.980469 6.234375 4.996875C6.208594 5.013281 6.1875 5.04375 6.1875 5.0625C6.1875 5.08125 6.166406 5.111719 6.140625 5.128125C6.114844 5.144531 6.09375 5.177344 6.09375 5.203125C6.09375 5.226562 6.072656 5.259375 6.046875 5.273437C6.021094 5.2875 6 5.317969 6 5.341406C6 5.364844 5.978906 5.402344 5.953125 5.425781C5.927344 5.449219 5.90625 5.49375 5.90625 5.521875C5.90625 5.552344 5.885156 5.589844 5.859375 5.60625C5.826563 5.627344 5.8125 5.6625 5.8125 5.71875C5.8125 5.772656 5.796094 5.817187 5.765625 5.842969C5.730469 5.873437 5.71875 5.910937 5.71875 6C5.71875 6.084375 5.704688 6.138281 5.669531 6.185156C5.622656 6.248437 5.620313 6.28125 5.620313 6.780469C5.617969 7.279687 5.620313 7.3125 5.669531 7.389844C5.704688 7.446094 5.71875 7.509375 5.71875 7.598437C5.71875 7.696875 5.730469 7.736719 5.765625 7.769531C5.79375 7.795312 5.8125 7.842187 5.8125 7.891406C5.8125 7.940625 5.828906 7.985156 5.859375 8.008594C5.885156 8.032031 5.90625 8.071875 5.90625 8.1C5.90625 8.125781 5.927344 8.167969 5.953125 8.191406C5.978906 8.214844 6 8.257031 6 8.2875C6 8.317969 6.021094 8.353125 6.046875 8.367187C6.072656 8.38125 6.09375 8.411719 6.09375 8.4375C6.09375 8.463281 6.114844 8.49375 6.140625 8.507812C6.166406 8.521875 6.1875 8.547656 6.1875 8.566406C6.1875 8.585156 6.208594 8.610937 6.234375 8.625C6.260156 8.639062 6.28125 8.664844 6.28125 8.683594C6.28125 8.71875 6.335156 8.782031 6.604688 9.060937C6.684375 9.145312 6.75 9.220312 6.75 9.225C6.75 9.232031 6.876563 9.363281 7.03125 9.515625C7.185938 9.670312 7.3125 9.80625 7.3125 9.820312C7.3125 9.832031 7.333594 9.855469 7.359375 9.871875C7.385156 9.888281 7.40625 9.909375 7.40625 9.921094C7.40625 9.930469 7.469531 10.003125 7.546875 10.080469C7.624219 10.157812 7.6875 10.230469 7.6875 10.242187C7.6875 10.253906 7.591406 10.354687 7.474219 10.469531C7.028906 10.898438 6.75 11.182031 6.75 11.203125C6.75 11.214844 6.728906 11.235937 6.703125 11.25C6.677344 11.264063 6.65625 11.289844 6.65625 11.308594C6.65625 11.327344 6.635156 11.353125 6.609375 11.367188C6.583594 11.38125 6.5625 11.407031 6.5625 11.425781C6.5625 11.444531 6.541406 11.470312 6.515625 11.484375C6.489844 11.498438 6.46875 11.524219 6.46875 11.542969C6.46875 11.561719 6.447656 11.589844 6.421875 11.60625C6.396094 11.622656 6.375 11.655469 6.375 11.676562C6.375 11.7 6.353906 11.730469 6.328125 11.746875C6.302344 11.763281 6.28125 11.79375 6.28125 11.814844C6.28125 11.835937 6.260156 11.871094 6.234375 11.894531C6.208594 11.917969 6.1875 11.955469 6.1875 11.978906C6.1875 12.002344 6.166406 12.032812 6.140625 12.046875C6.110156 12.063281 6.09375 12.096094 6.09375 12.140625C6.09375 12.185156 6.077344 12.217969 6.046875 12.234375C6.011719 12.253125 6 12.283594 6 12.351563C6 12.419531 5.988281 12.45 5.953125 12.46875C5.917969 12.4875 5.90625 12.517969 5.90625 12.592969C5.90625 12.663281 5.892188 12.705469 5.859375 12.733594C5.824219 12.761719 5.8125 12.801562 5.8125 12.885937C5.8125 12.953906 5.796094 13.019531 5.772656 13.054688C5.71875 13.132031 5.695313 13.549219 5.714063 14.163281C5.723438 14.56875 5.732813 14.632031 5.770313 14.676562C5.798438 14.711719 5.8125 14.763281 5.8125 14.847656C5.8125 14.939062 5.824219 14.978906 5.859375 15.011719C5.894531 15.044531 5.90625 15.084375 5.90625 15.175781C5.90625 15.2625 5.920313 15.316406 5.953125 15.358594C5.978906 15.391406 6 15.452344 6 15.499219C6 15.548437 6.016406 15.595312 6.046875 15.621094C6.082031 15.653906 6.09375 15.69375 6.09375 15.785156C6.09375 15.876562 6.105469 15.916406 6.140625 15.949219C6.175781 15.982031 6.1875 16.021875 6.1875 16.110937C6.1875 16.190625 6.203906 16.253906 6.234375 16.300781C6.274219 16.359375 6.28125 16.410937 6.28125 16.619531C6.28125 16.8375 6.276563 16.872656 6.234375 16.910156C6.208594 16.933594 6.1875 16.966406 6.1875 16.985156C6.1875 17.083594 5.899219 17.259375 5.566406 17.367187C5.514844 17.383594 5.444531 17.416406 5.409375 17.442187C5.346094 17.484375 5.34375 17.498437 5.34375 17.671875C5.34375 17.964844 5.186719 17.941406 7.136719 17.941406C8.777344 17.941406 8.777344 17.941406 8.873438 17.889844C9.147656 17.742187 9.3375 17.332031 9.403125 16.74375C9.426563 16.532812 9.424219 16.474219 9.379688 16.214062C9.297656 15.73125 9.117188 15.382031 8.646094 14.800781C8.521875 14.646094 8.388281 14.475 8.353125 14.423437C8.315625 14.369531 8.184375 14.189062 8.0625 14.025C7.678125 13.5 7.572656 13.228125 7.553906 12.703125C7.542188 12.377344 7.544531 12.351562 7.614844 12.070312C7.657031 11.908594 7.717969 11.71875 7.750781 11.648437C7.828125 11.491406 8.032031 11.189062 8.175 11.020312L8.280469 10.896094L8.364844 10.975781C8.411719 11.020312 8.467969 11.0625 8.491406 11.069531C8.5125 11.078906 8.53125 11.095312 8.53125 11.107031C8.53125 11.121094 8.554688 11.15625 8.585156 11.186719C8.796094 11.416406 9.302344 11.948437 9.464063 12.110156C9.569531 12.217969 9.65625 12.311719 9.65625 12.31875C9.65625 12.325781 9.803906 12.478125 9.984375 12.658594C10.164844 12.839062 10.3125 12.991406 10.3125 12.996094C10.3125 13.000781 10.415625 13.108594 10.542188 13.235156C10.66875 13.361719 10.778906 13.485937 10.788281 13.507031C10.795313 13.528125 10.81875 13.546875 10.839844 13.546875C10.858594 13.546875 10.875 13.558594 10.875 13.572656C10.875 13.586719 10.980469 13.701562 11.109375 13.828125C11.238281 13.954687 11.34375 14.064844 11.34375 14.074219C11.34375 14.08125 11.404688 14.149219 11.479688 14.221875C11.552344 14.296875 11.655469 14.407031 11.704688 14.467969C11.75625 14.528906 11.826563 14.601562 11.864063 14.627344L11.929688 14.674219L11.967188 14.608594C12.269531 14.055469 12.403125 13.867969 12.726563 13.549219C12.979688 13.300781 13.246875 13.101562 13.577344 12.914062C13.701563 12.84375 13.804688 12.780469 13.804688 12.771094C13.804688 12.761719 13.713281 12.635156 13.600781 12.489844C13.394531 12.220312 13.216406 11.885156 13.139063 11.627344C13.066406 11.378906 13.042969 11.025 13.073438 10.610156C13.101563 10.209375 13.127344 10.092187 13.25625 9.780469C13.33125 9.597656 13.750781 8.852344 13.849219 8.728125L13.89375 8.669531L13.935938 8.739844C13.959375 8.777344 13.994531 8.814844 14.015625 8.819531C14.057812 8.83125 14.090625 8.985937 14.097656 9.199219C14.102344 9.377344 14.149219 9.464062 14.257031 9.494531C14.4375 9.54375 14.564062 9.452344 14.732812 9.15C15.159375 8.388281 15.234375 7.490625 14.932031 6.799219C14.805469 6.515625 14.742187 6.426562 14.503125 6.199219C14.350781 6.053906 14.254687 5.985937 14.08125 5.899219C13.853906 5.786719 13.516406 5.653125 13.40625 5.632031C13.373438 5.625 13.239844 5.56875 13.110937 5.505469C12.930469 5.41875 12.848437 5.364844 12.773438 5.280469C12.583594 5.064844 12.494531 4.809375 12.492188 4.464844C12.489844 4.307812 12.447656 4.239844 12.335156 4.207031C12.255469 4.183594 12.222656 4.185937 12.138281 4.21875ZM15.13125 13.047656C15.121875 13.057031 15.042188 13.073438 14.957813 13.082813C14.871094 13.092188 14.749219 13.108594 14.683594 13.120313C14.571094 13.141406 14.53125 13.153125 14.425781 13.195313C14.4 13.204688 14.341406 13.225781 14.296875 13.242188C14.160938 13.289063 13.914844 13.410938 13.828125 13.476563C13.783594 13.511719 13.70625 13.560938 13.659375 13.589063C13.478906 13.689844 13.03125 14.074219 13.03125 14.125781C13.03125 14.135156 13.010156 14.158594 12.984375 14.175C12.958594 14.191406 12.9375 14.219531 12.9375 14.238281C12.9375 14.257031 12.916406 14.282813 12.890625 14.296875C12.864844 14.310938 12.84375 14.341406 12.84375 14.367188C12.84375 14.392969 12.822656 14.423438 12.796875 14.4375C12.771094 14.451563 12.75 14.482031 12.75 14.507813C12.75 14.533594 12.728906 14.564063 12.703125 14.578125C12.677344 14.592188 12.65625 14.627344 12.65625 14.657813C12.65625 14.688281 12.635156 14.730469 12.609375 14.753906C12.583594 14.777344 12.5625 14.819531 12.5625 14.85C12.5625 14.880469 12.541406 14.915625 12.515625 14.929688C12.482813 14.946094 12.46875 14.978906 12.46875 15.032813C12.46875 15.079688 12.45 15.126563 12.421875 15.152344C12.389063 15.182813 12.375 15.225 12.375 15.292969C12.375 15.35625 12.358594 15.4125 12.328125 15.452344C12.295313 15.492188 12.28125 15.546094 12.28125 15.625781C12.28125 15.689063 12.2625 15.76875 12.241406 15.808594C12.180469 15.914063 12.180469 16.734375 12.241406 16.844531C12.264844 16.889063 12.28125 16.96875 12.28125 17.046094C12.28125 17.1375 12.295313 17.189063 12.328125 17.233594C12.353906 17.266406 12.375 17.327344 12.375 17.374219C12.375 17.423438 12.391406 17.470313 12.421875 17.496094C12.447656 17.519531 12.46875 17.566406 12.46875 17.601563C12.46875 17.636719 12.489844 17.683594 12.515625 17.707031C12.541406 17.730469 12.5625 17.779688 12.5625 17.814844C12.5625 17.857031 12.578906 17.889844 12.609375 17.90625C12.635156 17.920313 12.65625 17.950781 12.65625 17.976563C12.65625 18.002344 12.677344 18.032813 12.703125 18.046875C12.73125 18.060938 12.75 18.096094 12.75 18.128906C12.75 18.161719 12.76875 18.196875 12.796875 18.210938C12.822656 18.225 12.84375 18.250781 12.84375 18.269531C12.84375 18.288281 12.864844 18.314063 12.890625 18.328125C12.916406 18.342188 12.9375 18.363281 12.9375 18.375C12.9375 18.386719 12.979687 18.440625 13.03125 18.492188C13.082813 18.54375 13.125 18.592969 13.125 18.6C13.125 18.616406 13.258594 18.75 13.272656 18.75C13.277344 18.75 13.335938 18.799219 13.401562 18.857813C13.715625 19.14375 14.315625 19.434375 14.798437 19.5375C15.05625 19.591406 15.407812 19.6125 15.705469 19.591406C16.921875 19.507031 18.030469 18.698438 18.499219 17.554688C18.998438 16.333594 18.714844 14.899219 17.789063 13.96875C17.704688 13.884375 17.542969 13.74375 17.425781 13.657031C17.207813 13.495313 16.734375 13.244531 16.546875 13.195313C16.488281 13.178906 16.420313 13.157813 16.394531 13.148438C16.221094 13.078125 15.185156 12.996094 15.13125 13.047656ZM15.7125 14.254688C15.817969 14.308594 15.9375 14.425781 15.9375 14.475C15.9375 14.491406 15.958594 14.517188 15.984375 14.53125C16.026563 14.552344 16.03125 14.580469 16.03125 14.760938C16.03125 14.939063 16.026563 14.969531 15.984375 14.995313C15.958594 15.011719 15.9375 15.039844 15.9375 15.060938C15.9375 15.103125 15.834375 15.213281 15.752344 15.257813C15.653906 15.309375 15.35625 15.297656 15.241406 15.239063C15.077344 15.154688 14.983594 15.05625 14.929688 14.910938C14.753906 14.446875 15.257813 14.022656 15.7125 14.254688ZM15.95625 15.672656C15.998438 15.738281 16.007813 15.778125 15.996094 15.829688C15.986719 15.869531 15.982031 15.932813 15.984375 15.972656C15.984375 16.010156 15.991406 16.385156 15.998438 16.802344C16.007813 17.453906 16.005469 17.573438 15.975 17.653125C15.953906 17.702344 15.9375 17.763281 15.9375 17.789063C15.9375 17.857031 16.040625 17.913281 16.197656 17.932031C16.361719 17.950781 16.410938 17.995313 16.417969 18.124219C16.420313 18.178125 16.429688 18.250781 16.439063 18.285938C16.450781 18.328125 16.44375 18.365625 16.417969 18.407813L16.378125 18.46875L15.532031 18.46875C14.934375 18.46875 14.664844 18.461719 14.608594 18.440625L14.53125 18.4125L14.53125 18.182813C14.53125 17.925 14.5125 17.948438 14.751563 17.917969C14.814844 17.908594 14.892188 17.892188 14.922656 17.880469L14.976563 17.859375L14.971875 17.022656L14.964844 16.185938L14.882813 16.164844C14.838281 16.155469 14.763281 16.136719 14.71875 16.127344C14.535938 16.0875 14.526563 16.073438 14.535938 15.855469C14.538281 15.747656 14.547656 15.653906 14.554688 15.649219C14.56875 15.635156 15.330469 15.592969 15.65625 15.590625L15.902344 15.588281Z"/></svg>
