<svg xmlns="http://www.w3.org/2000/svg" viewBox="0 0 24 24" width="24" height="24"><path fill="currentColor" d="M 3.75423285391,3.68842188828 c -0.07478083125,0.0405062835937 -0.133982322656,0.087244303125 -0.133982322656,0.102823642969 s -0.0560856234375,0.087244303125 -0.12463471875,0.155793398437 s -0.12463471875,0.140214058594 -0.12463471875,0.155793398437 s -0.0280428117188,0.0436221515625 -0.062317359375,0.062317359375 s -0.062317359375,0.0529697554688 -0.062317359375,0.0778966992188 s -0.0280428117188,0.062317359375 -0.062317359375,0.0841284351563 s -0.062317359375,0.062317359375 -0.062317359375,0.087244303125 s -0.0280428117188,0.0654332273437 -0.062317359375,0.087244303125 s -0.062317359375,0.062317359375 -0.062317359375,0.0934760390625 c 0,0.0280428117188 -0.0280428117188,0.0716649632812 -0.062317359375,0.0934760390625 c -0.0405062835937,0.02492694375 -0.062317359375,0.0716649632812 -0.062317359375,0.130866454688 s -0.0218110757812,0.102823642969 -0.062317359375,0.12463471875 c -0.0467380195313,0.02492694375 -0.062317359375,0.0654332273437 -0.062317359375,0.155793398438 s -0.0155793398438,0.130866454687 -0.062317359375,0.155793398437 s -0.062317359375,0.0654332273437 -0.062317359375,0.165141002344 c 0,0.07478083125 -0.0218110757813,0.165141002344 -0.0529697554687,0.208763153906 c -0.0405062835937,0.0560856234375 -0.062317359375,0.177604474219 -0.0810125671875,0.451800855469 c -0.0311586796875,0.476727799219 -0.0311586796875,0.520349950781 0,0.937876258594 c 0.0186952078125,0.261732909375 0.037390415625,0.364556552344 0.0810125671875,0.408178703906 c 0.0280428117188,0.0342745476562 0.0529697554687,0.109055378906 0.0529697554687,0.171372738281 c 0,0.0685490953125 0.0218110757812,0.127750586719 0.062317359375,0.165141002344 c 0.037390415625,0.0342745476562 0.062317359375,0.0965919070312 0.062317359375,0.158909266406 c 0,0.0716649632813 0.0186952078125,0.118402982813 0.062317359375,0.143329926563 c 0.0342745476562,0.0218110757812 0.062317359375,0.0716649632813 0.062317359375,0.109055378906 s 0.0280428117188,0.0841284351562 0.062317359375,0.102823642969 s 0.062317359375,0.0592014914063 0.062317359375,0.0934760390625 s 0.0280428117188,0.07478083125 0.062317359375,0.0934760390625 s 0.062317359375,0.0560856234375 0.062317359375,0.0810125671875 s 0.196299682031,0.243037701562 0.436221515625,0.479843667188 s 0.436221515625,0.439337383594 0.436221515625,0.4486849875 c 0,0.0280428117188 0.442453251562,0.454916723437 0.470496063281,0.454916723437 c 0.0155793398438,0 0.0280428117188,0.0218110757813 0.0280428117188,0.0467380195313 s 0.0280428117188,0.062317359375 0.062317359375,0.0841284351562 s 0.062317359375,0.0529697554687 0.062317359375,0.0654332273437 c 0,0.0155793398438 0.115287114844,0.140214058594 0.255501173437,0.277312249219 c 0.296007457031,0.289775721094 0.296007457031,0.277312249219 -0.0186952078125,0.495423007031 c -0.115287114844,0.0810125671875 -0.227458361719,0.165141002344 -0.246153569531,0.190067946094 c -0.0218110757812,0.02492694375 -0.099707775,0.0934760390625 -0.177604474219,0.152677530469 c -0.155793398438,0.115287114844 -0.311586796875,0.261732909375 -0.311586796875,0.289775721094 c 0,0.00934760390625 -0.0841284351563,0.102823642969 -0.186952078125,0.202531417969 c -0.102823642969,0.102823642969 -0.186952078125,0.205647285938 -0.186952078125,0.227458361719 s -0.0280428117188,0.0592014914062 -0.062317359375,0.0810125671875 s -0.062317359375,0.0592014914062 -0.062317359375,0.0841284351562 s -0.0280428117188,0.0592014914062 -0.062317359375,0.0778966992187 s -0.062317359375,0.0529697554688 -0.062317359375,0.0778966992188 s -0.0280428117188,0.0592014914063 -0.062317359375,0.0778966992188 s -0.062317359375,0.0592014914062 -0.062317359375,0.0934760390625 s -0.0280428117188,0.07478083125 -0.062317359375,0.0934760390625 c -0.037390415625,0.0186952078125 -0.062317359375,0.0654332273437 -0.062317359375,0.109055378906 s -0.02492694375,0.0903601710938 -0.062317359375,0.109055378906 s -0.062317359375,0.0654332273437 -0.062317359375,0.109055378906 s -0.02492694375,0.0903601710938 -0.062317359375,0.109055378906 c -0.0436221515625,0.02492694375 -0.062317359375,0.0654332273437 -0.062317359375,0.140214058594 s -0.0186952078125,0.115287114844 -0.062317359375,0.140214058594 c -0.0467380195313,0.02492694375 -0.062317359375,0.0654332273437 -0.062317359375,0.1495616625 c 0,0.0778966992188 -0.0218110757812,0.133982322656 -0.062317359375,0.171372738281 c -0.0405062835937,0.0311586796875 -0.062317359375,0.0903601710937 -0.062317359375,0.155793398437 c 0,0.062317359375 -0.0280428117188,0.137098190625 -0.062317359375,0.177604474219 c -0.0467380195312,0.0529697554687 -0.062317359375,0.115287114844 -0.062317359375,0.2492694375 c 0,0.099707775 -0.02492694375,0.233690097656 -0.0529697554687,0.299123325 c -0.0778966992188,0.183836210156 -0.0810125671875,1.27127413125 0,1.38344537812 c 0.037390415625,0.0529697554688 0.0529697554687,0.137098190625 0.0529697554687,0.280428117188 c 0,0.1495616625 0.0155793398438,0.227458361719 0.062317359375,0.296007457031 c 0.037390415625,0.0560856234375 0.062317359375,0.146445794531 0.062317359375,0.221226625781 c 0,0.087244303125 0.0186952078125,0.146445794531 0.062317359375,0.183836210156 c 0.0467380195313,0.0405062835937 0.062317359375,0.0965919070313 0.062317359375,0.205647285937 c 0,0.115287114844 0.012463471875,0.158909266406 0.0592014914063,0.180720342188 c 0.0467380195313,0.02492694375 0.0592014914063,0.0778966992187 0.0716649632813,0.261732909375 c 0.00934760390625,0.143329926563 0.0342745476562,0.258617041406 0.0654332273437,0.305355060938 c 0.0342745476562,0.0467380195313 0.0529697554687,0.137098190625 0.0529697554687,0.246153569531 c 0.00311586796875,0.0934760390625 0.0218110757813,0.227458361719 0.0467380195313,0.296007457031 c 0.0592014914063,0.158909266406 0.0560856234375,0.264848777344 0,0.339629608594 c -0.02492694375,0.0342745476563 -0.0467380195313,0.099707775 -0.0467380195313,0.1495616625 c 0,0.0529697554687 -0.0218110757812,0.0965919070313 -0.062317359375,0.118402982813 c -0.0342745476563,0.0186952078125 -0.062317359375,0.0467380195313 -0.062317359375,0.0654332273438 c 0,0.0654332273437 -0.177604474219,0.177604474219 -0.342745476562,0.214994889844 c -0.280428117188,0.062317359375 -0.436221515625,0.130866454687 -0.5483927625,0.236805965625 c -0.0934760390625,0.087244303125 -0.105939510937,0.115287114844 -0.105939510937,0.258617041406 c 0,0.12463471875 0.012463471875,0.165141002344 0.062317359375,0.196299682031 c 0.0342745476562,0.0218110757813 0.062317359375,0.0560856234375 0.062317359375,0.0778966992188 s 0.0280428117188,0.0529697554687 0.0592014914062,0.0716649632813 c 0.0405062835937,0.0186952078125 0.788314596094,0.0311586796875 2.21226625781,0.0311586796875 l 2.14994889844,0 l 0.165141002344,-0.133982322656 c 0.0903601710937,-0.07478083125 0.180720342188,-0.168256870312 0.202531417969,-0.211879021875 c 0.0186952078125,-0.0405062835937 0.099707775,-0.208763153906 0.177604474219,-0.370788288281 c 0.17448860625,-0.361440684375 0.208763153906,-0.542161026562 0.208763153906,-1.08432205312 c 0,-0.461148459375 0.0062317359375,-0.420642175781 -0.165141002344,-0.894254107031 c -0.152677530469,-0.426873911719 -0.370788288281,-0.763387652344 -0.831936747656,-1.27750586719 c -0.0903601710938,-0.102823642969 -0.283543985156,-0.342745476563 -0.426873911719,-0.529697554688 c -0.146445794531,-0.190067946094 -0.383251760156,-0.495423007031 -0.526581686719,-0.682375085156 c -0.358324816406,-0.458032591406 -0.401946967969,-0.59824665 -0.401946967969,-1.26504239531 c 0.00311586796875,-0.414410439844 0.012463471875,-0.529697554687 0.0841284351563,-0.819473275781 c 0.099707775,-0.401946967969 0.121518850781,-0.445569119531 0.405062835937,-0.82258914375 c 0.299123325,-0.395715232031 0.361440684375,-0.482959535156 0.37390415625,-0.520349950781 c 0.02492694375,-0.0716649632813 0.367672420313,0.221226625781 1.09990139297,0.937876258594 c 0.196299682031,0.193183814063 0.364556552344,0.352093080469 0.37390415625,0.352093080469 c 0.0218110757812,0 0.19941555,0.177604474219 0.19941555,0.19941555 c 0,0.0280428117188 0.442453251562,0.454916723437 0.470496063281,0.454916723437 c 0.0155793398438,0 0.0280428117188,0.0155793398438 0.0280428117188,0.0311586796875 c 0,0.0186952078125 0.0654332273437,0.0934760390625 0.143329926562,0.165141002344 c 0.2492694375,0.227458361719 4.34351994844,4.32482474063 4.34351994844,4.34663581641 c 0,0.012463471875 0.0280428117187,0.0405062835938 0.062317359375,0.062317359375 s 0.062317359375,0.0560856234375 0.062317359375,0.0810125671875 c 0,0.0218110757812 0.0280428117188,0.0654332273437 0.062317359375,0.0965919070313 s 0.062317359375,0.0810125671875 0.062317359375,0.115287114844 c 0,0.0311586796875 0.0280428117187,0.0810125671875 0.062317359375,0.109055378906 c 0.0342745476562,0.0311586796875 0.062317359375,0.0841284351562 0.062317359375,0.118402982813 s 0.0280428117188,0.0810125671875 0.062317359375,0.102823642969 s 0.062317359375,0.0716649632813 0.062317359375,0.112171246875 c 0,0.037390415625 0.0280428117188,0.0965919070313 0.062317359375,0.127750586719 c 0.0405062835937,0.037390415625 0.062317359375,0.0965919070313 0.062317359375,0.171372738281 c 0,0.0685490953125 0.02492694375,0.143329926563 0.0592014914062,0.183836210156 c 0.0436221515625,0.0498538875 0.062317359375,0.140214058594 0.0810125671875,0.405062835937 c 0.012463471875,0.236805965625 0.0342745476562,0.355208948438 0.0654332273437,0.380135892187 c 0.02492694375,0.0186952078125 0.0436221515625,0.0810125671875 0.0436221515625,0.133982322656 c 0,0.12463471875 0.133982322656,0.205647285938 0.37390415625,0.227458361719 c 0.168256870313,0.0155793398438 0.17448860625,0.012463471875 0.339629608594,-0.137098190625 c 0.514118214844,-0.458032591406 0.657448141406,-0.620057725781 0.828820879688,-0.937876258594 c 0.196299682031,-0.358324816406 0.261732909375,-0.526581686719 0.364556552344,-0.925412786719 c 0.0654332273438,-0.255501173437 0.0716649632813,-0.342745476562 0.0685490953125,-0.965919070312 c -0.00311586796875,-0.557740366406 -0.0155793398438,-0.710417896875 -0.0560856234375,-0.825705011719 c -0.0311586796875,-0.0778966992188 -0.0716649632813,-0.211879021875 -0.0934760390625,-0.296007457031 c -0.037390415625,-0.143329926563 -0.115287114844,-0.32405026875 -0.246153569531,-0.560856234375 c -0.0280428117187,-0.0529697554688 -0.07478083125,-0.143329926563 -0.099707775,-0.205647285938 c -0.0311586796875,-0.0685490953125 -0.535929290625,-0.613825989844 -1.28685347109,-1.38967711406 l -1.23699958359,-1.27438999922 l -0.0654332273437,-0.218110757813 c -0.0592014914063,-0.186952078125 -0.0654332273437,-0.280428117188 -0.0592014914063,-0.697954425 c 0.0062317359375,-0.464264327344 0.00934760390625,-0.492307139063 0.105939510937,-0.732228972656 c 0.171372738281,-0.42375804375 0.632521197656,-1.20584090391 0.897369975,-1.53300704062 c 0.0592014914062,-0.0716649632813 0.162025134375,-0.158909266406 0.233690097656,-0.193183814063 c 0.12463471875,-0.0592014914063 0.127750586719,-0.0592014914063 0.271080513281,-0.0062317359375 c 0.087244303125,0.0342745476562 0.146445794531,0.0810125671875 0.155793398437,0.115287114844 c 0.0062317359375,0.0342745476562 0.037390415625,0.0934760390625 0.0685490953125,0.133982322656 c 0.0467380195313,0.0592014914063 0.0592014914063,0.127750586719 0.0592014914063,0.333397872656 c 0,0.246153569531 0.00311586796875,0.261732909375 0.087244303125,0.317818532812 c 0.0467380195313,0.0342745476562 0.1495616625,0.0841284351562 0.230574229687,0.109055378906 c 0.218110757813,0.07478083125 0.339629608594,0.0218110757812 0.545276894531,-0.230574229688 c 0.0903601710937,-0.109055378906 0.180720342188,-0.243037701562 0.19941555,-0.292891589062 c 0.0218110757813,-0.0529697554688 0.0654332273438,-0.130866454687 0.0965919070313,-0.177604474219 s 0.0841284351562,-0.158909266406 0.115287114844,-0.2492694375 c 0.0342745476563,-0.0903601710937 0.087244303125,-0.227458361719 0.121518850781,-0.305355060938 c 0.037390415625,-0.0778966992187 0.0934760390625,-0.286659853125 0.130866454687,-0.467380195313 c 0.0560856234375,-0.277312249219 0.062317359375,-0.383251760156 0.0467380195313,-0.701070292969 c -0.0155793398438,-0.246153569531 -0.0436221515625,-0.433105647656 -0.0841284351562,-0.545276894531 c -0.0342745476563,-0.0934760390625 -0.0810125671875,-0.2492694375 -0.109055378906,-0.342745476563 c -0.177604474219,-0.657448141406 -0.919181050781,-1.26504239531 -2.12813782266,-1.7448860625 c -0.429989779687,-0.171372738281 -0.567087970312,-0.267964645312 -0.869327163281,-0.607594253906 c -0.193183814062,-0.221226625781 -0.252385305469,-0.377020024219 -0.252385305469,-0.666795745313 c 0,-0.411294571875 -0.087244303125,-0.563972102344 -0.32405026875,-0.563972102344 c -0.07478083125,0 -0.171372738281,0.0280428117188 -0.236805965625,0.0654332273437 c -0.12463471875,0.07478083125 -0.436221515625,0.383251760156 -0.436221515625,0.429989779688 c 0,0.0186952078125 -0.0280428117188,0.0467380195312 -0.062317359375,0.0654332273437 s -0.062317359375,0.0498538875 -0.062317359375,0.0716649632813 s -0.0280428117188,0.0560856234375 -0.062317359375,0.0778966992187 s -0.062317359375,0.0592014914063 -0.062317359375,0.0841284351563 s -0.0280428117187,0.0592014914063 -0.062317359375,0.0778966992188 s -0.062317359375,0.0529697554687 -0.062317359375,0.07478083125 s -0.0280428117188,0.0654332273437 -0.062317359375,0.0965919070312 s -0.062317359375,0.0810125671875 -0.062317359375,0.112171246875 s -0.0280428117187,0.0716649632812 -0.062317359375,0.0903601710938 c -0.0436221515625,0.0218110757813 -0.062317359375,0.0654332273437 -0.062317359375,0.137098190625 c 0,0.062317359375 -0.02492694375,0.12463471875 -0.062317359375,0.158909266406 s -0.062317359375,0.0965919070313 -0.062317359375,0.155793398437 s -0.02492694375,0.121518850781 -0.062317359375,0.155793398438 c -0.0498538875,0.0436221515625 -0.062317359375,0.0965919070313 -0.062317359375,0.2492694375 c 0,0.112171246875 -0.02492694375,0.267964645312 -0.062317359375,0.37390415625 c -0.0810125671875,0.236805965625 -0.0810125671875,0.470496063281 0,0.592014914062 c 0.0405062835938,0.062317359375 0.062317359375,0.146445794531 0.062317359375,0.255501173438 c 0,0.130866454687 0.012463471875,0.168256870313 0.062317359375,0.196299682031 c 0.037390415625,0.0218110757813 0.062317359375,0.0654332273437 0.062317359375,0.118402982812 c 0,0.0498538875 0.02492694375,0.099707775 0.062317359375,0.12463471875 c 0.0342745476562,0.0218110757813 0.062317359375,0.0560856234375 0.062317359375,0.0810125671875 c 0,0.0218110757812 0.0280428117188,0.0654332273437 0.062317359375,0.0965919070313 s 0.062317359375,0.07478083125 0.062317359375,0.0965919070312 s 0.0280428117188,0.0560856234375 0.062317359375,0.07478083125 s 0.062317359375,0.0467380195313 0.062317359375,0.062317359375 c 0,0.062317359375 0.296007457031,0.345861344531 0.498538875,0.479843667188 c 0.27419638125,0.180720342188 0.644984669531,0.37390415625 0.8475160875,0.439337383594 c 0.264848777344,0.087244303125 0.3988311,0.165141002344 0.3988311,0.233690097656 c 0,0.0560856234375 -0.292891589062,0.37390415625 -0.345861344531,0.37390415625 c -0.0155793398438,0 -0.0280428117188,0.0280428117188 -0.0280428117188,0.062317359375 c 0,0.0311586796875 -0.0280428117187,0.07478083125 -0.062317359375,0.0934760390625 s -0.062317359375,0.0592014914063 -0.062317359375,0.0934760390625 s -0.0280428117188,0.07478083125 -0.062317359375,0.0934760390625 c -0.0405062835937,0.0218110757812 -0.062317359375,0.0654332273437 -0.062317359375,0.12463471875 s -0.0218110757812,0.102823642969 -0.062317359375,0.12463471875 c -0.037390415625,0.0186952078125 -0.062317359375,0.0654332273437 -0.062317359375,0.109055378906 s -0.0280428117188,0.0934760390625 -0.062317359375,0.115287114844 c -0.037390415625,0.02492694375 -0.062317359375,0.07478083125 -0.062317359375,0.121518850781 c 0,0.0436221515625 -0.0280428117188,0.105939510937 -0.062317359375,0.137098190625 s -0.062317359375,0.0965919070313 -0.062317359375,0.143329926563 c 0,0.0560856234375 -0.0218110757812,0.099707775 -0.062317359375,0.121518850781 s -0.062317359375,0.0654332273437 -0.062317359375,0.121518850781 c 0,0.0467380195313 -0.0280428117188,0.112171246875 -0.062317359375,0.143329926563 c -0.0436221515625,0.037390415625 -0.062317359375,0.0965919070312 -0.062317359375,0.180720342187 s -0.0311586796875,0.17448860625 -0.0934760390625,0.277312249219 c -0.0498538875,0.0810125671875 -0.0934760390625,0.165141002344 -0.0934760390625,0.183836210156 c 0,0.087244303125 -0.0155793398438,0.0716649632813 -3.18130119609,-3.10652036484 c -1.50184836094,-1.50496422891 -2.77935422813,-2.81362877578 -2.8416715875,-2.90087307891 c -0.0592014914063,-0.0903601710937 -0.133982322656,-0.236805965625 -0.165141002344,-0.327166136719 c -0.0280428117188,-0.0903601710938 -0.087244303125,-0.227458361719 -0.130866454687,-0.302239192969 c -0.0841284351562,-0.146445794531 -0.158909266406,-0.551508630469 -0.162025134375,-0.878674767188 c 0,-0.289775721094 -0.165141002344,-0.436221515625 -0.489191271094,-0.429989779687 c -0.130866454687,0.00311586796875 -0.218110757813,0.02492694375 -0.311586796875,0.0810125671875 M 18.1869332852,9.93573716562 c -0.0498538875,0.0155793398438 -0.143329926563,0.0436221515625 -0.202531417969,0.062317359375 c -0.345861344531,0.099707775 -1.02823642969,0.526581686719 -1.02823642969,0.641868801563 c 0,0.0186952078125 -0.0280428117187,0.0436221515625 -0.062317359375,0.0529697554687 s -0.062317359375,0.0405062835937 -0.062317359375,0.062317359375 c 0,0.02492694375 -0.0280428117187,0.0592014914062 -0.062317359375,0.0778966992187 s -0.062317359375,0.0592014914063 -0.062317359375,0.0934760390625 s -0.0280428117187,0.07478083125 -0.062317359375,0.0934760390625 c -0.0405062835937,0.0218110757813 -0.062317359375,0.0654332273437 -0.062317359375,0.12463471875 s -0.0218110757812,0.102823642969 -0.062317359375,0.12463471875 s -0.062317359375,0.0654332273437 -0.062317359375,0.12463471875 s -0.0218110757813,0.102823642969 -0.062317359375,0.12463471875 c -0.0467380195313,0.02492694375 -0.062317359375,0.0654332273437 -0.062317359375,0.171372738281 s -0.0155793398438,0.1495616625 -0.062317359375,0.177604474219 c -0.0405062835937,0.02492694375 -0.062317359375,0.07478083125 -0.062317359375,0.137098190625 c 0,0.0903601710937 0.0155793398438,0.105939510937 0.190067946094,0.180720342188 c 0.102823642969,0.0436221515625 0.193183814063,0.0810125671875 0.202531417969,0.0810125671875 c 0.0062317359375,0 0.0685490953125,-0.115287114844 0.140214058594,-0.258617041406 c 0.255501173437,-0.504770610937 0.495423007031,-0.769619388281 0.8475160875,-0.937876258594 c 0.193183814063,-0.087244303125 0.529697554688,-0.17448860625 0.679259217188,-0.17448860625 c 0.180720342188,0 0.526581686719,0.087244303125 0.725997236719,0.180720342188 c 0.218110757813,0.102823642969 0.579551442188,0.436221515625 0.579551442188,0.535929290625 c 0,0.0342745476562 0.0280428117187,0.087244303125 0.062317359375,0.115287114844 c 0.0405062835937,0.037390415625 0.062317359375,0.0934760390625 0.062317359375,0.171372738281 c 0,0.0810125671875 0.0186952078125,0.12463471875 0.0592014914062,0.146445794531 c 0.0498538875,0.0280428117187 0.062317359375,0.087244303125 0.0810125671875,0.383251760156 c 0.0436221515625,0.691722689063 0.0062317359375,1.34917083047 -0.0841284351562,1.44887860547 c -0.037390415625,0.0405062835937 -0.0560856234375,0.112171246875 -0.0560856234375,0.221226625781 c 0,0.12463471875 -0.0155793398438,0.17448860625 -0.062317359375,0.214994889844 c -0.037390415625,0.0342745476562 -0.062317359375,0.0934760390625 -0.062317359375,0.152677530469 c 0,0.0560856234375 -0.02492694375,0.118402982813 -0.062317359375,0.152677530469 c -0.0342745476563,0.0311586796875 -0.062317359375,0.0965919070312 -0.062317359375,0.143329926562 c 0,0.0560856234375 -0.0218110757812,0.099707775 -0.062317359375,0.121518850781 c -0.0436221515625,0.0218110757813 -0.062317359375,0.0654332273437 -0.062317359375,0.133982322656 c 0,0.0654332273437 -0.0218110757813,0.112171246875 -0.062317359375,0.140214058594 c -0.0342745476563,0.0218110757812 -0.062317359375,0.0716649632813 -0.062317359375,0.115287114844 s -0.02492694375,0.0903601710937 -0.062317359375,0.109055378906 c -0.0342745476563,0.0186952078125 -0.062317359375,0.0654332273437 -0.062317359375,0.105939510937 s -0.0280428117187,0.0965919070313 -0.062317359375,0.127750586719 s -0.062317359375,0.0810125671875 -0.062317359375,0.109055378906 s -0.0280428117187,0.0778966992188 -0.062317359375,0.109055378906 s -0.062317359375,0.0778966992188 -0.062317359375,0.105939510937 s -0.0280428117187,0.0685490953125 -0.062317359375,0.0903601710937 s -0.062317359375,0.0716649632813 -0.062317359375,0.115287114844 s -0.02492694375,0.0903601710938 -0.062317359375,0.109055378906 c -0.0342745476563,0.0186952078125 -0.062317359375,0.0592014914062 -0.062317359375,0.0934760390625 s -0.0280428117187,0.07478083125 -0.062317359375,0.0934760390625 s -0.062317359375,0.0529697554687 -0.062317359375,0.0778966992188 s -0.0280428117187,0.0592014914062 -0.062317359375,0.0778966992187 s -0.062317359375,0.0529697554688 -0.062317359375,0.0778966992188 s -0.0280428117187,0.0592014914062 -0.062317359375,0.0778966992188 s -0.062317359375,0.0592014914062 -0.062317359375,0.0934760390625 s -0.0280428117187,0.07478083125 -0.062317359375,0.0934760390625 s -0.062317359375,0.0592014914062 -0.062317359375,0.0934760390625 s -0.0280428117187,0.07478083125 -0.062317359375,0.0934760390625 s -0.062317359375,0.0498538875 -0.062317359375,0.0716649632813 s -0.0280428117187,0.0560856234375 -0.062317359375,0.0778966992188 s -0.062317359375,0.0592014914062 -0.062317359375,0.0841284351562 s -0.0280428117187,0.0592014914062 -0.062317359375,0.0778966992187 s -0.062317359375,0.0529697554688 -0.062317359375,0.0778966992188 s -0.0280428117187,0.062317359375 -0.062317359375,0.0841284351562 s -0.062317359375,0.0560856234375 -0.062317359375,0.0778966992188 s -0.0280428117187,0.0529697554687 -0.062317359375,0.0716649632813 s -0.062317359375,0.0498538875 -0.062317359375,0.0716649632813 s -0.0280428117187,0.0560856234375 -0.062317359375,0.0778966992188 s -0.062317359375,0.0592014914062 -0.062317359375,0.0841284351562 s -0.0280428117187,0.0592014914062 -0.062317359375,0.0778966992187 s -0.062317359375,0.0529697554688 -0.062317359375,0.0778966992188 s -0.0280428117187,0.062317359375 -0.062317359375,0.0841284351563 s -0.062317359375,0.062317359375 -0.062317359375,0.087244303125 s -0.0280428117187,0.0654332273437 -0.062317359375,0.087244303125 s -0.062317359375,0.0592014914062 -0.062317359375,0.0841284351562 s -0.0280428117187,0.0592014914062 -0.062317359375,0.0778966992188 s -0.062317359375,0.0467380195312 -0.062317359375,0.062317359375 s -0.0560856234375,0.087244303125 -0.12463471875,0.155793398438 s -0.12463471875,0.137098190625 -0.12463471875,0.1495616625 s -0.0560856234375,0.0716649632813 -0.12463471875,0.130866454687 s -0.12463471875,0.12463471875 -0.12463471875,0.146445794531 s -0.0280428117187,0.0529697554687 -0.062317359375,0.0716649632813 s -0.062317359375,0.0560856234375 -0.062317359375,0.087244303125 c 0,0.0280428117187 -0.0280428117187,0.0716649632813 -0.062317359375,0.0934760390625 s -0.062317359375,0.0654332273438 -0.062317359375,0.0965919070313 c 0,0.0342745476563 -0.0218110757812,0.099707775 -0.0498538875,0.1495616625 c -0.0467380195312,0.0810125671875 -0.0436221515625,0.0965919070313 0.0186952078125,0.233690097656 l 0.0654332273438,0.1495616625 l 5.20661537578,0 l 0.0841284351562,-0.087244303125 c 0.121518850781,-0.121518850781 0.19941555,-0.355208948438 0.330282004688,-0.990846014063 c 0.0654332273437,-0.305355060938 0.1495616625,-0.67302748125 0.190067946094,-0.816357407813 c 0.0934760390625,-0.314702664844 0.0934760390625,-0.336513740625 0.0062317359375,-0.361440684375 c -0.158909266406,-0.0405062835938 -0.367672420313,0.012463471875 -0.367672420313,0.0934760390625 c 0,0.0218110757813 -0.0280428117187,0.0560856234375 -0.062317359375,0.07478083125 s -0.062317359375,0.0467380195312 -0.062317359375,0.062317359375 c 0,0.0560856234375 -0.264848777344,0.286659853125 -0.401946967969,0.3489772125 c -0.07478083125,0.0342745476563 -0.214994889844,0.0778966992188 -0.311586796875,0.0934760390625 c -0.214994889844,0.0405062835937 -2.48957850703,0.0467380195313 -2.67964645312,0.0062317359375 l -0.137098190625,-0.0280428117187 l 0.401946967969,-0.386367628125 c 0.221226625781,-0.214994889844 0.67302748125,-0.669911613281 1.00642535391,-1.01265708984 c 1.36786603828,-1.41771992578 1.95988095234,-2.35559618437 2.27769948516,-3.61752271172 c 0.102823642969,-0.3988311 0.105939510937,-1.21207263984 0.0062317359375,-1.61090373984 c -0.130866454687,-0.532813422656 -0.370788288281,-0.984614278125 -0.691722689062,-1.30554867891 c -0.162025134375,-0.158909266406 -0.277312249219,-0.236805965625 -0.532813422656,-0.361440684375 c -0.177604474219,-0.087244303125 -0.377020024219,-0.17448860625 -0.439337383594,-0.193183814063 c -0.0654332273438,-0.0186952078125 -0.165141002344,-0.0498538875 -0.221226625781,-0.0654332273437 c -0.130866454687,-0.0405062835937 -1.40837232187,-0.0342745476562 -1.53300704063,0.0062317359375"/></svg>
