<svg xmlns="http://www.w3.org/2000/svg" width="24" height="24" viewBox="0 0 24 24"><path d="M8.355469 5.008594C8.254687 5.029687 8.0625 5.163281 8.0625 5.2125C8.0625 5.219531 8.020312 5.26875 7.96875 5.320312C7.917188 5.371875 7.875 5.428125 7.875 5.444531C7.875 5.460938 7.853906 5.486719 7.828125 5.503125C7.802344 5.519531 7.78125 5.547656 7.78125 5.566406C7.78125 5.585156 7.760156 5.610937 7.734375 5.625C7.708594 5.639062 7.6875 5.669531 7.6875 5.695312C7.6875 5.721094 7.666406 5.751562 7.640625 5.765625C7.6125 5.779687 7.59375 5.814844 7.59375 5.847656C7.59375 5.880469 7.575 5.915625 7.546875 5.929687C7.516406 5.946094 7.5 5.978906 7.5 6.021094C7.5 6.05625 7.478906 6.105469 7.453125 6.128906C7.422656 6.157031 7.40625 6.201563 7.40625 6.260156C7.40625 6.325781 7.394531 6.35625 7.359375 6.375C7.319531 6.396094 7.3125 6.424219 7.3125 6.557813C7.3125 6.65625 7.29375 6.766406 7.265625 6.850781C7.228125 6.95625 7.21875 7.042969 7.21875 7.284375C7.21875 7.551562 7.223437 7.59375 7.265625 7.647656C7.298437 7.689844 7.3125 7.741406 7.3125 7.835156C7.3125 7.928906 7.324219 7.975781 7.359375 8.015625C7.385156 8.046094 7.40625 8.095312 7.40625 8.125781C7.40625 8.153906 7.427344 8.200781 7.453125 8.226563C7.478906 8.252344 7.5 8.303906 7.5 8.339063C7.5 8.376563 7.521094 8.425781 7.546875 8.449219C7.572656 8.472656 7.59375 8.505469 7.59375 8.524219C7.59375 8.585156 7.727344 8.751562 7.921875 8.934375C8.027344 9.035156 8.123438 9.117188 8.135156 9.117188C8.146875 9.117188 8.15625 9.133594 8.15625 9.152344C8.15625 9.171094 8.177344 9.196875 8.203125 9.210938C8.228906 9.225 8.25 9.246094 8.25 9.260156C8.25 9.271875 8.41875 9.45 8.625 9.65625C8.83125 9.8625 9 10.035937 9 10.042969C9 10.05 9.053906 10.110937 9.119531 10.176562C9.203906 10.260938 9.229688 10.303125 9.213281 10.319531C9.199219 10.333594 9.1875 10.361719 9.1875 10.382813C9.1875 10.427344 9.1125 10.485937 8.917969 10.59375C8.777344 10.671094 8.625 10.804688 8.625 10.849219C8.625 10.863281 8.603906 10.884375 8.578125 10.898438C8.552344 10.9125 8.53125 10.935938 8.53125 10.952344C8.53125 10.96875 8.489062 11.013281 8.4375 11.053125C8.385938 11.090625 8.34375 11.132813 8.34375 11.144531C8.34375 11.158594 8.322656 11.182031 8.296875 11.198438C8.271094 11.214844 8.25 11.240625 8.25 11.257031C8.25 11.273438 8.228906 11.299219 8.203125 11.315625C8.177344 11.332031 8.15625 11.360156 8.15625 11.378906C8.15625 11.397656 8.135156 11.423437 8.109375 11.4375C8.083594 11.451563 8.0625 11.486719 8.0625 11.514844C8.0625 11.542969 8.041406 11.580469 8.015625 11.596875C7.989844 11.613281 7.96875 11.646094 7.96875 11.671875C7.96875 11.695313 7.947656 11.728125 7.921875 11.742188C7.896094 11.75625 7.875 11.789063 7.875 11.8125C7.875 11.838281 7.853906 11.871094 7.828125 11.8875C7.802344 11.903906 7.78125 11.939062 7.78125 11.964844C7.78125 11.990625 7.760156 12.030469 7.734375 12.053906C7.708594 12.075 7.6875 12.121875 7.6875 12.159375C7.6875 12.196875 7.666406 12.246094 7.640625 12.269531C7.614844 12.292969 7.59375 12.335156 7.59375 12.363281C7.59375 12.391406 7.572656 12.433594 7.546875 12.457031C7.51875 12.482813 7.5 12.529688 7.5 12.574219C7.5 12.61875 7.48125 12.665625 7.453125 12.691406C7.417969 12.724219 7.40625 12.764063 7.40625 12.860156C7.40625 12.9375 7.389844 13.017188 7.366406 13.061719C7.33125 13.125 7.324219 13.216406 7.317187 13.682813C7.310156 14.198438 7.3125 14.233594 7.357031 14.322656C7.389844 14.383594 7.40625 14.458594 7.40625 14.540625C7.40625 14.634375 7.417969 14.674219 7.453125 14.707031C7.485937 14.7375 7.5 14.779688 7.5 14.847656C7.5 14.913281 7.516406 14.964844 7.546875 15C7.579687 15.039844 7.59375 15.086719 7.59375 15.175781C7.59375 15.267187 7.605469 15.307031 7.640625 15.339844C7.675781 15.372656 7.6875 15.4125 7.6875 15.501562C7.6875 15.576563 7.70625 15.658594 7.734375 15.714844C7.7625 15.76875 7.78125 15.855469 7.78125 15.925781C7.783594 15.989063 7.797656 16.06875 7.816406 16.101563C7.860937 16.178906 7.860937 16.291406 7.816406 16.35C7.797656 16.373438 7.78125 16.422656 7.78125 16.457813C7.78125 16.497656 7.7625 16.530469 7.734375 16.546875C7.708594 16.560938 7.6875 16.584375 7.6875 16.596094C7.6875 16.661719 7.532812 16.741406 7.347656 16.774219C7.253906 16.788281 7.134375 16.842188 7.026563 16.914844C6.939844 16.973438 6.9375 16.978125 6.9375 17.121094C6.9375 17.259375 6.942187 17.273438 7.019531 17.341406C7.0875 17.4 7.125 17.414063 7.214063 17.416406C7.275 17.416406 7.996875 17.416406 8.821875 17.414063C10.44375 17.411719 10.361719 17.41875 10.523438 17.282812C10.614844 17.205469 10.811719 16.795313 10.865625 16.572656C10.926563 16.324219 10.935938 15.907031 10.886719 15.689062C10.785937 15.229687 10.645312 14.978906 10.211719 14.475C10.125 14.371875 9.923437 14.123438 9.764062 13.924219C9.192187 13.2 9.152344 13.108594 9.154687 12.539063C9.154687 12.157031 9.201562 11.8875 9.304687 11.655469C9.353906 11.542969 9.536719 11.275781 9.719531 11.048438L9.834375 10.905469L9.895312 10.954688C9.930469 10.980469 9.99375 11.029688 10.040625 11.0625C10.085156 11.095313 10.127344 11.139844 10.132031 11.160938C10.139062 11.184375 10.160156 11.203125 10.178906 11.203125C10.197656 11.203125 10.21875 11.224219 10.225781 11.25C10.232812 11.275781 10.253906 11.296875 10.275 11.296875C10.296094 11.296875 10.3125 11.310938 10.3125 11.325C10.3125 11.341406 10.3875 11.423438 10.478906 11.507813C10.570313 11.592188 10.89375 11.90625 11.198437 12.203906C11.503125 12.503906 11.770312 12.764063 11.789062 12.782813C11.807812 12.801563 11.955469 12.946875 12.114844 13.10625C12.274219 13.263281 12.923437 13.914844 13.560938 14.55C14.198438 15.185156 14.71875 15.714844 14.71875 15.726563C14.71875 15.738281 14.739844 15.754688 14.765625 15.761719C14.791406 15.76875 14.8125 15.796875 14.8125 15.820313C14.8125 15.846094 14.833594 15.876562 14.859375 15.890625C14.885156 15.904688 14.90625 15.930469 14.90625 15.949219C14.90625 15.970312 14.927344 16.003125 14.953125 16.024219C14.978906 16.047656 15 16.082813 15 16.103906C15 16.125 15.021094 16.160156 15.046875 16.183594C15.072656 16.207031 15.09375 16.242188 15.09375 16.263281C15.09375 16.284375 15.114844 16.314844 15.140625 16.33125C15.16875 16.347656 15.1875 16.385156 15.1875 16.427344C15.1875 16.4625 15.208594 16.516406 15.234375 16.546875C15.2625 16.577344 15.28125 16.633594 15.28125 16.680469C15.28125 16.727344 15.302344 16.788281 15.328125 16.821094C15.367969 16.872656 15.375 16.917188 15.375 17.111719C15.375 17.315625 15.382031 17.348438 15.421875 17.383594C15.447656 17.407031 15.46875 17.453906 15.46875 17.491406C15.46875 17.545313 15.485156 17.564063 15.569531 17.601563C15.792187 17.704688 15.902344 17.660156 16.225781 17.334375C16.654687 16.907813 16.882031 16.408594 16.947656 15.757031C16.975781 15.473438 16.942969 14.892188 16.889062 14.751563C16.870312 14.702344 16.8375 14.599219 16.81875 14.526563C16.797656 14.453906 16.727344 14.289844 16.661719 14.163281C16.511719 13.872656 16.4625 13.81875 15.152344 12.492188C14.573437 11.903906 14.592187 11.946094 14.596875 11.355469C14.599219 10.917188 14.603906 10.898438 14.782031 10.485938C14.953125 10.094531 15.35625 9.503906 15.499219 9.438281C15.576562 9.400781 15.590625 9.400781 15.684375 9.435938C15.834375 9.494531 15.84375 9.510938 15.846094 9.698438C15.848437 9.813281 15.8625 9.892969 15.892969 9.953906C15.916406 10.000781 15.9375 10.059375 15.9375 10.080469C15.9375 10.120313 16.078125 10.202344 16.2 10.230469C16.361719 10.270313 16.563281 10.089844 16.767187 9.719531C17.010937 9.278906 17.121094 8.845313 17.1 8.414063C17.092969 8.266406 17.071875 8.090625 17.053125 8.027344C16.945312 7.657031 16.9125 7.572656 16.816406 7.417969C16.689844 7.214063 16.483594 7.014844 16.216406 6.836719C15.996094 6.69375 15.560156 6.46875 15.328125 6.382031C14.9625 6.246094 14.71875 6.044531 14.575781 5.763281C14.517187 5.646094 14.507812 5.599219 14.507812 5.4375C14.507812 5.121094 14.439844 5.015625 14.23125 5.015625C14.116406 5.015625 14.085937 5.027344 14.003906 5.092969C13.863281 5.205469 13.6875 5.383594 13.6875 5.411719C13.6875 5.425781 13.666406 5.449219 13.640625 5.465625C13.614844 5.482031 13.59375 5.514844 13.59375 5.535938C13.59375 5.559375 13.572656 5.5875 13.546875 5.601563C13.521094 5.615625 13.5 5.646094 13.5 5.671875C13.5 5.697656 13.478906 5.728125 13.453125 5.742188C13.425 5.75625 13.40625 5.791406 13.40625 5.824219C13.40625 5.857031 13.3875 5.892188 13.359375 5.90625C13.328906 5.922656 13.3125 5.955469 13.3125 5.997656C13.3125 6.032813 13.291406 6.082031 13.265625 6.105469C13.2375 6.13125 13.21875 6.178125 13.21875 6.225C13.21875 6.278906 13.204687 6.311719 13.171875 6.328125C13.134375 6.349219 13.125 6.377344 13.125 6.471094C13.125 6.54375 13.10625 6.623438 13.075781 6.682031C13.033594 6.766406 13.028906 6.820313 13.028906 7.10625C13.028906 7.394531 13.033594 7.44375 13.075781 7.514063C13.103906 7.558594 13.125 7.621875 13.125 7.652344C13.125 7.685156 13.146094 7.720313 13.171875 7.734375C13.197656 7.748438 13.21875 7.778906 13.21875 7.804688C13.21875 7.830469 13.239844 7.860938 13.265625 7.875C13.291406 7.889063 13.3125 7.919531 13.3125 7.945313C13.3125 7.971094 13.333594 8.001563 13.359375 8.015625C13.385156 8.029688 13.40625 8.053125 13.40625 8.069531C13.40625 8.125781 13.689844 8.411719 13.846875 8.514844C14.015625 8.625 14.376562 8.805469 14.585156 8.882813C14.714062 8.932031 14.758594 8.967188 14.753906 9.011719C14.746875 9.086719 14.702344 9.161719 14.622656 9.236719C14.571094 9.283594 14.53125 9.330469 14.53125 9.342188C14.53125 9.353906 14.510156 9.377344 14.484375 9.39375C14.458594 9.410156 14.4375 9.442969 14.4375 9.46875C14.4375 9.494531 14.416406 9.527344 14.390625 9.54375C14.364844 9.560156 14.34375 9.597656 14.34375 9.625781C14.34375 9.653906 14.322656 9.689063 14.296875 9.703125C14.271094 9.717188 14.25 9.752344 14.25 9.782813C14.25 9.813281 14.228906 9.855469 14.203125 9.878906C14.177344 9.902344 14.15625 9.946875 14.15625 9.975C14.15625 10.005469 14.135156 10.042969 14.109375 10.059375C14.078906 10.080469 14.0625 10.115625 14.0625 10.164844C14.0625 10.216406 14.048437 10.249219 14.015625 10.265625C13.985156 10.282031 13.96875 10.314844 13.96875 10.357031C13.96875 10.392188 13.947656 10.441406 13.921875 10.464844C13.891406 10.492969 13.875 10.5375 13.875 10.591406C13.875 10.638281 13.853906 10.715625 13.828125 10.764844C13.802344 10.811719 13.78125 10.865625 13.78125 10.884375C13.78125 10.903125 13.764844 10.921875 13.746094 10.93125C13.727344 10.938281 13.710937 10.959375 13.710937 10.980469C13.710937 11.010938 13.701562 11.013281 13.664062 10.992188C13.617187 10.966406 10.420312 7.778906 9.61875 6.960938L9.196875 6.527344L9.039844 6.208594C8.873437 5.871094 8.847656 5.765625 8.817187 5.3625C8.803125 5.184375 8.79375 5.149219 8.739844 5.097656C8.657812 5.015625 8.496094 4.978125 8.355469 5.008594Z"/><path d="M5.414063 8.596875C5.336719 8.632031 5.25 8.730469 5.25 8.779688C5.25 8.810156 5.228906 8.845313 5.203125 8.859375C5.170312 8.875781 5.15625 8.908594 5.15625 8.957812C5.15625 9.002344 5.135156 9.053906 5.107031 9.084375C5.060156 9.133594 5.057813 9.164062 5.057813 9.480469C5.057813 9.789844 5.0625 9.829687 5.104688 9.874219C5.130469 9.902344 5.158594 9.949219 5.165625 9.977344C5.175 10.003125 5.196094 10.033594 5.214844 10.040625C5.233594 10.047656 5.25 10.064062 5.25 10.078125C5.25 10.092187 5.376563 10.230469 5.53125 10.3875C5.861719 10.722656 5.873437 10.753125 5.704688 10.872656C5.552344 10.982812 5.34375 11.191406 5.34375 11.235937C5.34375 11.254687 5.322656 11.282812 5.296875 11.296875C5.26875 11.310937 5.25 11.346094 5.25 11.378906C5.25 11.411719 5.23125 11.446875 5.203125 11.460937C5.170312 11.477344 5.15625 11.510156 5.15625 11.564062C5.15625 11.608594 5.135156 11.664844 5.109375 11.695312C5.067187 11.744531 5.0625 11.782031 5.0625 12.105469C5.0625 12.426563 5.067187 12.46875 5.109375 12.522656C5.135156 12.555469 5.15625 12.611719 5.15625 12.649219C5.15625 12.684375 5.177344 12.745312 5.203125 12.785156C5.240625 12.841406 5.25 12.895312 5.25 13.059375C5.25 13.253906 5.247656 13.263281 5.186719 13.307812C5.149219 13.33125 5.090625 13.364062 5.050781 13.380469C5.013281 13.394531 4.954688 13.429688 4.921875 13.453125L4.863281 13.5L4.919531 13.546875C4.971094 13.591406 5.008594 13.59375 5.625 13.59375C6.349219 13.59375 6.3 13.605469 6.39375 13.415625C6.5625 13.080469 6.485156 12.698437 6.178125 12.375C6.042188 12.229687 5.927344 12.079687 5.845313 11.941406C5.782031 11.833594 5.777344 11.807813 5.777344 11.589844C5.777344 11.371875 5.784375 11.346094 5.852344 11.214844C5.894531 11.1375 5.955469 11.04375 5.988281 11.00625L6.049219 10.938281L6.114844 11.001563C6.15 11.034375 6.192188 11.0625 6.208594 11.0625C6.24375 11.0625 6.375 11.189063 6.375 11.224219C6.375 11.261719 7.188281 12.070313 7.225781 12.070313C7.244531 12.070313 7.277344 12.025781 7.303125 11.969531C7.347656 11.871094 7.769531 11.221875 7.896094 11.055469C7.935938 11.00625 7.989844 10.896094 8.017969 10.809375C8.046094 10.722656 8.095313 10.610156 8.128125 10.558594C8.289844 10.300781 8.397656 10.225781 8.428125 10.347656C8.449219 10.429688 8.521875 10.422656 8.629688 10.328906L8.71875 10.253906L8.477344 10.003125C8.346094 9.867188 8.076563 9.583594 7.877344 9.377344C7.671094 9.161719 7.497656 9 7.474219 9C7.396875 9 7.378125 9.079687 7.392188 9.379687L7.403906 9.663281L7.516406 9.789844C7.577344 9.8625 7.678125 9.946875 7.736719 9.982031C7.999219 10.134375 7.994531 10.127344 7.978125 10.21875C7.961719 10.298437 7.879688 10.422656 7.814063 10.460156C7.795313 10.469531 7.78125 10.514063 7.78125 10.55625C7.78125 10.603125 7.7625 10.65 7.734375 10.675781C7.708594 10.699219 7.6875 10.741406 7.6875 10.769531C7.6875 10.8 7.673438 10.835156 7.654688 10.851563C7.635938 10.865625 7.617188 10.905469 7.6125 10.935938C7.605469 10.9875 7.488281 10.877344 6.717188 10.092188C6.229688 9.597656 5.810156 9.161719 5.786719 9.124219C5.739844 9.053906 5.632031 8.744531 5.620313 8.648438C5.615625 8.599219 5.599219 8.589844 5.53125 8.585156C5.486719 8.582813 5.432813 8.5875 5.414063 8.596875Z"/></svg>
