<svg xmlns="http://www.w3.org/2000/svg" width="24" height="24" viewBox="0 0 24 24"><path d="M16.40625 2.976563C16.3875 2.988281 16.352344 3 16.328906 3C16.265625 3 16.125 3.100781 16.125 3.145312C16.125 3.16875 16.103906 3.196875 16.078125 3.210938C16.047656 3.227344 16.03125 3.260156 16.03125 3.304688C16.03125 3.342187 16.014844 3.386719 15.996094 3.407813C15.977344 3.426563 15.960938 3.461719 15.960938 3.4875C15.960938 3.513281 15.977344 3.546094 15.996094 3.5625C16.014844 3.578906 16.03125 3.61875 16.03125 3.651563C16.03125 3.717188 16.164844 3.855469 16.263281 3.895313C16.296094 3.907031 16.40625 3.932813 16.507031 3.949219C16.696875 3.984375 16.875 4.064063 16.875 4.115625C16.875 4.134375 16.896094 4.157813 16.921875 4.171875C16.952344 4.188281 16.96875 4.221094 16.96875 4.260938C16.96875 4.298438 16.985156 4.347656 17.003906 4.373438C17.046094 4.429688 17.046094 4.5 17.003906 4.55625C16.985156 4.582031 16.96875 4.647656 16.96875 4.703906C16.96875 4.778906 16.957031 4.809375 16.921875 4.828125C16.891406 4.844531 16.875 4.877344 16.875 4.921875C16.875 4.966406 16.858594 4.999219 16.828125 5.015625C16.802344 5.029688 16.78125 5.053125 16.78125 5.067188C16.78125 5.097656 16.455469 5.414063 16.425 5.414063C16.415625 5.414063 16.40625 5.428125 16.40625 5.444531C16.40625 5.460938 16.385156 5.486719 16.359375 5.503125C16.258594 5.566406 16.338281 5.8125 16.4625 5.8125C16.528125 5.8125 16.952344 5.475 17.170313 5.247656C17.5875 4.809375 17.732813 4.44375 17.714063 3.871875C17.704688 3.576563 17.688281 3.525 17.545313 3.339844C17.360156 3.096094 17.273438 3.032813 17.085938 2.992969C16.926563 2.960156 16.446094 2.948438 16.40625 2.976563ZM8.282812 5.498437C8.233594 5.533594 8.165625 5.5875 8.132813 5.620312C8.1 5.650781 8.050781 5.692969 8.022656 5.711719C7.992188 5.732812 7.96875 5.758594 7.96875 5.775C7.96875 5.789062 7.947656 5.814844 7.921875 5.83125C7.896094 5.847656 7.875 5.871094 7.875 5.882812C7.875 5.896875 7.832812 5.946094 7.78125 5.997656C7.729688 6.046875 7.6875 6.105469 7.6875 6.124219C7.6875 6.145312 7.666406 6.173437 7.640625 6.1875C7.6125 6.201562 7.59375 6.236719 7.59375 6.269531C7.59375 6.302344 7.572656 6.339844 7.546875 6.35625C7.51875 6.375 7.5 6.4125 7.5 6.452344C7.5 6.4875 7.478906 6.534375 7.453125 6.555469C7.420313 6.583594 7.40625 6.625781 7.40625 6.69375C7.40625 6.759375 7.392187 6.801562 7.359375 6.832031C7.321875 6.864844 7.3125 6.904687 7.3125 7.019531C7.3125 7.115625 7.296094 7.202344 7.265625 7.267969C7.225781 7.357031 7.21875 7.422656 7.21875 7.722656C7.21875 8.034375 7.223437 8.08125 7.265625 8.144531C7.296094 8.189062 7.3125 8.254687 7.3125 8.322656C7.3125 8.4 7.326563 8.442187 7.359375 8.472656C7.389844 8.500781 7.40625 8.545312 7.40625 8.603906C7.40625 8.669531 7.417969 8.7 7.453125 8.71875C7.483594 8.735156 7.5 8.767969 7.5 8.8125C7.5 8.857031 7.516406 8.889844 7.546875 8.90625C7.572656 8.920312 7.59375 8.950781 7.59375 8.976562C7.59375 9.002344 7.614844 9.032812 7.640625 9.046875C7.666406 9.060937 7.6875 9.091406 7.6875 9.117187C7.6875 9.142969 7.708594 9.173437 7.734375 9.1875C7.760156 9.201562 7.78125 9.222656 7.78125 9.236719C7.78125 9.250781 7.905469 9.386719 8.057813 9.536719C8.210156 9.689062 8.341406 9.829687 8.350781 9.850781C8.357813 9.871875 8.38125 9.890625 8.402344 9.890625C8.421094 9.890625 8.4375 9.904687 8.4375 9.91875C8.4375 9.935156 8.5125 10.017187 8.603906 10.101562C8.866406 10.342969 9.09375 10.572656 9.09375 10.59375C9.09375 10.605469 9.114844 10.626562 9.140625 10.640625C9.175781 10.659375 9.1875 10.689844 9.1875 10.757812C9.1875 10.835156 9.175781 10.853906 9.103125 10.900781C9.05625 10.928906 8.990625 10.978125 8.957812 11.00625C8.925 11.036719 8.889844 11.0625 8.875781 11.0625C8.864062 11.0625 8.828906 11.085937 8.800781 11.114062C8.772656 11.144531 8.702344 11.2125 8.641406 11.266406C8.580469 11.320312 8.53125 11.371875 8.53125 11.378906C8.53125 11.383594 8.467969 11.453906 8.390625 11.528906C8.313281 11.60625 8.25 11.676562 8.25 11.688281C8.25 11.697656 8.228906 11.721094 8.203125 11.7375C8.177344 11.753906 8.15625 11.782031 8.15625 11.800781C8.15625 11.819531 8.135156 11.845312 8.109375 11.859375C8.083594 11.873437 8.0625 11.896875 8.0625 11.913281C8.0625 11.929687 8.041406 11.955469 8.015625 11.971875C7.989844 11.988281 7.96875 12.016406 7.96875 12.035156C7.96875 12.053906 7.947656 12.079687 7.921875 12.09375C7.896094 12.107812 7.875 12.142969 7.875 12.171094C7.875 12.199219 7.853906 12.236719 7.828125 12.253125C7.802344 12.269531 7.78125 12.302344 7.78125 12.328125C7.78125 12.351562 7.760156 12.384375 7.734375 12.398437C7.703906 12.414844 7.6875 12.447656 7.6875 12.492187C7.6875 12.536719 7.671094 12.569531 7.640625 12.585937C7.607813 12.602344 7.59375 12.635156 7.59375 12.689062C7.59375 12.735937 7.575 12.782812 7.546875 12.808594C7.514063 12.839062 7.5 12.88125 7.5 12.949219C7.5 13.017187 7.485937 13.059375 7.453125 13.089844C7.417969 13.122656 7.40625 13.1625 7.40625 13.253906C7.40625 13.326562 7.3875 13.420312 7.357031 13.485937C7.3125 13.589062 7.310156 13.63125 7.317187 14.175C7.324219 14.68125 7.328906 14.760937 7.366406 14.8125C7.392188 14.85 7.40625 14.913281 7.40625 15.007031C7.40625 15.110156 7.417969 15.159375 7.453125 15.203906C7.483594 15.24375 7.5 15.3 7.5 15.363281C7.5 15.43125 7.514063 15.473437 7.546875 15.503906C7.582031 15.534375 7.59375 15.576562 7.59375 15.65625C7.59375 15.735937 7.605469 15.778125 7.640625 15.808594C7.675781 15.839062 7.6875 15.88125 7.6875 15.960937C7.6875 16.040625 7.699219 16.082812 7.734375 16.113281C7.769531 16.14375 7.78125 16.185937 7.78125 16.275C7.783594 16.340625 7.797656 16.420312 7.816406 16.453125C7.860937 16.528125 7.858594 16.6875 7.816406 16.74375C7.797656 16.769531 7.78125 16.81875 7.78125 16.853906C7.78125 16.891406 7.753125 16.945312 7.715625 16.9875C7.642969 17.064844 7.469531 17.15625 7.396875 17.15625C7.335937 17.15625 7.209375 17.196094 7.061719 17.264062C6.963281 17.308594 6.9375 17.332031 6.9375 17.374219C6.9375 17.404687 6.916406 17.449219 6.890625 17.472656C6.864844 17.496094 6.84375 17.545313 6.84375 17.582813C6.84375 17.617969 6.864844 17.669531 6.890625 17.695313C6.916406 17.721094 6.9375 17.751562 6.9375 17.763281C6.9375 17.775 6.979687 17.800781 7.03125 17.821875C7.115625 17.854687 7.305469 17.859375 8.674219 17.859375C10.378125 17.859375 10.3125 17.864063 10.474219 17.711719C10.8 17.402344 10.973437 16.689844 10.863281 16.113281C10.774219 15.646875 10.565625 15.288281 10.113281 14.8125C9.717187 14.397656 9.353906 13.903125 9.257812 13.645313C9.15 13.361719 9.128906 13.242188 9.133594 12.925781C9.135937 12.590625 9.166406 12.433594 9.288281 12.140625C9.384375 11.90625 9.485156 11.7375 9.663281 11.510156L9.813281 11.322656L9.867187 11.378906C9.897656 11.411719 9.935156 11.4375 9.949219 11.4375C9.979687 11.4375 10.125 11.561719 10.125 11.589844C10.125 11.615625 11.017969 12.501562 11.095312 12.550781C11.128125 12.574219 11.15625 12.6 11.15625 12.611719C11.15625 12.6375 11.854687 13.335938 11.882812 13.335938C11.896875 13.335938 11.90625 13.347656 11.90625 13.361719C11.90625 13.389844 12.140625 13.621875 12.229687 13.680469C12.257813 13.701563 12.28125 13.727344 12.28125 13.741406C12.28125 13.767188 12.520313 14.001563 12.604687 14.057813C12.632813 14.076563 12.65625 14.1 12.65625 14.109375C12.65625 14.128125 13.038281 14.5125 13.305469 14.767969C13.366406 14.826563 13.460156 14.920313 13.511719 14.978906C13.563281 15.0375 13.645313 15.114844 13.692188 15.152344C13.741406 15.192188 13.78125 15.229688 13.78125 15.239063C13.78125 15.255469 13.849219 15.325781 14.053125 15.517969C14.116406 15.576563 14.210156 15.672656 14.261719 15.728906C14.313281 15.7875 14.395313 15.864844 14.442188 15.902344C14.491406 15.942188 14.53125 15.979688 14.53125 15.989063C14.53125 16.000781 14.615625 16.094531 14.71875 16.197656C14.821875 16.303125 14.90625 16.403906 14.90625 16.420313C14.90625 16.436719 14.927344 16.4625 14.953125 16.476563C14.978906 16.490625 15 16.521094 15 16.546875C15 16.572656 15.021094 16.603125 15.046875 16.617188C15.072656 16.63125 15.09375 16.664063 15.09375 16.6875C15.09375 16.713281 15.114844 16.746094 15.140625 16.7625C15.171094 16.78125 15.1875 16.81875 15.1875 16.865625C15.1875 16.907813 15.20625 16.954688 15.234375 16.980469C15.2625 17.00625 15.28125 17.053125 15.28125 17.097656C15.28125 17.139844 15.3 17.198438 15.325781 17.228906C15.35625 17.271094 15.372656 17.346094 15.384375 17.519531C15.39375 17.655469 15.414844 17.775 15.435938 17.805469C15.454687 17.833594 15.46875 17.878125 15.46875 17.903906C15.46875 17.983594 15.557812 18.023438 15.740625 18.023438C15.932813 18.023438 16.007813 17.98125 16.204687 17.763281C16.750781 17.160938 16.973437 16.532813 16.938281 15.703125C16.9125 15.126563 16.741406 14.674219 16.373437 14.214844C16.321875 14.149219 15.953906 13.769531 15.553125 13.371094C15.154687 12.970313 14.779687 12.585938 14.721094 12.515625L14.610937 12.384375L14.582812 12.058594C14.552344 11.749219 14.554687 11.716406 14.601562 11.484375C14.653125 11.221875 14.739844 10.938281 14.824219 10.74375C14.936719 10.490625 15.307031 9.991406 15.473437 9.869531C15.564844 9.801563 15.571875 9.801563 15.625781 9.836719C15.658594 9.857813 15.717187 9.892969 15.757031 9.914063C15.825 9.951563 15.832031 9.965625 15.84375 10.094531C15.850781 10.183594 15.869531 10.249219 15.897656 10.275C15.923437 10.303125 15.9375 10.352344 15.9375 10.427344C15.9375 10.525781 15.946875 10.549219 16.0125 10.603125C16.122656 10.692188 16.260937 10.6875 16.399219 10.589063C16.530469 10.495313 16.717969 10.216406 16.872656 9.888281C17.228906 9.133594 17.172656 8.353125 16.713281 7.729688C16.525781 7.478906 16.279688 7.3125 15.571875 6.963281L14.9625 6.660938L14.784375 6.471094C14.627344 6.302344 14.601563 6.260156 14.557031 6.110156C14.53125 6.01875 14.498437 5.8875 14.486719 5.821875C14.453906 5.646094 14.395312 5.542969 14.299219 5.489063C14.224219 5.446875 14.203125 5.444531 14.109375 5.470313C13.999219 5.498438 13.78125 5.639063 13.78125 5.683594C13.78125 5.695313 13.760156 5.721094 13.734375 5.7375C13.708594 5.753906 13.6875 5.782031 13.6875 5.800781C13.6875 5.819531 13.666406 5.845313 13.640625 5.859375C13.614844 5.873438 13.59375 5.903906 13.59375 5.929688C13.59375 5.955469 13.572656 5.985938 13.546875 6C13.521094 6.014063 13.5 6.049219 13.5 6.077344C13.5 6.105469 13.478906 6.142969 13.453125 6.159375C13.427344 6.175781 13.40625 6.208594 13.40625 6.234375C13.40625 6.257813 13.385156 6.290625 13.359375 6.304688C13.328906 6.321094 13.3125 6.353906 13.3125 6.398438C13.3125 6.442969 13.296094 6.475781 13.265625 6.492188C13.232812 6.510938 13.21875 6.541406 13.21875 6.597656C13.21875 6.653906 13.204687 6.684375 13.171875 6.703125C13.134375 6.721875 13.125 6.752344 13.125 6.841406C13.125 6.923438 13.113281 6.965625 13.078125 6.996094C13.045312 7.024219 13.03125 7.06875 13.03125 7.134375C13.03125 7.185938 13.014844 7.272656 12.99375 7.326563C12.958594 7.417969 12.958594 7.436719 12.99375 7.553906C13.014844 7.624219 13.03125 7.720313 13.03125 7.764844C13.03125 7.811719 13.05 7.867969 13.078125 7.898438C13.103906 7.928906 13.125 7.985156 13.125 8.029688C13.125 8.083594 13.139062 8.116406 13.171875 8.132813C13.197656 8.146875 13.21875 8.177344 13.21875 8.200781C13.21875 8.224219 13.239844 8.261719 13.265625 8.285156C13.291406 8.308594 13.3125 8.341406 13.3125 8.357813C13.3125 8.376563 13.333594 8.402344 13.359375 8.41875C13.385156 8.435156 13.40625 8.463281 13.40625 8.479688C13.40625 8.5125 13.600781 8.711719 13.760156 8.842969C13.907812 8.964844 14.189062 9.133594 14.453906 9.260156C14.702344 9.379688 14.71875 9.391406 14.71875 9.457031C14.71875 9.510938 14.695312 9.548438 14.625 9.609375C14.573437 9.653906 14.53125 9.703125 14.53125 9.719531C14.53125 9.735938 14.510156 9.759375 14.484375 9.773438C14.458594 9.7875 14.4375 9.817969 14.4375 9.841406C14.4375 9.864844 14.416406 9.902344 14.390625 9.925781C14.364844 9.949219 14.34375 9.986719 14.34375 10.007813C14.34375 10.028906 14.322656 10.066406 14.296875 10.089844C14.271094 10.113281 14.25 10.155469 14.25 10.185938C14.25 10.216406 14.228906 10.251563 14.203125 10.265625C14.177344 10.279688 14.15625 10.310156 14.15625 10.335938C14.15625 10.361719 14.135156 10.392188 14.109375 10.40625C14.076562 10.422656 14.0625 10.455469 14.0625 10.507031C14.0625 10.55625 14.046094 10.591406 14.015625 10.6125C13.9875 10.628906 13.96875 10.666406 13.96875 10.708594C13.96875 10.74375 13.947656 10.792969 13.921875 10.816406C13.891406 10.844531 13.875 10.889063 13.875 10.942969C13.875 10.989844 13.853906 11.057813 13.828125 11.097656C13.8 11.139844 13.78125 11.207813 13.78125 11.264063C13.78125 11.322656 13.767187 11.374219 13.746094 11.390625C13.727344 11.407031 13.710937 11.435156 13.710937 11.453906C13.710937 11.477344 13.675781 11.458594 13.6125 11.402344C13.434375 11.245313 9.485156 7.314844 9.363281 7.174219C9.196875 6.982031 8.950781 6.475781 8.847656 6.117188C8.803125 5.960156 8.765625 5.807813 8.765625 5.777344C8.765625 5.688281 8.68125 5.519531 8.617969 5.477344C8.526562 5.41875 8.390625 5.425781 8.282812 5.498438ZM11.088281 18.658594C10.973438 18.728906 10.875 18.832031 10.875 18.883594C10.875 18.909375 10.858594 18.949219 10.839844 18.975C10.797656 19.03125 10.795313 19.190625 10.839844 19.265625C10.858594 19.298437 10.872656 19.357031 10.875 19.396875C10.875 19.455469 10.89375 19.483594 10.964063 19.530469C11.085938 19.614844 11.163281 19.640625 11.301562 19.640625C11.615625 19.640625 11.857031 19.338281 11.800781 19.0125C11.777344 18.874219 11.667188 18.7125 11.557031 18.65625C11.425781 18.590625 11.198438 18.590625 11.088281 18.658594ZM12.578906 18.682031C12.517969 18.721875 12.46875 18.76875 12.46875 18.7875C12.46875 18.803906 12.447656 18.829687 12.421875 18.84375C12.379688 18.867188 12.375 18.892969 12.375 19.136719C12.375 19.380469 12.379688 19.40625 12.421875 19.429688C12.447656 19.44375 12.46875 19.467188 12.46875 19.483594C12.46875 19.525781 12.61875 19.614844 12.738281 19.640625C12.9375 19.685156 13.160156 19.589062 13.282031 19.401562C13.333594 19.324219 13.347656 19.272656 13.354688 19.139062C13.364063 18.923437 13.303125 18.794531 13.139063 18.684375C13.038281 18.616406 13.007813 18.609375 12.857813 18.609375C12.707813 18.609375 12.675 18.61875 12.578906 18.682031ZM12.023438 19.992188C12.004688 20.003906 11.9625 20.015625 11.932031 20.015625C11.852344 20.015625 11.71875 20.104687 11.71875 20.15625C11.71875 20.179688 11.695313 20.217188 11.669531 20.235937C11.622656 20.26875 11.617969 20.292187 11.617969 20.507813C11.620313 20.723438 11.625 20.749219 11.669531 20.779688C11.695313 20.798437 11.71875 20.828906 11.71875 20.845312C11.71875 20.901562 11.932031 20.988281 12.072656 20.988281C12.234375 20.988281 12.396094 20.896875 12.501562 20.749219C12.621094 20.578125 12.611719 20.317969 12.478125 20.142187C12.382031 20.010937 12.124219 19.926562 12.023438 19.992188Z"/></svg>
