<svg xmlns="http://www.w3.org/2000/svg" width="24" height="24" viewBox="0 0 24 24"><path d="M3.754233 3.688422C3.847709 3.632336 3.934953 3.610525 4.06582 3.607409C4.38987 3.601178 4.555011 3.747623 4.555011 4.037399C4.558127 4.364565 4.632907 4.769628 4.717036 4.916074C4.760658 4.990855 4.81986 5.127953 4.847902 5.218313C4.879061 5.308673 4.953842 5.455119 5.013043 5.545479C5.075361 5.632723 6.352867 6.941388 7.854715 8.446352C11.020437 11.624537 11.036016 11.640117 11.036016 11.552873C11.036016 11.534178 11.079638 11.450049 11.129493 11.369037C11.19181 11.266212 11.222968 11.175853 11.222968 11.091724C11.222968 11.007596 11.241664 10.948394 11.285286 10.911004C11.31956 10.879846 11.347603 10.814412 11.347603 10.767673C11.347603 10.711588 11.369414 10.667966 11.409921 10.646155C11.450427 10.624344 11.472238 10.580722 11.472238 10.524636C11.472238 10.477899 11.50028 10.412465 11.534555 10.381307C11.56883 10.350147 11.596872 10.28783 11.596872 10.244208C11.596872 10.19747 11.621799 10.147616 11.65919 10.122689C11.693464 10.100878 11.721507 10.051024 11.721507 10.007402C11.721507 9.96378 11.746434 9.917042 11.783825 9.898347C11.824331 9.876535 11.846142 9.832913 11.846142 9.773712C11.846142 9.714511 11.867953 9.670888 11.90846 9.649077C11.942734 9.630383 11.970777 9.589876 11.970777 9.555601C11.970777 9.521327 11.998819 9.480821 12.033094 9.462125C12.067369 9.44343 12.095411 9.399808 12.095411 9.368649C12.095411 9.334374 12.107875 9.306332 12.123454 9.306332C12.176424 9.306332 12.469316 8.988513 12.469316 8.932427C12.469316 8.863878 12.335333 8.785982 12.070484 8.698737C11.867953 8.633305 11.497165 8.440121 11.222968 8.2594C11.020437 8.125418 10.724429 7.841874 10.724429 7.779557C10.724429 7.763977 10.696386 7.735934 10.662112 7.717239C10.627837 7.698544 10.599794 7.664269 10.599794 7.642458C10.599794 7.620647 10.571752 7.577025 10.537477 7.545866C10.503202 7.514708 10.47516 7.471086 10.47516 7.449275C10.47516 7.424347 10.447117 7.390073 10.412843 7.368262C10.375452 7.343335 10.350525 7.293481 10.350525 7.243627C10.350525 7.190658 10.325599 7.147035 10.288208 7.125224C10.238354 7.097181 10.22589 7.059791 10.22589 6.928925C10.22589 6.819869 10.20408 6.735741 10.163573 6.673423C10.082561 6.551905 10.082561 6.318214 10.163573 6.081409C10.200964 5.975469 10.22589 5.819675 10.22589 5.707504C10.22589 5.554827 10.238354 5.501857 10.288208 5.458235C10.325599 5.42396 10.350525 5.361643 10.350525 5.302442C10.350525 5.24324 10.375452 5.180923 10.412843 5.146648C10.450233 5.112373 10.47516 5.050056 10.47516 4.987739C10.47516 4.916074 10.493855 4.872452 10.537477 4.850641C10.571752 4.831945 10.599794 4.791439 10.599794 4.760281C10.599794 4.729122 10.627837 4.679268 10.662112 4.648109C10.696386 4.616951 10.724429 4.573328 10.724429 4.551517C10.724429 4.529706 10.752472 4.495432 10.786747 4.476737C10.821021 4.458041 10.849064 4.423767 10.849064 4.39884C10.849064 4.373913 10.877107 4.336523 10.911382 4.314712C10.945656 4.2929 10.973699 4.258626 10.973699 4.236814C10.973699 4.215003 11.001741 4.183845 11.036016 4.16515C11.070291 4.146454 11.098333 4.118412 11.098333 4.099717C11.098333 4.052979 11.409921 3.744508 11.534555 3.669727C11.599988 3.632336 11.69658 3.604293 11.771361 3.604293C12.008167 3.604293 12.095411 3.756971 12.095411 4.168265C12.095411 4.458041 12.154613 4.613835 12.347796 4.835061C12.650036 5.174691 12.787134 5.271283 13.217124 5.442656C14.426081 5.922499 15.167657 6.530094 15.345262 7.187541C15.373304 7.281018 15.420043 7.436811 15.454317 7.530287C15.494823 7.642458 15.522866 7.829411 15.538445 8.075564C15.554025 8.393382 15.547793 8.499322 15.491708 8.776634C15.454317 8.957355 15.398232 9.166118 15.360841 9.244015C15.326567 9.321911 15.273597 9.459009 15.239323 9.54937C15.208163 9.639729 15.155193 9.751901 15.124035 9.798639C15.092876 9.845377 15.049254 9.923274 15.027443 9.976243C15.008748 10.026097 14.918387 10.16008 14.828028 10.269135C14.62238 10.521521 14.500861 10.574491 14.282751 10.499709C14.201738 10.474782 14.098914 10.424929 14.052176 10.390654C13.968048 10.334568 13.964932 10.318989 13.964932 10.072835C13.964932 9.867188 13.952469 9.798639 13.90573 9.739437C13.874572 9.698931 13.843413 9.639729 13.837182 9.605455C13.827834 9.57118 13.768633 9.524443 13.681388 9.490168C13.538058 9.437199 13.534943 9.437199 13.410308 9.4964C13.338643 9.530674 13.235819 9.617919 13.176618 9.689584C12.911769 10.016749 12.450621 10.798833 12.279247 11.22259C12.182655 11.462512 12.17954 11.490555 12.173308 11.95482C12.167076 12.372346 12.173308 12.465822 12.23251 12.652774L12.297943 12.870885L13.534943 14.145275C14.285867 14.921126 14.790637 15.466403 14.821795 15.534952C14.846723 15.597269 14.893461 15.68763 14.921504 15.7406C15.05237 15.977406 15.130267 16.158125 15.167657 16.301455C15.189468 16.385584 15.229975 16.519566 15.261133 16.597464C15.30164 16.712749 15.314103 16.865427 15.317219 17.423168C15.320334 18.046341 15.314103 18.133585 15.24867 18.389088C15.145846 18.787918 15.080413 18.956175 14.884113 19.314499C14.712741 19.632318 14.56941 19.794344 14.055292 20.252377C13.890151 20.401937 13.88392 20.405054 13.715663 20.389475C13.475741 20.367662 13.341759 20.28665 13.341759 20.162016C13.341759 20.109047 13.323064 20.046728 13.298137 20.028034C13.266977 20.003107 13.245167 19.884703 13.232703 19.647898C13.214008 19.383049 13.195312 19.292688 13.15169 19.242834C13.117416 19.202328 13.092489 19.127548 13.092489 19.058998C13.092489 18.984219 13.070678 18.925016 13.030171 18.887627C12.995897 18.856466 12.967854 18.797266 12.967854 18.759874C12.967854 18.71937 12.939812 18.669516 12.905537 18.647703C12.871263 18.625893 12.84322 18.579155 12.84322 18.54488C12.84322 18.510607 12.815177 18.457636 12.780902 18.426477C12.746628 18.398434 12.718585 18.348581 12.718585 18.317423C12.718585 18.283148 12.690542 18.233294 12.656267 18.202135C12.621993 18.170977 12.59395 18.127354 12.59395 18.105543C12.59395 18.080616 12.565907 18.046341 12.531633 18.02453C12.497358 18.00272 12.469316 17.974676 12.469316 17.962214C12.469316 17.940401 8.375065 13.843036 8.125795 13.615578C8.047899 13.543912 7.982466 13.469131 7.982466 13.450437C7.982466 13.434857 7.970002 13.419277 7.954423 13.419277C7.92638 13.419277 7.483927 12.992404 7.483927 12.964361C7.483927 12.94255 7.306323 12.764945 7.284511 12.764945C7.275164 12.764945 7.106907 12.606036 6.910607 12.412852C6.178378 11.696202 5.835633 11.403311 5.810706 11.474976C5.798242 11.512366 5.735925 11.59961 5.436801 11.995326C5.153257 12.372346 5.131446 12.415968 5.031739 12.817915C4.960074 13.107691 4.950726 13.222978 4.94761 13.637388C4.94761 14.304184 4.991232 14.444398 5.349557 14.902431C5.492887 15.089383 5.729693 15.394738 5.876139 15.584805C6.019469 15.771758 6.212653 16.011681 6.303013 16.114504C6.764161 16.628622 6.982272 16.965136 7.13495 17.39201C7.224045 17.638237 7.265136 17.745504 7.284056 17.85655C7.300248 17.951588 7.3002 18.049395 7.300106 18.239454L7.300091 18.286263C7.300091 18.828424 7.265816 19.009144 7.091328 19.370584C7.013431 19.53261 6.932418 19.700867 6.913723 19.741373C6.891912 19.784996 6.801552 19.878471 6.711192 19.953253L6.546051 20.087234H4.396101C2.97215 20.087234 2.224342 20.074772 2.183836 20.056076C2.152677 20.03738 2.124634 20.006222 2.124634 19.984411C2.124634 19.962601 2.096591 19.928326 2.062317 19.906515C2.012463 19.875357 1.999999 19.83485 1.999999 19.710215C1.999999 19.566885 2.012463 19.538843 2.105939 19.451597C2.21811 19.345659 2.373903 19.277109 2.654331 19.214792C2.819473 19.177402 2.997077 19.065229 2.997077 18.999798C2.997077 18.981102 3.02512 18.953058 3.059394 18.934364C3.0999 18.912552 3.121712 18.868931 3.121712 18.81596C3.121712 18.766108 3.143523 18.700674 3.16845 18.666399C3.224535 18.591618 3.227651 18.48568 3.16845 18.326769C3.143523 18.258221 3.124828 18.124239 3.121712 18.030762C3.121712 17.921707 3.103016 17.831347 3.068742 17.784609C3.037583 17.737871 3.012656 17.622583 3.003309 17.479254C2.990845 17.295418 2.978382 17.242447 2.931644 17.21752C2.884906 17.195709 2.872442 17.152088 2.872442 17.0368C2.872442 16.927746 2.856863 16.871658 2.810125 16.831154C2.766503 16.793762 2.747808 16.734562 2.747808 16.647316C2.747808 16.572536 2.722881 16.482176 2.68549 16.42609C2.638752 16.35754 2.623173 16.279644 2.623173 16.130083C2.623173 15.986753 2.607594 15.902624 2.570203 15.849654C2.48919 15.737483 2.492306 14.650045 2.570203 14.466209C2.598246 14.400776 2.623173 14.266793 2.623173 14.167086C2.623173 14.033104 2.638752 13.970786 2.68549 13.917816C2.719765 13.87731 2.747808 13.802529 2.747808 13.740211C2.747808 13.674779 2.769619 13.615578 2.810125 13.584418C2.850631 13.547029 2.872442 13.490943 2.872442 13.413046C2.872442 13.328918 2.888021 13.288411 2.93476 13.263484C2.978382 13.238557 2.997077 13.19805 2.997077 13.12327C2.997077 13.04849 3.015772 13.007983 3.059394 12.983056C3.096785 12.964361 3.121712 12.917623 3.121712 12.874001C3.121712 12.830379 3.146639 12.783641 3.184029 12.764945C3.221419 12.74625 3.246346 12.699512 3.246346 12.65589C3.246346 12.612267 3.271273 12.56553 3.308664 12.546835C3.342938 12.528139 3.370981 12.487633 3.370981 12.453359C3.370981 12.419084 3.399024 12.378577 3.433298 12.359882C3.467573 12.341187 3.495616 12.306912 3.495616 12.281985C3.495616 12.257059 3.523659 12.222784 3.557933 12.204089C3.592208 12.185394 3.62025 12.151119 3.62025 12.126192C3.62025 12.101265 3.648293 12.063875 3.682568 12.042064C3.716842 12.020253 3.744885 11.982862 3.744885 11.961051C3.744885 11.93924 3.829014 11.836416 3.931837 11.733593C4.034661 11.633885 4.118789 11.540409 4.118789 11.531061C4.118789 11.503018 4.274583 11.356573 4.430376 11.241286C4.508273 11.182084 4.58617 11.113535 4.607981 11.088609C4.626676 11.063682 4.738847 10.979553 4.854134 10.89854C5.00788 10.791984 5.086514 10.740459 5.092217 10.68184C5.097918 10.623248 5.030756 10.557568 4.892909 10.422761C4.886374 10.41637 4.879682 10.409825 4.872829 10.403117C4.732615 10.266019 4.617328 10.141384 4.617328 10.125805C4.617328 10.113341 4.589285 10.082183 4.555011 10.060372C4.520736 10.038561 4.492693 10.00117 4.492693 9.976243C4.492693 9.951317 4.48023 9.929505 4.464651 9.929505C4.436608 9.929505 3.994155 9.502631 3.994155 9.474588C3.994155 9.465241 3.797855 9.26271 3.557933 9.025904C3.318011 8.789098 3.121712 8.570987 3.121712 8.54606C3.121712 8.521133 3.093669 8.483743 3.059394 8.465048C3.02512 8.446352 2.997077 8.405846 2.997077 8.371572C2.997077 8.337296 2.969034 8.296791 2.93476 8.278095C2.900485 8.2594 2.872442 8.212662 2.872442 8.175272C2.872442 8.137881 2.844399 8.088027 2.810125 8.066216C2.766503 8.041289 2.747808 7.994552 2.747808 7.922886C2.747808 7.860569 2.722881 7.798252 2.68549 7.763977C2.644984 7.726587 2.623173 7.667385 2.623173 7.598836C2.623173 7.536519 2.598246 7.461738 2.570203 7.427464C2.526581 7.383842 2.507886 7.281018 2.48919 7.019285C2.458032 6.601758 2.458032 6.558136 2.48919 6.081409C2.507886 5.807212 2.529697 5.685693 2.570203 5.629608C2.601362 5.585986 2.623173 5.495625 2.623173 5.420845C2.623173 5.321136 2.638752 5.280631 2.68549 5.255703C2.732228 5.230776 2.747808 5.19027 2.747808 5.09991C2.747808 5.00955 2.763387 4.969044 2.810125 4.944117C2.850631 4.922306 2.872442 4.878684 2.872442 4.819482C2.872442 4.760281 2.894253 4.713542 2.93476 4.688615C2.969034 4.666804 2.997077 4.623182 2.997077 4.59514C2.997077 4.563981 3.02512 4.523475 3.059394 4.501663C3.093669 4.479852 3.121712 4.439346 3.121712 4.414419C3.121712 4.389492 3.149755 4.348986 3.184029 4.327175C3.218304 4.305364 3.246346 4.267973 3.246346 4.243046C3.246346 4.21812 3.274389 4.183845 3.308664 4.16515C3.342938 4.146454 3.370981 4.118412 3.370981 4.102832C3.370981 4.087253 3.427067 4.015588 3.495616 3.947039C3.564165 3.87849 3.62025 3.806825 3.62025 3.791245C3.62025 3.775666 3.679452 3.728928 3.754233 3.688422ZM18.186934 9.935738C18.311567 9.895231 19.589073 9.888999 19.71994 9.929505C19.776026 9.945085 19.875734 9.976243 19.941168 9.994939C20.003485 10.013634 20.2029 10.100878 20.380505 10.188123C20.636005 10.312757 20.751293 10.390654 20.913319 10.549563C21.234253 10.870498 21.474174 11.322298 21.60504 11.855112C21.704748 12.253942 21.701632 13.067184 21.598808 13.466016C21.280991 14.727942 20.688974 15.665818 19.32111 17.083538C18.987711 17.426283 18.53591 17.881201 18.314684 18.096195L17.912737 18.482563L18.049835 18.510607C18.239902 18.551111 20.514486 18.54488 20.729481 18.504374C20.826073 18.488794 20.966288 18.445173 21.041069 18.410898C21.178167 18.348581 21.443016 18.118006 21.443016 18.06192C21.443016 18.046341 21.471058 18.018299 21.505333 17.999603C21.539608 17.980907 21.56765 17.946634 21.56765 17.924822C21.56765 17.843809 21.776413 17.79084 21.935322 17.831347C22.022566 17.856274 22.022566 17.878084 21.92909 18.192787C21.888584 18.336117 21.804457 18.703789 21.739023 19.009144C21.608156 19.644781 21.53026 19.878471 21.408741 19.99999L21.324612 20.087234H16.117996L16.052565 19.937674C15.990247 19.800575 15.98713 19.784996 16.033869 19.703983C16.061911 19.654129 16.083723 19.588696 16.083723 19.554422C16.083723 19.523262 16.111765 19.479641 16.14604 19.45783C16.180315 19.436018 16.208357 19.392397 16.208357 19.364353C16.208357 19.333195 16.236401 19.295805 16.270674 19.277109C16.304949 19.258413 16.332993 19.227255 16.332993 19.205444C16.332993 19.183634 16.389078 19.1182 16.457626 19.058998C16.526176 18.999798 16.582262 18.940596 16.582262 18.928133C16.582262 18.915668 16.638348 18.84712 16.706896 18.77857C16.775446 18.710022 16.831532 18.638357 16.831532 18.622778C16.831532 18.607197 16.859573 18.579155 16.893848 18.560459C16.928123 18.541765 16.956165 18.50749 16.956165 18.482563C16.956165 18.457636 16.984209 18.420246 17.018482 18.398434C17.052757 18.376623 17.080801 18.336117 17.080801 18.31119C17.080801 18.286263 17.108843 18.245756 17.143118 18.223946C17.177393 18.202135 17.205435 18.164745 17.205435 18.139818C17.205435 18.114891 17.233479 18.080616 17.267752 18.06192C17.302027 18.043226 17.33007 18.008951 17.33007 17.984024C17.33007 17.959097 17.358112 17.921707 17.392387 17.899897C17.426662 17.878084 17.454704 17.843809 17.454704 17.821999C17.454704 17.800188 17.482748 17.76903 17.517021 17.750334C17.551296 17.731638 17.57934 17.70048 17.57934 17.678669C17.57934 17.656858 17.607382 17.622583 17.641657 17.600773C17.67593 17.57896 17.703974 17.541571 17.703974 17.516644C17.703974 17.491716 17.732016 17.457443 17.766291 17.438747C17.800566 17.420052 17.828608 17.385778 17.828608 17.360851C17.828608 17.335924 17.856651 17.298532 17.890926 17.276722C17.9252 17.254911 17.953243 17.220636 17.953243 17.198826C17.953243 17.177013 17.981285 17.145855 18.01556 17.127161C18.049835 17.108465 18.077877 17.067959 18.077877 17.033684C18.077877 16.999411 18.105921 16.958904 18.140196 16.940208C18.174469 16.921513 18.202513 16.881006 18.202513 16.846733C18.202513 16.812458 18.230555 16.771952 18.26483 16.753256C18.299105 16.734562 18.327147 16.700287 18.327147 16.67536C18.327147 16.650433 18.35519 16.616158 18.389465 16.597464C18.423738 16.578768 18.451782 16.544493 18.451782 16.519566C18.451782 16.494638 18.479824 16.460365 18.514099 16.441669C18.548374 16.422974 18.576416 16.382467 18.576416 16.348194C18.576416 16.313919 18.60446 16.273413 18.638735 16.254717C18.676125 16.236023 18.701052 16.189283 18.701052 16.145662C18.701052 16.102039 18.729094 16.052185 18.763369 16.030375C18.797644 16.008564 18.825686 15.968058 18.825686 15.940015C18.825686 15.911972 18.853729 15.865234 18.888004 15.834075C18.922277 15.802917 18.950321 15.753062 18.950321 15.725019C18.950321 15.696977 18.978363 15.647123 19.012638 15.615965C19.046913 15.584805 19.074955 15.52872 19.074955 15.488214C19.074955 15.447707 19.102999 15.40097 19.137274 15.382275C19.174664 15.363579 19.199591 15.316841 19.199591 15.273219C19.199591 15.229597 19.227633 15.179743 19.261908 15.157932C19.302414 15.129889 19.324224 15.083151 19.324224 15.017717C19.324224 14.949169 19.34292 14.905546 19.386543 14.883736C19.42705 14.861924 19.44886 14.818302 19.44886 14.762217C19.44886 14.715479 19.476902 14.650045 19.511177 14.618887C19.548567 14.584612 19.573494 14.522295 19.573494 14.466209C19.573494 14.407008 19.598421 14.347806 19.635813 14.313532C19.68255 14.273026 19.69813 14.223171 19.69813 14.098536C19.69813 13.989481 19.716824 13.917816 19.754215 13.87731C19.844576 13.777602 19.881966 13.120154 19.838343 12.428432C19.819649 12.132424 19.807184 12.073222 19.75733 12.045179C19.716824 12.023369 19.69813 11.979747 19.69813 11.898734C19.69813 11.820837 19.676319 11.764751 19.635813 11.727362C19.601538 11.699319 19.573494 11.646349 19.573494 11.612074C19.573494 11.512366 19.212053 11.178968 18.993942 11.076145C18.794527 10.982669 18.448666 10.895425 18.267946 10.895425C18.118383 10.895425 17.78187 10.982669 17.588686 11.069913C17.236593 11.23817 16.996672 11.503018 16.741171 12.00779C16.669506 12.151119 16.607189 12.266406 16.600956 12.266406C16.591608 12.266406 16.501249 12.229016 16.398424 12.185394C16.223936 12.110613 16.208357 12.095034 16.208357 12.004674C16.208357 11.942356 16.230167 11.892502 16.270674 11.867576C16.317413 11.839533 16.332993 11.79591 16.332993 11.689971C16.332993 11.584031 16.348572 11.543525 16.395309 11.518599C16.435816 11.496787 16.457626 11.453165 16.457626 11.393964C16.457626 11.334762 16.479437 11.29114 16.519943 11.269329C16.56045 11.247518 16.582262 11.203896 16.582262 11.144694C16.582262 11.085492 16.604073 11.04187 16.644579 11.02006C16.678854 11.001364 16.706896 10.960857 16.706896 10.926583C16.706896 10.892308 16.73494 10.851802 16.769213 10.833107C16.803488 10.814412 16.831532 10.780137 16.831532 10.755211C16.831532 10.733399 16.859573 10.702241 16.893848 10.692893C16.928123 10.683545 16.956165 10.658619 16.956165 10.639923C16.956165 10.524636 17.63854 10.097762 17.984402 9.998055C18.043604 9.97936 18.137079 9.951317 18.186934 9.935738Z"/></svg>
