<svg xmlns="http://www.w3.org/2000/svg" viewBox="0 0 24 24" width="24" height="24"><path fill="currentColor" d="M 8.4140625,5.43046875 c -0.075,0.0140625 -0.17578125,0.084375 -0.3,0.2109375 c -0.05625,0.05625 -0.1125,0.10078125 -0.12421875,0.10078125 s -0.02109375,0.01640625 -0.02109375,0.03515625 s -0.02109375,0.046875 -0.046875,0.06328125 s -0.046875,0.0421875 -0.046875,0.05859375 s -0.02109375,0.03984375 -0.046875,0.05390625 s -0.046875,0.03984375 -0.046875,0.05859375 s -0.02109375,0.04453125 -0.046875,0.05859375 s -0.046875,0.0421875 -0.046875,0.065625 c 0,0.02109375 -0.02109375,0.05390625 -0.046875,0.0703125 s -0.046875,0.05390625 -0.046875,0.08671875 s -0.01875,0.06796875 -0.046875,0.08203125 c -0.03046875,0.01640625 -0.046875,0.04921875 -0.046875,0.09375 s -0.01640625,0.07734375 -0.046875,0.09375 c -0.03515625,0.01875 -0.046875,0.04921875 -0.046875,0.1265625 c 0,0.0703125 -0.0140625,0.1125 -0.046875,0.14296875 c -0.03515625,0.0328125 -0.046875,0.07265625 -0.046875,0.1734375 c 0,0.09140625 -0.0140625,0.15234375 -0.046875,0.2015625 c -0.0421875,0.06328125 -0.046875,0.11015625 -0.046875,0.49921875 c 0,0.39609375 0.0046875,0.4359375 0.046875,0.48984375 c 0.03046875,0.03984375 0.046875,0.09609375 0.046875,0.159375 c 0,0.06796875 0.0140625,0.11015625 0.046875,0.140625 c 0.028125,0.02578125 0.046875,0.07265625 0.046875,0.11953125 c 0,0.05390625 0.0140625,0.08671875 0.046875,0.103125 c 0.03046875,0.01640625 0.046875,0.04921875 0.046875,0.09375 s 0.01640625,0.07734375 0.046875,0.09375 c 0.02578125,0.0140625 0.046875,0.04453125 0.046875,0.06796875 s 0.02109375,0.0609375 0.046875,0.084375 s 0.046875,0.05625 0.046875,0.07265625 s 0.02109375,0.0421875 0.046875,0.05625 s 0.046875,0.0375 0.046875,0.05390625 c 0,0.02578125 0.1078125,0.13359375 0.37265625,0.37265625 c 0.0515625,0.04921875 0.09609375,0.0984375 0.09609375,0.1125 c 0,0.01171875 0.02109375,0.03515625 0.046875,0.0515625 s 0.046875,0.03984375 0.046875,0.05390625 c 0.00234375,0.01171875 0.0984375,0.1125 0.215625,0.22265625 c 0.31171875,0.28828125 0.534375,0.51328125 0.534375,0.5390625 c 0,0.01171875 0.02109375,0.0328125 0.046875,0.046875 c 0.03515625,0.01875 0.046875,0.04921875 0.046875,0.1171875 c 0,0.0796875 -0.009375,0.0984375 -0.075,0.13125 c -0.0421875,0.02109375 -0.09609375,0.05625 -0.1171875,0.07734375 c -0.065625,0.0609375 -0.11015625,0.09609375 -0.12421875,0.09609375 c -0.00703125,0 -0.05859375,0.0421875 -0.11015625,0.09375 c -0.05390625,0.0515625 -0.1078125,0.09375 -0.1171875,0.09375 s -0.01875,0.01171875 -0.01875,0.02578125 s -0.084375,0.1078125 -0.1875,0.20859375 s -0.1875,0.19453125 -0.1875,0.20859375 s -0.02109375,0.03515625 -0.046875,0.04921875 s -0.046875,0.03984375 -0.046875,0.05859375 s -0.02109375,0.04453125 -0.046875,0.05859375 s -0.046875,0.0375 -0.046875,0.05390625 s -0.02109375,0.0421875 -0.046875,0.05859375 s -0.046875,0.04453125 -0.046875,0.06328125 s -0.02109375,0.04453125 -0.046875,0.05859375 s -0.046875,0.04921875 -0.046875,0.07734375 s -0.02109375,0.065625 -0.046875,0.08203125 s -0.046875,0.04921875 -0.046875,0.075 s -0.02109375,0.05859375 -0.046875,0.075 s -0.046875,0.0515625 -0.046875,0.0796875 c 0,0.02578125 -0.02109375,0.06796875 -0.046875,0.09140625 c -0.028125,0.02578125 -0.046875,0.07265625 -0.046875,0.11484375 c 0,0.04453125 -0.01875,0.0890625 -0.046875,0.11484375 c -0.0328125,0.028125 -0.046875,0.06796875 -0.046875,0.140625 s -0.0140625,0.11484375 -0.046875,0.1453125 c -0.03515625,0.0328125 -0.046875,0.07265625 -0.046875,0.16875 c 0,0.0796875 -0.01640625,0.159375 -0.046875,0.21796875 c -0.0421875,0.084375 -0.046875,0.13828125 -0.046875,0.64921875 c 0,0.51328125 0.0046875,0.56484375 0.046875,0.646875 c 0.03046875,0.05859375 0.046875,0.13125 0.046875,0.22265625 c 0,0.1078125 0.009375,0.14765625 0.046875,0.18046875 c 0.03515625,0.03046875 0.046875,0.07265625 0.046875,0.15234375 s 0.01171875,0.121875 0.046875,0.15234375 c 0.03515625,0.0328125 0.046875,0.07265625 0.046875,0.1640625 s 0.01171875,0.13125 0.046875,0.1640625 c 0.03515625,0.03046875 0.046875,0.07265625 0.046875,0.15234375 c 0,0.07734375 0.0140625,0.1265625 0.046875,0.1640625 c 0.03046875,0.0375 0.046875,0.08671875 0.046875,0.15703125 c 0,0.05625 0.01640625,0.1359375 0.0375,0.178125 c 0.0515625,0.0984375 0.05390625,0.23671875 0.00234375,0.290625 c -0.02109375,0.02578125 -0.03984375,0.07265625 -0.03984375,0.1078125 c 0,0.0328125 -0.01875,0.075 -0.0421875,0.09140625 s -0.04921875,0.046875 -0.05625,0.06796875 c -0.01640625,0.0421875 -0.19921875,0.1171875 -0.39375,0.16171875 c -0.18515625,0.0421875 -0.3515625,0.13125 -0.3515625,0.1875 c 0,0.02578125 -0.02109375,0.05625 -0.046875,0.0703125 c -0.0375,0.02109375 -0.046875,0.04921875 -0.046875,0.15234375 c 0,0.12421875 0.00234375,0.13125 0.0984375,0.1921875 l 0.0984375,0.065625 l 3.26015625,0 l 0.09375,-0.0609375 c 0.2484375,-0.1640625 0.35859375,-0.384375 0.46875,-0.93515625 c 0.03046875,-0.15 0.0375,-0.2625 0.028125,-0.46875 c -0.0234375,-0.4546875 -0.04921875,-0.53671875 -0.29296875,-0.9609375 c -0.10546875,-0.18515625 -0.32109375,-0.45234375 -0.52734375,-0.646875 c -0.11015625,-0.10546875 -0.21796875,-0.22265625 -0.24140625,-0.2578125 c -0.0234375,-0.0375 -0.09375,-0.13359375 -0.15703125,-0.215625 c -0.12890625,-0.1640625 -0.30703125,-0.42421875 -0.35859375,-0.52265625 c -0.15234375,-0.29765625 -0.21328125,-0.6609375 -0.17578125,-1.06171875 c 0.02109375,-0.2296875 0.0375,-0.30234375 0.13125,-0.534375 c 0.103125,-0.26015625 0.2765625,-0.55078125 0.45,-0.759375 l 0.084375,-0.10078125 l 0.13828125,0.121875 c 0.07734375,0.06796875 0.71015625,0.6890625 1.40859375,1.3828125 s 1.27734375,1.2703125 1.28671875,1.27734375 c 0.24140625,0.23203125 2.175,2.1984375 2.184375,2.221875 c 0.00703125,0.01875 0.028125,0.0328125 0.04921875,0.0328125 c 0.01875,0 0.03515625,0.02109375 0.03515625,0.046875 s 0.02109375,0.05859375 0.046875,0.075 s 0.046875,0.04921875 0.046875,0.0703125 c 0,0.0234375 0.02109375,0.05390625 0.046875,0.0703125 s 0.046875,0.046875 0.046875,0.06796875 s 0.02109375,0.05625 0.046875,0.0796875 s 0.046875,0.07265625 0.046875,0.1078125 c 0,0.0421875 0.01640625,0.075 0.046875,0.09140625 c 0.0328125,0.01640625 0.046875,0.04921875 0.046875,0.103125 c 0,0.0421875 0.01875,0.103125 0.04453125,0.13359375 c 0.0328125,0.04453125 0.046875,0.1171875 0.0609375,0.32578125 c 0.009375,0.16640625 0.028125,0.2859375 0.04921875,0.3140625 c 0.01875,0.02578125 0.0328125,0.065625 0.0328125,0.08671875 c 0,0.04921875 0.0984375,0.08203125 0.290625,0.10078125 l 0.140625,0.01171875 l 0.21796875,-0.21328125 c 0.5859375,-0.5765625 0.82734375,-1.17421875 0.82734375,-2.053125 c 0,-0.54375 -0.1734375,-1.05703125 -0.496875,-1.46953125 c -0.0515625,-0.065625 -0.4171875,-0.4453125 -0.81328125,-0.84375 c -0.72890625,-0.73828125 -1.03125,-1.06875 -1.0359375,-1.134375 c -0.00234375,-0.02109375 -0.0046875,-0.075 -0.00703125,-0.11953125 c -0.0046875,-0.04453125 -0.0140625,-0.1828125 -0.0234375,-0.3046875 c -0.01640625,-0.17578125 -0.01171875,-0.2484375 0.01875,-0.3515625 c 0.01875,-0.0703125 0.0515625,-0.2109375 0.0703125,-0.309375 c 0.01875,-0.10078125 0.05859375,-0.23203125 0.084375,-0.29296875 c 0.028125,-0.06328125 0.065625,-0.16171875 0.084375,-0.22265625 s 0.084375,-0.178125 0.1453125,-0.2578125 c 0.06328125,-0.08203125 0.15703125,-0.2109375 0.20859375,-0.290625 c 0.11953125,-0.17578125 0.32109375,-0.3609375 0.39375,-0.3609375 c 0.028125,0 0.065625,0.01640625 0.08203125,0.03515625 s 0.0375,0.03515625 0.04921875,0.03515625 s 0.046875,0.0234375 0.0796875,0.0515625 c 0.04921875,0.0421875 0.05859375,0.0703125 0.05859375,0.1828125 c 0,0.10078125 0.01171875,0.14765625 0.046875,0.1875 c 0.03046875,0.03515625 0.046875,0.08671875 0.046875,0.1546875 c 0,0.08671875 0.009375,0.10546875 0.07734375,0.1453125 c 0.1640625,0.0984375 0.2578125,0.08671875 0.43359375,-0.05859375 c 0.1125,-0.09140625 0.14765625,-0.14296875 0.3375,-0.4875 c 0.121875,-0.215625 0.1546875,-0.30234375 0.2625,-0.6703125 c 0.0515625,-0.178125 0.05390625,-0.76875 0.00234375,-0.91171875 c -0.01875,-0.05390625 -0.03515625,-0.1265625 -0.03515625,-0.16171875 c 0,-0.0890625 -0.0890625,-0.2671875 -0.253125,-0.50625 c -0.18984375,-0.27890625 -0.1875,-0.27421875 -0.309375,-0.3515625 c -0.05859375,-0.0375 -0.159375,-0.10546875 -0.225,-0.1546875 c -0.06328125,-0.04921875 -0.18984375,-0.121875 -0.28125,-0.16171875 c -0.0890625,-0.03984375 -0.33515625,-0.159375 -0.5484375,-0.26484375 c -0.34921875,-0.1734375 -0.403125,-0.20859375 -0.56484375,-0.36796875 c -0.0984375,-0.09609375 -0.19453125,-0.2015625 -0.215625,-0.234375 s -0.0609375,-0.18046875 -0.0890625,-0.328125 s -0.07265625,-0.3046875 -0.0984375,-0.34921875 c -0.0609375,-0.10078125 -0.1734375,-0.14765625 -0.30234375,-0.1265625 c -0.09140625,0.0140625 -0.2296875,0.08671875 -0.2484375,0.12890625 c -0.0046875,0.01171875 -0.0234375,0.01875 -0.0421875,0.01875 s -0.04453125,0.02578125 -0.05625,0.05859375 s -0.03984375,0.065625 -0.05859375,0.07265625 c -0.01875,0.009375 -0.03515625,0.028125 -0.03515625,0.046875 c 0,0.01640625 -0.02109375,0.0421875 -0.046875,0.05625 s -0.046875,0.04453125 -0.046875,0.0703125 s -0.02109375,0.05625 -0.046875,0.0703125 s -0.046875,0.04921875 -0.046875,0.07734375 s -0.02109375,0.065625 -0.046875,0.08203125 s -0.046875,0.0515625 -0.046875,0.08203125 c 0,0.028125 -0.02109375,0.065625 -0.046875,0.08203125 s -0.046875,0.05390625 -0.046875,0.08671875 s -0.01875,0.06796875 -0.046875,0.08203125 c -0.0328125,0.01640625 -0.046875,0.04921875 -0.046875,0.10078125 c 0,0.046875 -0.01875,0.09140625 -0.046875,0.1171875 c -0.0328125,0.028125 -0.046875,0.06796875 -0.046875,0.13359375 s -0.0140625,0.10546875 -0.046875,0.13359375 s -0.046875,0.0703125 -0.046875,0.1359375 c 0,0.0515625 -0.01640625,0.11484375 -0.03515625,0.13828125 c -0.046875,0.06328125 -0.046875,0.3609375 0,0.421875 c 0.01875,0.02578125 0.03515625,0.08671875 0.03515625,0.1359375 c 0,0.06328125 0.01171875,0.09375 0.046875,0.1125 c 0.0328125,0.01875 0.046875,0.04921875 0.046875,0.10546875 s 0.0140625,0.09140625 0.046875,0.11015625 c 0.02578125,0.01640625 0.046875,0.05390625 0.046875,0.08203125 s 0.02109375,0.06328125 0.046875,0.07734375 s 0.046875,0.046875 0.046875,0.07265625 s 0.0140625,0.0515625 0.03046875,0.05859375 c 0.0140625,0.0046875 0.084375,0.08203125 0.1546875,0.16875 c 0.12890625,0.159375 0.215625,0.23203125 0.44765625,0.375 c 0.3609375,0.225 0.55546875,0.33515625 0.65859375,0.3703125 c 0.103125,0.0375 0.11484375,0.04921875 0.11484375,0.1125 c 0,0.05390625 -0.0234375,0.09375 -0.09375,0.1546875 c -0.0515625,0.04453125 -0.09375,0.09375 -0.09375,0.10546875 c 0,0.0140625 -0.02109375,0.0375 -0.046875,0.05390625 s -0.046875,0.04921875 -0.046875,0.075 s -0.02109375,0.05859375 -0.046875,0.075 s -0.046875,0.05625 -0.046875,0.0890625 s -0.02109375,0.07265625 -0.046875,0.0890625 s -0.046875,0.05390625 -0.046875,0.08671875 s -0.01875,0.06796875 -0.046875,0.08203125 s -0.046875,0.04921875 -0.046875,0.08203125 s -0.01875,0.06796875 -0.046875,0.08203125 c -0.03046875,0.01640625 -0.046875,0.04921875 -0.046875,0.09375 s -0.01640625,0.0796875 -0.046875,0.0984375 c -0.03046875,0.02109375 -0.046875,0.05625 -0.046875,0.10546875 c 0,0.0515625 -0.0140625,0.084375 -0.046875,0.10078125 c -0.03515625,0.01875 -0.046875,0.04921875 -0.046875,0.12890625 c 0,0.06328125 -0.0140625,0.1171875 -0.0375,0.140625 c -0.02109375,0.02109375 -0.04453125,0.08671875 -0.0515625,0.14765625 s -0.03046875,0.13359375 -0.0515625,0.1640625 l -0.0421875,0.0515625 l -0.21796875,-0.19453125 c -0.121875,-0.1078125 -1.11796875,-1.0921875 -2.21484375,-2.18671875 l -1.99453125,-1.98984375 l -0.1640625,-0.33984375 c -0.09140625,-0.1875 -0.17578125,-0.37265625 -0.18984375,-0.41015625 c -0.05390625,-0.14765625 -0.14296875,-0.4734375 -0.16640625,-0.60234375 c -0.03046875,-0.1640625 -0.075,-0.23671875 -0.178125,-0.2859375 c -0.0421875,-0.02109375 -0.08203125,-0.03515625 -0.08671875,-0.03515625 c -0.00234375,0.00234375 -0.0328125,0.009375 -0.065625,0.0140625 M 19.30546875,10.8890625 c -0.009375,0.009375 -0.06796875,0.02578125 -0.12890625,0.03515625 c -0.17578125,0.0234375 -0.49453125,0.1546875 -0.6234375,0.253125 c -0.17109375,0.12890625 -0.365625,0.31171875 -0.365625,0.346875 c 0,0.0140625 -0.02109375,0.03515625 -0.046875,0.0421875 s -0.046875,0.0328125 -0.046875,0.05390625 c 0,0.0234375 -0.02109375,0.05390625 -0.046875,0.0703125 s -0.046875,0.04453125 -0.046875,0.06328125 s -0.02109375,0.04453125 -0.046875,0.05859375 c -0.075,0.03984375 -0.065625,0.215625 0.0140625,0.27890625 c 0.09140625,0.07265625 0.13125,0.0609375 0.20390625,-0.05625 c 0.09375,-0.14765625 0.25546875,-0.28125 0.4125,-0.3421875 c 0.1875,-0.075 0.50625,-0.075 0.66796875,-0.00234375 c 0.13828125,0.06328125 0.3421875,0.26484375 0.3421875,0.33984375 c 0,0.028125 0.02109375,0.0703125 0.046875,0.09375 c 0.04453125,0.0375 0.046875,0.06796875 0.046875,0.45703125 s -0.00234375,0.421875 -0.046875,0.46171875 c -0.02578125,0.0234375 -0.046875,0.0703125 -0.046875,0.103125 c 0,0.03515625 -0.01875,0.07265625 -0.046875,0.09140625 c -0.02578125,0.01640625 -0.046875,0.03984375 -0.046875,0.05390625 c 0,0.06796875 -0.36796875,0.34921875 -0.459375,0.34921875 c -0.01640625,0 -0.0890625,0.02578125 -0.159375,0.05625 c -0.11484375,0.0515625 -0.1265625,0.06328125 -0.140625,0.1453125 c -0.009375,0.0515625 -0.00703125,0.13828125 0.0046875,0.196875 l 0.01875,0.10546875 l 0.19921875,0.0046875 c 0.26015625,0.0046875 0.4640625,0.075 0.665625,0.2296875 c 0.08203125,0.06328125 0.15,0.12890625 0.15234375,0.1453125 c 0,0.01640625 0.02109375,0.03984375 0.046875,0.05390625 s 0.046875,0.04453125 0.046875,0.06796875 s 0.02109375,0.0609375 0.046875,0.084375 s 0.046875,0.065625 0.046875,0.09140625 c 0,0.028125 0.02109375,0.06796875 0.046875,0.09140625 c 0.03046875,0.02578125 0.046875,0.06796875 0.046875,0.1265625 c 0,0.04921875 0.02109375,0.11953125 0.046875,0.159375 c 0.0421875,0.06328125 0.046875,0.11015625 0.046875,0.515625 s -0.0046875,0.45234375 -0.046875,0.515625 c -0.02578125,0.0375 -0.046875,0.1078125 -0.046875,0.15234375 c 0,0.05625 -0.0140625,0.09140625 -0.046875,0.1125 c -0.02578125,0.01640625 -0.046875,0.05390625 -0.046875,0.084375 c 0,0.028125 -0.02109375,0.07265625 -0.046875,0.09609375 s -0.046875,0.0609375 -0.046875,0.084375 s -0.02109375,0.05390625 -0.046875,0.06796875 s -0.046875,0.03984375 -0.046875,0.05859375 c 0,0.01640625 -0.02109375,0.03984375 -0.046875,0.046875 s -0.046875,0.0234375 -0.046875,0.0375 c 0,0.028125 -0.271875,0.1640625 -0.38671875,0.1921875 c -0.1546875,0.0375 -0.4828125,0.046875 -0.5859375,0.01640625 c -0.32109375,-0.09609375 -0.55546875,-0.25078125 -0.7640625,-0.49921875 c -0.065625,-0.0796875 -0.1359375,-0.1546875 -0.1546875,-0.1640625 c -0.046875,-0.028125 -0.14765625,0.02109375 -0.2109375,0.10078125 c -0.0515625,0.06328125 -0.0515625,0.065625 -0.00703125,0.1171875 c 0.02578125,0.03046875 0.046875,0.065625 0.046875,0.08203125 s 0.02109375,0.046875 0.046875,0.0703125 s 0.046875,0.05625 0.046875,0.07265625 s 0.02109375,0.0421875 0.046875,0.05625 s 0.046875,0.03984375 0.046875,0.05859375 s 0.02109375,0.046875 0.046875,0.06328125 s 0.046875,0.03984375 0.046875,0.0515625 c 0,0.009375 0.0421875,0.0609375 0.09375,0.11015625 c 0.0515625,0.0515625 0.09375,0.10078125 0.09375,0.11484375 c 0,0.01171875 0.01640625,0.0234375 0.03515625,0.0234375 s 0.04453125,0.01875 0.05625,0.0421875 c 0.03515625,0.065625 0.4171875,0.253125 0.63515625,0.3140625 c 0.16640625,0.04453125 0.2578125,0.05390625 0.55078125,0.05390625 c 0.20625,0 0.41015625,-0.0140625 0.4921875,-0.0328125 c 0.22265625,-0.04921875 0.4875,-0.159375 0.67734375,-0.28359375 c 0.63515625,-0.41484375 0.95390625,-1.03828125 0.95625,-1.875 c 0.00234375,-0.46171875 -0.0890625,-0.834375 -0.2953125,-1.20234375 c -0.08671875,-0.15703125 -0.39609375,-0.4734375 -0.534375,-0.54609375 c -0.11953125,-0.06328125 -0.5109375,-0.2203125 -0.553125,-0.22265625 c -0.0234375,0 0.0140625,-0.02578125 0.0796875,-0.05390625 c 0.065625,-0.03046875 0.19453125,-0.1265625 0.28828125,-0.21328125 c 0.29765625,-0.28125 0.4546875,-0.57421875 0.5203125,-0.97734375 c 0.07265625,-0.440625 -0.14296875,-0.9796875 -0.5015625,-1.25625 c -0.14765625,-0.11484375 -0.4171875,-0.23671875 -0.590625,-0.26953125 c -0.15703125,-0.028125 -0.58359375,-0.046875 -0.6046875,-0.02578125"/></svg>
