<svg xmlns="http://www.w3.org/2000/svg" width="24" height="24" viewBox="0 0 24 24"><path d="M 17.3198948437,2.03933142685 C 17.1620596312,2.09851993217 17.03804625,2.180256325 17.03804625,2.22817088658 C 17.03804625,2.24508120092 17.0126795759,2.28454060533 16.9816765312,2.31272486342 C 16.9506734866,2.34091032408 16.9253068125,2.40009762685 16.9253068125,2.44519340185 C 16.9253068125,2.49028917685 16.9083952956,2.53256736783 16.8830298241,2.541022525 C 16.8604819366,2.55229646875 16.8407528357,2.59175587315 16.8407528357,2.63685164815 C 16.8407528357,2.67912863658 16.8604819366,2.72986078217 16.8830298241,2.74959108565 C 16.9055777116,2.76932018658 16.9253068125,2.81441596158 16.9253068125,2.84823779283 C 16.9253068125,2.9243366125 17.0859608116,3.07653425185 17.2268845072,3.1329039706 C 17.2776178553,3.15545306065 17.3959936634,3.18081853217 17.489004,3.19209247592 C 17.6693871,3.20900399283 17.93996175,3.34147253125 17.93996175,3.40911619375 C 17.93996175,3.42884529467 17.9681472107,3.4654859125 17.9991502553,3.4880338 C 18.0555199741,3.52467441783 18.0611563447,3.55003988935 18.0583387607,3.84598121342 C 18.0583387607,4.12782980717 18.0527011875,4.1701067956 17.9991502553,4.22647651435 C 17.9653284241,4.2602983456 17.93996175,4.31666806435 17.93996175,4.3504898956 C 17.93996175,4.3843129294 17.9145950759,4.42658991783 17.8835920312,4.44631901875 C 17.8525889866,4.46604811967 17.8272223125,4.4970523669 17.8272223125,4.51396268125 C 17.8272223125,4.55342208565 17.4805488428,4.90573192592 17.4185415509,4.9310986 C 17.3959936634,4.93955375717 17.3762645625,4.96210164467 17.3762645625,4.98183194815 C 17.3762645625,5.00156104908 17.3508978884,5.03538288033 17.3198948437,5.05511198125 C 17.1958814625,5.13121080092 17.2973469562,5.427152125 17.4467270116,5.427152125 C 17.5256446178,5.427152125 17.8441338294,5.17630657592 18.2133551866,4.8239955331 C 18.6417650491,4.4181335581 18.8644251375,4.0291831 18.9405239572,3.56695140625 C 19.0391718669,2.94406571342 18.977164575,2.6988577375 18.616398375,2.29017697592 C 18.4162861741,2.06469810092 18.2753612759,2.01678353935 17.7567598634,2.00269201158 C 17.5200070447,1.99423565185 17.4157227643,2.0055095956 17.3198948437,2.03933142685 Z M 19.7297000197,2.02523989908 C 19.5380429759,2.09851993217 19.4196671678,2.180256325 19.4112120107,2.24508120092 C 19.4055744375,2.28172181875 19.3745713928,2.34091032408 19.3435683482,2.37473215533 C 19.292835,2.4282830875 19.2871986294,2.46210491875 19.3012901572,2.5917546706 C 19.3097465169,2.67912863658 19.337930775,2.77777534375 19.3604786625,2.811597175 C 19.3858453366,2.84541900625 19.4055744375,2.89333356783 19.4055744375,2.91588145533 C 19.4055744375,3.02862089283 19.7297000197,3.2005476331 19.9382685803,3.2005476331 C 20.1440183544,3.2005476331 20.420229375,3.35556526158 20.420229375,3.46830469908 C 20.420229375,3.50212653033 20.4455960491,3.56413261967 20.4765990937,3.60359202408 C 20.5216948688,3.65996174283 20.5329688125,3.71633146158 20.5329688125,3.8713478875 C 20.5329688125,4.0291831 20.5216948688,4.074278875 20.4765990937,4.11655586342 C 20.4455960491,4.14474132408 20.420229375,4.20392862685 20.420229375,4.24620681783 C 20.420229375,4.29693896342 20.4005002741,4.33639836783 20.3638596562,4.35612746875 C 20.3328566116,4.3730377831 20.3074899375,4.40967840092 20.3074899375,4.4406814456 C 20.3074899375,4.47168569283 20.2821232634,4.5083251081 20.2511202187,4.525236625 C 20.2201171741,4.54214693935 20.1947505,4.57315118658 20.1947505,4.59569907408 C 20.1947505,4.61824696158 20.1693838259,4.65206879283 20.1383807812,4.67179789375 C 20.1073777366,4.69152699467 20.0820110625,4.72253003935 20.0820110625,4.73662276967 C 20.0820110625,4.75353428658 20.0312789169,4.80426643217 19.969271625,4.85218099375 C 19.9072655357,4.89727676875 19.8565321875,4.94237254375 19.8565321875,4.9536464875 C 19.8565321875,4.96773921783 19.8368030866,4.976194375 19.8142551991,4.976194375 C 19.788888525,4.976194375 19.7578854803,5.0043786331 19.74379275,5.03820046435 C 19.7268824357,5.07484108217 19.7015157616,5.12557443033 19.6817866607,5.15093990185 C 19.6536012,5.19039930625 19.6564199866,5.2073096206 19.6958781884,5.2524053956 C 19.7212448625,5.28059085625 19.74379275,5.31723147408 19.74379275,5.33414178842 C 19.74379275,5.34823451875 19.7691594241,5.38487513658 19.7973436822,5.4102406081 C 19.8649873447,5.46942911342 19.8959915919,5.4553363831 20.1862953428,5.23831386783 C 20.7838143616,4.79017370185 21.1530357187,4.32512442408 21.3277824482,3.80652301158 C 21.3841521669,3.63741385533 21.3926073241,3.55285867592 21.3926073241,3.2005476331 C 21.3926073241,2.82287111875 21.3869697509,2.78059413033 21.322144875,2.65658074908 C 21.2375908982,2.49028917685 20.9923817197,2.21125936967 20.8514580241,2.12670539283 C 20.7950883053,2.090064775 20.690804025,2.0506053706 20.6203415759,2.03651384283 C 20.4230481616,1.99423565185 19.8283467268,1.98859928125 19.7297000197,2.02523989908 Z M 7.62430321875,5.03538288033 C 7.57075228658,5.066385925 7.48056073658,5.14248474467 7.42419101783,5.19885446342 C 7.36782129908,5.25804296875 7.3029952206,5.31159390092 7.27762974908,5.32286784467 C 7.24944428842,5.33414178842 7.2297151875,5.3595084625 7.2297151875,5.38205635 C 7.2297151875,5.40742302408 7.20434851342,5.43842606875 7.17334546875,5.45533758565 C 7.14234242408,5.4722479 7.11697575,5.5004321581 7.11697575,5.52016246158 C 7.11697575,5.5398915625 7.06624240185,5.59908006783 7.0042363125,5.652631 C 6.94223022315,5.70618193217 6.891496875,5.77382559467 6.891496875,5.79919226875 C 6.891496875,5.82737652685 6.86613020092,5.8611983581 6.83512715625,5.878109875 C 6.801305325,5.8950213919 6.7787574375,5.93729838033 6.7787574375,5.97675658217 C 6.7787574375,6.01621598658 6.75339076342,6.06131176158 6.72238771875,6.0810408625 C 6.6885658875,6.10358875 6.666018,6.148684525 6.666018,6.19096151342 C 6.666018,6.23042091783 6.64065132592,6.28679063658 6.60964828125,6.31497489467 C 6.5701900794,6.3516155125 6.5532785625,6.4023476581 6.5532785625,6.48408405092 C 6.5532785625,6.56582044375 6.5363670456,6.61655258935 6.49690884375,6.65319320717 C 6.45463185533,6.69265261158 6.440539125,6.7405659706 6.440539125,6.85048782408 C 6.440539125,6.9378605875 6.4179912375,7.050600025 6.38416940625,7.12106247408 C 6.33625484467,7.22816433842 6.3277996875,7.30708194467 6.3277996875,7.7101251331 C 6.3277996875,8.12726105185 6.3334360581,8.1836307706 6.38416940625,8.25973079283 C 6.4179912375,8.313281725 6.440539125,8.39219933125 6.440539125,8.4711169375 C 6.440539125,8.56412727408 6.45463185533,8.6120406331 6.49690884375,8.64868125092 C 6.530730675,8.67686671158 6.5532785625,8.73041764375 6.5532785625,8.78960614908 C 6.5532785625,8.84597586783 6.57582645,8.8995268 6.60964828125,8.93052984467 C 6.64065132592,8.95589651875 6.666018,9.00944745092 6.666018,9.04890685533 C 6.666018,9.08836505717 6.6885658875,9.1306420456 6.72238771875,9.1475535625 C 6.75339076342,9.16446387685 6.7787574375,9.20110449467 6.7787574375,9.23210753935 C 6.7787574375,9.26311178658 6.80412411158,9.29975120185 6.83512715625,9.31666271875 C 6.86613020092,9.3335730331 6.891496875,9.37021365092 6.891496875,9.4012166956 C 6.891496875,9.43222094283 6.91686354908,9.4688603581 6.94786659375,9.485771875 C 6.97886963842,9.50268218935 7.0042363125,9.53086765 7.0042363125,9.54496038033 C 7.0042363125,9.5815997956 7.2748109625,9.85499323217 7.38191282685,9.92263689467 C 7.42137223125,9.95082235533 7.4551940625,9.9818254 7.4551940625,9.99591813033 C 7.4551940625,10.0071920741 7.50592741065,10.07201695 7.5679335,10.1340230393 C 7.62993958935,10.1960303312 7.6806729375,10.2552188366 7.6806729375,10.2636739937 C 7.6806729375,10.2777667241 7.77368327408,10.3707758581 8.3401980456,10.9175627313 C 8.47266778658,11.0443948991 8.5825884375,11.1627707072 8.5825884375,11.1768634375 C 8.5825884375,11.1909561678 8.60795511158,11.2163216393 8.63895815625,11.2332331562 C 8.68123514467,11.2557810437 8.695327875,11.2924216616 8.695327875,11.3741568518 C 8.695327875,11.469985975 8.68405393125,11.4925338625 8.605136325,11.5319920643 C 8.5544041794,11.5573587384 8.48957810092,11.5996357268 8.4642126294,11.6250024009 C 8.38529502315,11.6982836366 8.33174288842,11.740560625 8.31483257408,11.740560625 C 8.30637621435,11.740560625 8.244370125,11.7912939732 8.18236403565,11.8533000625 C 8.11753795717,11.9153061518 8.05271308125,11.9660395 8.0414391375,11.9660395 C 8.03016519375,11.9660395 8.01889125,11.9829510169 8.01889125,12.0054977018 C 8.01889125,12.0280455893 7.99352457592,12.05623105 7.96252153125,12.0646862072 C 7.93151848658,12.0731425669 7.9061518125,12.0956904544 7.9061518125,12.1126007687 C 7.9061518125,12.1295110831 7.83005299283,12.2140662625 7.73704265625,12.3042578125 C 7.64403231967,12.3944493625 7.5679335,12.4790033393 7.5679335,12.4902784857 C 7.5679335,12.5043700134 7.54256682592,12.5325554741 7.51156378125,12.552284575 C 7.48056073658,12.5720136759 7.4551940625,12.6058355072 7.4551940625,12.6283833947 C 7.4551940625,12.6509312822 7.42982738842,12.6819343268 7.39882434375,12.6988458438 C 7.36782129908,12.7157573607 7.342454625,12.7439416187 7.342454625,12.7636707197 C 7.342454625,12.7834010232 7.31708795092,12.8144040678 7.28608490625,12.8341331688 C 7.25508186158,12.8538622697 7.2297151875,12.8876841009 7.2297151875,12.9102319884 C 7.2297151875,12.9327798759 7.20434851342,12.9637829206 7.17334546875,12.9806944375 C 7.14234242408,12.9976059544 7.11697575,13.0398829428 7.11697575,13.0737047741 C 7.11697575,13.1075266053 7.09160907592,13.1526223803 7.06060603125,13.1723514813 C 7.02960298658,13.1920805822 7.0042363125,13.2315399866 7.0042363125,13.2625430312 C 7.0042363125,13.2935460759 6.97886963842,13.3330054803 6.94786659375,13.3527345812 C 6.91686354908,13.3724636822 6.891496875,13.4203782437 6.891496875,13.4598376482 C 6.891496875,13.49929585 6.86613020092,13.5472104116 6.83512715625,13.5669395125 C 6.7956689544,13.5894874 6.7787574375,13.6317643884 6.7787574375,13.6994080509 C 6.7787574375,13.7670517134 6.7618459206,13.8036923312 6.72238771875,13.8262402187 C 6.67729194375,13.8487881062 6.666018,13.8854287241 6.666018,13.9925305884 C 6.666018,14.0911772956 6.65192526967,14.1419106437 6.60964828125,14.1785512616 C 6.56737129283,14.2151918794 6.5532785625,14.265924025 6.5532785625,14.3730258893 C 6.55045977592,14.4547622822 6.52791188842,14.5646829331 6.49690884375,14.6295090116 C 6.44899428217,14.7309745053 6.44335791158,14.8098921116 6.440539125,15.4271402313 C 6.440539125,16.0556622947 6.4461754956,16.1204871706 6.49690884375,16.2219538669 C 6.53354946158,16.2952339 6.5532785625,16.3882442366 6.5532785625,16.4981648875 C 6.5532785625,16.6249970553 6.56737129283,16.6813667741 6.60964828125,16.7292813357 C 6.64628889908,16.7715583241 6.666018,16.8335644134 6.666018,16.9181195928 C 6.666018,17.0054923562 6.6829295169,17.0534069178 6.72238771875,17.0872287491 C 6.76466470717,17.1238693669 6.7787574375,17.1717827259 6.7787574375,17.2817045794 C 6.7787574375,17.3888064437 6.79285016783,17.4367210053 6.83512715625,17.4761792072 C 6.8745853581,17.512819825 6.891496875,17.5635531732 6.891496875,17.6509259366 C 6.891496875,17.7354799134 6.91122597592,17.8031235759 6.94786659375,17.8482193509 C 6.9873247956,17.8961339125 7.0042363125,17.963777575 7.0042363125,18.0511503384 C 7.0042363125,18.1244315741 7.02396541342,18.2089855509 7.04651330092,18.2399897982 C 7.1000642331,18.3104510447 7.1000642331,18.5162008187 7.04651330092,18.5612965937 C 7.02396541342,18.5810256947 7.0042363125,18.6373954134 7.0042363125,18.6909475482 C 7.0042363125,18.7557724241 6.9873247956,18.7952306259 6.94786659375,18.8149609294 C 6.91686354908,18.8318712438 6.891496875,18.8628742884 6.891496875,18.8854221759 C 6.891496875,18.9333367375 6.62937738217,19.0686240625 6.54200461875,19.0686240625 C 6.40389850717,19.0686240625 5.989581375,19.2461883759 5.989581375,19.3025580947 C 5.989581375,19.3251059822 5.96421470092,19.3645653866 5.93321165625,19.3927496447 C 5.85147526342,19.4688496669 5.85429405,19.6943285419 5.94166681342,19.7760637322 C 6.08822808217,19.9169886303 6.0572250375,19.9141698437 8.06680581158,19.9141698437 L 9.94955441783,19.9141698437 L 10.0904781134,19.8465261812 C 10.3807830669,19.7140576428 10.5696213241,19.3871132741 10.6964534919,18.8008681991 C 10.8148293,18.2709928428 10.7443668509,17.6650186669 10.5160703919,17.1971494 C 10.3582351794,16.8758426044 10.1524854053,16.6024491678 9.76917131783,16.2078611366 C 9.0955534794,15.5088766241 8.72069454908,14.8888097178 8.63613936967,14.3307489009 C 8.59104359467,14.0517190938 8.63613936967,13.5190249509 8.72351333565,13.2625430312 C 8.8475267169,12.9074144044 8.99126919908,12.6481136982 9.29566568033,12.2422517232 L 9.43658937592,12.0534122634 L 9.5295997125,12.1295122857 C 9.58315064467,12.1717892741 10.3328685053,12.913050775 11.2009621741,13.7755080732 C 12.0690558428,14.6407829553 12.7934070294,15.348222625 12.8103173437,15.348222625 C 12.8272288607,15.348222625 12.8497767482,15.3707705125 12.8582319053,15.3961371866 C 12.8695058491,15.4243214447 13.4585697107,16.0274780366 14.1688281669,16.7377364928 C 14.8790866232,17.4479949491 15.459694125,18.0398763947 15.459694125,18.053969125 C 15.459694125,18.0680618553 15.4850607991,18.0877909562 15.5160638437,18.0962461134 C 15.5470668884,18.1047012706 15.5724335625,18.1385243044 15.5724335625,18.1695273491 C 15.5724335625,18.1977116072 15.5978002366,18.2371710116 15.6288032812,18.2569001125 C 15.6598063259,18.2766292134 15.685173,18.3160886178 15.685173,18.3414552919 C 15.685173,18.36963955 15.7105396741,18.4034613812 15.7415427187,18.4203728982 C 15.7725457634,18.4372832125 15.7979124375,18.4767426169 15.7979124375,18.504926875 C 15.7979124375,18.5359299197 15.8232791116,18.5753893241 15.8542821562,18.595118425 C 15.8909227741,18.6204850991 15.910651875,18.6627620875 15.910651875,18.7219505928 C 15.910651875,18.7839566822 15.9275633919,18.8234160866 15.9670215937,18.8431451875 C 16.0092985822,18.865693075 16.0233913125,18.9023336928 16.0233913125,18.9812512991 C 16.0233913125,19.0488949616 16.0431204134,19.1052646803 16.0769422447,19.136267725 C 16.1164016491,19.1729083428 16.1304931768,19.2433695893 16.1474046937,19.4829411947 C 16.1586786375,19.6492315643 16.181226525,19.8014304062 16.1981368393,19.8211595072 C 16.2150483562,19.8408886081 16.2375962437,19.9000771134 16.2460514009,19.947991675 C 16.271418075,20.0691862697 16.3587908384,20.1114632581 16.5927248706,20.1114632581 C 16.7674716,20.1114632581 16.7872007009,20.1058268875 16.9168516553,20.0015426072 C 17.4016312366,19.6125921491 17.7849453241,18.9784325125 17.9455981206,18.2991771009 C 17.9963314687,18.0821533831 18.0076054125,17.9525036312 18.0076054125,17.5043646678 C 18.0104241991,16.9350299072 17.9737835812,16.7095510322 17.8159483687,16.3262369447 C 17.6045622241,15.8160906893 17.4269979107,15.5906118143 16.4348908607,14.6013235509 C 15.9670215937,14.1362730706 15.5019711134,13.6571310625 15.4005056197,13.5387540518 L 15.2144861491,13.3245491206 L 15.1806643178,12.9355986625 C 15.1440237,12.5438294178 15.1468424866,12.5438294178 15.2285776768,12.1633329143 C 15.2764922384,11.9547655562 15.3638650018,11.6531878616 15.4258722938,11.4925338625 C 15.6203481241,10.9964803375 16.1304931768,10.3115885553 16.3503356812,10.2580364206 C 16.3954314562,10.2467624768 16.4377084447,10.2552188366 16.4715302759,10.2862218813 C 16.4997157366,10.3115885553 16.5335375678,10.3313176563 16.5504478822,10.3313176563 C 16.6237291178,10.3313176563 16.6998279375,10.4637861947 16.6998279375,10.5962547331 C 16.6998279375,10.6892650697 16.7167382518,10.7540899456 16.7561976562,10.8020045072 C 16.7928382741,10.8499190687 16.812567375,10.9175627313 16.812567375,10.9936615509 C 16.812567375,11.0923082581 16.8266601053,11.1233125053 16.902758925,11.1853185947 C 17.0408650366,11.3008768187 17.1507856875,11.3093319759 17.3029833268,11.2191404259 C 17.4720924831,11.1204937187 17.5820143366,10.9823876072 17.8074932116,10.5849807893 C 18.0667939178,10.1227490956 18.165440625,9.8014423 18.1964436697,9.31666271875 C 18.2161727706,8.98408077685 18.2105364,8.8995268 18.1626218384,8.65431882408 C 18.0949781759,8.3189180956 18.0245157268,8.1554465125 17.8131295822,7.83695730092 C 17.57919555,7.4846462581 17.3001657428,7.26480495625 16.7561976562,7.00268546342 C 15.7077208875,6.49535799467 15.7105396741,6.49535799467 15.4850607991,6.27269790625 C 15.3666837884,6.15713968217 15.2511255643,6.03030751435 15.2257600928,5.9908493125 C 15.2032122053,5.9513899081 15.1496600706,5.76818922408 15.1073830822,5.5849873375 C 15.0171915322,5.1791253625 14.9833697009,5.10584412685 14.8452635893,5.03538288033 C 14.7550720393,4.98746831875 14.7240689947,4.98464953217 14.6141483437,5.01283499283 C 14.4732234456,5.0494744081 14.2195603125,5.21858356435 14.2195603125,5.2749532831 C 14.2195603125,5.29468358658 14.1941936384,5.32568663125 14.1631905937,5.3425969456 C 14.1321875491,5.3595084625 14.106820875,5.39051150717 14.106820875,5.41305939467 C 14.106820875,5.43560728217 14.0814542009,5.46661032685 14.0504511562,5.48352184375 C 14.0194481116,5.5004321581 13.9940814375,5.53707277592 13.9940814375,5.5680758206 C 13.9940814375,5.59908006783 13.9687147634,5.6357194831 13.9377117187,5.652631 C 13.9067086741,5.66954131435 13.881342,5.71181950533 13.881342,5.74564133658 C 13.881342,5.77946316783 13.8559753259,5.82455894283 13.8249722812,5.84428804375 C 13.7939692366,5.86401714467 13.7686025625,5.90911291967 13.7686025625,5.94857232408 C 13.7686025625,5.98803052592 13.746054675,6.03030751435 13.7122328437,6.04721903125 C 13.6784110125,6.0641293456 13.655863125,6.10640753658 13.655863125,6.14586573842 C 13.655863125,6.18532514283 13.6333152375,6.22760213125 13.5994934062,6.2445124456 C 13.5600340018,6.2670603331 13.5431236875,6.30370095092 13.5431236875,6.37134461342 C 13.5431236875,6.43898827592 13.5262121706,6.47562889375 13.4867539687,6.49817678125 C 13.4416581937,6.52072466875 13.43038425,6.55736528658 13.43038425,6.66446715092 C 13.43038425,6.7631138581 13.4162915197,6.81384720625 13.3740145312,6.85048782408 C 13.3373739134,6.88430965533 13.3176448125,6.9378605875 13.3176448125,7.00550425 C 13.3176448125,7.06469275533 13.2979157116,7.16615824908 13.2753678241,7.230983125 C 13.2218156893,7.38036318033 13.2218156893,7.53256081967 13.2753678241,7.62557115625 C 13.2979157116,7.6650293581 13.3148260259,7.74112938033 13.3176448125,7.79749909908 C 13.3176448125,7.85668640185 13.3401927,7.92433006435 13.3740145312,7.96378946875 C 13.4050175759,8.00043008658 13.43038425,8.0652549625 13.43038425,8.10753195092 C 13.43038425,8.15826529908 13.4529321375,8.20336107408 13.4867539687,8.223090175 C 13.5177570134,8.24281927592 13.5431236875,8.28791505092 13.5431236875,8.32173688217 C 13.5431236875,8.35555871342 13.5684903616,8.39783570185 13.5994934062,8.41474721875 C 13.6304964509,8.4316575331 13.655863125,8.46266178033 13.655863125,8.48520966783 C 13.655863125,8.50775755533 13.6304964509,8.54157938658 13.7122328437,8.5613084875 C 13.7939692366,8.58103758842 13.7686025625,8.6120406331 13.7686025625,8.63177093658 C 13.7686025625,8.68532186875 14.1885572678,9.09963900092 14.3238445928,9.17855660717 C 14.3858506822,9.215197225 14.557778625,9.31666271875 14.7043398937,9.40403548217 C 14.8480823759,9.4914082456 15.0510133634,9.60133009908 15.1552976437,9.6436070875 C 15.3300431706,9.71970590717 15.3469546875,9.73097985092 15.3469546875,9.80989745717 C 15.3469546875,9.87190474908 15.3187692268,9.9198181081 15.23421525,9.99309934375 C 15.1722079581,10.0466502759 15.1214758125,10.1058387813 15.1214758125,10.1255678822 C 15.1214758125,10.1452969831 15.0961091384,10.1734824438 15.0651060937,10.1903927581 C 15.0341030491,10.207304275 15.008736375,10.2439448928 15.008736375,10.2721291509 C 15.008736375,10.3003146116 14.9833697009,10.3454103866 14.9523666562,10.3735946447 C 14.9213636116,10.4017801053 14.8959969375,10.4468758803 14.8959969375,10.4750601384 C 14.8959969375,10.5032455991 14.8706302634,10.5398850143 14.8396272187,10.5567965312 C 14.8086241741,10.5737068456 14.7832575,10.6159850366 14.7832575,10.6526244518 C 14.7832575,10.6892650697 14.7578908259,10.7399984178 14.7268877812,10.7681826759 C 14.6958847366,10.7963681366 14.6705180625,10.8414639116 14.6705180625,10.8696481697 C 14.6705180625,10.8978336303 14.6451513884,10.9344730456 14.6141483437,10.9513845625 C 14.5775077259,10.9711136634 14.557778625,11.0105730678 14.557778625,11.0613052134 C 14.557778625,11.1035822018 14.5324119509,11.1627707072 14.5014089062,11.1909561678 C 14.467587075,11.2219592125 14.4450391875,11.2783289312 14.4450391875,11.33469865 C 14.4450391875,11.3995235259 14.4281276706,11.4389829303 14.3886694687,11.4587120313 C 14.3463924803,11.4812599188 14.33229975,11.5179005366 14.33229975,11.6024545134 C 14.33229975,11.6757357491 14.3125706491,11.7433794116 14.2759300312,11.7884751866 C 14.2392894134,11.8335709616 14.2195603125,11.9040322081 14.2195603125,11.9773134437 C 14.2195603125,12.0449571063 14.197012425,12.1210559259 14.1660093803,12.1605153303 L 14.1152760322,12.2281589928 L 13.836246225,11.9744946572 C 13.6812297991,11.8335709616 12.4890093456,10.6554432384 11.1840506572,9.3561209206 L 8.8137036831,6.99141151967 L 8.6276842125,6.62500894908 C 8.43884595533,6.25578638935 8.23873255185,5.71745587592 8.2049107206,5.48352184375 C 8.16827130533,5.2524053956 8.10344522685,5.09175259908 8.01889125,5.03256409375 C 7.91460696967,4.9592828581 7.75113538658,4.9592828581 7.62430321875,5.03538288033 Z M 3.21337242592,18.5584778072 C 2.98225718033,18.5894820544 2.7201376875,18.7670463678 2.7201376875,18.8938773331 C 2.7201376875,18.9220627938 2.69477101342,18.9699773553 2.66376796875,18.9981616134 C 2.62430856435,19.0348022313 2.60739825,19.0855355794 2.60739825,19.1672707697 C 2.60739825,19.2490071625 2.62430856435,19.2997405107 2.66376796875,19.3363799259 C 2.69477101342,19.3645653866 2.7201376875,19.4152975322 2.7201376875,19.4491193634 C 2.7201376875,19.5674963741 2.88642805717,19.6605067107 3.23592031342,19.7309679572 C 3.45576281783,19.7788825187 3.734792625,19.9028959 3.734792625,19.9564468322 C 3.734792625,19.9761771357 3.76015929908,20.0128165509 3.79116234375,20.0410020116 C 3.8418956919,20.0860977866 3.8475320625,20.128374775 3.8475320625,20.4214973125 C 3.8475320625,20.71461985 3.8418956919,20.7568968384 3.79116234375,20.8019926134 C 3.76015929908,20.8301780741 3.734792625,20.8752738491 3.734792625,20.9034581072 C 3.734792625,20.9316435678 3.70942595092,20.9682829831 3.67842290625,20.9851945 C 3.64741986158,21.0021060169 3.6220531875,21.0387454322 3.6220531875,21.0697496794 C 3.6220531875,21.1007527241 3.59668651342,21.1373921393 3.56568346875,21.1543036562 C 3.53468042408,21.1712151732 3.50931375,21.2022182178 3.50931375,21.2219473187 C 3.50931375,21.2444952062 3.48394707592,21.2670430937 3.45294403125,21.2754982509 C 3.42194098658,21.2839534081 3.3965743125,21.3093200822 3.3965743125,21.3346867562 C 3.3965743125,21.3600534303 3.38248158217,21.3797825312 3.3683900544,21.3797825312 C 3.3514785375,21.3797825312 3.283834875,21.4305146768 3.22182878565,21.4925219687 C 3.15700270717,21.5545292607 3.09499661783,21.6052614062 3.08372267408,21.6052614062 C 3.04426326967,21.6052614062 3.02735295533,21.7546414616 3.058356,21.842014225 C 3.07526631435,21.8899287866 3.11754450533,21.9519348759 3.15418512315,21.97730155 C 3.2161912125,22.022397325 3.22464636967,22.0195785384 3.52622406435,21.7856445062 C 4.08710366783,21.3515982732 4.34640437408,21.0612933197 4.55215414815,20.6300646706 C 4.69307784375,20.3425797062 4.73253724815,20.1368299322 4.73535483217,19.7309679572 C 4.73535483217,19.3814757009 4.73253724815,19.3561102294 4.65361843935,19.1954562303 C 4.54369778842,18.9699773553 4.2703055544,18.6994027053 4.10119639815,18.6458517732 C 4.03073394908,18.6261214697 3.96309028658,18.5979372116 3.94617876967,18.5866632678 C 3.90390178125,18.5584778072 3.374026425,18.5359299197 3.21337242592,18.5584778072 Z"/></svg>
