<svg xmlns="http://www.w3.org/2000/svg" width="24" height="24" viewBox="0 0 24 24"><path d="M12.133594 4.209375C12.014063 4.253906 11.90625 4.335938 11.90625 4.3875C11.90625 4.408594 11.885156 4.439062 11.859375 4.453125C11.833594 4.467188 11.8125 4.490625 11.8125 4.507031C11.8125 4.523438 11.791406 4.549219 11.765625 4.565625C11.739844 4.582031 11.71875 4.610156 11.71875 4.628906C11.71875 4.647656 11.697656 4.673438 11.671875 4.6875C11.646094 4.701562 11.625 4.732031 11.625 4.757813C11.625 4.783594 11.603906 4.814063 11.578125 4.828125C11.552344 4.842187 11.53125 4.872656 11.53125 4.898438C11.53125 4.924219 11.510156 4.954688 11.484375 4.96875C11.453906 4.985156 11.4375 5.017969 11.4375 5.060156C11.4375 5.095313 11.416406 5.144531 11.390625 5.167969C11.360156 5.196094 11.34375 5.240625 11.34375 5.296875C11.34375 5.353125 11.327344 5.397656 11.296875 5.425781C11.259375 5.458594 11.25 5.498437 11.25 5.603906C11.25 5.685937 11.23125 5.789063 11.203125 5.859375C11.163281 5.960156 11.15625 6.032812 11.15625 6.323438C11.15625 6.616406 11.163281 6.684375 11.203125 6.771094C11.228906 6.827344 11.25 6.91875 11.25 6.975C11.25 7.052344 11.261719 7.082813 11.296875 7.101563C11.329688 7.120313 11.34375 7.150781 11.34375 7.207031C11.34375 7.263281 11.357813 7.29375 11.390625 7.3125C11.41875 7.326563 11.4375 7.361719 11.4375 7.394531C11.4375 7.427344 11.45625 7.4625 11.484375 7.476563C11.510156 7.490625 11.53125 7.514063 11.53125 7.528125C11.53125 7.579687 11.845313 7.851563 12.004688 7.933594C12.161719 8.015625 12.569531 8.175 12.885938 8.278125C13.003125 8.315625 13.040625 8.339063 13.057031 8.388281C13.073438 8.430469 13.073438 8.460938 13.057031 8.489062C13.042969 8.5125 13.03125 8.545312 13.03125 8.566406C13.03125 8.585156 13.010156 8.610937 12.984375 8.625C12.953906 8.641406 12.9375 8.674219 12.9375 8.71875C12.9375 8.763281 12.921094 8.796094 12.890625 8.8125C12.860156 8.828906 12.84375 8.861719 12.84375 8.90625C12.84375 8.950781 12.827344 8.983594 12.796875 9C12.766406 9.016406 12.75 9.049219 12.75 9.09375C12.75 9.138281 12.733594 9.171094 12.703125 9.1875C12.677344 9.201563 12.65625 9.236719 12.65625 9.267187C12.65625 9.297656 12.635156 9.339844 12.609375 9.363281C12.583594 9.386719 12.5625 9.435938 12.5625 9.471094C12.5625 9.513281 12.546094 9.546094 12.515625 9.5625C12.482813 9.578906 12.46875 9.611719 12.46875 9.665625C12.46875 9.7125 12.45 9.759375 12.421875 9.785156C12.386719 9.815625 12.375 9.857813 12.375 9.9375C12.375 10.0125 12.360937 10.066406 12.328125 10.108594C12.3 10.14375 12.28125 10.202344 12.375 10.258594C12.375 10.307813 12.358594 10.373437 12.3375 10.401563C12.311719 10.439063 12.304688 10.478906 12.316406 10.530469C12.360937 10.74375 12.35625 10.797656 12.295313 10.896094C12.260156 10.947656 12.227344 10.992188 12.220312 10.992188C12.192187 10.992188 12 10.842188 12 10.821094C12 10.807031 11.925 10.715625 11.83125 10.619531C11.7375 10.521094 11.545313 10.319531 11.402344 10.171875C11.151563 9.907031 10.563281 9.283594 10.450781 9.161719C10.420312 9.126562 10.251562 8.948437 10.075781 8.763281C9.9 8.578125 9.73125 8.397656 9.700781 8.364844C9.670312 8.329687 9.454687 8.104687 9.222656 7.860937C8.625 7.235156 8.460938 7.061719 8.320313 6.902344C8.25 6.825 8.144531 6.707812 8.08125 6.642187C7.78125 6.325781 7.469531 5.821875 7.357031 5.477344C7.300781 5.299219 7.242188 4.992188 7.239844 4.851563C7.2375 4.708594 7.192969 4.59375 7.115625 4.5375C7.028906 4.471875 6.810938 4.476563 6.745313 4.546875C6.721875 4.572656 6.691406 4.59375 6.679688 4.59375C6.665625 4.59375 6.65625 4.605469 6.65625 4.619531C6.65625 4.633594 6.592969 4.70625 6.515625 4.78125C6.438281 4.85625 6.375 4.928906 6.375 4.942969C6.375 4.957031 6.353906 4.980469 6.328125 4.996875C6.302344 5.013281 6.28125 5.046094 6.28125 5.067188C6.28125 5.090625 6.260156 5.11875 6.234375 5.132813C6.208594 5.146875 6.1875 5.179688 6.1875 5.203125C6.1875 5.228906 6.166406 5.261719 6.140625 5.278125C6.114844 5.294531 6.09375 5.332031 6.09375 5.360156C6.09375 5.388281 6.072656 5.423438 6.046875 5.4375C6.01875 5.451563 6 5.486719 6 5.519531C6 5.552344 5.98125 5.5875 5.953125 5.601563C5.917969 5.620313 5.90625 5.650781 5.90625 5.716406C5.90625 5.775 5.889844 5.819531 5.859375 5.847656C5.826562 5.878125 5.8125 5.920313 5.8125 5.995313C5.8125 6.058594 5.79375 6.128906 5.765625 6.178125C5.721094 6.248438 5.716406 6.292969 5.716406 6.773438C5.716406 7.253906 5.721094 7.298437 5.765625 7.36875C5.798438 7.425 5.8125 7.485937 5.8125 7.586719C5.8125 7.696875 5.821875 7.736719 5.859375 7.769531C5.8875 7.795313 5.90625 7.842188 5.90625 7.891406C5.90625 7.940625 5.922656 7.985156 5.953125 8.008594C5.978906 8.032031 6 8.074219 6 8.102344C6 8.132813 6.021094 8.175 6.046875 8.196094C6.072656 8.219531 6.09375 8.261719 6.09375 8.289844C6.09375 8.317969 6.114844 8.353125 6.140625 8.367188C6.166406 8.38125 6.1875 8.411719 6.1875 8.4375C6.1875 8.463281 6.208594 8.49375 6.234375 8.507813C6.260156 8.521875 6.28125 8.547656 6.28125 8.566406C6.28125 8.585156 6.302344 8.610937 6.328125 8.625C6.353906 8.639063 6.375 8.669531 6.375 8.695313C6.375 8.721094 6.396094 8.751562 6.421875 8.765625C6.447656 8.779688 6.46875 8.800781 6.46875 8.8125C6.46875 8.824219 6.529688 8.896875 6.607031 8.974219C6.682031 9.049219 6.75 9.128906 6.757031 9.15C6.766406 9.171094 6.7875 9.1875 6.808594 9.1875C6.827344 9.1875 6.84375 9.199219 6.84375 9.213281C6.84375 9.227344 6.907031 9.3 6.984375 9.377344C7.061719 9.452344 7.125 9.520313 7.125 9.527344C7.125 9.546094 7.2375 9.649219 7.275 9.663281C7.296094 9.672656 7.3125 9.69375 7.3125 9.7125C7.3125 9.73125 7.333594 9.754688 7.359375 9.761719C7.385156 9.76875 7.40625 9.792188 7.40625 9.810938C7.40625 9.827344 7.427344 9.855469 7.453125 9.871875C7.478906 9.888281 7.5 9.911719 7.5 9.923438C7.5 9.932813 7.563281 10.003125 7.640625 10.078125C7.717969 10.153125 7.78125 10.225781 7.78125 10.242188C7.78125 10.267969 7.694531 10.354688 7.232812 10.797656C7.122656 10.903125 7.03125 11.001563 7.03125 11.013281C7.03125 11.025 7.010156 11.04375 6.984375 11.050781C6.958594 11.057813 6.9375 11.078906 6.9375 11.092969C6.9375 11.109375 6.895312 11.158594 6.84375 11.203125C6.792187 11.247656 6.75 11.296875 6.75 11.313281C6.75 11.329688 6.728906 11.353125 6.703125 11.367188C6.677344 11.38125 6.65625 11.407031 6.65625 11.425781C6.65625 11.444531 6.635156 11.470313 6.609375 11.484375C6.583594 11.498438 6.5625 11.526563 6.5625 11.55C6.5625 11.571094 6.541406 11.603906 6.515625 11.620313C6.489844 11.636719 6.46875 11.669531 6.46875 11.695313C6.46875 11.71875 6.447656 11.751563 6.421875 11.765625C6.396094 11.779688 6.375 11.810156 6.375 11.835938C6.375 11.861719 6.353906 11.892188 6.328125 11.90625C6.302344 11.920313 6.28125 11.955469 6.28125 11.983594C6.28125 12.011719 6.260156 12.049219 6.234375 12.065625C6.208594 12.082031 6.1875 12.119531 6.1875 12.152344C6.1875 12.185156 6.16875 12.220313 6.140625 12.234375C6.107812 12.250781 6.09375 12.283594 6.09375 12.3375C6.09375 12.384375 6.075 12.43125 6.046875 12.457031C6.01875 12.482813 6 12.529688 6 12.574219C6 12.616406 5.978906 12.672656 5.953125 12.703125C5.920312 12.740625 5.90625 12.789844 5.90625 12.874219C5.90625 12.953906 5.889844 13.017188 5.854687 13.073438C5.805469 13.153125 5.805469 13.174219 5.807812 13.879688C5.810156 14.573438 5.810156 14.603906 5.857031 14.6625C5.892187 14.707031 5.90625 14.758594 5.90625 14.847656C5.90625 14.939063 5.917969 14.978906 5.953125 15.011719C5.990625 15.044531 6 15.084375 6 15.1875C6 15.290625 6.009375 15.330469 6.046875 15.363281C6.077344 15.391406 6.09375 15.435938 6.09375 15.492188C6.09375 15.548438 6.110156 15.592969 6.140625 15.621094C6.175781 15.651563 6.1875 15.69375 6.1875 15.773438C6.1875 15.853125 6.199219 15.895313 6.234375 15.925781C6.267187 15.95625 6.28125 15.998438 6.28125 16.071094C6.28125 16.127344 6.302344 16.214063 6.328125 16.265625C6.365625 16.340625 6.375 16.403906 6.375 16.6125C6.375 16.8375 6.370312 16.872656 6.328125 16.910156C6.302344 16.933594 6.28125 16.96875 6.28125 16.9875C6.28125 17.08125 5.971875 17.275781 5.690625 17.357813C5.625 17.378906 5.540625 17.416406 5.503125 17.444531C5.442187 17.489063 5.4375 17.503125 5.4375 17.6625L5.4375 17.83125L5.526562 17.8875L5.613281 17.941406L7.148438 17.941406C8.777344 17.941406 8.777344 17.941406 8.873438 17.889844C9.142969 17.744531 9.335156 17.339062 9.400781 16.769531C9.426563 16.532812 9.4125 16.335938 9.351563 16.078125C9.248438 15.651562 9.100781 15.379688 8.669531 14.824219C7.886719 13.814062 7.74375 13.591406 7.624219 13.216406C7.567969 13.035937 7.563281 12.986719 7.563281 12.632813C7.563281 12.269531 7.565625 12.229687 7.633594 11.995313C7.74375 11.613281 7.973437 11.205469 8.203125 10.980469C8.296875 10.889063 8.296875 10.889063 8.332031 10.938281C8.350781 10.966406 8.404687 11.010938 8.449219 11.039063C8.49375 11.067187 8.53125 11.1 8.53125 11.111719C8.53125 11.123438 8.615625 11.219531 8.71875 11.322656C8.821875 11.428125 8.90625 11.519531 8.90625 11.524219C8.90625 11.53125 8.990625 11.617969 9.09375 11.71875C9.196875 11.819531 9.28125 11.90625 9.28125 11.913281C9.28125 11.917969 9.386719 12.030469 9.515625 12.161719C9.644531 12.292969 9.75 12.405469 9.75 12.4125C9.75 12.419531 9.897656 12.571875 10.078125 12.75C10.258594 12.928125 10.40625 13.080469 10.40625 13.085156C10.40625 13.089844 10.511719 13.202344 10.640625 13.335938C10.769531 13.467188 10.875 13.579688 10.875 13.584375C10.875 13.591406 10.982812 13.703906 11.116406 13.8375C11.3625 14.083594 11.676562 14.423438 11.765625 14.538281C11.79375 14.573438 11.826562 14.601563 11.842969 14.601563C11.86875 14.601563 13.680469 12.773438 13.717969 12.710156C13.732031 12.689063 13.713281 12.644531 13.659375 12.578906C13.157812 11.955469 12.982031 11.315625 13.080469 10.488281C13.141406 9.965625 13.324219 9.534375 13.797656 8.791406L13.891406 8.64375L13.942969 8.725781C13.971094 8.770312 14.008594 8.814844 14.027344 8.821875C14.046094 8.828906 14.0625 8.859375 14.0625 8.889844C14.0625 8.922656 14.078906 8.992969 14.097656 9.049219C14.125781 9.128906 14.128125 9.166406 14.107031 9.229688C14.085938 9.295313 14.088281 9.321094 14.123438 9.389063C14.184375 9.501563 14.308594 9.534375 14.451563 9.480469C14.582813 9.43125 14.625 9.375 14.789063 9.035156C14.955469 8.692969 15.032812 8.451563 15.079687 8.128125C15.126562 7.81875 15.126562 7.605469 15.082031 7.326563C14.995312 6.789844 14.760937 6.384375 14.360156 6.075C14.210156 5.957813 13.882031 5.784375 13.720313 5.735156C13.619531 5.704688 13.471875 5.655469 13.324219 5.601563C13.298438 5.592188 13.185938 5.540625 13.073438 5.486719C12.707813 5.310938 12.555469 5.071875 12.50625 4.596094C12.478125 4.3125 12.454687 4.253906 12.363281 4.21875C12.260156 4.18125 12.220312 4.178906 12.133594 4.209375ZM14.8125 12.539063C14.79375 12.550781 14.753906 12.5625 14.728125 12.5625C14.7 12.5625 14.650781 12.576563 14.617969 12.592969C14.540625 12.632813 14.34375 12.801562 14.34375 12.829687C14.34375 12.855469 14.013281 13.171875 13.9875 13.171875C13.978125 13.171875 13.96875 13.185938 13.96875 13.2C13.96875 13.216406 13.924219 13.267969 13.870312 13.3125C13.81875 13.357031 13.750781 13.415625 13.722656 13.44375C13.692187 13.471875 13.652344 13.5 13.63125 13.507031C13.610156 13.516406 13.59375 13.5375 13.59375 13.55625C13.59375 13.575 13.572656 13.598438 13.546875 13.605469C13.521094 13.6125 13.5 13.628906 13.5 13.640625C13.5 13.659375 13.10625 14.0625 13.0875 14.0625C13.073437 14.0625 12.375 14.763281 12.375 14.777344C12.375 14.796094 12.229687 14.929688 12.208594 14.929688C12.196875 14.929688 12.1875 14.94375 12.1875 14.960156C12.1875 14.976563 12.166406 15.002344 12.140625 15.01875C12.114844 15.035156 12.09375 15.060938 12.09375 15.077344C12.09375 15.091406 12.051562 15.142969 12 15.1875C11.948437 15.232031 11.90625 15.28125 11.90625 15.297656C11.90625 15.311719 11.885156 15.332813 11.859375 15.339844C11.833594 15.346875 11.8125 15.370313 11.8125 15.389063C11.8125 15.407813 11.800781 15.421875 11.786719 15.421875C11.760937 15.421875 11.625 15.548438 11.625 15.571875C11.625 15.595313 11.294531 15.914063 11.273438 15.914063C11.259375 15.914063 11.25 15.923437 11.25 15.9375C11.25 15.949219 11.08125 16.129688 10.875 16.338281C10.66875 16.544531 10.5 16.725 10.5 16.736719C10.5 16.748438 10.490625 16.757813 10.478906 16.757813C10.446094 16.757813 10.03125 17.177344 10.03125 17.2125C10.03125 17.228906 10.010156 17.261719 9.984375 17.285156C9.944531 17.322656 9.9375 17.357813 9.9375 17.547656C9.9375 17.7375 9.944531 17.770313 9.984375 17.805469C10.010156 17.828906 10.03125 17.859375 10.03125 17.875781C10.03125 17.894531 10.101563 17.971875 10.185938 18.053906C10.3125 18.171094 10.736719 18.597656 10.898438 18.771094C10.919531 18.792188 10.985156 18.850781 11.046094 18.902344C11.107031 18.953906 11.15625 19.005469 11.15625 19.014844C11.15625 19.057031 11.615625 19.485938 11.704687 19.525781C11.796094 19.567969 11.889844 19.570313 13.471875 19.570313L15.140625 19.570313L15.140625 19.396875C15.140625 19.228125 15.138281 19.223438 15.070313 19.195313C15.025781 19.176563 14.948437 19.171875 14.842969 19.183594C14.524219 19.214062 13.89375 19.207031 13.764844 19.169531L13.642969 19.136719L14.339062 18.433594C15.246094 17.517187 16.075781 16.671094 16.748437 15.967969C17.224219 15.473437 17.296875 15.389062 17.332031 15.28125C17.385937 15.119531 17.371875 14.922656 17.294531 14.779688C17.205469 14.613281 15.213281 12.590625 15.117187 12.571875C15.084375 12.564844 15.035156 12.548437 15.004687 12.536719C14.936719 12.508594 14.857031 12.510937 14.8125 12.539063ZM14.990625 12.975C15.15 13.082813 15.185156 13.113281 15.1875 13.132031C15.1875 13.155469 16.129687 14.090625 16.239844 14.179688C16.279687 14.2125 16.3125 14.245313 16.3125 14.257031C16.3125 14.282813 16.638281 14.601563 16.664062 14.601563C16.678125 14.601563 16.6875 14.610938 16.6875 14.625C16.6875 14.636719 16.729687 14.690625 16.78125 14.742188C16.832812 14.79375 16.875 14.847656 16.875 14.859375C16.875 14.871094 16.896094 14.892188 16.921875 14.90625C16.961719 14.927344 16.96875 14.955469 16.96875 15.098438L16.96875 15.264844L16.6875 15.54375C16.532812 15.698438 16.40625 15.832031 16.40625 15.84375C16.40625 15.855469 16.385156 15.871875 16.359375 15.878906C16.333594 15.885938 16.3125 15.907031 16.3125 15.925781C16.3125 15.944531 16.291406 15.965625 16.265625 15.972656C16.239844 15.979688 16.21875 15.998438 16.21875 16.010156C16.21875 16.021875 15.944531 16.305469 15.609375 16.640625C15.274219 16.975781 15 17.259375 15 17.271094C15 17.282813 14.978906 17.299219 14.955469 17.308594C14.929687 17.315625 14.903906 17.336719 14.896875 17.355469C14.889844 17.374219 14.864062 17.390625 14.840625 17.390625C14.814844 17.390625 14.782031 17.407031 14.765625 17.425781C14.749219 17.444531 14.728125 17.460938 14.71875 17.460938C14.709375 17.460938 14.458594 17.214844 14.165625 16.914844C13.870312 16.617188 13.371094 16.110938 13.057031 15.794531C12.742969 15.475781 12.489844 15.20625 12.494531 15.192188C12.499219 15.180469 13.005469 14.6625 13.617187 14.041406C14.678906 12.967969 14.735156 12.914063 14.814844 12.914063C14.86875 12.914063 14.934375 12.9375 14.990625 12.975Z"/></svg>
