<svg xmlns="http://www.w3.org/2000/svg" width="24" height="24" viewBox="0 0 24 24"><path d="M12.1875 3.864844C12.16875 3.878906 12.128906 3.890625 12.098438 3.890625C12.01875 3.890625 11.835938 3.991406 11.725781 4.099219C11.669531 4.153125 11.625 4.202344 11.625 4.211719C11.625 4.223438 11.582813 4.267969 11.53125 4.3125C11.479688 4.357031 11.4375 4.408594 11.4375 4.422656C11.4375 4.439063 11.416406 4.464844 11.390625 4.48125C11.364844 4.497656 11.34375 4.530469 11.34375 4.551563C11.34375 4.575 11.322656 4.605469 11.296875 4.621875C11.271094 4.638281 11.25 4.675781 11.25 4.703906C11.25 4.732031 11.228906 4.767188 11.203125 4.78125C11.175 4.795313 11.15625 4.830469 11.15625 4.863281C11.15625 4.896094 11.135156 4.933594 11.109375 4.95C11.08125 4.96875 11.0625 5.00625 11.0625 5.04375C11.0625 5.083594 11.04375 5.116406 11.015625 5.132813C10.980469 5.151563 10.96875 5.182031 10.96875 5.247656C10.96875 5.30625 10.952344 5.350781 10.921875 5.378906C10.886719 5.411719 10.875 5.451563 10.875 5.55C10.875 5.639063 10.860938 5.702344 10.825781 5.75625C10.78125 5.828906 10.778906 5.871094 10.778906 6.346875C10.778906 6.832031 10.792969 6.960938 10.849219 6.996094C10.863281 7.003125 10.875 7.05 10.875 7.099219C10.875 7.157813 10.891406 7.202344 10.921875 7.230469C10.947656 7.253906 10.96875 7.303125 10.96875 7.338281C10.96875 7.380469 10.9875 7.417969 11.015625 7.434375C11.041406 7.450781 11.0625 7.483594 11.0625 7.504688C11.0625 7.528125 11.083594 7.558594 11.109375 7.575C11.135156 7.591406 11.15625 7.624219 11.15625 7.645313C11.15625 7.66875 11.177344 7.699219 11.203125 7.715625C11.228906 7.732031 11.25 7.755469 11.25 7.767188C11.25 7.804688 11.514844 8.036719 11.707031 8.167969C11.871094 8.278125 12.023438 8.355469 12.419531 8.533594C12.475781 8.559375 12.515625 8.585156 12.508594 8.594531C12.501563 8.601563 12.510938 8.622656 12.529688 8.641406C12.560156 8.674219 12.560156 8.683594 12.517969 8.728125C12.489844 8.75625 12.46875 8.796094 12.46875 8.817188C12.46875 8.835938 12.447656 8.871094 12.421875 8.894531C12.396094 8.917969 12.375 8.967188 12.375 9.002344C12.375 9.044531 12.358594 9.077344 12.328125 9.09375C12.297656 9.110156 12.28125 9.142969 12.28125 9.1875C12.28125 9.232031 12.264844 9.264844 12.234375 9.28125C12.203906 9.297656 12.1875 9.330469 12.1875 9.375C12.1875 9.419531 12.171094 9.452344 12.140625 9.46875C12.107813 9.485156 12.09375 9.517969 12.09375 9.569531C12.09375 9.61875 12.077344 9.653906 12.046875 9.675C12.011719 9.696094 12 9.728906 12 9.808594C12 9.883594 11.98125 9.939844 11.929688 10.014844C11.892187 10.073438 11.859375 10.132031 11.859375 10.146094C11.859375 10.202344 11.807813 10.160156 11.538281 9.883594C11.292188 9.632813 10.814063 9.135938 10.746094 9.060938C10.689844 9 9.405469 7.645313 9.339844 7.579688C9.271875 7.509375 8.730469 6.9375 8.533594 6.726563C8.3625 6.54375 8.053125 6.159375 7.917188 5.9625C7.696875 5.641406 7.603125 5.388281 7.521094 4.898438C7.469531 4.586719 7.420313 4.464844 7.303125 4.340625C7.183594 4.211719 7.080469 4.171875 6.876563 4.171875C6.721875 4.171875 6.679688 4.18125 6.5625 4.244531C6.428906 4.314844 6.09375 4.6125 6.09375 4.659375C6.09375 4.673438 6.072656 4.692188 6.046875 4.699219C6.021094 4.70625 6 4.734375 6 4.757813C6 4.783594 5.978906 4.814063 5.953125 4.828125C5.927344 4.842188 5.90625 4.867969 5.90625 4.886719C5.90625 4.905469 5.885156 4.93125 5.859375 4.945313C5.833594 4.959375 5.8125 4.9875 5.8125 5.010938C5.8125 5.032031 5.791406 5.064844 5.765625 5.08125C5.739844 5.097656 5.71875 5.135156 5.71875 5.167969C5.71875 5.200781 5.7 5.235938 5.671875 5.25C5.641406 5.266406 5.625 5.299219 5.625 5.341406C5.625 5.376563 5.603906 5.425781 5.578125 5.449219C5.552344 5.472656 5.53125 5.521875 5.53125 5.557031C5.53125 5.599219 5.5125 5.636719 5.484375 5.653125C5.451563 5.674219 5.4375 5.709375 5.4375 5.767969C5.4375 5.821875 5.421094 5.866406 5.390625 5.894531C5.355469 5.925 5.34375 5.967188 5.34375 6.049219C5.34375 6.117188 5.325 6.199219 5.294531 6.255469C5.25 6.342188 5.247656 6.379688 5.254688 6.897656C5.261719 7.380469 5.266406 7.448438 5.301563 7.485938C5.329688 7.514063 5.34375 7.563281 5.34375 7.638281C5.34375 7.720313 5.355469 7.7625 5.390625 7.792969C5.423438 7.823438 5.4375 7.865625 5.4375 7.935938C5.4375 8.013281 5.449219 8.04375 5.484375 8.0625C5.517188 8.078906 5.53125 8.111719 5.53125 8.163281C5.53125 8.2125 5.547656 8.247656 5.578125 8.26875C5.608594 8.2875 5.625 8.322656 5.625 8.367188C5.625 8.411719 5.641406 8.446875 5.671875 8.465625C5.697656 8.482031 5.71875 8.514844 5.71875 8.535938C5.71875 8.559375 5.739844 8.589844 5.765625 8.60625C5.791406 8.622656 5.8125 8.657813 5.8125 8.685938C5.8125 8.714063 5.828906 8.742188 5.847656 8.751563C5.866406 8.758594 5.894531 8.791406 5.90625 8.821875C5.929688 8.885156 5.948438 8.910938 6.09375 9.065625C6.145313 9.121875 6.1875 9.173438 6.1875 9.178125C6.1875 9.185156 6.292969 9.295313 6.421875 9.421875C6.550781 9.548438 6.65625 9.660938 6.65625 9.672656C6.65625 9.682031 6.698438 9.721875 6.75 9.759375C6.801563 9.799219 6.84375 9.84375 6.84375 9.860156C6.84375 9.876563 6.860156 9.890625 6.878906 9.890625C6.9 9.890625 6.925781 9.916406 6.935156 9.946875C6.946875 9.977344 6.975 10.007813 6.99375 10.014844C7.014844 10.024219 7.03125 10.045313 7.03125 10.064063C7.03125 10.085156 7.052344 10.110938 7.078125 10.125C7.113281 10.14375 7.125 10.174219 7.125 10.244531C7.125 10.324219 7.110938 10.35 7.017188 10.436719C6.792188 10.640625 6.75 10.682813 6.75 10.694531C6.75 10.701563 6.686719 10.771875 6.609375 10.851563C6.532031 10.93125 6.46875 11.003906 6.46875 11.015625C6.46875 11.027344 6.447656 11.048438 6.421875 11.0625C6.396094 11.076563 6.375 11.102344 6.375 11.121094C6.375 11.139844 6.353906 11.167969 6.328125 11.184375C6.302344 11.200781 6.28125 11.226563 6.28125 11.242969C6.28125 11.259375 6.260156 11.282813 6.234375 11.296875C6.208594 11.310938 6.1875 11.336719 6.1875 11.355469C6.1875 11.374219 6.166406 11.402344 6.140625 11.41875C6.114844 11.435156 6.09375 11.467969 6.09375 11.489063C6.09375 11.5125 6.072656 11.542969 6.046875 11.559375C6.021094 11.575781 6 11.613281 6 11.641406C6 11.669531 5.978906 11.704688 5.953125 11.71875C5.927344 11.732813 5.90625 11.763281 5.90625 11.789063C5.90625 11.814844 5.885156 11.845313 5.859375 11.859375C5.833594 11.873438 5.8125 11.908594 5.8125 11.939063C5.8125 11.969531 5.791406 12.011719 5.765625 12.035156C5.739844 12.058594 5.71875 12.105469 5.71875 12.140625C5.71875 12.175781 5.697656 12.222656 5.671875 12.246094C5.641406 12.274219 5.625 12.31875 5.625 12.372656C5.625 12.43125 5.610938 12.466406 5.578125 12.4875C5.545313 12.508594 5.53125 12.541406 5.53125 12.607031C5.53125 12.665625 5.514844 12.710156 5.484375 12.738281C5.446875 12.771094 5.4375 12.810938 5.4375 12.925781C5.4375 13.038281 5.425781 13.082813 5.390625 13.125C5.350781 13.169531 5.34375 13.211719 5.34375 13.371094C5.34375 13.490625 5.329688 13.596094 5.308594 13.647656C5.264063 13.755469 5.264063 13.961719 5.308594 14.069531C5.329688 14.121094 5.34375 14.228906 5.34375 14.339063C5.34375 14.489063 5.353125 14.535938 5.390625 14.585156C5.423438 14.627344 5.4375 14.678906 5.4375 14.770313C5.4375 14.854688 5.451563 14.917969 5.484375 14.964844C5.517188 15.014063 5.53125 15.075 5.53125 15.166406C5.53125 15.264844 5.542969 15.311719 5.578125 15.351563C5.610938 15.389063 5.625 15.438281 5.625 15.515625C5.625 15.595312 5.636719 15.6375 5.671875 15.667969C5.707031 15.698437 5.71875 15.740625 5.71875 15.822656C5.71875 15.911719 5.728125 15.944531 5.765625 15.965625C5.800781 15.989063 5.8125 16.021875 5.8125 16.10625C5.8125 16.185938 5.824219 16.223438 5.852344 16.239844C5.899219 16.265625 5.932031 16.542188 5.908594 16.710938C5.894531 16.804688 5.8875 16.814063 5.742188 16.889063C5.657813 16.93125 5.56875 16.96875 5.540625 16.96875C5.449219 16.96875 5.200781 17.109375 5.083594 17.226563C4.982813 17.327344 4.96875 17.353125 4.96875 17.439844C4.96875 17.496094 4.957031 17.575781 4.940625 17.617969C4.917188 17.68125 4.917188 17.707031 4.940625 17.742188C4.957031 17.767969 4.96875 17.826563 4.96875 17.871094C4.96875 17.927344 4.982813 17.9625 5.015625 17.98125C5.041406 17.997656 5.0625 18.028125 5.0625 18.049219C5.0625 18.09375 5.207813 18.215625 5.334375 18.274219C5.41875 18.314063 5.535938 18.316406 7.117969 18.323438C8.763281 18.330469 8.8125 18.328125 8.94375 18.28125C9.13125 18.215625 9.248438 18.128906 9.370313 17.964844C9.792188 17.4 9.904688 16.488281 9.642188 15.761719C9.475781 15.297656 9.311719 15.039844 8.707031 14.285156C8.067188 13.485938 7.900781 13.122656 7.928906 12.574219C7.942969 12.283594 8.020313 12.030469 8.186719 11.711719C8.294531 11.507813 8.34375 11.442188 8.34375 11.505469C8.34375 11.517188 8.38125 11.55 8.428125 11.580469C8.521875 11.636719 8.625 11.732813 8.625 11.763281C8.625 11.775 8.772656 11.934375 8.953125 12.119531C9.133594 12.304688 9.28125 12.459375 9.28125 12.461719C9.28125 12.46875 9.616406 12.815625 10.073438 13.279688C10.25625 13.467188 10.40625 13.626563 10.40625 13.63125C10.40625 13.638281 10.553906 13.790625 10.734375 13.96875C10.914844 14.149219 11.0625 14.30625 11.0625 14.317969C11.0625 14.329688 11.078906 14.34375 11.097656 14.353125C11.116406 14.360156 11.144531 14.392969 11.160938 14.425781C11.175 14.458594 11.200781 14.484375 11.219531 14.484375C11.235938 14.484375 11.25 14.496094 11.25 14.510156C11.25 14.524219 11.315625 14.601563 11.397656 14.683594C11.477344 14.765625 11.64375 14.939063 11.765625 15.072656C11.8875 15.203906 12.13125 15.461719 12.307031 15.642188C12.482813 15.825 12.65625 16.007813 12.69375 16.05C12.73125 16.094531 12.822656 16.190625 12.897656 16.265625C12.970313 16.342969 13.03125 16.420313 13.03125 16.439063C13.03125 16.457813 13.052344 16.485938 13.078125 16.5C13.103906 16.514063 13.125 16.544531 13.125 16.570313C13.125 16.596094 13.146094 16.626563 13.171875 16.640625C13.197656 16.654688 13.21875 16.685156 13.21875 16.710938C13.21875 16.736719 13.239844 16.767188 13.265625 16.78125C13.298438 16.797656 13.3125 16.830469 13.3125 16.884375C13.3125 16.93125 13.33125 16.978125 13.359375 17.003906C13.392188 17.032031 13.40625 17.076563 13.40625 17.142188C13.40625 17.198438 13.425 17.266406 13.453125 17.308594C13.490625 17.364844 13.5 17.41875 13.5 17.580469C13.5 17.746875 13.509375 17.79375 13.546875 17.842969C13.572656 17.875781 13.59375 17.934375 13.59375 17.974219C13.59375 18.021094 13.610156 18.053906 13.640625 18.070313C13.666406 18.084375 13.6875 18.114844 13.6875 18.138281C13.6875 18.194531 13.846875 18.3375 13.961719 18.389063C14.017969 18.414844 14.11875 18.428906 14.226563 18.43125C14.477344 18.433594 14.620313 18.360938 14.894531 18.084375C15.330469 17.64375 15.630469 17.08125 15.766406 16.453125C15.799219 16.29375 15.808594 16.148438 15.808594 15.738281C15.808594 15.236719 15.80625 15.213281 15.735938 14.941406C15.546094 14.2125 15.269531 13.783594 14.423438 12.914063C14.048438 12.527344 13.832813 12.271875 13.713281 12.072656C13.530469 11.772656 13.429688 11.385938 13.429688 10.992188C13.429688 10.558594 13.497656 10.2375 13.671094 9.860156L13.764844 9.653906L13.825781 9.7125C13.858594 9.745313 13.954688 9.801563 14.039063 9.841406C14.332031 9.979688 14.601563 9.928125 14.845313 9.686719C15.135938 9.396094 15.346875 8.957813 15.471094 8.378906C15.539063 8.071875 15.54375 7.490625 15.482813 7.207031C15.346875 6.585938 15.086719 6.189844 14.545313 5.782031C14.392969 5.667188 13.933594 5.446875 13.617188 5.332031C13.026563 5.121094 12.935156 5.020313 12.907031 4.563281C12.888281 4.286719 12.832031 4.139063 12.691406 4.010156C12.560156 3.890625 12.271875 3.808594 12.1875 3.864844ZM12.370313 4.352344L12.46875 4.415625L12.46875 4.642969C12.46875 4.8375 12.475781 4.872656 12.515625 4.910156C12.546094 4.938281 12.5625 4.982813 12.5625 5.039063C12.5625 5.095313 12.578906 5.139844 12.609375 5.167969C12.635156 5.191406 12.65625 5.228906 12.65625 5.25C12.65625 5.303906 12.841406 5.463281 13.005469 5.552344C13.080469 5.592188 13.282031 5.676563 13.450781 5.742188C13.821094 5.880469 14.182031 6.063281 14.341406 6.189844C14.404688 6.239063 14.463281 6.28125 14.470313 6.28125C14.503125 6.28125 14.8125 6.609375 14.8125 6.642188C14.8125 6.663281 14.833594 6.689063 14.859375 6.703125C14.892188 6.721875 14.90625 6.752344 14.90625 6.808594C14.90625 6.8625 14.922656 6.904688 14.953125 6.930469C14.988281 6.960938 15 7.000781 15 7.078125C15 7.14375 15.01875 7.209375 15.046875 7.253906C15.089063 7.317188 15.09375 7.364063 15.09375 7.790625C15.09375 8.200781 15.089063 8.264063 15.053906 8.303906C15.023438 8.334375 15.009375 8.4 15.004688 8.519531C14.997656 8.653125 14.983594 8.702344 14.950781 8.732813C14.927344 8.753906 14.90625 8.803125 14.90625 8.838281C14.90625 8.880469 14.8875 8.917969 14.859375 8.934375C14.833594 8.950781 14.8125 8.988281 14.8125 9.016406C14.8125 9.044531 14.791406 9.079688 14.765625 9.09375C14.739844 9.107813 14.71875 9.142969 14.71875 9.171094C14.71875 9.199219 14.697656 9.236719 14.671875 9.253125C14.646094 9.269531 14.625 9.3 14.622656 9.323438C14.622656 9.344531 14.589844 9.389063 14.552344 9.419531C14.49375 9.464063 14.463281 9.473438 14.376563 9.461719C14.205469 9.442969 14.109375 9.314063 14.109375 9.103125C14.109375 9.002344 14.020313 8.753906 13.96875 8.707031C13.933594 8.674219 13.917188 8.671875 13.870313 8.697656C13.769531 8.751563 13.6875 8.852344 13.6875 8.922656C13.6875 8.9625 13.66875 9 13.640625 9.01875C13.614844 9.035156 13.59375 9.072656 13.59375 9.105469C13.59375 9.138281 13.575 9.173438 13.546875 9.1875C13.521094 9.201563 13.5 9.232031 13.5 9.255469C13.5 9.278906 13.478906 9.316406 13.453125 9.339844C13.427344 9.363281 13.40625 9.400781 13.40625 9.424219C13.40625 9.45 13.385156 9.480469 13.359375 9.496875C13.328906 9.517969 13.3125 9.553125 13.3125 9.602344C13.3125 9.653906 13.298438 9.686719 13.265625 9.703125C13.230469 9.721875 13.21875 9.752344 13.21875 9.827344C13.21875 9.897656 13.204688 9.939844 13.171875 9.967969C13.141406 9.99375 13.125 10.035938 13.125 10.094531C13.125 10.14375 13.103906 10.214063 13.078125 10.253906C13.042969 10.307813 13.03125 10.364063 13.03125 10.502344C13.03125 10.619531 13.019531 10.694531 12.996094 10.725C12.949219 10.788281 12.946875 11.221875 12.996094 11.2875C13.017188 11.315625 13.028906 11.390625 13.03125 11.498438C13.03125 11.629688 13.040625 11.678906 13.078125 11.725781C13.103906 11.758594 13.125 11.814844 13.125 11.854688C13.125 11.892188 13.146094 11.941406 13.171875 11.964844C13.2 11.990625 13.21875 12.0375 13.21875 12.079688C13.21875 12.126563 13.235156 12.164063 13.265625 12.182813C13.291406 12.199219 13.3125 12.236719 13.3125 12.269531C13.3125 12.302344 13.33125 12.3375 13.359375 12.351563C13.385156 12.365625 13.40625 12.39375 13.40625 12.417188C13.40625 12.438281 13.448438 12.503906 13.5 12.560156C13.551563 12.616406 13.59375 12.667969 13.59375 12.672656C13.59375 12.679688 13.635938 12.726563 13.6875 12.775781C13.739063 12.827344 13.78125 12.871875 13.78125 12.88125C13.78125 12.888281 13.907813 13.019531 14.0625 13.171875C14.217188 13.324219 14.34375 13.455469 14.34375 13.4625C14.34375 13.469531 14.385938 13.51875 14.4375 13.570313C14.489063 13.621875 14.53125 13.673438 14.53125 13.682813C14.53125 13.692188 14.573438 13.736719 14.625 13.78125C14.676563 13.825781 14.71875 13.875 14.71875 13.886719C14.71875 13.900781 14.697656 13.924219 14.671875 13.940625C14.646094 13.957031 14.71875 13.985156 14.71875 14.003906C14.71875 14.022656 14.739844 14.048438 14.765625 14.0625C14.791406 14.076563 14.8125 14.107031 14.8125 14.132813C14.8125 14.158594 14.833594 14.189063 14.859375 14.203125C14.885156 14.217188 14.90625 14.247656 14.90625 14.271094C14.90625 14.294531 14.927344 14.332031 14.953125 14.355469C14.978906 14.378906 15 14.416406 15 14.439844C15 14.465625 15.021094 14.496094 15.046875 14.5125C15.079688 14.533594 15.09375 14.56875 15.09375 14.627344C15.09375 14.68125 15.110156 14.725781 15.140625 14.753906C15.173438 14.784375 15.1875 14.826563 15.1875 14.903906C15.1875 14.964844 15.210938 15.058594 15.239063 15.117188C15.285938 15.215625 15.288281 15.260156 15.288281 15.825C15.288281 16.403906 15.285938 16.427344 15.236719 16.490625C15.203906 16.530469 15.1875 16.586719 15.1875 16.65C15.1875 16.717969 15.173438 16.760156 15.140625 16.788281C15.114844 16.809375 15.09375 16.85625 15.09375 16.89375C15.09375 16.93125 15.072656 16.980469 15.046875 17.003906C15.021094 17.027344 15 17.071875 15 17.1C15 17.130469 14.978906 17.167969 14.953125 17.184375C14.927344 17.200781 14.90625 17.238281 14.90625 17.266406C14.90625 17.294531 14.885156 17.329688 14.859375 17.34375C14.833594 17.357813 14.8125 17.388281 14.8125 17.414063C14.8125 17.439844 14.791406 17.470313 14.765625 17.484375C14.739844 17.498438 14.71875 17.521875 14.71875 17.535938C14.71875 17.547656 14.676563 17.601563 14.625 17.650781C14.573438 17.702344 14.53125 17.751563 14.53125 17.765625C14.53125 17.777344 14.510156 17.798438 14.484375 17.8125C14.458594 17.826563 14.4375 17.85 14.4375 17.866406C14.4375 17.922656 14.303906 18 14.205469 18C14.015625 18 13.896094 17.864063 13.863281 17.613281C13.804688 17.175 13.591406 16.603125 13.366406 16.282031C13.260938 16.129688 12.895313 15.684375 12.761719 15.548438C12.75 15.534375 12.569531 15.344531 12.363281 15.128906C12.157031 14.910938 11.85 14.589844 11.683594 14.416406C11.514844 14.240625 11.271094 13.9875 11.144531 13.851563C11.015625 13.717969 10.778906 13.469531 10.617188 13.300781C10.25625 12.928125 9.864844 12.517969 9.632813 12.271875C9.536719 12.171094 9.39375 12.023438 9.316406 11.941406C9.239063 11.861719 8.976563 11.589844 8.735156 11.336719C8.266406 10.846875 8.242969 10.832813 8.121094 10.9125C8.088281 10.933594 8.0625 10.971094 8.0625 10.994531C8.0625 11.017969 8.041406 11.048438 8.015625 11.0625C7.989844 11.076563 7.96875 11.107031 7.96875 11.132813C7.96875 11.158594 7.947656 11.189063 7.921875 11.203125C7.89375 11.217188 7.875 11.252344 7.875 11.285156C7.875 11.317969 7.85625 11.353125 7.828125 11.367188C7.8 11.38125 7.78125 11.416406 7.78125 11.449219C7.78125 11.482031 7.7625 11.517188 7.734375 11.53125C7.703906 11.547656 7.6875 11.580469 7.6875 11.625C7.6875 11.669531 7.671094 11.702344 7.640625 11.71875C7.610156 11.735156 7.59375 11.767969 7.59375 11.8125C7.59375 11.857031 7.577344 11.889844 7.546875 11.90625C7.511719 11.925 7.5 11.955469 7.5 12.0375C7.5 12.107813 7.483594 12.164063 7.450781 12.208594C7.40625 12.271875 7.403906 12.3 7.410938 12.721875C7.417969 13.10625 7.422656 13.174219 7.460156 13.211719C7.48125 13.2375 7.5 13.29375 7.5 13.340625C7.5 13.392188 7.516406 13.436719 7.546875 13.464844C7.572656 13.488281 7.59375 13.5375 7.59375 13.572656C7.59375 13.614844 7.6125 13.652344 7.640625 13.66875C7.666406 13.685156 7.6875 13.720313 7.6875 13.748438C7.6875 13.774219 7.708594 13.816406 7.734375 13.839844C7.760156 13.863281 7.78125 13.89375 7.78125 13.910156C7.78125 13.926563 7.802344 13.957031 7.828125 13.980469C7.853906 14.003906 7.875 14.036719 7.875 14.053125C7.875 14.069531 7.896094 14.095313 7.921875 14.109375C7.947656 14.123438 7.96875 14.149219 7.96875 14.165625C7.96875 14.182031 7.989844 14.214844 8.015625 14.238281C8.041406 14.261719 8.0625 14.294531 8.0625 14.310938C8.0625 14.329688 8.083594 14.355469 8.109375 14.371875C8.135156 14.388281 8.15625 14.414063 8.15625 14.425781C8.15625 14.439844 8.219531 14.517188 8.296875 14.599219C8.374219 14.68125 8.4375 14.760938 8.4375 14.779688C8.4375 14.796094 8.458594 14.821875 8.484375 14.835938C8.510156 14.85 8.53125 14.875781 8.53125 14.894531C8.53125 14.913281 8.552344 14.939063 8.578125 14.953125C8.603906 14.967188 8.625 14.990625 8.625 15.007031C8.625 15.023438 8.646094 15.049219 8.671875 15.065625C8.697656 15.082031 8.71875 15.110156 8.71875 15.128906C8.71875 15.147656 8.739844 15.173438 8.765625 15.1875C8.791406 15.201563 8.8125 15.236719 8.8125 15.264844C8.8125 15.292969 8.83125 15.328125 8.857031 15.344531C8.880469 15.358594 8.90625 15.403125 8.913281 15.442969C8.922656 15.485156 8.94375 15.515625 8.964844 15.515625C8.985938 15.515625 9 15.536719 9 15.574219C9 15.607031 9.01875 15.642188 9.046875 15.65625C9.079688 15.675 9.09375 15.705469 9.09375 15.761719C9.09375 15.815625 9.110156 15.857813 9.140625 15.883594C9.173438 15.911719 9.1875 15.953906 9.1875 16.024219C9.1875 16.078125 9.208594 16.176563 9.234375 16.242188C9.302344 16.413281 9.302344 16.849219 9.234375 16.994531C9.208594 17.055469 9.1875 17.149219 9.1875 17.219531C9.1875 17.317969 9.178125 17.346094 9.140625 17.367188C9.1125 17.38125 9.09375 17.416406 9.09375 17.449219C9.09375 17.482031 9.075 17.517188 9.046875 17.53125C9.021094 17.545313 9 17.580469 9 17.608594C9 17.636719 8.978906 17.674219 8.953125 17.690625C8.927344 17.707031 8.90625 17.735156 8.90625 17.753906C8.90625 17.789063 8.83125 17.828906 8.669531 17.880469C8.542969 17.920313 5.596875 17.915625 5.482031 17.875781C5.376563 17.838281 5.327344 17.798438 5.282813 17.714063C5.207813 17.571094 5.315625 17.444531 5.571094 17.378906C5.913281 17.2875 6.067969 17.172656 6.182813 16.924219C6.285938 16.699219 6.255469 16.385156 6.079688 15.846094C5.967188 15.50625 5.79375 14.86875 5.728125 14.566406C5.669531 14.292188 5.6625 14.214844 5.660156 13.804688C5.660156 13.364063 5.6625 13.335938 5.7375 13.047656C5.857031 12.567188 6 12.246094 6.290625 11.800781C6.522656 11.446875 6.759375 11.170313 7.249219 10.682813C7.476563 10.455469 7.664063 10.25625 7.664063 10.239844C7.664063 10.207031 7.591406 10.125 7.007813 9.515625C6.766406 9.264844 6.534375 9.016406 6.489844 8.964844C6.445313 8.913281 6.405469 8.866406 6.398438 8.859375C6.346875 8.810156 6.157031 8.566406 6.089063 8.460938C5.784375 7.985156 5.629688 7.565625 5.578125 7.054688C5.53125 6.576563 5.60625 6.16875 5.845313 5.620313C5.990625 5.2875 6.417188 4.715625 6.590625 4.626563C6.677344 4.582031 6.771094 4.584375 6.857813 4.638281C6.935156 4.685156 6.960938 4.755469 6.960938 4.93125C6.960938 4.982813 6.977344 5.048438 6.996094 5.071875C7.014844 5.097656 7.03125 5.167969 7.03125 5.226563C7.03125 5.30625 7.042969 5.348438 7.078125 5.378906C7.110938 5.407031 7.125 5.451563 7.125 5.517188C7.125 5.5875 7.136719 5.620313 7.171875 5.64375C7.204688 5.6625 7.21875 5.697656 7.21875 5.751563C7.21875 5.798438 7.2375 5.845313 7.265625 5.871094C7.291406 5.894531 7.3125 5.936719 7.3125 5.964844C7.3125 5.992969 7.333594 6.035156 7.359375 6.058594C7.385156 6.082031 7.40625 6.119531 7.40625 6.145313C7.40625 6.16875 7.427344 6.20625 7.453125 6.227344C7.478906 6.250781 7.5 6.28125 7.5 6.297656C7.5 6.314063 7.521094 6.3375 7.546875 6.351563C7.572656 6.365625 7.59375 6.391406 7.59375 6.410156C7.59375 6.428906 7.614844 6.454688 7.640625 6.46875C7.666406 6.482813 7.6875 6.513281 7.6875 6.539063C7.6875 6.564844 7.708594 6.595313 7.734375 6.609375C7.760156 6.623438 7.78125 6.644531 7.78125 6.658594C7.78125 6.672656 7.844531 6.747656 7.921875 6.825C7.999219 6.9 8.0625 6.967969 8.0625 6.975C8.0625 6.998438 8.758594 7.734375 9.464063 8.451563C9.569531 8.561719 9.65625 8.655469 9.65625 8.6625C9.65625 8.669531 9.803906 8.821875 9.984375 9C10.164844 9.178125 10.3125 9.332813 10.3125 9.339844C10.3125 9.349219 10.396875 9.440625 10.5 9.541406C10.603125 9.644531 10.6875 9.733594 10.6875 9.740625C10.6875 9.747656 10.771875 9.836719 10.875 9.9375C10.978125 10.038281 11.0625 10.129688 11.0625 10.136719C11.0625 10.146094 11.11875 10.214063 11.189063 10.286719C11.259375 10.359375 11.409375 10.51875 11.524219 10.638281C11.997656 11.144531 12.044531 11.191406 12.067969 11.167969C12.079688 11.153906 12.117188 10.942969 12.152344 10.699219C12.239063 10.080469 12.31875 9.846094 12.742969 8.997656C12.928125 8.625 13.078125 8.315625 13.078125 8.310938C13.078125 8.303906 13.000781 8.275781 12.909375 8.25C12.316406 8.076563 12.032813 7.942969 11.746875 7.703906C11.477344 7.476563 11.374219 7.354688 11.271094 7.134375C11.151563 6.885938 11.109375 6.717188 11.092969 6.433594C11.060156 5.866406 11.2125 5.353125 11.56875 4.814063C11.714063 4.591406 11.8875 4.392188 11.988281 4.33125C12.086719 4.272656 12.161719 4.277344 12.276562 4.352344Z"/></svg>
