<svg xmlns="http://www.w3.org/2000/svg" width="24" height="24" viewBox="0 0 24 24"><path d="M3.786641 2.714761 4.019681 2.485251H4.270376C4.648184 2.485251 4.82473 2.615895 4.82473 2.898369C4.82473 3.152595 4.937719 3.809345 5.001276 3.915272C5.036585 3.971767 5.107203 4.130658 5.160167 4.268364C5.21313 4.402539 5.315527 4.603801 5.386145 4.709728C5.506196 4.893336 11.780634 11.19249 12.070168 11.421999C12.19375 11.520864 12.200812 11.524395 12.221998 11.453777C12.232591 11.414937 12.260839 11.383159 12.278493 11.383159C12.296147 11.383159 12.310271 11.354912 12.310271 11.319602C12.310271 11.287824 12.342049 11.210144 12.380889 11.153649C12.419729 11.093624 12.451508 10.991227 12.451508 10.920609C12.451508 10.839397 12.476224 10.77231 12.522126 10.729939C12.560966 10.694631 12.592744 10.624012 12.592744 10.571048C12.592744 10.518085 12.624522 10.447466 12.663363 10.412157C12.702203 10.376848 12.733981 10.302699 12.733981 10.249735C12.733981 10.186178 12.758698 10.136745 12.804599 10.112029C12.850501 10.087313 12.875217 10.03788 12.875217 9.970793C12.875217 9.903706 12.899934 9.854272 12.945836 9.829556C12.988207 9.808371 13.016454 9.755406 13.016454 9.705974C13.016454 9.656541 13.048232 9.600046 13.087072 9.57533C13.125913 9.550613 13.157691 9.49765 13.157691 9.455279C13.157691 9.416439 13.189469 9.352882 13.228309 9.317574C13.267149 9.282264 13.298927 9.225769 13.298927 9.19046C13.298927 9.155151 13.330706 9.109249 13.369546 9.088063C13.408385 9.066878 13.440164 9.0351 13.440164 9.013914C13.440164 8.99626 13.535499 8.88327 13.652019 8.770281C13.779132 8.639637 13.853281 8.537241 13.842689 8.508993C13.814441 8.434844 13.701451 8.371287 13.440164 8.279484C13.016454 8.127655 12.352642 7.746316 12.109009 7.513275C11.985427 7.396755 11.886561 7.280235 11.886561 7.259049C11.886561 7.234333 11.854783 7.199024 11.815943 7.174307C11.777102 7.149591 11.745324 7.103689 11.745324 7.075442C11.745324 7.047194 11.713546 7.001293 11.674706 6.976576C11.635866 6.951859 11.604088 6.909489 11.604088 6.881241C11.604088 6.852994 11.572309 6.814154 11.533469 6.792968C11.494629 6.771783 11.462852 6.725881 11.462852 6.687041C11.462852 6.648201 11.431073 6.602299 11.392233 6.581113C11.3428 6.556397 11.321614 6.506964 11.321614 6.429284C11.321614 6.365728 11.289836 6.245677 11.250997 6.160934C11.1486 5.938487 11.1486 5.235835 11.250997 5.080474C11.300429 5.002794 11.321614 4.914521 11.321614 4.759161C11.321614 4.589677 11.335738 4.529652 11.392233 4.480219C11.431073 4.44491 11.462852 4.374291 11.462852 4.321328C11.462852 4.268364 11.494629 4.197745 11.533469 4.162436C11.572309 4.127127 11.604088 4.052978 11.604088 4.000014C11.604088 3.936458 11.632335 3.879963 11.674706 3.855247C11.713546 3.83053 11.745324 3.774036 11.745324 3.731665C11.745324 3.689294 11.777102 3.63633 11.815943 3.615144C11.854783 3.593959 11.886561 3.548057 11.886561 3.509217C11.886561 3.470377 11.918339 3.424475 11.957179 3.40329C11.996019 3.382104 12.027798 3.343264 12.027798 3.315017C12.027798 3.286769 12.059576 3.247929 12.098416 3.226744C12.137256 3.205558 12.169034 3.170249 12.169034 3.149064C12.169034 3.131409 12.232591 3.050198 12.310271 2.976049C12.387951 2.898369 12.451508 2.824219 12.451508 2.806565C12.451508 2.78891 12.483286 2.760663 12.522126 2.75007C12.560966 2.739477 12.592744 2.714761 12.592744 2.697106C12.592744 2.630019 12.899934 2.485251 13.04117 2.485251C13.291865 2.485251 13.411917 2.71123 13.397793 3.159656C13.383669 3.495093 13.468411 3.671639 13.81091 4.0212C14.100445 4.317797 14.259336 4.423724 14.570057 4.529652C15.244462 4.762692 16.190746 5.313515 16.593271 5.712508C16.783941 5.899647 17.024044 6.284517 17.077007 6.475186C17.098192 6.563459 17.154688 6.736474 17.200588 6.863587C17.278269 7.089565 17.348888 7.68629 17.331232 7.958171C17.310047 8.208866 17.175873 8.752626 17.080538 8.978605C17.024044 9.105719 16.967548 9.250485 16.953424 9.299918C16.939301 9.349352 16.896931 9.430562 16.861622 9.479996C16.826311 9.532959 16.780411 9.61417 16.762756 9.663603C16.7451 9.709505 16.646235 9.861334 16.547369 9.99904C16.286081 10.355662 16.091881 10.415688 15.749383 10.242673C15.576367 10.1544 15.572837 10.147338 15.526935 9.928422C15.502218 9.804839 15.466909 9.61064 15.449255 9.494119C15.413946 9.257547 15.38923 9.225769 15.187967 9.148089C15.007891 9.081002 14.894901 9.123373 14.707763 9.321104C14.425289 9.624763 13.969801 10.366255 13.694389 10.966511L13.531968 11.330195L13.517844 11.937512C13.516941 11.977983 13.515987 12.016548 13.515077 12.053389C13.507542 12.358001 13.502924 12.544668 13.554334 12.714363C13.642633 13.005825 13.896215 13.247213 14.584181 13.950134C16.127192 15.524922 16.547369 15.97335 16.547369 16.05456C16.547369 16.079277 16.58621 16.167549 16.635643 16.255823C16.776878 16.510048 16.900461 16.78899 16.900461 16.85961C16.900461 16.894918 16.93224 17.004377 16.971079 17.103243C17.055822 17.318628 17.119377 18.109552 17.091131 18.565041C17.059353 19.077024 16.851028 19.878542 16.692137 20.10099C16.653297 20.153954 16.582678 20.281067 16.533245 20.386993C16.441442 20.588255 16.127192 20.934286 15.685826 21.319155C15.456317 21.520418 15.442193 21.523949 15.283302 21.509825C15.191498 21.499231 15.057323 21.467453 14.986705 21.435675C14.880777 21.389774 14.85253 21.361526 14.85253 21.287376C14.85253 21.234413 14.820752 21.153202 14.781912 21.103769C14.721887 21.026089 14.711293 20.959002 14.711293 20.651812C14.711293 20.337561 14.704231 20.284597 14.640676 20.228102C14.594773 20.185732 14.570057 20.118645 14.570057 20.033901C14.570057 19.94916 14.545341 19.882072 14.499438 19.839703C14.460599 19.804392 14.428821 19.733774 14.428821 19.684341C14.428821 19.631378 14.400573 19.574883 14.358202 19.546637C14.319362 19.521919 14.287583 19.468956 14.287583 19.423054C14.287583 19.380682 14.255805 19.317125 14.216966 19.281816C14.178125 19.250038 14.146347 19.193544 14.146347 19.158236C14.146347 19.119394 14.114569 19.062901 14.075728 19.027592C14.036889 18.992283 14.005111 18.94285 14.005111 18.918133C14.005111 18.889885 13.973332 18.851046 13.934492 18.826328C13.895652 18.801613 13.863873 18.769835 13.863873 18.75218C13.863873 18.720402 8.14026 13.00738 7.508225 12.407125C7.250469 12.163491 6.975058 11.902204 6.897377 11.824523C6.816166 11.746843 6.657275 11.609138 6.540755 11.517334L6.3289 11.35138L6.254751 11.471432C6.21591 11.538519 6.06055 11.753905 5.908721 11.951636C5.548567 12.424779 5.506196 12.509521 5.4038 13.017973C5.322589 13.395781 5.315527 13.5123 5.329651 13.978382C5.350836 14.709281 5.372022 14.769307 5.926375 15.482552C6.590188 16.337034 6.742017 16.527702 7.006835 16.841955C7.271654 17.159737 7.451731 17.396309 7.621215 17.661127C7.652993 17.71409 7.744797 17.94713 7.826008 18.180172C7.94959 18.547386 7.974307 18.656845 7.991961 19.009937C8.02727 19.726713 7.991961 19.864418 7.550597 20.775394C7.518818 20.842482 7.412891 20.955471 7.314025 21.029621L7.137479 21.163795H2.250692L2.12711 21.043743C2.014121 20.937817 1.999997 20.906038 1.999997 20.740086C1.999997 20.574133 2.014121 20.542355 2.120048 20.443489C2.247161 20.323437 2.423707 20.245756 2.74149 20.175138C2.939221 20.132769 3.12989 20.005655 3.12989 19.920914C3.12989 19.896196 3.161669 19.853825 3.200509 19.829109C3.239349 19.804392 3.271127 19.747898 3.271127 19.701996C3.271127 19.656094 3.295843 19.5996 3.324091 19.574883C3.391178 19.518389 3.391178 19.303003 3.324091 19.186481C3.295843 19.137049 3.274658 19.016998 3.271127 18.921663C3.271127 18.812204 3.24641 18.709808 3.211101 18.660376C3.172261 18.603882 3.147545 18.476768 3.136952 18.296692C3.122828 18.070713 3.108705 18.010687 3.055741 17.982441C3.002777 17.957724 2.988654 17.908291 2.988654 17.777647C2.988654 17.661127 2.967468 17.579916 2.918035 17.516359C2.872133 17.459864 2.847417 17.375122 2.847417 17.269196C2.847417 17.159737 2.826231 17.09618 2.776799 17.050278C2.720304 16.997314 2.70618 16.940821 2.70618 16.753681C2.70618 16.587729 2.688526 16.492393 2.646155 16.432367C2.58966 16.354689 2.582598 16.252291 2.582598 15.584949C2.582598 14.928198 2.58966 14.811678 2.646155 14.712812C2.681464 14.645725 2.70618 14.525674 2.70618 14.409154C2.70618 14.267917 2.723835 14.197299 2.776799 14.137273C2.81917 14.08784 2.847417 14.006629 2.847417 13.925418C2.847417 13.840676 2.872133 13.773589 2.918035 13.731217C2.963937 13.688847 2.988654 13.621759 2.988654 13.533486C2.988654 13.434621 3.006308 13.388719 3.059272 13.360472C3.105174 13.335755 3.12989 13.286323 3.12989 13.219234C3.12989 13.152147 3.154607 13.102715 3.200509 13.077998C3.24288 13.056813 3.271127 13.003849 3.271127 12.954416C3.271127 12.904984 3.299374 12.852019 3.341745 12.830834C3.384116 12.809649 3.412364 12.756685 3.412364 12.707253C3.412364 12.65782 3.440611 12.604856 3.482982 12.58367C3.521822 12.562485 3.5536 12.516582 3.5536 12.477742C3.5536 12.442433 3.585378 12.400063 3.624218 12.38947C3.663059 12.378877 3.694837 12.343568 3.694837 12.315321C3.694837 12.290605 3.726615 12.248233 3.765455 12.223516C3.804295 12.1988 3.836073 12.149367 3.836073 12.117589C3.836073 12.08228 3.867852 12.039909 3.906692 12.018723C3.945532 11.997539 3.97731 11.948105 3.97731 11.909266C3.97731 11.866895 4.005558 11.828054 4.047928 11.817461C4.086768 11.806869 4.118546 11.782152 4.118546 11.757436C4.118546 11.73625 4.182103 11.662101 4.259783 11.595014C4.337463 11.527926 4.40102 11.450246 4.40102 11.425529C4.40102 11.404345 4.418674 11.383159 4.443391 11.383159C4.464576 11.383159 4.538725 11.323133 4.609344 11.248984C4.679962 11.174835 4.870632 11.008882 5.036585 10.8853C5.36496 10.638136 5.495604 10.518085 5.495604 10.468652C5.495604 10.450997 5.343774 10.285044 5.160167 10.097905C4.976559 9.914298 4.82473 9.755406 4.82473 9.748344C4.82473 9.737752 4.570504 9.476464 4.259783 9.158682C3.949063 8.844431 3.694837 8.579612 3.694837 8.569019C3.694837 8.558426 3.567724 8.427782 3.412364 8.275953C3.257003 8.124124 3.12989 7.975825 3.12989 7.944047C3.12989 7.9158 3.098112 7.873429 3.059272 7.852243C3.020432 7.831058 2.988654 7.785156 2.988654 7.749846C2.988654 7.714538 2.956875 7.658043 2.918035 7.622734C2.875664 7.583894 2.847417 7.513275 2.847417 7.442657C2.847417 7.361446 2.826231 7.312013 2.776799 7.287297C2.723835 7.259049 2.70618 7.213148 2.70618 7.114282C2.70618 7.026009 2.681464 6.958921 2.635562 6.916551C2.582598 6.867118 2.564944 6.807092 2.564944 6.655263C2.564944 6.524619 2.543758 6.425753 2.504918 6.369258C2.406053 6.228022 2.39546 5.691323 2.490794 5.419442C2.543758 5.271144 2.564944 5.115784 2.564944 4.921583C2.564944 4.681481 2.575536 4.628517 2.635562 4.579084C2.681464 4.536714 2.70618 4.473157 2.70618 4.388415C2.70618 4.307204 2.730897 4.240117 2.776799 4.197745C2.815639 4.162436 2.847417 4.091818 2.847417 4.038854C2.847417 3.985891 2.879195 3.915272 2.918035 3.879963C2.956875 3.844654 2.988654 3.788159 2.988654 3.75285C2.988654 3.71401 3.020432 3.668108 3.059272 3.643392C3.098112 3.618675 3.12989 3.569242 3.12989 3.537464C3.12989 3.502155 3.161669 3.459784 3.200509 3.438599C3.239349 3.417413 3.271127 3.375042 3.271127 3.339733C3.271127 3.307955 3.302905 3.258522 3.341745 3.233806C3.380585 3.209089 3.412364 3.166718 3.412364 3.138471C3.412364 3.110224 3.444142 3.071383 3.482982 3.050198C3.521822 3.029012 3.5536 2.997234 3.5536 2.97958C3.5536 2.958394 3.659528 2.841874 3.786641 2.714761ZM21.63895 9.61417C21.857866 9.578861 21.889645 9.578861 21.94614 9.61417C21.98851 9.642417 21.98851 9.847211 21.94614 10.998289C21.87199 13.067406 21.879053 18.526201 21.960264 19.744368C22.027351 20.740086 22.016758 20.888384 21.87199 21.022558C21.727222 21.153202 21.571863 21.18145 20.925705 21.18145C20.399599 21.18145 20.29014 21.170856 20.194805 21.117893C20.117125 21.079054 20.078285 21.029621 20.078285 20.980188C20.078285 20.937817 20.050037 20.87426 20.018259 20.835421C19.965296 20.778925 19.954702 20.701244 19.958235 20.319906C19.961765 20.055088 19.98295 19.818516 20.011198 19.733774C20.050037 19.620785 20.060631 18.826328 20.071224 15.613195L20.081816 11.630322L19.965296 11.524395C19.873491 11.443185 19.816998 11.421999 19.689884 11.418468C19.530993 11.418468 19.167309 11.492618 18.962517 11.566767C18.874243 11.598545 18.838934 11.595014 18.757723 11.54205C18.672981 11.485556 18.662388 11.460839 18.672981 11.301948L18.683573 11.125401L19.937048 10.493368C20.625578 10.147338 21.25761 9.811901 21.338821 9.751876C21.423565 9.691851 21.557739 9.628294 21.63895 9.61417Z"/></svg>
