<svg xmlns="http://www.w3.org/2000/svg" width="24" height="24" viewBox="0 0 24 24"><path d="M4.143303 3.401174C4.188089 3.394776 4.229676 3.38518 4.232874 3.381981C4.239273 3.381981 4.293655 3.401174 4.351236 3.429965C4.491991 3.497143 4.552771 3.596311 4.594358 3.820239C4.626348 3.996182 4.747908 4.440838 4.821484 4.642373C4.840678 4.693556 4.955841 4.946275 5.080601 5.202192L5.304528 5.666042L8.026848 8.381964C9.523964 9.875881 10.883524 11.219446 11.04987 11.366599L11.347374 11.632113L11.404956 11.561736C11.433746 11.520149 11.465735 11.420981 11.475333 11.337808C11.48493 11.254635 11.516919 11.165064 11.54571 11.136273C11.5777 11.104283 11.596893 11.030707 11.596893 10.944335C11.596893 10.83557 11.612888 10.793983 11.660872 10.768393C11.705658 10.745999 11.724853 10.701214 11.724853 10.630836C11.724853 10.563659 11.747245 10.515674 11.788832 10.486883C11.830418 10.461291 11.852811 10.413307 11.852811 10.352527C11.852811 10.291746 11.875203 10.246961 11.91679 10.224568C11.955177 10.205374 11.980769 10.15739 11.980769 10.112604C11.980769 10.067819 12.006361 10.019835 12.044748 10.000641C12.083137 9.981446 12.108728 9.933462 12.108728 9.888677C12.108728 9.843891 12.137519 9.792707 12.172708 9.770315C12.207896 9.747922 12.236687 9.69354 12.236687 9.648754C12.236687 9.603969 12.265477 9.549586 12.300666 9.527193C12.335855 9.504801 12.364645 9.460015 12.364645 9.424827C12.364645 9.389638 12.393435 9.344852 12.428624 9.32246C12.463813 9.300067 12.492604 9.268077 12.492604 9.248883C12.492604 9.232888 12.550185 9.16571 12.620563 9.10493C12.716532 9.021757 12.748521 8.967375 12.748521 8.893798C12.748521 8.807426 12.732526 8.791431 12.591772 8.740248C12.451017 8.692264 12.185503 8.541912 11.692863 8.234812C11.376164 8.039675 11.257803 7.940506 11.08186 7.722977C10.985891 7.604615 10.889922 7.499049 10.870728 7.492651C10.848335 7.483055 10.829142 7.447866 10.829142 7.412677C10.829142 7.377489 10.800351 7.332703 10.765162 7.313509C10.729974 7.294315 10.701183 7.246331 10.701183 7.207943C10.701183 7.169556 10.672393 7.118372 10.637204 7.09598C10.592419 7.070388 10.573224 7.022403 10.573224 6.945628C10.573224 6.868853 10.55403 6.827267 10.509245 6.801675C10.461261 6.776083 10.445266 6.734497 10.445266 6.648125C10.445266 6.580946 10.422873 6.497773 10.397282 6.462584C10.333302 6.379411 10.333302 5.973143 10.397282 5.886771C10.422873 5.854781 10.445266 5.768409 10.445266 5.698032C10.445266 5.60846 10.464459 5.550879 10.509245 5.512492C10.55403 5.474104 10.573224 5.419722 10.573224 5.330151C10.573224 5.24058 10.592419 5.186197 10.637204 5.14781C10.675591 5.112621 10.701183 5.051841 10.701183 4.987861C10.701183 4.917484 10.720377 4.872698 10.765162 4.850306C10.80355 4.831112 10.829142 4.783127 10.829142 4.738342C10.829142 4.693556 10.857932 4.642373 10.893121 4.61998C10.928309 4.597588 10.9571 4.546404 10.9571 4.508017C10.9571 4.46643 10.985891 4.418446 11.02108 4.396053C11.056269 4.37366 11.085059 4.322476 11.085059 4.284089C11.085059 4.245701 11.11385 4.197717 11.149038 4.178523C11.184227 4.159329 11.213017 4.117743 11.213017 4.082554C11.213017 4.047365 11.241808 4.005779 11.276997 3.986585C11.312185 3.967391 11.340977 3.932203 11.340977 3.90981C11.340977 3.884218 11.363369 3.858626 11.388961 3.845831C11.414553 3.836234 11.45294 3.791448 11.468935 3.746663C11.48493 3.701877 11.520119 3.666688 11.54571 3.666688C11.571301 3.666688 11.596893 3.657092 11.603292 3.641097C11.628883 3.583515 11.817622 3.484347 11.942382 3.465154C12.118325 3.436363 12.271875 3.500342 12.355048 3.637898C12.390237 3.698678 12.451017 3.913009 12.489405 4.114544C12.527793 4.316079 12.582175 4.517613 12.610966 4.562399C12.639756 4.607184 12.770914 4.751138 12.905271 4.882296C13.125999 5.099825 13.199575 5.14781 13.676221 5.384533C13.967327 5.528487 14.303219 5.691634 14.424779 5.746016C14.549539 5.800398 14.722283 5.899567 14.808655 5.966745C14.898226 6.033923 15.035782 6.126693 15.115756 6.177876C15.282102 6.283442 15.278903 6.277044 15.538019 6.657722C15.761947 6.984016 15.883508 7.227137 15.883508 7.348698C15.883508 7.396682 15.9059 7.495851 15.931492 7.569427C16.001869 7.764564 15.998671 8.570703 15.928293 8.813825C15.78114 9.316062 15.736355 9.434423 15.570009 9.728728C15.310893 10.198977 15.262908 10.269354 15.109358 10.394114C14.869435 10.592449 14.741477 10.608444 14.51755 10.474088C14.424779 10.419705 14.411983 10.394114 14.411983 10.275751C14.411983 10.182981 14.38959 10.112604 14.348004 10.06462C14.300019 10.010238 14.284024 9.946258 14.284024 9.808702C14.284024 9.655152 14.271229 9.616765 14.20405 9.559183C14.159265 9.520796 14.11128 9.488806 14.095285 9.488806C14.07929 9.488806 14.0505 9.466413 14.028108 9.440822C14.005714 9.41523 13.954531 9.392837 13.916143 9.392837C13.816976 9.392837 13.541864 9.645555 13.378717 9.885478C13.30834 9.994243 13.180382 10.170186 13.094009 10.282149C13.010837 10.390914 12.921266 10.550862 12.895674 10.634036C12.870082 10.717209 12.818898 10.851565 12.780511 10.937938C12.745322 11.021111 12.69094 11.200253 12.665348 11.337808C12.639756 11.472164 12.594971 11.664103 12.569379 11.760072C12.527793 11.900826 12.521395 11.999994 12.543787 12.239917C12.556583 12.406262 12.569379 12.595001 12.575777 12.655782C12.578976 12.716562 12.582175 12.790138 12.585374 12.818929C12.591772 12.9085 13.004438 13.359554 13.999316 14.367229C14.539942 14.911053 15.03898 15.429285 15.109358 15.518856C15.550815 16.081875 15.787539 16.782448 15.787539 17.524607C15.787539 18.72422 15.458045 19.539955 14.658303 20.326902L14.3608 20.618008L14.168861 20.602013C13.906547 20.576422 13.77219 20.531635 13.77219 20.464457C13.77219 20.435667 13.752996 20.381285 13.727405 20.346096C13.698614 20.307707 13.673022 20.14456 13.660226 19.917435C13.641032 19.632727 13.621839 19.533558 13.577053 19.472778C13.541864 19.43119 13.516273 19.348019 13.516273 19.290436C13.516273 19.21686 13.497079 19.172075 13.452293 19.149683C13.410707 19.127289 13.388314 19.082504 13.388314 19.024923C13.388314 18.976938 13.359524 18.90976 13.324335 18.877769C13.289146 18.845781 13.260356 18.797796 13.260356 18.769005C13.260356 18.740215 13.231565 18.698627 13.196376 18.676235C13.161188 18.653843 13.132397 18.612255 13.132397 18.580267C13.132397 18.551476 13.103606 18.506691 13.068418 18.484297C13.033229 18.461905 13.004438 18.417118 13.004438 18.381931C13.004438 18.346743 12.982045 18.317951 12.956454 18.317951C12.927663 18.317951 12.898872 18.298758 12.889276 18.273165C12.87648 18.241177 10.237333 15.557243 9.90784 15.240546C9.895043 15.230949 9.104899 14.444004 8.151608 13.497109C7.198316 12.550216 6.334595 11.70249 6.229029 11.60972L6.04029 11.443374L5.925128 11.58093C5.688404 11.865638 5.451681 12.262309 5.310926 12.617394C5.182967 12.934092 5.160574 13.033259 5.131784 13.346759C5.080601 13.893782 5.163774 14.389622 5.371706 14.79589C5.442084 14.930246 5.685205 15.285332 5.861148 15.509259C5.94752 15.621223 6.043489 15.75238 6.075479 15.803564C6.107469 15.851548 6.254621 16.011497 6.404972 16.155451C6.686481 16.420965 6.980786 16.785646 7.12474 17.038364C7.457432 17.617378 7.49262 17.729342 7.52461 18.349941C7.537406 18.631449 7.527809 18.785 7.486223 18.989735C7.335871 19.741491 7.18552 20.042194 6.846429 20.266121L6.718471 20.349295H2.26871L2.134353 20.259724C2.003196 20.17655 1.999997 20.166954 1.999997 19.997408C1.999997 19.856653 2.012793 19.818266 2.063976 19.789474C2.099164 19.770281 2.127955 19.728695 2.127955 19.693506C2.127955 19.616732 2.355082 19.495171 2.6078 19.43759C2.873314 19.376808 3.122833 19.274443 3.145226 19.21686C3.154823 19.18807 3.190012 19.146482 3.222002 19.12409C3.253991 19.101698 3.279583 19.044117 3.279583 18.999331C3.279583 18.951345 3.305175 18.887367 3.333965 18.852179C3.404343 18.778603 3.401144 18.589863 3.330766 18.455507C3.301976 18.397924 3.279583 18.28916 3.279583 18.212385C3.279583 18.116417 3.25719 18.049238 3.215604 17.998055C3.170818 17.946871 3.151624 17.879692 3.151624 17.774126C3.151624 17.665361 3.135629 17.60778 3.087645 17.566195C3.03966 17.521408 3.023666 17.467026 3.023666 17.342266C3.023666 17.217506 3.007671 17.163124 2.959686 17.11834C2.911702 17.076752 2.895707 17.019171 2.895707 16.910406C2.895707 16.801641 2.879712 16.744061 2.831728 16.702473C2.780544 16.657688 2.767748 16.603306 2.767748 16.456154C2.767748 16.331394 2.745356 16.232225 2.703769 16.152252C2.646188 16.040287 2.63979 15.969911 2.63979 15.269337C2.63979 14.571962 2.646188 14.498386 2.703769 14.383224C2.745356 14.303249 2.767748 14.194485 2.767748 14.085719C2.767748 13.954562 2.783743 13.90018 2.831728 13.855394C2.876513 13.813807 2.895707 13.756227 2.895707 13.657058C2.895707 13.55789 2.914901 13.503508 2.959686 13.46512C2.998074 13.429932 3.023666 13.369151 3.023666 13.308371C3.023666 13.25079 3.049257 13.18681 3.087645 13.151622C3.122833 13.119632 3.151624 13.062051 3.151624 13.026862C3.151624 12.988474 3.180415 12.94049 3.215604 12.918097C3.250792 12.895704 3.279583 12.850919 3.279583 12.81573C3.279583 12.780541 3.308373 12.735756 3.343562 12.713364C3.378751 12.69097 3.407542 12.639787 3.407542 12.601399C3.407542 12.563012 3.436332 12.515027 3.471521 12.495833C3.506709 12.47664 3.5355 12.441451 3.5355 12.415859C3.5355 12.390267 3.564291 12.35188 3.599479 12.329488C3.634668 12.307095 3.663459 12.271906 3.663459 12.249514C3.663459 12.22712 3.69225 12.195131 3.727438 12.175937C3.762627 12.156743 3.791417 12.121554 3.791417 12.095963C3.791417 12.070372 3.820208 12.035183 3.855397 12.015988C3.890585 11.996795 3.919376 11.968004 3.919376 11.948811C3.919376 11.929617 4.034539 11.801658 4.175293 11.664103C4.316048 11.526547 4.431211 11.398588 4.431211 11.379395C4.431211 11.360201 4.444006 11.344206 4.456802 11.344206C4.469598 11.344206 4.543174 11.286625 4.616751 11.216248C4.687128 11.14587 4.757505 11.088288 4.767102 11.088288C4.786296 11.088288 4.847076 11.040304 4.936647 10.957131C4.965438 10.928341 5.039014 10.880356 5.096595 10.851565C5.186166 10.80678 5.198962 10.781188 5.198962 10.672423C5.198962 10.579653 5.182967 10.538067 5.134983 10.512475C5.099794 10.493281 5.071003 10.464491 5.071003 10.448496C5.071003 10.413307 4.767102 10.106206 4.34164 9.712733C4.181691 9.562382 4.050534 9.424827 4.047335 9.408832C4.047335 9.389638 4.018544 9.357648 3.983355 9.335256C3.948167 9.312862 3.919376 9.280873 3.919376 9.264878C3.919376 9.245685 3.858596 9.178506 3.788218 9.111328C3.426735 8.785033 3.279583 8.637881 3.279583 8.602693C3.279583 8.580299 3.250792 8.54831 3.215604 8.529117C3.180415 8.509922 3.151624 8.474734 3.151624 8.452341C3.151624 8.429948 3.122833 8.385162 3.087645 8.353173C3.052456 8.321183 3.023666 8.27 3.023666 8.23801C3.023666 8.20602 2.994875 8.164434 2.959686 8.145241C2.9181 8.122848 2.895707 8.078062 2.895707 8.017282C2.895707 7.956501 2.873314 7.911716 2.831728 7.889323C2.786942 7.86693 2.767748 7.822145 2.767748 7.748569C2.767748 7.684589 2.742157 7.62061 2.703769 7.585422C2.658983 7.543835 2.63979 7.486253 2.63979 7.393484C2.63979 7.307111 2.617397 7.230336 2.57581 7.175954C2.518229 7.102377 2.511831 7.047995 2.511831 6.50737C2.511831 5.976342 2.518229 5.912363 2.57581 5.82599C2.620596 5.758812 2.63979 5.675639 2.63979 5.550879C2.63979 5.413324 2.655785 5.358941 2.703769 5.314156C2.748554 5.272569 2.767748 5.214988 2.767748 5.119019C2.767748 5.013453 2.783743 4.971867 2.831728 4.946275C2.873314 4.923882 2.895707 4.879097 2.895707 4.818316C2.895707 4.757536 2.9181 4.71275 2.959686 4.690358C2.998074 4.671164 3.023666 4.623179 3.023666 4.578394C3.023666 4.533608 3.052456 4.482425 3.087645 4.460032C3.122833 4.437639 3.151624 4.392854 3.151624 4.364063C3.151624 4.332073 3.180415 4.293686 3.215604 4.274492C3.250792 4.255298 3.279583 4.220109 3.279583 4.194518C3.279583 4.168926 3.308373 4.133738 3.343562 4.114544C3.378751 4.09535 3.407542 4.06336 3.407542 4.040967C3.407542 4.018575 3.436332 3.983386 3.471521 3.960993C3.506709 3.938601 3.5355 3.900213 3.5355 3.874621C3.5355 3.84903 3.548296 3.826637 3.564291 3.826637C3.580286 3.826637 3.657061 3.765857 3.733836 3.689081C3.903381 3.516337 4.040936 3.420368 4.143303 3.401174ZM19.008898 10.851565C19.037687 10.822775 19.6199 10.848367 19.83423 10.886754C20.070953 10.93154 20.438835 11.097886 20.640369 11.254635C21.12981 11.632113 21.424116 12.367875 21.324947 12.96928C21.235376 13.519503 21.021046 13.919374 20.614779 14.303249C20.486818 14.421611 20.310875 14.552769 20.221304 14.594355C20.131733 14.632743 20.080551 14.667932 20.112539 14.667932C20.170122 14.67113 20.70435 14.885461 20.867496 14.971833C21.056234 15.071001 21.478498 15.502861 21.596861 15.717192C21.878368 16.219429 22.003128 16.728065 21.999929 17.358261C21.996731 18.500292 21.561672 19.351217 20.694752 19.917435C20.435635 20.086979 20.074152 20.237331 19.77025 20.304508C19.658287 20.330101 19.379976 20.349295 19.098469 20.349295C18.698597 20.349295 18.573837 20.336498 18.34671 20.275719C18.049208 20.192545 17.527777 19.936628 17.479792 19.847057C17.463797 19.815067 17.428608 19.789474 17.403017 19.789474C17.377424 19.789474 17.355032 19.773481 17.355032 19.757486C17.355032 19.738293 17.297451 19.671114 17.227074 19.600737C17.156696 19.533558 17.099113 19.463181 17.099113 19.450384C17.099113 19.434389 17.070324 19.402401 17.035135 19.380007C16.999947 19.357615 16.971155 19.319227 16.971155 19.293636C16.971155 19.268044 16.942366 19.232855 16.907177 19.213661C16.871988 19.194468 16.843197 19.159279 16.843197 19.136887C16.843197 19.114494 16.814407 19.069708 16.779219 19.037718C16.74403 19.005728 16.715239 18.964142 16.715239 18.94175C16.715239 18.919357 16.686447 18.871372 16.651258 18.829786C16.590479 18.759409 16.590479 18.756208 16.660856 18.669838C16.747229 18.561073 16.884783 18.493895 16.948763 18.532282C16.974354 18.545078 17.070324 18.647444 17.159895 18.756208C17.444603 19.095299 17.7645 19.306431 18.202757 19.43759C18.343512 19.479176 18.791367 19.466379 19.002499 19.415195C19.159248 19.376808 19.530329 19.191269 19.530329 19.152882C19.530329 19.133688 19.559118 19.111294 19.594307 19.101698C19.629496 19.0921 19.658287 19.060112 19.658287 19.037718C19.658287 19.012127 19.687078 18.976938 19.722265 18.957745C19.757454 18.938551 19.786245 18.896963 19.786245 18.864975C19.786245 18.832985 19.815037 18.781801 19.850225 18.749811C19.885414 18.717821 19.914204 18.657042 19.914204 18.618654C19.914204 18.577066 19.942995 18.525885 19.978184 18.50349C20.022968 18.474701 20.042162 18.426716 20.042162 18.349941C20.042162 18.28916 20.070953 18.193192 20.106142 18.142008C20.163723 18.055635 20.170122 17.991657 20.170122 17.438236C20.170122 16.884815 20.163723 16.820835 20.106142 16.734463C20.070953 16.68008 20.042162 16.584112 20.042162 16.516933C20.042162 16.43696 20.01977 16.379377 19.978184 16.344189C19.942995 16.312201 19.914204 16.257816 19.914204 16.219429C19.914204 16.18424 19.885414 16.126659 19.850225 16.094669C19.815037 16.062681 19.786245 16.011497 19.786245 15.979507C19.786245 15.947517 19.757454 15.905931 19.722265 15.886737C19.687078 15.867543 19.658287 15.835554 19.658287 15.813161C19.655088 15.790769 19.562319 15.701198 19.450354 15.614825C19.175243 15.403693 18.896933 15.307724 18.541847 15.301327L18.269936 15.294929L18.244345 15.150975C18.22835 15.071001 18.225151 14.95264 18.237946 14.882262C18.257139 14.770298 18.273134 14.754303 18.429884 14.683927C18.525852 14.64234 18.625021 14.607151 18.647413 14.607151C18.772173 14.607151 19.27441 14.223275 19.27441 14.130505C19.27441 14.111311 19.303202 14.079322 19.33839 14.056929C19.376778 14.031337 19.40237 13.980154 19.40237 13.932169C19.40237 13.887383 19.43116 13.823404 19.466349 13.791414C19.52713 13.737032 19.530329 13.692246 19.530329 13.161219C19.530329 12.63019 19.52713 12.588604 19.466349 12.53742C19.43116 12.50543 19.40237 12.447849 19.40237 12.409462C19.40237 12.307095 19.12406 12.031983 18.93532 11.945612C18.714592 11.846443 18.279533 11.846443 18.023615 11.948811C17.809284 12.031983 17.588556 12.214325 17.460598 12.415859C17.361429 12.575808 17.307047 12.591803 17.182287 12.492635C17.073523 12.406262 17.060726 12.16634 17.163094 12.111958C17.198282 12.092764 17.227074 12.057575 17.227074 12.031983C17.227074 12.006392 17.255863 11.968004 17.291052 11.945612C17.326241 11.923219 17.355032 11.881632 17.355032 11.849643C17.355032 11.820852 17.383821 11.785664 17.41901 11.776067C17.454199 11.766469 17.48299 11.737679 17.48299 11.718485C17.48299 11.670501 17.748505 11.420981 17.982029 11.245038C18.157972 11.110682 18.593031 10.93154 18.832954 10.899549C18.916126 10.886754 18.996101 10.864361 19.008898 10.851565Z"/></svg>
