<svg width="24" height="24" xmlns="http://www.w3.org/2000/svg" viewBox="0 0 24 24"><path fill="currentColor" d="M 6.25147880469,2.03050505859 c -0.02957896875,0.0184868554688 -0.103526390625,0.0554605664062 -0.162684328125,0.0813421640625 c -0.158986957031,0.073947421875 -0.403013449219,0.32536865625 -0.613763601562,0.624855714844 c -0.0480658242187,0.0702500507813 -0.0998290195313,0.136802730469 -0.110921132812,0.14789484375 c -0.0480658242187,0.0369737109375 -0.247723863281,0.354947625 -0.299487058594,0.469566128906 c -0.02957896875,0.0665526796875 -0.0628553085938,0.122013246094 -0.0776447929687,0.122013246094 c -0.0184868554687,0 -0.02957896875,0.0332763398438 -0.02957896875,0.073947421875 s -0.014789484375,0.073947421875 -0.0369737109375,0.073947421875 c -0.0184868554688,0 -0.0369737109375,0.0332763398438 -0.0369737109375,0.073947421875 s -0.014789484375,0.073947421875 -0.0369737109375,0.073947421875 c -0.0184868554687,0 -0.0369737109375,0.0258815976562 -0.0369737109375,0.0554605664062 c 0,0.0332763398438 -0.0332763398438,0.129407988281 -0.073947421875,0.210750152344 c -0.0406710820312,0.0850395351563 -0.073947421875,0.181171183594 -0.073947421875,0.214447523437 s -0.014789484375,0.073947421875 -0.0332763398438,0.0924342773438 c -0.0184868554688,0.0221842265625 -0.044368453125,0.129407988281 -0.0554605664062,0.240329121094 c -0.0665526796875,0.595276746094 -0.0961316484375,0.879974320313 -0.0998290195313,0.961316484375 c -0.00369737109375,0.20705278125 0.0517631953125,0.706197878906 0.0813421640625,0.724684734375 c 0.0184868554688,0.0110921132812 0.0332763398438,0.0850395351562 0.0332763398438,0.162684328125 s 0.0184868554687,0.155289585938 0.0369737109375,0.166381699219 c 0.0221842265625,0.0110921132813 0.0369737109375,0.0554605664062 0.0369737109375,0.0961316484375 c 0,0.0369737109375 0.02957896875,0.140500101563 0.0702500507813,0.229237007813 c 0.0369737109375,0.0850395351563 0.0924342773437,0.214447523438 0.118315875,0.284697574219 c 0.184868554687,0.488052984375 0.495447726562,0.85779009375 2.12968575,2.51421234375 c 0.351250253906,0.358644996094 0.639645199219,0.665526796875 0.639645199219,0.684013652344 c 0,0.044368453125 -0.166381699219,0.240329121094 -0.199658039063,0.240329121094 c -0.114618503906,0 -1.22013246094,1.02786916406 -1.42718524219,1.33105359375 c -0.0517631953125,0.0702500507812 -0.118315875,0.162684328125 -0.155289585937,0.199658039062 c -0.0369737109375,0.0406710820312 -0.0665526796875,0.0961316484375 -0.0665526796875,0.122013246094 s -0.014789484375,0.0480658242188 -0.02957896875,0.0480658242188 s -0.0591579375,0.0480658242187 -0.0924342773437,0.110921132812 c -0.0369737109375,0.0591579375 -0.0850395351563,0.129407988281 -0.110921132812,0.158986957031 c -0.0480658242187,0.0517631953125 -0.114618503906,0.158986957031 -0.225539636719,0.377131851562 c -0.044368453125,0.0813421640625 -0.0850395351563,0.155289585937 -0.0961316484375,0.166381699219 c -0.044368453125,0.044368453125 -0.110921132812,0.188565925781 -0.110921132812,0.240329121094 c 0,0.02957896875 -0.014789484375,0.0554605664062 -0.0369737109375,0.0554605664062 c -0.0184868554687,0 -0.0369737109375,0.0258815976562 -0.0369737109375,0.0554605664062 s -0.0184868554687,0.0924342773437 -0.044368453125,0.140500101563 c -0.08873690625,0.1774738125 -0.103526390625,0.210750152344 -0.103526390625,0.281000203125 c 0,0.0406710820312 -0.014789484375,0.0850395351562 -0.0369737109375,0.0961316484375 c -0.0184868554687,0.0110921132813 -0.0369737109375,0.0628553085937 -0.0369737109375,0.110921132812 s -0.014789484375,0.0961316484375 -0.0332763398438,0.107223761719 s -0.0406710820312,0.073947421875 -0.0517631953125,0.140500101563 c -0.014789484375,0.0665526796875 -0.0406710820312,0.214447523437 -0.0665526796875,0.32536865625 c -0.0591579375,0.269908089844 -0.0850395351562,1.81171183594 -0.0332763398438,1.86347503125 c 0.0184868554688,0.0184868554688 0.0369737109375,0.107223761719 0.0369737109375,0.192263296875 c 0,0.08873690625 0.014789484375,0.166381699219 0.0332763398438,0.1774738125 s 0.0406710820312,0.0850395351562 0.0554605664062,0.158986957031 c 0.0480658242187,0.32536865625 0.0702500507813,0.417802933594 0.0998290195313,0.439987160156 c 0.0184868554687,0.0110921132813 0.0332763398438,0.0665526796875 0.0332763398438,0.129407988281 c 0,0.0591579375 0.014789484375,0.136802730469 0.0332763398438,0.173776441406 c 0.0184868554687,0.0332763398438 0.0517631953125,0.129407988281 0.073947421875,0.210750152344 c 0.0258815976562,0.0813421640625 0.0591579375,0.181171183594 0.0776447929687,0.221842265625 c 0.014789484375,0.0406710820313 0.044368453125,0.140500101563 0.0665526796875,0.221842265625 c 0.0924342773437,0.351250253906 0.129407988281,0.484355613281 0.158986957031,0.554605664062 c 0.073947421875,0.181171183594 0.125710617188,0.754263703125 0.073947421875,0.806026898438 c -0.0221842265625,0.0221842265625 -0.0406710820312,0.0702500507812 -0.0406710820312,0.107223761719 c 0,0.0702500507812 -0.122013246094,0.306881800781 -0.195960667969,0.377131851562 c -0.0369737109375,0.0369737109375 -0.158986957031,0.107223761719 -0.439987160156,0.247723863281 c -0.0369737109375,0.0184868554688 -0.122013246094,0.0332763398437 -0.192263296875,0.0332763398437 c -0.26621071875,0 -0.576789890625,0.281000203125 -0.576789890625,0.521329324219 c 0,0.103526390625 0.0850395351563,0.255118605469 0.203355410156,0.366039738281 l 0.0998290195312,0.0924342773437 l 2.57337028125,0.0110921132813 l 2.57337028125,0.00739474218749 l 0.195960667969,-0.129407988281 c 0.1774738125,-0.118315875 0.214447523438,-0.166381699219 0.395618707031,-0.547210921875 c 0.292092316406,-0.595276746094 0.336460769531,-0.783842671875 0.332763398437,-1.43088261328 c 0,-0.525026695312 -0.00369737109375,-0.543513550781 -0.140500101563,-0.953921742187 c -0.170079070313,-0.499145097656 -0.399316078125,-0.894763804687 -0.7690531875,-1.32735622266 c -0.632250457031,-0.73947421875 -1.26080354297,-1.52701426172 -1.51222477734,-1.89675137109 c -0.391921335938,-0.573092519531 -0.491750355469,-1.46785632422 -0.258815976563,-2.36262012891 c 0.044368453125,-0.170079070313 0.125710617188,-0.395618707031 0.1774738125,-0.499145097656 c 0.0850395351563,-0.170079070313 0.521329324219,-0.791237414063 0.713592621094,-1.01677705078 l 0.073947421875,-0.0850395351563 l 0.195960667969,0.166381699219 c 0.103526390625,0.0924342773437 1.88196188672,1.85238291797 3.94879232812,3.91181861719 C 16.2565649844,18.9829515234 16.4931967344,19.2269780156 16.6632758047,19.5227677031 c 0.173776441406,0.299487058594 0.310579171875,0.573092519531 0.391921335937,0.776447929687 c 0.0221842265625,0.0517631953125 0.0517631953125,0.122013246094 0.0702500507813,0.155289585938 c 0.0184868554687,0.0369737109375 0.0332763398437,0.0998290195312 0.0332763398437,0.136802730469 c 0,0.0406710820313 0.014789484375,0.0813421640625 0.0332763398438,0.0924342773437 c 0.0406710820313,0.0258815976563 0.0776447929687,0.232934378906 0.0998290195312,0.558303035156 c 0.0332763398438,0.513934582031 0.229237007813,0.757961074219 0.606368859375,0.757961074219 c 0.188565925781,0 0.288394945312,-0.0554605664062 0.598974117187,-0.317973914062 c 0.5324214375,-0.462171386719 1.0056849375,-1.22382983203 1.19425086328,-1.93742245313 c 0.299487058594,-1.12769818359 0.181171183594,-2.21842265625 -0.354947625,-3.25738393359 c -0.20705278125,-0.406710820312 -0.284697574219,-0.495447726562 -1.4197905,-1.66011962109 c -1.84129080469,-1.88935662891 -1.66381699219,-1.68969858984 -1.75255389844,-1.98179090625 c -0.103526390625,-0.354947625 -0.107223761719,-1.08702710156 -0.0073947421875,-1.49373792187 c 0.144197472656,-0.565697777344 0.484355613281,-1.23122457422 0.950224371094,-1.84868554688 c 0.380829222656,-0.506539839844 0.587882003906,-0.602671488281 0.809724269531,-0.377131851562 c 0.14789484375,0.144197472656 0.203355410156,0.317973914062 0.203355410156,0.617460972656 c 0,0.258815976563 0.00369737109375,0.273605460938 0.125710617188,0.377131851562 c 0.0665526796875,0.0628553085937 0.199658039062,0.129407988281 0.2957896875,0.155289585937 c 0.329066027344,0.0813421640625 0.580487261719,-0.110921132812 0.946527,-0.732079476563 c 0.484355613281,-0.813421640625 0.68031628125,-1.7155801875 0.550908292969,-2.51790971484 c -0.0591579375,-0.380829222656 -0.269908089844,-0.935434886719 -0.454776644531,-1.21643508984 c -0.1774738125,-0.26621071875 -0.484355613281,-0.573092519531 -0.765355816406,-0.761658445313 c -0.08873690625,-0.0591579375 -0.170079070313,-0.122013246094 -0.181171183594,-0.136802730469 c -0.0369737109375,-0.0480658242187 -1.05375076172,-0.547210921875 -1.11660607031,-0.547210921875 c -0.0369737109375,0 -0.0665526796875,-0.0184868554688 -0.0665526796875,-0.0369737109375 c 0,-0.0221842265625 -0.0258815976563,-0.0369737109375 -0.0554605664063,-0.0369737109375 s -0.136802730469,-0.0369737109375 -0.232934378906,-0.0813421640625 c -0.68031628125,-0.314276542969 -1.19055349219,-0.935434886719 -1.19055349219,-1.44936946875 c 0,-0.273605460938 -0.0628553085937,-0.480658242188 -0.1774738125,-0.595276746094 c -0.0776447929687,-0.0776447929687 -0.125710617188,-0.0924342773437 -0.32536865625,-0.0924342773437 c -0.133105359375,0 -0.23663175,0.014789484375 -0.23663175,0.0369737109375 c 0,0.0184868554687 -0.0221842265625,0.0369737109375 -0.0480658242188,0.0369737109375 c -0.0702500507813,0 -0.691408394531,0.658132054687 -0.691408394531,0.732079476563 c 0,0.014789484375 -0.0406710820312,0.073947421875 -0.0924342773437,0.133105359375 s -0.0924342773438,0.118315875 -0.0924342773438,0.133105359375 s -0.0406710820312,0.073947421875 -0.0924342773437,0.133105359375 s -0.0924342773437,0.129407988281 -0.0924342773437,0.151592214844 c 0,0.0258815976562 -0.0110921132813,0.0480658242187 -0.02957896875,0.0480658242187 c -0.0258815976562,0 -0.0702500507813,0.08873690625 -0.155289585937,0.332763398437 c -0.0258815976562,0.0702500507813 -0.0776447929688,0.199658039063 -0.114618503906,0.284697574219 c -0.0406710820312,0.08873690625 -0.0702500507813,0.188565925781 -0.0702500507813,0.225539636719 s -0.014789484375,0.0813421640625 -0.0332763398437,0.0998290195312 c -0.118315875,0.125710617188 -0.118315875,1.55659323047 0,1.63054065234 c 0.0184868554687,0.0110921132812 0.0332763398437,0.0517631953125 0.0332763398437,0.08873690625 c 0,0.08873690625 0.229237007813,0.499145097656 0.332763398437,0.591579375 c 0.0110921132813,0.0110921132812 0.0776447929688,0.0924342773437 0.14789484375,0.184868554687 c 0.403013449219,0.525026695312 0.909553289062,0.879974320313 1.774738125,1.23861931641 c 0.4141055625,0.170079070312 0.417802933594,0.203355410156 0.0554605664063,0.584184632812 c -0.133105359375,0.140500101563 -0.240329121094,0.277302832031 -0.240329121094,0.306881800781 s -0.014789484375,0.0517631953125 -0.0369737109375,0.0517631953125 c -0.0184868554688,0 -0.0369737109375,0.0221842265625 -0.0369737109375,0.0480658242188 s -0.02957896875,0.0813421640625 -0.0628553085938,0.122013246094 c -0.0813421640625,0.0924342773438 -0.166381699219,0.232934378906 -0.2957896875,0.495447726562 c -0.0554605664062,0.110921132812 -0.114618503906,0.20705278125 -0.129407988281,0.214447523438 s -0.02957896875,0.044368453125 -0.02957896875,0.0813421640625 s -0.014789484375,0.0813421640625 -0.0369737109375,0.0924342773438 c -0.0184868554687,0.0110921132812 -0.0369737109375,0.0628553085937 -0.0369737109375,0.114618503906 c 0,0.0480658242188 -0.014789484375,0.08873690625 -0.0369737109375,0.08873690625 c -0.0184868554688,0 -0.0369737109375,0.0332763398437 -0.0369737109375,0.0702500507813 c 0,0.0406710820312 -0.0369737109375,0.144197472656 -0.0776447929687,0.232934378906 c -0.136802730469,0.269908089844 -0.129407988281,0.255118605469 -0.20705278125,0.684013652344 c -0.0110921132813,0.0665526796875 -0.0332763398438,0.122013246094 -0.0480658242188,0.122013246094 c -0.0184868554687,0 -0.0369737109375,0.0258815976562 -0.044368453125,0.0591579375 c -0.0110921132813,0.0628553085938 -6.8031628125,-6.71072853516 -7.03239982031,-7.01391296484 c -0.229237007812,-0.306881800781 -0.50284246875,-0.965013855469 -0.580487261719,-1.41609312891 c -0.0369737109375,-0.218144894531 -0.0702500507813,-0.465868757812 -0.0702500507813,-0.550908292969 c 0,-0.1774738125 -0.107223761719,-0.362342367187 -0.247723863281,-0.428895046875 c -0.0554605664062,-0.0258815976562 -0.133105359375,-0.0628553085938 -0.166381699219,-0.0813421640625 c -0.0813421640625,-0.0406710820312 -0.288394945313,-0.0406710820312 -0.362342367187,0"/></svg>
