<svg xmlns="http://www.w3.org/2000/svg" width="24" height="24" viewBox="0 0 24 24"><path d="M11.807654 4.760243 11.899508 4.656537C11.940991 4.638758 12.035809 4.620981 12.109883 4.620981C12.222479 4.618017 12.263961 4.635795 12.355816 4.712834C12.456559 4.801725 12.46841 4.831356 12.492115 5.018027C12.54545 5.426927 12.610637 5.678784 12.726194 5.948421C12.871384 6.271391 12.898051 6.318799 13.117315 6.588437C13.259542 6.763256 17.858175 11.367814 18.053736 11.533744C18.115959 11.58708 18.121885 11.58708 18.207813 11.521893C18.290779 11.462631 18.299667 11.444854 18.299667 11.287812C18.299667 11.154475 18.31152 11.104105 18.358929 11.062622C18.391521 11.032992 18.418188 10.970768 18.418188 10.926323C18.418188 10.872988 18.438931 10.831506 18.477449 10.810763C18.515968 10.790023 18.536711 10.748541 18.536711 10.692242C18.536711 10.635944 18.557451 10.591499 18.59597 10.567795C18.634491 10.541127 18.655231 10.496682 18.655231 10.434458C18.655231 10.369272 18.67301 10.327788 18.714493 10.307048C18.75005 10.289268 18.773752 10.244823 18.773752 10.203341C18.773752 10.161859 18.800421 10.11445 18.833014 10.093709C18.865606 10.072968 18.892275 10.025559 18.892275 9.990004C18.892275 9.954447 18.918941 9.91 18.951536 9.892222C18.984129 9.874444 19.010796 9.838887 19.010796 9.812221C19.010796 9.785553 19.090797 9.690736 19.185616 9.595919C19.321915 9.465546 19.363398 9.403321 19.372288 9.326283L19.381176 9.225539L18.874496 8.97368C18.59597 8.834418 18.314484 8.683304 18.252258 8.632932C18.0567 8.48478 17.70706 8.099586 17.70706 8.031436C17.70706 8.01662 17.680391 7.981063 17.647799 7.951434C17.615206 7.921803 17.588539 7.874394 17.588539 7.847727C17.588539 7.82106 17.561871 7.773652 17.529278 7.74402C17.484833 7.705501 17.470016 7.652167 17.470016 7.545497C17.470016 7.459569 17.446312 7.3529 17.410757 7.28475C17.378162 7.219563 17.351496 7.115857 17.351496 7.047708C17.351496 6.98252 17.378162 6.852146 17.410757 6.760293C17.446312 6.65955 17.470016 6.514361 17.470016 6.407691C17.470016 6.265466 17.481869 6.215094 17.529278 6.173612C17.564835 6.141017 17.588539 6.081757 17.588539 6.022496C17.588539 5.954347 17.606318 5.909901 17.647799 5.886197C17.683355 5.862493 17.70706 5.815084 17.70706 5.767675C17.70706 5.717304 17.730764 5.675822 17.766321 5.655079C17.798914 5.637302 17.825581 5.595819 17.825581 5.566189C17.825581 5.533596 17.852249 5.492113 17.884842 5.471372C17.917435 5.450631 17.944103 5.409148 17.944103 5.38248C17.944103 5.35285 17.944103 5.376554 18.003363 5.29359C17.97077 5.314331 17.97077 5.290626 18.030031 5.231366C18.062624 5.210625 18.089293 5.180994 18.089293 5.163216C18.089293 5.124696 18.204849 5.009138 18.376707 4.875801C18.474485 4.798763 18.527821 4.77802 18.66412 4.772095C18.806347 4.766169 18.83894 4.775058 18.907089 4.846171C18.975239 4.911357 18.990055 4.958766 19.007833 5.175068C19.061169 5.746934 19.387102 6.102499 20.118973 6.392876C20.353052 6.48473 20.649355 6.641771 21.022697 6.872889C21.46419 7.142525 21.739754 7.498089 21.896795 7.995879C22.003464 8.336628 22.033094 8.896643 21.959017 9.272947C21.837534 9.907038 21.399004 10.665575 21.093811 10.766318C20.954548 10.813726 20.76195 10.754466 20.661207 10.635944C20.587132 10.552979 20.581205 10.52335 20.578243 10.286306V10.031485L20.43898 9.939631C20.26416 9.824073 20.193047 9.824073 20.059711 9.939631C19.91156 10.070004 19.496735 10.698169 19.348583 11.018176C19.11154 11.524856 19.090797 11.6256 19.10265 12.153019C19.11154 12.594512 19.117466 12.627105 19.194506 12.775258C19.256727 12.890816 19.526365 13.184156 20.193047 13.856765C20.6938 14.366407 21.164923 14.855309 21.239 14.944201C21.455301 15.20791 21.633083 15.587178 21.754568 16.05534C21.825682 16.322012 21.83457 16.402014 21.83457 16.855358C21.83457 17.30574 21.825682 17.388704 21.754568 17.643526C21.597527 18.215393 21.313076 18.713182 20.930843 19.077637C20.661207 19.332457 20.533798 19.400608 20.373793 19.37394C20.225641 19.347273 20.148602 19.299864 20.059711 19.181343C19.99156 19.089489 19.985636 19.056896 19.985636 18.766518C19.985636 18.490955 19.976748 18.440584 19.926374 18.381323C19.890818 18.33984 19.867113 18.27169 19.867113 18.200577C19.867113 18.117613 19.852299 18.079092 19.807854 18.055387C19.769333 18.034647 19.748592 17.993164 19.748592 17.936867C19.748592 17.880569 19.727852 17.839087 19.689331 17.818346C19.656738 17.800568 19.630072 17.756121 19.630072 17.720566C19.630072 17.685009 19.603403 17.6376 19.57081 17.616859C19.538218 17.596119 19.511549 17.560562 19.511549 17.536858C19.511549 17.513153 19.481918 17.462782 19.446362 17.424261C19.215246 17.184256 19.037464 16.988695 19.037464 16.976843C19.037464 16.970917 18.761902 16.692392 18.427078 16.360531C18.089293 16.028671 17.772247 15.71459 17.721876 15.661255C17.671503 15.607921 17.591501 15.527918 17.544094 15.483473C17.280382 15.237541 17.141121 15.095315 17.141121 15.065684C17.141121 15.047907 17.129269 15.033091 17.114452 15.033091C17.099636 15.033091 16.628515 14.579746 16.068501 14.022696C15.511449 13.468608 14.803284 12.772294 14.498092 12.47599C14.189936 12.179687 13.94104 11.924865 13.94104 11.913013C13.94104 11.883383 13.77511 11.71449 13.748443 11.71449C13.73659 11.71449 13.689182 11.687822 13.641773 11.652266L13.555845 11.590043L13.496584 11.661155C13.360286 11.821159 13.075833 12.253762 12.978053 12.452287C12.815086 12.772294 12.749899 13.065635 12.746937 13.447866C12.743974 13.838987 12.800271 14.073067 12.963238 14.351593C13.075833 14.541226 13.543993 15.181244 13.680293 15.329394C14.607724 16.33979 14.859581 16.852394 14.821063 17.682045C14.806247 18.064278 14.746986 18.283543 14.578094 18.618366C14.46846 18.834667 14.394385 18.929483 14.266973 19.018375L14.157343 19.095413L12.296556 19.092451C10.87726 19.092451 10.420953 19.083561 10.367618 19.053932C10.290579 19.015413 10.148354 18.834667 10.148354 18.77837C10.148354 18.760592 10.175021 18.71022 10.207614 18.668737C10.240208 18.627254 10.266875 18.573919 10.266875 18.550215C10.266875 18.499846 10.539474 18.351692 10.628365 18.351692C10.752813 18.351692 11.096525 18.138353 11.096525 18.061316C11.096525 18.031685 11.123193 17.993164 11.155786 17.972424C11.20912 17.939831 11.215047 17.904274 11.215047 17.56945C11.215047 17.243517 11.20912 17.19907 11.155786 17.151663C11.114303 17.116106 11.096525 17.059809 11.096525 16.982769C11.096525 16.908693 11.072821 16.834618 11.037265 16.790173C10.995781 16.736837 10.978004 16.668688 10.978004 16.57387C10.978004 16.473127 10.963188 16.419792 10.918743 16.381273C10.87726 16.345716 10.859483 16.289419 10.859483 16.212379C10.859483 16.138304 10.835778 16.064228 10.800221 16.019783C10.752813 15.960522 10.740961 15.898297 10.740961 15.723479C10.740961 15.584215 10.723182 15.465693 10.690589 15.394581C10.655032 15.314579 10.640217 15.169392 10.628365 14.852345C10.616512 14.458262 10.622439 14.404927 10.678737 14.277517C10.717257 14.191588 10.740961 14.076031 10.740961 13.981214C10.740961 13.865655 10.755776 13.815283 10.800221 13.7738C10.844666 13.735282 10.859483 13.681946 10.859483 13.581203C10.859483 13.48046 10.874298 13.427124 10.918743 13.388606C10.9543 13.356011 10.978004 13.296751 10.978004 13.23749C10.978004 13.16934 10.995781 13.127859 11.037265 13.107118C11.075785 13.086375 11.096525 13.044893 11.096525 12.988596C11.096525 12.932298 11.117267 12.890816 11.155786 12.870075C11.191342 12.852296 11.215047 12.807851 11.215047 12.766368C11.215047 12.724886 11.238751 12.680441 11.274307 12.662662C11.306901 12.644884 11.333569 12.600437 11.333569 12.564881C11.333569 12.529325 11.360236 12.481916 11.392829 12.461175C11.425422 12.440434 11.452089 12.404878 11.452089 12.381173C11.452089 12.35747 11.478757 12.324876 11.511351 12.307097C11.543943 12.289318 11.570611 12.2508 11.570611 12.218206C11.570611 12.185613 11.597279 12.147093 11.629872 12.129315C11.662465 12.111536 11.689133 12.084869 11.689133 12.070054C11.689133 12.055239 11.742467 11.987089 11.807654 11.921902C11.87284 11.856715 11.926175 11.794492 11.926175 11.785603C11.926175 11.741158 12.367668 11.341146 12.675824 11.11003C12.838791 10.985582 12.874348 10.947063 12.874348 10.875951C12.874348 10.819653 12.856568 10.787059 12.821012 10.775207C12.791382 10.769281 12.661009 10.647797 12.530635 10.511497C12.403225 10.372234 12.106921 10.067041 11.875804 9.829999C11.641724 9.595919 11.452089 9.397394 11.452089 9.388506C11.452089 9.379617 11.398754 9.323319 11.333569 9.258132C11.268382 9.19591 11.215047 9.127758 11.215047 9.112945C11.215047 9.095165 11.188379 9.065536 11.155786 9.047757C11.123193 9.029979 11.096525 8.99146 11.096525 8.958866C11.096525 8.926272 11.069858 8.887753 11.037265 8.869974C11.004671 8.852197 10.978004 8.813677 10.978004 8.781084C10.978004 8.748489 10.951336 8.709971 10.918743 8.692192C10.880223 8.671452 10.859483 8.629969 10.859483 8.579597C10.859483 8.535151 10.832814 8.47589 10.800221 8.44626C10.755776 8.407741 10.740961 8.360332 10.740961 8.2507C10.740961 8.141068 10.729109 8.093659 10.690589 8.072917C10.646144 8.049213 10.634292 7.986989 10.619476 7.708464C10.610587 7.524755 10.607624 7.195858 10.616514 6.979557C10.628365 6.653623 10.640217 6.576585 10.687626 6.52325C10.717257 6.487693 10.740961 6.41658 10.740961 6.351394C10.740961 6.280281 10.761702 6.223982 10.800221 6.188426C10.835778 6.155833 10.859483 6.096572 10.859483 6.037312C10.859483 5.969162 10.877261 5.927679 10.918743 5.906938C10.957263 5.886197 10.978004 5.844714 10.978004 5.788416C10.978004 5.732119 10.998745 5.690636 11.037265 5.669895C11.069858 5.652116 11.096525 5.613597 11.096525 5.581005C11.096525 5.54841 11.123193 5.509892 11.155786 5.492113C11.188379 5.474334 11.215047 5.429889 11.215047 5.394332C11.215047 5.358776 11.241714 5.311367 11.274307 5.290626C11.306901 5.269886 11.333569 5.234329 11.333569 5.210625C11.333569 5.145437 11.671353 4.825429 11.807654 4.760243ZM2.882987 10.1826C2.942248 10.132229 3.001509 10.117414 3.117067 10.11445C3.303739 10.11445 3.321517 10.135191 3.339294 10.42557C3.357073 10.65076 3.434113 10.867062 3.58819 11.107067C3.638561 11.18707 4.355617 11.933755 5.176377 12.760442L6.672711 14.268628L6.752713 14.188625C6.794196 14.147143 6.829752 14.081956 6.829752 14.046399C6.829752 14.010843 6.85642 13.93973 6.889013 13.892322C6.921606 13.84195 6.948274 13.761948 6.948274 13.708614C6.948274 13.643427 6.966053 13.601945 7.007535 13.581203C7.043091 13.563425 7.066795 13.518979 7.066795 13.477496C7.066795 13.436014 7.090499 13.391569 7.126056 13.373791C7.158649 13.356013 7.185317 13.323419 7.185317 13.299714C7.185317 13.27601 7.211985 13.240454 7.244577 13.219712C7.277171 13.198972 7.303838 13.166378 7.303838 13.145637C7.303838 13.124895 7.330506 13.095265 7.363099 13.077487C7.42236 13.044893 7.440137 12.94415 7.398655 12.878963C7.38384 12.858223 7.289023 12.798962 7.182353 12.74859C6.936422 12.630069 6.59271 12.401915 6.59271 12.35747C6.59271 12.336728 6.566042 12.304133 6.533449 12.283393C6.500855 12.262652 6.474188 12.224133 6.474188 12.194503C6.474188 12.167835 6.44752 12.126351 6.414927 12.105611C6.382334 12.084869 6.355667 12.037461 6.355667 11.998941C6.355667 11.960422 6.328999 11.895235 6.296406 11.853752C6.210477 11.744121 6.210477 11.341147 6.296406 11.231515C6.334926 11.184107 6.355667 11.112994 6.355667 11.035954C6.355667 10.947063 6.370482 10.908544 6.414927 10.88484C6.456409 10.864099 6.474188 10.822616 6.474188 10.757429C6.474188 10.695206 6.494929 10.65076 6.533449 10.624092C6.566042 10.603352 6.59271 10.570757 6.59271 10.550016C6.59271 10.532239 6.646045 10.467052 6.711231 10.410753C6.776417 10.354456 6.829752 10.292233 6.829752 10.271491C6.829752 10.215193 6.992719 10.11445 7.084574 10.11445C7.206058 10.11445 7.274209 10.191489 7.274209 10.336678C7.274209 10.579647 7.496436 10.887803 7.777924 11.032992C7.834221 11.062622 7.976447 11.121882 8.089044 11.166327C8.732021 11.421149 9.052031 11.874494 9.052031 12.529325C9.052031 12.834517 8.853506 13.353049 8.634242 13.619722C8.539425 13.735282 8.468312 13.753059 8.329048 13.699725C8.257936 13.673058 8.25201 13.655278 8.249046 13.501201C8.249046 13.344159 8.240158 13.323419 8.145341 13.243417C8.053487 13.16934 8.035708 13.163415 7.95867 13.196009C7.84311 13.243417 7.552733 13.655278 7.45199 13.918989C7.330506 14.230108 7.29495 14.446409 7.318654 14.689379C7.339395 14.923458 7.333468 14.911606 7.804592 15.403471C8.675724 16.31016 8.732021 16.375347 8.847581 16.668688C8.921656 16.858322 8.992768 17.222775 8.992768 17.418335C8.992768 17.747232 8.812024 18.256874 8.601647 18.529474C8.337938 18.873186 8.121636 19.000597 7.970522 18.902817C7.905334 18.861334 7.896446 18.831703 7.896446 18.677626C7.896446 18.547253 7.884593 18.496881 7.849037 18.476139C7.816444 18.458361 7.795702 18.396137 7.78385 18.298357C7.774961 18.203541 7.751256 18.129465 7.7157 18.09687C7.683107 18.070204 7.659403 18.010942 7.659403 17.966497C7.659403 17.922052 7.632735 17.862791 7.600142 17.83316C7.567549 17.80353 7.540881 17.767973 7.540881 17.753159C7.540881 17.720566 7.123093 17.290924 5.662315 15.830148C5.001558 15.166428 4.459323 14.612339 4.459323 14.594562C4.459323 14.576782 4.435619 14.556042 4.405988 14.547153C4.379321 14.538264 4.340802 14.499744 4.325986 14.467152C4.308208 14.431595 4.25191 14.37826 4.201539 14.351592C4.148204 14.321962 4.083018 14.283442 4.05635 14.259738C4.026719 14.236033 4.003015 14.23307 3.991163 14.25085C3.979311 14.268627 3.92005 14.342703 3.860789 14.41678C3.561523 14.775307 3.460779 15.403471 3.632636 15.80348C3.712638 15.984226 3.798566 16.111637 4.133389 16.529425C4.640069 17.166477 4.752663 17.388704 4.776368 17.794641C4.791183 18.031685 4.785256 18.073166 4.696366 18.322062C4.619326 18.538363 4.577845 18.591698 4.494879 18.6717L4.391173 18.751701L3.274108 18.76059C2.177784 18.76948 2.157043 18.766518 2.080005 18.707256C2.035558 18.6717 2.000002 18.624292 2.000002 18.597624C2.000002 18.541327 2.121487 18.440582 2.263712 18.381321C2.444458 18.301321 2.562979 18.221319 2.562979 18.170946C2.562979 18.144279 2.589647 18.099834 2.62224 18.070204C2.666686 18.028721 2.681501 17.97835 2.681501 17.862791C2.681501 17.747232 2.666686 17.696861 2.62224 17.655378C2.58372 17.619822 2.562979 17.563524 2.562979 17.492411C2.562979 17.424261 2.539275 17.356112 2.503719 17.314629C2.465199 17.270184 2.444458 17.204998 2.444458 17.127958C2.444458 17.056845 2.423717 16.985731 2.394086 16.950176C2.263712 16.807949 2.260749 15.634587 2.388161 15.519029C2.420754 15.489398 2.444458 15.427176 2.444458 15.37384C2.444458 15.317542 2.468162 15.258282 2.503719 15.225689C2.536312 15.196057 2.562979 15.133834 2.562979 15.089388C2.562979 15.036055 2.58372 14.994571 2.62224 14.97383C2.657797 14.956052 2.681501 14.911606 2.681501 14.870124C2.681501 14.828641 2.708169 14.781233 2.740762 14.760491C2.773355 14.739751 2.800022 14.698268 2.800022 14.6716C2.800022 14.64197 2.82669 14.606414 2.859283 14.588636C2.891876 14.570857 2.918544 14.544189 2.918544 14.526412C2.918544 14.487892 3.202996 14.203441 3.244478 14.203441C3.259293 14.203441 3.274108 14.191588 3.274108 14.176773C3.274108 14.164921 3.35411 14.096771 3.45189 14.028622C3.68597 13.865655 3.68597 13.818247 3.45189 13.60787C3.35411 13.518979 3.274108 13.438976 3.274108 13.427124C3.274108 13.418236 3.114104 13.249342 2.918544 13.053782C2.722984 12.861185 2.562979 12.689329 2.562979 12.671551C2.562979 12.656734 2.536312 12.618217 2.503719 12.588585C2.471126 12.558955 2.444458 12.50562 2.444458 12.4671C2.444458 12.428582 2.41779 12.384137 2.385197 12.366358C2.340752 12.342653 2.325937 12.304133 2.325937 12.218206C2.325937 12.153019 2.299269 12.049314 2.266676 11.990052C2.225193 11.910051 2.207415 11.821159 2.207415 11.68486C2.207415 11.54856 2.225193 11.459668 2.266676 11.379666C2.299269 11.317442 2.325937 11.213737 2.325937 11.142624C2.325937 11.05077 2.343714 10.997436 2.385197 10.958916C2.41779 10.929285 2.444458 10.867061 2.444458 10.822616C2.444458 10.769281 2.465199 10.727798 2.503719 10.707057C2.536312 10.689279 2.562979 10.65076 2.562979 10.618167C2.562979 10.585572 2.589647 10.547054 2.62224 10.529275C2.654833 10.511497 2.681501 10.472978 2.681501 10.440385C2.681501 10.40779 2.708169 10.36927 2.740762 10.351493C2.773355 10.333715 2.800022 10.304085 2.800022 10.286306C2.800022 10.265565 2.835579 10.221119 2.882987 10.1826Z"/></svg>
