<svg xmlns="http://www.w3.org/2000/svg" width="24" height="24" viewBox="0 0 24 24"><path d="M 14.4980858125,2.02484709048 C 14.4723737312,2.04413046577 14.4177352158,2.06020085937 14.3759541122,2.06020085937 C 14.2666770813,2.06020085937 14.0159849747,2.19840295327 13.8649254689,2.34624810611 C 13.7877892251,2.42016999687 13.726723375,2.48766455298 13.726723375,2.50052059361 C 13.726723375,2.51659098722 13.6688718778,2.57765683736 13.5981629687,2.6387226875 C 13.527455431,2.69978853764 13.4696025625,2.77049744673 13.4696025625,2.78978082202 C 13.4696025625,2.81227992159 13.4406761283,2.84763369048 13.4053223594,2.87013141875 C 13.3699685905,2.89262914702 13.3410421562,2.93762597486 13.3410421562,2.96655240909 C 13.3410421562,2.998691825 13.312115722,3.04047429986 13.2767619531,3.06297202812 C 13.2414081842,3.08546975639 13.21248175,3.13689391889 13.21248175,3.17546204077 C 13.21248175,3.21403016264 13.1835553158,3.26224134347 13.1482015469,3.28152471875 C 13.109633425,3.30080946534 13.0839213437,3.34901927486 13.0839213437,3.39401473139 C 13.0839213437,3.43901155923 13.0549949095,3.49043572173 13.0196411406,3.51293345 C 12.9810730188,3.53864553125 12.9553609375,3.59006969375 12.9553609375,3.64149385625 C 12.9553609375,3.69613237173 12.9296488562,3.74112782827 12.8910807344,3.76362692784 C 12.8428709249,3.78933900909 12.8268005312,3.83112011264 12.8268005312,3.92111239702 C 12.8268005312,4.00146299375 12.804302803,4.06252884389 12.7625203281,4.10109696577 C 12.7143105186,4.14609379361 12.698240125,4.20073230909 12.698240125,4.33572005 C 12.698240125,4.45785312159 12.6789567497,4.54463105298 12.6307455689,4.61855294375 C 12.5696797187,4.71818691577 12.5664653658,4.77603978423 12.5664653658,5.42848350312 C 12.5664653658,6.09378326264 12.5857501124,6.27055484972 12.6628863561,6.31876465923 C 12.6821697314,6.32840634688 12.698240125,6.39268655 12.698240125,6.46018110611 C 12.698240125,6.54053170284 12.7207378533,6.60159755298 12.7625203281,6.64016567486 C 12.797874097,6.67230509077 12.8268005312,6.73979964687 12.8268005312,6.78800945639 C 12.8268005312,6.84586232486 12.8525126125,6.89728648736 12.8910807344,6.91978421562 C 12.9264345033,6.94228194389 12.9553609375,6.98727877173 12.9553609375,7.01620520597 C 12.9553609375,7.04834462187 12.9842873717,7.09012709673 13.0196411406,7.112624825 C 13.0549949095,7.13512255327 13.0839213437,7.18011938111 13.0839213437,7.20904581534 C 13.0839213437,7.24118523125 13.112847778,7.28296770611 13.1482015469,7.30546543437 C 13.1835553158,7.32796316264 13.21248175,7.36010394986 13.21248175,7.37617434347 C 13.21248175,7.42759850597 13.5756652405,7.74578516861 13.8392133876,7.92576973736 C 14.0641947842,8.07682787187 14.2731057872,8.18289054986 14.8162724751,8.42715532173 C 14.8934087189,8.46250909062 14.9480472344,8.49786285952 14.9384055467,8.51071890014 C 14.9287638591,8.52036195909 14.9416198997,8.54928702202 14.967331981,8.57499910327 C 15.0091130845,8.61999593111 15.0091130845,8.63285197173 14.9512615874,8.69391782188 C 14.9126934655,8.73248594375 14.8837670313,8.78712445923 14.8837670313,8.81605089347 C 14.8837670313,8.84176297472 14.854840597,8.88997278423 14.8194868281,8.92211220014 C 14.7841330592,8.95425298736 14.755206625,9.02174754347 14.755206625,9.06995735298 C 14.755206625,9.12780885014 14.7327088967,9.17280567798 14.6909264219,9.19530340625 C 14.649143947,9.21780113452 14.6266462187,9.26279796236 14.6266462187,9.3238638125 C 14.6266462187,9.38492966264 14.6041484905,9.42992649048 14.5623660156,9.45242421875 C 14.5205835408,9.47492194702 14.4980858125,9.51991877486 14.4980858125,9.580984625 C 14.4980858125,9.64205047514 14.4755880842,9.68704730298 14.4338056094,9.70954503125 C 14.3888101528,9.73204275952 14.3695254063,9.77703958736 14.3695254063,9.84774712514 C 14.3695254063,9.91524168125 14.347027678,9.96345149077 14.3052452031,9.992377925 C 14.2570353936,10.0213043592 14.240965,10.0662998158 14.240965,10.1755768467 C 14.240965,10.2784251717 14.2152529187,10.3555614155 14.144545381,10.4584097405 C 14.0931198472,10.5387603372 14.0481243906,10.6191095626 14.0481243906,10.6383943092 C 14.0481243906,10.715530553 13.9774168528,10.6576776845 13.6078046564,10.2784251717 C 13.2703346185,9.93452642784 12.6146765466,9.25315627472 12.5214699092,9.15030794972 C 12.4443336655,9.066743 10.6830560999,7.20904581534 10.5930638155,7.11905353097 C 10.4998571781,7.02263254062 9.75742117486,6.2384140625 9.48744432173,5.94915383409 C 9.2528212375,5.69846035625 8.82857189687,5.17136269063 8.64215999347,4.9013858375 C 8.34004235312,4.46106610327 8.21148194688,4.11395300639 8.09899193423,3.44222591222 C 8.02828302514,3.01476221861 7.96078984034,2.84763369048 7.80008864687,2.67729080938 C 7.63617447173,2.50052059361 7.49475802486,2.44588207812 7.21513948409,2.44588207812 C 7.00301412812,2.44588207812 6.94516263097,2.45873811875 6.7844614375,2.54551605014 C 6.60126251577,2.64193704048 6.14165940625,3.0501159875 6.14165940625,3.11439619062 C 6.14165940625,3.13368093722 6.11273297202,3.15939301847 6.07737920313,3.16903470611 C 6.04202543423,3.17867639375 6.013099,3.21724451562 6.013099,3.24938530284 C 6.013099,3.28473907173 5.98417256577,3.32652154659 5.94881879687,3.34580492187 C 5.91346502798,3.36508966847 5.88453859375,3.40044343736 5.88453859375,3.42615551861 C 5.88453859375,3.45186759986 5.85561215952,3.48722136875 5.82025839062,3.50650611534 C 5.78490462173,3.52578949062 5.7559781875,3.5643576125 5.7559781875,3.59649839972 C 5.7559781875,3.62542346264 5.72705175327,3.67042029048 5.69169798437,3.69291801875 C 5.65634421548,3.71541574702 5.62741778125,3.76683990952 5.62741778125,3.81183673736 C 5.62741778125,3.85683219389 5.6017057,3.90504337472 5.56313757812,3.92432675 C 5.52135510327,3.94682447827 5.498857375,3.99182130611 5.498857375,4.04967280327 C 5.498857375,4.09788398409 5.46993094077,4.16537716889 5.43457717187,4.19751795611 C 5.39922340298,4.22965737202 5.37029696875,4.29715192812 5.37029696875,4.34536173764 C 5.37029696875,4.40321460611 5.3445848875,4.45463876861 5.30601676562,4.47713649687 C 5.26102130909,4.50606293111 5.2417365625,4.55427274062 5.2417365625,4.63462333736 C 5.2417365625,4.70854522812 5.21923883423,4.76961107827 5.17745635937,4.80817920014 C 5.12924654986,4.849961675 5.11317615625,4.90781454347 5.11317615625,5.02030455611 C 5.11317615625,5.11351119347 5.087464075,5.22600120611 5.04568160014,5.30313744986 C 4.98461575,5.42205616847 4.98140139702,5.47348033097 4.99104445597,6.18377554702 C 5.00068614361,6.84586232486 5.00711347827,6.93906896222 5.05532465909,6.99049312472 C 5.09389278097,7.02906124659 5.11317615625,7.09655443139 5.11317615625,7.19940275639 C 5.11317615625,7.31189414034 5.12924654986,7.3697456375 5.17745635937,7.41152811236 C 5.22245318722,7.45331058722 5.2417365625,7.51116208437 5.2417365625,7.60758307472 C 5.2417365625,7.71364438139 5.25780695611,7.75542685625 5.30601676562,7.7811389375 C 5.35101359347,7.80363666577 5.37029696875,7.84863349361 5.37029696875,7.91934103139 C 5.37029696875,7.9868355875 5.39279469702,8.03504539702 5.43457717187,8.06397183125 C 5.47635964673,8.0896839125 5.498857375,8.13789372202 5.498857375,8.19896094347 C 5.498857375,8.26002679361 5.52135510327,8.30823660312 5.56313757812,8.33394868437 C 5.59849134702,8.35644641264 5.62741778125,8.40144324048 5.62741778125,8.43036967472 C 5.62741778125,8.46250909062 5.65634421548,8.50429156548 5.69169798437,8.52678929375 C 5.72705175327,8.54928702202 5.7559781875,8.59749820284 5.7559781875,8.63606632472 C 5.7559781875,8.67463444659 5.77847591577,8.71320256847 5.80418799702,8.72605860909 C 5.82990007827,8.73570029673 5.86846820014,8.78069575327 5.88453859375,8.82247822813 C 5.91667938097,8.90925615952 5.94239146222,8.94461129972 6.14165940625,9.15673528437 C 6.21236831534,9.23387152812 6.2702198125,9.30458043722 6.2702198125,9.31100777187 C 6.2702198125,9.32064945952 6.41485061236,9.47170896534 6.59162082813,9.64526482813 C 6.76839104389,9.81882206222 6.91302184375,9.97309454972 6.91302184375,9.98916357202 C 6.91302184375,10.0020196126 6.97087471222,10.0566581281 7.04158225,10.1080822906 C 7.11229115909,10.1627208061 7.17014265625,10.2237866562 7.17014265625,10.2462843845 C 7.17014265625,10.2687834841 7.19264038452,10.2880668594 7.21835246577,10.2880668594 C 7.2472789,10.2880668594 7.28263266889,10.3234206283 7.29548870952,10.3652031031 C 7.31155910312,10.406985578 7.350127225,10.4487680528 7.37583930625,10.4584097405 C 7.40476574048,10.4712657811 7.42726346875,10.5001922153 7.42726346875,10.5259042966 C 7.42726346875,10.5548293595 7.45618990298,10.5901844997 7.49154367188,10.609467875 C 7.53975348139,10.6351799562 7.555823875,10.6769624311 7.555823875,10.7733820501 C 7.555823875,10.8826590811 7.53654049972,10.91801285 7.40798009347,11.0369315686 C 7.09943511847,11.3165501094 7.04158225,11.3744029778 7.04158225,11.3904720001 C 7.04158225,11.4001150591 6.95480431861,11.4965346781 6.84874164062,11.6058117091 C 6.74267896264,11.7150873687 6.65590103125,11.8147213408 6.65590103125,11.8307917344 C 6.65590103125,11.846862128 6.62697459702,11.8757885622 6.59162082813,11.8950719375 C 6.55626705923,11.9143566841 6.527340625,11.949710453 6.527340625,11.9754225342 C 6.527340625,12.0011346155 6.49841419077,12.0397027374 6.46306042187,12.0622004656 C 6.42770665298,12.0846981939 6.39878021875,12.1200533341 6.39878021875,12.1425510624 C 6.39878021875,12.1650487906 6.36985378452,12.1971895778 6.33450001563,12.2164729531 C 6.29914624673,12.2357576997 6.2702198125,12.2711114686 6.2702198125,12.2968235499 C 6.2702198125,12.3225356311 6.24129337827,12.361103753 6.20593960937,12.3836014812 C 6.17058584048,12.4060992095 6.14165940625,12.4510960374 6.14165940625,12.4800224716 C 6.14165940625,12.5121618875 6.11273297202,12.5539443624 6.07737920313,12.5764420906 C 6.04202543423,12.5989398189 6.013099,12.6503639814 6.013099,12.6889321033 C 6.013099,12.7275002251 5.98417256577,12.775711406 5.94881879687,12.7949947813 C 5.91346502798,12.8142795278 5.88453859375,12.8560606314 5.88453859375,12.8914157716 C 5.88453859375,12.9267695405 5.85561215952,12.9685520153 5.82025839062,12.9878353906 C 5.78490462173,13.0071201372 5.7559781875,13.0553299467 5.7559781875,13.0971124216 C 5.7559781875,13.1388935251 5.72705175327,13.1967463936 5.69169798437,13.2288858095 C 5.65634421548,13.2610265967 5.62741778125,13.3253067999 5.62741778125,13.3735166094 C 5.62741778125,13.4217264189 5.59849134702,13.486006622 5.56313757812,13.5181474092 C 5.52135510327,13.5567155311 5.498857375,13.6177813813 5.498857375,13.691703272 C 5.498857375,13.7720538687 5.47957399972,13.8202636783 5.43457717187,13.8491901125 C 5.38958171534,13.8781165467 5.37029696875,13.9231120033 5.37029696875,14.0131042876 C 5.37029696875,14.0934548844 5.34779924048,14.1545207345 5.30601676562,14.1930888564 C 5.25459260313,14.2380856842 5.2417365625,14.2927241997 5.2417365625,14.4502096689 C 5.2417365625,14.6044821564 5.22566616889,14.6655493778 5.17745635937,14.723400875 C 5.12281784389,14.7844667251 5.11317615625,14.8423195936 5.11317615625,15.0608722842 C 5.11317615625,15.2247864594 5.09389278097,15.3694172592 5.06496634673,15.440124797 C 5.00390049659,15.5879699499 5.00390049659,15.8708028436 5.06496634673,16.0186466251 C 5.09389278097,16.0893555342 5.11317615625,16.2371993158 5.11317615625,16.3882588216 C 5.11317615625,16.5939554716 5.12603219688,16.6582356747 5.17745635937,16.7257288595 C 5.22245318722,16.783581728 5.2417365625,16.8542892658 5.2417365625,16.9796366903 C 5.2417365625,17.095341056 5.26102130909,17.1821189874 5.30601676562,17.2463991905 C 5.35101359347,17.3138937466 5.37029696875,17.397457325 5.37029696875,17.5228033783 C 5.37029696875,17.6577924905 5.38636736236,17.7220726936 5.43457717187,17.7767112091 C 5.47957399972,17.8281353716 5.498857375,17.8956285564 5.498857375,18.0016912344 C 5.498857375,18.110966894 5.51492776861,18.1688197625 5.56313757812,18.2106022374 C 5.61134738764,18.2523833409 5.62741778125,18.3102362094 5.62741778125,18.422726222 C 5.62741778125,18.5448592936 5.64027382187,18.5898547501 5.69169798437,18.6187811844 C 5.73990779389,18.6509219716 5.7559781875,18.6959174281 5.7559781875,18.8116217937 C 5.7559781875,18.9208988247 5.77204858111,18.9723229872 5.81061670298,18.9948207155 C 5.87489690611,19.0301744844 5.91989236264,19.4094283685 5.88775294673,19.6408370997 C 5.86846820014,19.769397506 5.8588265125,19.7822535466 5.65955856847,19.8851018716 C 5.54385420284,19.9429533687 5.42172113125,19.9943775312 5.38315300938,19.9943775312 C 5.25780695611,19.9943775312 4.91712119389,20.1872181406 4.75642137173,20.3479193341 C 4.61821927784,20.486121428 4.59893453125,20.5214751969 4.59893453125,20.6403939155 C 4.59893453125,20.7175301592 4.58286413764,20.8268058189 4.56036640937,20.8846586874 C 4.52822699347,20.9714366187 4.52822699347,21.0067903876 4.56036640937,21.0550015685 C 4.58286413764,21.0903553374 4.59893453125,21.1707059341 4.59893453125,21.2317717842 C 4.59893453125,21.308908028 4.61821927784,21.3571178375 4.66321473437,21.3828299187 C 4.69856850327,21.405327647 4.7274949375,21.4471101219 4.7274949375,21.4760365561 C 4.7274949375,21.5371024062 4.92676425284,21.7042309344 5.10032011562,21.7845815311 C 5.21602448125,21.8392200466 5.37672567472,21.8424330283 7.54618218736,21.8520760872 C 9.80241663139,21.8617177749 9.8699111875,21.8585034219 10.0498957562,21.7942232187 C 10.3070165687,21.7042309344 10.4677177622,21.5853122158 10.6348462903,21.3603321905 C 11.2133681185,20.5857554 11.367640606,19.3355051064 11.0076714685,18.3391626436 C 10.7794757189,17.702787947 10.5544956936,17.3492475155 9.72528038764,16.3143355595 C 8.84785664347,15.2183591247 8.61966089389,14.720186522 8.65822901577,13.9681088311 C 8.67751376236,13.5695715717 8.78357644034,13.2224584749 9.01177081861,12.7853530936 C 9.15961460014,12.5057345528 9.22710915625,12.4157422685 9.22710915625,12.5025201999 C 9.22710915625,12.5185905935 9.27853331875,12.56358605 9.34281352187,12.6053685249 C 9.47137392812,12.6825047686 9.612790375,12.8142795278 9.612790375,12.8560606314 C 9.612790375,12.872131025 9.81527267202,13.0906837156 10.0627517969,13.3445901751 C 10.3102309217,13.598498006 10.5127132187,13.8106219906 10.5127132187,13.8138363436 C 10.5127132187,13.8234780313 10.9723163283,14.2991515344 11.5990493372,14.935526231 C 11.8497414437,15.1926470435 12.0554380937,15.4111997341 12.0554380937,15.4176270688 C 12.0554380937,15.4272687564 12.2579203908,15.6361797594 12.5053995156,15.8804445312 C 12.7528786405,16.1279236561 12.9553609375,16.3432619938 12.9553609375,16.3593323874 C 12.9553609375,16.375402781 12.9778586658,16.3946861562 13.003570747,16.4075421969 C 13.0292828283,16.4171838845 13.0678509501,16.4621807124 13.0903500497,16.5071761689 C 13.109633425,16.5521729967 13.1449871939,16.5875267656 13.1706992751,16.5875267656 C 13.1931983747,16.5875267656 13.21248175,16.6035971592 13.21248175,16.6228805345 C 13.21248175,16.6421652811 13.3024740344,16.7482279591 13.414964047,16.8607179717 C 13.524241078,16.9732079844 13.7524354562,17.2110454216 13.9195639844,17.394242972 C 14.0866925125,17.5742275408 14.4209495687,17.9277693436 14.6619999876,18.1752484685 C 14.9030517778,18.425940575 15.1408878437,18.6766340528 15.1923120062,18.73448555 C 15.2437361687,18.7955514001 15.369082222,18.9273261594 15.471930547,19.0301744844 C 15.5715658903,19.1362371624 15.6551294687,19.2422998403 15.6551294687,19.2680119216 C 15.6551294687,19.2937240028 15.684055903,19.3322921247 15.7194096719,19.3515755 C 15.7547634408,19.3708602466 15.783689875,19.4126413501 15.783689875,19.4479964903 C 15.783689875,19.4833502592 15.8126163092,19.5251327341 15.8479700781,19.5444161094 C 15.883323847,19.563700856 15.9122502812,19.6054819595 15.9122502812,19.6408370997 C 15.9122502812,19.6761908686 15.9411767155,19.7179733435 15.9765304844,19.7372567188 C 16.0215273122,19.759754447 16.0408106875,19.8047512749 16.0408106875,19.8786731656 C 16.0408106875,19.9429533687 16.0665227687,20.0072335719 16.1050908906,20.0425873408 C 16.1500877185,20.0811554626 16.1693710938,20.1422226841 16.1693710938,20.2322149685 C 16.1693710938,20.3093512122 16.195083175,20.4025564783 16.2336512969,20.4604093467 C 16.2850754594,20.5375455905 16.2979315,20.6114674812 16.2979315,20.8332345249 C 16.2979315,21.0614289031 16.3107875406,21.1257091062 16.3622117031,21.1932036624 C 16.397565472,21.2381991189 16.4264919062,21.3185497156 16.4264919062,21.3731882311 C 16.4264919062,21.4374684342 16.4489896345,21.4824638908 16.4907721094,21.5049629903 C 16.5261258783,21.5242463656 16.5550523125,21.5660288405 16.5550523125,21.5981682564 C 16.5550523125,21.6753045001 16.7736050031,21.8713594625 16.9310918436,21.9420683716 C 17.0082280874,21.9774221405 17.1464301812,21.9967055158 17.2942753341,21.9999198687 C 17.638174078,22.0031342217 17.8342290403,21.9035002497 18.2102672001,21.5242463656 C 18.8080737749,20.9200124562 19.2194670749,20.1486500188 19.4058789783,19.2872952969 C 19.4508758061,19.0687426062 19.4637318467,18.8694746622 19.4637318467,18.3070218564 C 19.4637318467,17.6192243686 19.4605174937,17.5870835814 19.3640978747,17.2142584033 C 19.1037627092,16.2147015875 18.7245088251,15.6265380717 17.5642521872,14.4341406466 C 17.0500105622,13.903828628 16.7543216278,13.5535011781 16.5904060814,13.280309972 C 16.3397139749,12.868916672 16.201511881,12.3386060247 16.201511881,11.7986523185 C 16.201511881,11.2040600967 16.294717147,10.7637403625 16.5325545842,10.2462843845 L 16.6611149905,9.96345149077 L 16.7446785689,10.0438020875 C 16.7896753967,10.0887989153 16.921450156,10.1659351591 17.0371545216,10.2205723033 C 17.4389047626,10.410199931 17.8085169591,10.3394910219 18.1427740153,10.0084483186 C 18.5413112747,9.60991105923 18.8305715031,9.00889150284 19.0009143842,8.21502996577 C 19.0941210216,7.79399497813 19.1005483562,6.99692045937 19.0169847778,6.60802488764 C 18.8305715031,5.75631322472 18.4738167186,5.21314516548 17.7313807153,4.65390671264 C 17.5224697124,4.49642124347 16.8925237217,4.19430360313 16.4586326935,4.03681676264 C 15.6487021341,3.74755653423 15.5233547095,3.60935444034 15.4847865876,2.98262143139 C 15.4590745064,2.60336891861 15.3819382626,2.40088662159 15.1890976533,2.22411503452 C 15.0091130845,2.06020085937 14.6137901781,1.94771084673 14.4980858125,2.02484709048 Z M 14.7487792903,2.69336120298 L 14.8837670313,2.78013913438 L 14.8837670313,3.09189846236 C 14.8837670313,3.3586609625 14.8934087189,3.40687077202 14.9480472344,3.45829493452 C 14.9898297092,3.49686305639 15.0123274375,3.55793027784 15.0123274375,3.63506652159 C 15.0123274375,3.71220276534 15.0348251658,3.77326861548 15.0766076406,3.81183673736 C 15.1119614095,3.84397615327 15.1408878437,3.89540031577 15.1408878437,3.92432675 C 15.1408878437,3.99824864077 15.3947943033,4.21680133139 15.6197756999,4.33893440298 C 15.7226240249,4.39357291847 15.9990282126,4.50927728409 16.2304369439,4.59926956847 C 16.7382512342,4.78889582486 17.2332081126,5.03958793139 17.4517608033,5.21314516548 C 17.538540106,5.28063972159 17.6188893314,5.33849121875 17.6285323903,5.33849121875 C 17.6735278469,5.33849121875 18.0977771875,5.78845264062 18.0977771875,5.83344946847 C 18.0977771875,5.86237453139 18.1267036217,5.89772967159 18.1620573906,5.91701304687 C 18.2070542185,5.94272512812 18.2263375937,5.98450760298 18.2263375937,6.06164384673 C 18.2263375937,6.1355657375 18.248835322,6.19341860597 18.2906177969,6.22877237486 C 18.3388276064,6.27055484972 18.354898,6.32519199389 18.354898,6.43125467188 C 18.354898,6.52124695625 18.3806100812,6.61123924062 18.4191782031,6.67230509077 C 18.4770310716,6.75908439347 18.4834584063,6.82336459659 18.4834584063,7.40831375937 C 18.4834584063,7.97076519389 18.4770310716,8.05754449659 18.4288198908,8.11218164077 C 18.3870387872,8.15396411562 18.3677540406,8.2439564 18.361326706,8.40787057514 C 18.351683647,8.59106949687 18.3324002717,8.65856405298 18.2874034439,8.70034652784 C 18.255264028,8.72927159077 18.2263375937,8.79676614687 18.2263375937,8.84497595639 C 18.2263375937,8.90282882486 18.2006255125,8.95425298736 18.1620573906,8.97675071562 C 18.1267036217,8.99924844389 18.0977771875,9.05067260639 18.0977771875,9.08924072827 C 18.0977771875,9.12780885014 18.0688507533,9.17602003097 18.0334969844,9.19530340625 C 17.9981432155,9.21458815284 17.9692167812,9.26279796236 17.9692167812,9.30136608423 C 17.9692167812,9.33993420611 17.940290347,9.39135836861 17.9049365781,9.41385609688 C 17.8695828092,9.43635382514 17.840656375,9.4781363 17.837442022,9.51027708722 C 17.837442022,9.53920215014 17.7924465655,9.60026937159 17.741022403,9.64205047514 C 17.6606718063,9.70311769659 17.6188893314,9.71597373722 17.4999719841,9.69990334361 C 17.2653488999,9.67419126236 17.1335741406,9.49742104659 17.1335741406,9.20815944688 C 17.1335741406,9.06995735298 17.0114424403,8.72927159077 16.9407335312,8.66499138764 C 16.8925237217,8.61999593111 16.8700259935,8.61678157812 16.8057457903,8.65213534702 C 16.6675423251,8.72605860909 16.5550523125,8.86426070298 16.5550523125,8.96068032202 C 16.5550523125,9.0153188375 16.5293402312,9.066743 16.4907721094,9.09245508125 C 16.4554183405,9.11495280952 16.4264919062,9.16637697202 16.4264919062,9.21137379986 C 16.4264919062,9.25636925639 16.400779825,9.30458043722 16.3622117031,9.3238638125 C 16.3268579342,9.34314855909 16.2979315,9.38492966264 16.2979315,9.41707044986 C 16.2979315,9.44920986577 16.2690050658,9.50063402827 16.2336512969,9.53277481548 C 16.198297528,9.56491423139 16.1693710938,9.61633839389 16.1693710938,9.64847918111 C 16.1693710938,9.68383295 16.1404446595,9.72561542486 16.1050908906,9.74811315312 C 16.0633084158,9.77703958736 16.0408106875,9.82524939687 16.0408106875,9.89274395298 C 16.0408106875,9.96345149077 16.0215273122,10.0084483186 15.9765304844,10.0309460469 C 15.9283206749,10.0566581281 15.9122502812,10.098440603 15.9122502812,10.201288928 C 15.9122502812,10.297708547 15.892966906,10.3555614155 15.8479700781,10.3941295374 C 15.8061876033,10.4294833062 15.783689875,10.4873361747 15.783689875,10.5676854001 C 15.783689875,10.6351799562 15.7547634408,10.7316009466 15.7194096719,10.7862380908 C 15.6711998624,10.8601613528 15.6551294687,10.9372975966 15.6551294687,11.126923853 C 15.6551294687,11.2876236751 15.6390590751,11.3904720001 15.6069196592,11.432254475 C 15.5426394561,11.5190324064 15.5394251031,12.1136246281 15.6069196592,12.2036169125 C 15.6358460935,12.2421850344 15.6519151158,12.3450333594 15.6551294687,12.4928785122 C 15.6551294687,12.672863081 15.6679855094,12.7403562658 15.7194096719,12.8046364689 C 15.7547634408,12.8496332967 15.783689875,12.9267695405 15.783689875,12.981408056 C 15.783689875,13.0328322185 15.8126163092,13.1003254033 15.8479700781,13.1324661905 C 15.8865382,13.1678199594 15.9122502812,13.2321001625 15.9122502812,13.289953031 C 15.9122502812,13.3542332341 15.9347480095,13.4056573966 15.9765304844,13.4313694778 C 16.0118842533,13.4538672061 16.0408106875,13.5052913686 16.0408106875,13.5502868251 C 16.0408106875,13.595283653 16.0665227687,13.6434934625 16.1050908906,13.6627782091 C 16.1404446595,13.6820615844 16.1693710938,13.7206297063 16.1693710938,13.7527704935 C 16.1693710938,13.7816955564 16.2272239622,13.8716878408 16.2979315,13.9488240845 C 16.3686404091,14.0259603283 16.4264919062,14.0966692374 16.4264919062,14.103096572 C 16.4264919062,14.112739631 16.4843447747,14.1770198341 16.5550523125,14.2445130189 C 16.6257612216,14.315221928 16.6836127187,14.3762877781 16.6836127187,14.3891438188 C 16.6836127187,14.3987855064 16.8571699528,14.5787700751 17.0692939375,14.7876810781 C 17.2814192935,14.9965920811 17.4549751563,15.1765766499 17.4549751563,15.1862183375 C 17.4549751563,15.1958600251 17.5128280247,15.2633545813 17.5835355625,15.3340634903 C 17.6542444716,15.4047710281 17.7120959687,15.4754799372 17.7120959687,15.4883359778 C 17.7120959687,15.5011920185 17.7699488372,15.5622578686 17.840656375,15.6233237188 C 17.9113652841,15.6843895689 17.9692167812,15.751884125 17.9692167812,15.7679545186 C 17.9692167812,15.7872378939 17.940290347,15.8193786811 17.9049365781,15.8418764094 C 17.8695828092,15.8643741376 17.9692167812,15.9029422595 17.9692167812,15.9286543408 C 17.9692167812,15.954366422 17.9981432155,15.9897215622 18.0334969844,16.0090049375 C 18.0688507533,16.0282896841 18.0977771875,16.0700707876 18.0977771875,16.1054259278 C 18.0977771875,16.1407796967 18.1267036217,16.1825621716 18.1620573906,16.2018455469 C 18.1974111595,16.2211302935 18.2263375937,16.262911397 18.2263375937,16.2950521842 C 18.2263375937,16.3271916001 18.255264028,16.3786157626 18.2906177969,16.4107565499 C 18.3259715658,16.4428959658 18.354898,16.4943201283 18.354898,16.5264609155 C 18.354898,16.5618146844 18.3838244342,16.6035971592 18.4191782031,16.6260948875 C 18.464175031,16.6550213217 18.4834584063,16.7032311312 18.4834584063,16.783581728 C 18.4834584063,16.8575036188 18.5059561345,16.9185694689 18.5477386094,16.9571375908 C 18.5927354372,16.9989200656 18.6120188125,17.0567729341 18.6120188125,17.1628342408 C 18.6120188125,17.2463991905 18.6441595997,17.3749595967 18.6827277216,17.4553101935 C 18.7470079247,17.5902979344 18.7502209064,17.6513637845 18.7502209064,18.425940575 C 18.7502209064,19.2198007408 18.7470079247,19.251941528 18.6795133686,19.3387194594 C 18.6345165408,19.3933579749 18.6120188125,19.4704942186 18.6120188125,19.55727215 C 18.6120188125,19.6504787874 18.5927354372,19.7083302845 18.5477386094,19.7468984064 C 18.5123848405,19.7758248406 18.4834584063,19.8401050438 18.4834584063,19.8915292063 C 18.4834584063,19.9429533687 18.454531972,20.0104479249 18.4191782031,20.0425873408 C 18.3838244342,20.074728128 18.354898,20.1357939781 18.354898,20.1743621 C 18.354898,20.2161445749 18.3259715658,20.2675687374 18.2906177969,20.2900664656 C 18.255264028,20.3125641939 18.2263375937,20.3639883564 18.2263375937,20.4025564783 C 18.2263375937,20.4411246001 18.1974111595,20.489335781 18.1620573906,20.5086191562 C 18.1267036217,20.5279039028 18.0977771875,20.5696850064 18.0977771875,20.6050401466 C 18.0977771875,20.6403939155 18.0688507533,20.6821763903 18.0334969844,20.7014597656 C 17.9981432155,20.7207445122 17.9692167812,20.7528839281 17.9692167812,20.7721686747 C 17.9692167812,20.788237697 17.9113652841,20.8621609591 17.840656375,20.9296541439 C 17.7699488372,21.000363053 17.7120959687,21.0678576091 17.7120959687,21.0871409844 C 17.7120959687,21.103211378 17.6831695345,21.1321378122 17.6478157656,21.1514211875 C 17.6124619967,21.1707059341 17.5835355625,21.20284535 17.5835355625,21.2253430783 C 17.5835355625,21.302479322 17.4003366408,21.408542 17.2653488999,21.408542 C 17.0050137344,21.408542 16.8410995592,21.2221300966 16.7961027314,20.8782299814 C 16.715753506,20.277210425 16.4232775533,19.4929919469 16.1147325783,19.0526722126 C 15.9701031497,18.843762581 15.4687175653,18.2330999656 15.2855186436,18.0466880622 C 15.26944825,18.0274033156 15.0219691251,17.7670681501 14.7391362314,17.4713792158 C 14.4563033376,17.1724772997 14.03526835,16.7321575655 13.8070739717,16.4943201283 C 13.5756652405,16.2532697094 13.2414081842,15.9061566125 13.0678509501,15.7197447091 C 12.8910807344,15.5365457874 12.5664653658,15.1958600251 12.3446996935,14.9644512939 C 11.8497414437,14.4534240219 11.3130020905,13.8909725874 10.9948154278,13.5535011781 C 10.8630406686,13.4152990842 10.6669857063,13.2128167872 10.5609230283,13.1003254033 C 10.4548617216,12.9910497436 10.0948925841,12.6182245655 9.76384850952,12.2711114686 C 9.12104647827,11.5993830031 9.08890706236,11.5800996278 8.92177853423,11.6893752875 C 8.87678170639,11.7183017217 8.8414279375,11.7697258842 8.8414279375,11.8018653001 C 8.8414279375,11.8340060874 8.81250150327,11.8757885622 8.77714773437,11.8950719375 C 8.74179396548,11.9143566841 8.71286753125,11.9561377876 8.71286753125,11.9914929278 C 8.71286753125,12.0268466967 8.68394109702,12.0686291716 8.64858732813,12.0879125469 C 8.61001920625,12.1071972935 8.584307125,12.155407103 8.584307125,12.2004025595 C 8.584307125,12.2453993874 8.55859504375,12.2936091969 8.52002692187,12.3128939435 C 8.4814588,12.3321773187 8.45574671875,12.3803871283 8.45574671875,12.4253839561 C 8.45574671875,12.4703794126 8.4300346375,12.5185905935 8.39146651562,12.5378739687 C 8.34968404077,12.560371697 8.3271863125,12.6053685249 8.3271863125,12.666434375 C 8.3271863125,12.7275002251 8.30468858423,12.772497053 8.26290610937,12.7949947813 C 8.22112363452,12.8174925095 8.19862590625,12.8624893374 8.19862590625,12.9235551875 C 8.19862590625,12.9846210376 8.17612817798,13.0296178655 8.13434570312,13.0521155937 C 8.08613589361,13.077827675 8.0700655,13.1196101499 8.0700655,13.2321001625 C 8.0700655,13.3285211528 8.04756777173,13.4056573966 8.00257094389,13.4667232467 C 7.94150509375,13.5535011781 7.93829074077,13.5920693 7.94793379972,14.1705911281 C 7.95757548736,14.6976887938 7.96400282202,14.7908954311 8.01542698452,14.8423195936 C 8.04435341875,14.8776733625 8.0700655,14.9548096062 8.0700655,15.0190898094 C 8.0700655,15.0897987185 8.09256322827,15.1508645686 8.13434570312,15.1894326905 C 8.16969947202,15.2215721064 8.19862590625,15.2890666625 8.19862590625,15.337276472 C 8.19862590625,15.3951293405 8.2243379875,15.446553503 8.26290610937,15.4690512312 C 8.29825987827,15.4915489595 8.3271863125,15.5397601403 8.3271863125,15.5783282622 C 8.3271863125,15.6136820311 8.35611274673,15.6715335283 8.39146651562,15.7036743155 C 8.42682028452,15.7358137314 8.45574671875,15.7775962062 8.45574671875,15.8000939345 C 8.45574671875,15.8225930341 8.48467315298,15.8643741376 8.52002692187,15.8965149249 C 8.55538069077,15.9286543408 8.584307125,15.9736511686 8.584307125,15.9961488969 C 8.584307125,16.0186466251 8.61323355923,16.0540017653 8.64858732813,16.0732851406 C 8.68394109702,16.0925698872 8.71286753125,16.1279236561 8.71286753125,16.1504213844 C 8.71286753125,16.1729191126 8.74179396548,16.2179159405 8.77714773437,16.2500553564 C 8.81250150327,16.2821961436 8.8414279375,16.3271916001 8.8414279375,16.3496906997 C 8.8414279375,16.375402781 8.87035437173,16.4107565499 8.90570814063,16.4332542781 C 8.94106190952,16.4557520064 8.96998834375,16.4911071466 8.96998834375,16.5071761689 C 8.96998834375,16.5264609155 9.05676627514,16.6325235935 9.16282895312,16.7450136061 C 9.26889163111,16.8575036188 9.3556695625,16.9667806497 9.3556695625,16.992492731 C 9.3556695625,17.0149904592 9.38459599673,17.0503442281 9.41994976562,17.0696289747 C 9.45530353452,17.08891235 9.48422996875,17.1242661189 9.48422996875,17.1499782001 C 9.48422996875,17.1756902814 9.51315640298,17.2110454216 9.54851017187,17.2303287969 C 9.58386394077,17.2496135435 9.612790375,17.2817529594 9.612790375,17.3042506876 C 9.612790375,17.3267497872 9.64171680923,17.3621035561 9.67707057812,17.3846012844 C 9.71242434702,17.4070990126 9.74135078125,17.4456671345 9.74135078125,17.4713792158 C 9.74135078125,17.497091297 9.77027721548,17.5324464372 9.80563098438,17.5517298125 C 9.84098475327,17.5710145591 9.8699111875,17.6192243686 9.8699111875,17.6577924905 C 9.8699111875,17.6963606124 9.89562326875,17.7445704219 9.93097703764,17.7670681501 C 9.96311782486,17.7863528967 9.99847159375,17.8474187469 10.0081132814,17.9020572624 C 10.020969322,17.9599087595 10.0498957562,18.0016912344 10.0788221905,18.0016912344 C 10.1077486247,18.0016912344 10.127032,18.0306176686 10.127032,18.0820418311 C 10.127032,18.1270372876 10.1527440813,18.1752484685 10.1913122031,18.1945318437 C 10.236309031,18.220243925 10.2555924062,18.2620263999 10.2555924062,18.3391626436 C 10.2555924062,18.4130845344 10.2780901345,18.4709374028 10.3198726094,18.5062911717 C 10.3648694372,18.5448592936 10.3841528125,18.6027107908 10.3841528125,18.6991317811 C 10.3841528125,18.7730536719 10.4130792467,18.9080427841 10.4484330156,18.9980350685 C 10.541639653,19.2326567814 10.541639653,19.8304633561 10.4484330156,20.0297313001 C 10.4130792467,20.1132962499 10.3841528125,20.2418566561 10.3841528125,20.3382762751 C 10.3841528125,20.4732653874 10.3712967719,20.5118335092 10.3198726094,20.5407599435 C 10.2813044875,20.5600433188 10.2555924062,20.6082531283 10.2555924062,20.6532499561 C 10.2555924062,20.6982454126 10.229880325,20.7464565935 10.1913122031,20.7657399688 C 10.1559584342,20.7850247153 10.127032,20.8332345249 10.127032,20.8718026467 C 10.127032,20.9103707686 10.0981055658,20.9617949311 10.0627517969,20.9842926594 C 10.027398028,21.0067903876 9.99847159375,21.0453585095 9.99847159375,21.0710705908 C 9.99847159375,21.1192817716 9.89562326875,21.1739189158 9.67385622514,21.2446278249 C 9.50030036236,21.2992663403 5.46028925312,21.2928376344 5.30280241264,21.2381991189 C 5.15817298409,21.1867749564 5.09067842798,21.1321378122 5.02961257784,21.0164334466 C 4.92676425284,20.8203784842 5.07460803437,20.6468212501 5.42493548423,20.5568289658 C 5.89418028139,20.4314829125 6.10630563736,20.273996072 6.26379247784,19.9333116811 C 6.40520892472,19.6247667061 6.36342644986,19.1940886595 6.12237603097,18.4548670092 C 5.96810354347,17.9888351937 5.73026610625,17.1146244313 5.64027382187,16.7000167783 C 5.55992322514,16.3239786185 5.5502815375,16.2179159405 5.54706718452,15.655464506 C 5.54706718452,15.0512305966 5.5502815375,15.0126624747 5.6531298625,14.617338197 C 5.81704403764,13.9584671435 6.013099,13.5181474092 6.41163625937,12.9074847939 C 6.72982292202,12.4221696031 7.05443829063,12.0429170903 7.72616675611,11.3744029778 C 8.03792608409,11.0626436499 8.29504689659,10.7894524437 8.29504689659,10.7669547155 C 8.29504689659,10.7219578876 8.19541155327,10.609467875 7.39512405284,9.77382523437 C 7.06407997827,9.42992649048 6.74589331562,9.08924072827 6.68482746548,9.01853319048 C 6.62376161534,8.94782428139 6.56912309986,8.88354407827 6.55948141222,8.87390239062 C 6.48877250312,8.80640783452 6.22843733764,8.47215077827 6.13523207159,8.32752134972 C 5.71741006562,7.67507625952 5.50528608097,7.09976878437 5.43457717187,6.39911525597 C 5.37029696875,5.74345718409 5.47314529375,5.18421873125 5.80097501534,4.43214104034 C 6.00024295937,3.9757509125 6.58519349347,3.19153243437 6.82302955937,3.06940073409 C 6.94194827798,3.00833351264 7.07050868423,3.01154786562 7.18942740284,3.08546975639 C 7.29548870952,3.14974995952 7.33084384972,3.24617094986 7.33084384972,3.48722136875 C 7.33084384972,3.55793027784 7.35334157798,3.64792256222 7.37905365923,3.68006197812 C 7.40476574048,3.71541574702 7.42726346875,3.81183673736 7.42726346875,3.89218733409 C 7.42726346875,4.00146299375 7.44333386236,4.05931586222 7.49154367188,4.10109696577 C 7.53654049972,4.13966508764 7.555823875,4.20073230909 7.555823875,4.29072459347 C 7.555823875,4.3871442125 7.57189426861,4.43214104034 7.62010407812,4.46428045625 C 7.66510090597,4.4899925375 7.68438428125,4.53820234702 7.68438428125,4.61212560909 C 7.68438428125,4.67640581222 7.7100963625,4.74068601534 7.74866448438,4.77603978423 C 7.78401825327,4.80817920014 7.8129446875,4.86603206861 7.8129446875,4.90460019048 C 7.8129446875,4.94316831236 7.84187112173,5.00101980952 7.87722489062,5.03316059673 C 7.91257865952,5.06530001264 7.94150509375,5.11672417514 7.94150509375,5.15207931534 C 7.94150509375,5.18421873125 7.97043152798,5.23564289375 8.00578529687,5.26456932798 C 8.04113906577,5.29670874389 8.0700655,5.33849121875 8.0700655,5.36098894702 C 8.0700655,5.38348804659 8.09899193423,5.4156274625 8.13434570312,5.43491220909 C 8.16969947202,5.45419558437 8.19862590625,5.48954935327 8.19862590625,5.51526143452 C 8.19862590625,5.54097351577 8.22755234048,5.57632865597 8.26290610937,5.59561203125 C 8.29825987827,5.61489677784 8.3271863125,5.65667788139 8.3271863125,5.69203302159 C 8.3271863125,5.72738679048 8.35611274673,5.76916926534 8.39146651562,5.78845264062 C 8.42682028452,5.80773738722 8.45574671875,5.83666245014 8.45574671875,5.85594719673 C 8.45574671875,5.87523057202 8.54252465014,5.97807889702 8.64858732813,6.084141575 C 8.75465000611,6.1869899 8.8414279375,6.28019653736 8.8414279375,6.289838225 C 8.8414279375,6.32197901222 9.79598929673,7.33117751562 10.7634066966,8.31466530909 C 10.9080361251,8.46572344361 11.0269548437,8.59428384986 11.0269548437,8.6039255375 C 11.0269548437,8.61356722514 11.2294371408,8.82247822813 11.4769162656,9.066743 C 11.7243953905,9.31100777187 11.9268776875,9.52313312784 11.9268776875,9.53277481548 C 11.9268776875,9.54563085611 12.0425820531,9.67097690937 12.1839985,9.80917900327 C 12.3254149469,9.95059545014 12.4411193125,10.0727285217 12.4411193125,10.0823702094 C 12.4411193125,10.092011897 12.5568236781,10.2141449686 12.698240125,10.3523470625 C 12.8396565719,10.4905491564 12.9553609375,10.615896581 12.9553609375,10.6255382686 C 12.9553609375,10.6383943092 13.0324971812,10.7316009466 13.1289181716,10.8312349186 C 13.2253377906,10.9308688906 13.4310344406,11.1494215812 13.5885212811,11.3133357564 C 14.237750647,12.0075619501 14.3020308501,12.0718421533 14.3341716374,12.0397027374 C 14.350242031,12.0204179908 14.4016661935,11.7311577624 14.449876003,11.3969007061 C 14.5687947216,10.5484020249 14.6780703813,10.2270010092 15.2598065624,9.06352864702 C 15.5137130219,8.552501375 15.7194096719,8.12825203437 15.7194096719,8.12182469972 C 15.7194096719,8.11218164077 15.6133469939,8.07361351889 15.4880009406,8.03825975 C 14.6748560283,7.80042368409 14.2859618278,7.61722476236 13.8938519031,7.28939504077 C 13.524241078,6.97763708409 13.3828246311,6.81050855597 13.2414081842,6.50839091562 C 13.0774940091,6.16770652472 13.0196411406,5.93629779347 12.9971434124,5.54740222173 C 12.9521465845,4.76961107827 13.1610575875,4.06574319688 13.6495871312,3.32652154659 C 13.8488564466,3.02118955327 14.0866925125,2.74799971847 14.2248946064,2.66443476875 C 14.3598837186,2.58408417202 14.4627320436,2.59051287798 14.6202175128,2.69336120298 Z"/></svg>
