<svg width="24" height="24" xmlns="http://www.w3.org/2000/svg" viewBox="0 0 24 24"><path fill="currentColor" d="M 8.3671875,4.98984375 c -0.01875,0.01171875 -0.065625,0.03515625 -0.103125,0.0515625 c -0.10078125,0.046875 -0.25546875,0.20625 -0.3890625,0.39609375 c -0.03046875,0.04453125 -0.06328125,0.08671875 -0.0703125,0.09375 c -0.03046875,0.0234375 -0.15703125,0.225 -0.18984375,0.29765625 c -0.01875,0.0421875 -0.03984375,0.07734375 -0.04921875,0.07734375 c -0.01171875,0 -0.01875,0.02109375 -0.01875,0.046875 s -0.009375,0.046875 -0.0234375,0.046875 c -0.01171875,0 -0.0234375,0.02109375 -0.0234375,0.046875 s -0.009375,0.046875 -0.0234375,0.046875 c -0.01171875,0 -0.0234375,0.01640625 -0.0234375,0.03515625 c 0,0.02109375 -0.02109375,0.08203125 -0.046875,0.13359375 c -0.02578125,0.05390625 -0.046875,0.11484375 -0.046875,0.1359375 s -0.009375,0.046875 -0.02109375,0.05859375 c -0.01171875,0.0140625 -0.028125,0.08203125 -0.03515625,0.15234375 c -0.0421875,0.37734375 -0.0609375,0.5578125 -0.06328125,0.609375 c -0.00234375,0.13125 0.0328125,0.44765625 0.0515625,0.459375 c 0.01171875,0.00703125 0.02109375,0.05390625 0.02109375,0.103125 s 0.01171875,0.0984375 0.0234375,0.10546875 c 0.0140625,0.00703125 0.0234375,0.03515625 0.0234375,0.0609375 c 0,0.0234375 0.01875,0.0890625 0.04453125,0.1453125 c 0.0234375,0.05390625 0.05859375,0.1359375 0.075,0.18046875 c 0.1171875,0.309375 0.3140625,0.54375 1.35,1.59375 c 0.22265625,0.22734375 0.40546875,0.421875 0.40546875,0.43359375 c 0,0.028125 -0.10546875,0.15234375 -0.1265625,0.15234375 c -0.07265625,0 -0.7734375,0.6515625 -0.9046875,0.84375 c -0.0328125,0.04453125 -0.075,0.103125 -0.0984375,0.1265625 c -0.0234375,0.02578125 -0.0421875,0.0609375 -0.0421875,0.07734375 s -0.009375,0.03046875 -0.01875,0.03046875 s -0.0375,0.03046875 -0.05859375,0.0703125 c -0.0234375,0.0375 -0.05390625,0.08203125 -0.0703125,0.10078125 c -0.03046875,0.0328125 -0.07265625,0.10078125 -0.14296875,0.2390625 c -0.028125,0.0515625 -0.05390625,0.0984375 -0.0609375,0.10546875 c -0.028125,0.028125 -0.0703125,0.11953125 -0.0703125,0.15234375 c 0,0.01875 -0.009375,0.03515625 -0.0234375,0.03515625 c -0.01171875,0 -0.0234375,0.01640625 -0.0234375,0.03515625 s -0.01171875,0.05859375 -0.028125,0.0890625 c -0.05625,0.1125 -0.065625,0.13359375 -0.065625,0.178125 c 0,0.02578125 -0.009375,0.05390625 -0.0234375,0.0609375 c -0.01171875,0.00703125 -0.0234375,0.03984375 -0.0234375,0.0703125 s -0.009375,0.0609375 -0.02109375,0.06796875 s -0.02578125,0.046875 -0.0328125,0.0890625 c -0.009375,0.0421875 -0.02578125,0.1359375 -0.0421875,0.20625 c -0.0375,0.17109375 -0.05390625,1.1484375 -0.02109375,1.18125 c 0.01171875,0.01171875 0.0234375,0.06796875 0.0234375,0.121875 c 0,0.05625 0.009375,0.10546875 0.02109375,0.1125 s 0.02578125,0.05390625 0.03515625,0.10078125 c 0.03046875,0.20625 0.04453125,0.26484375 0.06328125,0.27890625 c 0.01171875,0.00703125 0.02109375,0.0421875 0.02109375,0.08203125 c 0,0.0375 0.009375,0.08671875 0.02109375,0.11015625 c 0.01171875,0.02109375 0.0328125,0.08203125 0.046875,0.13359375 c 0.01640625,0.0515625 0.0375,0.11484375 0.04921875,0.140625 c 0.009375,0.02578125 0.028125,0.0890625 0.0421875,0.140625 c 0.05859375,0.22265625 0.08203125,0.30703125 0.10078125,0.3515625 c 0.046875,0.11484375 0.0796875,0.478125 0.046875,0.5109375 c -0.0140625,0.0140625 -0.02578125,0.04453125 -0.02578125,0.06796875 c 0,0.04453125 -0.07734375,0.19453125 -0.12421875,0.2390625 c -0.0234375,0.0234375 -0.10078125,0.06796875 -0.27890625,0.15703125 c -0.0234375,0.01171875 -0.07734375,0.02109375 -0.121875,0.02109375 c -0.16875,0 -0.365625,0.178125 -0.365625,0.33046875 c 0,0.065625 0.05390625,0.16171875 0.12890625,0.23203125 l 0.06328125,0.05859375 l 1.63125,0.00703125 l 1.63125,0.0046875 l 0.12421875,-0.08203125 c 0.1125,-0.075 0.1359375,-0.10546875 0.25078125,-0.346875 c 0.18515625,-0.37734375 0.21328125,-0.496875 0.2109375,-0.90703125 c 0,-0.3328125 -0.00234375,-0.34453125 -0.0890625,-0.6046875 c -0.1078125,-0.31640625 -0.253125,-0.5671875 -0.4875,-0.84140625 c -0.40078125,-0.46875 -0.79921875,-0.96796875 -0.95859375,-1.20234375 c -0.2484375,-0.36328125 -0.31171875,-0.93046875 -0.1640625,-1.49765625 c 0.028125,-0.1078125 0.0796875,-0.25078125 0.1125,-0.31640625 c 0.05390625,-0.1078125 0.33046875,-0.5015625 0.45234375,-0.64453125 l 0.046875,-0.05390625 l 0.12421875,0.10546875 c 0.065625,0.05859375 1.19296875,1.17421875 2.503125,2.4796875 C 14.709375,15.7359375 14.859375,15.890625 14.9671875,16.078125 c 0.11015625,0.18984375 0.196875,0.36328125 0.2484375,0.4921875 c 0.0140625,0.0328125 0.0328125,0.07734375 0.04453125,0.0984375 c 0.01171875,0.0234375 0.02109375,0.06328125 0.02109375,0.08671875 c 0,0.02578125 0.009375,0.0515625 0.02109375,0.05859375 c 0.02578125,0.01640625 0.04921875,0.14765625 0.06328125,0.35390625 c 0.02109375,0.32578125 0.1453125,0.48046875 0.384375,0.48046875 c 0.11953125,0 0.1828125,-0.03515625 0.3796875,-0.2015625 c 0.3375,-0.29296875 0.6375,-0.77578125 0.75703125,-1.228125 c 0.18984375,-0.71484375 0.11484375,-1.40625 -0.225,-2.06484375 c -0.13125,-0.2578125 -0.18046875,-0.3140625 -0.9,-1.05234375 c -1.1671875,-1.19765625 -1.0546875,-1.07109375 -1.1109375,-1.25625 c -0.065625,-0.225 -0.06796875,-0.6890625 -0.0046875,-0.946875 c 0.09140625,-0.35859375 0.30703125,-0.78046875 0.60234375,-1.171875 c 0.24140625,-0.32109375 0.37265625,-0.38203125 0.51328125,-0.2390625 c 0.09375,0.09140625 0.12890625,0.2015625 0.12890625,0.39140625 c 0,0.1640625 0.00234375,0.1734375 0.0796875,0.2390625 c 0.0421875,0.03984375 0.1265625,0.08203125 0.1875,0.0984375 c 0.20859375,0.0515625 0.36796875,-0.0703125 0.6,-0.4640625 c 0.30703125,-0.515625 0.43125,-1.0875 0.34921875,-1.59609375 c -0.0375,-0.24140625 -0.17109375,-0.59296875 -0.28828125,-0.77109375 c -0.1125,-0.16875 -0.30703125,-0.36328125 -0.48515625,-0.4828125 c -0.05625,-0.0375 -0.1078125,-0.07734375 -0.11484375,-0.08671875 c -0.0234375,-0.03046875 -0.66796875,-0.346875 -0.7078125,-0.346875 c -0.0234375,0 -0.0421875,-0.01171875 -0.0421875,-0.0234375 c 0,-0.0140625 -0.01640625,-0.0234375 -0.03515625,-0.0234375 s -0.08671875,-0.0234375 -0.14765625,-0.0515625 c -0.43125,-0.19921875 -0.7546875,-0.59296875 -0.7546875,-0.91875 c 0,-0.1734375 -0.03984375,-0.3046875 -0.1125,-0.37734375 c -0.04921875,-0.04921875 -0.0796875,-0.05859375 -0.20625,-0.05859375 c -0.084375,0 -0.15,0.009375 -0.15,0.0234375 c 0,0.01171875 -0.0140625,0.0234375 -0.03046875,0.0234375 c -0.04453125,0 -0.43828125,0.4171875 -0.43828125,0.4640625 c 0,0.009375 -0.02578125,0.046875 -0.05859375,0.084375 s -0.05859375,0.075 -0.05859375,0.084375 s -0.02578125,0.046875 -0.05859375,0.084375 s -0.05859375,0.08203125 -0.05859375,0.09609375 c 0,0.01640625 -0.00703125,0.03046875 -0.01875,0.03046875 c -0.01640625,0 -0.04453125,0.05625 -0.0984375,0.2109375 c -0.01640625,0.04453125 -0.04921875,0.1265625 -0.07265625,0.18046875 c -0.02578125,0.05625 -0.04453125,0.11953125 -0.04453125,0.14296875 s -0.009375,0.0515625 -0.02109375,0.06328125 c -0.075,0.0796875 -0.075,0.98671875 0,1.03359375 c 0.01171875,0.00703125 0.02109375,0.0328125 0.02109375,0.05625 c 0,0.05625 0.1453125,0.31640625 0.2109375,0.375 c 0.00703125,0.00703125 0.04921875,0.05859375 0.09375,0.1171875 c 0.25546875,0.3328125 0.5765625,0.5578125 1.125,0.78515625 c 0.2625,0.1078125 0.26484375,0.12890625 0.03515625,0.3703125 c -0.084375,0.0890625 -0.15234375,0.17578125 -0.15234375,0.19453125 s -0.009375,0.0328125 -0.0234375,0.0328125 c -0.01171875,0 -0.0234375,0.0140625 -0.0234375,0.03046875 s -0.01875,0.0515625 -0.03984375,0.07734375 c -0.0515625,0.05859375 -0.10546875,0.14765625 -0.1875,0.3140625 c -0.03515625,0.0703125 -0.07265625,0.13125 -0.08203125,0.1359375 s -0.01875,0.028125 -0.01875,0.0515625 s -0.009375,0.0515625 -0.0234375,0.05859375 c -0.01171875,0.00703125 -0.0234375,0.03984375 -0.0234375,0.07265625 c 0,0.03046875 -0.009375,0.05625 -0.0234375,0.05625 c -0.01171875,0 -0.0234375,0.02109375 -0.0234375,0.04453125 c 0,0.02578125 -0.0234375,0.09140625 -0.04921875,0.14765625 c -0.08671875,0.17109375 -0.08203125,0.16171875 -0.13125,0.43359375 c -0.00703125,0.0421875 -0.02109375,0.07734375 -0.03046875,0.07734375 c -0.01171875,0 -0.0234375,0.01640625 -0.028125,0.0375 c -0.00703125,0.03984375 -4.3125,-4.25390625 -4.4578125,-4.44609375 c -0.1453125,-0.19453125 -0.31875,-0.61171875 -0.36796875,-0.89765625 c -0.0234375,-0.13828125 -0.04453125,-0.2953125 -0.04453125,-0.34921875 c 0,-0.1125 -0.06796875,-0.2296875 -0.15703125,-0.271875 c -0.03515625,-0.01640625 -0.084375,-0.03984375 -0.10546875,-0.0515625 c -0.0515625,-0.02578125 -0.1828125,-0.02578125 -0.2296875,0"/></svg>