<svg xmlns="http://www.w3.org/2000/svg" viewBox="0 0 24 24" width="24" height="24"><path fill="currentColor" d="M 9.90299212188,3.83127661875 c -0.0440692125,0.02203460625 -0.077121121875,0.0523321898438 -0.077121121875,0.06610381875 s -0.0247889320312,0.033051909375 -0.055086515625,0.0413148867187 s -0.055086515625,0.0358062351563 -0.055086515625,0.055086515625 c 0,0.02203460625 -0.0247889320313,0.0523321898438 -0.055086515625,0.0688581445313 s -0.055086515625,0.0468235382812 -0.055086515625,0.0688581445312 s -0.0247889320313,0.055086515625 -0.055086515625,0.0743667960938 s -0.055086515625,0.055086515625 -0.055086515625,0.077121121875 s -0.0247889320312,0.0578408414062 -0.055086515625,0.077121121875 s -0.055086515625,0.0578408414062 -0.055086515625,0.0853840992187 c 0,0.0302975835937 -0.0247889320312,0.0633494929687 -0.055086515625,0.0716124703125 c -0.033051909375,0.011017303125 -0.055086515625,0.0413148867187 -0.055086515625,0.077121121875 c 0,0.033051909375 -0.0247889320313,0.077121121875 -0.055086515625,0.0964014023437 s -0.055086515625,0.0633494929687 -0.055086515625,0.101910053906 s -0.02203460625,0.0798754476563 -0.055086515625,0.0964014023437 c -0.0413148867187,0.02203460625 -0.055086515625,0.0578408414063 -0.055086515625,0.148733592188 c 0,0.0826297734375 -0.0165259546875,0.1322076375 -0.055086515625,0.168013872656 c -0.0440692125,0.0385605609375 -0.055086515625,0.0853840992187 -0.055086515625,0.209328759375 c 0,0.0964014023437 -0.02203460625,0.217591736719 -0.055086515625,0.300221510156 c -0.0468235382812,0.118436008594 -0.055086515625,0.203820107813 -0.055086515625,0.5728997625 c 0,0.385605609375 0.0055086515625,0.440692125 0.055086515625,0.515058921094 c 0.0358062351563,0.0523321898438 0.055086515625,0.129453311719 0.055086515625,0.209328759375 c 0,0.0908927507812 0.0165259546875,0.140470614844 0.055086515625,0.17627685 c 0.033051909375,0.0302975835938 0.055086515625,0.0853840992188 0.055086515625,0.140470614844 c 0,0.0633494929688 0.0165259546875,0.104664379688 0.055086515625,0.126698985937 c 0.0302975835938,0.0192802804688 0.055086515625,0.0578408414063 0.055086515625,0.0853840992188 c 0,0.0247889320312 0.0247889320313,0.0688581445312 0.055086515625,0.0936470765625 c 0.0302975835937,0.0275432578125 0.055086515625,0.0605951671875 0.055086515625,0.077121121875 c 0,0.0495778640625 0.256152297656,0.275432578125 0.440692125,0.393868586719 c 0.192802804687,0.121190334375 0.952996720312,0.404885889844 1.21465766953,0.454463753906 c 0.140470614844,0.0247889320312 0.156996569531,0.033051909375 0.1322076375,0.077121121875 c -0.0137716289062,0.0275432578125 -0.0247889320312,0.099155728125 -0.0247889320312,0.159750895313 c 0,0.0826297734375 -0.0137716289062,0.118436008594 -0.055086515625,0.140470614844 c -0.0358062351563,0.0192802804687 -0.055086515625,0.0578408414062 -0.055086515625,0.11017303125 s -0.0192802804687,0.0908927507813 -0.055086515625,0.11017303125 c -0.0385605609375,0.02203460625 -0.055086515625,0.0578408414063 -0.055086515625,0.123944660156 s -0.0165259546875,0.101910053906 -0.055086515625,0.123944660156 c -0.0358062351563,0.0192802804687 -0.055086515625,0.0578408414063 -0.055086515625,0.11017303125 s -0.0192802804687,0.0908927507813 -0.055086515625,0.11017303125 s -0.055086515625,0.0578408414063 -0.055086515625,0.11017303125 s -0.0192802804687,0.0908927507813 -0.055086515625,0.11017303125 s -0.055086515625,0.0578408414063 -0.055086515625,0.11017303125 s -0.0192802804688,0.0908927507813 -0.055086515625,0.11017303125 c -0.0413148867187,0.02203460625 -0.055086515625,0.0578408414063 -0.055086515625,0.137716289063 s -0.0137716289062,0.115681682812 -0.055086515625,0.137716289062 c -0.0440692125,0.0247889320312 -0.055086515625,0.0578408414063 -0.055086515625,0.17627685 c 0,0.11017303125 -0.0137716289062,0.156996569531 -0.055086515625,0.195557130469 c -0.0358062351563,0.033051909375 -0.055086515625,0.0853840992188 -0.055086515625,0.148733592188 c 0,0.055086515625 -0.0192802804687,0.123944660156 -0.0413148867187,0.151487917969 c -0.0302975835938,0.0385605609375 -0.0413148867187,0.126698985937 -0.0413148867187,0.297467184375 c 0,0.168013872656 -0.0137716289062,0.275432578125 -0.0468235382813,0.3525537 c -0.0275432578125,0.0605951671875 -0.055086515625,0.11017303125 -0.0633494929688,0.11017303125 c -0.02203460625,0 -0.247889320312,-0.223100388281 -0.369079654687,-0.360816677344 c -0.137716289062,-0.156996569531 -0.294712858594,-0.327764767969 -0.787737173437,-0.851086666406 c -0.223100388281,-0.234117691406 -0.718879028906,-0.762948241406 -1.1017303125,-1.17058845703 c -0.385605609375,-0.410394541406 -0.804263128125,-0.856595317969 -0.936470765625,-0.99155728125 c -0.129453311719,-0.137716289063 -0.349799374219,-0.366325328906 -0.4847613375,-0.509550269531 c -0.137716289062,-0.143224940625 -0.366325328906,-0.385605609375 -0.509550269531,-0.537093527344 c -1.02736351641,-1.08520435781 -0.994311607031,-1.04939812266 -1.10723896406,-1.27249851094 c -0.0413148867187,-0.077121121875 -0.0853840992188,-0.148733592187 -0.101910053906,-0.159750895312 c -0.0578408414063,-0.0358062351563 -0.269923926562,-0.501287292188 -0.327764767969,-0.716124703125 c -0.0826297734375,-0.313993139063 -0.140470614844,-0.63900358125 -0.140470614844,-0.798754476563 c 0,-0.077121121875 -0.011017303125,-0.151487917969 -0.02203460625,-0.168013872656 c -0.0936470765625,-0.1322076375 -0.377342632031,-0.165259546875 -0.517813246875,-0.0605951671875 c -0.140470614844,0.107418705469 -0.451709428125,0.429674821875 -0.451709428125,0.468235382812 c 0,0.0192802804687 -0.0247889320313,0.0523321898438 -0.055086515625,0.0716124703125 s -0.055086515625,0.0523321898438 -0.055086515625,0.0743667960938 s -0.0247889320313,0.055086515625 -0.055086515625,0.0743667960938 s -0.055086515625,0.0578408414062 -0.055086515625,0.0826297734375 c 0,0.0275432578125 -0.0247889320312,0.0633494929687 -0.055086515625,0.0826297734375 s -0.055086515625,0.0633494929687 -0.055086515625,0.0964014023437 s -0.0247889320313,0.0743667960938 -0.055086515625,0.0908927507812 c -0.0358062351563,0.0192802804688 -0.055086515625,0.0578408414062 -0.055086515625,0.11017303125 s -0.0192802804688,0.0908927507812 -0.055086515625,0.11017303125 c -0.0385605609375,0.0192802804688 -0.055086515625,0.0578408414062 -0.055086515625,0.121190334375 c 0,0.055086515625 -0.02203460625,0.11017303125 -0.055086515625,0.140470614844 c -0.0413148867187,0.0358062351563 -0.055086515625,0.0853840992188 -0.055086515625,0.184539827344 c 0,0.0798754476563 -0.02203460625,0.173522524219 -0.055086515625,0.234117691406 c -0.0495778640625,0.0936470765625 -0.055086515625,0.156996569531 -0.055086515625,0.674809816406 c 0,0.520567572656 0.0055086515625,0.583917065625 0.055086515625,0.674809816406 c 0.0385605609375,0.0716124703125 0.055086515625,0.156996569531 0.055086515625,0.275432578125 c 0,0.143224940625 0.00826297734375,0.179031175781 0.055086515625,0.206574433594 c 0.0385605609375,0.0247889320313 0.055086515625,0.06610381875 0.055086515625,0.137716289063 c 0,0.0743667960938 0.0165259546875,0.112927357031 0.055086515625,0.137716289062 c 0.033051909375,0.02203460625 0.055086515625,0.06610381875 0.055086515625,0.107418705469 c 0,0.0385605609375 0.0247889320312,0.0936470765625 0.055086515625,0.121190334375 s 0.055086515625,0.077121121875 0.055086515625,0.11017303125 s 0.0247889320313,0.0826297734375 0.055086515625,0.11017303125 s 0.055086515625,0.0716124703125 0.055086515625,0.099155728125 s 0.0247889320313,0.0633494929688 0.055086515625,0.0798754476563 s 0.055086515625,0.0440692125 0.055086515625,0.0633494929688 s 0.0247889320313,0.0495778640625 0.055086515625,0.0688581445312 s 0.055086515625,0.0468235382812 0.055086515625,0.0633494929688 c 0,0.0137716289062 0.0413148867187,0.0688581445312 0.0908927507812,0.118436008594 c 0.0468235382813,0.0523321898438 0.17627685,0.190048478906 0.280941229688,0.305730161719 c 0.107418705469,0.115681682813 0.338782071094,0.358062351563 0.517813246875,0.539847853125 c 0.17627685,0.181785501562 0.322256116406,0.341536396875 0.322256116406,0.355308025781 s 0.0247889320312,0.0413148867187 0.055086515625,0.0605951671875 s 0.055086515625,0.0468235382812 0.055086515625,0.0633494929688 c 0,0.0137716289062 0.0495778640625,0.0716124703125 0.11017303125,0.123944660156 s 0.11017303125,0.107418705469 0.11017303125,0.121190334375 s 0.0192802804688,0.0495778640625 0.0468235382813,0.077121121875 c 0.0413148867187,0.0468235382812 0.0413148867187,0.0523321898437 0,0.099155728125 c -0.0275432578125,0.0275432578125 -0.0468235382813,0.0633494929688 -0.0468235382813,0.077121121875 s -0.088138425,0.104664379688 -0.195557130469,0.203820107812 c -0.261660949219,0.239626342969 -0.575654088281,0.55086515625 -0.575654088281,0.570145436719 c 0,0.00826297734375 -0.0743667960937,0.0853840992188 -0.165259546875,0.173522524219 s -0.165259546875,0.173522524219 -0.165259546875,0.190048478906 c 0,0.0137716289062 -0.0247889320313,0.0413148867187 -0.055086515625,0.0578408414063 s -0.055086515625,0.0468235382812 -0.055086515625,0.0688581445312 s -0.0247889320313,0.0523321898437 -0.055086515625,0.0688581445312 s -0.055086515625,0.0523321898438 -0.055086515625,0.0826297734375 s -0.0247889320312,0.06610381875 -0.055086515625,0.0826297734375 s -0.055086515625,0.0523321898438 -0.055086515625,0.0826297734375 s -0.0247889320313,0.06610381875 -0.055086515625,0.0826297734375 s -0.055086515625,0.0523321898437 -0.055086515625,0.0826297734375 s -0.0247889320313,0.06610381875 -0.055086515625,0.0826297734375 c -0.033051909375,0.0165259546875 -0.055086515625,0.0578408414063 -0.055086515625,0.0964014023437 s -0.02203460625,0.0798754476563 -0.055086515625,0.0964014023438 c -0.0358062351563,0.0192802804687 -0.055086515625,0.0578408414062 -0.055086515625,0.11017303125 s -0.0192802804687,0.0908927507813 -0.055086515625,0.11017303125 c -0.0385605609375,0.0192802804687 -0.055086515625,0.0578408414063 -0.055086515625,0.121190334375 c 0,0.055086515625 -0.02203460625,0.11017303125 -0.055086515625,0.140470614844 c -0.0358062351563,0.033051909375 -0.055086515625,0.0853840992187 -0.055086515625,0.151487917969 s -0.0192802804688,0.118436008594 -0.055086515625,0.151487917969 c -0.0413148867187,0.0358062351563 -0.055086515625,0.0853840992188 -0.055086515625,0.187294153125 c 0,0.0853840992187 -0.0192802804688,0.168013872656 -0.0523321898438,0.223100388281 c -0.0798754476563,0.1322076375 -0.104664379687,0.633494929687 -0.0716124703125,1.37165423906 c 0.0192802804688,0.371833980469 0.0302975835938,0.440692125 0.0716124703125,0.479252685938 c 0.0385605609375,0.0358062351563 0.0523321898438,0.0853840992187 0.0523321898438,0.190048478906 c 0,0.101910053906 0.0165259546875,0.165259546875 0.055086515625,0.214837410938 c 0.0358062351563,0.0468235382812 0.055086515625,0.11017303125 0.055086515625,0.192802804687 c 0,0.0798754476562 0.0192802804687,0.145979266406 0.055086515625,0.192802804687 c 0.033051909375,0.0413148867188 0.055086515625,0.11017303125 0.055086515625,0.17627685 c 0,0.0716124703125 0.0165259546875,0.121190334375 0.055086515625,0.15424224375 c 0.0413148867187,0.0358062351562 0.055086515625,0.0798754476562 0.055086515625,0.192802804687 s 0.0137716289063,0.159750895312 0.055086515625,0.19831145625 c 0.0385605609375,0.0358062351563 0.055086515625,0.0853840992187 0.055086515625,0.17627685 c 0,0.0798754476562 0.0192802804688,0.156996569531 0.055086515625,0.209328759375 c 0.0468235382813,0.0688581445312 0.055086515625,0.129453311719 0.055086515625,0.388359935156 c 0,0.269923926563 -0.0055086515625,0.311238813281 -0.055086515625,0.355308025781 c -0.0302975835937,0.0275432578125 -0.055086515625,0.06610381875 -0.055086515625,0.088138425 c 0,0.104664379688 -0.256152297656,0.275432578125 -0.5728997625,0.380096957813 c -0.115681682813,0.0413148867187 -0.258906623438,0.101910053906 -0.313993139063,0.140470614844 L 2.00358578125,19.3766913281 l 0,0.2203460625 c 0,0.344290722656 -0.184539827344,0.316747464844 2.09328759375,0.316747464844 l 1.91425641797,0 l 0.137716289063,-0.0743667960937 c 0.28644988125,-0.151487917969 0.465481057031,-0.451709428125 0.559128133594,-0.930962114062 c 0.101910053906,-0.515058921094 0.101910053906,-0.603197346094 0.00826297734375,-1.23118362422 c -0.0495778640625,-0.325010442187 -0.468235382812,-1.04664379687 -0.867612621094,-1.49009024766 c -0.112927357031,-0.123944660156 -0.245134994531,-0.294712858594 -0.297467184375,-0.37458830625 c -0.0495778640625,-0.0798754476562 -0.195557130469,-0.289204207031 -0.325010442187,-0.459972405469 c -0.129453311719,-0.173522524219 -0.267169600781,-0.363571003125 -0.305730161719,-0.424166170313 c -0.0826297734375,-0.129453311719 -0.223100388281,-0.4847613375 -0.275432578125,-0.702353074219 c -0.0495778640625,-0.206574433594 -0.0495778640625,-0.964014023437 0,-1.12927357031 c 0.0192802804687,-0.0688581445313 0.055086515625,-0.203820107813 0.0743667960938,-0.297467184375 c 0.055086515625,-0.258906623438 0.338782071094,-0.732650657812 0.625231952344,-1.04664379687 l 0.11017303125,-0.115681682813 l 0.112927357031,0.0964014023437 c 0.0605951671875,0.055086515625 0.15424224375,0.1322076375 0.201065782031,0.173522524219 c 0.0495778640625,0.0413148867187 0.0908927507813,0.088138425 0.0908927507813,0.101910053906 c 0,0.0165259546875 0.0743667960937,0.099155728125 0.165259546875,0.187294153125 s 0.165259546875,0.168013872656 0.165259546875,0.173522524219 c 0,0.00826297734375 0.101910053906,0.115681682812 0.228609039844,0.24238066875 c 0.123944660156,0.129453311719 0.344290722656,0.358062351563 0.487515663281,0.515058921094 c 0.143224940625,0.15424224375 0.415903192969,0.437937799219 0.605951671875,0.630740603906 c 0.534339201563,0.548110830469 0.99155728125,1.02460919063 0.99155728125,1.03838081953 c 0,0.0055086515625 0.126698985937,0.137716289063 0.283695555469,0.294712858594 c 0.15424224375,0.156996569531 0.473744034375,0.487515663281 0.707861725781,0.735404983594 c 0.234117691406,0.245134994531 0.50679594375,0.52883055 0.605951671875,0.630740603906 c 0.366325328906,0.377342632031 0.605951671875,0.636249255469 0.605951671875,0.6610381875 c 0,0.0137716289063 0.0247889320313,0.0385605609375 0.055086515625,0.055086515625 s 0.055086515625,0.0468235382813 0.055086515625,0.0688581445313 s 0.0247889320313,0.0523321898437 0.055086515625,0.0688581445313 s 0.055086515625,0.0468235382812 0.055086515625,0.0688581445312 s 0.0247889320312,0.0523321898437 0.055086515625,0.0688581445313 s 0.055086515625,0.0523321898437 0.055086515625,0.0826297734375 s 0.0247889320312,0.06610381875 0.055086515625,0.0826297734375 s 0.055086515625,0.0468235382813 0.055086515625,0.0688581445312 s 0.0247889320313,0.055086515625 0.055086515625,0.0743667960937 s 0.055086515625,0.0633494929688 0.055086515625,0.0964014023438 s 0.0247889320313,0.0743667960937 0.055086515625,0.0908927507813 s 0.055086515625,0.0578408414063 0.055086515625,0.0936470765625 s 0.0247889320312,0.0853840992188 0.055086515625,0.112927357031 s 0.055086515625,0.0798754476562 0.055086515625,0.115681682813 s 0.0247889320312,0.0853840992188 0.055086515625,0.11017303125 c 0.0385605609375,0.033051909375 0.055086515625,0.0826297734375 0.055086515625,0.159750895313 c 0,0.0633494929688 0.02203460625,0.145979266406 0.055086515625,0.192802804687 c 0.0495778640625,0.0743667960937 0.055086515625,0.129453311719 0.055086515625,0.501287292187 c 0,0.344290722656 0.00826297734375,0.424166170312 0.0440692125,0.459972405469 c 0.0247889320312,0.0247889320312 0.0523321898437,0.0798754476562 0.0633494929688,0.121190334375 c 0.0385605609375,0.151487917969 0.457218079688,0.338782071094 0.864858295313,0.388359935156 c 0.413148867187,0.0495778640625 0.779474196094,-0.0468235382812 1.15406250234,-0.305730161719 c 0.11017303125,-0.0743667960937 0.256152297656,-0.168013872656 0.327764767969,-0.203820107812 s 0.206574433594,-0.129453311719 0.302975835937,-0.206574433594 l 0.170768198438,-0.143224940625 l -0.0798754476562,-0.06610381875 c -0.223100388281,-0.179031175781 -0.283695555469,-0.209328759375 -0.355308025781,-0.179031175781 c -0.0385605609375,0.0165259546875 -0.0688581445312,0.055086515625 -0.0688581445312,0.0798754476562 c 0,0.0275432578125 -0.0247889320313,0.0853840992188 -0.055086515625,0.1322076375 c -0.0302975835938,0.0440692125 -0.055086515625,0.126698985938 -0.055086515625,0.181785501563 c 0,0.0688581445312 -0.0247889320313,0.123944660156 -0.0853840992188,0.192802804687 l -0.0826297734375,0.0936470765625 l -0.473744034375,-0.00275432578125 c -0.415903192969,0 -0.495778640625,-0.00826297734375 -0.6610381875,-0.0633494929688 l -0.184539827344,-0.0633494929688 l 0.206574433594,-0.217591736719 c 0.845578014844,-0.900664530469 1.14304519922,-2.12083085156 0.820789082813,-3.35752312734 c -0.0853840992188,-0.333273419531 -0.3084844875,-0.798754476563 -0.534339201563,-1.11550194141 c -0.0964014023437,-0.134961963281 -0.393868586719,-0.468235382812 -0.655529535938,-0.738159309375 c -1.1017303125,-1.12376491875 -1.32758502656,-1.62505221094 -1.28351581406,-2.84521853203 c 0.0192802804687,-0.567391110937 0.0688581445312,-0.7491766125 0.358062351562,-1.31932204922 c 0.192802804688,-0.380096957812 0.556373807813,-1.00532891016 0.583917065625,-1.00532891016 c 0.00826297734375,0 0.0605951671875,0.0468235382812 0.118436008594,0.104664379688 c 0.101910053906,0.107418705469 0.137716289062,0.228609039844 0.148733592188,0.52883055 c 0.011017303125,0.24238066875 0.217591736719,0.388359935156 0.415903192969,0.294712858594 c 0.107418705469,-0.0523321898437 0.258906623438,-0.261660949219 0.426920496094,-0.597688694531 c 0.280941229687,-0.559128133594 0.369079654687,-0.94748806875 0.349799374219,-1.5424224375 c -0.00826297734375,-0.231363365625 -0.0302975835938,-0.476498360156 -0.0578408414063,-0.586671391406 c -0.0495778640625,-0.203820107813 -0.223100388281,-0.616968975 -0.327764767969,-0.782228521875 c -0.123944660156,-0.192802804688 -0.487515663281,-0.515058921094 -0.735404983594,-0.647266558594 c -0.258906623438,-0.140470614844 -0.622477626562,-0.294712858594 -0.77121121875,-0.325010442187 c -0.487515663281,-0.104664379687 -0.884138575781,-0.393868586719 -1.07694138047,-0.784982847656 c -0.0688581445312,-0.143224940625 -0.0853840992188,-0.214837410937 -0.104664379688,-0.4847613375 c -0.0275432578125,-0.415903192969 -0.0413148867188,-0.437937799219 -0.258906623438,-0.437937799219 c -0.0964014023438,0.00275432578125 -0.203820107813,0.0192802804688 -0.245134994531,0.0440692125 M 20.9616101336,9.12784509609 c -0.126698985938,0.02203460625 -0.338782071094,0.15424224375 -0.338782071094,0.212083085156 c 0,0.0192802804688 -0.0247889320312,0.0495778640625 -0.055086515625,0.06610381875 s -0.055086515625,0.0468235382812 -0.055086515625,0.0688581445312 s -0.0247889320312,0.055086515625 -0.055086515625,0.0743667960937 s -0.055086515625,0.0578408414063 -0.055086515625,0.0826297734375 c 0,0.0275432578125 -0.0247889320312,0.0605951671875 -0.055086515625,0.077121121875 s -0.055086515625,0.0468235382812 -0.055086515625,0.0688581445312 s -0.0247889320312,0.0523321898437 -0.055086515625,0.0688581445312 s -0.055086515625,0.0523321898438 -0.055086515625,0.0826297734375 c 0,0.0275432578125 -0.0247889320312,0.0605951671875 -0.055086515625,0.0688581445312 s -0.055086515625,0.0358062351563 -0.055086515625,0.055086515625 c 0,0.02203460625 -0.0247889320312,0.0523321898438 -0.055086515625,0.0688581445313 s -0.055086515625,0.0523321898437 -0.055086515625,0.0826297734375 s -0.0247889320312,0.06610381875 -0.055086515625,0.0826297734375 s -0.055086515625,0.0468235382812 -0.055086515625,0.0688581445312 s -0.0247889320312,0.055086515625 -0.055086515625,0.0743667960937 s -0.055086515625,0.055086515625 -0.055086515625,0.077121121875 s -0.0247889320312,0.0578408414063 -0.055086515625,0.077121121875 s -0.055086515625,0.0523321898437 -0.055086515625,0.0743667960937 s -0.0247889320312,0.0523321898437 -0.055086515625,0.0688581445312 s -0.055086515625,0.0523321898438 -0.055086515625,0.0826297734375 s -0.0247889320312,0.06610381875 -0.055086515625,0.0826297734375 s -0.055086515625,0.0440692125 -0.055086515625,0.0633494929688 s -0.0247889320312,0.0495778640625 -0.055086515625,0.0688581445313 s -0.055086515625,0.0523321898437 -0.055086515625,0.0743667960937 s -0.0247889320312,0.0523321898437 -0.055086515625,0.0688581445312 s -0.055086515625,0.0468235382812 -0.055086515625,0.0688581445312 s -0.0247889320312,0.0523321898438 -0.055086515625,0.0688581445312 s -0.055086515625,0.0523321898438 -0.055086515625,0.0826297734375 s -0.0247889320312,0.06610381875 -0.055086515625,0.0826297734375 s -0.055086515625,0.0523321898437 -0.055086515625,0.0826297734375 s -0.0247889320312,0.06610381875 -0.055086515625,0.0826297734375 s -0.055086515625,0.0468235382812 -0.055086515625,0.0688581445312 s -0.0247889320312,0.0523321898438 -0.055086515625,0.0688581445312 s -0.055086515625,0.0468235382813 -0.055086515625,0.0688581445313 s -0.0247889320312,0.0523321898437 -0.055086515625,0.0688581445312 s -0.055086515625,0.0468235382812 -0.055086515625,0.0688581445312 s -0.0247889320312,0.0523321898437 -0.055086515625,0.0688581445312 s -0.055086515625,0.0523321898438 -0.055086515625,0.0826297734375 s -0.0247889320312,0.06610381875 -0.055086515625,0.0826297734375 s -0.055086515625,0.0468235382813 -0.055086515625,0.0688581445313 s -0.0247889320312,0.055086515625 -0.055086515625,0.0743667960937 s -0.055086515625,0.055086515625 -0.055086515625,0.077121121875 s -0.0247889320312,0.0578408414063 -0.055086515625,0.077121121875 s -0.055086515625,0.0523321898437 -0.055086515625,0.0743667960937 s -0.0247889320312,0.0523321898438 -0.055086515625,0.0688581445312 s -0.055086515625,0.0523321898438 -0.055086515625,0.0826297734375 c 0,0.0275432578125 -0.0247889320312,0.0605951671875 -0.055086515625,0.0688581445312 s -0.055086515625,0.0413148867187 -0.055086515625,0.0688581445312 c 0,0.0247889320312 -0.0247889320312,0.055086515625 -0.055086515625,0.0633494929688 c -0.033051909375,0.00826297734375 -0.055086515625,0.0385605609375 -0.055086515625,0.0716124703125 c 0,0.0302975835937 -0.0247889320312,0.0688581445312 -0.055086515625,0.0853840992187 s -0.055086515625,0.0523321898438 -0.055086515625,0.0826297734375 s -0.0247889320312,0.06610381875 -0.055086515625,0.0826297734375 s -0.055086515625,0.0468235382812 -0.055086515625,0.0688581445312 s -0.0247889320312,0.055086515625 -0.055086515625,0.0743667960937 s -0.055086515625,0.0495778640625 -0.055086515625,0.0688581445312 s -0.0247889320312,0.0468235382813 -0.055086515625,0.0633494929688 s -0.055086515625,0.0468235382813 -0.055086515625,0.0688581445313 s -0.0247889320312,0.0523321898437 -0.055086515625,0.0688581445312 s -0.055086515625,0.0523321898437 -0.055086515625,0.0826297734375 s -0.0247889320312,0.06610381875 -0.055086515625,0.0826297734375 s -0.055086515625,0.0495778640625 -0.055086515625,0.077121121875 c 0,0.0247889320313 -0.0247889320312,0.0633494929688 -0.055086515625,0.0826297734375 s -0.055086515625,0.0523321898438 -0.055086515625,0.0743667960938 s -0.0247889320312,0.0523321898437 -0.055086515625,0.0688581445312 s -0.055086515625,0.0468235382812 -0.055086515625,0.0688581445312 s -0.0247889320312,0.055086515625 -0.055086515625,0.0743667960937 s -0.055086515625,0.055086515625 -0.055086515625,0.077121121875 s -0.0247889320312,0.0578408414063 -0.055086515625,0.077121121875 s -0.055086515625,0.0523321898438 -0.055086515625,0.0743667960938 s -0.0247889320312,0.0523321898437 -0.055086515625,0.0688581445312 s -0.055086515625,0.0468235382812 -0.055086515625,0.0688581445312 s -0.0247889320312,0.055086515625 -0.055086515625,0.0743667960937 s -0.055086515625,0.055086515625 -0.055086515625,0.077121121875 s -0.0247889320312,0.0578408414063 -0.055086515625,0.077121121875 s -0.055086515625,0.0578408414062 -0.055086515625,0.0853840992188 c 0,0.0302975835937 -0.0247889320312,0.0633494929688 -0.055086515625,0.0716124703125 s -0.055086515625,0.0413148867187 -0.055086515625,0.0688581445312 c 0,0.0302975835938 -0.0247889320312,0.06610381875 -0.055086515625,0.0826297734375 s -0.055086515625,0.0468235382812 -0.055086515625,0.0688581445312 s -0.0247889320312,0.055086515625 -0.055086515625,0.0743667960937 s -0.055086515625,0.055086515625 -0.055086515625,0.077121121875 s -0.0247889320312,0.0578408414063 -0.055086515625,0.077121121875 s -0.055086515625,0.0523321898438 -0.055086515625,0.0743667960937 s -0.0247889320312,0.0523321898438 -0.055086515625,0.0688581445313 s -0.055086515625,0.0523321898437 -0.055086515625,0.0826297734375 s -0.0247889320312,0.06610381875 -0.055086515625,0.0826297734375 s -0.055086515625,0.0468235382812 -0.055086515625,0.0688581445313 s -0.0247889320312,0.0523321898437 -0.055086515625,0.0688581445312 c -0.0413148867188,0.02203460625 -0.055086515625,0.0578408414063 -0.055086515625,0.140470614844 c 0,0.104664379688 0.0055086515625,0.112927357031 0.283695555469,0.313993139063 c 0.15424224375,0.115681682813 0.380096957813,0.283695555469 0.501287292187,0.37458830625 c 0.3966229125,0.297467184375 0.479252685937,0.355308025781 0.515058921094,0.355308025781 c 0.0192802804687,-0.00275432578125 0.421411844531,-0.537093527344 0.889647227344,-1.1898687375 c 0.470989708594,-0.652775210156 1.15130817656,-1.59750895313 1.51212485391,-2.09879624531 c 0.762948241406,-1.05490677422 2.28609039844,-3.17573762578 2.45410427109,-3.41811829453 c 0.140470614844,-0.201065782031 0.179031175781,-0.3084844875 0.179031175781,-0.495778640625 c 0,-0.258906623438 -0.192802804687,-0.534339201562 -0.498532966406,-0.707861725781 c -0.134961963281,-0.077121121875 -0.355308025781,-0.11017303125 -0.539847853125,-0.0798754476563"/><path fill="currentColor" d="M 15.3014706531,16.4598603258 c -0.0523321898437,0.0385605609375 -0.077121121875,0.0826297734375 -0.077121121875,0.134961963281 s -0.0192802804687,0.0908927507813 -0.055086515625,0.11017303125 c -0.033051909375,0.0165259546875 -0.055086515625,0.0578408414063 -0.055086515625,0.0964014023438 s -0.02203460625,0.0798754476562 -0.055086515625,0.0964014023437 c -0.0358062351563,0.0192802804688 -0.055086515625,0.0578408414063 -0.055086515625,0.107418705469 c 0,0.0413148867187 -0.0247889320312,0.099155728125 -0.055086515625,0.126698985937 c -0.0413148867188,0.0385605609375 -0.055086515625,0.0853840992188 -0.055086515625,0.192802804687 c 0,0.101910053906 -0.0165259546875,0.165259546875 -0.055086515625,0.214837410938 c -0.0385605609375,0.0468235382812 -0.055086515625,0.11017303125 -0.055086515625,0.206574433594 c 0,0.099155728125 -0.0137716289063,0.148733592187 -0.055086515625,0.184539827344 c -0.0302975835938,0.0275432578125 -0.055086515625,0.0798754476562 -0.055086515625,0.112927357031 c 0,0.0358062351563 -0.0247889320312,0.0798754476562 -0.055086515625,0.099155728125 s -0.055086515625,0.0633494929688 -0.055086515625,0.0964014023437 s -0.0247889320312,0.0743667960937 -0.055086515625,0.0908927507813 s -0.055086515625,0.0440692125 -0.055086515625,0.0633494929688 s -0.0247889320312,0.0495778640625 -0.055086515625,0.0688581445313 s -0.055086515625,0.055086515625 -0.055086515625,0.0853840992188 c 0,0.0275432578125 -0.0247889320312,0.0716124703125 -0.055086515625,0.099155728125 s -0.055086515625,0.0605951671875 -0.055086515625,0.0716124703125 c 0,0.0192802804687 0.437937799219,0.355308025781 0.570145436719,0.437937799219 c 0.077121121875,0.0495778640625 0.11017303125,0.02203460625 0.393868586719,-0.347045048438 c 0.239626342969,-0.3084844875 0.3525537,-0.402131564063 0.754685264062,-0.619723300781 c 0.151487917969,-0.0826297734375 0.33051909375,-0.203820107812 0.402131564063,-0.272678252344 c 0.129453311719,-0.126698985938 0.413148867188,-0.487515663281 0.413148867188,-0.526076224219 c 0,-0.011017303125 -0.170768198438,-0.145979266406 -0.377342632031,-0.297467184375 c -0.209328759375,-0.15424224375 -0.501287292187,-0.371833980469 -0.650020884375,-0.4847613375 s -0.289204207031,-0.206574433594 -0.316747464844,-0.206574433594 c -0.0247889320312,0 -0.0798754476562,0.0275432578125 -0.121190334375,0.0578408414063"/></svg>
