<svg xmlns="http://www.w3.org/2000/svg" width="24" height="24" viewBox="0 0 24 24"><path d="M14.498086 2.024847C14.613791 1.947711 15.009113 2.060201 15.189097 2.224115C15.381938 2.400887 15.459075 2.603369 15.484787 2.982621C15.523355 3.609354 15.648702 3.747556 16.458633 4.036817C16.892523 4.194304 17.52247 4.496421 17.73138 4.653907C18.473816 5.213145 18.830572 5.756313 19.016985 6.608025C19.100548 6.996921 19.094122 7.793995 19.000914 8.21503C18.830572 9.008891 18.541311 9.609911 18.142775 10.008449C17.808517 10.339491 17.438906 10.4102 17.037155 10.220572C16.92145 10.165936 16.789675 10.088799 16.744678 10.043802L16.661116 9.963451L16.532555 10.246284C16.294718 10.763741 16.201511 11.204061 16.201511 11.798653C16.201511 12.338606 16.339714 12.868917 16.590406 13.28031C16.754322 13.553501 17.050011 13.903829 17.564253 14.43414C18.724508 15.626538 19.103764 16.214701 19.364098 17.214258C19.460518 17.587084 19.463732 17.619225 19.463732 18.307022C19.463732 18.869474 19.450876 19.068743 19.405878 19.287294C19.219467 20.148649 18.808073 20.920012 18.210268 21.524246C17.834229 21.9035 17.638174 22.003134 17.294275 21.99992C17.146431 21.996706 17.008228 21.977423 16.931091 21.942068C16.773605 21.871359 16.555052 21.675304 16.555052 21.598167C16.555052 21.566029 16.526125 21.524246 16.490772 21.504963C16.44899 21.482464 16.426493 21.437468 16.426493 21.373188C16.426493 21.31855 16.397566 21.238199 16.362211 21.193203C16.310787 21.12571 16.297932 21.061428 16.297932 20.833235C16.297932 20.611467 16.285076 20.537546 16.233652 20.460409C16.195084 20.402557 16.169371 20.309351 16.169371 20.232216C16.169371 20.142223 16.150087 20.081156 16.105091 20.042587C16.066523 20.007233 16.040812 19.942953 16.040812 19.878674C16.040812 19.80475 16.021528 19.759754 15.97653 19.737257C15.941176 19.717974 15.912251 19.676191 15.912251 19.640837C15.912251 19.605482 15.883324 19.563702 15.84797 19.544416C15.812616 19.525133 15.783689 19.483351 15.783689 19.447996C15.783689 19.412642 15.754764 19.370861 15.71941 19.351576C15.684056 19.332293 15.655129 19.293724 15.655129 19.268011C15.655129 19.2423 15.571566 19.136238 15.471931 19.030174C15.369082 18.927326 15.243736 18.795551 15.192312 18.734486C15.140888 18.676634 14.903051 18.425941 14.662 18.175249C14.42095 17.927769 14.086693 17.574228 13.919564 17.394243C13.752436 17.211046 13.524241 16.973207 13.414964 16.860718C13.302474 16.748228 13.212481 16.642166 13.212481 16.622881C13.212481 16.603598 13.193198 16.587526 13.170699 16.587526C13.144987 16.587526 13.109633 16.552174 13.09035 16.507175C13.067851 16.462181 13.029283 16.417185 13.003571 16.407541C12.977859 16.394686 12.955361 16.375402 12.955361 16.359333C12.955361 16.343262 12.752878 16.127924 12.5054 15.880445C12.25792 15.63618 12.055438 15.427269 12.055438 15.417627C12.055438 15.4112 11.849741 15.192647 11.59905 14.935526C10.972317 14.299151 10.512713 13.823478 10.512713 13.813836C10.512713 13.810622 10.310231 13.598498 10.062752 13.34459C9.815272 13.090684 9.61279 12.872131 9.61279 12.856061C9.61279 12.81428 9.471374 12.682505 9.342813 12.605369C9.278533 12.563586 9.227109 12.518591 9.227109 12.502521C9.227109 12.415742 9.159615 12.505734 9.011771 12.785353C8.783576 13.222459 8.677514 13.569571 8.658229 13.968109C8.619661 14.720186 8.847857 15.218359 9.725281 16.314335C10.554496 17.349247 10.779476 17.702787 11.007671 18.339163C11.36764 19.335505 11.213368 20.585756 10.634847 21.360332C10.467718 21.585312 10.307016 21.704231 10.049895 21.794224C9.869911 21.858503 9.802417 21.861717 7.546182 21.852076C5.376726 21.842434 5.216024 21.83922 5.10032 21.784582C4.926764 21.704231 4.727495 21.537102 4.727495 21.476036C4.727495 21.447109 4.698568 21.405327 4.663215 21.38283C4.618219 21.357119 4.598935 21.308908 4.598935 21.231771C4.598935 21.170706 4.582864 21.090355 4.560367 21.055002C4.528227 21.00679 4.528227 20.971437 4.560367 20.884659C4.582864 20.826805 4.598935 20.717529 4.598935 20.640394C4.598935 20.521475 4.618219 20.486122 4.756422 20.347919C4.917121 20.187218 5.257807 19.994377 5.383153 19.994377C5.421721 19.994377 5.543854 19.942953 5.659559 19.885101C5.858827 19.782253 5.868468 19.769398 5.887753 19.640837C5.919892 19.409428 5.874897 19.030174 5.810616 18.994822C5.772048 18.972322 5.755978 18.920898 5.755978 18.811623C5.755978 18.695917 5.739908 18.650923 5.691698 18.618782C5.640274 18.589855 5.627418 18.544859 5.627418 18.422726C5.627418 18.310236 5.611347 18.252384 5.563138 18.210602C5.514928 18.168819 5.498857 18.110968 5.498857 18.001692C5.498857 17.895628 5.479574 17.828135 5.434577 17.776711C5.386367 17.722073 5.370297 17.657793 5.370297 17.522804C5.370297 17.397457 5.351014 17.313894 5.306017 17.246399C5.261021 17.182119 5.241736 17.095341 5.241736 16.979637C5.241736 16.85429 5.222453 16.783581 5.177456 16.725729C5.126032 16.658236 5.113176 16.593956 5.113176 16.388258C5.113176 16.2372 5.093893 16.089355 5.064966 16.018646C5.003901 15.870803 5.003901 15.58797 5.064966 15.440125C5.093893 15.369417 5.113176 15.224787 5.113176 15.060872C5.113176 14.842319 5.122818 14.784467 5.177456 14.723401C5.225666 14.665549 5.241736 14.604482 5.241736 14.45021C5.241736 14.292725 5.254592 14.238086 5.306017 14.193089C5.347799 14.154521 5.370297 14.093455 5.370297 14.013104C5.370297 13.923112 5.389582 13.878117 5.434577 13.84919C5.479574 13.820264 5.498857 13.772054 5.498857 13.691703C5.498857 13.617782 5.521355 13.556716 5.563138 13.518147C5.598491 13.486007 5.627418 13.421726 5.627418 13.373517C5.627418 13.325307 5.656344 13.261026 5.691698 13.228886C5.727052 13.196747 5.755978 13.138893 5.755978 13.097113C5.755978 13.05533 5.784904 13.00712 5.820259 12.987835C5.855612 12.968552 5.884539 12.926769 5.884539 12.891416C5.884539 12.856061 5.913465 12.81428 5.948819 12.794994C5.984172 12.775711 6.013099 12.7275 6.013099 12.688932C6.013099 12.650364 6.042026 12.59894 6.077379 12.576442C6.112733 12.553945 6.141659 12.512162 6.141659 12.480022C6.141659 12.451096 6.170586 12.406099 6.20594 12.383601C6.241293 12.361104 6.27022 12.322536 6.27022 12.296824C6.27022 12.271111 6.299146 12.235758 6.3345 12.216473C6.369854 12.197189 6.39878 12.165049 6.39878 12.142551C6.39878 12.120053 6.427707 12.084698 6.46306 12.062201C6.498414 12.039702 6.52734 12.001135 6.52734 11.975423C6.52734 11.949711 6.556267 11.914356 6.591621 11.895072C6.626975 11.875789 6.655901 11.846862 6.655901 11.830791C6.655901 11.814721 6.742679 11.715087 6.848742 11.605812C6.954804 11.496534 7.041582 11.400115 7.041582 11.390472C7.041582 11.374403 7.099435 11.31655 7.40798 11.036932C7.536541 10.918013 7.555824 10.882659 7.555824 10.773382C7.555824 10.676963 7.539753 10.63518 7.491544 10.609468C7.45619 10.590184 7.427263 10.55483 7.427263 10.525905C7.427263 10.500193 7.404766 10.471266 7.375839 10.458409C7.350127 10.448768 7.311559 10.406985 7.295489 10.365203C7.282633 10.323421 7.247279 10.288067 7.218352 10.288067C7.19264 10.288067 7.170143 10.268784 7.170143 10.246284C7.170143 10.223786 7.112291 10.162721 7.041582 10.108082C6.970875 10.056658 6.913022 10.00202 6.913022 9.989163C6.913022 9.973095 6.768391 9.818822 6.591621 9.645265C6.414851 9.471709 6.27022 9.320649 6.27022 9.311007C6.27022 9.304581 6.212368 9.233871 6.141659 9.156735C5.942391 8.944612 5.916679 8.909256 5.884539 8.822478C5.868468 8.780696 5.8299 8.735701 5.804188 8.726059C5.778476 8.713202 5.755978 8.674634 5.755978 8.636066C5.755978 8.597498 5.727052 8.549287 5.691698 8.52679C5.656344 8.504292 5.627418 8.462509 5.627418 8.430369C5.627418 8.401443 5.598491 8.356446 5.563138 8.333949C5.521355 8.308237 5.498857 8.260027 5.498857 8.198961C5.498857 8.137894 5.47636 8.089684 5.434577 8.063972C5.392795 8.035046 5.370297 7.986835 5.370297 7.919341C5.370297 7.848633 5.351014 7.803637 5.306017 7.781139C5.257807 7.755427 5.241736 7.713645 5.241736 7.607583C5.241736 7.511162 5.222453 7.45331 5.177456 7.411528C5.129247 7.369746 5.113176 7.311894 5.113176 7.199403C5.113176 7.096554 5.093893 7.029061 5.055325 6.990493C5.007113 6.939069 5.000686 6.845862 4.991045 6.183775C4.981401 5.47348 4.984616 5.422056 5.045681 5.303137C5.087464 5.226001 5.113176 5.113511 5.113176 5.020305C5.113176 4.907815 5.129247 4.849962 5.177456 4.808179C5.219239 4.769611 5.241736 4.708545 5.241736 4.634624C5.241736 4.554273 5.261021 4.506063 5.306017 4.477137C5.344585 4.454639 5.370297 4.403214 5.370297 4.345362C5.370297 4.297152 5.399223 4.229657 5.434577 4.197518C5.469931 4.165377 5.498857 4.097884 5.498857 4.049673C5.498857 3.991821 5.521355 3.946825 5.563138 3.924327C5.601706 3.905043 5.627418 3.856832 5.627418 3.811837C5.627418 3.76684 5.656344 3.715416 5.691698 3.692918C5.727052 3.67042 5.755978 3.625423 5.755978 3.596498C5.755978 3.564358 5.784904 3.525789 5.820259 3.506506C5.855612 3.487221 5.884539 3.451868 5.884539 3.426156C5.884539 3.400444 5.913465 3.36509 5.948819 3.345805C5.984172 3.326522 6.013099 3.284739 6.013099 3.249385C6.013099 3.217245 6.042026 3.178676 6.077379 3.169035C6.112733 3.159393 6.141659 3.133681 6.141659 3.114396C6.141659 3.050116 6.601263 2.641937 6.784461 2.545516C6.945163 2.458738 7.003014 2.445882 7.215139 2.445882C7.494758 2.445882 7.636175 2.500521 7.800089 2.677291C7.96079 2.847634 8.028283 3.014762 8.098992 3.442226C8.211482 4.113953 8.340042 4.461066 8.64216 4.901386C8.828572 5.171363 9.252821 5.698461 9.487444 5.949154C9.757421 6.238414 10.499857 7.022633 10.593063 7.119053C10.683056 7.209046 12.444334 9.066743 12.52147 9.150308C12.614676 9.253157 13.270334 9.934526 13.607804 10.278425C13.977417 10.657678 14.048124 10.71553 14.048124 10.638394C14.048124 10.619109 14.09312 10.53876 14.144546 10.458409C14.215253 10.355561 14.240965 10.278425 14.240965 10.175577C14.240965 10.066299 14.257035 10.021304 14.305245 9.992378C14.347028 9.963451 14.369525 9.915241 14.369525 9.847747C14.369525 9.77704 14.38881 9.732042 14.433805 9.709545C14.475588 9.687047 14.498086 9.642051 14.498086 9.580985C14.498086 9.519918 14.520583 9.474922 14.562366 9.452424C14.604149 9.429927 14.626646 9.38493 14.626646 9.323864C14.626646 9.262798 14.649144 9.217801 14.690927 9.195303C14.732709 9.172806 14.755207 9.127809 14.755207 9.069958C14.755207 9.021748 14.784133 8.954253 14.819487 8.922112C14.85484 8.889973 14.883767 8.841763 14.883767 8.816051C14.883767 8.787125 14.912693 8.732486 14.951262 8.693918C15.009113 8.632852 15.009113 8.619996 14.967332 8.574999C14.94162 8.549287 14.928763 8.520362 14.938406 8.510719C14.948048 8.497863 14.893409 8.462509 14.816273 8.427155C14.273106 8.182891 14.064195 8.076828 13.839213 7.92577C13.575665 7.745785 13.212481 7.427598 13.212481 7.376174C13.212481 7.360104 13.183556 7.327963 13.148202 7.305465C13.112847 7.282968 13.083921 7.241185 13.083921 7.209046C13.083921 7.18012 13.054995 7.135123 13.019641 7.112625C12.984287 7.090127 12.955361 7.048345 12.955361 7.016205C12.955361 6.987279 12.926435 6.942282 12.891081 6.919784C12.852512 6.897286 12.8268 6.845862 12.8268 6.78801C12.8268 6.739799 12.797874 6.672305 12.762521 6.640166C12.720737 6.601598 12.69824 6.540532 12.69824 6.460181C12.69824 6.392686 12.68217 6.328406 12.662887 6.318765C12.585751 6.270555 12.566465 6.093783 12.566465 5.428483C12.566465 4.77604 12.569679 4.718187 12.630746 4.618553C12.678957 4.544631 12.69824 4.457853 12.69824 4.33572C12.69824 4.200732 12.714311 4.146094 12.762521 4.101097C12.804303 4.062529 12.8268 4.001463 12.8268 3.921112C12.8268 3.83112 12.842871 3.789339 12.891081 3.763627C12.929648 3.741128 12.955361 3.696132 12.955361 3.641494C12.955361 3.59007 12.981073 3.538646 13.019641 3.512933C13.054995 3.490436 13.083921 3.439012 13.083921 3.394015C13.083921 3.349019 13.109633 3.300809 13.148202 3.281525C13.183556 3.262241 13.212481 3.21403 13.212481 3.175462C13.212481 3.136894 13.241408 3.08547 13.276762 3.062972C13.312116 3.040474 13.341043 2.998692 13.341043 2.966552C13.341043 2.937626 13.369968 2.892629 13.405322 2.870131C13.440676 2.847634 13.469603 2.81228 13.469603 2.789781C13.469603 2.770498 13.527455 2.699789 13.598163 2.638723C13.668872 2.577657 13.726724 2.516591 13.726724 2.500521C13.726724 2.487664 13.787789 2.42017 13.864925 2.346248C14.015985 2.198403 14.266677 2.060201 14.375954 2.060201C14.417735 2.060201 14.472374 2.044131 14.498086 2.024847ZM14.748779 2.693361H14.620217C14.462732 2.590513 14.359883 2.584084 14.224895 2.664435C14.086693 2.748 13.848856 3.021189 13.649587 3.326522C13.161057 4.065743 12.952147 4.769611 12.997144 5.547402C13.019641 5.936298 13.077494 6.167706 13.241408 6.508391C13.382825 6.810509 13.524241 6.977637 13.893852 7.289395C14.285962 7.617225 14.674856 7.800424 15.488001 8.03826C15.613347 8.073613 15.71941 8.112182 15.71941 8.121824C15.71941 8.128252 15.513713 8.552502 15.259807 9.063529C14.67807 10.227001 14.568794 10.548402 14.449876 11.396901C14.401667 11.731157 14.350242 12.020418 14.334171 12.039702C14.302031 12.071842 14.237751 12.007562 13.588521 11.313335C13.431034 11.149422 13.225338 10.930869 13.128919 10.831235C13.032497 10.731601 12.955361 10.638394 12.955361 10.625538C12.955361 10.615896 12.839657 10.490549 12.69824 10.352347C12.556824 10.214145 12.441119 10.092011 12.441119 10.08237C12.441119 10.072728 12.325415 9.950596 12.183998 9.809179C12.042583 9.670977 11.926878 9.54563 11.926878 9.532775C11.926878 9.523133 11.724396 9.311007 11.476916 9.066743C11.229437 8.822478 11.026955 8.613567 11.026955 8.603926C11.026955 8.594284 10.908036 8.465723 10.763407 8.314665C9.795989 7.331178 8.841428 6.321979 8.841428 6.289838C8.841428 6.280197 8.75465 6.18699 8.648587 6.084142C8.542524 5.978079 8.455747 5.875231 8.455747 5.855947C8.455747 5.836662 8.426821 5.807737 8.391466 5.788453C8.356112 5.769169 8.327187 5.727387 8.327187 5.692033C8.327187 5.656678 8.29826 5.614897 8.262906 5.595612C8.227552 5.576329 8.198626 5.540974 8.198626 5.515262C8.198626 5.489549 8.1697 5.454195 8.134346 5.434912C8.098992 5.415627 8.070065 5.383488 8.070065 5.360989C8.070065 5.338491 8.041139 5.296709 8.005785 5.264569C7.970431 5.235643 7.941505 5.184219 7.941505 5.152079C7.941505 5.116724 7.912579 5.0653 7.877225 5.033161C7.841871 5.00102 7.812945 4.943168 7.812945 4.9046C7.812945 4.866032 7.784018 4.808179 7.748664 4.77604C7.710096 4.740686 7.684384 4.676406 7.684384 4.612125C7.684384 4.538202 7.665101 4.489993 7.620104 4.464281C7.571894 4.432141 7.555824 4.387144 7.555824 4.290725C7.555824 4.200732 7.536541 4.139665 7.491544 4.101097C7.443334 4.059316 7.427263 4.001463 7.427263 3.892187C7.427263 3.811837 7.404766 3.715416 7.379054 3.680062C7.353342 3.647923 7.330844 3.55793 7.330844 3.487221C7.330844 3.246171 7.295489 3.14975 7.189427 3.08547C7.070508 3.011548 6.941948 3.008333 6.82303 3.069401C6.585194 3.191532 6.000243 3.975751 5.800975 4.432141C5.473145 5.184219 5.370297 5.743457 5.434577 6.399115C5.505286 7.099769 5.71741 7.675076 6.135232 8.327521C6.228437 8.472151 6.488772 8.806408 6.559482 8.873902C6.569123 8.883544 6.623762 8.947824 6.684827 9.018533C6.745893 9.089241 7.06408 9.429927 7.395124 9.773826C8.195412 10.609468 8.295047 10.721958 8.295047 10.766954C8.295047 10.789453 8.037926 11.062644 7.726167 11.374403C7.054438 12.042917 6.729823 12.42217 6.411636 12.907485C6.013099 13.518147 5.817044 13.958467 5.65313 14.617338C5.550282 15.012663 5.547067 15.05123 5.547067 15.655464C5.550282 16.217916 5.559923 16.323978 5.640274 16.700016C5.730266 17.114624 5.968103 17.988834 6.122376 18.454866C6.363427 19.194088 6.405209 19.624767 6.263793 19.933311C6.106306 20.273996 5.89418 20.431482 5.424935 20.556829C5.074608 20.646822 4.926764 20.820379 5.029613 21.016434C5.090678 21.132137 5.158173 21.186775 5.302803 21.238199C5.460289 21.292837 9.5003 21.299267 9.673856 21.244627C9.895623 21.17392 9.998471 21.119282 9.998471 21.07107C9.998471 21.045359 10.027398 21.00679 10.062752 20.984293C10.098105 20.961796 10.127032 20.91037 10.127032 20.871803C10.127032 20.833235 10.155958 20.785025 10.191312 20.765739C10.22988 20.746456 10.255592 20.698246 10.255592 20.65325C10.255592 20.608253 10.281304 20.560043 10.319873 20.54076C10.371297 20.511833 10.384152 20.473265 10.384152 20.338276C10.384152 20.241858 10.413079 20.113297 10.448433 20.029732C10.541639 19.830463 10.541639 19.232656 10.448433 18.998035C10.413079 18.908043 10.384152 18.773054 10.384152 18.699131C10.384152 18.602711 10.364869 18.544859 10.319873 18.50629C10.27809 18.470938 10.255592 18.413084 10.255592 18.339163C10.255592 18.262026 10.236309 18.220243 10.191312 18.194532C10.152744 18.175249 10.127032 18.127037 10.127032 18.082043C10.127032 18.030617 10.107749 18.001692 10.078822 18.001692C10.049895 18.001692 10.020969 17.959909 10.008113 17.902058C9.998471 17.847418 9.963118 17.786352 9.930977 17.767069C9.895623 17.74457 9.869911 17.696362 9.869911 17.657793C9.869911 17.619225 9.840984 17.571014 9.805631 17.551729C9.770277 17.532446 9.741351 17.497091 9.741351 17.471378C9.741351 17.445667 9.712424 17.407099 9.677071 17.384602C9.641717 17.362104 9.61279 17.32675 9.61279 17.304251C9.61279 17.281754 9.583864 17.249613 9.548511 17.23033C9.513156 17.211046 9.48423 17.17569 9.48423 17.149979C9.48423 17.124266 9.455303 17.088913 9.41995 17.06963C9.384596 17.050344 9.35567 17.01499 9.35567 16.992493C9.35567 16.96678 9.268891 16.857504 9.162829 16.745014C9.056767 16.632524 8.969988 16.526461 8.969988 16.507175C8.969988 16.491108 8.941062 16.455751 8.905708 16.433254C8.870355 16.410757 8.841428 16.375402 8.841428 16.349691C8.841428 16.327192 8.812502 16.282196 8.777147 16.250055C8.741794 16.217916 8.712868 16.172918 8.712868 16.150421C8.712868 16.127924 8.683941 16.092569 8.648587 16.073286C8.613234 16.054001 8.584307 16.018646 8.584307 15.996149C8.584307 15.973651 8.555381 15.928655 8.520027 15.896515C8.484674 15.864374 8.455747 15.822593 8.455747 15.800094C8.455747 15.777596 8.426821 15.735814 8.391466 15.703674C8.356112 15.671534 8.327187 15.613682 8.327187 15.578328C8.327187 15.539761 8.29826 15.491549 8.262906 15.469051C8.224338 15.446553 8.198626 15.395129 8.198626 15.337276C8.198626 15.289066 8.1697 15.221572 8.134346 15.189433C8.092564 15.150865 8.070065 15.089799 8.070065 15.01909C8.070065 14.954809 8.044353 14.877673 8.015427 14.842319C7.964003 14.790895 7.957575 14.697689 7.947934 14.170591C7.938291 13.59207 7.941505 13.553501 8.002571 13.466723C8.047567 13.405658 8.070065 13.328521 8.070065 13.2321C8.070065 13.11961 8.086136 13.077827 8.134346 13.052115C8.176128 13.029618 8.198626 12.984621 8.198626 12.923555C8.198626 12.86249 8.221124 12.817492 8.262906 12.794994C8.304688 12.772497 8.327187 12.7275 8.327187 12.666434C8.327187 12.605369 8.349684 12.560371 8.391466 12.537874C8.430035 12.518591 8.455747 12.47038 8.455747 12.425384C8.455747 12.380387 8.481459 12.332177 8.520027 12.312894C8.558595 12.29361 8.584307 12.245399 8.584307 12.200402C8.584307 12.155407 8.610019 12.107198 8.648587 12.087913C8.683941 12.068629 8.712868 12.026847 8.712868 11.991493C8.712868 11.956138 8.741794 11.914356 8.777147 11.895072C8.812502 11.875789 8.841428 11.834006 8.841428 11.801866C8.841428 11.769726 8.876781 11.718302 8.921779 11.689375C9.088907 11.5801 9.121046 11.599383 9.763848 12.271111C10.094893 12.618224 10.454862 12.99105 10.560923 13.100326C10.666986 13.212817 10.863041 13.415299 10.994816 13.553501C11.313002 13.890972 11.849741 14.453424 12.3447 14.964451C12.566465 15.19586 12.891081 15.536546 13.067851 15.719745C13.241408 15.906157 13.575665 16.253269 13.807074 16.49432C14.035269 16.732157 14.456304 17.172478 14.739137 17.471378C15.021969 17.767069 15.269448 18.027403 15.285519 18.046688C15.468718 18.233101 15.970103 18.843763 16.114733 19.052671C16.423277 19.492992 16.715754 20.27721 16.796103 20.878229C16.841099 21.22213 17.005014 21.408543 17.265348 21.408543C17.400337 21.408543 17.583536 21.302479 17.583536 21.225344C17.583536 21.202845 17.612461 21.170706 17.647816 21.151421C17.68317 21.132137 17.712095 21.10321 17.712095 21.087141C17.712095 21.067858 17.769949 21.000362 17.840656 20.929655C17.911366 20.862162 17.969217 20.788239 17.969217 20.772169C17.969217 20.752884 17.998144 20.720745 18.033497 20.70146C18.068851 20.682177 18.097776 20.640394 18.097776 20.60504C18.097776 20.569685 18.126703 20.527905 18.162058 20.508619C18.197411 20.489336 18.226337 20.441124 18.226337 20.402557C18.226337 20.363989 18.255264 20.312565 18.290617 20.290066C18.325972 20.267569 18.354898 20.216145 18.354898 20.174362C18.354898 20.135794 18.383825 20.074728 18.419178 20.042587C18.454533 20.010448 18.483458 19.942953 18.483458 19.891529C18.483458 19.840105 18.512384 19.775826 18.547739 19.746899C18.592735 19.70833 18.612019 19.650478 18.612019 19.557272C18.612019 19.470493 18.634516 19.393358 18.679514 19.33872C18.747007 19.251942 18.750221 19.219801 18.750221 18.425941C18.750221 17.651363 18.747007 17.590298 18.682728 17.455311C18.644159 17.37496 18.612019 17.246399 18.612019 17.162834C18.612019 17.056772 18.592735 16.99892 18.547739 16.957138C18.505957 16.91857 18.483458 16.857504 18.483458 16.783581C18.483458 16.703232 18.464174 16.655022 18.419178 16.626095C18.383825 16.603598 18.354898 16.561815 18.354898 16.526461C18.354898 16.49432 18.325972 16.442896 18.290617 16.410757C18.255264 16.378616 18.226337 16.327192 18.226337 16.295052C18.226337 16.262911 18.197411 16.22113 18.162058 16.201845C18.126703 16.182562 18.097776 16.140779 18.097776 16.105427C18.097776 16.07007 18.068851 16.02829 18.033497 16.009005C17.998144 15.989721 17.969217 15.954367 17.969217 15.928655C17.969217 15.917837 17.951582 15.904744 17.933783 15.891529C17.909273 15.873333 17.884457 15.854909 17.904936 15.841876C17.94029 15.819379 17.969217 15.787238 17.969217 15.767955C17.969217 15.751884 17.911366 15.684389 17.840656 15.623323C17.769949 15.562258 17.712095 15.501192 17.712095 15.488336C17.712095 15.47548 17.654245 15.404771 17.583536 15.334064C17.512829 15.263354 17.454975 15.19586 17.454975 15.186218C17.454975 15.176577 17.28142 14.996593 17.069294 14.787681C16.85717 14.57877 16.683613 14.398786 16.683613 14.389144C16.683613 14.376287 16.625761 14.315222 16.555052 14.244513C16.484344 14.17702 16.426493 14.11274 16.426493 14.103097C16.426493 14.096669 16.368641 14.02596 16.297932 13.948824C16.227224 13.871688 16.169371 13.781695 16.169371 13.75277C16.169371 13.72063 16.140444 13.682061 16.105091 13.662778C16.066523 13.643494 16.040812 13.595284 16.040812 13.550287C16.040812 13.505291 16.011885 13.453867 15.97653 13.43137C15.934748 13.405658 15.912251 13.354233 15.912251 13.289953C15.912251 13.2321 15.886539 13.16782 15.84797 13.132466C15.812616 13.100326 15.783689 13.032832 15.783689 12.981408C15.783689 12.926769 15.754764 12.849633 15.71941 12.804636C15.667986 12.740356 15.655129 12.672863 15.655129 12.492879C15.651916 12.345034 15.635846 12.242185 15.606919 12.203617C15.539425 12.113625 15.54264 11.519032 15.606919 11.432255C15.639059 11.390472 15.655129 11.287623 15.655129 11.126924C15.655129 10.937298 15.6712 10.860162 15.71941 10.786238C15.754764 10.731601 15.783689 10.63518 15.783689 10.567685C15.783689 10.487336 15.806188 10.429483 15.84797 10.39413C15.892967 10.355561 15.912251 10.297709 15.912251 10.201289C15.912251 10.09844 15.928321 10.056658 15.97653 10.030946C16.021528 10.008449 16.040812 9.963451 16.040812 9.892744C16.040812 9.82525 16.063309 9.77704 16.105091 9.748113C16.140444 9.725616 16.169371 9.683833 16.169371 9.648479C16.169371 9.616339 16.198298 9.564915 16.233652 9.532775C16.269005 9.500634 16.297932 9.44921 16.297932 9.41707C16.297932 9.38493 16.326859 9.343148 16.362211 9.323864C16.40078 9.304581 16.426493 9.25637 16.426493 9.211373C16.426493 9.166377 16.455418 9.114953 16.490772 9.092455C16.529341 9.066743 16.555052 9.015319 16.555052 8.96068C16.555052 8.864261 16.667542 8.726059 16.805746 8.652135C16.870026 8.616781 16.892523 8.619996 16.940733 8.664991C17.011442 8.729272 17.133574 9.069958 17.133574 9.208159C17.133574 9.497421 17.265348 9.674191 17.499971 9.699903C17.618889 9.715974 17.660671 9.703117 17.741022 9.642051C17.792446 9.600269 17.837442 9.539202 17.837442 9.510277C17.840656 9.478136 17.869583 9.436354 17.904936 9.413857C17.94029 9.391358 17.969217 9.339934 17.969217 9.301366C17.969217 9.262798 17.998144 9.214588 18.033497 9.195303C18.068851 9.17602 18.097776 9.127809 18.097776 9.089241C18.097776 9.050673 18.126703 8.999249 18.162058 8.97675C18.200626 8.954253 18.226337 8.902829 18.226337 8.844976C18.226337 8.796766 18.255264 8.729272 18.287403 8.700347C18.332399 8.658564 18.351685 8.591069 18.361326 8.40787C18.367754 8.243957 18.387039 8.153964 18.42882 8.112182C18.477032 8.057545 18.483458 7.970765 18.483458 7.408314C18.483458 6.823365 18.477032 6.759084 18.419178 6.672305C18.38061 6.611239 18.354898 6.521247 18.354898 6.431255C18.354898 6.325192 18.338827 6.270555 18.290617 6.228772C18.248835 6.193419 18.226337 6.135566 18.226337 6.061644C18.226337 5.984508 18.207054 5.942725 18.162058 5.917013C18.126703 5.89773 18.097776 5.862374 18.097776 5.833449C18.097776 5.788453 17.673529 5.338491 17.628532 5.338491C17.618889 5.338491 17.53854 5.28064 17.451761 5.213145C17.233208 5.039588 16.738251 4.788896 16.230436 4.599269C15.999028 4.509277 15.722624 4.393573 15.619776 4.338934C15.394794 4.216801 15.140888 3.998249 15.140888 3.924327C15.140888 3.8954 15.111961 3.843976 15.076608 3.811837C15.034825 3.773269 15.012327 3.712203 15.012327 3.635067C15.012327 3.55793 14.98983 3.496863 14.948048 3.458295C14.893409 3.406871 14.883767 3.358661 14.883767 3.091898V2.780139Z"/></svg>
