<svg xmlns="http://www.w3.org/2000/svg" viewBox="0 0 24 24" width="24" height="24"><path fill="currentColor" d="M 3.78664055625,2.71476095312 c -0.1271129625,0.1271129625 -0.23304043125,0.243633178125 -0.23304043125,0.264818671875 c 0,0.017654578125 -0.031778240625,0.04943281875 -0.0706183125,0.0706183125 s -0.0706183125,0.060025565625 -0.0706183125,0.088272890625 s -0.031778240625,0.0706183125 -0.0706183125,0.095334721875 s -0.0706183125,0.074149228125 -0.0706183125,0.10592746875 c 0,0.03530915625 -0.031778240625,0.07768014375 -0.0706183125,0.0988656375 s -0.0706183125,0.06355648125 -0.0706183125,0.0988656375 c 0,0.031778240625 -0.031778240625,0.081211059375 -0.0706183125,0.10592746875 s -0.0706183125,0.0706183125 -0.0706183125,0.109458384375 c 0,0.03530915625 -0.031778240625,0.09180380625 -0.0706183125,0.1271129625 s -0.0706183125,0.10592746875 -0.0706183125,0.158891203125 s -0.031778240625,0.123582046875 -0.0706183125,0.158891203125 c -0.045901903125,0.0423709875 -0.0706183125,0.109458384375 -0.0706183125,0.19066944375 c 0,0.084741975 -0.024716409375,0.14829845625 -0.0706183125,0.19066944375 c -0.060025565625,0.04943281875 -0.0706183125,0.102396553125 -0.0706183125,0.342498815625 c 0,0.194200359375 -0.02118549375,0.349560646875 -0.074149228125,0.497859103125 c -0.095334721875,0.271880503125 -0.084741975,0.808579678125 0.0141236625,0.949816303125 c 0.038840071875,0.05649465 0.060025565625,0.1553602875 0.060025565625,0.286004165625 c 0,0.151829371875 0.017654578125,0.2118549375 0.0706183125,0.26128775625 c 0.045901903125,0.0423709875 0.0706183125,0.109458384375 0.0706183125,0.197731275 c 0,0.0988656375 0.017654578125,0.144767540625 0.0706183125,0.173014865625 c 0.04943281875,0.024716409375 0.0706183125,0.074149228125 0.0706183125,0.1553602875 c 0,0.0706183125 0.028247325,0.141236625 0.0706183125,0.180076696875 c 0.038840071875,0.03530915625 0.0706183125,0.09180380625 0.0706183125,0.1271129625 s 0.031778240625,0.081211059375 0.0706183125,0.102396553125 s 0.0706183125,0.06355648125 0.0706183125,0.09180380625 c 0,0.031778240625 0.1271129625,0.180076696875 0.28247325,0.33190606875 s 0.28247325,0.28247325 0.28247325,0.293065996875 s 0.254225925,0.27541141875 0.5649465,0.589662909375 c 0.310720575,0.31778240625 0.5649465,0.5790701625 0.5649465,0.589662909375 c 0,0.00706183125 0.151829371875,0.165953034375 0.335436984375,0.349560646875 c 0.1836076125,0.187138528125 0.335436984375,0.3530915625 0.335436984375,0.370746140625 c 0,0.04943281875 -0.130643878125,0.16948395 -0.45901903125,0.41664804375 c -0.165953034375,0.123582046875 -0.356622478125,0.28953508125 -0.427240790625,0.363684309375 s -0.144767540625,0.13417479375 -0.165953034375,0.13417479375 c -0.024716409375,0 -0.0423709875,0.02118549375 -0.0423709875,0.0423709875 c 0,0.024716409375 -0.06355648125,0.102396553125 -0.141236625,0.16948395 s -0.141236625,0.141236625 -0.141236625,0.16242211875 c 0,0.024716409375 -0.031778240625,0.04943281875 -0.0706183125,0.060025565625 c -0.0423709875,0.010592746875 -0.0706183125,0.04943281875 -0.0706183125,0.09180380625 c 0,0.038840071875 -0.031778240625,0.088272890625 -0.0706183125,0.109458384375 s -0.0706183125,0.06355648125 -0.0706183125,0.0988656375 c 0,0.031778240625 -0.031778240625,0.081211059375 -0.0706183125,0.10592746875 s -0.0706183125,0.067087396875 -0.0706183125,0.09180380625 c 0,0.028247325 -0.031778240625,0.06355648125 -0.0706183125,0.074149228125 s -0.0706183125,0.052963734375 -0.0706183125,0.088272890625 c 0,0.038840071875 -0.031778240625,0.084741975 -0.0706183125,0.10592746875 c -0.0423709875,0.02118549375 -0.0706183125,0.074149228125 -0.0706183125,0.123582046875 s -0.028247325,0.102396553125 -0.0706183125,0.123582046875 s -0.0706183125,0.074149228125 -0.0706183125,0.123582046875 s -0.028247325,0.102396553125 -0.0706183125,0.123582046875 c -0.045901903125,0.024716409375 -0.0706183125,0.074149228125 -0.0706183125,0.141236625 s -0.024716409375,0.116520215625 -0.0706183125,0.141236625 c -0.052963734375,0.028247325 -0.0706183125,0.074149228125 -0.0706183125,0.173014865625 c 0,0.088272890625 -0.024716409375,0.1553602875 -0.0706183125,0.197731275 s -0.0706183125,0.109458384375 -0.0706183125,0.194200359375 c 0,0.081211059375 -0.028247325,0.16242211875 -0.0706183125,0.2118549375 c -0.052963734375,0.060025565625 -0.0706183125,0.130643878125 -0.0706183125,0.271880503125 c 0,0.116520215625 -0.024716409375,0.236571346875 -0.060025565625,0.30365874375 c -0.05649465,0.0988656375 -0.06355648125,0.215385853125 -0.06355648125,0.872136159375 c 0,0.667343053125 0.00706183125,0.76973960625 0.06355648125,0.84741975 c 0.0423709875,0.060025565625 0.060025565625,0.1553602875 0.060025565625,0.321313321875 c 0,0.187138528125 0.0141236625,0.243633178125 0.0706183125,0.2965969125 c 0.04943281875,0.045901903125 0.0706183125,0.109458384375 0.0706183125,0.21891676875 c 0,0.10592746875 0.024716409375,0.19066944375 0.0706183125,0.24716409375 c 0.04943281875,0.06355648125 0.0706183125,0.144767540625 0.0706183125,0.26128775625 c 0,0.130643878125 0.0141236625,0.180076696875 0.067087396875,0.20479310625 c 0.052963734375,0.028247325 0.067087396875,0.088272890625 0.081211059375,0.314251490625 c 0.010592746875,0.180076696875 0.03530915625,0.307189659375 0.074149228125,0.363684309375 c 0.03530915625,0.04943281875 0.060025565625,0.151829371875 0.060025565625,0.26128775625 c 0.003530915625,0.095334721875 0.024716409375,0.215385853125 0.052963734375,0.264818671875 c 0.067087396875,0.116520215625 0.067087396875,0.33190606875 0,0.38840071875 c -0.028247325,0.024716409375 -0.052963734375,0.081211059375 -0.052963734375,0.1271129625 s -0.031778240625,0.102396553125 -0.0706183125,0.1271129625 s -0.0706183125,0.067087396875 -0.0706183125,0.09180380625 c 0,0.084741975 -0.19066944375,0.2118549375 -0.38840071875,0.254225925 c -0.31778240625,0.0706183125 -0.4943281875,0.14829845625 -0.62144115,0.2683495875 c -0.10592746875,0.0988656375 -0.12005113125,0.130643878125 -0.12005113125,0.2965969125 s 0.0141236625,0.197731275 0.1271129625,0.30365874375 l 0.123582046875,0.12005113125 l 4.886787225,0 l 0.17654578125,-0.13417479375 c 0.0988656375,-0.074149228125 0.20479310625,-0.187138528125 0.236571346875,-0.254225925 c 0.441364453125,-0.91097623125 0.476673609375,-1.04868194062 0.441364453125,-1.7654578125 c -0.017654578125,-0.3530915625 -0.0423709875,-0.462549946875 -0.165953034375,-0.829765171875 c -0.081211059375,-0.23304043125 -0.173014865625,-0.4660808625 -0.20479310625,-0.519044596875 c -0.16948395,-0.264818671875 -0.349560646875,-0.50139001875 -0.61437931875,-0.819172425 c -0.264818671875,-0.314251490625 -0.41664804375,-0.504920934375 -1.08046018125,-1.35940251563 c -0.554353753125,-0.71324495625 -0.575539246875,-0.773270521875 -0.596724740625,-1.50417005625 c -0.0141236625,-0.4660808625 -0.00706183125,-0.582601078125 0.074149228125,-0.96040905 c 0.102396553125,-0.50845185 0.144767540625,-0.593193825 0.504920934375,-1.06633651875 c 0.151829371875,-0.197731275 0.307189659375,-0.413117128125 0.34602973125,-0.480204525 l 0.074149228125,-0.12005113125 l 0.2118549375,0.165953034375 c 0.116520215625,0.09180380625 0.27541141875,0.229509515625 0.356622478125,0.307189659375 c 0.07768014375,0.07768014375 0.3530915625,0.3389679 0.610848403125,0.582601078125 c 0.632033896875,0.60025565625 6.355648125,6.3132771375 6.355648125,6.34505537813 c 0,0.017654578125 0.031778240625,0.04943281875 0.0706183125,0.074149228125 s 0.0706183125,0.06355648125 0.0706183125,0.09180380625 c 0,0.024716409375 0.031778240625,0.074149228125 0.0706183125,0.109458384375 s 0.0706183125,0.09180380625 0.0706183125,0.130643878125 c 0,0.03530915625 0.031778240625,0.09180380625 0.0706183125,0.123582046875 c 0.038840071875,0.03530915625 0.0706183125,0.0988656375 0.0706183125,0.141236625 c 0,0.045901903125 0.031778240625,0.0988656375 0.0706183125,0.123582046875 c 0.0423709875,0.028247325 0.0706183125,0.084741975 0.0706183125,0.137705709375 c 0,0.04943281875 0.031778240625,0.12005113125 0.0706183125,0.1553602875 c 0.045901903125,0.0423709875 0.0706183125,0.109458384375 0.0706183125,0.194200359375 s 0.024716409375,0.151829371875 0.0706183125,0.194200359375 c 0.06355648125,0.05649465 0.0706183125,0.109458384375 0.0706183125,0.423709875 c 0,0.307189659375 0.010592746875,0.37427705625 0.0706183125,0.4519572 c 0.038840071875,0.04943281875 0.0706183125,0.130643878125 0.0706183125,0.1836076125 c 0,0.074149228125 0.028247325,0.102396553125 0.13417479375,0.14829845625 c 0.0706183125,0.031778240625 0.20479310625,0.06355648125 0.2965969125,0.074149228125 c 0.158891203125,0.0141236625 0.173014865625,0.010592746875 0.40252438125,-0.19066944375 c 0.441364453125,-0.384869803125 0.75561594375,-0.730899534375 0.84741975,-0.932161725 c 0.04943281875,-0.10592746875 0.12005113125,-0.23304043125 0.158891203125,-0.286004165625 c 0.158891203125,-0.222447684375 0.367215225,-1.02396553125 0.398993465625,-1.53594829687 c 0.028247325,-0.455488115625 -0.03530915625,-1.24641321563 -0.12005113125,-1.46179906875 c -0.038840071875,-0.0988656375 -0.0706183125,-0.208324021875 -0.0706183125,-0.243633178125 c 0,-0.0706183125 -0.123582046875,-0.349560646875 -0.264818671875,-0.603786571875 c -0.04943281875,-0.088272890625 -0.088272890625,-0.17654578125 -0.088272890625,-0.201262190625 c 0,-0.081211059375 -0.420178959375,-0.52963734375 -1.9631890875,-2.1044257125 c -1.13695483125,-1.16167124063 -1.0875220125,-1.06280560312 -1.06633651875,-2.01262190625 l 0.0141236625,-0.6073174875 l 0.16242211875,-0.363684309375 c 0.27541141875,-0.60025565625 0.730899534375,-1.3417479375 1.01337278438,-1.64540668125 c 0.187138528125,-0.197731275 0.300127828125,-0.2401022625 0.480204525,-0.173014865625 c 0.201262190625,0.07768014375 0.2259786,0.109458384375 0.26128775625,0.34602973125 c 0.017654578125,0.116520215625 0.052963734375,0.310720575 0.07768014375,0.434302621875 c 0.045901903125,0.21891676875 0.04943281875,0.2259786 0.222447684375,0.314251490625 c 0.342498815625,0.173014865625 0.536699175,0.1129893 0.79798693125,-0.243633178125 c 0.0988656375,-0.137705709375 0.197731275,-0.28953508125 0.215385853125,-0.335436984375 c 0.017654578125,-0.04943281875 0.06355648125,-0.130643878125 0.0988656375,-0.1836076125 c 0.03530915625,-0.04943281875 0.07768014375,-0.130643878125 0.09180380625,-0.180076696875 s 0.0706183125,-0.194200359375 0.1271129625,-0.321313321875 c 0.095334721875,-0.2259786 0.229509515625,-0.76973960625 0.250695009375,-1.02043461563 c 0.017654578125,-0.271880503125 -0.052963734375,-0.86860524375 -0.130643878125,-1.09458384375 c -0.045901903125,-0.1271129625 -0.102396553125,-0.300127828125 -0.123582046875,-0.38840071875 c -0.052963734375,-0.19066944375 -0.293065996875,-0.575539246875 -0.483735440625,-0.762677775 c -0.40252438125,-0.398993465625 -1.34880976875,-0.949816303125 -2.02321465313,-1.18285673438 c -0.310720575,-0.10592746875 -0.469611778125,-0.2118549375 -0.759146859375,-0.50845185 c -0.342498815625,-0.349560646875 -0.427240790625,-0.526106428125 -0.413117128125,-0.8615434125 c 0.0141236625,-0.448426284375 -0.10592746875,-0.674404884375 -0.356622478125,-0.674404884375 c -0.141236625,0 -0.448426284375,0.144767540625 -0.448426284375,0.2118549375 c 0,0.017654578125 -0.031778240625,0.0423709875 -0.0706183125,0.052963734375 s -0.0706183125,0.038840071875 -0.0706183125,0.05649465 s -0.06355648125,0.09180380625 -0.141236625,0.16948395 c -0.07768014375,0.074149228125 -0.141236625,0.1553602875 -0.141236625,0.173014865625 c 0,0.02118549375 -0.031778240625,0.05649465 -0.0706183125,0.07768014375 s -0.0706183125,0.060025565625 -0.0706183125,0.088272890625 s -0.031778240625,0.067087396875 -0.0706183125,0.088272890625 s -0.0706183125,0.067087396875 -0.0706183125,0.10592746875 s -0.031778240625,0.084741975 -0.0706183125,0.10592746875 s -0.0706183125,0.074149228125 -0.0706183125,0.116520215625 s -0.031778240625,0.0988656375 -0.0706183125,0.123582046875 c -0.0423709875,0.024716409375 -0.0706183125,0.081211059375 -0.0706183125,0.144767540625 c 0,0.052963734375 -0.031778240625,0.1271129625 -0.0706183125,0.16242211875 s -0.0706183125,0.10592746875 -0.0706183125,0.158891203125 s -0.031778240625,0.123582046875 -0.0706183125,0.158891203125 c -0.05649465,0.04943281875 -0.0706183125,0.109458384375 -0.0706183125,0.278942334375 c 0,0.1553602875 -0.02118549375,0.243633178125 -0.0706183125,0.321313321875 c -0.102396553125,0.1553602875 -0.102396553125,0.858012496875 0,1.08046018125 c 0.038840071875,0.084741975 0.0706183125,0.20479310625 0.0706183125,0.2683495875 c 0,0.07768014375 0.02118549375,0.1271129625 0.0706183125,0.151829371875 c 0.038840071875,0.02118549375 0.0706183125,0.067087396875 0.0706183125,0.10592746875 s 0.031778240625,0.084741975 0.0706183125,0.10592746875 s 0.0706183125,0.060025565625 0.0706183125,0.088272890625 s 0.031778240625,0.0706183125 0.0706183125,0.095334721875 s 0.0706183125,0.0706183125 0.0706183125,0.0988656375 s 0.031778240625,0.074149228125 0.0706183125,0.0988656375 s 0.0706183125,0.060025565625 0.0706183125,0.084741975 c 0,0.02118549375 0.0988656375,0.137705709375 0.222447684375,0.254225925 c 0.243633178125,0.23304043125 0.907445315625,0.61437931875 1.33115519063,0.766208690625 c 0.26128775625,0.09180380625 0.37427705625,0.1553602875 0.40252438125,0.229509515625 c 0.010592746875,0.028247325 -0.06355648125,0.130643878125 -0.19066944375,0.26128775625 c -0.116520215625,0.1129893 -0.2118549375,0.2259786 -0.2118549375,0.243633178125 c 0,0.02118549375 -0.031778240625,0.052963734375 -0.0706183125,0.074149228125 s -0.0706183125,0.067087396875 -0.0706183125,0.102396553125 s -0.031778240625,0.09180380625 -0.0706183125,0.1271129625 s -0.0706183125,0.0988656375 -0.0706183125,0.137705709375 c 0,0.0423709875 -0.031778240625,0.095334721875 -0.0706183125,0.12005113125 s -0.0706183125,0.081211059375 -0.0706183125,0.130643878125 s -0.028247325,0.102396553125 -0.0706183125,0.123582046875 c -0.045901903125,0.024716409375 -0.0706183125,0.074149228125 -0.0706183125,0.141236625 s -0.024716409375,0.116520215625 -0.0706183125,0.141236625 s -0.0706183125,0.074149228125 -0.0706183125,0.137705709375 c 0,0.052963734375 -0.031778240625,0.1271129625 -0.0706183125,0.16242211875 s -0.0706183125,0.10592746875 -0.0706183125,0.158891203125 s -0.031778240625,0.123582046875 -0.0706183125,0.158891203125 c -0.045901903125,0.0423709875 -0.0706183125,0.109458384375 -0.0706183125,0.19066944375 c 0,0.0706183125 -0.031778240625,0.173014865625 -0.0706183125,0.23304043125 c -0.038840071875,0.05649465 -0.0706183125,0.13417479375 -0.0706183125,0.165953034375 c 0,0.03530915625 -0.0141236625,0.06355648125 -0.031778240625,0.06355648125 s -0.045901903125,0.031778240625 -0.05649465,0.0706183125 c -0.02118549375,0.0706183125 -0.028247325,0.067087396875 -0.151829371875,-0.031778240625 c -0.28953508125,-0.229509515625 -6.56397214688,-6.52866299063 -6.68402327812,-6.71227060312 c -0.0706183125,-0.10592746875 -0.173014865625,-0.307189659375 -0.2259786,-0.441364453125 c -0.052963734375,-0.137705709375 -0.123582046875,-0.2965969125 -0.158891203125,-0.3530915625 c -0.06355648125,-0.10592746875 -0.17654578125,-0.762677775 -0.17654578125,-1.0169037 c 0,-0.28247325 -0.17654578125,-0.413117128125 -0.554353753125,-0.413117128125 l -0.250695009375,0 z M 21.6389499562,9.61417008438 c -0.081211059375,0.0141236625 -0.215385853125,0.07768014375 -0.300127828125,0.137705709375 c -0.081211059375,0.060025565625 -0.71324495625,0.39546255 -1.40177350312,0.74149228125 l -1.25347504688,0.632033896875 l -0.010592746875,0.17654578125 c -0.010592746875,0.158891203125 0,0.1836076125 0.084741975,0.2401022625 c 0.081211059375,0.052963734375 0.116520215625,0.05649465 0.20479310625,0.024716409375 c 0.20479310625,-0.074149228125 0.568477415625,-0.14829845625 0.72736861875,-0.14829845625 c 0.1271129625,0.003530915625 0.1836076125,0.024716409375 0.27541141875,0.10592746875 l 0.116520215625,0.10592746875 l -0.010592746875,3.982872825 c -0.010592746875,3.21313321875 -0.02118549375,4.00758923438 -0.060025565625,4.12057853437 c -0.028247325,0.084741975 -0.04943281875,0.321313321875 -0.052963734375,0.58613199375 c -0.003530915625,0.3813388875 0.00706183125,0.45901903125 0.060025565625,0.51551368125 c 0.031778240625,0.038840071875 0.060025565625,0.102396553125 0.060025565625,0.144767540625 c 0,0.04943281875 0.038840071875,0.0988656375 0.116520215625,0.137705709375 c 0.095334721875,0.052963734375 0.20479310625,0.06355648125 0.730899534375,0.06355648125 c 0.646157559375,0 0.801517846875,-0.028247325 0.9462853875,-0.158891203125 c 0.144767540625,-0.13417479375 0.1553602875,-0.28247325 0.088272890625,-1.27819145625 c -0.081211059375,-1.21816589062 -0.088272890625,-6.67696144687 -0.0141236625,-8.74607800312 c 0.0423709875,-1.15107849375 0.0423709875,-1.3558716 0,-1.384118925 c -0.05649465,-0.03530915625 -0.088272890625,-0.03530915625 -0.307189659375,0"/></svg>
