<svg xmlns="http://www.w3.org/2000/svg" width="24" height="24" viewBox="0 0 24 24"><path d="M 16.5780510312,2.01757168752 C 16.5572495375,2.03057178905 16.5182470141,2.043573 16.4922445922,2.043573 C 16.4220398281,2.043573 16.266028625,2.15538075155 16.266028625,2.20478402186 C 16.266028625,2.23078644375 16.2426266672,2.26198868437 16.2140248906,2.27759035939 C 16.1802221859,2.29579138907 16.1620211562,2.33219344843 16.1620211562,2.38159782814 C 16.1620211562,2.42319970623 16.1438201266,2.47260408595 16.1230186328,2.49600604377 C 16.1022171391,2.51680753752 16.0840161094,2.55581006095 16.0840161094,2.5844118375 C 16.0840161094,2.61301361405 16.1022171391,2.64941678282 16.1230186328,2.6676178125 C 16.1438201266,2.68581884218 16.1620211562,2.73002229375 16.1620211562,2.76642546252 C 16.1620211562,2.83923069064 16.3102320766,2.9926414297 16.4194393641,3.03684488127 C 16.4558425328,3.0498449828 16.5780510312,3.07844786877 16.6898587828,3.09664889845 C 16.9004741844,3.13565142187 17.098088375,3.22405832502 17.098088375,3.28126187812 C 17.098088375,3.30206337188 17.1214903328,3.32806579377 17.1500921094,3.34366635938 C 17.1838948141,3.36186738905 17.2020958437,3.39827055782 17.2020958437,3.44247400939 C 17.2020958437,3.48407699689 17.2202968734,3.53868008593 17.2410983672,3.56728297189 C 17.2879022828,3.62968745314 17.2879022828,3.7076925 17.2410983672,3.77009698125 C 17.2202968734,3.7986987578 17.2020958437,3.87150398593 17.2020958437,3.93390846718 C 17.2020958437,4.01711444218 17.1890946328,4.05091714687 17.1500921094,4.07171864062 C 17.1162894047,4.0899196703 17.098088375,4.12632283907 17.098088375,4.17572610938 C 17.098088375,4.22512937968 17.0798873453,4.26153254845 17.0460846406,4.27973357813 C 17.0174828641,4.29533525314 16.9940809062,4.32133656562 16.9940809062,4.33693824064 C 16.9940809062,4.37073983593 16.6326552297,4.72176587502 16.598852525,4.72176587502 C 16.5884517781,4.72176587502 16.5780510312,4.73736644062 16.5780510312,4.7555674703 C 16.5780510312,4.77376960939 16.5546490734,4.80237138595 16.5260472969,4.82057241562 C 16.4142395453,4.89077717968 16.5026453391,5.1637970625 16.6404555125,5.1637970625 C 16.7132607406,5.1637970625 17.1838948141,4.789370175 17.4257124563,4.53715178593 C 17.8885451375,4.05091714687 18.0497572688,3.64528801875 18.028955775,3.01084245938 C 18.0185550281,2.68321948752 18.0003528891,2.626014825 17.8417423313,2.42060035157 C 17.6363267484,2.15018093282 17.5401206719,2.07997616877 17.3321057344,2.0357727172 C 17.1552930375,1.99936954843 16.6222544828,1.98636944689 16.5780510312,2.01757168752 Z M 7.56580330936,4.81537148748 C 7.51120022032,4.85437512032 7.43579452813,4.9141791375 7.39939246877,4.95058119686 C 7.3629893,4.98438390155 7.30838510155,5.0311878172 7.27718286093,5.05198931095 C 7.24338126564,5.07539015936 7.21737884375,5.10399304532 7.21737884375,5.122194075 C 7.21737884375,5.13779464061 7.19397688593,5.16639752657 7.16537510938,5.18459855625 C 7.13677333282,5.20279958593 7.113371375,5.22880200782 7.113371375,5.24180210936 C 7.113371375,5.25740378437 7.06656745936,5.31200798282 7.00936390625,5.36921153593 C 6.95216035314,5.42381573437 6.9053564375,5.4888206797 6.9053564375,5.50962217345 C 6.9053564375,5.53302302186 6.88195447968,5.56422526248 6.85335270313,5.5798269375 C 6.8221504625,5.59542750311 6.80134896875,5.63443113595 6.80134896875,5.6708331953 C 6.80134896875,5.70723636407 6.77794701093,5.74883935157 6.74934523438,5.76704038125 C 6.71814299375,5.787841875 6.6973415,5.8294448625 6.6973415,5.87364831407 C 6.6973415,5.9126508375 6.67393954218,5.96465457188 6.64533776562,5.9880565297 C 6.60893570627,6.01925877032 6.59333403125,6.06606157655 6.59333403125,6.14146726875 C 6.59333403125,6.21427249688 6.57773235623,6.26107530311 6.54133029687,6.2948780078 C 6.49972730938,6.33128117657 6.4893265625,6.37548351873 6.4893265625,6.5028929453 C 6.4893265625,6.60950087812 6.47112553282,6.70570806407 6.43732282812,6.7785132922 C 6.39311937655,6.8773198328 6.38531909375,6.95012506093 6.38531909375,7.28294896093 C 6.38531909375,7.62877407188 6.39051891248,7.68077780625 6.43732282812,7.7509825703 C 6.47112553282,7.80038584061 6.4893265625,7.87319106873 6.4893265625,7.94859676093 C 6.4893265625,8.0344032 6.50492823752,8.08120600623 6.54133029687,8.11500871093 C 6.57513300157,8.14621095155 6.59333403125,8.19561422186 6.59333403125,8.26061916718 C 6.59333403125,8.3334243953 6.6063352422,8.3672271 6.64533776562,8.38802859375 C 6.67914047032,8.40622962343 6.6973415,8.4426327922 6.6973415,8.4920360625 C 6.6973415,8.5414393328 6.71554252968,8.57784250157 6.74934523438,8.59604353125 C 6.77794701093,8.61164409686 6.80134896875,8.64544680155 6.80134896875,8.67404857811 C 6.80134896875,8.70265146407 6.82475092657,8.73645305936 6.85335270313,8.75205473438 C 6.88195447968,8.76765529998 6.9053564375,8.80145800468 6.9053564375,8.83005978123 C 6.9053564375,8.8586626672 6.92875839532,8.89246426248 6.95736017188,8.9080659375 C 6.98596194843,8.92366650311 7.00936390625,8.94706846093 7.00936390625,8.96267013595 C 7.00936390625,8.97827070155 7.1471740797,9.12908208595 7.31618649377,9.29549403595 C 7.48519779843,9.46450534061 7.63080825468,9.62051654373 7.64120900155,9.64391850155 C 7.64901039377,9.66732045937 7.67501170625,9.68812195313 7.69841366407,9.68812195313 C 7.71921515782,9.68812195313 7.7374161875,9.70372251873 7.7374161875,9.71932419375 C 7.7374161875,9.73752522343 7.8206221625,9.82853148123 7.92202916718,9.92213820311 C 8.21325007968,10.1899582672 8.46546846875,10.4447760109 8.46546846875,10.4681779688 C 8.46546846875,10.4811791797 8.48887042657,10.5045800281 8.51747220313,10.5201817031 C 8.55647472655,10.5409831969 8.5694759375,10.5747859016 8.5694759375,10.6501904844 C 8.5694759375,10.7359969234 8.55647472655,10.7567984172 8.47586921562,10.8088021516 C 8.42386548125,10.8400043922 8.35106025313,10.8946085906 8.31465708436,10.9258108313 C 8.278255025,10.9596135359 8.23925250157,10.9882153125 8.22365082655,10.9882153125 C 8.21064961561,10.9882153125 8.17164709218,11.014216625 8.14044485155,11.0454188656 C 8.10924261093,11.0792215703 8.03123756407,11.1546272625 7.96363215468,11.2144312797 C 7.8960278547,11.2742352969 7.84142365625,11.3314399594 7.84142365625,11.3392402422 C 7.84142365625,11.3444411703 7.7712188922,11.4224462172 7.68541245313,11.5056521922 C 7.59960601405,11.5914586312 7.52940125,11.6694636781 7.52940125,11.6824648891 C 7.52940125,11.6928656359 7.50599929218,11.7188680578 7.47739751563,11.7370690875 C 7.44879573907,11.7552701172 7.42539378125,11.7864723578 7.42539378125,11.8072738516 C 7.42539378125,11.8280753453 7.40199182343,11.8566771219 7.37339004688,11.8722787969 C 7.34478827032,11.8878793625 7.3213863125,11.9138817844 7.3213863125,11.9320828141 C 7.3213863125,11.9502838437 7.29798435468,11.9788867297 7.26938257813,11.9970877594 C 7.24078080157,12.0152887891 7.21737884375,12.0464910297 7.21737884375,12.0672925234 C 7.21737884375,12.0880940172 7.19397688593,12.1166957937 7.16537510938,12.1322974688 C 7.13677333282,12.1478980344 7.113371375,12.1869016672 7.113371375,12.2181039078 C 7.113371375,12.2493061484 7.08996941718,12.2909091359 7.06136764063,12.3091101656 C 7.03276586407,12.3273111953 7.00936390625,12.3637143641 7.00936390625,12.3923161406 C 7.00936390625,12.4183174531 6.98596194843,12.4547206219 6.95736017188,12.4703211875 C 6.92355746718,12.4885233266 6.9053564375,12.5249253859 6.9053564375,12.5743286562 C 6.9053564375,12.6237330359 6.88715540782,12.6601350953 6.85335270313,12.678336125 C 6.81695064377,12.6965382641 6.80134896875,12.7329403234 6.80134896875,12.7927443406 C 6.80134896875,12.844748075 6.780547475,12.8967518094 6.74934523438,12.9253546953 C 6.71294317502,12.9591562906 6.6973415,13.0059602063 6.6973415,13.0813658984 C 6.6973415,13.1567704812 6.68173982498,13.2035743969 6.64533776562,13.2373771016 C 6.6063352422,13.2737791609 6.59333403125,13.3179826125 6.59333403125,13.4193896172 C 6.59333403125,13.4999951281 6.5725325375,13.6040025969 6.5387298328,13.676807825 C 6.4893265625,13.7912160406 6.48672609843,13.8380199562 6.49452638123,14.441263275 C 6.50232777345,15.0029036062 6.50752759218,15.0913094 6.54913057968,15.1485140625 C 6.57773346564,15.19011705 6.59333403125,15.2603218141 6.59333403125,15.3643292828 C 6.59333403125,15.4787374984 6.6063352422,15.5333416969 6.64533776562,15.5827449672 C 6.67914047032,15.6269484187 6.6973415,15.6893529 6.6973415,15.7595576641 C 6.6973415,15.8349633563 6.71294317502,15.8817661625 6.74934523438,15.9155688672 C 6.7883477578,15.9493715719 6.80134896875,15.9961743781 6.80134896875,16.0845812812 C 6.80134896875,16.172987075 6.8143501797,16.2197909906 6.85335270313,16.2535936953 C 6.89235522655,16.2873952906 6.9053564375,16.3341992062 6.9053564375,16.422605 C 6.9053564375,16.5110119031 6.91835764845,16.5578147094 6.95736017188,16.5916174141 C 6.9963626953,16.6254201188 7.00936390625,16.672222925 7.00936390625,16.771030575 C 7.01196437032,16.8438358031 7.02756493593,16.9322415969 7.04836642968,16.9686447656 C 7.09776969998,17.0518507406 7.09517034532,17.2286634375 7.04836642968,17.2910679187 C 7.02756493593,17.3196696953 7.00936390625,17.3742738938 7.00936390625,17.4132764172 C 7.00936390625,17.4548794047 6.97816166563,17.5146834219 6.93655867813,17.5614873375 C 6.8559531672,17.6472937766 6.6635387953,17.7487007812 6.58293328438,17.7487007812 C 6.51532787498,17.7487007812 6.37491834687,17.7929042328 6.21110686095,17.8683088156 C 6.10189846405,17.9177131953 6.0732966875,17.9437145078 6.0732966875,17.9905184234 C 6.0732966875,18.0243200187 6.04989472968,18.0737243984 6.02129295313,18.0997257109 C 5.99269117657,18.1257281328 5.96928921875,18.1803323313 5.96928921875,18.2219353188 C 5.96928921875,18.2609378422 5.99269117657,18.3181413953 6.02129295313,18.3467442813 C 6.04989472968,18.3753460578 6.0732966875,18.4091476531 6.0732966875,18.4221488641 C 6.0732966875,18.435150075 6.12009949373,18.4637518516 6.17730415625,18.4871538094 C 6.27091087812,18.5235558687 6.4815262797,18.5287567969 8.00003532345,18.5287567969 C 9.89037079063,18.5287567969 9.8175655625,18.533957725 9.99697872345,18.3649453109 C 10.3584044,18.0217206641 10.5508176625,17.2312639016 10.4286091641,16.5916174141 C 10.3298026234,16.0741805344 10.0983857281,15.6763516891 9.59654941405,15.1485140625 C 9.15711758123,14.6882807359 8.75408891718,14.1396416156 8.64748098436,13.8536216313 C 8.52787295,13.5389987609 8.50447099218,13.4063895156 8.50967192032,13.0553634766 C 8.51227127498,12.6835370531 8.54607397968,12.5093248203 8.68128368905,12.1843012031 C 8.78789162188,11.9242825313 8.89969937343,11.7370690875 9.09731356405,11.4848506984 L 9.26372551405,11.2768357609 L 9.32352953123,11.3392402422 C 9.35733223593,11.3756434109 9.39893522343,11.4042451875 9.41453689845,11.4042451875 C 9.44833849373,11.4042451875 9.609550625,11.5420553609 9.609550625,11.5732576016 C 9.609550625,11.6018593781 10.6002220422,12.5847294031 10.6860273719,12.6393336016 C 10.7224305406,12.6653360234 10.7536327812,12.6939378 10.7536327812,12.7069390109 C 10.7536327812,12.7355407875 11.5284878687,13.5103969844 11.5596901094,13.5103969844 C 11.5752917844,13.5103969844 11.5856925313,13.5233970859 11.5856925313,13.5389987609 C 11.5856925313,13.5702010016 11.8457112031,13.8276192094 11.9445177437,13.8926241547 C 11.9757210938,13.9160261125 12.0017224062,13.9446278891 12.0017224062,13.9602284547 C 12.0017224062,13.9888313406 12.2669420063,14.2488500125 12.3605476187,14.3112544938 C 12.3917509688,14.3320559875 12.4177522812,14.3580573 12.4177522812,14.3684580469 C 12.4177522812,14.3892595406 12.8415824391,14.8156901625 13.1380042797,15.0991107922 C 13.2056085797,15.1641157375 13.3096160484,15.2681232063 13.3668207109,15.3331270422 C 13.4240242641,15.3981319875 13.5150316313,15.4839384266 13.5670353656,15.5255414141 C 13.6216384547,15.5697448656 13.6658419062,15.6113478531 13.6658419062,15.6217486 C 13.6658419062,15.6399496297 13.7412475984,15.7179546766 13.9674635656,15.9311705422 C 14.0376683297,15.9961754875 14.1416757984,16.1027823109 14.1988804609,16.1651867922 C 14.2560840141,16.2301917375 14.3470913813,16.3159981766 14.3990951156,16.3576011641 C 14.4536982047,16.4018046156 14.4979016562,16.4434076031 14.4979016562,16.45380835 C 14.4979016562,16.4668084516 14.5915083781,16.5708159203 14.7059165937,16.6852241359 C 14.8203248094,16.8022328156 14.9139315312,16.9140405672 14.9139315312,16.9322427063 C 14.9139315312,16.9504437359 14.9373334891,16.9790455125 14.9659352656,16.9946471875 C 14.9945370422,17.0102477531 15.017939,17.0440504578 15.017939,17.0726522344 C 15.017939,17.1012540109 15.0413409578,17.1350567156 15.0699427344,17.1506583906 C 15.0985445109,17.1662589563 15.1219464688,17.202662125 15.1219464688,17.2286634375 C 15.1219464688,17.2572652141 15.1453484266,17.2936683828 15.1739502031,17.3118694125 C 15.2077529078,17.3326709062 15.2259539375,17.3742738938 15.2259539375,17.4262776281 C 15.2259539375,17.4730815438 15.2467554312,17.5250852781 15.2779576719,17.5536870547 C 15.3091599125,17.5822888313 15.3299614063,17.6342925656 15.3299614063,17.6836958359 C 15.3299614063,17.7304997516 15.3507629,17.7955046969 15.3793646766,17.8293062922 C 15.4131673813,17.8761102078 15.4313684109,17.9593161828 15.4443696219,18.1517294453 C 15.4547703687,18.3025408297 15.4781723266,18.435150075 15.5015742844,18.4689527797 C 15.5223746687,18.5001550203 15.5379763438,18.5495582906 15.5379763438,18.5781600672 C 15.5379763438,18.6665669703 15.6367828844,18.7107704219 15.8395980031,18.7107704219 C 16.0528138688,18.7107704219 16.1360198438,18.6639665062 16.3544344187,18.4221488641 C 16.9602782016,17.7539017094 17.2072956625,17.0570516688 17.1682931391,16.1365850156 C 17.1396913625,15.4969396375 16.9498774547,14.9951033234 16.5416478625,14.4854667266 C 16.4844443094,14.4126614984 16.0762147172,13.9914306953 15.6315830656,13.5493995078 C 15.1895507687,13.1047678563 14.7735208937,12.6783372344 14.7085170578,12.6003310781 L 14.58630745,12.4547206219 L 14.5551052094,12.0932949453 C 14.5213036141,11.7500702984 14.5239029687,11.7136671297 14.5759067031,11.4562489219 C 14.6331113656,11.1650280094 14.7293185516,10.8504051391 14.8229252734,10.6345899188 C 14.9477342359,10.3537697531 15.3585631828,9.79992970468 15.5431761625,9.6647199953 C 15.6445842766,9.58931541252 15.6523845594,9.58931541252 15.7121885766,9.62831793595 C 15.7485917453,9.65171989377 15.8135955812,9.6907224172 15.8577990328,9.71412437502 C 15.933204725,9.75572736252 15.9410050078,9.77132792812 15.9540062188,9.9143379203 C 15.9618065016,10.0131455703 15.9826079953,10.0859507984 16.0138102359,10.114552575 C 16.0424120125,10.1457548156 16.0580136875,10.2003590141 16.0580136875,10.2835649891 C 16.0580136875,10.3927722766 16.0684144344,10.4187746984 16.1412196625,10.4785787156 C 16.2634281609,10.5773863656 16.4168389,10.5721854375 16.5702507484,10.46297815 C 16.7158612047,10.3589706813 16.9238761422,10.0495476297 17.0954879109,9.68552148905 C 17.4907162922,8.84826192032 17.4283118109,7.98239946563 16.9186752141,7.29075035314 C 16.7106602766,7.01252954218 16.4376415031,6.8279165625 15.6523845594,6.44048846405 L 14.9763360125,6.10506520939 L 14.7787218219,5.89444980782 C 14.6045095891,5.70723636407 14.5759078125,5.66043244843 14.5265034328,5.49402049843 C 14.4979016562,5.39261349375 14.4614984875,5.2470030375 14.4484983859,5.17419780938 C 14.4120952172,4.97918408282 14.3470902719,4.8647758672 14.2404834484,4.80497185002 C 14.1572774734,4.75816793438 14.1338755156,4.7555674703 14.0298680469,4.78417035627 C 13.9076595484,4.81537259689 13.6658419062,4.97138380002 13.6658419062,5.02078707032 C 13.6658419062,5.03378828127 13.6424399484,5.06239005782 13.6138381719,5.0805910875 C 13.5852363953,5.09879211718 13.5618344375,5.1299943578 13.5618344375,5.15079585155 C 13.5618344375,5.1715973453 13.5384324797,5.20020023127 13.5098307031,5.21580079687 C 13.4812289266,5.23140247189 13.4578269688,5.26520406718 13.4578269688,5.29380695314 C 13.4578269688,5.3224087297 13.4344250109,5.35621143439 13.4058232344,5.371812 C 13.3772214578,5.38741367502 13.3538195,5.42641619845 13.3538195,5.45761843907 C 13.3538195,5.4888206797 13.3304175422,5.5304236672 13.3018157656,5.54862469687 C 13.2732139891,5.56682572655 13.2498120313,5.60322889532 13.2498120313,5.63183067187 C 13.2498120313,5.65783309377 13.2264100734,5.69423515312 13.1978082969,5.70983682814 C 13.1640055922,5.72803785782 13.1458045625,5.76443991718 13.1458045625,5.81384429689 C 13.1458045625,5.8632475672 13.1276035328,5.89964962655 13.0938008281,5.91785176564 C 13.0573976594,5.93865325939 13.0417970938,5.97245485468 13.0417970938,6.03485933593 C 13.0417970938,6.09726381718 13.0261954187,6.13106652188 12.9897933594,6.15186801563 C 12.9481903719,6.17266950937 12.937789625,6.20647221407 12.937789625,6.30527875468 C 12.937789625,6.39628612189 12.9247884141,6.44308892813 12.8857858906,6.47689163282 C 12.8493827219,6.50809387345 12.8337821563,6.55749714375 12.8337821563,6.63030237188 C 12.8337821563,6.68750703439 12.8155811266,6.78371311093 12.7921791687,6.84351823752 C 12.7531766453,6.9449252422 12.7531766453,6.96572673595 12.7921791687,7.09573551718 C 12.8155811266,7.17374167345 12.8337821563,7.28034960627 12.8337821563,7.32975287657 C 12.8337821563,7.38175661095 12.85458365,7.4441610922 12.8857858906,7.47796379689 C 12.9143876672,7.51176539218 12.937789625,7.57416987343 12.937789625,7.62357425314 C 12.937789625,7.68337827032 12.9533901906,7.71978032968 12.9897933594,7.73798246877 C 13.0183951359,7.75358303437 13.0417970938,7.78738573907 13.0417970938,7.81338705155 C 13.0417970938,7.83938947345 13.0651990516,7.88099246095 13.0938008281,7.90699377343 C 13.1224026047,7.93299619532 13.1458045625,7.96939825468 13.1458045625,7.98760039377 C 13.1458045625,8.00840188752 13.1692065203,8.03700366407 13.1978082969,8.05520469375 C 13.2264100734,8.07340572343 13.2498120313,8.10460796405 13.2498120313,8.12281010314 C 13.2498120313,8.1592121625 13.4656272516,8.38022831095 13.6424399484,8.5258387672 C 13.8062514344,8.66104847657 14.1182738406,8.84826192032 14.4120952172,8.98867144843 C 14.6877155641,9.12128180314 14.7059165937,9.13428190468 14.7059165937,9.2070871328 C 14.7059165937,9.26689225939 14.6799141719,9.30849524689 14.601909125,9.37609954688 C 14.5447044625,9.42550281718 14.4979016562,9.48010701563 14.4979016562,9.4983080453 C 14.4979016562,9.51651018439 14.4744996984,9.54251149688 14.4458979219,9.55811317189 C 14.4172961453,9.5737137375 14.3938941875,9.6075164422 14.3938941875,9.63351775468 C 14.3938941875,9.65952017657 14.3704922297,9.70112316407 14.3418904531,9.72712447655 C 14.3132886766,9.75312689845 14.2898867188,9.79472988595 14.2898867188,9.81813184377 C 14.2898867188,9.84153269218 14.2664847609,9.88313567968 14.2378829844,9.90913810157 C 14.2092812078,9.93513941405 14.18587925,9.9819433297 14.18587925,10.0157460344 C 14.18587925,10.0495476297 14.1624772922,10.0885512625 14.1338755156,10.1041518281 C 14.1052737391,10.1197535031 14.0818717812,10.1535550984 14.0818717812,10.1821579844 C 14.0818717812,10.2107597609 14.0584698234,10.2445624656 14.0298680469,10.2601630313 C 13.9934648781,10.2783640609 13.9778643125,10.3147672297 13.9778643125,10.3719707828 C 13.9778643125,10.4265749813 13.9596632828,10.4655775047 13.9258605781,10.4889794625 C 13.8946583375,10.5071804922 13.8738568437,10.5487834797 13.8738568437,10.5955873953 C 13.8738568437,10.6345899188 13.8504548859,10.6891941172 13.8218531094,10.7151954297 C 13.7880504047,10.7463976703 13.769849375,10.79580205 13.769849375,10.8556060672 C 13.769849375,10.9076098016 13.7464474172,10.9830154938 13.7178456406,11.0272178359 C 13.6866434,11.0740217516 13.6658419062,11.1494274438 13.6658419062,11.211831925 C 13.6658419062,11.2768357609 13.6502402312,11.3340404234 13.6268393828,11.3522414531 C 13.6060378891,11.3704424828 13.58783575,11.4016447234 13.58783575,11.4224462172 C 13.58783575,11.4484486391 13.5488332266,11.4276471453 13.4786284625,11.3652426641 C 13.2810142719,11.1910304313 8.89969937343,6.83051702657 8.76448966405,6.67450582345 C 8.57987668437,6.4612899578 8.30685680155,5.89964962655 8.19244858593,5.50182189064 C 8.14304531563,5.32760854843 8.10144232812,5.15859724377 8.10144232812,5.12479453907 C 8.10144232812,5.02598688905 8.00783560625,4.8387734453 7.9376308422,4.79197063907 C 7.83622272811,4.72696569375 7.68541245313,4.73476597655 7.56580330936,4.81537259689 Z M 10.6782270891,19.4154207453 C 10.5508187719,19.4934257922 10.441610375,19.6078340078 10.441610375,19.6650386703 C 10.441610375,19.6936404469 10.4234093453,19.7378438984 10.4026078516,19.766445675 C 10.3558039359,19.8288501562 10.3532045813,20.0056628531 10.4026078516,20.0888688281 C 10.4234093453,20.1252708875 10.4390099109,20.1902758328 10.441610375,20.2344792844 C 10.441610375,20.2994842297 10.4624118688,20.3306864703 10.540418025,20.3826902047 C 10.6756277344,20.4762969266 10.7614330641,20.5048987031 10.9148438031,20.5048987031 C 11.2632693781,20.5048987031 11.5310883328,20.1694743391 11.4686838516,19.8080486625 C 11.4426825391,19.6546379234 11.3204740406,19.4752247625 11.1982644328,19.4128202812 C 11.0526539766,19.3400150531 10.8004366969,19.3400150531 10.6782270891,19.4154207453 Z M 12.3319458422,19.4414220578 C 12.2643415422,19.4856255094 12.2097373437,19.5376292438 12.2097373437,19.5584307375 C 12.2097373437,19.5766317672 12.1863353859,19.6052335437 12.1577336094,19.6208352187 C 12.1109308031,19.6468376406 12.105729875,19.6754394172 12.105729875,19.9458588359 C 12.105729875,20.2162782547 12.1109308031,20.2448800312 12.1577336094,20.2708824531 C 12.1863353859,20.2864830188 12.2097373437,20.3124854406 12.2097373437,20.3306864703 C 12.2097373437,20.3774892766 12.3761492938,20.4762969266 12.5087585391,20.5048987031 C 12.7297746875,20.5543019734 12.9767921484,20.4476940406 13.1120018578,20.2396791031 C 13.1692065203,20.1538737734 13.1848070859,20.0966691109 13.1926084781,19.9484581906 C 13.203009225,19.7092410125 13.1354038156,19.5662310203 12.9533913,19.4440225219 C 12.8415824391,19.3686168297 12.8077808438,19.3608165469 12.6413688938,19.3608165469 C 12.4749569438,19.3608165469 12.438553775,19.3712172937 12.3319458422,19.4414220578 Z M 11.7157024219,20.8949272656 C 11.6949009281,20.9079273672 11.6480970125,20.9209285781 11.6142943078,20.9209285781 C 11.5258885141,20.9209285781 11.3776775938,21.0197351187 11.3776775938,21.0769397812 C 11.3776775938,21.1029422031 11.3516762813,21.1445451906 11.3230733953,21.165345575 C 11.2710696609,21.2017487437 11.2658698422,21.2277500562 11.2658698422,21.4669683438 C 11.2684703063,21.7061855219 11.273670125,21.7347872984 11.3230733953,21.7685900031 C 11.3516762813,21.7893903875 11.3776775938,21.8231930922 11.3776775938,21.8413941219 C 11.3776775938,21.9037986031 11.6142943078,22.0000057891 11.7703055109,22.0000057891 C 11.9497186719,22.0000057891 12.1291318328,21.8985987844 12.2461394031,21.7347872984 C 12.3787497578,21.5449733906 12.3683490109,21.2563529422 12.2201380906,21.0613381062 C 12.1135301578,20.91572765 11.8275101734,20.8221209281 11.7157024219,20.8949272656 Z"/></svg>
