<svg xmlns="http://www.w3.org/2000/svg" width="24" height="24" viewBox="0 0 24 24"><path d="M11.8125 6.171094C11.704687 6.222656 11.4375 6.475781 11.4375 6.527344C11.4375 6.546094 11.416406 6.574219 11.390625 6.590625C11.364844 6.607031 11.34375 6.644531 11.34375 6.672656C11.34375 6.700781 11.322656 6.735937 11.296875 6.75C11.271094 6.764063 11.25 6.794531 11.25 6.820313C11.25 6.846094 11.228906 6.876562 11.203125 6.890625C11.172656 6.907031 11.15625 6.939844 11.15625 6.984375C11.15625 7.028906 11.139844 7.061719 11.109375 7.078125C11.076563 7.094531 11.0625 7.127344 11.0625 7.18125C11.0625 7.228125 11.04375 7.275 11.015625 7.300781C10.985156 7.328906 10.96875 7.373438 10.96875 7.429688C10.96875 7.48125 10.95 7.5375 10.926562 7.565625C10.889062 7.607813 10.879687 7.66875 10.870313 7.926562C10.863281 8.097656 10.865625 8.357812 10.872656 8.503125C10.884375 8.723437 10.89375 8.772656 10.928906 8.791406C10.959375 8.807813 10.96875 8.845313 10.96875 8.932031C10.96875 9.01875 10.980469 9.05625 11.015625 9.086719C11.041406 9.110156 11.0625 9.157031 11.0625 9.192188C11.0625 9.232031 11.078906 9.264844 11.109375 9.28125C11.135156 9.295313 11.15625 9.325781 11.15625 9.351563C11.15625 9.377344 11.177344 9.407813 11.203125 9.421875C11.228906 9.435938 11.25 9.466406 11.25 9.492188C11.25 9.517969 11.271094 9.548438 11.296875 9.5625C11.322656 9.576563 11.34375 9.6 11.34375 9.614063C11.34375 9.625781 11.385938 9.679688 11.4375 9.728906C11.489062 9.780469 11.53125 9.825 11.53125 9.832031C11.53125 9.839062 11.68125 9.996094 11.866406 10.18125C12.049219 10.36875 12.283594 10.610156 12.384375 10.720312C12.4875 10.828125 12.590625 10.924219 12.614062 10.928906C12.642187 10.938281 12.65625 10.964062 12.65625 11.008594C12.65625 11.064844 12.628125 11.095312 12.499219 11.19375C12.255469 11.376562 11.90625 11.692969 11.90625 11.728125C11.90625 11.735156 11.864062 11.784375 11.8125 11.835937C11.760937 11.8875 11.71875 11.941406 11.71875 11.953125C11.71875 11.964844 11.697656 11.985937 11.671875 12C11.646094 12.014062 11.625 12.044531 11.625 12.070313C11.625 12.096094 11.603906 12.126562 11.578125 12.140625C11.552344 12.154688 11.53125 12.180469 11.53125 12.199219C11.53125 12.217969 11.510156 12.246094 11.484375 12.2625C11.458594 12.278906 11.4375 12.316406 11.4375 12.344531C11.4375 12.372656 11.416406 12.407813 11.390625 12.421875C11.3625 12.435938 11.34375 12.471094 11.34375 12.503906C11.34375 12.536719 11.325 12.571875 11.296875 12.585938C11.266406 12.602344 11.25 12.635156 11.25 12.679688C11.25 12.724219 11.233594 12.757031 11.203125 12.773438C11.170312 12.789844 11.15625 12.822656 11.15625 12.876562C11.15625 12.923437 11.1375 12.970312 11.109375 12.996094C11.074219 13.026562 11.0625 13.06875 11.0625 13.148438C11.0625 13.228125 11.050781 13.270313 11.015625 13.300781C10.980469 13.333594 10.96875 13.373438 10.96875 13.464844C10.96875 13.539844 10.95 13.63125 10.919531 13.699219C10.875 13.8 10.870312 13.842188 10.879687 14.153906C10.889062 14.404688 10.900781 14.519531 10.928906 14.582812C10.954687 14.639062 10.96875 14.732812 10.96875 14.842969C10.96875 14.98125 10.978125 15.030469 11.015625 15.077344C11.04375 15.1125 11.0625 15.171094 11.0625 15.229687C11.0625 15.290625 11.076562 15.335156 11.109375 15.363281C11.144531 15.39375 11.15625 15.435938 11.15625 15.515625C11.15625 15.590625 11.170312 15.644531 11.203125 15.686719C11.23125 15.721875 11.25 15.780469 11.25 15.839062C11.25 15.9 11.264062 15.944531 11.296875 15.972656C11.339062 16.010156 11.34375 16.045313 11.34375 16.303125C11.34375 16.567969 11.339062 16.596094 11.296875 16.621875C11.271094 16.638281 11.25 16.66875 11.25 16.692188C11.25 16.753125 10.978125 16.921875 10.879687 16.921875C10.809375 16.921875 10.59375 17.039063 10.59375 17.078906C10.59375 17.097656 10.572656 17.139844 10.546875 17.172656C10.521094 17.205469 10.5 17.245313 10.5 17.259375C10.5 17.303906 10.6125 17.446875 10.673437 17.477344C10.715625 17.500781 11.076562 17.507813 12.199219 17.507813L13.671094 17.510156L13.757812 17.449219C13.858594 17.378906 13.917187 17.303906 14.003906 17.132813C14.1375 16.867969 14.184375 16.694531 14.196094 16.392187C14.226562 15.735937 14.027344 15.330469 13.29375 14.53125C13.185937 14.414063 12.815625 13.907812 12.726562 13.757813C12.597656 13.5375 12.553125 13.352344 12.555469 13.042969C12.557812 12.740625 12.609375 12.508594 12.738281 12.255469C12.815625 12.098437 13.040625 11.75625 13.148437 11.629687L13.195312 11.573438L13.263281 11.622656C13.300781 11.650781 13.338281 11.671875 13.347656 11.671875C13.36875 11.671875 13.5 11.805469 13.5 11.828906C13.5 11.838281 13.696875 12.039844 13.940625 12.274219C14.182031 12.508594 14.742187 13.059375 15.182812 13.497656C15.625781 13.938281 15.998437 14.296875 16.010156 14.296875C16.021875 14.296875 16.03125 14.308594 16.03125 14.322656C16.03125 14.346094 16.141406 14.458594 16.35 14.653125C16.3875 14.688281 16.450781 14.751563 16.490625 14.79375C16.530469 14.835938 16.78125 15.084375 17.048437 15.346875C17.313281 15.609375 17.53125 15.829688 17.53125 15.834375C17.53125 15.84375 17.671875 15.998438 17.854687 16.188281C17.882812 16.21875 17.90625 16.258594 17.90625 16.277344C17.90625 16.296094 17.927344 16.324219 17.953125 16.340625C17.978906 16.357031 18 16.394531 18 16.422656C18 16.450781 18.021094 16.485938 18.046875 16.5C18.077344 16.516406 18.09375 16.549219 18.09375 16.59375C18.09375 16.638281 18.110156 16.671094 18.140625 16.6875C18.175781 16.70625 18.1875 16.736719 18.1875 16.802344C18.1875 16.858594 18.20625 16.9125 18.234375 16.945313C18.274219 16.992188 18.28125 17.032031 18.28125 17.25C18.28125 17.479688 18.285937 17.505469 18.339844 17.578125C18.410156 17.671875 18.471094 17.709375 18.588281 17.730469C18.714844 17.751563 18.815625 17.697656 19.028906 17.496094C19.33125 17.207813 19.55625 16.814063 19.680469 16.361719C19.736719 16.160156 19.74375 16.094531 19.74375 15.738281C19.74375 15.379688 19.736719 15.316406 19.680469 15.105469C19.584375 14.735156 19.44375 14.435156 19.272656 14.226563C19.214062 14.15625 18.841406 13.769531 18.445312 13.366406C17.917969 12.834375 17.704687 12.602344 17.655469 12.510938C17.594531 12.39375 17.589844 12.367969 17.582812 12.01875C17.573437 11.601563 17.589844 11.521875 17.777344 11.121094C17.894531 10.867969 18.222656 10.371094 18.339844 10.267969C18.445312 10.176563 18.501562 10.176563 18.639844 10.267969L18.75 10.340625L18.75 10.542188C18.752344 10.729688 18.757031 10.753125 18.815625 10.81875C18.895312 10.9125 19.047656 10.959375 19.157812 10.921875C19.399219 10.842188 19.746094 10.242188 19.842187 9.740625C19.900781 9.442969 19.877344 9 19.792969 8.730469C19.66875 8.336719 19.450781 8.055469 19.101562 7.842188C18.80625 7.659375 18.571875 7.535156 18.386719 7.4625C17.807812 7.232813 17.55 6.951563 17.507812 6.499219C17.49375 6.328125 17.482031 6.290625 17.428125 6.239063C17.374219 6.182813 17.348437 6.175781 17.235937 6.180469C17.128125 6.185156 17.085937 6.201563 17.008594 6.2625C16.872656 6.367969 16.78125 6.459375 16.78125 6.489844C16.78125 6.503906 16.760156 6.527344 16.734375 6.54375C16.6875 6.590625 16.6875 6.609375 16.713281 6.592969C16.666406 6.658594 16.666406 6.639844 16.666406 6.663281C16.666406 6.684375 16.645312 6.717188 16.619531 6.733594C16.59375 6.75 16.572656 6.782813 16.572656 6.808594C16.572656 6.832031 16.551562 6.864844 16.525781 6.878906C16.497656 6.895313 16.478906 6.928125 16.478906 6.967969C16.478906 7.005469 16.460156 7.042969 16.432031 7.061719C16.399219 7.080469 16.385156 7.115625 16.385156 7.169531C16.385156 7.216406 16.366406 7.263281 16.338281 7.289063C16.300781 7.321875 16.291406 7.361719 16.291406 7.474219C16.291406 7.558594 16.272656 7.673438 16.244531 7.753125C16.21875 7.825781 16.197656 7.928906 16.197656 7.980469C16.197656 8.034375 16.21875 8.116406 16.244531 8.167969C16.272656 8.221875 16.291406 8.30625 16.291406 8.374219C16.291406 8.458594 16.303125 8.500781 16.338281 8.53125C16.364062 8.554688 16.385156 8.592188 16.385156 8.613281C16.385156 8.634375 16.40625 8.671875 16.432031 8.695313C16.457812 8.71875 16.478906 8.746875 16.478906 8.758594C16.478906 8.8125 16.755469 9.117188 16.910156 9.234375C16.959375 9.274219 17.182031 9.39375 17.402344 9.503906L17.803125 9.703125L17.796094 9.782813C17.789062 9.84375 17.75625 9.892969 17.648437 9.996094C17.573437 10.071094 17.510156 10.146094 17.510156 10.167188C17.510156 10.188281 17.489062 10.216406 17.463281 10.230469C17.4375 10.244531 17.416406 10.279688 17.416406 10.307813C17.416406 10.335938 17.395312 10.373438 17.369531 10.389844C17.34375 10.40625 17.322656 10.44375 17.322656 10.476563C17.322656 10.509375 17.303906 10.544531 17.275781 10.558594C17.242969 10.575 17.228906 10.607813 17.228906 10.659375C17.228906 10.708594 17.2125 10.74375 17.182031 10.764844C17.151562 10.783594 17.135156 10.81875 17.135156 10.863281C17.135156 10.907813 17.11875 10.940625 17.088281 10.957031C17.057812 10.973438 17.041406 11.00625 17.041406 11.048438C17.041406 11.083594 17.020312 11.132813 16.994531 11.15625C16.957031 11.189063 16.947656 11.228906 16.947656 11.334375C16.947656 11.458594 16.940625 11.472656 16.875 11.519531C16.807031 11.571094 16.802344 11.571094 16.753125 11.528906C16.598437 11.397656 12.960937 7.755469 12.848437 7.617188C12.675 7.403906 12.653906 7.366406 12.539062 7.110938C12.447656 6.897656 12.396094 6.698438 12.353906 6.375C12.335156 6.227344 12.325781 6.203906 12.246094 6.133594C12.173437 6.072656 12.140625 6.058594 12.051562 6.060938C11.992969 6.060938 11.917969 6.075 11.885156 6.089063ZM4.753125 10.460156C4.715625 10.490625 4.6875 10.525781 4.6875 10.542188C4.6875 10.55625 4.666406 10.579688 4.640625 10.59375C4.614844 10.607812 4.59375 10.638281 4.59375 10.664063C4.59375 10.689844 4.572656 10.720312 4.546875 10.734375C4.521094 10.748438 4.5 10.778906 4.5 10.804688C4.5 10.830469 4.478906 10.860937 4.453125 10.875C4.422656 10.891406 4.40625 10.924219 4.40625 10.966406C4.40625 11.001562 4.385156 11.050781 4.359375 11.074219C4.326562 11.104688 4.3125 11.146875 4.3125 11.219531C4.3125 11.275781 4.291406 11.357812 4.265625 11.407031C4.232812 11.470312 4.21875 11.540625 4.21875 11.648438C4.21875 11.75625 4.232812 11.826563 4.265625 11.889844C4.291406 11.936719 4.3125 12.01875 4.3125 12.070313C4.3125 12.138281 4.324219 12.16875 4.359375 12.1875C4.385156 12.201563 4.40625 12.236719 4.40625 12.267187C4.40625 12.297656 4.427344 12.339844 4.453125 12.363281C4.478906 12.386719 4.5 12.417187 4.5 12.428906C4.5 12.442969 4.626563 12.578906 4.78125 12.73125C4.935937 12.885937 5.0625 13.019531 5.0625 13.026562C5.0625 13.035937 5.125781 13.099219 5.203125 13.169531C5.388281 13.335938 5.388281 13.373438 5.203125 13.502344C5.125781 13.55625 5.0625 13.610156 5.0625 13.619531C5.0625 13.63125 5.050781 13.640625 5.039063 13.640625C5.00625 13.640625 4.78125 13.865625 4.78125 13.896094C4.78125 13.910156 4.760156 13.93125 4.734375 13.945313C4.708594 13.959375 4.6875 13.9875 4.6875 14.010937C4.6875 14.032031 4.666406 14.064844 4.640625 14.08125C4.614844 14.097656 4.59375 14.135156 4.59375 14.167969C4.59375 14.200781 4.575 14.235937 4.546875 14.25C4.516406 14.266406 4.5 14.299219 4.5 14.341406C4.5 14.376562 4.478906 14.425781 4.453125 14.449219C4.425 14.475 4.40625 14.521875 4.40625 14.566406C4.40625 14.608594 4.3875 14.657812 4.361719 14.68125C4.260937 14.772656 4.263281 15.700781 4.366406 15.813281C4.389844 15.841406 4.40625 15.897656 4.40625 15.953906C4.40625 16.014844 4.422656 16.066406 4.453125 16.101562C4.48125 16.134375 4.5 16.188281 4.5 16.242187C4.5 16.298437 4.516406 16.342969 4.546875 16.371094C4.582031 16.403906 4.59375 16.44375 4.59375 16.535156C4.59375 16.626562 4.582031 16.666406 4.546875 16.699219C4.521094 16.722656 4.5 16.757812 4.5 16.778906C4.5 16.81875 4.40625 16.882031 4.263281 16.945312C4.150781 16.992187 4.054687 17.071875 4.054687 17.116406C4.054687 17.1375 4.082812 17.175 4.117969 17.203125C4.178906 17.25 4.195312 17.252344 5.0625 17.245312L5.946094 17.238281L6.028125 17.175C6.09375 17.111719 6.126562 17.069531 6.1875 16.898437C6.257812 16.701562 6.2625 16.66875 6.250781 16.48125C6.232031 16.160156 6.142969 15.984375 5.742187 15.480469C5.477344 15.15 5.409375 15.049219 5.346094 14.90625C5.210156 14.589844 5.289844 14.092969 5.526562 13.809375C5.573437 13.750781 5.620312 13.692187 5.629687 13.678125C5.639062 13.664062 5.657812 13.666406 5.68125 13.685156C5.702344 13.703906 5.753906 13.734375 5.796094 13.757812C5.835937 13.778906 5.880469 13.821094 5.894531 13.849219C5.90625 13.875 5.936719 13.905469 5.957812 13.9125C5.98125 13.919531 6 13.935937 6 13.95C6 13.964062 6.428906 14.402344 6.951562 14.927344C8.107031 16.082812 8.4375 16.422656 8.4375 16.448437C8.4375 16.460156 8.458594 16.488281 8.484375 16.511719C8.510156 16.535156 8.53125 16.582031 8.53125 16.617188C8.53125 16.652344 8.55 16.699219 8.575781 16.720312C8.603906 16.746094 8.622656 16.804688 8.629687 16.879687C8.639062 16.957031 8.655469 17.00625 8.68125 17.020312C8.709375 17.036719 8.71875 17.076562 8.71875 17.179687C8.71875 17.301562 8.725781 17.325 8.777344 17.357812C8.896875 17.435156 9.067969 17.334375 9.276562 17.0625C9.442969 16.846875 9.585937 16.44375 9.585937 16.183594C9.585937 16.028906 9.529687 15.740625 9.471094 15.590625C9.379687 15.358594 9.335156 15.307031 8.646094 14.589844C8.273437 14.200781 8.278125 14.210156 8.261719 14.025C8.242969 13.832812 8.271094 13.661719 8.367187 13.415625C8.446875 13.207031 8.676562 12.88125 8.767969 12.84375C8.828906 12.817969 8.842969 12.822656 8.915625 12.88125C8.990625 12.944531 8.997656 12.960937 8.997656 13.085156C9 13.207031 9.004687 13.221094 9.060937 13.242188C9.171094 13.284375 9.227344 13.270313 9.302344 13.178906C9.475781 12.967969 9.632813 12.557812 9.632813 12.316406C9.632813 11.798437 9.379687 11.439844 8.871094 11.238281C8.782031 11.203125 8.669531 11.15625 8.625 11.132813C8.402344 11.017969 8.226563 10.774219 8.226563 10.582031C8.226563 10.467188 8.172656 10.40625 8.076563 10.40625C8.003906 10.40625 7.875 10.485937 7.875 10.530469C7.875 10.546875 7.832812 10.596094 7.78125 10.640625C7.729688 10.685156 7.6875 10.736719 7.6875 10.750781C7.6875 10.767187 7.666406 10.792969 7.640625 10.809375C7.610156 10.830469 7.59375 10.865625 7.59375 10.914844C7.59375 10.966406 7.579687 10.999219 7.546875 11.015625C7.511719 11.034375 7.5 11.064844 7.5 11.135156C7.5 11.196094 7.483594 11.252344 7.453125 11.289844C7.385156 11.376563 7.385156 11.695313 7.453125 11.782031C7.478906 11.814844 7.5 11.866406 7.5 11.896875C7.5 11.927344 7.521094 11.964844 7.546875 11.98125C7.572656 11.997656 7.59375 12.030469 7.59375 12.051563C7.59375 12.075 7.614844 12.105469 7.640625 12.121875C7.666406 12.138281 7.6875 12.164063 7.6875 12.180469C7.6875 12.215625 7.959375 12.396094 8.153906 12.489844C8.238281 12.529688 8.313281 12.576563 8.325 12.592969C8.357812 12.644531 8.34375 12.724219 8.296875 12.75C8.271094 12.764063 8.25 12.7875 8.25 12.803906C8.25 12.820313 8.228906 12.846094 8.203125 12.8625C8.177344 12.878906 8.15625 12.907031 8.15625 12.925781C8.15625 12.944531 8.135156 12.970313 8.109375 12.984375C8.08125 12.998438 8.0625 13.033594 8.0625 13.066406C8.0625 13.099219 8.04375 13.134375 8.015625 13.148438C7.982813 13.164844 7.96875 13.197656 7.96875 13.249219C7.96875 13.291406 7.947656 13.354688 7.921875 13.394531C7.896094 13.432031 7.875 13.488281 7.875 13.516406C7.875 13.544531 7.846875 13.596094 7.814062 13.628906L7.750781 13.692188L6.567187 12.499219C5.917969 11.845313 5.350781 11.254688 5.310937 11.191406C5.189063 11.001563 5.128125 10.830469 5.114062 10.652344C5.1 10.422656 5.085938 10.40625 4.938281 10.40625C4.846875 10.408594 4.8 10.420313 4.753125 10.460156Z"/></svg>
