<svg xmlns="http://www.w3.org/2000/svg" width="24" height="24" viewBox="0 0 24 24"><path d="M5.047546 2.099948C5.224415 1.963894 5.445503 1.967295 5.58836 2.10675C5.683598 2.205389 5.761829 2.389063 5.761829 2.521715C5.761829 2.552328 5.823052 2.780218 5.901285 3.031917C6.101964 3.688378 6.397881 4.239398 6.77203 4.667967C7.09856 5.038715 12.397864 10.300604 12.717591 10.56931L12.918271 10.742781L12.979494 10.640739C13.013509 10.582915 13.04072 10.474072 13.04072 10.38904C13.04072 10.276795 13.061127 10.218971 13.108747 10.178155C13.152965 10.13734 13.176774 10.076116 13.176774 9.994483C13.176774 9.916251 13.200583 9.851625 13.244801 9.810809C13.282215 9.776796 13.312828 9.705368 13.312828 9.654348C13.312828 9.593123 13.340038 9.538701 13.380855 9.514893C13.421671 9.487681 13.448882 9.43326 13.448882 9.378839C13.448882 9.321015 13.476092 9.266593 13.516909 9.242785C13.554323 9.218975 13.584936 9.164554 13.584936 9.123737C13.584936 9.082921 13.615548 9.031899 13.652963 9.011493C13.690377 8.991083 13.72099 8.940063 13.72099 8.895845C13.72099 8.851629 13.751602 8.790404 13.789017 8.756392C13.826431 8.722377 13.857044 8.661154 13.857044 8.623737C13.857044 8.582921 13.887656 8.531901 13.925071 8.508093C13.962485 8.484283 13.993098 8.436664 13.993098 8.399249C13.993098 8.361835 14.02371 8.314215 14.061125 8.290406C14.098539 8.266597 14.129152 8.232583 14.129152 8.212175C14.129152 8.195168 14.190375 8.123739 14.265206 8.059114C14.360444 7.977482 14.40126 7.912857 14.40126 7.84823C14.40126 7.766597 14.363846 7.739387 14.02371 7.56932C13.690377 7.402653 13.486297 7.280204 13.027114 6.974084C12.952284 6.926464 12.833237 6.824424 12.761808 6.749594C12.690381 6.674765 12.601945 6.582927 12.56453 6.545513C12.527116 6.504696 12.496504 6.457078 12.496504 6.436669C12.496504 6.41286 12.465891 6.378846 12.428476 6.358439C12.391062 6.33803 12.36045 6.300615 12.36045 6.276806C12.36045 6.252997 12.329837 6.205378 12.292422 6.171365C12.255008 6.137351 12.224396 6.082929 12.224396 6.048916C12.224396 6.014902 12.193783 5.970684 12.156368 5.950277C12.108748 5.926467 12.088342 5.878848 12.088342 5.800617C12.088342 5.73259 12.061131 5.664563 12.020314 5.627149C11.979498 5.589733 11.952288 5.521706 11.952288 5.453679C11.952288 5.392455 11.928478 5.321026 11.901267 5.290414C11.863852 5.252999 11.850246 5.164565 11.850246 4.953681C11.850246 4.739396 11.863852 4.654362 11.901267 4.623749C11.931878 4.59994 11.952288 4.525111 11.952288 4.436675C11.952288 4.338036 11.972694 4.276812 12.020314 4.232594C12.067932 4.188376 12.088342 4.127153 12.088342 4.028513C12.088342 3.929874 12.108748 3.86865 12.156368 3.824432C12.193783 3.790419 12.224396 3.718991 12.224396 3.667971C12.224396 3.606746 12.251606 3.552324 12.292422 3.528515C12.329837 3.504706 12.36045 3.446882 12.36045 3.399263C12.36045 3.351645 12.391062 3.293821 12.428476 3.270012C12.465891 3.246203 12.496504 3.198584 12.496504 3.161169C12.496504 3.123755 12.527116 3.076135 12.56453 3.052326C12.601945 3.028517 12.632558 2.974095 12.632558 2.933279C12.632558 2.889061 12.66317 2.838041 12.700584 2.814231C12.737999 2.790421 12.768612 2.739402 12.768612 2.701987C12.768612 2.664571 12.799224 2.613551 12.836638 2.589742C12.874053 2.565933 12.904666 2.531919 12.904666 2.511511C12.904666 2.491103 12.945481 2.433279 12.999904 2.382259C13.391058 1.991104 13.816228 1.933281 13.982894 2.253009C14.013505 2.310831 14.081532 2.542123 14.132553 2.763211C14.237995 3.222393 14.30262 3.331236 14.618946 3.630555C14.829829 3.824432 14.938673 3.885657 16.112139 4.453682C16.316219 4.552322 16.567921 4.695178 16.673363 4.773408C16.778803 4.851641 16.914858 4.943477 16.96928 4.977489C17.112137 5.065926 17.176762 5.140755 17.329823 5.382252C17.686964 5.950277 17.693768 5.963882 17.819618 6.538711C17.959072 7.164559 17.812815 7.953673 17.418257 8.718975C17.183563 9.171355 16.962477 9.443463 16.734587 9.555709C16.567921 9.633939 16.465879 9.623735 16.282207 9.514893C16.183567 9.457069 16.169962 9.429858 16.169962 9.310811C16.169962 9.225778 16.142752 9.144145 16.101934 9.089724C16.050915 9.025098 16.033909 8.950268 16.033909 8.807411C16.033909 8.596527 15.993093 8.538705 15.758398 8.419657C15.649555 8.361835 15.629148 8.361835 15.537311 8.409453C15.384251 8.487683 15.156359 8.749588 14.880851 9.164554C14.513505 9.718973 14.357042 10.13734 14.190375 11.028494C14.166566 11.17135 14.166566 11.2972 14.193777 11.480872C14.214186 11.620328 14.231192 11.810803 14.231192 11.906041C14.231192 12.069306 14.237995 12.082911 14.520307 12.392434C14.703272 12.597761 14.776881 12.680367 14.759291 12.731756C14.747451 12.766348 14.694288 12.786795 14.605341 12.821005C13.659764 13.181548 12.690381 14.014879 12.169973 14.912836C12.078137 15.072699 11.9863 15.201951 11.965893 15.201951C11.942083 15.201951 11.870655 15.137325 11.799226 15.055693C11.622356 14.855012 7.493117 10.712168 7.469306 10.712168C7.459103 10.712168 7.404681 10.671351 7.350259 10.61693C7.295838 10.56591 7.244818 10.538699 7.238014 10.559107C7.231213 10.576114 7.115566 10.746181 6.982913 10.933256C6.727813 11.2972 6.496521 11.746179 6.380874 12.106721C6.24142 12.552299 6.258425 13.286991 6.425092 13.769981C6.530533 14.082906 6.649582 14.280185 7.156382 14.997869C7.241416 15.116917 7.479511 15.385623 7.686993 15.589705C8.210801 16.116915 8.408079 16.395824 8.669984 16.987659C8.850255 17.399223 8.904677 18.123711 8.792432 18.661125C8.639371 19.406021 8.43189 19.763163 8.05774 19.933229C7.93189 19.991053 7.775429 19.997854 5.659788 19.997854C3.496529 19.997854 3.391087 19.994455 3.255033 19.929829C3.173401 19.895815 3.108775 19.844795 3.108775 19.817585C3.108775 19.790373 3.084966 19.749557 3.057755 19.725746C2.999932 19.678129 2.986327 19.521666 3.040748 19.521666C3.057755 19.521666 3.084966 19.48085 3.09517 19.426428C3.135986 19.269966 3.37408 19.079491 3.537345 19.079491C3.578161 19.079491 3.625781 19.062483 3.635984 19.045477C3.646188 19.025068 3.693808 19.011463 3.738026 19.011463C3.863874 19.011463 4.197207 18.851601 4.197207 18.793777C4.197207 18.766567 4.22782 18.72575 4.265234 18.705341C4.309453 18.681532 4.333261 18.633915 4.333261 18.569288C4.333261 18.514866 4.360472 18.416227 4.391085 18.3482C4.445507 18.235956 4.445507 18.218948 4.391085 18.065887C4.360472 17.977453 4.333261 17.844801 4.333261 17.766569C4.333261 17.674732 4.309453 17.599903 4.265234 17.548882C4.217615 17.494461 4.197207 17.423033 4.197207 17.31419C4.197207 17.198544 4.180201 17.14072 4.12918 17.096504C4.078161 17.052286 4.061153 16.997864 4.061153 16.858408C4.061153 16.722355 4.044147 16.664532 3.993127 16.620314C3.942107 16.579498 3.9251 16.521675 3.9251 16.399227C3.9251 16.28018 3.908092 16.222357 3.857073 16.178139C3.802651 16.133921 3.789046 16.079498 3.789046 15.926439C3.789046 15.790385 3.772038 15.715554 3.731222 15.667936C3.6768 15.610113 3.669999 15.501269 3.659793 14.684945C3.64959 13.814199 3.652992 13.759778 3.721019 13.633927C3.765236 13.548894 3.789046 13.433249 3.789046 13.321004C3.789046 13.18495 3.806053 13.127126 3.857073 13.08291C3.904691 13.042093 3.9251 12.98427 3.9251 12.872025C3.9251 12.75638 3.942107 12.712162 3.993127 12.684951C4.040745 12.661142 4.061153 12.613523 4.061153 12.535292C4.061153 12.467265 4.088364 12.399238 4.12918 12.361823C4.166595 12.327809 4.197207 12.263184 4.197207 12.222367C4.197207 12.178149 4.22782 12.123728 4.265234 12.099919C4.302649 12.07611 4.333261 12.021688 4.333261 11.980872C4.333261 11.940056 4.363874 11.889034 4.401289 11.868628C4.438703 11.848218 4.469316 11.804002 4.469316 11.766586C4.469316 11.729172 4.499928 11.684954 4.537343 11.664546C4.574757 11.644137 4.60537 11.603321 4.60537 11.569308C4.60537 11.538695 4.666593 11.457064 4.741424 11.392438C4.816253 11.327812 4.877478 11.252982 4.877478 11.232574C4.877478 11.208764 4.90809 11.17135 4.945505 11.147541C4.982919 11.123732 5.013532 11.093119 5.013532 11.076112C5.013532 11.062507 5.135981 10.926453 5.28564 10.776793C5.435299 10.630535 5.557748 10.494481 5.557748 10.477474C5.557748 10.460467 5.598564 10.423053 5.646182 10.38904C5.693802 10.358427 5.765231 10.300604 5.806047 10.259788C5.91489 10.150945 6.149582 9.977476 6.268631 9.91285C6.360466 9.868633 6.374072 9.841422 6.374072 9.725776C6.374072 9.627137 6.357065 9.582919 6.306045 9.555709C6.268631 9.535299 6.238018 9.504688 6.238018 9.491083C6.238018 9.460471 6.030535 9.246186 5.452306 8.681561C4.857069 8.103333 4.333261 7.559116 4.333261 7.5217C4.333261 7.501293 4.302649 7.467278 4.265234 7.446871C4.22782 7.426462 4.197207 7.382246 4.197207 7.34483C4.197207 7.307415 4.166595 7.263197 4.12918 7.24279C4.091766 7.222381 4.061153 7.178164 4.061153 7.147552C4.061153 7.113538 4.030541 7.062518 3.993127 7.028505C3.955712 6.997893 3.9251 6.943471 3.9251 6.909457C3.9251 6.872043 3.894487 6.817621 3.857073 6.783608C3.816256 6.746192 3.789046 6.678165 3.789046 6.61354C3.789046 6.548914 3.761835 6.480887 3.721019 6.443473C3.6734 6.399255 3.652992 6.33803 3.652992 6.232588C3.652992 6.130548 3.629182 6.048916 3.584965 5.994494C3.523739 5.916263 3.516937 5.855039 3.516937 5.324428C3.516937 4.807423 3.523739 4.729192 3.584965 4.613545C3.629182 4.528512 3.652992 4.42307 3.652992 4.287016C3.652992 4.140758 3.669999 4.065928 3.721019 4.001302C3.758433 3.953684 3.789046 3.865248 3.789046 3.797221C3.789046 3.725793 3.812855 3.657766 3.857073 3.620351C3.894487 3.586338 3.9251 3.518311 3.9251 3.470692C3.9251 3.419672 3.95231 3.36525 3.993127 3.338039C4.030541 3.31423 4.061153 3.259809 4.061153 3.212189C4.061153 3.164571 4.088364 3.113551 4.12918 3.093142C4.166595 3.072733 4.197207 3.031917 4.197207 2.997904C4.197207 2.967292 4.258432 2.885659 4.333261 2.821034C4.408091 2.756409 4.469316 2.688382 4.469316 2.671375C4.469316 2.637362 4.88428 2.222396 5.047546 2.099948ZM16.289009 13.195154C16.408056 13.140732 17.445469 13.201957 17.513496 13.266582C17.530502 13.283589 17.584925 13.297194 17.639345 13.297194C17.690365 13.297194 17.765196 13.3108 17.809412 13.327806C17.85363 13.344812 17.948868 13.375425 18.023699 13.395834C19.067913 13.708758 20.101923 14.630524 20.591719 15.688344C20.904642 16.368614 21.016888 16.953646 20.989677 17.766569C20.969269 18.375412 20.89444 18.735954 20.686956 19.259762C19.999884 20.967239 18.183561 22.113495 16.357037 21.991047C15.425067 21.926422 14.68017 21.654314 13.955684 21.110098C13.62235 20.861799 13.176774 20.440031 13.176774 20.375406C13.176774 20.354998 13.146161 20.324385 13.108747 20.303978C13.071332 20.283567 13.04072 20.242752 13.04072 20.208738C13.04072 20.178127 13.010107 20.130508 12.972692 20.106697C12.935278 20.08289 12.904666 20.035271 12.904666 19.997854C12.904666 19.963842 12.874053 19.916222 12.836638 19.895815C12.795822 19.872005 12.768612 19.824387 12.768612 19.766563C12.768612 19.712141 12.741401 19.657721 12.700584 19.630508C12.656366 19.603298 12.632558 19.552279 12.632558 19.487654C12.632558 19.423027 12.608748 19.375408 12.56453 19.351599C12.513511 19.324389 12.496504 19.28017 12.496504 19.184933C12.496504 19.1033 12.469293 19.025068 12.428476 18.977449C12.377457 18.919628 12.36045 18.851601 12.36045 18.712145C12.36045 18.579493 12.343442 18.504662 12.302626 18.457045C12.248204 18.402622 12.241403 18.303984 12.231197 17.715549C12.220994 17.093102 12.224396 17.028477 12.289021 16.882217C12.33664 16.776775 12.36045 16.650927 12.36045 16.511471C12.36045 16.344805 12.374055 16.286982 12.428476 16.239363C12.469293 16.201948 12.496504 16.133921 12.496504 16.062492C12.496504 15.991064 12.520312 15.926439 12.56453 15.892425C12.601945 15.858412 12.632558 15.797187 12.632558 15.756371C12.632558 15.712154 12.66317 15.661133 12.700584 15.637323C12.737999 15.613515 12.768612 15.559093 12.768612 15.518277C12.768612 15.477461 12.799224 15.426441 12.836638 15.406032C12.880857 15.382223 12.904666 15.334603 12.904666 15.269978C12.904666 15.205353 12.928474 15.157733 12.972692 15.133924C13.010107 15.113515 13.04072 15.065897 13.04072 15.028482C13.04072 14.987666 13.06793 14.950251 13.108747 14.940046C13.146161 14.929843 13.176774 14.902632 13.176774 14.875422C13.176774 14.851612 13.207386 14.814198 13.244801 14.793789C13.282215 14.77338 13.312828 14.725761 13.312828 14.688347C13.312828 14.647531 13.340038 14.610115 13.380855 14.599912C13.418269 14.589707 13.448882 14.565899 13.448882 14.548891C13.448882 14.504674 13.639358 14.317599 13.680174 14.317599C13.700581 14.317599 13.758404 14.273382 13.812826 14.21896C13.867248 14.16794 13.959084 14.096512 14.020308 14.065901C14.081533 14.035288 14.129152 13.997873 14.129152 13.984268C14.129152 13.909437 14.833231 13.501275 14.959082 13.501275C14.986292 13.501275 15.078129 13.470663 15.169966 13.43665C15.261802 13.402636 15.404658 13.355018 15.489692 13.331208C15.574726 13.3108 15.690372 13.276786 15.748195 13.25978C15.806018 13.242773 15.935268 13.229167 16.03731 13.225765C16.139349 13.225765 16.251595 13.21216 16.289009 13.195154ZM15.013503 15.184944C14.969285 15.137325 14.925069 15.099911 14.914864 15.099911C14.901258 15.099911 14.710782 15.283584 14.489696 15.504671L14.084934 15.912833L14.911463 16.749565L15.741393 17.586298L14.918265 18.409424L14.09514 19.235954L14.486294 19.623707C14.70398 19.837992 14.887652 20.021666 14.894456 20.028467C14.945476 20.072685 15.353638 19.790373 15.353638 19.70874C15.353638 19.691734 15.428469 19.610102 15.516903 19.53187C15.605339 19.453638 15.806018 19.266565 15.96248 19.113504C16.118942 18.963844 16.261799 18.841396 16.278805 18.841396C16.292412 18.841396 16.306017 18.82439 16.306017 18.803982C16.306017 18.780172 16.357037 18.712145 16.418261 18.650919C16.622343 18.440037 16.635948 18.446838 17.421659 19.25296C17.809414 19.647516 18.15295 19.984249 18.186964 20.004658C18.231182 20.028467 18.265194 20.025066 18.289003 20.001257C18.309412 19.980848 18.35363 19.963842 18.387644 19.963842C18.472677 19.963842 18.618935 19.865202 18.618935 19.807379C18.618935 19.780169 18.649548 19.742754 18.686962 19.718945C18.724377 19.695135 18.75499 19.657721 18.75499 19.633911C18.75499 19.610102 18.768595 19.589693 18.785601 19.589693C18.799208 19.589693 18.86043 19.548876 18.921656 19.494455C19.003288 19.426428 19.030499 19.372005 19.033901 19.276768C19.0373 19.161123 19.016893 19.13051 18.823015 18.95364C18.70397 18.844797 18.367235 18.518267 18.071318 18.229153C17.659754 17.827793 17.530502 17.681536 17.530502 17.616909C17.530502 17.552284 17.615538 17.450245 17.894447 17.191742C18.401249 16.715551 18.618935 16.497866 18.618935 16.460449C18.618935 16.440042 18.63254 16.426437 18.646145 16.426437C18.714172 16.426437 19.016893 16.089705 19.0373 15.987662C19.057709 15.885623 19.040703 15.861813 18.795805 15.616915C18.652948 15.474059 18.462473 15.297189 18.377439 15.229161L18.217575 15.099911L17.493088 15.841405C17.458857 15.876287 17.425991 15.909788 17.39443 15.94196C16.758945 16.589737 16.652115 16.698635 16.579256 16.679327C16.561167 16.674534 16.545174 16.661839 16.523703 16.647526C16.428465 16.5863 16.169962 16.341402 16.169962 16.314192C16.169962 16.283579 15.149557 15.269978 15.118944 15.269978C15.105339 15.269978 15.057721 15.232563 15.013503 15.184944Z"/></svg>
