<svg xmlns="http://www.w3.org/2000/svg" width="24" height="24" viewBox="0 0 24 24"><path d="M 11.8076540625,4.76024299653 C 11.6713537413,4.82542917222 11.3335681875,5.14543713785 11.3335681875,5.21062457778 C 11.3335681875,5.23432887153 11.306900541,5.26988531215 11.2743074531,5.29062625313 C 11.2417143653,5.3113671941 11.2150467188,5.3587757816 11.2150467188,5.39433222222 C 11.2150467188,5.42988866285 11.1883790722,5.47433389757 11.1557859844,5.49211275 C 11.1231928965,5.50989160243 11.09652525,5.5484101316 11.09652525,5.58100448368 C 11.09652525,5.61359757153 11.0698576035,5.6521161007 11.0372645156,5.66989495313 C 10.9987447222,5.6906358941 10.9780037813,5.73211904028 10.9780037813,5.78841642188 C 10.9780037813,5.84471380347 10.9572628403,5.88619694965 10.9187430469,5.90693789063 C 10.8772611649,5.9276788316 10.8594823125,5.96916197778 10.8594823125,6.03731150625 C 10.8594823125,6.09657224063 10.8357780188,6.155832975 10.8002215781,6.18842606285 C 10.7617017847,6.22398250347 10.7409608438,6.2802811493 10.7409608438,6.35139403055 C 10.7409608438,6.41658020625 10.71725655,6.4876930875 10.6876255507,6.52324952813 C 10.6402169632,6.57658482118 10.6283648163,6.65362314375 10.6165139337,6.9795565507 C 10.6076238753,7.19585854722 10.6105872281,7.52475530695 10.6194760222,7.70846421563 C 10.6342915219,7.98698903507 10.6461436688,8.04921312222 10.6905889035,8.07291741597 C 10.7291086969,8.09365962118 10.7409608438,8.14106820868 10.7409608438,8.2506996191 C 10.7409608438,8.36033229375 10.7557763434,8.40774088125 10.8002215781,8.44626067465 C 10.832814666,8.47589040972 10.8594823125,8.5351511441 10.8594823125,8.57959764305 C 10.8594823125,8.6299683191 10.8802232535,8.67145146528 10.9187430469,8.69219240625 C 10.9513361347,8.70997125868 10.9780037813,8.74848978785 10.9780037813,8.78108413993 C 10.9780037813,8.81367722778 11.0046714278,8.85219702118 11.0372645156,8.86997460938 C 11.0698576035,8.8877534618 11.09652525,8.92627199097 11.09652525,8.95886634305 C 11.09652525,8.9914594309 11.1231928965,9.0299792243 11.1557859844,9.0477568125 C 11.1883790722,9.06553566493 11.2150467188,9.0951654 11.2150467188,9.11294425243 C 11.2150467188,9.12775848785 11.2683820118,9.19590928055 11.3335681875,9.25813210347 C 11.3987543632,9.3233195434 11.4520896563,9.379616925 11.4520896563,9.3885057191 C 11.4520896563,9.3973945132 11.6417240063,9.59591892153 11.875803591,9.82999850625 C 12.1069210872,10.0670414438 12.403224759,10.3722339097 12.5306350219,10.5114963194 C 12.6610086375,10.6477966406 12.7913822531,10.7692814622 12.8210119882,10.7752069035 C 12.8565684288,10.7870590503 12.8743472812,10.8196521382 12.8743472812,10.875950784 C 12.8743472812,10.9470636653 12.8387908406,10.9855821944 12.6758241372,11.1100303688 C 12.3676683184,11.3411466007 11.9261755313,11.7411575059 11.9261755313,11.7856027406 C 11.9261755313,11.7944915347 11.8728402382,11.8567156219 11.8076540625,11.9219017976 C 11.7424666226,11.9870892375 11.6891325938,12.055238766 11.6891325938,12.0700542656 C 11.6891325938,12.0848697653 11.6624649472,12.1115361476 11.6298718594,12.129315 C 11.5972787715,12.1470925882 11.570611125,12.1856123816 11.570611125,12.2182067337 C 11.570611125,12.2507998215 11.5439434785,12.2893183507 11.5113503906,12.3070972031 C 11.4787573028,12.3248760556 11.4520896563,12.3574691434 11.4520896563,12.3811734372 C 11.4520896563,12.4048777309 11.4254220097,12.4404341715 11.3928289219,12.4611751125 C 11.360235834,12.4819160535 11.3335681875,12.529324641 11.3335681875,12.5648810816 C 11.3335681875,12.6004375222 11.306900541,12.6448840212 11.2743074531,12.6626616094 C 11.2387510125,12.6804404618 11.2150467188,12.7248856965 11.2150467188,12.7663675785 C 11.2150467188,12.8078507247 11.191342425,12.8522959594 11.1557859844,12.8700748118 C 11.117266191,12.8908157528 11.09652525,12.9322976347 11.09652525,12.9885962806 C 11.09652525,13.0448936622 11.075784309,13.0863755441 11.0372645156,13.1071177493 C 10.9957813694,13.1278586903 10.9780037813,13.1693405722 10.9780037813,13.2374901007 C 10.9780037813,13.2967508351 10.9542994875,13.3560115694 10.9187430469,13.3886059215 C 10.8742978122,13.4271244507 10.8594823125,13.4804597438 10.8594823125,13.5812036243 C 10.8594823125,13.6819462406 10.8446668128,13.7352815337 10.8002215781,13.7738000628 C 10.7557763434,13.815283209 10.7409608438,13.8656551493 10.7409608438,13.9812132653 C 10.7409608438,14.0760304403 10.71725655,14.1915885563 10.6787367566,14.2775169372 C 10.622439375,14.4049272 10.6165126694,14.4582624931 10.6283648163,14.8523454285 C 10.6402169632,15.1693913056 10.6550324628,15.3145791566 10.6905889035,15.3945808319 C 10.7231819913,15.4656937132 10.7409608438,15.5842151819 10.7409608438,15.7234788559 C 10.7409608438,15.8982977063 10.7528129906,15.9605217934 10.8002215781,16.0197825278 C 10.8357780188,16.0642277625 10.8594823125,16.1383039965 10.8594823125,16.2123789663 C 10.8594823125,16.2894185531 10.8772599007,16.3457159347 10.9187430469,16.3812723753 C 10.9631882816,16.4197921687 10.9780037813,16.4731274618 10.9780037813,16.5738700781 C 10.9780037813,16.6686872531 10.9957813694,16.7368367816 11.0372645156,16.7901720747 C 11.0728209562,16.8346173094 11.09652525,16.9086935434 11.09652525,16.9827685132 C 11.09652525,17.0598081 11.1143028382,17.1161054816 11.1557859844,17.1516619222 C 11.2091200132,17.1990705097 11.2150467188,17.2435170087 11.2150467188,17.5694504156 C 11.2150467188,17.9042738809 11.2091200132,17.9398303215 11.1557859844,17.9724234094 C 11.1231928965,17.9931643503 11.09652525,18.0316841437 11.09652525,18.0613151431 C 11.09652525,18.1383534656 10.7528129906,18.3516921094 10.6283648163,18.3516921094 C 10.5394743469,18.3516921094 10.2668749688,18.4998445774 10.2668749688,18.5502152535 C 10.2668749688,18.5739195472 10.2402073222,18.6272548403 10.2076142344,18.6687367222 C 10.1750211465,18.7102198684 10.1483535,18.7605918087 10.1483535,18.7783693969 C 10.1483535,18.8346667785 10.2905792625,19.0154123344 10.3676175851,19.0539321278 C 10.4209528781,19.0835618628 10.8772599007,19.0924519212 12.2965554372,19.0924519212 L 14.1573424965,19.0954140097 L 14.2669739069,19.0183756872 C 14.394385434,18.9294839535 14.4684604038,18.8346667785 14.5780930785,18.6183660462 C 14.7469864875,18.2835425809 14.8062472219,18.0642772316 14.8210627215,17.6820451788 C 14.8595812507,16.8523948976 14.6077240778,16.3397904934 13.6802932687,15.3293946563 C 13.5439929476,15.1812434524 13.0758337781,14.5412262569 12.9632377507,14.3515931712 C 12.8002710472,14.0730670875 12.7439736656,13.8389875028 12.7469370184,13.4478666559 C 12.7498991069,13.0656346031 12.8150865469,12.772294284 12.9780532503,12.4522863184 C 13.0758337781,12.2537619101 13.3602853031,11.8211591812 13.4965843601,11.6611545663 L 13.5558450944,11.5900429493 L 13.6417734753,11.6522657722 C 13.6891820628,11.6878222128 13.7365906503,11.7144898594 13.7484427972,11.7144898594 C 13.7751104438,11.7144898594 13.9410405,11.8833832684 13.9410405,11.9130130035 C 13.9410405,11.9248651503 14.1899355844,12.1796869403 14.4980914031,12.4759906122 C 14.8032838691,12.772294284 15.5114493288,13.4686075969 16.0685002319,14.0226951472 C 16.6285144878,14.5797460503 17.0996370101,15.0330909844 17.1144525097,15.0330909844 C 17.1292680094,15.0330909844 17.1411201563,15.047906484 17.1411201563,15.0656840722 C 17.1411201563,15.0953150715 17.280382566,15.237540834 17.54409315,15.4834725656 C 17.5915017375,15.5279178003 17.6715034128,15.6079207399 17.7218753531,15.6612547688 C 17.7722472934,15.7145900618 18.0892919063,16.0286713219 18.4270774601,16.3605314344 C 18.7619009253,16.6923915469 19.0374636563,16.9709176306 19.0374636563,16.9768430719 C 19.0374636563,16.9886952187 19.2152458594,17.1842562743 19.4463620913,17.4242613003 C 19.4819185319,17.4627810937 19.5115495313,17.513153034 19.5115495313,17.5368573278 C 19.5115495313,17.5605616215 19.5382171778,17.5961180622 19.5708102656,17.6168590031 C 19.6034033535,17.6375999441 19.630071,17.6850085316 19.630071,17.7205649722 C 19.630071,17.7561214128 19.6567386465,17.8005679118 19.6893317344,17.8183455 C 19.7278515278,17.839086441 19.7485924688,17.8805695872 19.7485924688,17.9368669687 C 19.7485924688,17.9931643503 19.7693334097,18.0346474965 19.8078532031,18.0553884375 C 19.8522984378,18.0790927313 19.8671139375,18.1176125247 19.8671139375,18.2005775528 C 19.8671139375,18.271690434 19.8908182313,18.3398399625 19.9263746719,18.3813231087 C 19.9767466122,18.4405838431 19.9856354063,18.4909545191 19.9856354063,18.76651725 C 19.9856354063,19.0568954806 19.9915608476,19.0894885684 20.0597116403,19.1813423906 C 20.1486021097,19.2998638594 20.2256416965,19.3472724469 20.3737929003,19.3739400934 C 20.5337975153,19.4006077399 20.6612077781,19.3324569472 20.9308438035,19.0776364215 C 21.3130758563,18.7131832212 21.5975273812,18.2153930524 21.7545686434,17.6435266497 C 21.8256815247,17.3887048597 21.8345703187,17.3057398316 21.8345703187,16.8553582503 C 21.8345703187,16.4020145806 21.8256815247,16.322011641 21.7545686434,16.0553389684 C 21.6330838219,15.5871785347 21.4553016188,15.2079098347 21.2389996222,14.9442005149 C 21.1649233882,14.8553087813 20.693800866,14.3664074066 20.1930473444,13.856765091 C 19.5263650309,13.1841560719 19.2567277413,12.8908157528 19.1945049184,12.7752576368 C 19.1174653316,12.6271051688 19.1115398903,12.5945120809 19.1026498319,12.1530192938 C 19.0907976851,11.6255993899 19.1115398903,11.5248555094 19.3485828278,11.0181765465 C 19.4967340316,10.6981685809 19.9115591722,10.0700047965 20.0597116403,9.9396311809 C 20.1930473444,9.82407306493 20.2641602257,9.82407306493 20.4389803403,9.9396311809 L 20.57824275,10.0314850031 L 20.57824275,10.2863067931 C 20.5812061028,10.5233497306 20.5871315441,10.5529794656 20.6612077781,10.6359444938 C 20.7619503944,10.7544659625 20.9545480972,10.8137266969 21.0938105069,10.7663181094 C 21.3990042372,10.6655754931 21.8375336715,9.90703809305 21.9590172288,9.27294760313 C 22.0330934628,8.8966422559 22.0034637278,8.336628 21.8967944059,7.9958790934 C 21.7397531438,7.49808892465 21.4641904128,7.1425245184 21.0226976257,6.87288849305 C 20.6493556312,6.64177099688 20.3530519594,6.48472973472 20.1189723747,6.3928759125 C 19.3871013569,6.10249894618 19.06116795,5.74693453993 19.0078326569,5.17506813715 C 18.9900550687,4.95876614063 18.9752395691,4.91135755313 18.9070900406,4.84617137743 C 18.8389405122,4.77505849618 18.8063461601,4.76616843785 18.6641203976,4.7720951434 C 18.5278213406,4.77802058472 18.4744860476,4.79876278993 18.376706784,4.8758011125 C 18.2048500222,5.0091380809 18.0892919063,5.12469619687 18.0892919063,5.16321599028 C 18.0892919063,5.18099357847 18.0626242597,5.21062457778 18.0300311719,5.23136551875 C 17.9707704375,5.29062625313 17.9707704375,5.31433054688 18.0033635253,5.2935896059 C 17.944102791,5.37655463403 17.944102791,5.35285034028 17.944102791,5.38248007535 C 17.944102791,5.40914772188 17.9174351444,5.45063086805 17.8848420566,5.47137180903 C 17.8522489688,5.49211275 17.8255813222,5.53359589618 17.8255813222,5.56618898403 C 17.8255813222,5.5958187191 17.7989136757,5.63730186528 17.7663205878,5.65507945347 C 17.7307641472,5.67582165868 17.7070598535,5.71730354063 17.7070598535,5.7676754809 C 17.7070598535,5.8150840684 17.6833555597,5.8624926559 17.6477991191,5.88619694965 C 17.6063172372,5.9099012434 17.5885383847,5.95434647813 17.5885383847,6.0224960066 C 17.5885383847,6.08175674097 17.564834091,6.14101747535 17.5292776503,6.17361182743 C 17.4818690628,6.21509370938 17.470016916,6.26546564965 17.470016916,6.40769141215 C 17.470016916,6.51436073403 17.4463126222,6.6595498493 17.4107561816,6.76029246563 C 17.3781630938,6.85214628785 17.3514954472,6.98251990347 17.3514954472,7.0477073434 C 17.3514954472,7.11585687188 17.3781630938,7.21956284097 17.4107561816,7.2847502809 C 17.4463126222,7.35289980938 17.470016916,7.45956913125 17.470016916,7.54549751215 C 17.470016916,7.65216683403 17.4848324156,7.70550086285 17.5292776503,7.74402065625 C 17.5618707382,7.77365165555 17.5885383847,7.82106024305 17.5885383847,7.84772662535 C 17.5885383847,7.87439427188 17.6152060313,7.92180285938 17.6477991191,7.95143385868 C 17.6803922069,7.98106359375 17.7070598535,8.01662003438 17.7070598535,8.03143553403 C 17.7070598535,8.0995850625 18.0566988184,8.48478046805 18.2522586097,8.63293167188 C 18.3144826969,8.68330361215 18.5959708691,8.83441816875 18.8744969528,8.97368057847 L 19.3811759156,9.22553901563 L 19.3722871215,9.32628289618 C 19.3633970632,9.40332121875 19.3219151813,9.4655453059 19.1856148601,9.59591892153 C 19.0907976851,9.69073609653 19.0107960097,9.78555327153 19.0107960097,9.81222091805 C 19.0107960097,9.83888730035 18.9841283632,9.87444374097 18.9515352753,9.8922225934 C 18.9189421875,9.9100001816 18.892274541,9.95444668055 18.892274541,9.99000312118 C 18.892274541,10.0255595618 18.8656068944,10.0729681493 18.8330138066,10.0937090903 C 18.8004207188,10.1144500313 18.7737530722,10.1618586188 18.7737530722,10.2033417649 C 18.7737530722,10.2448236469 18.7500487785,10.2892688816 18.7144923378,10.307047734 C 18.6730104559,10.327788675 18.6552316035,10.3692718212 18.6552316035,10.4344579969 C 18.6552316035,10.496682084 18.6344906625,10.5411273188 18.5959708691,10.5677949653 C 18.5574510757,10.591499259 18.5367101347,10.6359444938 18.5367101347,10.6922418753 C 18.5367101347,10.7485405212 18.5159691937,10.7900224031 18.4774494003,10.8107633441 C 18.4389296069,10.8315055493 18.418188666,10.8729874313 18.418188666,10.9263227243 C 18.418188666,10.970767959 18.3915210194,11.0329920462 18.3589279316,11.0626217813 C 18.3115193441,11.1041049274 18.2996671972,11.1544756035 18.2996671972,11.2878125719 C 18.2996671972,11.444853834 18.2907784031,11.4626314222 18.207813375,11.5218921566 C 18.1218849941,11.5870795965 18.1159595528,11.5870795965 18.0537354656,11.5337443035 C 17.8581744101,11.3678142472 13.2595414226,6.7632558184 13.1173156601,6.58843696805 C 12.898051575,6.31879967847 12.8713839285,6.27139109097 12.7261948132,5.9484210368 C 12.6106366972,5.67878374722 12.5454505215,5.4269265743 12.4921152285,5.018026875 C 12.4684109347,4.83135587778 12.4565587878,4.80172487847 12.3558161715,4.71283440903 C 12.2639610851,4.63579482222 12.2224792031,4.61801723403 12.1098831757,4.6209805868 C 12.0358082059,4.6209805868 11.9409910309,4.638758175 11.8995078847,4.65653702743 Z M 2.88298746563,10.1825995597 C 2.83557887813,10.2211193531 2.8000224375,10.2655645878 2.8000224375,10.2863067931 C 2.8000224375,10.3040843813 2.77335479097,10.3337153806 2.74076170313,10.3514929688 C 2.70816861528,10.3692705569 2.68150096875,10.4077903503 2.68150096875,10.4403847024 C 2.68150096875,10.4729777903 2.65483332222,10.5114963194 2.62224023438,10.5292751719 C 2.58964714653,10.5470540243 2.5629795,10.5855725535 2.5629795,10.6181669056 C 2.5629795,10.6507599934 2.53631185347,10.6892785226 2.50371876563,10.707057375 C 2.46519897222,10.727798316 2.44445803125,10.7692814622 2.44445803125,10.822615491 C 2.44445803125,10.8670607257 2.41779038472,10.9292848128 2.38519729688,10.9589158122 C 2.3437141507,10.9974356056 2.3259365625,11.0507696344 2.3259365625,11.1426234566 C 2.3259365625,11.2137363378 2.29926891597,11.3174423069 2.26667582813,11.3796663941 C 2.22519268195,11.4596680694 2.20741509375,11.5485598031 2.20741509375,11.6848601243 C 2.20741509375,11.8211591812 2.22519268195,11.9100509149 2.26667582813,11.9900525903 C 2.29926891597,12.0493133247 2.3259365625,12.1530192938 2.3259365625,12.2182067337 C 2.3259365625,12.3041338503 2.34075206215,12.3426536437 2.38519729688,12.3663579375 C 2.41779038472,12.3841367899 2.44445803125,12.4285820247 2.44445803125,12.4671005538 C 2.44445803125,12.5056203472 2.47112567778,12.5589556403 2.50371876563,12.5885853753 C 2.53631185347,12.6182163747 2.5629795,12.6567349038 2.5629795,12.6715504035 C 2.5629795,12.6893292559 2.72298411493,12.8611847535 2.91854390625,13.0537824562 C 3.11410369757,13.2493422476 3.2741083125,13.4182356566 3.2741083125,13.4271244507 C 3.2741083125,13.4389765976 3.35410998785,13.5189795372 3.45189051563,13.6078700066 C 3.68597010035,13.8182465618 3.68597010035,13.8656551493 3.45189051563,14.0286218528 C 3.35410998785,14.0967713813 3.2741083125,14.1649209097 3.2741083125,14.1767730566 C 3.2741083125,14.1915885563 3.25929281285,14.2034407031 3.24447857743,14.2034407031 C 3.20299543125,14.2034407031 2.91854390625,14.4878922281 2.91854390625,14.5264120215 C 2.91854390625,14.5441896097 2.89187625972,14.5708572563 2.85928317188,14.5886361087 C 2.82669008403,14.6064136969 2.8000224375,14.6419701375 2.8000224375,14.6715998726 C 2.8000224375,14.6982675191 2.77335479097,14.7397506653 2.74076170313,14.7604916063 C 2.70816861528,14.7812325472 2.68150096875,14.8286411347 2.68150096875,14.8701242809 C 2.68150096875,14.9116061628 2.657796675,14.9560513976 2.62224023438,14.97383025 C 2.58372044097,14.994571191 2.5629795,15.0360543372 2.5629795,15.089388366 C 2.5629795,15.1338336007 2.53631185347,15.1960576878 2.50371876563,15.2256886872 C 2.468162325,15.258281775 2.44445803125,15.3175425094 2.44445803125,15.373839891 C 2.44445803125,15.427175184 2.4207537375,15.4893980069 2.38816064965,15.5190290063 C 2.26074912257,15.6345871222 2.26371247535,16.8079496628 2.39408609097,16.9501754253 C 2.42371709028,16.985731866 2.44445803125,17.0568447472 2.44445803125,17.1279576285 C 2.44445803125,17.2049972153 2.46519897222,17.270183391 2.50371876563,17.3146286257 C 2.53927520625,17.3561117719 2.5629795,17.4242613003 2.5629795,17.4924108288 C 2.5629795,17.5635237101 2.58372044097,17.6198223559 2.62224023438,17.6553787965 C 2.6666854691,17.6968606785 2.68150096875,17.7472326188 2.68150096875,17.8627907347 C 2.68150096875,17.9783488507 2.6666854691,18.028720791 2.62224023438,18.0702039372 C 2.58964714653,18.0998336722 2.5629795,18.1442789069 2.5629795,18.1709465535 C 2.5629795,18.2213184938 2.44445803125,18.3013201691 2.26371247535,18.3813218444 C 2.12148671285,18.4405825788 2.00000189132,18.5413264594 2.00000189132,18.597623841 C 2.00000189132,18.6242914875 2.03555833195,18.671700075 2.0800048309,18.7072565156 C 2.15704315347,18.76651725 2.17778409445,18.7694806028 3.2741083125,18.7605905444 L 4.39117347153,18.7517017503 L 4.49487944063,18.671700075 C 4.57784446875,18.5916983997 4.6193263507,18.5383631066 4.6963659375,18.3220611101 C 4.78525640695,18.0731660257 4.7911831125,18.0316841437 4.77636761285,17.7946412062 C 4.7526633191,17.3887048597 4.6400685559,17.1664774219 4.13338832882,16.5294248434 C 3.79856612778,16.11163635 3.71263774688,15.9842260872 3.63263607153,15.8034805313 C 3.46077930972,15.4034708903 3.56152319028,14.7753071059 3.8607889507,14.4167793469 C 3.92004968507,14.3427031128 3.97931041945,14.2686268788 3.99116256632,14.2508492906 C 4.0030147132,14.2330704382 4.02671900695,14.236033791 4.05635000625,14.2597380847 C 4.08301765278,14.2834423785 4.14820382847,14.3219621719 4.20153912153,14.3515919069 C 4.25190979757,14.3782595535 4.3082084434,14.4315948465 4.3259860316,14.4671512872 C 4.34080153125,14.499744375 4.37932132465,14.5382641684 4.40598770695,14.5471529625 C 4.43561870625,14.5560417566 4.459323,14.5767826976 4.459323,14.59456155 C 4.459323,14.6123391382 5.00155840347,15.1664279528 5.6623152757,15.8301481778 C 7.1230926941,17.2909243319 7.5408811875,17.7205649722 7.5408811875,17.7531580601 C 7.5408811875,17.7679735597 7.56754883403,17.8035300003 7.60014192188,17.8331609997 C 7.63273500972,17.8627907347 7.65940265625,17.9220514691 7.65940265625,17.9664979681 C 7.65940265625,18.0109432028 7.68310695,18.0702039372 7.71570003785,18.0968703194 C 7.75125647847,18.1294646715 7.77496077222,18.2035409056 7.78384956632,18.2983568163 C 7.7957017132,18.3961373441 7.8164439184,18.4583614313 7.84903700625,18.4761390194 C 7.88459344687,18.4968812247 7.89644559375,18.5472519007 7.89644559375,18.6776255163 C 7.89644559375,18.8317034257 7.90533438785,18.861334425 7.97052182778,18.9028163069 C 8.12163638437,19.0005968347 8.3379383809,18.8731865719 8.6016477007,18.5294743125 C 8.8120242559,18.2568749344 8.99276854757,17.7472326188 8.99276854757,17.418335859 C 8.99276854757,17.2227748035 8.92165566632,16.8583216031 8.84758069653,16.6686872531 C 8.73202131632,16.375346934 8.67572393472,16.3101594941 7.80459177153,15.4034708903 C 7.33346798507,14.9116061628 7.33939469062,14.9234583097 7.31865374965,14.689378725 C 7.2949494559,14.4464090819 7.33050589653,14.2301083497 7.45198945382,13.9189891781 C 7.55273333438,13.6552785941 7.8431103007,13.2434168063 7.9586696809,13.1960082188 C 8.03570800347,13.1634151309 8.0534868559,13.1693405722 8.14534067813,13.2434168063 C 8.24015785312,13.3234184816 8.24904664722,13.3441594226 8.24904664722,13.5012006847 C 8.25201,13.6552785941 8.25793544132,13.6730574465 8.32904832257,13.6997250931 C 8.46831199653,13.7530591219 8.53942487778,13.7352815337 8.63424205278,13.6197221535 C 8.85350613785,13.3530494809 9.05203054618,12.8345171069 9.05203054618,12.529324641 C 9.05203054618,11.8744932101 8.73202131632,11.4211495403 8.08904329653,11.1663277503 C 7.9764472691,11.1218825156 7.8342215066,11.0626217813 7.777924125,11.0329920462 C 7.49643595278,10.8878029309 7.27420851493,10.5796471122 7.27420851493,10.3366774691 C 7.27420851493,10.1914896181 7.20605772222,10.1144500313 7.08457416493,10.1144500313 C 6.99271907847,10.1144500313 6.829752375,10.2151926476 6.829752375,10.2714912934 C 6.829752375,10.2922322344 6.77641708195,10.3544563215 6.71123090625,10.4107537031 C 6.64604473055,10.4670510847 6.5927094375,10.5322385247 6.5927094375,10.5500161128 C 6.5927094375,10.5707570538 6.56604179097,10.6033514059 6.53344870312,10.6240923469 C 6.49492890972,10.6507599934 6.47418796875,10.6952052281 6.47418796875,10.7574293153 C 6.47418796875,10.822615491 6.45640911632,10.8640986372 6.41492723437,10.8848395781 C 6.37048199965,10.9085438719 6.3556665,10.9470636653 6.3556665,11.0359541347 C 6.3556665,11.1129937215 6.33492555903,11.1841066028 6.29640576562,11.2315151903 C 6.21047738472,11.3411478649 6.21047738472,11.7441208587 6.29640576562,11.8537522691 C 6.32899885347,11.8952354153 6.3556665,11.960421591 6.3556665,11.9989413844 C 6.3556665,12.0374611778 6.38233414653,12.0848697653 6.41492723437,12.1056107062 C 6.44752032222,12.1263516472 6.47418796875,12.1678347934 6.47418796875,12.1945024399 C 6.47418796875,12.224132175 6.50085561528,12.2626519684 6.53344870312,12.2833929094 C 6.56604179097,12.3041338503 6.5927094375,12.3367282024 6.5927094375,12.3574691434 C 6.5927094375,12.4019143781 6.93642169687,12.6300685215 7.18235342847,12.7485899903 C 7.28902275035,12.7989619306 7.38383992535,12.8582226649 7.398655425,12.8789636059 C 7.44013730695,12.9441497816 7.42235971875,13.0448936622 7.36309898438,13.07748675 C 7.33050589653,13.0952656024 7.30383825,13.1248953375 7.30383825,13.1456362785 C 7.30383825,13.1663784837 7.27717060347,13.1989715715 7.24457751563,13.2197125125 C 7.21198442778,13.2404534535 7.18531678125,13.2760098941 7.18531678125,13.2997141878 C 7.18531678125,13.3234184816 7.15864913472,13.3560128337 7.12605604688,13.3737904219 C 7.09049960625,13.3915692743 7.0667953125,13.436014509 7.0667953125,13.477496391 C 7.0667953125,13.5189795372 7.04309101875,13.5634247719 7.00753457813,13.5812036243 C 6.96605269618,13.6019445653 6.94827384375,13.6434264472 6.94827384375,13.7086138872 C 6.94827384375,13.761947916 6.92160619722,13.8419508556 6.88901310937,13.8923215316 C 6.85642002153,13.9397301191 6.829752375,14.0108430003 6.829752375,14.046399441 C 6.829752375,14.0819558816 6.79419593437,14.1471433215 6.7527127882,14.1886252035 L 6.67271111285,14.2686281431 L 5.17637725382,12.7604421372 C 4.3556170309,11.9337552087 3.63856151285,11.1870699556 3.58818957257,11.107067016 C 3.43411292743,10.8670619899 3.35707334063,10.6507599934 3.3392944882,10.4255692028 C 3.3215169,10.1351909722 3.3037393118,10.1144500313 3.11706705035,10.1144500313 C 3.00150893438,10.117413384 2.9422482,10.1322288837 2.88298746563,10.1825995597 Z"/></svg>
