<svg xmlns="http://www.w3.org/2000/svg" width="24" height="24" viewBox="0 0 24 24"><path d="M12.952606 2.027292C13.06536 1.987675 13.117166 1.990723 13.251252 2.039482C13.3701 2.085192 13.400575 2.161378 13.437144 2.530114C13.50114 3.148738 13.699222 3.459574 14.174617 3.688129C14.320892 3.758219 14.467168 3.825263 14.50069 3.837452C14.692676 3.907542 14.884662 3.971538 15.015701 4.011154C15.225971 4.07515 15.652609 4.300658 15.847643 4.453028C16.36875 4.855286 16.673489 5.382487 16.786243 6.080344C16.844145 6.442985 16.844145 6.720299 16.783195 7.122557C16.722248 7.543099 16.621685 7.856982 16.405319 8.301903C16.191999 8.743777 16.137148 8.816915 15.966493 8.880911C15.780601 8.951001 15.619087 8.908338 15.539855 8.762062C15.494143 8.673687 15.491096 8.640166 15.518522 8.554838C15.54595 8.472558 15.542902 8.4238 15.506333 8.320188C15.481954 8.24705 15.460622 8.155627 15.460622 8.112965C15.460622 8.073348 15.439291 8.033731 15.414911 8.02459C15.390532 8.015448 15.341774 7.957545 15.305204 7.899645L15.238161 7.792986L15.116265 7.984972C14.50069 8.951001 14.262991 9.511724 14.183759 10.191295C14.055767 11.26703 14.284323 12.098972 14.936468 12.909582C15.006558 12.994909 15.030937 13.052812 15.012653 13.080237C14.963895 13.162518 12.60825 15.539495 12.574728 15.539495C12.553395 15.539495 12.510733 15.502927 12.474163 15.457214C12.358361 15.307893 11.950009 14.866018 11.630032 14.546041C11.456328 14.372337 11.316149 14.226062 11.316149 14.21692C11.316149 14.210826 11.179015 14.06455 11.011408 13.893896C10.843801 13.720193 10.706667 13.573917 10.706667 13.567822C10.706667 13.561728 10.514681 13.363647 10.28003 13.132043C10.04538 12.90044 9.853394 12.702358 9.853394 12.693216C9.853394 12.684074 9.71626 12.537799 9.548653 12.367145C9.381045 12.196489 9.243912 12.050214 9.243912 12.044119C9.243912 12.034977 9.134205 11.922222 9.000119 11.791184C8.866034 11.660146 8.756327 11.547392 8.756327 11.53825C8.756327 11.532154 8.64662 11.413305 8.512534 11.276172C8.378448 11.142086 8.268742 11.017143 8.268742 11.001906C8.268742 10.986669 8.219983 10.944004 8.162083 10.907436C8.104181 10.870868 8.034091 10.812966 8.009711 10.776398C7.992344 10.752084 7.981575 10.737007 7.968213 10.734178C7.946405 10.729558 7.917689 10.757556 7.842104 10.831251C7.543458 11.123802 7.244813 11.654051 7.101585 12.150779C7.01321 12.455518 7.010162 12.507324 7.010162 12.979673C7.010162 13.439832 7.016258 13.503826 7.089396 13.738477C7.244813 14.226062 7.430705 14.515565 8.448538 15.828999C9.009261 16.551235 9.201249 16.904732 9.335335 17.459362C9.414567 17.794577 9.432852 18.050558 9.399329 18.358345C9.314002 19.098866 9.064116 19.626068 8.713664 19.815006C8.588719 19.88205 8.588719 19.88205 6.470772 19.88205H4.47472L4.361965 19.81196L4.246164 19.738821V19.519409C4.246164 19.312185 4.252258 19.293901 4.331492 19.236C4.38025 19.19943 4.489957 19.150671 4.575284 19.123245C4.940973 19.016586 5.343231 18.763651 5.343231 18.641756C5.343231 18.617376 5.370658 18.571665 5.404179 18.541191C5.459032 18.492432 5.465127 18.446722 5.465127 18.154171C5.465127 17.88295 5.452938 17.800671 5.404179 17.703154C5.370658 17.636112 5.343231 17.523357 5.343231 17.45022C5.343231 17.355749 5.324946 17.300896 5.282283 17.26128C5.236572 17.221664 5.221334 17.166811 5.221334 17.063198C5.221334 16.959587 5.206097 16.904734 5.160387 16.865118C5.12077 16.828548 5.099438 16.770647 5.099438 16.69751C5.099438 16.624372 5.078107 16.566471 5.03849 16.529902C4.989732 16.487238 4.977542 16.435432 4.977542 16.301346C4.977542 16.167261 4.965353 16.115454 4.916594 16.072792C4.870883 16.030127 4.855646 15.978322 4.855646 15.859472C4.855646 15.743671 4.837361 15.676628 4.79165 15.618728C4.730702 15.542542 4.730702 15.502927 4.727654 14.600894C4.724607 13.683624 4.724607 13.656198 4.788602 13.552586C4.834314 13.479448 4.855646 13.397167 4.855646 13.293556C4.855646 13.183849 4.87393 13.119854 4.916594 13.071095C4.950115 13.031479 4.977542 12.958341 4.977542 12.903488C4.977542 12.845588 5.001921 12.784639 5.03849 12.751117C5.075059 12.717596 5.099438 12.656648 5.099438 12.595699C5.099438 12.52561 5.117722 12.482945 5.160387 12.461614C5.196955 12.44333 5.221334 12.397618 5.221334 12.354955C5.221334 12.31229 5.248762 12.263532 5.282283 12.242201C5.315804 12.220869 5.343231 12.172111 5.343231 12.135542C5.343231 12.098972 5.370658 12.053262 5.404179 12.034977C5.4377 12.016693 5.465127 11.977077 5.465127 11.943555C5.465127 11.910032 5.492554 11.870418 5.526075 11.852132C5.559597 11.833849 5.587023 11.791184 5.587023 11.760711C5.587023 11.727188 5.61445 11.684525 5.647972 11.663194C5.681493 11.641861 5.70892 11.599197 5.70892 11.571771C5.70892 11.541297 5.736347 11.504728 5.769868 11.486444C5.803389 11.46816 5.830816 11.434637 5.830816 11.410258C5.830816 11.385879 5.858243 11.352358 5.891764 11.334074C5.925285 11.315788 5.952712 11.285316 5.952712 11.263983C5.952712 11.242651 6.007565 11.178655 6.074608 11.120754C6.141651 11.062854 6.196505 10.998858 6.196505 10.977527C6.196505 10.959242 6.223932 10.931816 6.257453 10.922673C6.290974 10.913531 6.318401 10.889152 6.318401 10.873915C6.318401 10.858678 6.43725 10.730686 6.580477 10.593553C7.180817 10.017594 7.293571 9.90484 7.293571 9.871319C7.293571 9.849985 7.211292 9.755516 7.110727 9.657999C7.010162 9.560482 6.927883 9.469061 6.927883 9.456871C6.927883 9.441633 6.900455 9.411159 6.866934 9.389828C6.833413 9.368496 6.805986 9.331927 6.805986 9.310596C6.805986 9.286216 6.778559 9.255741 6.745038 9.246599C6.711517 9.237457 6.68409 9.206983 6.68409 9.182604C6.68409 9.158224 6.662758 9.130797 6.635332 9.118608C6.586573 9.100324 6.440298 8.966238 6.440298 8.941859C6.440298 8.932717 6.358018 8.844342 6.257453 8.746825C6.156888 8.64626 6.074608 8.551791 6.074608 8.533505C6.074608 8.515222 6.053277 8.499985 6.028898 8.499985C6.001471 8.499985 5.974044 8.478653 5.961854 8.451226C5.952712 8.4238 5.864337 8.320188 5.76682 8.222671C5.666256 8.122107 5.587023 8.027637 5.587023 8.0124C5.587023 7.997162 5.559597 7.969737 5.526075 7.951451C5.492554 7.933166 5.465127 7.893551 5.465127 7.86003C5.465127 7.826507 5.4377 7.786892 5.404179 7.768607C5.370658 7.750322 5.343231 7.716801 5.343231 7.692421C5.343231 7.668042 5.315804 7.634521 5.282283 7.616237C5.248762 7.597952 5.221334 7.558335 5.221334 7.524814C5.221334 7.491293 5.193908 7.451676 5.160387 7.433393C5.126865 7.415108 5.099438 7.369397 5.099438 7.332828C5.099438 7.296259 5.072011 7.241405 5.03849 7.210932C5.004969 7.183505 4.977542 7.128652 4.977542 7.089036C4.977542 7.052466 4.950115 6.997612 4.916594 6.967139C4.876977 6.936665 4.855646 6.878764 4.855646 6.814768C4.855646 6.750773 4.831266 6.689826 4.794698 6.656303C4.745939 6.61364 4.733749 6.561834 4.733749 6.418606C4.733749 6.287566 4.715466 6.208334 4.672801 6.135197C4.614901 6.043774 4.608806 5.985873 4.608806 5.361156C4.608806 4.736437 4.614901 4.678537 4.672801 4.587114C4.70937 4.523118 4.733749 4.431696 4.733749 4.349417C4.733749 4.2519 4.752033 4.197046 4.794698 4.157429C4.834314 4.12086 4.855646 4.06296 4.855646 3.986774C4.855646 3.901447 4.870883 3.861832 4.916594 3.837452C4.953163 3.819167 4.977542 3.773457 4.977542 3.730792C4.977542 3.688129 5.001921 3.642418 5.03849 3.624133C5.072011 3.60585 5.099438 3.560138 5.099438 3.523569C5.099438 3.487 5.126865 3.438241 5.160387 3.41691C5.193908 3.395578 5.221334 3.352914 5.221334 3.319393C5.221334 3.288919 5.248762 3.246255 5.282283 3.227971C5.315804 3.209686 5.343231 3.173117 5.343231 3.142644C5.343231 3.115217 5.370658 3.072552 5.404179 3.051221C5.4377 3.029889 5.465127 2.999414 5.465127 2.981131C5.465127 2.962846 5.547407 2.868376 5.647972 2.770859C5.748536 2.673342 5.830816 2.578873 5.830816 2.560588C5.830816 2.542304 5.843006 2.527067 5.86129 2.527067C5.876527 2.527067 5.916143 2.49964 5.946618 2.466119C6.031946 2.374697 6.315353 2.368602 6.428108 2.453929C6.528673 2.527067 6.586573 2.67639 6.589621 2.862282C6.592669 3.045127 6.668853 3.444337 6.741991 3.67594C6.888266 4.123908 7.293571 4.7791 7.68364 5.1905C7.765919 5.275827 7.903053 5.428198 7.994476 5.528763C8.17732 5.735987 8.390638 5.961494 9.167727 6.775152C9.469419 7.092082 9.749781 7.384633 9.789397 7.430345C9.829014 7.473008 10.048428 7.707659 10.276982 7.948403C10.505538 8.189148 10.724951 8.420752 10.764567 8.466463C10.910843 8.624928 11.675743 9.435538 12.001816 9.779896C12.187708 9.971882 12.437594 10.233959 12.559491 10.36195C12.681387 10.486894 12.778904 10.605742 12.778904 10.624027C12.778904 10.651455 13.02879 10.846489 13.06536 10.846489C13.074503 10.846489 13.117166 10.788587 13.162878 10.721544C13.24211 10.593553 13.248204 10.523463 13.190304 10.246149C13.175068 10.179106 13.18421 10.1273 13.217731 10.078542C13.245157 10.041972 13.266489 9.956646 13.266489 9.89265C13.144593 9.819512 13.168972 9.743326 13.205541 9.697616C13.248204 9.642762 13.266489 9.572672 13.266489 9.475155C13.266489 9.371544 13.281727 9.316689 13.327437 9.277073C13.364006 9.243552 13.388386 9.182604 13.388386 9.121655C13.388386 9.051565 13.406671 9.008902 13.449333 8.98757C13.48895 8.966238 13.510282 8.923573 13.510282 8.868721C13.510282 8.82301 13.537708 8.759014 13.57123 8.728539C13.604751 8.698067 13.632178 8.643212 13.632178 8.603596C13.632178 8.56398 13.659605 8.51827 13.693126 8.499985C13.732742 8.478653 13.754074 8.435988 13.754074 8.378088C13.754074 8.320188 13.775406 8.277524 13.815022 8.256192C13.854639 8.23486 13.875971 8.192196 13.875971 8.134295C13.875971 8.076395 13.897302 8.033731 13.936918 8.0124C13.976535 7.991068 13.997867 7.948403 13.997867 7.890503C13.997867 7.832603 14.019198 7.789938 14.058815 7.768607C14.092336 7.750322 14.119763 7.716801 14.119763 7.692421C14.119763 7.664994 14.135 7.622331 14.153284 7.591856C14.174617 7.555289 14.174617 7.515672 14.153284 7.460818C14.131952 7.396824 14.083194 7.366349 13.930824 7.317591C13.519423 7.183505 12.989176 6.976281 12.785 6.869622C12.577776 6.762963 12.169422 6.409462 12.169422 6.342421C12.169422 6.324137 12.141995 6.293662 12.108475 6.275378C12.071905 6.257093 12.047526 6.211382 12.047526 6.168718C12.047526 6.126055 12.023147 6.080344 11.986578 6.062059C11.943915 6.03768 11.92563 5.998063 11.92563 5.924925C11.92563 5.851788 11.907346 5.812172 11.864682 5.787793C11.818971 5.763414 11.803734 5.723797 11.803734 5.623232C11.803734 5.550095 11.776307 5.431246 11.742785 5.358108C11.690979 5.245354 11.681837 5.156979 11.681837 4.776054C11.681837 4.398174 11.690979 4.303705 11.742785 4.172667C11.779354 4.081245 11.803734 3.947158 11.803734 3.840499C11.803734 3.703365 11.815924 3.65156 11.864682 3.608896C11.904299 3.572327 11.92563 3.514427 11.92563 3.441289C11.92563 3.368151 11.946961 3.310251 11.986578 3.273682C12.0201 3.243207 12.047526 3.179213 12.047526 3.1335C12.047526 3.078648 12.068858 3.035983 12.108475 3.014652C12.141995 2.996368 12.169422 2.956752 12.169422 2.92323C12.169422 2.889708 12.19685 2.850091 12.230371 2.831807C12.263892 2.813524 12.291319 2.773907 12.291319 2.740386C12.291319 2.706863 12.318746 2.667247 12.352267 2.648963C12.385788 2.630679 12.413215 2.597157 12.413215 2.572778C12.413215 2.548398 12.440642 2.511829 12.474163 2.490498C12.507685 2.469166 12.535111 2.435645 12.535111 2.414312C12.535111 2.392981 12.562538 2.362507 12.59606 2.344222C12.62958 2.325937 12.657008 2.286322 12.657008 2.258895C12.657008 2.191853 12.797189 2.085192 12.952606 2.027292ZM16.435793 12.857778C16.493692 12.821207 16.597305 12.818161 16.685678 12.85473C16.725296 12.869966 16.789291 12.891298 16.831955 12.90044C16.9569 12.92482 19.547195 15.554731 19.662996 15.771098C19.763561 15.956989 19.781845 16.212971 19.711754 16.423243C19.666044 16.563423 19.571575 16.67313 18.95295 17.316133C18.078344 18.230356 16.999563 19.330469 15.820215 20.522005L14.915136 21.436228L15.073602 21.478891C15.241209 21.527649 16.060961 21.536791 16.475409 21.497175C16.612541 21.481939 16.713106 21.488033 16.771008 21.512413C16.859383 21.548983 16.862429 21.555077 16.862429 21.77449V21.999998H14.692676C12.635676 21.999998 12.51378 21.99695 12.39493 21.942097C12.279129 21.890291 11.681837 21.332615 11.681837 21.277763C11.681837 21.265574 11.617842 21.19853 11.53861 21.131487C11.459376 21.064444 11.374049 20.988258 11.346623 20.960833C11.136352 20.735323 10.584771 20.180696 10.420212 20.028324C10.310505 19.921665 10.219082 19.821102 10.219082 19.796722C10.219082 19.775391 10.191655 19.735773 10.158134 19.705301C10.106328 19.65959 10.097186 19.616926 10.097186 19.370085C10.097186 19.123245 10.106328 19.077534 10.158134 19.028776C10.191655 18.998302 10.219082 18.955637 10.219082 18.934307C10.219082 18.888596 10.758473 18.343109 10.801137 18.343109C10.816374 18.343109 10.828564 18.330921 10.828564 18.315683C10.828564 18.300446 11.047976 18.065794 11.316149 17.797623C11.58432 17.526405 11.803734 17.291754 11.803734 17.276516C11.803734 17.258232 11.815924 17.246044 11.834208 17.246044C11.861634 17.246044 12.291319 16.831596 12.291319 16.801121C12.291319 16.770647 12.468068 16.606087 12.501591 16.606087C12.519874 16.606087 12.535111 16.587803 12.535111 16.563425C12.535111 16.539045 12.562538 16.50857 12.59606 16.499428C12.62958 16.490286 12.657008 16.46286 12.657008 16.444574C12.657008 16.423243 12.711861 16.359247 12.778904 16.301346C12.845946 16.243446 12.900801 16.176403 12.900801 16.158119C12.900801 16.136787 12.928227 16.103264 12.961748 16.081934C12.99527 16.060602 13.022696 16.027081 13.022696 16.005747C13.022696 15.984416 13.034886 15.966132 13.050123 15.966132C13.077549 15.966132 13.266489 15.79243 13.266489 15.76805C13.266489 15.749765 14.174616 14.838592 14.192901 14.838592C14.21728 14.838592 14.729244 14.314437 14.729244 14.290058C14.729244 14.27482 14.756672 14.253489 14.790193 14.244348C14.823714 14.235206 14.851141 14.204731 14.851141 14.180351C14.851141 14.155972 14.872473 14.128545 14.899899 14.116355C14.927326 14.107214 14.979132 14.070644 15.018748 14.034076C15.055317 13.997507 15.143692 13.921321 15.210734 13.86342C15.280826 13.80552 15.338726 13.738477 15.338726 13.717145C15.338726 13.698862 15.350916 13.680576 15.363105 13.680576C15.396626 13.680576 15.826311 13.269176 15.826311 13.235655C15.826311 13.199085 16.082293 12.979673 16.182858 12.927867C16.225521 12.906536 16.289516 12.88825 16.326086 12.88825C16.359608 12.88825 16.411413 12.873013 16.435793 12.857778ZM16.667395 13.424594C16.594257 13.375835 16.50893 13.345363 16.438841 13.345363C16.335228 13.345363 16.262091 13.415452 14.881614 14.811164C14.086242 15.618728 13.428002 16.292204 13.421906 16.307442C13.415812 16.325726 13.744932 16.676178 14.153284 17.090624C14.561638 17.502026 15.210734 18.160265 15.594708 18.547285C15.975635 18.937353 16.301706 19.257332 16.313896 19.257332C16.326086 19.257332 16.353514 19.236 16.374844 19.21162C16.396175 19.187241 16.438841 19.165909 16.472361 19.165909C16.502834 19.165909 16.536358 19.144577 16.5455 19.120199C16.554642 19.095819 16.588161 19.068392 16.621685 19.05925C16.652159 19.04706 16.679585 19.025728 16.679585 19.010492C16.679585 18.995255 17.036133 18.626518 17.47191 18.190739C17.90769 17.754959 18.264236 17.386223 18.264236 17.370987C18.264236 17.355749 18.291664 17.331371 18.325184 17.322227C18.358706 17.313086 18.386133 17.285658 18.386133 17.26128C18.386133 17.2369 18.413561 17.209475 18.447081 17.200331C18.480602 17.191189 18.50803 17.169857 18.50803 17.154621C18.50803 17.139383 18.672588 16.965681 18.873718 16.764553L19.239407 16.401911V16.185545C19.239407 15.999654 19.230265 15.963085 19.178459 15.935658C19.144938 15.917374 19.11751 15.889947 19.11751 15.874709C19.11751 15.859472 19.062656 15.789382 18.995615 15.72234C18.92857 15.655296 18.873718 15.585206 18.873718 15.569969C18.873718 15.551685 18.861528 15.539495 18.843243 15.539495C18.809723 15.539495 18.386133 15.125048 18.386133 15.091526C18.386133 15.076289 18.343468 15.033626 18.291664 14.990962C18.148434 14.87516 16.923378 13.659245 16.923378 13.62877C16.92033 13.604391 16.874619 13.564775 16.667395 13.424594Z"/></svg>
