<svg xmlns="http://www.w3.org/2000/svg" width="24" height="24" viewBox="0 0 24 24"><path d="M 7.34053974288,2.00611526424 C 7.32555851424,2.01510425712 7.27461875712,2.02709000712 7.22967251424,2.036079 C 7.1517645,2.05405826424 6.8161635,2.35070525712 6.8161635,2.40464049288 C 6.8161635,2.41662624288 6.78919524288,2.44659125712 6.75623475,2.467566 C 6.72327425712,2.48854074288 6.696306,2.52449799288 6.696306,2.54846949288 C 6.696306,2.57244099288 6.66933774288,2.60540276424 6.63637725,2.62338075 C 6.60341675712,2.64135873576 6.5764485,2.68031274288 6.5764485,2.71327451424 C 6.5764485,2.74623500712 6.54948024288,2.78518901424 6.51651975,2.803167 C 6.48355925712,2.82114498576 6.456591,2.86009899288 6.456591,2.89306076424 C 6.456591,2.92602125712 6.42962274288,2.96497526424 6.39666225,2.98295325 C 6.36370175712,3.00093123576 6.3367335,3.03988524288 6.3367335,3.06985025712 C 6.3367335,3.09981399288 6.30976524288,3.14775699288 6.27680475,3.17772200712 C 6.24384425712,3.20768574288 6.216876,3.27061125 6.216876,3.31555749288 C 6.216876,3.36949400712 6.19590125712,3.41144349288 6.15694725,3.43241951424 C 6.11200100712,3.45639101424 6.0970185,3.49534374288 6.0970185,3.57924399288 C 6.0970185,3.65415525 6.07604375712,3.70809048576 6.03708975,3.74404773576 C 5.98914675,3.7859985 5.977161,3.83693825712 5.977161,3.98675949288 C 5.977161,4.10661699288 5.95618625712,4.23246800712 5.91723225,4.32835400712 C 5.86928925,4.45120826424 5.8573035,4.55008974288 5.8573035,4.85572700712 C 5.8573035,5.17035326424 5.86629249288,5.24826 5.91723225,5.34714275712 C 5.95618625712,5.42205273576 5.977161,5.52393225 5.977161,5.62581048576 C 5.977161,5.74866474288 5.99214350712,5.7996045 6.03708975,5.84155398576 C 6.073047,5.87451575712 6.0970185,5.93444450712 6.0970185,5.9913765 C 6.0970185,6.04830849288 6.12099,6.10823724288 6.15694725,6.14119773576 C 6.18990774288,6.17116275 6.216876,6.23408825712 6.216876,6.2790345 C 6.216876,6.33297101424 6.19590125712,6.3749205 6.27680475,6.39589524288 C 6.30976524288,6.41387450712 6.3367335,6.45282723576 6.3367335,6.48578900712 C 6.3367335,6.5187495 6.36370175712,6.55770350712 6.39666225,6.57568149288 C 6.42962274288,6.59366075712 6.456591,6.62961800712 6.456591,6.65658498576 C 6.456591,6.68055648576 6.51052751424,6.75546774288 6.5764485,6.81839325 C 6.64236948576,6.88431423576 6.696306,6.94124750712 6.696306,6.94723974288 C 6.696306,6.95323325712 6.88508124288,7.15099749288 7.11580725,7.38771573576 C 7.34653325712,7.6214385 7.5353085,7.81920273576 7.5353085,7.82519625 C 7.5353085,7.83118976424 7.72108698576,8.02296048576 7.94881751424,8.24769425712 C 8.17355000712,8.47542350712 8.37730775712,8.67918125712 8.39528574288,8.70614951424 C 8.45521449288,8.78105949288 8.36831876424,8.92189173576 8.20051698576,9.02976476424 C 8.12261025,9.07770776424 8.00275275,9.17059700712 7.93383500712,9.23352251424 C 7.69412000712,9.44926601424 7.62520226424,9.50619800712 7.58025474288,9.52417599288 C 7.55628324288,9.53316626424 7.5353085,9.55713776424 7.5353085,9.57511575 C 7.5353085,9.59309373576 7.48137198576,9.66201275712 7.415451,9.72493826424 C 7.34953001424,9.79085925 7.2955935,9.85378475712 7.2955935,9.87176274288 C 7.2955935,9.88674525 7.26862524288,9.91371350712 7.23566475,9.93169149288 C 7.20270425712,9.94967075712 7.175736,9.98263125 7.175736,10.00660275 C 7.175736,10.0275774929 7.14876774288,10.0575425071 7.11580725,10.0665315 C 7.08284675712,10.0755204929 7.0558785,10.1114777429 7.0558785,10.1414427571 C 7.0558785,10.17440325 7.02891024288,10.2133572571 6.99594975,10.2313352429 C 6.96298925712,10.2493145071 6.936021,10.2882672358 6.936021,10.3212290071 C 6.936021,10.3511927429 6.90905274288,10.3871499929 6.87609225,10.3961389858 C 6.84313175712,10.4051292571 6.8161635,10.43808975 6.8161635,10.4650580071 C 6.8161635,10.4950217429 6.78919524288,10.53397575 6.75623475,10.5549504929 C 6.72327425712,10.5759252358 6.696306,10.6148792429 6.696306,10.6478410142 C 6.696306,10.67780475 6.66933774288,10.72574775 6.63637725,10.7557127642 C 6.60341675712,10.7856765 6.5764485,10.8336195 6.5764485,10.8605877571 C 6.5764485,10.8875560142 6.54948024288,10.9354990142 6.51651975,10.96546275 C 6.48355925712,10.9954277642 6.456591,11.049363 6.456591,11.0883170071 C 6.456591,11.1272710142 6.42962274288,11.1722172571 6.39666225,11.1901952429 C 6.35171600712,11.2141667429 6.3367335,11.25312075 6.3367335,11.3340242429 C 6.3367335,11.4089355 6.31575875712,11.4628720142 6.27680475,11.4988292642 C 6.23485526424,11.5317897571 6.216876,11.5857249929 6.216876,11.6636330071 C 6.216876,11.7385442642 6.19590125712,11.8074620071 6.15694725,11.8494114929 C 6.11499776424,11.90035125 6.0970185,11.96028 6.0970185,12.0711485071 C 6.0970185,12.1610409929 6.07604375712,12.25992375 6.04607874288,12.3138602642 C 6.0011325,12.391767 5.99214350712,12.5086277429 5.98315323576,13.1019230071 C 5.97416424288,13.7611392571 5.977161,13.8090822571 6.03409299288,13.9199507642 C 6.07604375712,13.9978575 6.0970185,14.0937435 6.0970185,14.1986184929 C 6.0970185,14.3124837571 6.11499776424,14.3814015 6.15694725,14.4353367358 C 6.1929045,14.4802842571 6.216876,14.5551942358 6.216876,14.6301054929 C 6.216876,14.7080135071 6.23485526424,14.7649455 6.27680475,14.80090275 C 6.32175099288,14.8428522358 6.3367335,14.8937919929 6.3367335,15.0106527358 C 6.3367335,15.1275147571 6.35171600712,15.1784545142 6.39666225,15.220404 C 6.44160849288,15.2623534858 6.456591,15.3132932429 6.456591,15.4421397358 C 6.456591,15.5590017571 6.47457026424,15.6369084929 6.51651975,15.699834 C 6.552477,15.7567659929 6.5764485,15.8406662429 6.5764485,15.9245664929 C 6.5764485,15.99947775 6.59442776424,16.1343177571 6.61839798576,16.227207 C 6.65135975712,16.3680392429 6.65135975712,16.4099900071 6.61839798576,16.466922 C 6.59742324288,16.5058760071 6.57944525712,16.57479375 6.5764485,16.6197399929 C 6.5764485,16.6646875142 6.552477,16.71862275 6.52251198576,16.7395974929 C 6.49254825,16.7605735142 6.45958775712,16.7995262429 6.45059876424,16.8264945 C 6.44160849288,16.850466 6.36669851424,16.9044025142 6.2887905,16.9433552429 C 6.20788700712,16.98230925 6.11799324288,17.0242600142 6.09102626424,17.0392412429 C 6.06106125,17.0512269929 6.00712601424,17.0632127429 5.97116876424,17.0632127429 C 5.86928925,17.0632127429 5.70448550712,17.1291350071 5.59661375712,17.2100385 C 5.50372323576,17.2789562429 5.497731,17.29393875 5.497731,17.4767217571 C 5.497731,17.6505144929 5.50671999288,17.6744859929 5.593617,17.761383 L 5.68650624288,17.857269 L 7.7270805,17.8662579929 C 8.85074424288,17.86925475 9.79462173576,17.8662579929 9.83057898576,17.8602657571 C 9.86354075712,17.8512754858 9.95643,17.7943434929 10.0313412571,17.7374115 C 10.148202,17.6475177358 10.1991417571,17.5726077571 10.3219947358,17.3209070071 C 10.5167634929,16.9163869858 10.59167475,16.6017620071 10.59167475,16.1762672429 C 10.59167475,15.49607625 10.339974,14.8758140071 9.812601,14.261544 C 9.71371824288,14.1446832571 9.43504923576,13.8060855 9.19233875712,13.5034449929 C 8.39228898576,12.5116245 8.32936475712,12.3767844929 8.32936475712,11.624679 C 8.32936475712,11.2261524929 8.33835375,11.1422522429 8.41026825,10.8845592571 C 8.45521449288,10.7227509929 8.52113675712,10.53397575 8.55709400712,10.4650580071 C 8.63500074288,10.3092432571 8.95861599288,9.84179900712 9.09944823576,9.67999074288 L 9.20132775,9.56612675712 L 9.30620274288,9.63804125712 C 9.36613149288,9.67699398576 9.48898575,9.78786249288 9.58187499288,9.88075173576 C 9.67176875712,9.97364225712 9.75267225,10.0515489929 9.75866448576,10.0515489929 C 9.76765475712,10.0515489929 9.96541899288,10.2403242358 10.1991417571,10.4710502429 C 10.43586,10.7047730071 10.6605924929,10.9145229929 10.6995465,10.94149125 C 10.7385005071,10.96546275 10.771461,10.9984232429 10.771461,11.01340575 C 10.771461,11.03737725 11.4037089929,11.672622 11.6973605071,11.9452974929 C 11.7812607571,12.0232055071 11.8501785,12.1011122429 11.8501785,12.1190915071 C 11.8501785,12.1340727358 11.86216425,12.1490552429 11.87415,12.1490552429 C 11.91010725,12.1490552429 14.7267585,14.9627097358 14.7267585,14.9956715071 C 14.7267585,15.0136494929 14.7357474929,15.0256352429 14.75073,15.0256352429 C 14.7776982571,15.028632 15.086331,15.3102964858 15.086331,15.3342679858 C 15.086331,15.364233 15.4788639929,15.7447802429 15.5088290071,15.7447802429 C 15.5238102358,15.7447802429 15.5507784929,15.7777407358 15.565761,15.8196915 C 15.5807435071,15.8616409858 15.6167007571,15.90359175 15.6406722571,15.9125807429 C 15.6646437571,15.9245664929 15.6856185,15.9545315071 15.6856185,15.9844952429 C 15.6856185,16.0114635 15.7125867571,16.0594065 15.74554725,16.0893702358 C 15.7785077429,16.11933525 15.805476,16.16727825 15.805476,16.1972419858 C 15.805476,16.227207 15.8324442571,16.2661610071 15.86540475,16.2841389929 C 15.901362,16.3021182571 15.9253335,16.3470645 15.9253335,16.3890139858 C 15.9253335,16.43096475 15.949305,16.4759109929 15.98526225,16.4938902571 C 16.0272117358,16.514865 16.045191,16.5568144858 16.045191,16.6257335071 C 16.045191,16.6856622571 16.0691625,16.7455910071 16.10511975,16.7785515 C 16.1440737571,16.8115119929 16.1650485,16.8714407429 16.1650485,16.93436625 C 16.1650485,16.994295 16.1920167571,17.0722017358 16.22497725,17.1141525 C 16.2759170071,17.1800734858 16.284906,17.2370067571 16.284906,17.4946997429 C 16.284906,17.761383 16.2908982358,17.8063292429 16.34483475,17.8512754858 C 16.3777952429,17.8782437429 16.4047635,17.9351757358 16.4047635,17.9771265 C 16.4047635,18.1239522571 16.7583424858,18.2198382571 16.956108,18.1269477358 C 17.099937,18.0580299929 17.5883559929,17.5756045142 17.7291882358,17.3598597358 C 18.0797717429,16.8294912571 18.2715437429,16.2451849858 18.31049775,15.6189305071 C 18.33446925,15.2174072429 18.2895230071,14.7379772429 18.1996292429,14.4083697571 C 18.11872575,14.1027324929 17.8490457358,13.5364054858 17.6932309858,13.33864125 C 17.62731,13.2517442429 17.08795125,12.69141075 16.5006495,12.0951200071 C 15.91334775,11.4958325071 15.421932,10.98943425 15.40994625,10.9684595071 C 15.3080667358,10.7886732571 15.2810997571,10.6238682358 15.2810997571,10.1564239858 C 15.2840952358,9.61706523576 15.3050712571,9.52117923576 15.5238102358,9.02077449288 C 15.67363275,8.67918125712 15.8444300071,8.38253298576 16.0601735071,8.08888275 C 16.2219804929,7.87014249288 16.4377239929,7.65739575 16.5036462571,7.65140223576 C 16.5935387429,7.64241324288 16.6954182571,7.66039250712 16.7823139858,7.70234199288 C 16.87220775,7.741296 16.8781999858,7.75627850712 16.8991760071,7.94505375 C 16.9111617571,8.05592225712 16.9381287358,8.17577975712 16.9621002358,8.20874025 C 16.9860717358,8.23870398576 17.004051,8.32260423576 17.004051,8.39152325712 C 17.004051,8.50239048576 17.01603675,8.52336650712 17.1239085,8.59827648576 C 17.3786060071,8.77506725712 17.5973449858,8.69416248576 17.8640282429,8.33159450712 C 18.2535657571,7.80422150712 18.50226975,7.08207975 18.50226975,6.48578900712 C 18.50226975,5.73967575 18.2176085071,5.056488 17.7321849929,4.62799775712 C 17.435538,4.36730673576 16.8272615071,4.0257135 16.1860232429,3.75903024288 C 15.7335615,3.570255 15.4369145071,3.31855425 15.2601237358,2.96797074288 C 15.1882092358,2.82414174288 15.17023125,2.75222724288 15.1732280071,2.60839824288 C 15.1762234858,2.38066899288 15.1073057429,2.16192873576 15.0054275071,2.08102524288 C 14.9125369858,2.00911074288 14.7297552571,2.00311850712 14.606901,2.06604273576 C 14.511015,2.11698249288 14.127471,2.47955175 14.127471,2.52150123576 C 14.127471,2.53348698576 14.1005027429,2.563452 14.06754225,2.58442674288 C 14.0345817571,2.60540148576 14.0076135,2.64435549288 14.0076135,2.67432050712 C 14.0076135,2.70128748576 13.9806452429,2.74323825 13.94768475,2.76421299288 C 13.9147242571,2.78518773576 13.887756,2.81814950712 13.887756,2.84212100712 C 13.887756,2.86309575 13.8607877429,2.90504523576 13.82782725,2.93501025 C 13.7948667571,2.96497398576 13.7678985,3.01291698576 13.7678985,3.042882 C 13.7678985,3.07284573576 13.7409302429,3.11179974288 13.70796975,3.12977900712 C 13.6690157429,3.15075375 13.648041,3.19270323576 13.648041,3.24663975 C 13.648041,3.29158599288 13.6210727429,3.3545115 13.58811225,3.38447523576 C 13.552155,3.41743700712 13.5281835,3.47736575712 13.5281835,3.53130099288 C 13.5281835,3.59122974288 13.5072087571,3.63917274288 13.46825475,3.66314424288 C 13.4233085071,3.6901125 13.408326,3.73206198576 13.408326,3.8339415 C 13.408326,3.905856 13.3813577429,4.03470249288 13.34839725,4.11860274288 C 13.30045425,4.24445375712 13.2884685,4.34033975712 13.2884685,4.66695048576 C 13.2884685,5.01154175712 13.2974574929,5.07446598576 13.34839725,5.152374 C 13.3813577429,5.200317 13.408326,5.28421725 13.408326,5.33216025 C 13.408326,5.38909224288 13.4293007429,5.43703524288 13.46825475,5.46100674288 C 13.5012152429,5.48198148576 13.5281835,5.52992448576 13.5281835,5.57187525 C 13.5281835,5.61382473576 13.552155,5.65877225712 13.58811225,5.67675024288 C 13.6210727429,5.69472950712 13.648041,5.72769 13.648041,5.7516615 C 13.648041,5.775633 13.6750092571,5.81159025 13.70796975,5.83256499288 C 13.7409302429,5.85353973576 13.7678985,5.8954905 13.7678985,5.92245875712 C 13.7678985,5.95242249288 13.7948667571,5.98837974288 13.82782725,6.00635900712 C 13.8607877429,6.02433699288 13.887756,6.05430200712 13.887756,6.07227999288 C 13.887756,6.11722623576 14.1005027429,6.31199499288 14.3222397571,6.4708065 C 14.5020260071,6.59965299288 15.1402662358,6.93525399288 15.2061885,6.93525399288 C 15.2241664858,6.93525399288 15.2930855071,6.96222225 15.36200325,6.9981795 C 15.4758672358,7.05810825 15.48186075,7.06410048576 15.4638814858,7.16897675712 C 15.4518957358,7.24688349288 15.4129430071,7.31280575712 15.326046,7.38771573576 C 15.2601237358,7.44764448576 15.2061885,7.51056999288 15.2061885,7.52854925712 C 15.2061885,7.54652724288 15.1792202429,7.57649225712 15.14625975,7.59447024288 C 15.1132992571,7.61244950712 15.086331,7.65140223576 15.086331,7.68436400712 C 15.086331,7.7173245 15.0593627429,7.75627850712 15.02640225,7.77425649288 C 14.990445,7.79223575712 14.9664735,7.837182 14.9664735,7.87913148576 C 14.9664735,7.92108225 14.942502,7.96602849288 14.90654475,7.98400775712 C 14.8705875,8.0049825 14.846616,8.04693198576 14.846616,8.09787174288 C 14.846616,8.14581474288 14.8226445,8.19375774288 14.78668725,8.21772924288 C 14.7537267571,8.23870398576 14.7267585,8.28664698576 14.7267585,8.32859775 C 14.7267585,8.37054723576 14.702787,8.41549475712 14.66682975,8.43347274288 C 14.6248789858,8.45744424288 14.606901,8.49639825 14.606901,8.56831275 C 14.606901,8.64022725 14.5889217358,8.67918125712 14.54697225,8.70315275712 C 14.5050214858,8.72712425712 14.4870435,8.76607698576 14.4870435,8.83799148576 C 14.4870435,8.90990598576 14.4690642358,8.94885999288 14.42711475,8.97283149288 C 14.37917175,8.99680299288 14.367186,9.035757 14.367186,9.14063199288 C 14.367186,9.21554325 14.3462112571,9.31442600712 14.3222397571,9.35637549288 C 14.2982682571,9.40132173576 14.2623110071,9.47024075712 14.2473285,9.51219024288 C 14.2293492358,9.55414100712 14.1963887429,9.62006199288 14.1724172429,9.659016 C 14.1334632358,9.72793374288 14.0825247571,9.67999074288 11.4995949929,7.09706225712 C 10.052316,5.64978198576 8.757855,4.34633199288 8.62301499288,4.20250299288 C 8.422254,3.98675949288 8.35333625712,3.8818845 8.19752150712,3.570255 C 8.04470223576,3.25562874288 8.00275275,3.14176475712 7.95480975,2.86908798576 C 7.92184925712,2.69229849288 7.894881,2.48554398576 7.894881,2.41063400712 C 7.89188424288,2.16492549288 7.77202674288,2.03308224288 7.52032599288,2.00911074288 C 7.4394225,2.00012175 7.35851900712,1.99712499288 7.34053974288,2.00311850712 Z M 10.2111275071,19.343502 C 10.1392130071,19.3764624929 10.0463237642,19.4333957642 10.004373,19.4723484929 C 9.93545525712,19.5382707571 9.92646626424,19.5682344929 9.92646626424,19.76300325 C 9.92646626424,19.9457862571 9.93845073576,19.9877357429 9.99837948576,20.0536580071 C 10.1302227358,20.1974870071 10.2141229858,20.2124695142 10.87933275,20.2124695142 C 11.4816170071,20.2124695142 11.4965982358,20.2154649929 11.5535315071,20.2783905 C 11.6044699858,20.3413160071 11.6074667429,20.4072369929 11.6104635,21.0874292642 L 11.6104635,21.82455225 L 11.7003559858,21.8994635071 C 11.8321992358,22.0103320142 12.0000010142,22.0313067571 12.1588112429,21.9533987429 C 12.401523,21.8305457642 12.4045197571,21.8275490071 12.41350875,20.9675717642 L 12.4224977429,20.2124695142 L 12.5783124929,20.2094727571 C 12.6652095,20.2094727571 12.9468739858,20.2094727571 13.2075650071,20.2124695142 C 13.63605525,20.2154649929 13.6929872429,20.2094727571 13.8128447429,20.1525407642 C 13.9566737429,20.0836217429 14.0525597429,19.95477525 14.0825247571,19.7929682642 C 14.1094917358,19.6371522358 13.9986245071,19.4363912429 13.8428097571,19.3584845071 C 13.7289444929,19.3015525142 13.6570299929,19.2985557571 12.02996475,19.2925622429 C 10.42387425,19.2865700071 10.3309850071,19.2895654858 10.2111275071,19.343502 Z"/></svg>
