<svg xmlns="http://www.w3.org/2000/svg" width="24" height="24" viewBox="0 0 24 24"><path d="M8.273438 5.503125C8.160937 5.5875 7.875 5.873438 7.875 5.896875C7.875 5.908594 7.832812 5.955469 7.78125 6C7.729688 6.044531 7.6875 6.100781 7.6875 6.121875C7.6875 6.145312 7.666406 6.173437 7.640625 6.1875C7.6125 6.201563 7.59375 6.236719 7.59375 6.269531C7.59375 6.302344 7.572656 6.339844 7.546875 6.35625C7.51875 6.375 7.5 6.4125 7.5 6.447656C7.5 6.480469 7.478906 6.527344 7.453125 6.550781C7.422656 6.576562 7.40625 6.623437 7.40625 6.672656C7.40625 6.719531 7.385156 6.780469 7.359375 6.813281C7.324219 6.857812 7.3125 6.909375 7.3125 7.010156C7.3125 7.103906 7.296094 7.176562 7.265625 7.235156C7.223437 7.314844 7.21875 7.36875 7.21875 7.725C7.21875 8.090625 7.223437 8.132812 7.265625 8.186719C7.296094 8.224219 7.3125 8.280469 7.3125 8.350781C7.3125 8.423437 7.326563 8.465625 7.359375 8.496094C7.3875 8.521875 7.40625 8.56875 7.40625 8.613281C7.40625 8.657812 7.425 8.704687 7.453125 8.730469C7.478906 8.753906 7.5 8.791406 7.5 8.817187C7.5 8.840625 7.521094 8.878125 7.546875 8.899219C7.572656 8.922656 7.59375 8.957812 7.59375 8.98125C7.59375 9.002344 7.614844 9.032812 7.640625 9.046875C7.666406 9.060937 7.6875 9.091406 7.6875 9.117187C7.6875 9.142969 7.708594 9.173437 7.734375 9.1875C7.760156 9.201562 7.78125 9.225 7.78125 9.239062C7.78125 9.264844 8.142187 9.639844 8.552344 10.038281C8.950781 10.427344 9.09375 10.575 9.09375 10.596094C9.09375 10.605469 9.114844 10.626562 9.140625 10.640625C9.175781 10.659375 9.1875 10.689844 9.1875 10.757812C9.1875 10.8375 9.178125 10.85625 9.114844 10.886719C9.032812 10.93125 8.871094 11.050781 8.796094 11.125781C8.767969 11.153906 8.71875 11.19375 8.685937 11.214844C8.653125 11.238281 8.625 11.264062 8.625 11.275781C8.625 11.2875 8.540625 11.38125 8.4375 11.482031C8.334375 11.585156 8.25 11.678906 8.25 11.688281C8.25 11.7 8.228906 11.721094 8.203125 11.7375C8.177344 11.753906 8.15625 11.779687 8.15625 11.796094C8.15625 11.810156 8.114062 11.861719 8.0625 11.90625C8.010937 11.950781 7.96875 12.007031 7.96875 12.028125C7.96875 12.051562 7.947656 12.079687 7.921875 12.09375C7.896094 12.107812 7.875 12.138281 7.875 12.164062C7.875 12.189844 7.853906 12.220312 7.828125 12.234375C7.802344 12.248437 7.78125 12.283594 7.78125 12.311719C7.78125 12.339844 7.760156 12.377344 7.734375 12.39375C7.708594 12.410156 7.6875 12.447656 7.6875 12.478125C7.6875 12.50625 7.666406 12.550781 7.640625 12.574219C7.6125 12.6 7.59375 12.646875 7.59375 12.69375C7.59375 12.747656 7.579687 12.780469 7.546875 12.796875C7.511719 12.815625 7.5 12.846094 7.5 12.925781C7.5 13.003125 7.485937 13.042969 7.453125 13.071094C7.417969 13.101562 7.40625 13.141406 7.40625 13.235156C7.40625 13.3125 7.389844 13.392187 7.359375 13.450781C7.3125 13.5375 7.310156 13.575 7.317187 14.175C7.324219 14.7375 7.328906 14.8125 7.366406 14.852344C7.394531 14.885156 7.40625 14.936719 7.40625 15.030469C7.40625 15.135937 7.415625 15.173437 7.453125 15.203906C7.488281 15.234375 7.5 15.274219 7.5 15.35625C7.5 15.440625 7.511719 15.480469 7.546875 15.508594C7.582031 15.539062 7.59375 15.578906 7.59375 15.672656C7.59375 15.76875 7.605469 15.80625 7.640625 15.836719C7.675781 15.867187 7.6875 15.907031 7.6875 15.986719C7.6875 16.061719 7.701562 16.110937 7.734375 16.148437C7.764844 16.183594 7.78125 16.235156 7.78125 16.298437C7.78125 16.352344 7.8 16.44375 7.821094 16.504687C7.858594 16.610156 7.858594 16.621875 7.821094 16.699219C7.8 16.746094 7.78125 16.814062 7.78125 16.851562C7.78125 16.896094 7.764844 16.928906 7.734375 16.945312C7.708594 16.959375 7.6875 16.9875 7.6875 17.00625C7.6875 17.046094 7.457812 17.15625 7.371094 17.15625C7.340625 17.15625 7.307812 17.165625 7.300781 17.179687C7.29375 17.191406 7.260937 17.203125 7.232812 17.203125C7.120312 17.203125 6.95625 17.334375 6.928125 17.442187C6.921094 17.479687 6.902344 17.507812 6.890625 17.507812C6.853125 17.507812 6.8625 17.615625 6.902344 17.648437C6.921094 17.664844 6.9375 17.692969 6.9375 17.711719C6.9375 17.730469 6.982031 17.765625 7.038281 17.789062C7.132031 17.833594 7.204687 17.835937 8.695312 17.835937C10.153125 17.835937 10.260937 17.83125 10.347656 17.791406C10.605469 17.674219 10.748437 17.428125 10.853906 16.914844C10.93125 16.544531 10.89375 16.045312 10.769531 15.761719C10.589062 15.353906 10.453125 15.161719 10.092187 14.798437C9.949219 14.657812 9.785156 14.472656 9.726562 14.390625C9.377344 13.896094 9.295312 13.760156 9.222656 13.544531C9.107812 13.211719 9.096094 12.705469 9.192187 12.398437C9.271875 12.15 9.43125 11.840625 9.607031 11.589844C9.698437 11.460937 9.778125 11.34375 9.782812 11.332031C9.7875 11.317969 9.822656 11.336719 9.860156 11.371875C9.897656 11.409375 9.935156 11.4375 9.942187 11.4375C9.958594 11.4375 12.803906 14.292187 12.925781 14.430469C12.975 14.486719 13.024219 14.53125 13.040625 14.53125C13.054687 14.53125 13.117969 14.442187 13.18125 14.332031C13.539844 13.713281 14.207812 13.139062 14.859375 12.890625C15.011719 12.832031 15.011719 12.832031 14.800781 12.595312C14.60625 12.382031 14.601562 12.372656 14.601562 12.260156C14.601562 12.194531 14.589844 12.063281 14.575781 11.967187C14.557031 11.840625 14.557031 11.753906 14.573437 11.655469C14.688281 11.041406 14.796094 10.753125 15.049219 10.371094C15.239062 10.085156 15.396094 9.904687 15.501562 9.850781C15.564844 9.817969 15.578906 9.817969 15.653906 9.857812C15.815625 9.939844 15.84375 9.979687 15.84375 10.125C15.84375 10.223437 15.855469 10.275 15.890625 10.319531C15.91875 10.357031 15.9375 10.413281 15.9375 10.471875C15.9375 10.553906 15.946875 10.572656 16.014844 10.6125C16.141406 10.6875 16.211719 10.694531 16.326562 10.640625C16.483594 10.563281 16.635937 10.375781 16.797656 10.064062C17.069531 9.536719 17.170312 8.992969 17.074219 8.561719C16.9875 8.165625 16.982812 8.15625 16.736719 7.764844C16.63125 7.598437 16.586719 7.546875 16.488281 7.485937C16.450781 7.4625 16.357031 7.399219 16.284375 7.345312C16.211719 7.291406 16.038281 7.192969 15.897656 7.125C15.089062 6.733594 15.014062 6.691406 14.86875 6.557812C14.650781 6.351562 14.60625 6.276562 14.533594 5.960156C14.498437 5.807812 14.451562 5.648437 14.430469 5.608594C14.315625 5.388281 14.022656 5.428125 13.753125 5.697656C13.715625 5.732812 13.6875 5.772656 13.6875 5.786719C13.6875 5.800781 13.666406 5.824219 13.640625 5.840625C13.614844 5.857031 13.59375 5.892187 13.59375 5.917969C13.59375 5.94375 13.572656 5.978906 13.546875 5.995312C13.521094 6.011719 13.5 6.046875 13.5 6.077344C13.5 6.105469 13.478906 6.142969 13.453125 6.159375C13.427344 6.175781 13.40625 6.208594 13.40625 6.234375C13.40625 6.260156 13.385156 6.292969 13.359375 6.309375C13.333594 6.325781 13.3125 6.365625 13.3125 6.398437C13.3125 6.43125 13.291406 6.471094 13.265625 6.4875C13.2375 6.503906 13.21875 6.541406 13.21875 6.583594C13.21875 6.61875 13.197656 6.667969 13.171875 6.691406C13.139062 6.721875 13.125 6.764062 13.125 6.832031C13.125 6.9 13.110937 6.942187 13.078125 6.972656C13.045312 7.003125 13.03125 7.045312 13.03125 7.113281C13.03125 7.174219 13.017187 7.225781 12.996094 7.242187C12.970312 7.263281 12.960937 7.321875 12.960937 7.469531C12.960937 7.614844 12.970312 7.675781 12.996094 7.701562C13.014844 7.722656 13.03125 7.771875 13.03125 7.814062C13.03125 7.860937 13.05 7.907812 13.078125 7.933594C13.10625 7.959375 13.125 8.00625 13.125 8.053125C13.125 8.107031 13.139062 8.139844 13.171875 8.15625C13.197656 8.170312 13.21875 8.200781 13.21875 8.224219C13.21875 8.247656 13.239844 8.285156 13.265625 8.308594C13.291406 8.332031 13.3125 8.364844 13.3125 8.38125C13.3125 8.397656 13.333594 8.423437 13.359375 8.4375C13.385156 8.451562 13.40625 8.475 13.40625 8.491406C13.40625 8.505469 13.427344 8.538281 13.453125 8.566406C13.478906 8.592187 13.539844 8.655469 13.589062 8.707031C13.638281 8.758594 13.720312 8.828906 13.771875 8.861719C14.088281 9.072656 14.228906 9.157031 14.458594 9.271875C14.692969 9.389062 14.71875 9.407812 14.71875 9.464062C14.71875 9.508594 14.690625 9.553125 14.625 9.609375C14.573437 9.653906 14.53125 9.703125 14.53125 9.714844C14.53125 9.728906 14.510156 9.752344 14.484375 9.76875C14.458594 9.785156 14.4375 9.817969 14.4375 9.84375C14.4375 9.869531 14.416406 9.902344 14.390625 9.91875C14.364844 9.935156 14.34375 9.970312 14.34375 9.998437C14.34375 10.024219 14.322656 10.066406 14.296875 10.089844C14.271094 10.113281 14.25 10.155469 14.25 10.185937C14.25 10.216406 14.228906 10.251562 14.203125 10.265625C14.177344 10.279687 14.15625 10.314844 14.15625 10.342969C14.15625 10.371094 14.135156 10.408594 14.109375 10.425C14.08125 10.441406 14.0625 10.478906 14.0625 10.51875C14.0625 10.55625 14.04375 10.59375 14.015625 10.6125C13.9875 10.628906 13.96875 10.666406 13.96875 10.708594C13.96875 10.74375 13.947656 10.792969 13.921875 10.816406C13.891406 10.844531 13.875 10.889062 13.875 10.942969C13.875 10.999219 13.858594 11.041406 13.828125 11.069531C13.795312 11.097656 13.78125 11.1375 13.78125 11.214844C13.78125 11.273437 13.7625 11.348437 13.739062 11.388281L13.696875 11.458594L13.558594 11.339062C13.338281 11.153906 9.686719 7.528125 9.461719 7.272656C9.203906 6.977344 9 6.597656 8.861719 6.145312C8.807812 5.971875 8.765625 5.814844 8.765625 5.79375C8.765625 5.702344 8.711719 5.575781 8.646094 5.507812C8.547656 5.411719 8.395312 5.409375 8.273437 5.503125ZM16.019531 13.148438C15.99375 13.160156 15.916406 13.169531 15.846094 13.169531C15.775781 13.171875 15.686719 13.18125 15.646875 13.192969C15.607031 13.204687 15.527344 13.228125 15.46875 13.242188C15.410156 13.258594 15.311719 13.291406 15.248438 13.314844C15.185156 13.338281 15.121875 13.359375 15.103125 13.359375C15.016406 13.359375 14.53125 13.640625 14.53125 13.692188C14.53125 13.701563 14.498438 13.727344 14.45625 13.748438C14.414062 13.769531 14.350781 13.81875 14.313281 13.853906C14.275781 13.891406 14.235937 13.921875 14.221875 13.921875C14.19375 13.921875 14.0625 14.050781 14.0625 14.08125C14.0625 14.092969 14.041406 14.109375 14.015625 14.116406C13.9875 14.123437 13.96875 14.149219 13.96875 14.177344C13.96875 14.203125 13.947656 14.235937 13.921875 14.25C13.896094 14.264063 13.875 14.289844 13.875 14.30625C13.875 14.325 13.853906 14.34375 13.828125 14.350781C13.8 14.357812 13.78125 14.383594 13.78125 14.411719C13.78125 14.4375 13.760156 14.470312 13.734375 14.484375C13.703906 14.500781 13.6875 14.533594 13.6875 14.578125C13.6875 14.622656 13.671094 14.655469 13.640625 14.671875C13.614844 14.685938 13.59375 14.721094 13.59375 14.749219C13.59375 14.777344 13.572656 14.814844 13.546875 14.83125C13.521094 14.847656 13.5 14.882813 13.5 14.913281C13.5 14.941406 13.478906 14.983594 13.453125 15.007031C13.422656 15.030469 13.40625 15.075 13.40625 15.124219C13.40625 15.173437 13.3875 15.220312 13.359375 15.246094C13.321875 15.278906 13.3125 15.31875 13.3125 15.433594C13.3125 15.529688 13.296094 15.616406 13.263281 15.689062C13.21875 15.789844 13.216406 15.834375 13.223437 16.263281C13.230469 16.66875 13.235156 16.736719 13.272656 16.774219C13.300781 16.807031 13.3125 16.858594 13.3125 16.95C13.3125 17.046094 13.324219 17.092969 13.359375 17.132812C13.3875 17.165625 13.40625 17.219531 13.40625 17.275781C13.40625 17.341406 13.417969 17.371875 13.453125 17.390625C13.483594 17.407031 13.5 17.439844 13.5 17.484375C13.5 17.528906 13.516406 17.564062 13.546875 17.582812C13.575 17.601562 13.59375 17.639062 13.59375 17.676562C13.59375 17.716406 13.6125 17.749219 13.640625 17.765625C13.666406 17.779687 13.6875 17.8125 13.6875 17.835937C13.6875 17.861719 13.708594 17.894531 13.734375 17.910937C13.760156 17.927344 13.78125 17.960156 13.78125 17.98125C13.78125 18.004687 13.802344 18.032812 13.828125 18.046875C13.853906 18.060937 13.875 18.082031 13.875 18.096094C13.875 18.140625 14.182031 18.43125 14.411719 18.602344C14.910937 18.977344 15.424219 19.164844 16.066406 19.209375C17.325 19.29375 18.576563 18.503906 19.05 17.327344C19.192969 16.966406 19.244531 16.717969 19.258594 16.298437C19.277344 15.738281 19.2 15.335156 18.984375 14.866406C18.646875 14.1375 17.934375 13.502344 17.214844 13.286719C17.163281 13.272656 17.097656 13.251562 17.067187 13.239844C17.036719 13.228125 16.985156 13.21875 16.95 13.21875C16.9125 13.21875 16.875 13.209375 16.863281 13.197656C16.816406 13.153125 16.101562 13.110937 16.019531 13.148438ZM15.140625 14.519531C15.171094 14.552344 15.203906 14.578125 15.213281 14.578125C15.234375 14.578125 15.9375 15.276562 15.9375 15.297656C15.9375 15.316406 16.115625 15.485156 16.18125 15.527344C16.258594 15.578906 16.232813 15.6 16.849219 14.971875L17.348437 14.460938L17.458594 14.55C17.517187 14.596875 17.648438 14.71875 17.746875 14.817187C17.915625 14.985937 17.927344 15.002344 17.913281 15.072656C17.899219 15.142969 17.690625 15.375 17.64375 15.375C17.634375 15.375 17.625 15.384375 17.625 15.398437C17.625 15.424219 17.475 15.574219 17.125781 15.902344C16.933594 16.080469 16.875 16.150781 16.875 16.195312C16.875 16.239844 16.964062 16.340625 17.247656 16.617187C17.451563 16.816406 17.683594 17.041406 17.765625 17.116406C17.899219 17.238281 17.913281 17.259375 17.910938 17.339062C17.908594 17.404687 17.889844 17.442187 17.833594 17.489062C17.791406 17.526562 17.749219 17.554687 17.739844 17.554687C17.728125 17.554687 17.71875 17.56875 17.71875 17.585156C17.71875 17.601562 17.697656 17.627344 17.671875 17.64375C17.646094 17.660156 17.625 17.685937 17.625 17.704687C17.625 17.744531 17.524219 17.8125 17.465625 17.8125C17.442188 17.8125 17.411719 17.824219 17.397656 17.838281C17.38125 17.854687 17.357813 17.857031 17.327344 17.840625C17.303906 17.826562 17.067188 17.594531 16.8 17.322656C16.258594 16.767187 16.249219 16.7625 16.108594 16.907812C16.066406 16.95 16.03125 16.996875 16.03125 17.013281C16.03125 17.027344 16.021875 17.039062 16.0125 17.039062C16.000781 17.039062 15.902344 17.123437 15.794531 17.226562C15.686719 17.332031 15.548438 17.460937 15.4875 17.514844C15.426563 17.56875 15.375 17.625 15.375 17.636719C15.375 17.692969 15.09375 17.8875 15.058594 17.857031C15.053906 17.852344 14.927344 17.725781 14.777344 17.578125L14.507813 17.310938L15.075 16.741406L15.642188 16.174219L15.070313 15.597656L14.500781 15.021094L14.779688 14.739844C14.932031 14.5875 15.063281 14.460938 15.072656 14.460938C15.079688 14.460938 15.110156 14.486719 15.140625 14.519531Z"/></svg>
