<svg xmlns="http://www.w3.org/2000/svg" width="24" height="24" viewBox="0 0 24 24"><path d="M7.34054 2.006115V2.003119C7.358519 1.997125 7.439423 2.000122 7.520326 2.009111C7.772027 2.033082 7.891884 2.164926 7.894881 2.410634C7.894881 2.485544 7.921849 2.692298 7.95481 2.869088C8.002752 3.141765 8.044703 3.255629 8.197521 3.570255C8.353336 3.881885 8.422254 3.986759 8.623015 4.202503C8.757855 4.346332 10.052316 5.649782 11.499595 7.097062C14.082524 9.679991 14.133463 9.727934 14.172418 9.659016C14.196389 9.620062 14.229349 9.554141 14.247329 9.51219C14.262311 9.470241 14.298268 9.401321 14.32224 9.356376C14.346211 9.314426 14.367186 9.215543 14.367186 9.140632C14.367186 9.035757 14.379171 8.996803 14.427114 8.972832C14.469065 8.94886 14.487043 8.909906 14.487043 8.837992C14.487043 8.766077 14.505021 8.727124 14.546972 8.703153C14.588922 8.679181 14.606901 8.640227 14.606901 8.568313C14.606901 8.496398 14.624879 8.457444 14.66683 8.433473C14.702787 8.415495 14.726759 8.370547 14.726759 8.328598C14.726759 8.286647 14.753727 8.238704 14.786687 8.21773C14.822644 8.193758 14.846616 8.145815 14.846616 8.097872C14.846616 8.046932 14.870587 8.004983 14.906545 7.984008C14.942502 7.966029 14.966474 7.921082 14.966474 7.879131C14.966474 7.837182 14.990445 7.792236 15.026402 7.774257C15.059362 7.756279 15.086331 7.717325 15.086331 7.684364C15.086331 7.651402 15.113299 7.61245 15.146259 7.59447C15.17922 7.576492 15.206188 7.546527 15.206188 7.528549C15.206188 7.51057 15.260124 7.447645 15.326046 7.387716C15.412943 7.312806 15.451896 7.246883 15.463881 7.168977C15.481861 7.0641 15.475867 7.058108 15.362003 6.998179C15.293085 6.962222 15.224167 6.935254 15.206188 6.935254C15.140266 6.935254 14.502026 6.599653 14.32224 6.470807C14.100503 6.311995 13.887756 6.117226 13.887756 6.07228C13.887756 6.054302 13.860787 6.024337 13.827827 6.006359C13.794867 5.98838 13.767899 5.952423 13.767899 5.922459C13.767899 5.895491 13.740931 5.85354 13.70797 5.832565C13.67501 5.81159 13.648041 5.775633 13.648041 5.751661C13.648041 5.72769 13.621073 5.694729 13.588112 5.67675C13.552155 5.658772 13.528184 5.613825 13.528184 5.571875C13.528184 5.529924 13.501215 5.481981 13.468255 5.461007C13.4293 5.437035 13.408326 5.389092 13.408326 5.33216C13.408326 5.284217 13.381358 5.200317 13.348397 5.152374C13.297458 5.074466 13.288468 5.011542 13.288468 4.666951C13.288468 4.34034 13.300454 4.244454 13.348397 4.118603C13.381358 4.034702 13.408326 3.905856 13.408326 3.833941C13.408326 3.732062 13.423308 3.690113 13.468255 3.663144C13.507209 3.639173 13.528184 3.59123 13.528184 3.531301C13.528184 3.477366 13.552155 3.417437 13.588112 3.384475C13.621073 3.354511 13.648041 3.291586 13.648041 3.24664C13.648041 3.192703 13.669016 3.150754 13.70797 3.129779C13.740931 3.1118 13.767899 3.072846 13.767899 3.042882C13.767899 3.012917 13.794867 2.964974 13.827827 2.93501C13.860787 2.905045 13.887756 2.863096 13.887756 2.842121C13.887756 2.81815 13.914724 2.785188 13.947684 2.764213C13.980645 2.743238 14.007613 2.701288 14.007613 2.67432C14.007613 2.644356 14.034582 2.605402 14.067542 2.584427C14.100503 2.563452 14.127471 2.533487 14.127471 2.521501C14.127471 2.479552 14.511015 2.116982 14.606901 2.066043C14.729755 2.003119 14.912537 2.009111 15.005427 2.081025C15.107306 2.161929 15.176224 2.380669 15.173228 2.608398C15.170231 2.752227 15.18821 2.824142 15.260124 2.967971C15.436914 3.318554 15.733562 3.570255 16.186024 3.75903C16.827261 4.025713 17.435537 4.367307 17.732185 4.627998C18.217609 5.056488 18.50227 5.739676 18.50227 6.485789C18.50227 7.08208 18.253565 7.804222 17.864029 8.331594C17.597345 8.694162 17.378607 8.775067 17.123909 8.598276C17.016037 8.523367 17.004051 8.502391 17.004051 8.391523C17.004051 8.322604 16.986073 8.238704 16.962101 8.20874C16.938129 8.175779 16.911161 8.055923 16.899176 7.945054C16.878201 7.756279 16.872208 7.741296 16.782314 7.702342C16.695417 7.660392 16.593538 7.642413 16.503647 7.651402C16.437723 7.657396 16.221981 7.870142 16.060173 8.088882C15.84443 8.382533 15.673633 8.679181 15.52381 9.020775C15.305071 9.521179 15.284095 9.617065 15.281099 10.156424C15.281099 10.623868 15.308066 10.788673 15.409946 10.968459C15.421932 10.989434 15.913348 11.495832 16.50065 12.09512C17.087952 12.691411 17.62731 13.251744 17.693232 13.338641C17.849045 13.536406 18.118725 14.102733 18.199629 14.40837C18.289522 14.737977 18.334469 15.217407 18.310497 15.618931C18.271544 16.245186 18.079771 16.829491 17.729189 17.359859C17.588356 17.575605 17.099937 18.058029 16.956108 18.126947C16.758343 18.219839 16.404764 18.123953 16.404764 17.977127C16.404764 17.935175 16.377796 17.878244 16.344835 17.851276C16.290897 17.80633 16.284906 17.761383 16.284906 17.494699C16.284906 17.237007 16.275917 17.180073 16.224977 17.114153C16.192017 17.072203 16.165049 16.994295 16.165049 16.934366C16.165049 16.871441 16.144073 16.811512 16.10512 16.778551C16.069162 16.74559 16.045191 16.685661 16.045191 16.625734C16.045191 16.556814 16.027212 16.514866 15.985262 16.493891C15.949305 16.47591 15.925334 16.430965 15.925334 16.389013C15.925334 16.347065 15.901362 16.302118 15.865405 16.28414C15.832444 16.266161 15.805476 16.227207 15.805476 16.197243C15.805476 16.167278 15.778508 16.119335 15.745547 16.089371C15.712586 16.059406 15.685618 16.011463 15.685618 15.984495C15.685618 15.954532 15.664643 15.924566 15.640673 15.91258C15.616701 15.903592 15.580744 15.861641 15.565761 15.819692C15.550778 15.77774 15.52381 15.744781 15.508829 15.744781C15.478864 15.744781 15.086331 15.364233 15.086331 15.334268C15.086331 15.310296 14.777699 15.028632 14.75073 15.025636C14.735747 15.025636 14.726759 15.01365 14.726759 14.995671C14.726759 14.962709 11.910108 12.149055 11.87415 12.149055C11.862164 12.149055 11.850179 12.134072 11.850179 12.119091C11.850179 12.101112 11.78126 12.023206 11.69736 11.945297C11.403709 11.672622 10.771461 11.037377 10.771461 11.013406C10.771461 10.998424 10.738501 10.965463 10.699547 10.941491C10.660592 10.914523 10.43586 10.704773 10.199142 10.47105C9.965419 10.240324 9.767654 10.051549 9.758664 10.051549C9.752672 10.051549 9.671769 9.973642 9.581875 9.880752C9.488986 9.787863 9.366132 9.676994 9.306203 9.638041L9.201327 9.566127L9.099448 9.679991C8.958616 9.841799 8.635001 10.309243 8.557094 10.465058C8.521136 10.533976 8.455215 10.722751 8.410268 10.88456C8.338354 11.142252 8.329365 11.226152 8.329365 11.624679C8.329365 12.376784 8.392289 12.511624 9.192339 13.503445C9.435049 13.806086 9.713718 14.144683 9.812601 14.261544C10.339974 14.875814 10.591675 15.496077 10.591675 16.176268C10.591675 16.601763 10.516764 16.916388 10.321995 17.320908C10.199142 17.572607 10.148202 17.647518 10.031342 17.737411C9.95643 17.794344 9.863541 17.851276 9.830579 17.860266C9.794621 17.866259 8.850744 17.869255 7.72708 17.866259L5.686506 17.857269L5.593617 17.761383C5.50672 17.674486 5.497731 17.650515 5.497731 17.476721C5.497731 17.29394 5.503723 17.278955 5.596614 17.210039C5.704485 17.129135 5.869289 17.063213 5.971169 17.063213C6.007126 17.063213 6.061061 17.051228 6.091026 17.039242C6.117993 17.02426 6.207887 16.982309 6.288791 16.943356C6.366699 16.904402 6.441608 16.850466 6.450599 16.826494C6.459588 16.799526 6.492548 16.760574 6.522512 16.739597C6.552477 16.718622 6.576448 16.664688 6.576448 16.61974C6.579445 16.574793 6.597423 16.505877 6.618398 16.466923C6.65136 16.40999 6.65136 16.36804 6.618398 16.227207C6.594428 16.134317 6.576448 15.999477 6.576448 15.924566C6.576448 15.840666 6.552477 15.756766 6.51652 15.699834C6.47457 15.636909 6.456591 15.559002 6.456591 15.44214C6.456591 15.313293 6.441608 15.262354 6.396662 15.220404C6.351716 15.178454 6.336733 15.127515 6.336733 15.010653C6.336733 14.893792 6.321751 14.842853 6.276805 14.800902C6.234855 14.764945 6.216876 14.708014 6.216876 14.630105C6.216876 14.555194 6.192904 14.480285 6.156947 14.435337C6.114998 14.381401 6.097019 14.312484 6.097019 14.198619C6.097019 14.093743 6.076044 13.997857 6.034093 13.91995C5.977161 13.809082 5.974164 13.761139 5.983153 13.101923C5.992144 12.508628 6.001132 12.391767 6.046079 12.31386C6.076044 12.259924 6.097019 12.161041 6.097019 12.071149C6.097019 11.96028 6.114998 11.900352 6.156947 11.849412C6.195901 11.807462 6.216876 11.738544 6.216876 11.663633C6.216876 11.585725 6.234855 11.53179 6.276805 11.498829C6.315759 11.462872 6.336733 11.408936 6.336733 11.334024C6.336733 11.25312 6.351716 11.214167 6.396662 11.190195C6.429623 11.172217 6.456591 11.127271 6.456591 11.088317C6.456591 11.049363 6.483559 10.995428 6.51652 10.965463C6.54948 10.935499 6.576448 10.887556 6.576448 10.860588C6.576448 10.833619 6.603417 10.785677 6.636377 10.755713C6.669338 10.725748 6.696306 10.677805 6.696306 10.647841C6.696306 10.61488 6.723274 10.575925 6.756235 10.554951C6.789195 10.533976 6.816164 10.495022 6.816164 10.465058C6.816164 10.438089 6.843132 10.405129 6.876092 10.396139C6.909053 10.38715 6.936021 10.351192 6.936021 10.321229C6.936021 10.288267 6.962989 10.249314 6.99595 10.231336C7.02891 10.213357 7.055879 10.174403 7.055879 10.141442C7.055879 10.111478 7.082847 10.075521 7.115807 10.066531C7.148768 10.057543 7.175736 10.027577 7.175736 10.006602C7.175736 9.982632 7.202704 9.949671 7.235665 9.931691C7.268625 9.913713 7.295593 9.886745 7.295593 9.871762C7.295593 9.853785 7.34953 9.790859 7.415451 9.724938C7.481372 9.662013 7.535308 9.593094 7.535308 9.575116C7.535308 9.557137 7.556283 9.533166 7.580255 9.524176C7.625202 9.506198 7.69412 9.449266 7.933835 9.233522C8.002752 9.170597 8.12261 9.077707 8.200517 9.029765C8.368319 8.921892 8.455215 8.781059 8.395286 8.706149C8.377308 8.679181 8.17355 8.475424 7.948818 8.247694C7.721087 8.022961 7.535308 7.83119 7.535308 7.825196C7.535308 7.819203 7.346533 7.621439 7.115807 7.387716C6.885081 7.150998 6.696306 6.953233 6.696306 6.94724C6.696306 6.941247 6.642369 6.884314 6.576448 6.818393C6.510528 6.755468 6.456591 6.680556 6.456591 6.656585C6.456591 6.629618 6.429623 6.593661 6.396662 6.575682C6.363702 6.557703 6.336733 6.51875 6.336733 6.485789C6.336733 6.452827 6.309765 6.413875 6.276805 6.395895C6.210362 6.378669 6.212633 6.347297 6.215567 6.306756C6.216206 6.297933 6.216876 6.288675 6.216876 6.279035C6.216876 6.234088 6.189908 6.171163 6.156947 6.141198C6.12099 6.108237 6.097019 6.048308 6.097019 5.991376C6.097019 5.934444 6.073047 5.874516 6.03709 5.841554C5.992144 5.799604 5.977161 5.748665 5.977161 5.625811C5.977161 5.523932 5.956186 5.422053 5.917232 5.347143C5.866292 5.24826 5.857304 5.170353 5.857304 4.855727C5.857304 4.55009 5.869289 4.451208 5.917232 4.328354C5.956186 4.232468 5.977161 4.106617 5.977161 3.986759C5.977161 3.836938 5.989147 3.785999 6.03709 3.744048C6.076044 3.708091 6.097019 3.654155 6.097019 3.579244C6.097019 3.495344 6.112001 3.456391 6.156947 3.43242C6.195901 3.411443 6.216876 3.369494 6.216876 3.315557C6.216876 3.270611 6.243844 3.207686 6.276805 3.177722C6.309765 3.147757 6.336733 3.099814 6.336733 3.06985C6.336733 3.039885 6.363702 3.000931 6.396662 2.982953C6.429623 2.964975 6.456591 2.926021 6.456591 2.893061C6.456591 2.860099 6.483559 2.821145 6.51652 2.803167C6.54948 2.785189 6.576448 2.746235 6.576448 2.713274C6.576448 2.680313 6.603417 2.641359 6.636377 2.623381C6.669338 2.605403 6.696306 2.572441 6.696306 2.54847C6.696306 2.524498 6.723274 2.488541 6.756235 2.467566C6.789195 2.446591 6.816164 2.416626 6.816164 2.40464C6.816164 2.350705 7.151764 2.054058 7.229672 2.036079C7.274619 2.02709 7.325559 2.015104 7.34054 2.006115ZM10.211127 19.343502C10.330985 19.289566 10.423874 19.28657 12.029964 19.292562C13.65703 19.298555 13.728945 19.301552 13.84281 19.358484C13.998625 19.436392 14.109491 19.637152 14.082524 19.792969C14.05256 19.954775 13.956674 20.083622 13.812844 20.15254C13.692987 20.209473 13.636055 20.215466 13.207565 20.212469C12.946874 20.209473 12.66521 20.209473 12.578313 20.209473L12.422498 20.212469L12.413508 20.967571C12.40452 21.827549 12.401523 21.830545 12.158812 21.9534C12.000001 22.031307 11.832199 22.010332 11.700356 21.899464L11.610463 21.824553V21.087429C11.607467 20.407236 11.60447 20.341316 11.553532 20.278391C11.496598 20.215466 11.481617 20.212469 10.879333 20.212469C10.214123 20.212469 10.130222 20.197487 9.99838 20.053658C9.938451 19.987736 9.926466 19.945786 9.926466 19.763002C9.926466 19.568235 9.935455 19.538271 10.004373 19.472349C10.046324 19.433395 10.139213 19.376463 10.211127 19.343502Z"/></svg>
