<svg xmlns="http://www.w3.org/2000/svg" width="24" height="24" viewBox="0 0 24 24"><path d="M 12.9526065258,2.02729202812 C 12.7971890923,2.08519243666 12.6570077188,2.19185265793 12.6570077188,2.2588949625 C 12.6570077188,2.28632195084 12.6295807304,2.32593726707 12.5960595781,2.34422235938 C 12.5625384258,2.36250745168 12.5351114375,2.39298087187 12.5351114375,2.41431239604 C 12.5351114375,2.43564522043 12.5076844492,2.46916637271 12.4741632969,2.49049789687 C 12.4406421446,2.51182942104 12.4132151563,2.54839830541 12.4132151563,2.57277756166 C 12.4132151563,2.59715681791 12.3857881679,2.63067927043 12.3522670156,2.6489630625 C 12.3187458633,2.66724685457 12.291318875,2.70686347104 12.291318875,2.74038592355 C 12.291318875,2.77390707584 12.2638918867,2.8135236923 12.2303707344,2.83180748438 C 12.1968495821,2.85009127645 12.1694225938,2.88970789291 12.1694225938,2.92323034543 C 12.1694225938,2.95675149771 12.1419956054,2.99636811418 12.1084744531,3.01465190625 C 12.0688578367,3.03598343041 12.0475263125,3.07864777896 12.0475263125,3.13350045541 C 12.0475263125,3.17921253605 12.0200993242,3.24320710854 11.9865781719,3.27368182896 C 11.9469615554,3.31025071334 11.9256300312,3.36815112187 11.9256300312,3.44128889062 C 11.9256300312,3.51442665938 11.9042985071,3.57232706791 11.8646818906,3.60889595229 C 11.8159233781,3.65156030084 11.80373375,3.7033652452 11.80373375,3.84049888666 C 11.80373375,3.9471578077 11.7793544938,4.0812450173 11.7427856094,4.17266657812 C 11.6909793648,4.30370475541 11.6818374688,4.39817404832 11.6818374688,4.77605382043 C 11.6818374688,5.15697872416 11.6909793648,5.24535385313 11.7427856094,5.35810823834 C 11.7763067617,5.43124600709 11.80373375,5.55009455625 11.80373375,5.623232325 C 11.80373375,5.72379708209 11.8189711102,5.76341369855 11.8646818906,5.7877929548 C 11.9073462392,5.81217221105 11.9256300312,5.85178752729 11.9256300312,5.92492529604 C 11.9256300312,5.99806306479 11.9439151236,6.03767968125 11.9865781719,6.0620589375 C 12.0231470563,6.0803440298 12.0475263125,6.12605481021 12.0475263125,6.16871785854 C 12.0475263125,6.21138220709 12.0719055688,6.2570929875 12.1084744531,6.2753780798 C 12.1419956054,6.29366187187 12.1694225938,6.3241365923 12.1694225938,6.34242038438 C 12.1694225938,6.40946268895 12.5777757861,6.7629632048 12.7849994642,6.86962212584 C 12.9891754102,6.97628104687 13.5194235835,7.183504725 13.9308245079,7.31759063437 C 14.0831942094,7.36634914688 14.1319527219,7.3968238673 14.153284246,7.46081843979 C 14.1746170704,7.51567241646 14.1746170704,7.55528903293 14.153284246,7.59185661707 C 14.135000454,7.6223313375 14.1197630938,7.66499438582 14.1197630938,7.69242137416 C 14.1197630938,7.71680063041 14.0923361054,7.7503217827 14.0588149531,7.768606875 C 14.0191983367,7.78993839916 13.9978668125,7.83260274771 13.9978668125,7.89050315625 C 13.9978668125,7.94840356479 13.9765352883,7.99106791334 13.9369186719,8.0123994375 C 13.8973020554,8.03373096166 13.8759705312,8.07639531021 13.8759705312,8.13429571875 C 13.8759705312,8.19219612729 13.8546390071,8.23486047584 13.8150223906,8.256192 C 13.7754057742,8.27752352416 13.75407425,8.32018787271 13.75407425,8.37808828125 C 13.75407425,8.43598868979 13.7327427258,8.47865303834 13.6931261094,8.4999845625 C 13.6596049571,8.5182696548 13.6321779688,8.56398043521 13.6321779688,8.60359575145 C 13.6321779688,8.64321236791 13.6047509804,8.69806634459 13.5712298281,8.72853976479 C 13.5377086758,8.75901448521 13.5102816875,8.82301035793 13.5102816875,8.86872113834 C 13.5102816875,8.92357381479 13.4889501633,8.96623816334 13.4493335469,8.9875696875 C 13.4066704986,9.00890121166 13.3883854063,9.05156556021 13.3883854063,9.12165559688 C 13.3883854063,9.1826037375 13.36400615,9.24355187813 13.3274372656,9.27707303041 C 13.2817264852,9.31668964688 13.266489125,9.37154362355 13.266489125,9.4751548125 C 13.266489125,9.5726718375 13.2482040327,9.64276187416 13.2055409844,9.69761585084 C 13.1689721,9.74332663125 13.1445928438,9.81951213209 13.266489125,9.89264990084 C 13.266489125,9.95664577355 13.2451576008,10.0419718702 13.2177306125,10.0785420548 C 13.1842094602,10.1273005673 13.1750675642,10.1791055117 13.1903036242,10.2461491165 C 13.2482040327,10.5234628313 13.2421098688,10.5935528679 13.1628779361,10.7215446133 C 13.1171658554,10.7885869179 13.0745028071,10.8464886267 13.0653596108,10.8464886267 C 13.0287907264,10.8464886267 12.778904,10.6514545767 12.778904,10.6240275883 C 12.778904,10.605742496 12.681386975,10.4868939469 12.5594906938,10.3619499335 C 12.4375944125,10.2339594883 12.1877076861,9.97188183354 12.0018155321,9.77989551563 C 11.6757433048,9.43553819604 10.9108431648,8.62492857584 10.7645676273,8.46646341021 C 10.7249510108,8.42075132957 10.5055377046,8.1891483952 10.2769825023,7.94840356479 C 10.0484273,7.70765873437 9.82901399375,7.47300806791 9.78939737729,7.43034501959 C 9.74978076082,7.38463293895 9.46941931395,7.09208186395 9.16772634291,6.7751515327 C 8.390637875,5.96149418041 8.17732003293,5.73598671021 7.99447561105,5.52876303209 C 7.90305275,5.428198275 7.76591910854,5.27582727332 7.68363944375,5.19049987645 C 7.29357134375,4.77910025229 6.88826588354,4.12390806563 6.74199034604,3.67593955709 C 6.66885257729,3.44433662271 6.59266837668,3.04512662668 6.58962064459,2.8622822048 C 6.5865729125,2.67639005084 6.52867250396,2.52706678125 6.42810774687,2.4539290125 C 6.31535336166,2.36860161562 6.03194548293,2.3746970798 5.94661808605,2.46611864062 C 5.91614336563,2.49963979291 5.87652674916,2.52706678125 5.86129068918,2.52706678125 C 5.84300559688,2.52706678125 5.83081596875,2.54230414146 5.83081596875,2.56058793354 C 5.83081596875,2.57887302584 5.74853630396,2.67334231875 5.64797154688,2.77085934375 C 5.54740678979,2.86837636875 5.465127125,2.96284566166 5.465127125,2.98113075396 C 5.465127125,2.99941454604 5.43770013666,3.02988926646 5.40417898438,3.05122079062 C 5.37065783209,3.07255231479 5.34323084375,3.11521666334 5.34323084375,3.14264365168 C 5.34323084375,3.17311707187 5.31580385541,3.20968595625 5.28228270313,3.22797104855 C 5.24876155084,3.24625484062 5.2213345625,3.28891918918 5.2213345625,3.31939260937 C 5.2213345625,3.35291376166 5.19390757416,3.39557811021 5.16038642187,3.41690963438 C 5.12686526959,3.43824115854 5.09943828125,3.48699967104 5.09943828125,3.52356855541 C 5.09943828125,3.56013743979 5.07201129291,3.60584952043 5.03849014063,3.6241333125 C 5.00192125625,3.6424184048 4.977542,3.68812918521 4.977542,3.73079223354 C 4.977542,3.77345658209 4.95316274375,3.8191673625 4.91659385938,3.8374524548 C 4.87088307896,3.86183171105 4.85564571875,3.90144702729 4.85564571875,3.98677442416 C 4.85564571875,4.062959925 4.83431419459,4.12086033354 4.79469757812,4.15742921791 C 4.75203322957,4.19704583437 4.7337494375,4.25189981105 4.7337494375,4.34941683605 C 4.7337494375,4.43169650084 4.70937018125,4.52311806166 4.67280129688,4.58711393438 C 4.61490088834,4.67853679543 4.60880542416,4.73643720396 4.60880542416,5.36115597043 C 4.60880542416,5.98587343666 4.61490088834,6.0437738452 4.67280129688,6.13519670625 C 4.71546564543,6.208334475 4.7337494375,6.2875664077 4.7337494375,6.41860588521 C 4.7337494375,6.56183369062 4.74593906563,6.61363993521 4.79469757812,6.65630298354 C 4.8312664625,6.68982543605 4.85564571875,6.75077357668 4.85564571875,6.81476814916 C 4.85564571875,6.87876402187 4.87697724291,6.93666443041 4.91659385938,6.96713915084 C 4.95011501166,6.99761257104 4.977542,7.05246654771 4.977542,7.08903543209 C 4.977542,7.12865204855 5.00496898834,7.183504725 5.03849014063,7.21093171334 C 5.07201129291,7.24140513354 5.09943828125,7.29625911021 5.09943828125,7.33282799459 C 5.09943828125,7.36939687896 5.12686526959,7.41510765938 5.16038642187,7.43339275168 C 5.19390757416,7.45167654375 5.2213345625,7.49129316021 5.2213345625,7.5248143125 C 5.2213345625,7.55833546479 5.24876155084,7.59795208125 5.28228270313,7.61623717355 C 5.31580385541,7.63452096562 5.34323084375,7.66804211791 5.34323084375,7.69242137416 C 5.34323084375,7.71680063041 5.37065783209,7.7503217827 5.40417898438,7.768606875 C 5.43770013666,7.7868919673 5.465127125,7.82650728354 5.465127125,7.86002973605 C 5.465127125,7.89355088834 5.49255411334,7.93316620457 5.52607526562,7.95145129688 C 5.55959641791,7.96973638918 5.58702340625,7.99716207729 5.58702340625,8.0123994375 C 5.58702340625,8.02763679771 5.66625663918,8.12210609062 5.76682009604,8.22267084771 C 5.86433712104,8.32018787271 5.95271225,8.42379906166 5.96185414604,8.45122605 C 5.97404377416,8.47865303834 6.0014707625,8.4999845625 6.02889775084,8.4999845625 C 6.05327700709,8.4999845625 6.07460853125,8.51522192271 6.07460853125,8.53350571479 C 6.07460853125,8.55179080709 6.15688819604,8.6462601 6.25745295313,8.74682485709 C 6.35801771021,8.84434188209 6.440297375,8.93271701105 6.440297375,8.94185890709 C 6.440297375,8.96623816334 6.5865729125,9.10032407271 6.635331425,9.11860786479 C 6.66275841334,9.13079749291 6.6840899375,9.15822448125 6.6840899375,9.1826037375 C 6.6840899375,9.20698299375 6.71151692584,9.23745771418 6.74503807813,9.24659961021 C 6.77855923041,9.25574150625 6.80598621875,9.28621622668 6.80598621875,9.31059548293 C 6.80598621875,9.33192700709 6.83341320709,9.36849589146 6.86693435938,9.38982741562 C 6.90045551166,9.41115893979 6.9278825,9.44163366021 6.9278825,9.45687102043 C 6.9278825,9.46906064855 7.01016216479,9.56048220937 7.11072692188,9.65799923438 C 7.21129167896,9.75551625937 7.29357134375,9.84998555229 7.29357134375,9.87131837668 C 7.29357134375,9.90483952896 7.18081695854,10.0175939142 6.58047744832,10.5935528679 C 6.43724964291,10.7306865094 6.31840109375,10.8586782548 6.31840109375,10.8739143148 C 6.31840109375,10.889151675 6.29097410541,10.9135309312 6.25745295313,10.9226728273 C 6.22393180084,10.9318160236 6.1965048125,10.9592417117 6.1965048125,10.977526804 C 6.1965048125,10.9988583281 6.14165083582,11.0628542008 6.07460853125,11.1207546094 C 6.00756492645,11.1786550179 5.95271225,11.2426508906 5.95271225,11.2639824148 C 5.95271225,11.2853152392 5.92528526166,11.3157886594 5.89176410937,11.3340737517 C 5.85824295709,11.3523575437 5.83081596875,11.385878696 5.83081596875,11.4102579523 C 5.83081596875,11.4346372085 5.80338898041,11.4681596611 5.76986782813,11.4864434531 C 5.73634667584,11.5047285454 5.7089196875,11.5412974298 5.7089196875,11.57177085 C 5.7089196875,11.5991978383 5.68149269916,11.6418608867 5.64797154688,11.6631937111 C 5.61445039459,11.6845252352 5.58702340625,11.7271882835 5.58702340625,11.7607107361 C 5.58702340625,11.7911841563 5.55959641791,11.8338485048 5.52607526562,11.8521322969 C 5.49255411334,11.8704173892 5.465127125,11.9100327054 5.465127125,11.9435551579 C 5.465127125,11.9770763102 5.43770013666,12.0166929267 5.40417898438,12.0349767187 C 5.37065783209,12.0532618111 5.34323084375,12.0989725915 5.34323084375,12.1355414758 C 5.34323084375,12.1721103602 5.31580385541,12.2208688727 5.28228270313,12.2422003969 C 5.24876155084,12.263531921 5.2213345625,12.3122904335 5.2213345625,12.3549547821 C 5.2213345625,12.3976178304 5.19695530625,12.4433299111 5.16038642187,12.4616137031 C 5.11772207332,12.4829452273 5.09943828125,12.5256095758 5.09943828125,12.5956996125 C 5.09943828125,12.6566477531 5.075059025,12.7175958938 5.03849014063,12.751117046 C 5.00192125625,12.7846394986 4.977542,12.8455876392 4.977542,12.9034880477 C 4.977542,12.9583407242 4.95011501166,13.0314784929 4.91659385938,13.0710951094 C 4.87392951082,13.1198536219 4.85564571875,13.1838494946 4.85564571875,13.2935561477 C 4.85564571875,13.3971673367 4.83431419459,13.4794483017 4.78860211395,13.5525860704 C 4.72460754146,13.6561972594 4.72460754146,13.6836242477 4.72765397332,14.6008940892 C 4.73070170541,15.5029265704 4.73070170541,15.5425418867 4.79164984604,15.6187273875 C 4.83736062645,15.676627796 4.85564571875,15.7436714008 4.85564571875,15.8594722179 C 4.85564571875,15.9783220673 4.87088307896,16.0301270117 4.91659385938,16.0727913602 C 4.96535237187,16.1154544085 4.977542,16.1672606531 4.977542,16.3013465625 C 4.977542,16.4354324719 4.98973162812,16.4872387165 5.03849014063,16.5299017648 C 5.07810675709,16.5664706492 5.09943828125,16.6243723579 5.09943828125,16.6975101267 C 5.09943828125,16.7706478954 5.12076980541,16.828548304 5.16038642187,16.8651171883 C 5.20609720229,16.9047338048 5.2213345625,16.9595864812 5.2213345625,17.0631989704 C 5.2213345625,17.1668101594 5.23657192271,17.2216641361 5.28228270313,17.2612794523 C 5.32494575145,17.3008960687 5.34323084375,17.3557500454 5.34323084375,17.4502193383 C 5.34323084375,17.5233571071 5.37065783209,17.6361114923 5.40417898438,17.7031537969 C 5.45293749688,17.8006708219 5.465127125,17.8829504867 5.465127125,18.1541700375 C 5.465127125,18.4467211125 5.45903166082,18.4924318929 5.40417898438,18.5411904054 C 5.37065783209,18.5716651258 5.34323084375,18.6173759063 5.34323084375,18.6417551625 C 5.34323084375,18.7636514437 4.94097311563,19.0165859023 4.57528427188,19.1232461236 C 4.489956875,19.1506718117 4.38025022188,19.1994303242 4.33149170937,19.2359992085 C 4.25225847645,19.2939009173 4.2461643125,19.3121847094 4.2461643125,19.5194083875 L 4.2461643125,19.7388216938 L 4.36196512957,19.8119594625 L 4.47471951479,19.8820494992 L 6.47077209543,19.8820494992 C 8.58871965709,19.8820494992 8.58871965709,19.8820494992 8.71366367043,19.8150071946 C 9.06411515396,19.6260673085 9.31400188041,19.0988655671 9.39932927729,18.3583459835 C 9.4328517298,18.0505575483 9.4145666375,17.7945766579 9.3353347048,17.4593612344 C 9.20124879543,16.9047325046 9.00926117729,16.5512345892 8.44853828354,15.8289987977 C 7.43070498521,14.5155653921 7.24481283125,14.2260620492 7.08939539771,13.7384769242 C 7.01625762896,13.5038262577 7.01016216479,13.4398316852 7.01016216479,12.9796735486 C 7.01016216479,12.5073244835 7.01320989688,12.4555182389 7.10158502584,12.1507788361 C 7.24481283125,11.6540505148 7.5434580702,11.1238023415 7.84210460938,10.8312512665 C 7.96400089062,10.7124027173 7.96400089062,10.7124027173 8.00971167104,10.7763972898 C 8.03409092729,10.8129661742 8.10418096395,10.8708678829 8.16208267271,10.9074367673 C 8.21998308125,10.9440043514 8.26874159375,10.9866687 8.26874159375,11.0019060602 C 8.26874159375,11.0171434204 8.37844824688,11.1420861335 8.51253415625,11.2761720429 C 8.64662006563,11.4133056844 8.75632671875,11.5321542335 8.75632671875,11.5382496977 C 8.75632671875,11.5473915937 8.86603337187,11.660145979 9.00011928125,11.7911841563 C 9.13420519063,11.9222223335 9.24391184375,12.0349767187 9.24391184375,12.0441186148 C 9.24391184375,12.050214079 9.38104548521,12.1964896165 9.54865254688,12.3671444102 C 9.71625960854,12.537799204 9.85339325,12.6840747415 9.85339325,12.6932166375 C 9.85339325,12.7023585335 10.0453795679,12.9004403156 10.2800302344,13.13204325 C 10.5146809008,13.3636461844 10.7066672188,13.5617279665 10.7066672188,13.5678221304 C 10.7066672188,13.5739175946 10.8438008602,13.7201931321 11.0114079219,13.8938956579 C 11.1790149835,14.0645504517 11.316148625,14.2108259892 11.316148625,14.2169201531 C 11.316148625,14.2260620492 11.4563286983,14.3723375867 11.6300312242,14.5460401125 C 11.9500092875,14.8660181758 12.3583611796,15.3078925204 12.4741632969,15.4572144898 C 12.5107321812,15.5029265704 12.5533952296,15.5394954548 12.574728054,15.5394954548 C 12.6082492063,15.5394954548 14.9638951665,13.1625179704 15.012653679,13.0802370054 C 15.030937471,13.0528113173 15.0065582148,12.9949096085 14.9364681781,12.9095822117 C 14.2843224233,12.0989725915 14.055767221,11.2670301469 14.1837589665,10.1912951398 C 14.2629908992,9.51172369687 14.5006892977,8.95100080313 15.1162648679,7.98497244916 L 15.2381611492,7.79298613125 L 15.305204754,7.89964505229 C 15.3417736383,7.95754546082 15.3905321508,8.01544716959 15.4149114071,8.02458906563 C 15.4392906633,8.03373096166 15.4606221875,8.07334757812 15.4606221875,8.11296419459 C 15.4606221875,8.15562724291 15.4819537117,8.24705010396 15.5063329679,8.32018787271 C 15.5429018523,8.42379906166 15.5459495844,8.47255757416 15.518522596,8.55483853918 C 15.4910969079,8.64016593605 15.4941433398,8.67368708834 15.5398554204,8.7620622173 C 15.6190873531,8.9083377548 15.7806002508,8.95100080313 15.9664924048,8.88091076646 C 16.1371471986,8.81691489375 16.191999875,8.743777125 16.4053190173,8.30190278041 C 16.6216845915,7.85698200396 16.7222480483,7.5430994048 16.7831961889,7.12255658438 C 16.8441443296,6.72029885625 16.8441443296,6.44298514146 16.786243921,6.0803440298 C 16.6734895358,5.38248749459 16.3687488327,4.85528575312 15.8476425554,4.453028025 C 15.6526085054,4.30065832355 15.225971521,4.07514955312 15.0157014111,4.01115368041 C 14.8846619335,3.97153836418 14.6926756156,3.90754249146 14.5006892977,3.8374524548 C 14.4671681454,3.82526282668 14.3208926079,3.75821922188 14.1746170704,3.68812918521 C 13.6992215736,3.45957398293 13.5011397915,3.14873781563 13.4371439188,2.53011451334 C 13.4005750344,2.1613779375 13.3701003139,2.08519243666 13.2512517648,2.03948165625 C 13.1171658554,1.99072314375 13.0653596108,1.98767541166 12.9526065258,2.02729202812 Z M 16.4357924375,12.8577772673 C 16.4114131812,12.8730133273 16.3596069367,12.8882506875 16.3260857844,12.8882506875 C 16.2895169,12.8882506875 16.2255210273,12.9065357798 16.182857979,12.927867304 C 16.0822932219,12.9796735486 15.8263110313,13.1990855546 15.8263110313,13.2356544389 C 15.8263110313,13.2691768915 15.3966263148,13.6805765156 15.3631051625,13.6805765156 C 15.3509155344,13.6805765156 15.3387259062,13.6988616079 15.3387259062,13.7171454 C 15.3387259062,13.7384769242 15.2808254977,13.805520529 15.2107341608,13.8634209375 C 15.1436918562,13.921321346 15.0553167273,13.9975068469 15.0187478429,14.0340757312 C 14.9791312264,14.0706446156 14.9273262821,14.1072135 14.8998992938,14.116355396 C 14.8724723054,14.1285450242 14.8511407813,14.1559720125 14.8511407813,14.1803512687 C 14.8511407813,14.204730525 14.8237137929,14.2352052454 14.7901926406,14.2443471415 C 14.7566714883,14.2534890375 14.7292445,14.2748205617 14.7292445,14.2900579219 C 14.7292445,14.3144371781 14.2172801187,14.8385911875 14.1929008625,14.8385911875 C 14.1746157702,14.8385911875 13.266489125,15.7497655648 13.266489125,15.7680506571 C 13.266489125,15.7924299133 13.0775492389,15.9661324392 13.0501235508,15.9661324392 C 13.0348861906,15.9661324392 13.0226965625,15.9844162312 13.0226965625,16.0057477554 C 13.0226965625,16.0270805798 12.9952695742,16.0606017321 12.9617484219,16.0819332563 C 12.9282272696,16.1032647804 12.9008002813,16.1367872329 12.9008002813,16.1581187571 C 12.9008002813,16.1764025492 12.8459463046,16.243446154 12.778904,16.3013465625 C 12.7118603952,16.359246971 12.6570077188,16.4232428437 12.6570077188,16.4445743679 C 12.6570077188,16.4628594602 12.6295807304,16.4902864486 12.5960595781,16.4994283446 C 12.5625384258,16.5085702406 12.5351114375,16.5390449611 12.5351114375,16.5634242173 C 12.5351114375,16.5878034736 12.5198740773,16.6060872656 12.5015902852,16.6060872656 C 12.4680678327,16.6060872656 12.291318875,16.7706478954 12.291318875,16.8011213156 C 12.291318875,16.8315960361 11.8616341585,17.2460433923 11.8342084704,17.2460433923 C 11.8159233781,17.2460433923 11.80373375,17.2582317202 11.80373375,17.2765168125 C 11.80373375,17.2917541727 11.5843204438,17.5264048392 11.316148625,17.7976230898 C 11.0479768063,18.0657949085 10.8285635,18.300445575 10.8285635,18.3156829352 C 10.8285635,18.3309202954 10.8163738719,18.3431099236 10.8011365117,18.3431099236 C 10.7584734633,18.3431099236 10.2190820937,18.8885954571 10.2190820937,18.9343062375 C 10.2190820937,18.9556377617 10.1916551054,18.9983021102 10.1581339531,19.0287755304 C 10.1063277085,19.0775340429 10.0971858125,19.1232461236 10.0971858125,19.3700851179 C 10.0971858125,19.6169254125 10.1063277085,19.6595897611 10.1581339531,19.7053005415 C 10.1916551054,19.7357739617 10.2190820937,19.7753905781 10.2190820937,19.7967221023 C 10.2190820937,19.8211013585 10.3105049548,19.9216661156 10.4202116079,20.0283250367 C 10.5847709375,20.1806960383 11.1363519352,20.7353234679 11.3466233454,20.9608322383 C 11.3740490335,20.9882592267 11.4593764304,21.0644434273 11.5386096633,21.1314870321 C 11.617841596,21.1985293367 11.6818374688,21.2655729415 11.6818374688,21.2777625696 C 11.6818374688,21.332615246 12.2791292469,21.8902917079 12.3949300639,21.9420966523 C 12.5137799133,21.996950629 12.6356761946,21.9999983611 14.6926756156,21.9999983611 L 16.8624294219,21.9999983611 L 16.8624294219,21.7744895906 C 16.8624294219,21.5550762844 16.8593816898,21.5489821204 16.7710078611,21.5124132361 C 16.7131061523,21.4880339798 16.6125413952,21.4819385156 16.475409054,21.4971758758 C 16.0609616977,21.5367911921 15.2412088813,21.527649296 15.0736018196,21.4788907835 L 14.915136654,21.4362277352 L 15.8202155671,20.5220056258 C 16.9995630633,19.3304685014 18.0783445023,18.2303555383 18.9529499952,17.316133429 C 19.5715745977,16.6731295702 19.6660438906,16.5634229171 19.711754671,16.4232428437 C 19.7818447077,16.2129714335 19.7635609156,15.9569892429 19.6629961585,15.7710983892 C 19.5471953415,15.5547315148 16.9568987148,12.9248195719 16.8319547014,12.9004403156 C 16.7892916531,12.8912984196 16.7252957804,12.8699655952 16.6856791639,12.8547295352 C 16.5973053352,12.8181606508 16.493692846,12.8212070827 16.4357924375,12.8577772673 Z M 16.6673953719,13.424594325 C 16.87461905,13.5647756986 16.9203298304,13.6043910148 16.9233775625,13.628770271 C 16.9233775625,13.6592449915 18.1484345389,14.8751600719 18.2916636446,14.9909621892 C 18.3434685889,15.0336252375 18.3861329375,15.0762895861 18.3861329375,15.091525646 C 18.3861329375,15.1250480986 18.8097221898,15.5394954548 18.8432433421,15.5394954548 C 18.8615284344,15.5394954548 18.8737180625,15.5516850829 18.8737180625,15.569968875 C 18.8737180625,15.5852062352 18.9285707389,15.6552962719 18.9956143437,15.7223398767 C 19.0626566483,15.7893821812 19.117510625,15.8594722179 19.117510625,15.8747095781 C 19.117510625,15.8899469383 19.1449376133,15.9173739267 19.1784587656,15.9356577188 C 19.2302650102,15.9630847071 19.2394069063,15.9996535915 19.2394069063,16.1855457454 L 19.2394069063,16.4019113196 L 18.8737180625,16.7645524312 C 18.6725885483,16.9656819454 18.5080292187,17.139383171 18.5080292187,17.1546205312 C 18.5080292187,17.1698578915 18.4806022304,17.1911894156 18.4470810781,17.2003313117 C 18.4135599258,17.2094745079 18.3861329375,17.236900196 18.3861329375,17.2612794523 C 18.3861329375,17.2856587085 18.3587059492,17.3130856969 18.3251847969,17.3222275929 C 18.2916636446,17.3313707892 18.2642366562,17.3557500454 18.2642366562,17.3709861054 C 18.2642366562,17.3862234656 17.9076897085,17.7549600415 17.4719108281,18.1907389219 C 17.0361319477,18.6265178023 16.679585,18.9952543781 16.679585,19.0104917383 C 16.679585,19.0257290986 16.6521580117,19.0470606227 16.6216845915,19.0592502508 C 16.5881621389,19.0683921469 16.5546409867,19.0958191352 16.5454990906,19.1201983915 C 16.5363571946,19.1445776477 16.5028347421,19.1659091719 16.4723613219,19.1659091719 C 16.4388401696,19.1659091719 16.396175821,19.187240696 16.3748442969,19.2116199523 C 16.3535127727,19.2359992085 16.3260857844,19.2573320329 16.3138961562,19.2573320329 C 16.3017065281,19.2573320329 15.9756343008,18.9373539696 15.5947080969,18.5472858696 C 15.2107341608,18.1602655017 14.5616374383,17.5020255829 14.153284246,17.0906246585 C 13.744932354,16.6761773023 13.4158123946,16.3257258188 13.4219065585,16.3074420267 C 13.4280020227,16.2922046665 14.0862419415,15.6187273875 14.8816142014,14.8111641992 C 16.2620899117,13.415452429 16.3352276804,13.3453623923 16.4388401696,13.3453623923 C 16.5089302062,13.3453623923 16.5942576031,13.3758358125 16.6673953719,13.424594325 Z"/></svg>
