<svg xmlns="http://www.w3.org/2000/svg" width="24" height="24" viewBox="0 0 24 24"><path d="M 7.8468815397,2.01663728657 C 7.68757835498,2.04997837998 7.3837939375,2.26114654155 7.3837939375,2.3389455875 C 7.3837939375,2.3500592853 7.31710858935,2.42785833125 7.23560603125,2.50936088935 C 7.15410347315,2.59086502813 7.087418125,2.67977777187 7.087418125,2.7057102603 C 7.087418125,2.7316443294 7.05407545093,2.77239560845 7.01332417187,2.79832809688 C 6.97257289282,2.8242605853 6.93923021875,2.86871695718 6.93923021875,2.89835453843 C 6.93923021875,2.92799211968 6.90588754468,2.96874339873 6.86513626562,2.990972375 C 6.82438498657,3.0131997706 6.7910423125,3.0613612353 6.7910423125,3.10211251435 C 6.7910423125,3.14286537407 6.75769963843,3.1910252581 6.71694835938,3.21325423438 C 6.6724919875,3.23548162998 6.64285440625,3.29105328032 6.64285440625,3.34291825718 C 6.64285440625,3.3947848147 6.613216825,3.45035488438 6.56876045312,3.47258227998 C 6.52059898843,3.49851634907 6.4946665,3.55038132593 6.4946665,3.61706667407 C 6.4946665,3.67263674375 6.46132382593,3.7504357897 6.42057254687,3.78748197593 C 6.37241108218,3.8319383478 6.34647859375,3.90232878877 6.34647859375,3.99494504468 C 6.34647859375,4.09867657905 6.3279547103,4.14683804375 6.27238464062,4.176475625 C 6.2094043853,4.20981829907 6.1982906875,4.25427467095 6.1982906875,4.46544283252 C 6.1982906875,4.62103934375 6.16865310625,4.79515973843 6.12419673438,4.92852885405 C 6.06492157187,5.09524064375 6.05010278125,5.2323148522 6.05010278125,5.61389831562 C 6.05010278125,6.0362330581 6.05751138623,6.10291840625 6.12419673438,6.18812605718 C 6.17606171123,6.25481140532 6.1982906875,6.33631396343 6.1982906875,6.48450186968 C 6.1982906875,6.63268977593 6.21681457095,6.70678372905 6.27238464062,6.76976398438 C 6.31313591968,6.81792544907 6.34647859375,6.89572291435 6.34647859375,6.94388437905 C 6.34647859375,6.98834075093 6.37982126782,7.06243470405 6.42057254687,7.10318756377 C 6.46132382593,7.14393884282 6.4946665,7.22544140093 6.4946665,7.28101305127 C 6.4946665,7.34028821377 6.52800917407,7.41808567905 6.56876045312,7.45513344595 C 6.60951173218,7.49217963218 6.64285440625,7.5440461897 6.64285440625,7.57368377095 C 6.64285440625,7.67000511968 6.85402256782,7.9330382581 7.16151207812,8.22200546562 C 7.32822386782,8.38130706968 7.4801168669,8.51097267315 7.49863916968,8.51097267315 C 7.51716305312,8.51097267315 7.53198184375,8.53690516157 7.53198184375,8.56654274282 C 7.53198184375,8.59618032407 7.56532451782,8.63693160312 7.60607579687,8.6591605794 C 7.64682707593,8.681387975 7.68016975,8.71473064907 7.68016975,8.73695804468 C 7.68016975,8.75548192812 7.94690798125,9.03703895 8.272921375,9.36305234375 C 8.59893476875,9.6890657375 8.865673,9.96321257373 8.865673,9.9743278522 C 8.865673,9.98544155 8.95088065093,10.0817628987 9.0546121853,10.1854944331 C 9.18798130093,10.3188651294 9.22873416065,10.3855488969 9.20280009155,10.4114813853 C 9.18057269595,10.4337103616 9.1620488125,10.4781667334 9.1620488125,10.5115094075 C 9.1620488125,10.5818982678 9.0434984875,10.6745145237 8.7360089772,10.8449314062 C 8.51372711782,10.9671868241 8.272921375,11.1783549856 8.272921375,11.2487438459 C 8.272921375,11.2709712416 8.23957870093,11.3043139156 8.19882742187,11.3265428919 C 8.15807614282,11.3487702875 8.12473346875,11.3858180544 8.12473346875,11.4117505428 C 8.12473346875,11.4376830312 8.0580481206,11.5080718916 7.9765455625,11.5710521469 C 7.8950430044,11.6303273094 7.82835765625,11.6970126575 7.82835765625,11.7155349603 C 7.82835765625,11.7377639366 7.79501498218,11.7748101228 7.75426370312,11.8007441919 C 7.71351242407,11.8266766803 7.68016975,11.8674279594 7.68016975,11.8933604478 C 7.68016975,11.9192945169 7.64682707593,11.9600457959 7.60607579687,11.9859782844 C 7.56532451782,12.0119107728 7.53198184375,12.0563671447 7.53198184375,12.0860047259 C 7.53198184375,12.1156423072 7.49863916968,12.1563935862 7.45788789062,12.1786225625 C 7.41713661157,12.2008515388 7.3837939375,12.2564216084 7.3837939375,12.3008779803 C 7.3837939375,12.3453343522 7.35045126343,12.4046095147 7.30969998438,12.4305420031 C 7.26894870532,12.4564744916 7.23560603125,12.5083410491 7.23560603125,12.5490923281 C 7.23560603125,12.586140095 7.20226335718,12.6380050719 7.16151207812,12.6602340481 C 7.12076079907,12.6824614438 7.087418125,12.7343280013 7.087418125,12.7713741875 C 7.087418125,12.8121254666 7.05407545093,12.8639920241 7.01332417187,12.8899245125 C 6.97257289282,12.9158570009 6.93923021875,12.9714270706 6.93923021875,13.0121799303 C 6.93923021875,13.0529312094 6.90588754468,13.1159114647 6.86513626562,13.1529576509 C 6.82438498657,13.186300325 6.7910423125,13.2603942781 6.7910423125,13.3196694406 C 6.7910423125,13.3789446031 6.75769963843,13.4567436491 6.71694835938,13.4937898353 C 6.67619708032,13.5308376022 6.64285440625,13.5975213697 6.64285440625,13.6419777416 C 6.64285440625,13.6864341134 6.60951173218,13.7531194616 6.56876045312,13.7901656478 C 6.52430408125,13.8309185075 6.4946665,13.9050124606 6.4946665,13.9754013209 C 6.4946665,14.0457901812 6.46502891875,14.1198841344 6.42057254687,14.1606354134 C 6.3650024772,14.2125019709 6.34647859375,14.2754822263 6.34647859375,14.4273736447 C 6.34647859375,14.5496290625 6.32054610532,14.6755895731 6.28349833843,14.7459784334 C 6.22792826875,14.846004875 6.21681457095,14.9904876884 6.20569929248,15.7277237075 C 6.19458559468,16.5427571919 6.1982906875,16.5983272616 6.2686795478,16.7391049822 C 6.32054610532,16.8354279116 6.34647859375,16.9539782366 6.34647859375,17.0836422594 C 6.34647859375,17.2318301656 6.3650024772,17.2948104209 6.42057254687,17.3466753978 C 6.47243752373,17.3948368625 6.4946665,17.4615222106 6.4946665,17.5689572572 C 6.4946665,17.6726887916 6.52059898843,17.7541929303 6.56876045312,17.809763 C 6.62062542998,17.8727432553 6.64285440625,17.9468372084 6.64285440625,18.0876149291 C 6.64285440625,18.2320977425 6.6613782897,18.2950779978 6.71694835938,18.3469445553 C 6.77251842905,18.3988095322 6.7910423125,18.4617897875 6.7910423125,18.6025675081 C 6.7910423125,18.7211194138 6.82067989375,18.8507834366 6.86513626562,18.9396961803 C 6.9095926375,19.0249038313 6.93923021875,19.1619780397 6.93923021875,19.2731181791 C 6.94293531157,19.3731462013 6.96516270718,19.4991051313 6.99480028843,19.5509716888 C 7.06518914873,19.6732255259 7.06518914873,19.8510510134 6.99480028843,19.94366885 C 6.96516270718,19.9807166169 6.93923021875,20.0585140822 6.93923021875,20.1140857325 C 6.93923021875,20.1770644072 6.9095926375,20.2289309647 6.86513626562,20.2548634531 C 6.82438498657,20.2770924294 6.7910423125,20.3141386156 6.7910423125,20.3326624991 C 6.7910423125,20.4363940334 6.54653147685,20.5623529634 6.25386075718,20.6142195209 C 6.10567285093,20.6364469166 5.91673366563,20.7216561481 5.74631836377,20.8365013803 C 5.60924415532,20.9291192169 5.6055390625,20.9365278219 5.6055390625,21.1625147741 C 5.6055390625,21.3810915406 5.61294766748,21.4033205169 5.7352030853,21.5107555634 C 5.8426397125,21.6033734 5.901914875,21.6256023763 6.04269417627,21.6293058884 C 6.139015525,21.6293058884 7.28006240313,21.6293058884 8.58411597812,21.6256023763 C 11.1477667563,21.6218972834 11.0181027334,21.6330109812 11.2737272669,21.4181377269 C 11.4182100803,21.2958838897 11.7294046834,20.647562195 11.8146123344,20.2956147322 C 11.9109352638,19.9029175709 11.9257540544,19.2434805978 11.8479550084,18.8989433206 C 11.6886518237,18.17282258 11.4663699644,17.7764203259 10.7810020834,16.979910725 C 10.643927875,16.8169040281 10.3253230862,16.4242068669 10.0734036456,16.1093071709 C 9.16945741748,14.9645552 9.10647874282,14.8200723866 9.11018225498,13.9198312513 C 9.11018225498,13.3159643478 9.1842762081,12.8899245125 9.34728290498,12.5231598397 C 9.42508195093,12.3453343522 9.71404915845,11.9229980291 10.0030147853,11.5636435419 L 10.1845453656,11.3376565897 L 10.2808667144,11.4154556356 C 10.3364383647,11.4562069147 10.4364648063,11.5340059606 10.5105587594,11.5858709375 C 10.5809476197,11.637737495 10.6476329678,11.7081263553 10.6550415728,11.7414690294 C 10.6661552706,11.7785152156 10.6994979447,11.8081527969 10.7291355259,11.8081527969 C 10.7587731072,11.8081527969 10.7921157813,11.8414954709 10.8032294791,11.88224675 C 10.8143431769,11.9229980291 10.8476858509,11.9563407031 10.881028525,11.9563407031 C 10.9143711991,11.9563407031 10.9403036875,11.9785696794 10.9403036875,12.000797075 C 10.9403036875,12.0267295634 11.0588540125,12.1563951669 11.2033368259,12.2897642825 C 11.34782122,12.4231333981 11.8590687063,12.9195620937 12.3406786112,13.3900583009 C 12.8222900969,13.8642596009 13.2446248394,14.2754822263 13.2742624206,14.3051198075 C 13.3039000019,14.3347573888 13.5372971397,14.5644478531 13.7892165803,14.8163672937 C 14.0411360209,15.0645816416 15.0673360862,16.0944883803 16.0750154294,17.09846105 C 17.0826931919,18.1024337197 17.9051352813,18.9396961803 17.9051352813,18.9582200638 C 17.9051352813,18.9767423666 17.9384779553,19.0026764356 17.9792292344,19.0137901334 C 18.0199805134,19.0249038313 18.0533231875,19.0693602031 18.0533231875,19.10640797 C 18.0533231875,19.1471592491 18.0866658616,19.1953191331 18.1274171406,19.2175481094 C 18.1681684197,19.2397770856 18.2015110937,19.2805283647 18.2015110937,19.3101659459 C 18.2015110937,19.3435070394 18.2348537678,19.3953735969 18.2756050469,19.4287162709 C 18.3163563259,19.4657624572 18.349699,19.5213341075 18.349699,19.5546752009 C 18.349699,19.588017875 18.3830416741,19.6435879447 18.4237929531,19.6806357116 C 18.4645442322,19.7176818978 18.4978869062,19.7732535481 18.4978869062,19.8065946416 C 18.4978869062,19.8399373156 18.5312295803,19.8880987803 18.5719808594,19.9140312688 C 18.6164372312,19.9399637572 18.6460748125,19.9992389197 18.6460748125,20.0659242678 C 18.6460748125,20.1214943375 18.6794174866,20.2067019884 18.7201687656,20.2548634531 C 18.7646251375,20.3030249178 18.7942627188,20.3919376616 18.7942627188,20.4660316147 C 18.7942627188,20.5401255678 18.8276053928,20.6364469166 18.8683566719,20.6883134741 C 18.9313369272,20.7698160322 18.942450625,20.8402064731 18.942450625,21.1476959834 C 18.942450625,21.4700042844 18.9535643228,21.5218708419 19.0165445781,21.5774409116 C 19.0572958572,21.6144870978 19.0906385313,21.6885810509 19.0906385313,21.7478562134 C 19.0906385313,21.833065445 19.1165710197,21.8627030263 19.2499401353,21.9219781888 C 19.6018860175,22.0849848856 19.7760079928,22.0145944447 20.2872554791,21.4996418656 C 20.965214755,20.8253876825 21.3245708228,20.0362866866 21.4283023572,19.0063799478 C 21.4727587291,18.5581127169 21.4208937522,17.6393476981 21.3356845206,17.4170658388 C 21.3060469394,17.3392667928 21.2541819625,17.1762600959 21.2245443813,17.0614148638 C 21.1912017072,16.9465680509 21.0800615678,16.6872400053 20.9763300334,16.4871855416 C 20.7392293834,16.0278030322 20.6614303375,15.9425953812 18.5905047428,13.8457372981 C 17.6754432362,12.9158570009 17.7050808175,12.9825423491 17.7124910031,12.0489585397 C 17.7161960959,11.3561804731 17.7236047009,11.3265428919 18.0051617228,10.6745161044 C 18.2756050469,10.0558304103 18.9128130437,9.12224660093 19.1387999959,9.01851506655 C 19.2610538331,8.95923990405 19.2832828094,8.95923990405 19.4314707156,9.0148115544 C 19.6685713656,9.1074278103 19.6833901562,9.1333618794 19.6870952491,9.4297376919 C 19.6907987612,9.61126669155 19.7130277375,9.7372272022 19.7611892022,9.83354855093 C 19.7982353884,9.90764250405 19.8315780625,10.0002603406 19.8315780625,10.0336030147 C 19.8315780625,10.09658327 20.0538599219,10.2262472928 20.2465042,10.2707036647 C 20.5021287334,10.33368392 20.8207319416,10.0484218053 21.1430402425,9.4630787853 C 21.5283287987,8.76659562593 21.7024507741,8.08122774502 21.6691081,7.39956337627 C 21.6579944022,7.16616623843 21.6246517281,6.88831430937 21.5950141469,6.78828786782 C 21.4245972644,6.2029448478 21.3727322875,6.06957573218 21.2208392884,5.8250664772 C 21.0207864053,5.50275817627 20.6947730116,5.18785848032 20.2724366884,4.90630145845 C 19.9241958991,4.68031450625 19.2351213447,4.32466353125 18.8683566719,4.1875893228 C 18.2904238375,3.97271764907 17.9051352813,3.6541128603 17.6791483291,3.20954914155 C 17.5865304925,3.02431504907 17.5717117019,2.95022109595 17.5717117019,2.6945965625 C 17.5717117019,2.19446277407 17.4642766553,2.02775098437 17.1345581687,2.02775098437 C 16.9530275884,2.02775098437 16.9048661237,2.04627486782 16.7752021009,2.1500064022 C 16.5529202416,2.3278318897 16.2750683125,2.60938891157 16.2750683125,2.65384528345 C 16.2750683125,2.67607267905 16.2417256384,2.71312044595 16.2009743594,2.73905293437 C 16.1602230803,2.7649854228 16.1268804062,2.81685198032 16.1268804062,2.8501946544 C 16.1268804062,2.88724084062 16.0935377322,2.9316972125 16.0527864531,2.95392618877 C 16.0120351741,2.97615358437 15.9786925,3.02431504907 15.9786925,3.06506632812 C 15.9786925,3.10581760718 15.9453498259,3.15397907187 15.9045985469,3.17620804815 C 15.860142175,3.19843544375 15.8305045937,3.25400551343 15.8305045937,3.30587207095 C 15.8305045937,3.3577370478 15.8008670125,3.41330869815 15.7564106406,3.43553609375 C 15.7082491759,3.46146858218 15.6823166875,3.5133351397 15.6823166875,3.58001890718 C 15.6823166875,3.63559055752 15.6489740134,3.7133880228 15.6082227344,3.7504357897 C 15.5637663625,3.79118706875 15.5341287813,3.86528102187 15.5341287813,3.939374975 C 15.5341287813,4.02458262593 15.511899805,4.07644918345 15.4600348281,4.10238167187 C 15.4007596656,4.13572434595 15.385940875,4.18018071782 15.385940875,4.32836862407 C 15.385940875,4.44321385625 15.3563032937,4.5691743669 15.3081418291,4.6617906228 C 15.2414580616,4.79515973843 15.2340478759,4.88036897002 15.2340478759,5.33234129375 C 15.2340478759,5.7880187103 15.2414580616,5.86581775625 15.3081418291,5.97695947627 C 15.3525982009,6.04734833657 15.385940875,6.14737477813 15.385940875,6.19553624282 C 15.385940875,6.24740121968 15.4192835491,6.30297287002 15.4600348281,6.32520026562 C 15.5007861072,6.3474292419 15.5341287813,6.39558912593 15.5341287813,6.43634198565 C 15.5341287813,6.4770932647 15.5674714553,6.5252547294 15.6082227344,6.547482125 C 15.6489740134,6.56971110127 15.6823166875,6.6178709853 15.6823166875,6.65862384502 C 15.6823166875,6.69937512407 15.7156593616,6.74753658877 15.7564106406,6.76976398438 C 15.7971619197,6.79199296065 15.8305045937,6.82903914687 15.8305045937,6.8549716353 C 15.8305045937,6.94388437905 16.2787734053,7.39585828345 16.5269877531,7.55886498032 C 16.7937259844,7.732985375 17.3642486331,8.0182474897 17.6939671197,8.14050290752 C 17.8977250956,8.2183003728 17.9681155366,8.27387202315 17.9607053509,8.34426088345 C 17.9495916531,8.46281120845 17.8792027928,8.58136153345 17.7532422822,8.69991185845 C 17.6717397241,8.77400581157 17.6087594688,8.8480997647 17.6087594688,8.86662364815 C 17.6087594688,8.88514595093 17.5754167947,8.92219371782 17.5346655156,8.94812620625 C 17.4939142366,8.97405869468 17.4605715625,9.0259252522 17.4605715625,9.06667653125 C 17.4605715625,9.1074278103 17.4272288884,9.15929436782 17.3864776094,9.18522685625 C 17.3457263303,9.21115934468 17.3123836562,9.27043450718 17.3123836562,9.31489087905 C 17.3123836562,9.35934725093 17.2790409822,9.41491890127 17.2382897031,9.43714629687 C 17.1975384241,9.45937527315 17.16419575,9.51494534282 17.16419575,9.56310680752 C 17.16419575,9.61126669155 17.1308530759,9.6779520397 17.0901017969,9.71499822593 C 17.0493505178,9.75204599282 17.0160078437,9.82243485312 17.0160078437,9.866891225 C 17.0160078437,9.9150526897 16.9826651697,9.9743278522 16.9419138906,10.0002603406 C 16.8937524259,10.0336030147 16.8678199375,10.0891730844 16.8678199375,10.1669721303 C 16.8678199375,10.2484746884 16.8455909612,10.3003412459 16.7937259844,10.3262737344 C 16.7455645197,10.3522062228 16.7196320313,10.4040727803 16.7196320313,10.4707565478 C 16.7196320313,10.5263281981 16.6862893572,10.6041256634 16.6455380781,10.6411734303 C 16.5973766134,10.6856298022 16.571444125,10.7560186625 16.571444125,10.8412263134 C 16.571444125,10.9153202666 16.5381014509,11.0375756844 16.4973501719,11.1153747303 C 16.4565988928,11.1894686834 16.4232562188,11.2746763344 16.4232562188,11.3043139156 C 16.4232562188,11.3339514969 16.3973237303,11.3635890781 16.3676861491,11.3784078687 C 16.3380485678,11.3895215666 16.3121144987,11.4228642406 16.3121144987,11.4562069147 C 16.3121144987,11.5043683794 16.2972957081,11.5080718916 16.2380205456,11.4747307981 C 16.1639265925,11.4339779384 11.1107189894,6.39558912593 9.84371318125,5.1026508294 L 9.17686760313,4.41728136782 L 8.92865325532,3.91344248657 C 8.66561853623,3.37996602407 8.62486725718,3.21325423438 8.57670579248,2.5760462375 C 8.55447839687,2.29448921562 8.53965960625,2.23891914595 8.45445195532,2.15741500718 C 8.32478635185,2.02775098437 8.06916339907,1.96847582188 7.8468815397,2.01663728657 Z"/><path d="M 3.19748637627,7.68852900312 C 3.07523095845,7.7440990728 2.93815675,7.8996971647 2.93815675,7.97749621065 C 2.93815675,8.02565609468 2.90481407593,8.08122774502 2.86406279687,8.10345514062 C 2.81219623935,8.12938762905 2.78996884375,8.18125418657 2.78996884375,8.25905165185 C 2.78996884375,8.32944209282 2.75662616968,8.41094465093 2.7121697978,8.45910611562 C 2.63807584468,8.53690516157 2.63437233252,8.5850650456 2.63437233252,9.0852004147 C 2.63437233252,9.57422050532 2.6417809375,9.63719917998 2.70846628565,9.70758962095 C 2.7492175647,9.75204599282 2.79367393657,9.82613994595 2.80478763438,9.87059631782 C 2.819606425,9.91134759688 2.85294909907,9.95950906157 2.88258668032,9.97062275938 C 2.91222426157,9.98173645718 2.93815675,10.0076689456 2.93815675,10.0298979219 C 2.93815675,10.0521253175 3.13821121377,10.2707036647 3.38272046875,10.5189180125 C 3.90508323345,11.0486893822 3.92360553623,11.0968508469 3.65686888565,11.2857900322 C 3.41606314282,11.4599104269 3.08634465625,11.7896289134 3.08634465625,11.8600177737 C 3.08634465625,11.889655355 3.05300198218,11.9341117269 3.01225070312,11.9563407031 C 2.96779433125,11.9785680987 2.93815675,12.0341397491 2.93815675,12.0860047259 C 2.93815675,12.1378712834 2.90851916875,12.1934413531 2.86406279687,12.2156687487 C 2.81219623935,12.2416028178 2.78996884375,12.2934677947 2.78996884375,12.3786754456 C 2.78996884375,12.4490658866 2.75662616968,12.5379786303 2.71587489062,12.5861385144 C 2.64918954248,12.6639375603 2.6417809375,12.7232127228 2.6417809375,13.2344617897 C 2.6417809375,13.7420057638 2.64918954248,13.8086895312 2.71587489062,13.8938971822 C 2.75662616968,13.9457637397 2.78996884375,14.0346764834 2.78996884375,14.0939516459 C 2.78996884375,14.1495217156 2.82331151782,14.2458430644 2.86406279687,14.3088233197 C 2.92333795937,14.3977360634 2.93815675,14.4829437144 2.93815675,14.7422733406 C 2.93815675,15.0497628509 2.93445165718,15.0645816416 2.83813030845,15.1349705019 C 2.77885514595,15.1720182688 2.68623730937,15.2238832456 2.62325705405,15.2498173147 C 2.56398189155,15.2720447103 2.47136563565,15.3276163606 2.41949907812,15.3646625469 L 2.32688124155,15.4387565 L 2.4157939853,15.5128504531 C 2.49729812407,15.5832393134 2.55657328657,15.5869444062 3.530908375,15.5869444062 C 4.67566034595,15.5869444062 4.5978613,15.6054682897 4.74604920625,15.3053873844 C 5.0127874375,14.7756160147 4.89053201968,14.1717491112 4.40521702187,13.660501625 C 4.19034534815,13.43080958 4.00881476782,13.19370893 3.87915074502,12.9751321634 C 3.7791227228,12.8047168616 3.77171411782,12.7639655825 3.77171411782,12.4194283053 C 3.77171411782,12.0748910281 3.78282781562,12.0341397491 3.89026444282,11.8266766803 C 3.9569482103,11.7044212625 4.0532711397,11.5562333562 4.10513611655,11.4969581938 L 4.20145904595,11.3895215666 L 4.30519058032,11.4895495888 C 4.36076065,11.5414145656 4.42744599815,11.5858709375 4.45337848657,11.5858709375 C 4.50894855625,11.5858709375 4.716411625,11.7859254013 4.716411625,11.8414954709 C 4.716411625,11.9007706334 6.00194131655,13.17889172 6.06121647905,13.17889172 C 6.0908540603,13.17889172 6.14272061782,13.1085012791 6.18347189687,13.0195885353 C 6.25386075718,12.8639920241 6.9207063353,11.8377903781 7.12076079907,11.5747572397 C 7.1837410544,11.4969581938 7.26894870532,11.3228377991 7.3134050772,11.1857635906 C 7.35786144907,11.0486893822 7.43566049502,10.8708638947 7.48752547188,10.7893613366 C 7.74315000532,10.3818438041 7.91356530718,10.2632934791 7.96172677187,10.4559377572 C 7.99506944595,10.5856033606 8.10991467812,10.5744880822 8.28033156065,10.4263001759 L 8.42110928125,10.3077498509 L 8.03952581782,9.91134759688 C 7.83206274907,9.69647592315 7.40602291377,9.24820711157 7.09112321782,8.92219371782 C 6.76510982407,8.58136153345 6.49096140718,8.325737 6.45391522095,8.325737 C 6.33165980312,8.325737 6.30202222188,8.45169592998 6.32425119815,8.92589722998 L 6.34277350093,9.37416604155 L 6.52059898843,9.57422050532 C 6.61692191782,9.6890657375 6.77622352187,9.82243485312 6.86884135845,9.8780049228 C 7.28376749595,10.1188106656 7.2763573103,10.1076969678 7.25042482187,10.2521797812 C 7.22449233345,10.3781387112 7.09482831065,10.5744880822 6.99109677627,10.6337632447 C 6.96145919502,10.6485820353 6.93923021875,10.7189724763 6.93923021875,10.7856562438 C 6.93923021875,10.8597501969 6.9095926375,10.93384415 6.86513626562,10.9745954291 C 6.82438498657,11.0116431959 6.7910423125,11.0783269634 6.7910423125,11.1227833353 C 6.7910423125,11.1709448 6.7688149169,11.2265148697 6.73917733565,11.2524489388 C 6.7095397544,11.2746763344 6.67990217315,11.3376565897 6.6724919875,11.3858180544 C 6.6613782897,11.4673206125 6.47614261655,11.2932002178 5.25729827315,10.0521268981 C 4.48672116065,9.27043450718 3.82357909468,8.58136153345 3.78653290845,8.52208637095 C 3.71243895532,8.41094465093 3.5420220728,7.9219245603 3.52349977002,7.7700331419 C 3.51608958437,7.69223409595 3.49015709595,7.67741530532 3.38272046875,7.67000511968 C 3.31233160845,7.66630160752 3.22712395752,7.6737102125 3.19748637627,7.68852900312 Z"/></svg>
