<svg xmlns="http://www.w3.org/2000/svg" width="24" height="24" viewBox="0 0 24 24"><path d="M6.251479 2.030505C6.325426 1.989834 6.532479 1.989834 6.613821 2.030505C6.647098 2.048992 6.724742 2.085966 6.780203 2.111847C6.920703 2.1784 7.027927 2.363268 7.027927 2.540742C7.027927 2.625782 7.061203 2.873506 7.098177 3.09165C7.175822 3.54273 7.449427 4.200862 7.678664 4.507744C7.907901 4.810928 14.699972 11.584512 14.711064 11.521657C14.718458 11.48838 14.736945 11.462499 14.755432 11.462499C14.770222 11.462499 14.792406 11.407038 14.803498 11.340486C14.881143 10.911591 14.873748 10.92638 15.01055 10.656472C15.051222 10.567735 15.088196 10.464209 15.088196 10.423537C15.088196 10.386563 15.106683 10.353288 15.12517 10.353288C15.147354 10.353288 15.162143 10.312616 15.162143 10.26455C15.162143 10.212788 15.18063 10.161024 15.199117 10.149932C15.221301 10.13884 15.236091 10.094471 15.236091 10.057498C15.236091 10.020524 15.25088 9.98355 15.26567 9.976155C15.280459 9.96876 15.339617 9.872629 15.395078 9.761708C15.524486 9.499195 15.609525 9.358695 15.690867 9.26626C15.724144 9.225589 15.753722 9.170129 15.753722 9.144247C15.753722 9.118365 15.772209 9.096181 15.790696 9.096181C15.812881 9.096181 15.82767 9.073997 15.82767 9.044418C15.82767 9.014839 15.934894 8.878036 16.067999 8.737536C16.430342 8.356707 16.426643 8.323431 16.012539 8.153352C15.147354 7.794707 14.640814 7.439759 14.237801 6.914732C14.16755 6.822298 14.100998 6.740956 14.089906 6.729864C13.986379 6.637429 13.757142 6.227021 13.757142 6.138284C13.757142 6.101311 13.742352 6.060639 13.723866 6.049548C13.60555 5.9756 13.60555 4.544717 13.723866 4.419007C13.742352 4.40052 13.757142 4.356152 13.757142 4.319178C13.757142 4.282204 13.786721 4.182375 13.827393 4.093638C13.864366 4.008599 13.916129 3.879191 13.942011 3.808941C14.02705 3.564914 14.071419 3.476177 14.097301 3.476177C14.115788 3.476177 14.12688 3.453993 14.12688 3.428111C14.12688 3.405927 14.16755 3.335677 14.219314 3.276519C14.271077 3.217361 14.311748 3.158203 14.311748 3.143414C14.311748 3.128624 14.352419 3.069466 14.404182 3.010309C14.455945 2.95115 14.496616 2.891993 14.496616 2.877203C14.496616 2.803256 15.117775 2.145123 15.188025 2.145123C15.213906 2.145123 15.236091 2.126637 15.236091 2.10815C15.236091 2.085966 15.339617 2.071176 15.472722 2.071176C15.67238 2.071176 15.720447 2.085966 15.798091 2.16361C15.912709 2.278229 15.975565 2.485282 15.975565 2.758887C15.975565 3.272822 16.485802 3.89398 17.166119 4.208257C17.262249 4.252625 17.369474 4.289599 17.399054 4.289599C17.428631 4.289599 17.454514 4.304388 17.454514 4.326572C17.454514 4.345059 17.484093 4.363546 17.521067 4.363546C17.583921 4.363546 18.600698 4.862691 18.637672 4.910757C18.648764 4.925547 18.730106 4.988402 18.818844 5.04756C19.099844 5.236126 19.406725 5.543007 19.5842 5.809218C19.769068 6.090219 19.979818 6.644824 20.038975 7.025653C20.168385 7.827983 19.972424 8.730142 19.488068 9.543563C19.122028 10.164721 18.870605 10.356985 18.54154 10.275642C18.445408 10.249761 18.312304 10.183208 18.24575 10.120353C18.123737 10.016827 18.120041 10.002037 18.120041 9.743221C18.120041 9.443734 18.064579 9.269958 17.916685 9.12576C17.694843 8.900221 17.487789 8.996352 17.10696 9.502892C16.641092 10.120353 16.300934 10.78588 16.156736 11.351578C16.056908 11.758288 16.060604 12.490368 16.164131 12.845316C16.179562 12.896109 16.186943 12.932032 16.198288 12.966656C16.25219 13.13114 16.395582 13.266297 17.916685 14.827106C19.051777 15.991778 19.129423 16.080515 19.336475 16.487226C19.872595 17.526188 19.99091 18.616911 19.691423 19.74461C19.502857 20.458202 19.029593 21.219862 18.497171 21.682032C18.186592 21.944546 18.086763 22.000006 17.898197 22.000006C17.521067 22.000006 17.325106 21.75598 17.291828 21.242044C17.269644 20.916677 17.232672 20.709623 17.191999 20.683743C17.173513 20.672649 17.158724 20.631979 17.158724 20.591309C17.158724 20.554335 17.143934 20.49148 17.125446 20.454506C17.10696 20.421228 17.077381 20.350979 17.055197 20.299215C16.973854 20.09586 16.837051 19.822254 16.663277 19.522768C16.493196 19.226978 16.256565 18.982952 12.725575 15.459357C10.658745 13.399921 8.88031 11.639973 8.776783 11.547538L8.580823 11.381157L8.506875 11.466196C8.314611 11.691735 7.878322 12.312894 7.793283 12.482973C7.741519 12.586499 7.660177 12.812039 7.615809 12.982119C7.382874 13.876882 7.482703 14.771646 7.874625 15.344738C8.126046 15.714476 8.754599 16.502016 9.386849 17.241489C9.756587 17.674082 9.985824 18.0697 10.155903 18.568846C10.292706 18.979254 10.296403 18.997742 10.296403 19.522768C10.3001 20.169807 10.255732 20.358374 9.963639 20.95365C9.782468 21.33448 9.745495 21.382545 9.568021 21.500862L9.37206 21.63027L6.79869 21.622875L4.225319 21.611782L4.12549 21.519348C4.007174 21.408426 3.922135 21.256834 3.922135 21.153309C3.922135 20.912979 4.232714 20.631979 4.498925 20.631979C4.569175 20.631979 4.654214 20.617189 4.691188 20.598703C4.972188 20.458202 5.094202 20.387953 5.131176 20.350979C5.205123 20.280729 5.327136 20.044098 5.327136 19.973846C5.327136 19.936872 5.345623 19.888807 5.367807 19.866623C5.41957 19.814859 5.367807 19.241768 5.293859 19.060596C5.264281 18.990347 5.227307 18.857241 5.134873 18.505991C5.112689 18.424648 5.083109 18.32482 5.06832 18.284149C5.049833 18.243477 5.016557 18.143648 4.990675 18.062305C4.968491 17.980965 4.935215 17.884832 4.916728 17.851557C4.898241 17.814583 4.883451 17.736937 4.883451 17.67778C4.883451 17.614923 4.868662 17.559464 4.850175 17.548372C4.820596 17.526188 4.798412 17.433754 4.750346 17.108385C4.735557 17.034437 4.713372 16.960489 4.694886 16.949398C4.676399 16.938305 4.661609 16.860661 4.661609 16.771923C4.661609 16.686884 4.643122 16.598146 4.624636 16.57966C4.572872 16.527897 4.598754 14.986094 4.657912 14.716186C4.683794 14.605264 4.709675 14.457369 4.724464 14.390817C4.735557 14.324264 4.757741 14.261409 4.776228 14.250317C4.794714 14.239224 4.809504 14.191158 4.809504 14.143093C4.809504 14.095027 4.827991 14.043263 4.846478 14.032171C4.868662 14.021079 4.883451 13.976711 4.883451 13.93604C4.883451 13.86579 4.898241 13.832514 4.986978 13.65504C5.012859 13.606974 5.031346 13.544119 5.031346 13.51454C5.031346 13.484961 5.049833 13.459079 5.06832 13.459079C5.090504 13.459079 5.105294 13.433198 5.105294 13.403619C5.105294 13.351855 5.171846 13.207658 5.216215 13.163289C5.227307 13.152197 5.267978 13.07825 5.312346 12.996908C5.423268 12.778763 5.48982 12.671539 5.537886 12.619776C5.563768 12.590197 5.611834 12.519947 5.648808 12.460789C5.682084 12.397934 5.726452 12.349868 5.741241 12.349868C5.756031 12.349868 5.770821 12.327683 5.770821 12.301802C5.770821 12.27592 5.800399 12.22046 5.837373 12.179789C5.874347 12.142815 5.9409 12.050381 5.992663 11.98013C6.199716 11.676947 7.30523 10.649077 7.419848 10.649077C7.453125 10.649077 7.619506 10.453116 7.619506 10.408748C7.619506 10.390261 7.331111 10.08338 6.979861 9.724734C5.345623 8.068312 5.035044 7.698575 4.850175 7.210522C4.824294 7.140272 4.768833 7.010864 4.731859 6.925824C4.691188 6.837088 4.661609 6.733561 4.661609 6.696588C4.661609 6.655916 4.64682 6.611548 4.624636 6.600456C4.606149 6.589364 4.587662 6.511719 4.587662 6.434074C4.587662 6.356429 4.572872 6.282482 4.554386 6.271389C4.524806 6.252903 4.469346 5.753758 4.473043 5.546705C4.476741 5.465363 4.50632 5.180665 4.572872 4.585389C4.583964 4.474467 4.609846 4.367244 4.628333 4.345059C4.64682 4.326572 4.661609 4.285902 4.661609 4.252625C4.661609 4.219349 4.694886 4.123217 4.735557 4.038177C4.776228 3.956836 4.809504 3.860704 4.809504 3.827427C4.809504 3.797848 4.827991 3.771967 4.846478 3.771967C4.868662 3.771967 4.883451 3.738691 4.883451 3.69802C4.883451 3.657348 4.901938 3.624072 4.920425 3.624072C4.942609 3.624072 4.957399 3.590796 4.957399 3.550125C4.957399 3.509454 4.968491 3.476177 4.986978 3.476177C5.001767 3.476177 5.035044 3.420717 5.064623 3.354164C5.116386 3.239545 5.316044 2.921571 5.36411 2.884598C5.375202 2.873506 5.426965 2.806953 5.475031 2.736703C5.685781 2.437216 5.929808 2.185795 6.088795 2.111847C6.147953 2.085966 6.2219 2.048992 6.251479 2.030505Z"/></svg>
