<svg xmlns="http://www.w3.org/2000/svg" width="24" height="24" viewBox="0 0 24 24"><path d="M9.902992 3.831277C9.944307 3.806488 10.051725 3.789962 10.148128 3.787207C10.365719 3.787207 10.379491 3.809242 10.407034 4.225145C10.426314 4.495069 10.44284 4.566681 10.511698 4.709907C10.704501 5.101021 11.101124 5.390225 11.588639 5.494889C11.737373 5.525187 12.100945 5.679429 12.359851 5.8199C12.60774 5.952107 12.971311 6.274364 13.095256 6.467166C13.19992 6.632426 13.373443 7.045575 13.42302 7.249395C13.450563 7.359568 13.472598 7.604703 13.480862 7.836066C13.500141 8.431001 13.412004 8.819361 13.131062 9.378489C12.963048 9.714517 12.81156 9.923845 12.704142 9.976177C12.50583 10.069824 12.299255 9.923845 12.288239 9.681464C12.277221 9.381243 12.241415 9.260053 12.139504 9.152634C12.081664 9.094793 12.029331 9.04797 12.021069 9.04797C11.993526 9.04797 11.629954 9.673202 11.437152 10.053299C11.147947 10.623444 11.09837 10.805229 11.079089 11.372621C11.03502 12.592787 11.260875 13.094074 12.362605 14.217839C12.624266 14.487763 12.921733 14.821036 13.018134 14.955998C13.243989 15.272746 13.46709 15.738227 13.552474 16.071501C13.87473 17.308193 13.577263 18.528358 12.731685 19.429024L12.52511 19.646616L12.70965 19.709965C12.874909 19.765051 12.954785 19.773314 13.370688 19.773314L13.844432 19.776068L13.927062 19.682421C13.987658 19.613564 14.012446 19.558477 14.012446 19.489618C14.012446 19.434532 14.037235 19.351902 14.067533 19.307833C14.09783 19.261009 14.12262 19.203169 14.12262 19.175625C14.12262 19.150837 14.152917 19.112276 14.191478 19.095751C14.26309 19.065453 14.323685 19.095751 14.546785 19.274782L14.626661 19.340885L14.455893 19.48411C14.359491 19.561232 14.224529 19.654879 14.152917 19.690685C14.081305 19.72649 13.935325 19.820137 13.825152 19.894505C13.450563 20.153412 13.084238 20.249813 12.671089 20.200235C12.26345 20.150658 11.844791 19.963364 11.806231 19.811874C11.795214 19.770559 11.767671 19.715473 11.742882 19.690685C11.707075 19.654879 11.698812 19.575003 11.698812 19.230713C11.698812 18.858877 11.693304 18.803791 11.643726 18.729425C11.610674 18.682602 11.588639 18.599972 11.588639 18.536621C11.588639 18.459501 11.572114 18.409924 11.533553 18.376871C11.503256 18.352081 11.478466 18.302504 11.478466 18.266699C11.478466 18.230892 11.453677 18.17856 11.42338 18.151016C11.393083 18.123472 11.368294 18.073895 11.368294 18.03809C11.368294 18.002283 11.343505 17.960968 11.313207 17.944443C11.282909 17.927916 11.258121 17.8866 11.258121 17.85355C11.258121 17.820498 11.233332 17.776428 11.203033 17.757147C11.172736 17.737867 11.147947 17.704815 11.147947 17.682781C11.147947 17.660746 11.123158 17.630449 11.092861 17.613922C11.062563 17.597397 11.037774 17.56159 11.037774 17.531294C11.037774 17.500996 11.012985 17.465189 10.982688 17.448664C10.952391 17.432137 10.927601 17.40184 10.927601 17.379805C10.927601 17.357771 10.902812 17.327473 10.872515 17.310947C10.842217 17.29442 10.817429 17.264124 10.817429 17.242088C10.817429 17.220055 10.79264 17.189756 10.762341 17.173231C10.732044 17.156704 10.707255 17.131916 10.707255 17.118145C10.707255 17.093355 10.467628 16.834448 10.101304 16.457106C10.002148 16.355196 9.729469 16.071501 9.495352 15.826365C9.261234 15.578476 8.941732 15.247957 8.78749 15.090961C8.630493 14.933964 8.503795 14.801756 8.503795 14.796247C8.503795 14.782475 8.046576 14.305978 7.512238 13.757867C7.322189 13.565063 7.04951 13.281368 6.906286 13.127126C6.763061 12.97013 6.542715 12.741521 6.41877 12.612067C6.292071 12.485368 6.190161 12.37795 6.190161 12.369686C6.190161 12.364178 6.115794 12.284303 6.024901 12.196164C5.934009 12.108026 5.859642 12.025395 5.859642 12.00887C5.859642 11.995098 5.818327 11.948275 5.768749 11.90696C5.721926 11.865644 5.628279 11.788524 5.567683 11.733438L5.454756 11.637036L5.344583 11.752718C5.058133 12.06671 4.774437 12.540455 4.719351 12.799361C4.700071 12.893008 4.664265 13.02797 4.644984 13.096828C4.595407 13.262088 4.595407 14.019527 4.644984 14.226102C4.697316 14.443694 4.837787 14.799002 4.920417 14.928455C4.958977 14.98905 5.096694 15.179099 5.226147 15.352621C5.3556 15.52339 5.50158 15.732718 5.551157 15.812593C5.603489 15.892469 5.735697 16.063238 5.848625 16.187181C6.248002 16.630629 6.666659 17.352262 6.716237 17.677273C6.809884 18.305258 6.809884 18.393396 6.707974 18.908457C6.614327 19.387709 6.435296 19.687931 6.148846 19.839418L6.01113 19.913784H4.096873C3.92711 19.913784 3.771025 19.913937 3.62752 19.914078C2.357931 19.915321 2.073096 19.915602 2.014262 19.80043C1.997245 19.767117 1.999136 19.724146 2.001573 19.668745C2.002537 19.646843 2.003586 19.622997 2.003586 19.597038V19.376692L2.10825 19.310587C2.163337 19.272026 2.306562 19.211432 2.422243 19.170116C2.738991 19.065453 2.995143 18.894684 2.995143 18.79002C2.995143 18.767984 3.019932 18.729425 3.05023 18.701881C3.099808 18.657812 3.105316 18.616497 3.105316 18.346573C3.105316 18.087667 3.097053 18.027071 3.05023 17.958214C3.014423 17.905882 2.995143 17.82876 2.995143 17.748884C2.995143 17.657991 2.978617 17.608414 2.940057 17.572607C2.898742 17.534048 2.88497 17.487225 2.88497 17.374296C2.88497 17.26137 2.871198 17.2173 2.829884 17.181494C2.791323 17.148441 2.774797 17.098864 2.774797 17.027252C2.774797 16.961147 2.752762 16.89229 2.719711 16.850975C2.683904 16.804152 2.664624 16.738047 2.664624 16.658173C2.664624 16.575542 2.645344 16.512192 2.609537 16.465368C2.570977 16.415791 2.554451 16.352442 2.554451 16.250532C2.554451 16.145866 2.540679 16.096289 2.502119 16.060484C2.460804 16.021923 2.449787 15.953064 2.430506 15.58123C2.397454 14.843071 2.422243 14.341784 2.502119 14.209577C2.535171 14.15449 2.554451 14.07186 2.554451 13.986476C2.554451 13.884565 2.568223 13.834988 2.609537 13.799182C2.645344 13.766129 2.664624 13.713798 2.664624 13.647694C2.664624 13.58159 2.683904 13.529258 2.719711 13.496205C2.752762 13.465908 2.774797 13.410822 2.774797 13.355735C2.774797 13.292386 2.791323 13.253825 2.829884 13.234545C2.86569 13.215264 2.88497 13.176704 2.88497 13.124372C2.88497 13.07204 2.90425 13.033479 2.940057 13.014198C2.973109 12.997673 2.995143 12.956358 2.995143 12.917797C2.995143 12.879237 3.017178 12.837922 3.05023 12.821396C3.080527 12.80487 3.105316 12.769064 3.105316 12.738767C3.105316 12.708468 3.130105 12.672663 3.160403 12.656137C3.1907 12.63961 3.215489 12.603805 3.215489 12.573506C3.215489 12.543209 3.240278 12.507402 3.270576 12.490877C3.300873 12.474351 3.325662 12.438544 3.325662 12.408247C3.325662 12.37795 3.350451 12.342143 3.380749 12.325618C3.411046 12.309092 3.435835 12.278793 3.435835 12.25676C3.435835 12.234725 3.460624 12.204427 3.490922 12.187901C3.521219 12.171375 3.546008 12.143832 3.546008 12.13006C3.546008 12.113534 3.620375 12.028151 3.711268 11.940012C3.802161 11.851873 3.876527 11.774753 3.876527 11.766489C3.876527 11.747209 4.19052 11.43597 4.452181 11.196343C4.5596 11.097188 4.647738 11.006295 4.647738 10.992523C4.647738 10.978752 4.667019 10.942945 4.694562 10.915402C4.735877 10.868579 4.735877 10.86307 4.694562 10.816247C4.667019 10.788704 4.647738 10.752897 4.647738 10.739125C4.647738 10.725354 4.598161 10.670267 4.537566 10.617935C4.47697 10.565603 4.427392 10.507762 4.427392 10.493991C4.427392 10.477465 4.402604 10.449922 4.372306 10.430641C4.342009 10.411361 4.317219 10.383818 4.317219 10.370046C4.317219 10.356275 4.17124 10.196524 3.994963 10.014738C3.815932 9.832952 3.584569 9.590571 3.47715 9.47489C3.372486 9.359208 3.243032 9.221492 3.196209 9.16916C3.146631 9.119582 3.105316 9.064496 3.105316 9.050724C3.105316 9.034198 3.080527 9.006655 3.05023 8.987374C3.019932 8.968094 2.995143 8.937797 2.995143 8.918516C2.995143 8.899236 2.970354 8.871693 2.940057 8.855166C2.909759 8.838641 2.88497 8.802835 2.88497 8.775291C2.88497 8.747748 2.860181 8.703679 2.829884 8.676136C2.799586 8.648592 2.774797 8.599014 2.774797 8.565963C2.774797 8.53291 2.750008 8.483333 2.719711 8.45579C2.689413 8.428246 2.664624 8.373159 2.664624 8.334599C2.664624 8.293284 2.642589 8.249215 2.609537 8.22718C2.570977 8.202392 2.554451 8.163831 2.554451 8.089464C2.554451 8.017852 2.537925 7.976537 2.499364 7.951748C2.452541 7.924205 2.444278 7.888399 2.444278 7.745173C2.444278 7.626738 2.427752 7.541353 2.389191 7.469741C2.339613 7.378848 2.334105 7.315499 2.334105 6.794931C2.334105 6.277118 2.339613 6.213768 2.389191 6.120121C2.422243 6.059526 2.444278 5.965879 2.444278 5.886003C2.444278 5.786848 2.45805 5.73727 2.499364 5.701464C2.532416 5.671166 2.554451 5.61608 2.554451 5.560993C2.554451 5.497644 2.570977 5.459083 2.609537 5.439803C2.645344 5.420523 2.664624 5.381962 2.664624 5.32963C2.664624 5.277297 2.683904 5.238737 2.719711 5.219457C2.750008 5.202931 2.774797 5.161616 2.774797 5.128564C2.774797 5.095512 2.799586 5.051443 2.829884 5.032163C2.860181 5.012882 2.88497 4.977076 2.88497 4.949533C2.88497 4.924744 2.909759 4.886183 2.940057 4.866903C2.970354 4.847623 2.995143 4.814571 2.995143 4.792536C2.995143 4.770502 3.019932 4.73745 3.05023 4.71817C3.080527 4.698889 3.105316 4.665837 3.105316 4.646557C3.105316 4.607996 3.416555 4.28574 3.557025 4.178322C3.697496 4.073658 3.981192 4.106709 4.074839 4.238917C4.085856 4.255443 4.096873 4.32981 4.096873 4.406931C4.096873 4.566681 4.154714 4.891692 4.237344 5.205685C4.295185 5.420523 4.507268 5.886003 4.565109 5.92181C4.581635 5.932827 4.625704 6.00444 4.667019 6.081561C4.779946 6.304661 4.746894 6.268855 5.774258 7.354059C5.917483 7.505547 6.146092 7.747928 6.283808 7.891153C6.41877 8.034378 6.639116 8.262987 6.768569 8.400703C6.900777 8.535666 7.319435 8.981866 7.70504 9.392261C8.087892 9.799901 8.58367 10.328732 8.80677 10.562849C9.299795 11.086171 9.456791 11.256939 9.594507 11.413936C9.715698 11.551652 9.941553 11.774753 9.963588 11.774753C9.97185 11.774753 9.999393 11.725174 10.026937 11.664579C10.059989 11.587458 10.07376 11.48004 10.07376 11.312025C10.07376 11.141257 10.084778 11.053119 10.115075 11.014558C10.13711 10.987015 10.15639 10.918157 10.15639 10.86307C10.15639 10.799721 10.175671 10.747389 10.211476 10.714336C10.252791 10.675776 10.266563 10.628953 10.266563 10.51878C10.266563 10.400344 10.27758 10.367291 10.32165 10.342503C10.362965 10.320468 10.376736 10.284662 10.376736 10.204786C10.376736 10.124911 10.390508 10.089105 10.431823 10.06707C10.467628 10.04779 10.486909 10.00923 10.486909 9.956897C10.486909 9.904565 10.506189 9.866004 10.541996 9.846725C10.577802 9.827444 10.597082 9.788883 10.597082 9.736551C10.597082 9.684219 10.616363 9.645658 10.652168 9.626378C10.687975 9.607098 10.707255 9.568537 10.707255 9.516205C10.707255 9.463873 10.726536 9.425312 10.762341 9.406032C10.800902 9.383997 10.817429 9.348191 10.817429 9.282087C10.817429 9.215983 10.833954 9.180178 10.872515 9.158143C10.908321 9.138863 10.927601 9.100302 10.927601 9.04797C10.927601 8.995638 10.946881 8.957077 10.982688 8.937797C11.024003 8.915762 11.037774 8.879956 11.037774 8.797326C11.037774 8.736731 11.048792 8.665118 11.062563 8.637575C11.087352 8.593506 11.070827 8.585243 10.930356 8.560454C10.668694 8.510876 9.908501 8.22718 9.715698 8.10599C9.531158 7.987554 9.275006 7.7617 9.275006 7.712121C9.275006 7.695596 9.250216 7.662544 9.219919 7.635001C9.189622 7.610211 9.164833 7.566143 9.164833 7.541353C9.164833 7.51381 9.140044 7.47525 9.109746 7.455969C9.071186 7.433935 9.05466 7.39262 9.05466 7.32927C9.05466 7.274184 9.032625 7.219097 8.999574 7.1888C8.961013 7.152994 8.944487 7.103415 8.944487 7.012523C8.944487 6.932647 8.925206 6.855526 8.8894 6.803194C8.839823 6.728827 8.834313 6.673741 8.834313 6.288135C8.834313 5.919055 8.842577 5.833672 8.8894 5.715235C8.922452 5.632606 8.944487 5.511415 8.944487 5.415014C8.944487 5.29107 8.955504 5.244246 8.999574 5.205685C9.038134 5.169879 9.05466 5.120301 9.05466 5.037671C9.05466 4.946779 9.068432 4.910972 9.109746 4.888938C9.142798 4.872412 9.164833 4.831097 9.164833 4.792536C9.164833 4.753976 9.189622 4.709907 9.219919 4.690626C9.250216 4.671346 9.275006 4.627277 9.275006 4.594225C9.275006 4.558419 9.29704 4.528121 9.330092 4.517104C9.36039 4.508841 9.385179 4.475789 9.385179 4.445491C9.385179 4.417948 9.409967 4.379387 9.440266 4.360107C9.470563 4.340827 9.495352 4.305021 9.495352 4.282986C9.495352 4.260952 9.520141 4.225145 9.550439 4.205865C9.580736 4.186584 9.605525 4.153533 9.605525 4.131498C9.605525 4.109464 9.630314 4.079166 9.660611 4.06264C9.690909 4.046114 9.715698 4.015816 9.715698 3.993782C9.715698 3.974502 9.740487 3.946958 9.770784 3.938695C9.801082 3.930432 9.825871 3.911152 9.825871 3.89738C9.825871 3.883609 9.858923 3.853311 9.902992 3.831277ZM20.961611 9.127845C21.146151 9.097548 21.366495 9.130599 21.501457 9.207721C21.807188 9.381243 21.99999 9.656675 21.99999 9.915583C21.99999 10.102877 21.96143 10.210295 21.820959 10.411361C21.652946 10.653742 20.129805 12.774572 19.366856 13.829479C19.006039 14.330767 18.32572 15.2755 17.854731 15.928275C17.386496 16.581051 16.984364 17.115391 16.965084 17.118145C16.929277 17.118145 16.846647 17.060303 16.450024 16.762836C16.328835 16.671944 16.10298 16.503929 15.948737 16.388248C15.67055 16.187181 15.665042 16.178919 15.665042 16.074255C15.665042 15.991625 15.678813 15.955819 15.720128 15.933784C15.750425 15.917258 15.775215 15.886961 15.775215 15.864926C15.775215 15.842892 15.800004 15.812593 15.830301 15.796068C15.860599 15.779542 15.885387 15.743735 15.885387 15.713438C15.885387 15.683141 15.910176 15.647334 15.940475 15.630808C15.970772 15.614283 15.995561 15.583984 15.995561 15.56195C15.995561 15.539915 16.02035 15.506864 16.050648 15.487583C16.080944 15.468303 16.105734 15.432497 16.105734 15.410462C16.105734 15.388428 16.130522 15.352621 16.16082 15.333341C16.191118 15.314061 16.215906 15.281009 16.215906 15.258974C16.215906 15.236939 16.240696 15.206642 16.270994 15.190116C16.301291 15.173591 16.32608 15.137784 16.32608 15.107487C16.32608 15.079943 16.350868 15.046891 16.381166 15.038629C16.411465 15.030365 16.436253 14.997313 16.436253 14.967016C16.436253 14.939472 16.461042 14.900912 16.491339 14.881632C16.521637 14.862351 16.546427 14.826545 16.546427 14.80451C16.546427 14.782475 16.571215 14.74667 16.601513 14.727389C16.631809 14.708109 16.656599 14.675057 16.656599 14.653023C16.656599 14.630988 16.681387 14.600691 16.711685 14.584165C16.741983 14.567638 16.766771 14.537341 16.766771 14.515306C16.766771 14.493272 16.791561 14.460219 16.821859 14.44094C16.852156 14.421659 16.876945 14.385853 16.876945 14.363818C16.876945 14.341784 16.901733 14.305978 16.932032 14.286697C16.96233 14.267417 16.987118 14.234365 16.987118 14.212331C16.987118 14.190296 17.011908 14.159998 17.042204 14.143473C17.072502 14.126946 17.097292 14.096649 17.097292 14.074615C17.097292 14.05258 17.12208 14.019527 17.152378 14.000247C17.182674 13.980968 17.207464 13.942407 17.207464 13.917618C17.207464 13.890075 17.232252 13.857022 17.26255 13.840496C17.292849 13.823971 17.317636 13.788164 17.317636 13.757867C17.317636 13.72757 17.342426 13.691763 17.372725 13.675237C17.403021 13.658711 17.427811 13.628413 17.427811 13.606379C17.427811 13.584344 17.452599 13.554047 17.482897 13.53752C17.513195 13.520995 17.537983 13.493451 17.537983 13.474172C17.537983 13.454891 17.562773 13.424593 17.593069 13.405313C17.623367 13.386033 17.648157 13.352981 17.648157 13.330946C17.648157 13.308911 17.672945 13.278614 17.703243 13.262088C17.73354 13.245563 17.758329 13.209756 17.758329 13.179459C17.758329 13.14916 17.783117 13.113355 17.813416 13.096828C17.843714 13.080302 17.868502 13.041742 17.868502 13.011444C17.868502 12.978393 17.890537 12.948095 17.92359 12.939832C17.953886 12.931569 17.978676 12.901272 17.978676 12.876482C17.978676 12.848939 18.003464 12.815887 18.033762 12.807624C18.06406 12.799361 18.088848 12.76631 18.088848 12.738767C18.088848 12.708468 18.113638 12.672663 18.143934 12.656137C18.174232 12.63961 18.199022 12.609313 18.199022 12.587278C18.199022 12.565244 18.22381 12.532192 18.254108 12.512912C18.284405 12.493631 18.309195 12.457825 18.309195 12.43579C18.309195 12.413755 18.333982 12.37795 18.364281 12.358669C18.394579 12.339389 18.419367 12.306337 18.419367 12.284303C18.419367 12.262268 18.444157 12.23197 18.474455 12.215445C18.504751 12.198918 18.529541 12.163112 18.529541 12.132814C18.529541 12.102517 18.554329 12.06671 18.584627 12.050185C18.614925 12.033659 18.639713 12.003361 18.639713 11.981327C18.639713 11.959292 18.664503 11.928994 18.694799 11.912469C18.725098 11.895943 18.749887 11.865644 18.749887 11.843611C18.749887 11.821576 18.774675 11.791278 18.804974 11.774753C18.83527 11.758226 18.86006 11.727928 18.86006 11.705894C18.86006 11.68386 18.884848 11.653562 18.915146 11.637036C18.945444 11.62051 18.970232 11.584703 18.970232 11.554406C18.970232 11.524109 18.995022 11.488302 19.02532 11.471776C19.055616 11.455251 19.080406 11.419444 19.080406 11.389147C19.080406 11.358849 19.105194 11.323043 19.135492 11.306517C19.165791 11.28999 19.190578 11.259693 19.190578 11.237659C19.190578 11.215624 19.215368 11.185327 19.245665 11.1688C19.275963 11.152274 19.300753 11.121977 19.300753 11.099942C19.300753 11.077908 19.325541 11.044856 19.355839 11.025576C19.386135 11.006295 19.410925 10.975998 19.410925 10.956717C19.410925 10.937437 19.435713 10.909894 19.466011 10.893368C19.496309 10.876842 19.521097 10.841036 19.521097 10.810739C19.521097 10.78044 19.545887 10.744635 19.576183 10.728108C19.606482 10.711582 19.631271 10.681285 19.631271 10.65925C19.631271 10.637216 19.656059 10.604164 19.686357 10.584884C19.716656 10.565603 19.741444 10.529797 19.741444 10.507762C19.741444 10.485727 19.766233 10.449922 19.79653 10.430641C19.826828 10.411361 19.851616 10.378309 19.851616 10.356275C19.851616 10.33424 19.876406 10.303943 19.906704 10.287416C19.937 10.27089 19.96179 10.235085 19.96179 10.204786C19.96179 10.174489 19.986578 10.138682 20.016876 10.122157C20.047174 10.105631 20.071962 10.075334 20.071962 10.053299C20.071962 10.034019 20.096752 10.006475 20.127048 9.998212C20.157347 9.989949 20.182137 9.956897 20.182137 9.929354C20.182137 9.899056 20.206924 9.86325 20.237223 9.846725C20.267521 9.830198 20.292309 9.799901 20.292309 9.777866C20.292309 9.755832 20.317099 9.725533 20.347395 9.709008C20.377693 9.692482 20.402481 9.65943 20.402481 9.631886C20.402481 9.607098 20.427271 9.568537 20.457569 9.549257C20.487865 9.529977 20.512655 9.496924 20.512655 9.47489C20.512655 9.452855 20.537443 9.422558 20.567741 9.406032C20.59804 9.389506 20.622828 9.359208 20.622828 9.339929C20.622828 9.282087 20.834911 9.149879 20.961611 9.127845ZM15.301471 16.45986C15.342786 16.429564 15.397872 16.40202 15.422661 16.40202C15.450204 16.40202 15.590674 16.495667 15.739408 16.608593C15.888142 16.721521 16.180101 16.939114 16.389429 17.093355C16.596004 17.244843 16.766771 17.379805 16.766771 17.390823C16.766771 17.429382 16.483076 17.790199 16.353622 17.916899C16.282011 17.985756 16.10298 18.106947 15.951491 18.189577C15.54936 18.407169 15.436433 18.500816 15.196806 18.809299C14.913111 19.178379 14.880059 19.205923 14.802938 19.156345C14.67073 19.073715 14.232792 18.737688 14.232792 18.718407C14.232792 18.70739 14.257581 18.674337 14.287879 18.646795C14.318176 18.619251 14.342965 18.575182 14.342965 18.54764C14.342965 18.517342 14.367754 18.481535 14.398052 18.462255C14.428349 18.442974 14.453138 18.412678 14.453138 18.393396C14.453138 18.374117 14.477927 18.346573 14.508224 18.330048C14.538523 18.313522 14.563312 18.272207 14.563312 18.239155C14.563312 18.206102 14.5881 18.162033 14.618398 18.142754C14.648695 18.123472 14.673485 18.079405 14.673485 18.043598C14.673485 18.010546 14.698274 17.958214 14.728571 17.93067C14.769886 17.894863 14.783657 17.845285 14.783657 17.74613C14.783657 17.649729 14.800183 17.58638 14.838744 17.539557C14.877304 17.489979 14.89383 17.426628 14.89383 17.324718C14.89383 17.2173 14.907602 17.170477 14.948917 17.131916C14.979215 17.104372 15.004004 17.046532 15.004004 17.005217C15.004004 16.955639 15.023284 16.917078 15.05909 16.897799C15.092142 16.881271 15.114177 16.839958 15.114177 16.801397C15.114177 16.762836 15.136211 16.721521 15.169263 16.704996C15.20507 16.685715 15.22435 16.647154 15.22435 16.594822C15.22435 16.54249 15.249139 16.498421 15.301471 16.45986Z"/></svg>
