<svg xmlns="http://www.w3.org/2000/svg" width="24" height="24" viewBox="0 0 24 24"><path d="M 5.04754598343,2.09994763437 C 4.88427969469,2.2223962625 4.469315625,2.63736178343 4.469315625,2.67137456562 C 4.469315625,2.68838168234 4.40809058532,2.75640869797 4.33326159375,2.821034 C 4.25843260218,2.88565930203 4.1972075625,2.96729172078 4.1972075625,2.99790424063 C 4.1972075625,3.03191702282 4.16659504266,3.07273323219 4.12918054688,3.0931420625 C 4.0883643375,3.11355089281 4.06115353125,3.16457079172 4.06115353125,3.21218897703 C 4.06115353125,3.25980861359 4.03054101141,3.31423022609 3.99312651563,3.33803931875 C 3.95231030625,3.365250125 3.9250995,3.4196717375 3.9250995,3.47069163641 C 3.9250995,3.51831127297 3.89448698016,3.58633828859 3.85707248438,3.62035107078 C 3.81285456141,3.65776556657 3.78904546875,3.72579258219 3.78904546875,3.79722131141 C 3.78904546875,3.86524832703 3.75843294891,3.95368417297 3.72101845313,4.00130235828 C 3.66999855422,4.06592766032 3.6529914375,4.14075810313 3.6529914375,4.28701582391 C 3.6529914375,4.42306985516 3.62918234484,4.52851136657 3.58496442188,4.61354549891 C 3.52373938219,4.72919215109 3.51693740625,4.80742285625 3.51693740625,5.324428175 C 3.51693740625,5.85503889687 3.52373938219,5.91626248532 3.58496442188,5.99449464172 C 3.62918234484,6.04891625422 3.6529914375,6.13054867297 3.6529914375,6.23258847078 C 3.6529914375,6.33802998219 3.67340026781,6.39925502187 3.72101845313,6.44347294484 C 3.7618346625,6.48088744063 3.78904546875,6.54891445625 3.78904546875,6.61353975828 C 3.78904546875,6.67816506032 3.816256275,6.74619207594 3.85707248438,6.78360802297 C 3.89448698016,6.81762080516 3.9250995,6.87204241766 3.9250995,6.90945691344 C 3.9250995,6.94347114687 3.95571201984,6.99789275938 3.99312651563,7.02850527922 C 4.03054101141,7.06251806141 4.06115353125,7.11353796032 4.06115353125,7.14755219375 C 4.06115353125,7.17816471359 4.09176605109,7.22238118532 4.12918054688,7.24279001563 C 4.16659504266,7.26319739469 4.1972075625,7.30741531766 4.1972075625,7.34482981344 C 4.1972075625,7.38224576047 4.22782008234,7.42646223219 4.26523457813,7.4468710625 C 4.30264907391,7.46727844157 4.33326159375,7.501292675 4.33326159375,7.52170005407 C 4.33326159375,7.55911600109 4.85706888844,8.10333212609 5.45230636359,8.68156103328 C 6.03053527078,9.24618598859 6.23801803125,9.460470725 6.23801803125,9.49108324484 C 6.23801803125,9.50468864797 6.26863055109,9.53529971657 6.30604504688,9.55570854688 C 6.35706494578,9.58291935313 6.3740720625,9.62713727609 6.3740720625,9.72577536032 C 6.3740720625,9.8414220125 6.36046665937,9.86863281875 6.26863055109,9.91285074172 C 6.14958218532,9.97747604375 5.91489006984,10.1509445708 5.80604684484,10.2597877958 C 5.76523063547,10.3006040052 5.69380190625,10.3584273313 5.64618226969,10.3890398511 C 5.59856408437,10.4230526333 5.557747875,10.4604671291 5.557747875,10.4774742458 C 5.557747875,10.4944813625 5.43529924688,10.6305353937 5.2856398125,10.7767931145 C 5.13598037812,10.9264525489 5.01353175,11.0625065802 5.01353175,11.0761119833 C 5.01353175,11.0931191 4.98291923016,11.1237316198 4.94550473438,11.1475407125 C 4.90809023859,11.1713498052 4.87747771875,11.2087643009 4.87747771875,11.2325748448 C 4.87747771875,11.2529822239 4.81625267907,11.3278126667 4.7414236875,11.3924379688 C 4.66659324469,11.4570632708 4.60536965625,11.5386956895 4.60536965625,11.5693082094 C 4.60536965625,11.6033209916 4.57475713641,11.6441372009 4.53734264063,11.6645460312 C 4.49992814484,11.6849534103 4.469315625,11.7291713333 4.469315625,11.7665858291 C 4.469315625,11.8040017761 4.43870310516,11.8482182478 4.40128860938,11.8686270781 C 4.36387411359,11.8890344572 4.33326159375,11.9400558073 4.33326159375,11.9808720167 C 4.33326159375,12.0216882261 4.30264907391,12.0761098386 4.26523457813,12.0999189313 C 4.22782008234,12.1237280239 4.1972075625,12.1781496364 4.1972075625,12.2223675594 C 4.1972075625,12.2631837688 4.16659504266,12.3278090708 4.12918054688,12.3618233042 C 4.0883643375,12.3992378 4.06115353125,12.4672648156 4.06115353125,12.5352918313 C 4.06115353125,12.6135225364 4.04074470094,12.661142173 3.99312651563,12.6849512656 C 3.94210661672,12.7121620719 3.9250995,12.7563799948 3.9250995,12.8720251958 C 3.9250995,12.9842701344 3.90469066969,13.0420934605 3.85707248438,13.0829096698 C 3.80605258547,13.1271261416 3.78904546875,13.1849494677 3.78904546875,13.3210034989 C 3.78904546875,13.4332484375 3.76523637609,13.5488936384 3.72101845313,13.6339277708 C 3.6529914375,13.7597781125 3.64958972391,13.814199725 3.65979341344,14.684945525 C 3.66999855422,15.5012697125 3.67680053016,15.6101129375 3.73122214266,15.6679362636 C 3.77203835203,15.7155544489 3.78904546875,15.7903848917 3.78904546875,15.926438923 C 3.78904546875,16.0794986197 3.80265087188,16.1339202322 3.85707248438,16.1781381552 C 3.90809238328,16.2223560781 3.9250995,16.2801794042 3.9250995,16.3992263188 C 3.9250995,16.5216749469 3.94210661672,16.579498273 3.99312651563,16.6203144823 C 4.04414641453,16.6645309541 4.06115353125,16.7223542802 4.06115353125,16.8584083114 C 4.06115353125,16.9978640563 4.07816064797,17.0522856688 4.12918054688,17.0965035917 C 4.18020044578,17.1407200634 4.1972075625,17.1985433895 4.1972075625,17.3141900417 C 4.1972075625,17.4230332667 4.21761494157,17.4944605447 4.26523457813,17.5488821572 C 4.30945250109,17.5999035073 4.33326159375,17.6747324989 4.33326159375,17.7665686072 C 4.33326159375,17.8448007636 4.3604724,17.9774530813 4.39108491984,18.0658874759 C 4.44550653234,18.2189486239 4.44550653234,18.2359557406 4.39108491984,18.3482006792 C 4.3604724,18.4162276948 4.33326159375,18.5148657791 4.33326159375,18.5692873916 C 4.33326159375,18.6339141448 4.30945250109,18.6815323302 4.26523457813,18.7053414228 C 4.22782008234,18.7257502531 4.1972075625,18.7665664625 4.1972075625,18.7937772688 C 4.1972075625,18.8516005948 3.86387446032,19.0114637188 3.73802556984,19.0114637188 C 3.69380764688,19.0114637188 3.64618801032,19.0250691219 3.63598432078,19.0454765009 C 3.62578063125,19.0624836177 3.57816099469,19.0794907344 3.53734478532,19.0794907344 C 3.37407994782,19.0794907344 3.13598611875,19.2699663781 3.09516990938,19.4264277884 C 3.08496621984,19.4808494009 3.05775541359,19.5216656103 3.04074829687,19.5216656103 C 2.98632668438,19.5216656103 2.9999320875,19.6781284719 3.05775541359,19.7257466572 C 3.08496621984,19.7495572011 3.1087753125,19.7903734105 3.1087753125,19.8175842167 C 3.1087753125,19.844795023 3.17340061453,19.8958149219 3.25503303328,19.9298277041 C 3.39108706453,19.9944544573 3.49652857594,19.9978547197 5.65978767282,19.9978547197 C 7.77542858437,19.9978547197 7.93188999469,19.9910527438 8.05774033641,19.9332294177 C 8.43188964797,19.7631626042 8.63937095719,19.4060204094 8.79243210516,18.6611249511 C 8.90467704375,18.123710802 8.85025543125,17.3992227228 8.66998347703,16.9876603667 C 8.40807910407,16.3958246052 8.21080148438,16.1169145667 7.68699273844,15.5897041072 C 7.47951142922,15.3856230603 7.24141614891,15.1169167114 7.15638201657,14.9978697969 C 6.64958183859,14.2801851448 6.53053347282,14.0829060739 6.42509196141,13.769981802 C 6.25842541032,13.2869907167 6.24141974484,12.552298948 6.38087403844,12.1067209072 C 6.49652069063,11.74617845 6.72781254375,11.2972001469 6.98291348953,10.9332559761 C 7.11556580719,10.7461805947 7.23121245937,10.5761137812 7.23801443532,10.5591066645 C 7.2448178625,10.5386992855 7.29583776141,10.5659100917 7.35025937391,10.6169299906 C 7.40468098641,10.6713516031 7.45910259891,10.7121678125 7.46930628844,10.7121678125 C 7.49311683234,10.7121678125 11.6223559552,14.8550123384 11.7992261958,15.055693123 C 11.870654925,15.1373255417 11.9420836542,15.2019508437 11.9658927469,15.2019508437 C 11.9863001259,15.2019508437 12.0781376855,15.0726987884 12.1699737938,14.9128356645 C 12.6903808261,14.0148790583 13.6597647103,13.1815477541 14.6053409531,12.8210052969 C 14.8264291167,12.7359711645 14.8264291167,12.7359711645 14.5203068208,12.3924343728 C 14.2379950688,12.0829118145 14.2311916416,12.0693064114 14.2311916416,11.9060415739 C 14.2311916416,11.810803752 14.2141859761,11.6203281083 14.1937771458,11.4808723634 C 14.1665663395,11.2972001469 14.1665663395,11.1713498052 14.1903754322,11.028493798 C 14.3570419833,10.1373391677 14.5135048448,9.71897338438 14.8808507292,9.16455356984 C 15.1563590541,8.74958804891 15.3842506448,8.48768367594 15.5373103416,8.40945297078 C 15.6291479011,8.36183478547 15.6495552802,8.36183478547 15.7583985052,8.41965666032 C 15.9930920719,8.53870502609 16.0339082812,8.59652690094 16.0339082812,8.807411375 C 16.0339082812,8.95026738219 16.050915398,9.025097825 16.1019352969,9.08972312703 C 16.1427515063,9.14414473953 16.1699623125,9.22577715828 16.1699623125,9.31081129063 C 16.1699623125,9.42985820516 16.1835677156,9.45706901141 16.2822072511,9.5148923375 C 16.4658794677,9.6237355625 16.5679207167,9.63393925203 16.7345858166,9.55570854688 C 16.9624774073,9.44346360828 17.1835641197,9.17135554578 17.4182576864,8.71897552907 C 17.812814377,7.95367269172 17.9590720978,7.16455931047 17.8196178042,6.53871076672 C 17.6937674625,5.96388212188 17.6869640353,5.95027671875 17.3298232917,5.38225150109 C 17.1767621438,5.14075450719 17.1121368417,5.06592551563 16.9692793833,4.97748966969 C 16.9148577708,4.9434768875 16.7788037395,4.85164077922 16.6733622281,4.77340862282 C 16.5679207167,4.69517791766 16.3162200333,4.55232191047 16.1121389864,4.453682375 C 14.9386726041,3.88565715734 14.8298293791,3.82443211766 14.6189463563,3.63055476032 C 14.3026203708,3.33123589157 14.2379950688,3.22239266657 14.1325535573,2.76321067391 C 14.0815322072,2.54212251032 14.0135051916,2.31083065719 13.982894123,2.25300878234 C 13.8162275719,1.93328108328 13.3910583614,1.99110440937 12.9999033844,2.38225938641 C 12.9454817719,2.43327928532 12.9046655625,2.49110261141 12.9046655625,2.51151144172 C 12.9046655625,2.53191882078 12.8740530427,2.56593305422 12.8366385469,2.58974214688 C 12.7992240511,2.61355123953 12.7686115313,2.66457113844 12.7686115313,2.70198708547 C 12.7686115313,2.73940158125 12.7379990114,2.79042148016 12.7005845156,2.81423057282 C 12.6631700198,2.83804111672 12.6325575,2.88906101562 12.6325575,2.93327893859 C 12.6325575,2.97409514797 12.6019449802,3.02851676047 12.5645304844,3.05232585312 C 12.5271159886,3.07613494578 12.4965034688,3.12375458234 12.4965034688,3.16116907813 C 12.4965034688,3.19858357391 12.4658909489,3.24620321047 12.4284764531,3.27001230313 C 12.3910619573,3.29382139578 12.3604494375,3.35164472187 12.3604494375,3.39926290719 C 12.3604494375,3.44688254375 12.3298369177,3.50470586984 12.2924224219,3.5285149625 C 12.2516062125,3.55232405516 12.2243954063,3.60674566766 12.2243954063,3.66797070734 C 12.2243954063,3.71899060625 12.1937828864,3.79041933547 12.1563683906,3.82443211766 C 12.1087487541,3.86865004063 12.088341375,3.92987362907 12.088341375,4.02851316453 C 12.088341375,4.1271527 12.0679325447,4.18837628844 12.0203143594,4.23259421141 C 11.9726947228,4.27681213437 11.9522873438,4.33803572282 11.9522873438,4.43667525828 C 11.9522873438,4.52511110422 11.9318785134,4.59994009578 11.9012674448,4.62374918844 C 11.8638514978,4.65436170828 11.8502460947,4.73939584063 11.8502460947,4.95368057703 C 11.8502460947,5.16456505109 11.8638514978,5.25299944578 11.9012674448,5.29041394157 C 11.9284782511,5.32102646141 11.9522873438,5.39245519063 11.9522873438,5.45367877907 C 11.9522873438,5.52170579469 11.97949815,5.58973281032 12.0203143594,5.62714875734 C 12.0611305688,5.66456325312 12.088341375,5.73259026875 12.088341375,5.80061728438 C 12.088341375,5.87884798953 12.1087487541,5.92646762609 12.1563683906,5.95027671875 C 12.1937828864,5.97068409782 12.2243954063,6.01490202078 12.2243954063,6.04891625422 C 12.2243954063,6.08292903641 12.2550079261,6.13735064891 12.2924224219,6.17136488234 C 12.3298369177,6.20537766453 12.3604494375,6.25299730109 12.3604494375,6.27680639375 C 12.3604494375,6.30061548641 12.3910619573,6.33802998219 12.4284764531,6.3584388125 C 12.4658909489,6.37884619157 12.4965034688,6.412860425 12.4965034688,6.43666951766 C 12.4965034688,6.45707834797 12.5271159886,6.50469653328 12.5645304844,6.54551274266 C 12.6019449802,6.58292723844 12.6903808261,6.67476479797 12.7618081041,6.74959378953 C 12.8332368333,6.82442423234 12.9522837478,6.92646403016 13.0271141906,6.97408366672 C 13.4862961833,7.28020451141 13.6903772302,7.40265313953 14.0237103323,7.56931969063 C 14.3638454105,7.73938650407 14.4012599063,7.76659731032 14.4012599063,7.84822972907 C 14.4012599063,7.91285648234 14.3604436969,7.97748178437 14.265205875,8.05911420313 C 14.1903754322,8.12373950516 14.1291518437,8.19516823438 14.1291518437,8.21217535109 C 14.1291518437,8.23258273016 14.0985393239,8.26659696359 14.0611248281,8.29040605625 C 14.0237103323,8.31421514891 13.9930978125,8.36183478547 13.9930978125,8.39924928125 C 13.9930978125,8.43666377703 13.9624852927,8.48428341359 13.9250707969,8.50809250625 C 13.8876563011,8.53190159891 13.8570437813,8.58292149782 13.8570437813,8.62373770719 C 13.8570437813,8.66115365422 13.8264312614,8.72237724266 13.7890167656,8.75639147609 C 13.7516022698,8.79040425828 13.72098975,8.85162929797 13.72098975,8.89584576969 C 13.72098975,8.94006369266 13.6903772302,8.99108359157 13.6529627344,9.01149242188 C 13.6155482386,9.03189980094 13.5849357188,9.08292115109 13.5849357188,9.12373736047 C 13.5849357188,9.16455356984 13.5543231989,9.21897518234 13.5169087031,9.242784275 C 13.4760924938,9.26659336766 13.4488816875,9.32101498016 13.4488816875,9.37883830625 C 13.4488816875,9.43325991875 13.4216708812,9.48768153125 13.3808546719,9.5148923375 C 13.3400384625,9.53870143016 13.3128276563,9.59312304266 13.3128276563,9.65434808234 C 13.3128276563,9.70536798125 13.2822151364,9.77679671047 13.2448006406,9.81080949266 C 13.2005827177,9.85162570203 13.176773625,9.91625100407 13.176773625,9.99448316047 C 13.176773625,10.0761155792 13.1529645323,10.1373391677 13.1087466094,10.178155377 C 13.0611269728,10.2189715864 13.0407195937,10.2767949125 13.0407195937,10.3890398511 C 13.0407195937,10.4740725322 13.0135087875,10.5829157572 12.9794945541,10.6407390833 L 12.9182709656,10.7427803323 L 12.7175916323,10.5693103541 C 12.3978639333,10.3006040052 7.09856014172,5.03871470938 6.77203046672,4.66796711141 C 6.39788115516,4.23939763859 6.101964,3.68837808641 5.90128466672,3.03191702282 C 5.82305251032,2.78021779063 5.76182892188,2.55232765109 5.76182892188,2.52171513125 C 5.76182892188,2.38906281359 5.68359821672,2.20538914578 5.58836039484,2.10674961032 C 5.44550293641,1.96729531672 5.22441477282,1.96389360313 5.04754453219,2.09994763437 Z M 16.289009227,13.1951546084 C 16.2515947313,13.2121602739 16.1393497927,13.225765677 16.0373099948,13.225765677 C 15.9352687458,13.2291673906 15.8060181417,13.2427727938 15.7481948156,13.2597799105 C 15.6903714895,13.2767855759 15.5747262886,13.3107998094 15.4896921563,13.3312086397 C 15.4046580239,13.3550177323 15.2618020167,13.4026359177 15.1699659084,13.4366501511 C 15.0781283489,13.4706629333 14.9862922406,13.5012754531 14.9590814344,13.5012754531 C 14.8332310927,13.5012754531 14.1291518437,13.9094375469 14.1291518437,13.9842679897 C 14.1291518437,13.9978733928 14.0815336584,14.0352878886 14.0203086188,14.0659004084 C 13.9590835791,14.096511477 13.8672474708,14.1679402062 13.8128258583,14.2189601052 C 13.7584042458,14.2733817177 13.7005809197,14.3175996406 13.6801735406,14.3175996406 C 13.6393573313,14.3175996406 13.4488816875,14.5046735708 13.4488816875,14.5488914938 C 13.4488816875,14.5658986105 13.4182691677,14.5897077031 13.3808546719,14.5999113927 C 13.3400384625,14.6101150822 13.3128276563,14.6475310292 13.3128276563,14.6883472386 C 13.3128276563,14.7257617344 13.2822151364,14.7733799197 13.2448006406,14.79378875 C 13.2073861448,14.8141975803 13.176773625,14.8516120761 13.176773625,14.8754211687 C 13.176773625,14.902631975 13.1461611052,14.9298427813 13.1087466094,14.9400464708 C 13.0679304,14.9502501603 13.0407195937,14.9876661073 13.0407195937,15.0284823167 C 13.0407195937,15.0658968125 13.0101070739,15.1135149978 12.9726925781,15.1339238281 C 12.9284746552,15.1577329208 12.9046655625,15.2053525573 12.9046655625,15.2699778594 C 12.9046655625,15.3346031614 12.8808564698,15.382222798 12.8366385469,15.4060318906 C 12.7992240511,15.4264407209 12.7686115313,15.4774606198 12.7686115313,15.5182768292 C 12.7686115313,15.5590930386 12.7379990114,15.6135146511 12.7005845156,15.6373237438 C 12.6631700198,15.6611328364 12.6325575,15.7121541866 12.6325575,15.7563706583 C 12.6325575,15.7971868677 12.6019449802,15.8584119073 12.5645304844,15.8924246895 C 12.5203125614,15.926438923 12.4965034688,15.991064225 12.4965034688,16.0624929542 C 12.4965034688,16.1339202322 12.4692926625,16.2019472478 12.4284764531,16.2393631948 C 12.3740548406,16.2869813802 12.3604494375,16.3448047063 12.3604494375,16.5114712573 C 12.3604494375,16.6509270022 12.3366403448,16.7767758927 12.2890207083,16.8822174041 C 12.2243954063,17.0284765761 12.2209936927,17.0931018781 12.2311973822,17.7155487083 C 12.241402523,18.3039827563 12.2482044989,18.4026222917 12.3026261114,18.4570439042 C 12.3434423208,18.5046620895 12.3604494375,18.5794925323 12.3604494375,18.71214485 C 12.3604494375,18.8516005948 12.3774565542,18.9196276105 12.4284764531,18.9774494853 C 12.4692926625,19.0250691219 12.4965034688,19.103299827 12.4965034688,19.1849322458 C 12.4965034688,19.2801700677 12.5135105855,19.3243879906 12.5645304844,19.3515987969 C 12.6087484073,19.3754078895 12.6325575,19.4230275261 12.6325575,19.4876528281 C 12.6325575,19.5522781302 12.6563665927,19.6032980291 12.7005845156,19.6305088353 C 12.741400725,19.6577196416 12.7686115313,19.7121412541 12.7686115313,19.7665628666 C 12.7686115313,19.8243861927 12.7958223375,19.8720058292 12.8366385469,19.8958149219 C 12.8740530427,19.9162223009 12.9046655625,19.9638419375 12.9046655625,19.9978547197 C 12.9046655625,20.0352706667 12.9352780823,20.082888852 12.9726925781,20.1066979447 C 13.0101070739,20.1305084886 13.0407195937,20.1781266739 13.0407195937,20.2087391937 C 13.0407195937,20.2427519759 13.0713321136,20.2835681853 13.1087466094,20.3039770156 C 13.1461611052,20.3243843947 13.176773625,20.3549969145 13.176773625,20.3754057448 C 13.176773625,20.4400310469 13.6223502145,20.8617985437 13.9556833167,21.1100975136 C 14.6801699447,21.6543136386 15.4250668542,21.9264217011 16.3570362427,21.9910470031 C 18.183561975,22.1134956313 19.9998840178,20.9672400552 20.68695615,19.2597626886 C 20.8944389105,18.7359539427 20.969267902,18.3754114855 20.9896767323,17.7665686072 C 21.0168875386,16.9536461333 20.9046426,16.3686137989 20.5917183281,15.6883436427 C 20.1019238156,14.6305239125 19.0679131781,13.7087582136 18.0236988511,13.3958339417 C 17.9488684083,13.3754251114 17.8536305864,13.3448125916 17.8094126634,13.3278069261 C 17.7651961917,13.3107998094 17.6903657489,13.2971944063 17.63934585,13.2971944063 C 17.5849242375,13.2971944063 17.530502625,13.2835890031 17.5134955083,13.2665818864 C 17.4454684927,13.2019565844 16.4080561416,13.1407315447 16.289009227,13.1951546084 Z M 15.0135030469,15.184943727 C 15.0577209698,15.2325633636 15.1053391552,15.2699778594 15.1189445583,15.2699778594 C 15.1495570781,15.2699778594 16.1699623125,16.2835796666 16.1699623125,16.3141921864 C 16.1699623125,16.3414029927 16.4284649719,16.5863002489 16.5237027937,16.6475252886 C 16.6359477323,16.7223542802 16.5985332366,16.7529668 17.4930881292,15.8414047906 L 18.2175747572,15.0999110459 L 18.3774393323,15.22916165 C 18.4624720134,15.2971886656 18.6529491084,15.4740589063 18.7958051156,15.6169149134 C 19.0407023719,15.8618121697 19.0577094886,15.8856227136 19.0373006583,15.9876625114 C 19.0168932792,16.0897037605 18.7141726969,16.426437125 18.6461456813,16.426437125 C 18.6325402781,16.426437125 18.618934875,16.4400425281 18.618934875,16.4604499072 C 18.618934875,16.4978658542 18.401248425,16.7155523042 17.8944467958,17.1917414136 C 17.6155367573,17.450244073 17.530502625,17.5522838708 17.530502625,17.6169091728 C 17.530502625,17.6815359261 17.6597532291,17.8277936469 18.0713170364,18.2291523134 C 18.3672356428,18.5182674927 18.7039690073,18.8447971677 18.8230159219,18.9536403927 C 19.0168932792,19.1305106333 19.0373006583,19.1611231531 19.0339003959,19.2767683541 C 19.0304986823,19.3720061759 19.0032878761,19.4264277884 18.9216554573,19.4944548041 C 18.8604304177,19.5488764166 18.7992068292,19.5896926259 18.7856014261,19.5896926259 C 18.7685943094,19.5896926259 18.7549889062,19.6101014562 18.7549889062,19.6339105489 C 18.7549889062,19.6577196416 18.7243763864,19.6951355886 18.6869618906,19.7189446813 C 18.6495473948,19.7427537739 18.618934875,19.7801682697 18.618934875,19.8073790759 C 18.618934875,19.865202402 18.4726771542,19.9638419375 18.3876430219,19.9638419375 C 18.3536302397,19.9638419375 18.3094123167,19.9808490542 18.2890034864,20.0012564333 C 18.2651943938,20.0250655259 18.2311816116,20.0284672395 18.1869636886,20.0046581469 C 18.1529494552,19.9842493166 17.8094141147,19.647515952 17.4216594,19.2529592614 C 16.6359477323,18.4468387634 16.6223423292,18.4400367875 16.4182612823,18.6509198103 C 16.3570362427,18.71214485 16.3060163438,18.7801718656 16.3060163438,18.8039809583 C 16.3060163438,18.8243897886 16.2924109406,18.8413954541 16.2788055375,18.8413954541 C 16.2617984208,18.8413954541 16.1189424136,18.9638440822 15.962479552,19.1135035166 C 15.8060181417,19.2665646645 15.6053388084,19.4536385947 15.5169029625,19.5318707511 C 15.4284685678,19.6101014562 15.353638125,19.691733875 15.353638125,19.7087409917 C 15.353638125,19.7903734105 14.9454760313,20.0726851625 14.8944561323,20.0284672395 C 14.8876527052,20.0216652636 14.7039804886,19.8379915958 14.4862940386,19.6237068594 L 14.0951390616,19.2359535959 L 14.918265225,18.4094242677 L 15.7413928397,17.5862981042 L 14.9114632491,16.7495650864 L 14.0849339208,15.9128335198 L 14.4896957522,15.5046714261 C 14.7107824645,15.2835832625 14.9012581083,15.0999110459 14.9148635114,15.0999110459 C 14.9250686522,15.0999110459 14.9692851239,15.1373255417 15.0135030469,15.184943727 Z"/></svg>
