<svg xmlns="http://www.w3.org/2000/svg" width="24" height="24" viewBox="0 0 24 24"><path d="M7.624303 5.035383C7.751135 4.959283 7.914607 4.959283 8.018891 5.032564C8.103445 5.091753 8.168271 5.252405 8.20491 5.483522C8.238732 5.717456 8.438846 6.255786 8.627685 6.625009L8.813704 6.991412L11.184051 9.356121C12.489009 10.655443 13.68123 11.833571 13.836246 11.974495L14.115276 12.228159L14.166009 12.160516C14.197013 12.121056 14.219561 12.044957 14.219561 11.977313C14.219561 11.904032 14.239289 11.833571 14.27593 11.788475C14.312571 11.74338 14.3323 11.675735 14.3323 11.602454C14.3323 11.5179 14.346393 11.48126 14.388669 11.458712C14.428127 11.438983 14.445039 11.399524 14.445039 11.334699C14.445039 11.278329 14.467587 11.221959 14.501409 11.190956C14.532412 11.16277 14.557778 11.103582 14.557778 11.061305C14.557778 11.010573 14.577508 10.971113 14.614148 10.951385C14.645151 10.934473 14.670518 10.897834 14.670518 10.869648C14.670518 10.841464 14.695885 10.796369 14.726888 10.768183C14.757891 10.739999 14.783257 10.689265 14.783257 10.652624C14.783257 10.615985 14.808624 10.573707 14.839627 10.556796C14.87063 10.539885 14.895997 10.503245 14.895997 10.47506C14.895997 10.446876 14.921364 10.40178 14.952367 10.373594C14.98337 10.34541 15.008737 10.300315 15.008737 10.272129C15.008737 10.243945 15.034103 10.207304 15.065106 10.190392C15.096109 10.173483 15.121476 10.145297 15.121476 10.125567C15.121476 10.105839 15.172208 10.04665 15.234215 9.993099C15.318769 9.919818 15.346954 9.871904 15.346954 9.809897C15.346954 9.73098 15.330043 9.719706 15.155297 9.643607C15.051013 9.60133 14.848083 9.491408 14.70434 9.404036C14.557778 9.316663 14.385851 9.215198 14.323845 9.178556C14.188558 9.099639 13.768602 8.685322 13.768602 8.631771C13.768602 8.628219 13.769424 8.6243 13.770296 8.620148C13.774265 8.601241 13.779251 8.577485 13.712233 8.561309C13.645377 8.545171 13.650176 8.519606 13.65414 8.498492C13.655022 8.493793 13.655863 8.489314 13.655863 8.485209C13.655863 8.462662 13.630496 8.431658 13.599493 8.414747C13.56849 8.397836 13.543123 8.355558 13.543123 8.321737C13.543123 8.287915 13.517757 8.242819 13.486754 8.22309C13.452932 8.203362 13.430385 8.158265 13.430385 8.107532C13.430385 8.065255 13.405018 8.00043 13.374015 7.963789C13.340193 7.92433 13.317645 7.856687 13.317645 7.797499C13.314826 7.741129 13.297915 7.66503 13.275368 7.625571C13.221816 7.532561 13.221816 7.380363 13.275368 7.230983C13.297915 7.166158 13.317645 7.064693 13.317645 7.005504C13.317645 6.93786 13.337374 6.88431 13.374015 6.850488C13.416291 6.813847 13.430385 6.763114 13.430385 6.664467C13.430385 6.557365 13.441658 6.520725 13.486754 6.498177C13.526212 6.475629 13.543123 6.438988 13.543123 6.371345C13.543123 6.303701 13.560034 6.26706 13.599493 6.244513C13.633315 6.227602 13.655863 6.185325 13.655863 6.145866C13.655863 6.106408 13.678411 6.064129 13.712233 6.047219C13.746055 6.030307 13.768602 5.98803 13.768602 5.948572C13.768602 5.909113 13.793969 5.864017 13.824972 5.844288C13.855975 5.824559 13.881342 5.779463 13.881342 5.745641C13.881342 5.71182 13.906709 5.669541 13.937712 5.652631C13.968715 5.635719 13.994081 5.59908 13.994081 5.568076C13.994081 5.537073 14.019448 5.500432 14.050451 5.483522C14.081454 5.46661 14.106821 5.435607 14.106821 5.413059C14.106821 5.390512 14.132188 5.359509 14.163191 5.342597C14.194194 5.325686 14.219561 5.294683 14.219561 5.274953C14.219561 5.218584 14.473224 5.049474 14.614148 5.012835C14.724069 4.98465 14.755072 4.987468 14.845263 5.035383C14.98337 5.105844 15.017192 5.179125 15.107383 5.584987C15.14966 5.768189 15.203212 5.95139 15.22576 5.990849C15.251125 6.030307 15.366684 6.15714 15.485061 6.272698C15.71054 6.495358 15.707721 6.495358 16.756197 7.002686C17.300165 7.264805 17.579195 7.484646 17.813129 7.836957C18.024515 8.155446 18.094978 8.318918 18.162622 8.654319C18.210537 8.899527 18.216173 8.98408 18.196444 9.316663C18.165442 9.801442 18.066793 10.122749 17.807493 10.584981C17.582014 10.982388 17.472092 11.120494 17.302984 11.21914C17.150785 11.309332 17.040865 11.300877 16.90276 11.185319C16.82666 11.123313 16.812567 11.092308 16.812567 10.993662C16.812567 10.917562 16.792839 10.849919 16.756197 10.802005C16.716738 10.75409 16.699827 10.689265 16.699827 10.596254C16.699827 10.463786 16.62373 10.331318 16.550447 10.331318C16.533537 10.331318 16.499716 10.311588 16.471531 10.286222C16.437708 10.255219 16.395432 10.246762 16.350336 10.258037C16.130493 10.311588 15.620348 10.99648 15.425872 11.492534C15.363865 11.653188 15.276492 11.954765 15.228578 12.163333L15.223111 12.188766C15.146735 12.544032 15.144859 12.552758 15.180664 12.935598L15.214486 13.324549L15.400506 13.538754C15.501971 13.657131 15.967022 14.136273 16.434891 14.601323C17.426998 15.590611 17.604563 15.816091 17.815948 16.326237C17.973783 16.709551 18.010424 16.93503 18.007605 17.504364C18.007605 17.952503 17.996332 18.082153 17.945599 18.299177C17.784945 18.978432 17.40163 19.612593 16.916851 20.001543C16.787201 20.105827 16.767471 20.111464 16.592726 20.111464C16.358791 20.111464 16.271418 20.069187 16.246052 19.947992C16.237597 19.900078 16.215048 19.840889 16.198137 19.821159C16.181227 19.80143 16.158678 19.649231 16.147406 19.482941C16.130493 19.24337 16.116402 19.172909 16.076942 19.136269C16.043121 19.105265 16.023392 19.048895 16.023392 18.981251C16.023392 18.902334 16.009298 18.865692 15.967022 18.843145C15.927564 18.823416 15.910652 18.783957 15.910652 18.721951C15.910652 18.662762 15.890923 18.620485 15.854282 18.595118C15.823279 18.57539 15.797913 18.535931 15.797913 18.504927C15.797913 18.476742 15.772546 18.437283 15.741543 18.420372C15.71054 18.403461 15.685173 18.36964 15.685173 18.341455C15.685173 18.316088 15.659806 18.276628 15.628803 18.256901C15.5978 18.237171 15.572433 18.197712 15.572433 18.169527C15.572433 18.138525 15.547067 18.104702 15.516064 18.096247C15.485061 18.087791 15.459694 18.068062 15.459694 18.053968C15.459694 18.039877 14.879086 17.447994 14.168828 16.737736C13.45857 16.027477 12.869506 15.424321 12.858232 15.396137C12.849777 15.37077 12.827229 15.348223 12.810317 15.348223C12.793407 15.348223 12.069056 14.640783 11.200962 13.775508C10.332869 12.913051 9.583151 12.171789 9.5296 12.129512L9.436589 12.053412L9.295666 12.242251C8.991269 12.648113 8.847527 12.907414 8.723514 13.262543C8.636139 13.519025 8.591043 14.051719 8.636139 14.330749C8.720695 14.88881 9.095553 15.508877 9.769172 16.207861C10.152486 16.602449 10.358235 16.875843 10.51607 17.197149C10.744367 17.665018 10.814829 18.270992 10.696453 18.800869C10.569621 19.387114 10.380783 19.714058 10.090478 19.846527L9.949554 19.914169H8.066806L7.950869 19.914171C6.298673 19.914217 6.109448 19.914223 5.992429 19.822296C5.975407 19.808926 5.959913 19.793608 5.941667 19.776064C5.854294 19.694328 5.851475 19.468849 5.933212 19.39275C5.964215 19.364565 5.989582 19.325106 5.989582 19.302559C5.989582 19.246189 6.403899 19.068624 6.542005 19.068624C6.629377 19.068624 6.891497 18.933336 6.891497 18.885422C6.891497 18.862875 6.916863 18.831871 6.947866 18.81496C6.987325 18.795231 7.004236 18.755772 7.004236 18.690948C7.004236 18.637396 7.023965 18.581026 7.046513 18.561296C7.100064 18.516201 7.100064 18.310452 7.046513 18.23999C7.023965 18.208986 7.004236 18.124432 7.004236 18.051151C7.004236 17.963778 6.987325 17.896133 6.947866 17.848219C6.911226 17.803123 6.891497 17.735479 6.891497 17.650927C6.891497 17.563553 6.874585 17.512819 6.835127 17.476179C6.79285 17.436722 6.778758 17.388807 6.778758 17.281704C6.778758 17.171783 6.764665 17.123869 6.722388 17.087229C6.68293 17.053408 6.666018 17.005493 6.666018 16.918119C6.666018 16.833565 6.646289 16.771559 6.609648 16.72928C6.567371 16.681366 6.553278 16.624996 6.553278 16.498165C6.553278 16.388245 6.533549 16.295235 6.496909 16.221954C6.446176 16.120487 6.440539 16.055662 6.440539 15.42714C6.443358 14.809892 6.448994 14.730974 6.496909 14.629509C6.527912 14.564683 6.55046 14.454762 6.553278 14.373026C6.553278 14.265924 6.567371 14.215192 6.609648 14.178552C6.651925 14.141911 6.666018 14.091177 6.666018 13.992531C6.666018 13.885428 6.677292 13.848788 6.722388 13.826241C6.761846 13.803692 6.778758 13.767052 6.778758 13.699408C6.778758 13.631764 6.795669 13.589487 6.835127 13.566939C6.86613 13.547211 6.891497 13.499296 6.891497 13.459838C6.891497 13.420379 6.916863 13.372463 6.947866 13.352735C6.978869 13.333006 7.004236 13.293546 7.004236 13.262543C7.004236 13.23154 7.029603 13.19208 7.060606 13.172352C7.091609 13.152622 7.116976 13.107527 7.116976 13.073705C7.116976 13.039883 7.142343 12.997606 7.173346 12.980695C7.204349 12.963783 7.229715 12.93278 7.229715 12.910232C7.229715 12.887684 7.255082 12.853862 7.286085 12.834133C7.317088 12.814404 7.342454 12.783401 7.342454 12.763671C7.342454 12.743941 7.367821 12.715757 7.398824 12.698846C7.429827 12.681934 7.455194 12.650931 7.455194 12.628384C7.455194 12.605836 7.480561 12.572014 7.511564 12.552284C7.542567 12.532556 7.567934 12.50437 7.567934 12.490278C7.567934 12.479003 7.644032 12.394449 7.737042 12.304257C7.830053 12.214067 7.906152 12.129511 7.906152 12.1126C7.906152 12.095691 7.931519 12.073143 7.962522 12.064686C7.993525 12.056231 8.018891 12.028046 8.018891 12.005498C8.018891 11.982951 8.030165 11.96604 8.041439 11.96604C8.052713 11.96604 8.117537 11.915306 8.182364 11.8533C8.24437 11.791294 8.306376 11.740561 8.314833 11.740561C8.331743 11.740561 8.385295 11.698283 8.464212 11.625003C8.489578 11.599636 8.554404 11.557359 8.605136 11.531992C8.684054 11.492534 8.695328 11.469986 8.695328 11.374157C8.695328 11.292421 8.681235 11.255781 8.638958 11.233233C8.607955 11.216322 8.582588 11.190956 8.582588 11.176864C8.582588 11.16277 8.472668 11.044394 8.340199 10.917562C7.773683 10.370776 7.680673 10.277767 7.680673 10.263674C7.680673 10.255219 7.62994 10.196031 7.567934 10.134023C7.505928 10.072017 7.455194 10.007192 7.455194 9.995918C7.455194 9.981826 7.421372 9.950823 7.381913 9.922637C7.274811 9.854993 7.004236 9.5816 7.004236 9.54496C7.004236 9.530868 6.978869 9.502682 6.947866 9.485772C6.916863 9.468861 6.891497 9.432221 6.891497 9.401217C6.891497 9.370214 6.86613 9.333573 6.835127 9.316663C6.804124 9.299751 6.778758 9.263112 6.778758 9.232107C6.778758 9.201104 6.753391 9.164464 6.722388 9.147553C6.688566 9.130642 6.666018 9.088365 6.666018 9.048907C6.666018 9.009447 6.640651 8.955896 6.609648 8.93053C6.575827 8.899527 6.553278 8.845976 6.553278 8.789606C6.553278 8.730417 6.530731 8.676867 6.496909 8.648682C6.454632 8.612041 6.440539 8.564127 6.440539 8.471117C6.440539 8.3922 6.417991 8.313282 6.38417 8.25973C6.333436 8.183631 6.3278 8.127261 6.3278 7.710125C6.3278 7.307082 6.336255 7.228164 6.38417 7.121062C6.417991 7.0506 6.440539 6.93786 6.440539 6.850488C6.440539 6.740566 6.454632 6.692653 6.496909 6.653193C6.536367 6.616552 6.553278 6.56582 6.553278 6.484084C6.553278 6.402348 6.57019 6.351615 6.609648 6.314975C6.640651 6.286791 6.666018 6.230421 6.666018 6.190961C6.666018 6.148685 6.688566 6.103589 6.722388 6.081041C6.753391 6.061312 6.778758 6.016216 6.778758 5.976757C6.778758 5.937298 6.801305 5.895021 6.835127 5.87811C6.86613 5.861198 6.891497 5.827376 6.891497 5.799192C6.891497 5.773826 6.94223 5.706182 7.004236 5.652631C7.066242 5.59908 7.116976 5.539892 7.116976 5.520163C7.116976 5.500432 7.142343 5.472248 7.173346 5.455338C7.204349 5.438426 7.229715 5.407423 7.229715 5.382056C7.229715 5.359509 7.249444 5.334142 7.27763 5.322868C7.302995 5.311594 7.367821 5.258043 7.424191 5.198854C7.480561 5.142485 7.570752 5.066386 7.624303 5.035383ZM19.7297 2.02524C19.828346 1.988599 20.423048 1.994236 20.620342 2.036514C20.690804 2.050605 20.795088 2.090065 20.851458 2.126705C20.992382 2.211259 21.237591 2.490289 21.322145 2.656581C21.386971 2.780594 21.392607 2.822871 21.392607 3.200548C21.392607 3.552859 21.384151 3.637414 21.327782 3.806523C21.153036 4.325124 20.783813 4.790174 20.186295 5.238314C19.895992 5.455337 19.864986 5.469429 19.797344 5.410241C19.769159 5.384875 19.743793 5.348235 19.743793 5.334142C19.743793 5.317232 19.721245 5.280591 19.695879 5.252405C19.65642 5.20731 19.653601 5.190399 19.681787 5.15094C19.701515 5.125575 19.726883 5.074841 19.743793 5.0382C19.757885 5.004379 19.788889 4.976194 19.814255 4.976194C19.836803 4.976194 19.856533 4.967739 19.856533 4.953647C19.856533 4.942372 19.907265 4.897277 19.969271 4.852181C20.031279 4.804266 20.08201 4.753534 20.08201 4.736623C20.08201 4.72253 20.107378 4.691527 20.13838 4.671798C20.169384 4.652069 20.19475 4.618247 20.19475 4.595699C20.19475 4.573151 20.220118 4.542147 20.25112 4.525237C20.282124 4.508325 20.307489 4.471686 20.307489 4.440681C20.307489 4.409678 20.332857 4.373038 20.363859 4.356127C20.400499 4.336399 20.420229 4.296939 20.420229 4.246207C20.420229 4.203928 20.445597 4.144742 20.476599 4.116556C20.521694 4.074279 20.532969 4.029183 20.532969 3.871348C20.532969 3.716331 20.521694 3.659962 20.476599 3.603592C20.445597 3.564133 20.420229 3.502126 20.420229 3.468305C20.420229 3.355565 20.144018 3.200548 19.938269 3.200548C19.7297 3.200548 19.405575 3.028621 19.405575 2.915881C19.405575 2.893334 19.385845 2.845419 19.360479 2.811597C19.337931 2.777775 19.309746 2.679129 19.301291 2.591755C19.287199 2.462105 19.292835 2.428283 19.343569 2.374732C19.374571 2.34091 19.405575 2.281722 19.411213 2.245081C19.419666 2.180256 19.538042 2.09852 19.7297 2.02524ZM17.319895 2.039331C17.415722 2.00551 17.520006 1.994236 17.75676 2.002692C18.275362 2.016783 18.416286 2.064698 18.616398 2.290177C18.977165 2.698858 19.039171 2.944066 18.940523 3.566952C18.864426 4.029183 18.641766 4.418134 18.213356 4.823996C17.844133 5.176307 17.525644 5.427152 17.446728 5.427152C17.297346 5.427152 17.195881 5.131211 17.319895 5.055112C17.350899 5.035383 17.376265 5.001561 17.376265 4.981832C17.376265 4.962101 17.395994 4.939554 17.418541 4.931098C17.480549 4.905732 17.827223 4.553422 17.827223 4.513963C17.827223 4.497052 17.852589 4.466048 17.883593 4.446319C17.914595 4.42659 17.939962 4.384313 17.939962 4.35049C17.939962 4.316668 17.965328 4.260298 17.999149 4.226477C18.052702 4.170107 18.058338 4.12783 18.058338 3.845981C18.061157 3.55004 18.055519 3.524674 17.999149 3.488034C17.968147 3.465486 17.939962 3.428845 17.939962 3.409116C17.939962 3.341473 17.669388 3.209004 17.489004 3.192092C17.395994 3.180819 17.277618 3.155453 17.226885 3.132904C17.08596 3.076534 16.925306 2.924337 16.925306 2.848238C16.925306 2.814416 16.905579 2.76932 16.88303 2.749591C16.860481 2.729861 16.840754 2.679129 16.840754 2.636852C16.840754 2.591756 16.860481 2.552296 16.88303 2.541023C16.908396 2.532567 16.925306 2.490289 16.925306 2.445193C16.925306 2.400098 16.950674 2.34091 16.981676 2.312725C17.01268 2.284541 17.038046 2.245081 17.038046 2.228171C17.038046 2.180256 17.16206 2.09852 17.319895 2.039331ZM3.213372 18.558477C3.374027 18.535931 3.903902 18.558477 3.946179 18.586664C3.96309 18.597937 4.030734 18.626122 4.101196 18.645851C4.270306 18.699402 4.543698 18.969976 4.653618 19.195456C4.732537 19.35611 4.735355 19.381475 4.735355 19.730968C4.732537 20.136829 4.693078 20.342579 4.552154 20.630064C4.346405 21.061293 4.087104 21.351599 3.526224 21.785645C3.224646 22.019579 3.216191 22.022398 3.154185 21.977301C3.117544 21.951935 3.075266 21.889929 3.058356 21.842014C3.027353 21.754641 3.044263 21.605261 3.083723 21.605261C3.094997 21.605261 3.157003 21.554529 3.221829 21.492521C3.283835 21.430515 3.351479 21.379782 3.36839 21.379782C3.382482 21.379782 3.396574 21.360054 3.396574 21.334686C3.396574 21.30932 3.421941 21.283953 3.452944 21.275497C3.483947 21.267042 3.509314 21.244495 3.509314 21.221947C3.509314 21.202219 3.53468 21.171215 3.565683 21.154305C3.596687 21.137392 3.622053 21.100752 3.622053 21.06975C3.622053 21.038746 3.64742 21.002106 3.678423 20.985195C3.709426 20.968283 3.734793 20.931644 3.734793 20.903458C3.734793 20.875275 3.760159 20.830177 3.791162 20.801992C3.841896 20.756897 3.847532 20.714621 3.847532 20.421497C3.847532 20.128374 3.841896 20.086098 3.791162 20.041002C3.760159 20.012817 3.734793 19.976177 3.734793 19.956448C3.734793 19.902895 3.455763 19.778883 3.23592 19.730968C2.886428 19.660507 2.720138 19.567497 2.720138 19.44912C2.720138 19.415298 2.694771 19.364565 2.663768 19.33638C2.624309 19.29974 2.607398 19.249006 2.607398 19.167271C2.607398 19.085535 2.624309 19.034801 2.663768 18.998161C2.694771 18.969976 2.720138 18.922062 2.720138 18.893877C2.720138 18.767046 2.982257 18.589481 3.213372 18.558477Z"/></svg>
