<svg xmlns="http://www.w3.org/2000/svg" viewBox="0 0 24 24" width="24" height="24">
  <path fill="currentColor" d="M 8.1234375,5.16796875 c -0.084375,0.084375 -0.1546875,0.16171875 -0.1546875,0.17578125 c 0,0.01171875 -0.02109375,0.0328125 -0.046875,0.046875 s -0.046875,0.03984375 -0.046875,0.05859375 s -0.02109375,0.046875 -0.046875,0.06328125 s -0.046875,0.04921875 -0.046875,0.0703125 c 0,0.0234375 -0.02109375,0.0515625 -0.046875,0.065625 s -0.046875,0.0421875 -0.046875,0.065625 c 0,0.02109375 -0.02109375,0.05390625 -0.046875,0.0703125 s -0.046875,0.046875 -0.046875,0.07265625 c 0,0.0234375 -0.02109375,0.0609375 -0.046875,0.084375 s -0.046875,0.0703125 -0.046875,0.10546875 s -0.02109375,0.08203125 -0.046875,0.10546875 c -0.03046875,0.028125 -0.046875,0.07265625 -0.046875,0.1265625 c 0,0.05625 -0.01640625,0.0984375 -0.046875,0.1265625 c -0.03984375,0.0328125 -0.046875,0.06796875 -0.046875,0.22734375 c 0,0.12890625 -0.0140625,0.23203125 -0.04921875,0.33046875 c -0.06328125,0.18046875 -0.05625,0.53671875 0.009375,0.63046875 c 0.02578125,0.0375 0.03984375,0.103125 0.03984375,0.18984375 c 0,0.10078125 0.01171875,0.140625 0.046875,0.1734375 c 0.03046875,0.028125 0.046875,0.07265625 0.046875,0.13125 c 0,0.065625 0.01171875,0.09609375 0.046875,0.11484375 c 0.0328125,0.01640625 0.046875,0.04921875 0.046875,0.103125 c 0,0.046875 0.01875,0.09375 0.046875,0.11953125 c 0.02578125,0.0234375 0.046875,0.0609375 0.046875,0.084375 s 0.02109375,0.05390625 0.046875,0.06796875 s 0.046875,0.0421875 0.046875,0.0609375 c 0,0.02109375 0.084375,0.11953125 0.1875,0.2203125 s 0.1875,0.1875 0.1875,0.19453125 s 0.16875,0.1828125 0.375,0.39140625 c 0.20625,0.2109375 0.375,0.384375 0.375,0.39140625 c 0,0.0046875 0.10078125,0.11015625 0.22265625,0.23203125 c 0.121875,0.12421875 0.22265625,0.234375 0.22265625,0.24609375 c 0,0.0328125 -0.08671875,0.1125 -0.3046875,0.2765625 c -0.11015625,0.08203125 -0.23671875,0.1921875 -0.28359375,0.24140625 s -0.09609375,0.0890625 -0.11015625,0.0890625 c -0.01640625,0 -0.028125,0.0140625 -0.028125,0.028125 c 0,0.01640625 -0.0421875,0.06796875 -0.09375,0.1125 s -0.09375,0.09375 -0.09375,0.1078125 c 0,0.01640625 -0.02109375,0.0328125 -0.046875,0.03984375 c -0.028125,0.00703125 -0.046875,0.0328125 -0.046875,0.0609375 c 0,0.02578125 -0.02109375,0.05859375 -0.046875,0.07265625 s -0.046875,0.0421875 -0.046875,0.065625 c 0,0.02109375 -0.02109375,0.05390625 -0.046875,0.0703125 s -0.046875,0.04453125 -0.046875,0.0609375 c 0,0.01875 -0.02109375,0.0421875 -0.046875,0.04921875 s -0.046875,0.03515625 -0.046875,0.05859375 c 0,0.02578125 -0.02109375,0.05625 -0.046875,0.0703125 c -0.028125,0.0140625 -0.046875,0.04921875 -0.046875,0.08203125 s -0.01875,0.06796875 -0.046875,0.08203125 s -0.046875,0.04921875 -0.046875,0.08203125 s -0.01875,0.06796875 -0.046875,0.08203125 c -0.03046875,0.01640625 -0.046875,0.04921875 -0.046875,0.09375 s -0.01640625,0.07734375 -0.046875,0.09375 c -0.03515625,0.01875 -0.046875,0.04921875 -0.046875,0.11484375 c 0,0.05859375 -0.01640625,0.103125 -0.046875,0.13125 s -0.046875,0.07265625 -0.046875,0.12890625 c 0,0.05390625 -0.01875,0.1078125 -0.046875,0.140625 c -0.03515625,0.03984375 -0.046875,0.08671875 -0.046875,0.18046875 c 0,0.07734375 -0.01640625,0.15703125 -0.03984375,0.2015625 c -0.0375,0.065625 -0.0421875,0.14296875 -0.0421875,0.57890625 c 0,0.44296875 0.0046875,0.5109375 0.0421875,0.5625 c 0.028125,0.03984375 0.03984375,0.103125 0.03984375,0.21328125 c 0,0.12421875 0.009375,0.16171875 0.046875,0.196875 c 0.0328125,0.03046875 0.046875,0.07265625 0.046875,0.1453125 c 0,0.0703125 0.01640625,0.1265625 0.046875,0.1640625 c 0.0328125,0.0421875 0.046875,0.09609375 0.046875,0.1734375 c 0,0.08671875 0.009375,0.11953125 0.04453125,0.1359375 c 0.03515625,0.01875 0.04453125,0.05859375 0.05390625,0.20859375 c 0.00703125,0.11953125 0.0234375,0.20390625 0.04921875,0.24140625 c 0.0234375,0.0328125 0.03984375,0.10078125 0.03984375,0.1734375 c 0.00234375,0.06328125 0.01640625,0.14296875 0.03515625,0.17578125 c 0.04453125,0.07734375 0.04453125,0.2203125 0,0.2578125 c -0.01875,0.01640625 -0.03515625,0.05390625 -0.03515625,0.084375 s -0.02109375,0.06796875 -0.046875,0.084375 s -0.046875,0.04453125 -0.046875,0.0609375 c 0,0.05625 -0.1265625,0.140625 -0.2578125,0.16875 c -0.2109375,0.046875 -0.328125,0.0984375 -0.4125,0.178125 c -0.0703125,0.065625 -0.0796875,0.08671875 -0.0796875,0.196875 s 0.009375,0.13125 0.084375,0.2015625 l 0.08203125,0.0796875 l 3.24375,0 l 0.1171875,-0.0890625 c 0.065625,-0.04921875 0.1359375,-0.12421875 0.15703125,-0.16875 c 0.29296875,-0.6046875 0.31640625,-0.69609375 0.29296875,-1.171875 c -0.01171875,-0.234375 -0.028125,-0.30703125 -0.11015625,-0.55078125 c -0.05390625,-0.1546875 -0.11484375,-0.309375 -0.1359375,-0.34453125 c -0.1125,-0.17578125 -0.23203125,-0.3328125 -0.4078125,-0.54375 c -0.17578125,-0.20859375 -0.2765625,-0.33515625 -0.7171875,-0.90234375 c -0.36796875,-0.4734375 -0.38203125,-0.51328125 -0.39609375,-0.9984375 c -0.009375,-0.309375 -0.0046875,-0.38671875 0.04921875,-0.6375 c 0.06796875,-0.3375 0.09609375,-0.39375 0.33515625,-0.7078125 c 0.10078125,-0.13125 0.20390625,-0.27421875 0.2296875,-0.31875 l 0.04921875,-0.0796875 l 0.140625,0.11015625 c 0.07734375,0.0609375 0.1828125,0.15234375 0.23671875,0.20390625 c 0.0515625,0.0515625 0.234375,0.225 0.40546875,0.38671875 c 0.41953125,0.3984375 4.21875,4.190625 4.21875,4.21171875 c 0,0.01171875 0.02109375,0.0328125 0.046875,0.04921875 s 0.046875,0.0421875 0.046875,0.0609375 c 0,0.01640625 0.02109375,0.04921875 0.046875,0.07265625 s 0.046875,0.0609375 0.046875,0.08671875 c 0,0.0234375 0.02109375,0.0609375 0.046875,0.08203125 c 0.02578125,0.0234375 0.046875,0.065625 0.046875,0.09375 c 0,0.03046875 0.02109375,0.065625 0.046875,0.08203125 c 0.028125,0.01875 0.046875,0.05625 0.046875,0.09140625 c 0,0.0328125 0.02109375,0.0796875 0.046875,0.103125 c 0.03046875,0.028125 0.046875,0.07265625 0.046875,0.12890625 s 0.01640625,0.10078125 0.046875,0.12890625 c 0.0421875,0.0375 0.046875,0.07265625 0.046875,0.28125 c 0,0.20390625 0.00703125,0.2484375 0.046875,0.3 c 0.02578125,0.0328125 0.046875,0.08671875 0.046875,0.121875 c 0,0.04921875 0.01875,0.06796875 0.0890625,0.0984375 c 0.046875,0.02109375 0.1359375,0.0421875 0.196875,0.04921875 c 0.10546875,0.009375 0.11484375,0.00703125 0.2671875,-0.1265625 c 0.29296875,-0.25546875 0.5015625,-0.48515625 0.5625,-0.61875 c 0.0328125,-0.0703125 0.0796875,-0.1546875 0.10546875,-0.18984375 c 0.10546875,-0.14765625 0.24375,-0.6796875 0.26484375,-1.01953125 c 0.01875,-0.30234375 -0.0234375,-0.82734375 -0.0796875,-0.9703125 c -0.02578125,-0.065625 -0.046875,-0.13828125 -0.046875,-0.16171875 c 0,-0.046875 -0.08203125,-0.23203125 -0.17578125,-0.40078125 c -0.0328125,-0.05859375 -0.05859375,-0.1171875 -0.05859375,-0.13359375 c 0,-0.05390625 -0.27890625,-0.3515625 -1.303125,-1.396875 c -0.7546875,-0.77109375 -0.721875,-0.70546875 -0.7078125,-1.3359375 l 0.009375,-0.403125 l 0.1078125,-0.24140625 c 0.1828125,-0.3984375 0.48515625,-0.890625 0.67265625,-1.0921875 c 0.12421875,-0.13125 0.19921875,-0.159375 0.31875,-0.11484375 c 0.13359375,0.0515625 0.15,0.07265625 0.1734375,0.2296875 c 0.01171875,0.07734375 0.03515625,0.20625 0.0515625,0.28828125 c 0.03046875,0.1453125 0.0328125,0.15 0.14765625,0.20859375 c 0.22734375,0.11484375 0.35625,0.075 0.5296875,-0.16171875 c 0.065625,-0.09140625 0.13125,-0.1921875 0.14296875,-0.22265625 c 0.01171875,-0.0328125 0.0421875,-0.08671875 0.065625,-0.121875 c 0.0234375,-0.0328125 0.0515625,-0.08671875 0.0609375,-0.11953125 s 0.046875,-0.12890625 0.084375,-0.21328125 c 0.06328125,-0.15 0.15234375,-0.5109375 0.16640625,-0.67734375 c 0.01171875,-0.18046875 -0.03515625,-0.5765625 -0.08671875,-0.7265625 c -0.03046875,-0.084375 -0.06796875,-0.19921875 -0.08203125,-0.2578125 c -0.03515625,-0.1265625 -0.19453125,-0.38203125 -0.32109375,-0.50625 c -0.2671875,-0.26484375 -0.8953125,-0.63046875 -1.34296875,-0.78515625 c -0.20625,-0.0703125 -0.31171875,-0.140625 -0.50390625,-0.3375 c -0.22734375,-0.23203125 -0.28359375,-0.34921875 -0.27421875,-0.571875 c 0.009375,-0.29765625 -0.0703125,-0.44765625 -0.23671875,-0.44765625 c -0.09375,0 -0.29765625,0.09609375 -0.29765625,0.140625 c 0,0.01171875 -0.02109375,0.028125 -0.046875,0.03515625 s -0.046875,0.02578125 -0.046875,0.0375 s -0.0421875,0.0609375 -0.09375,0.1125 c -0.0515625,0.04921875 -0.09375,0.103125 -0.09375,0.11484375 c 0,0.0140625 -0.02109375,0.0375 -0.046875,0.0515625 s -0.046875,0.03984375 -0.046875,0.05859375 s -0.02109375,0.04453125 -0.046875,0.05859375 s -0.046875,0.04453125 -0.046875,0.0703125 s -0.02109375,0.05625 -0.046875,0.0703125 s -0.046875,0.04921875 -0.046875,0.07734375 s -0.02109375,0.065625 -0.046875,0.08203125 c -0.028125,0.01640625 -0.046875,0.05390625 -0.046875,0.09609375 c 0,0.03515625 -0.02109375,0.084375 -0.046875,0.1078125 s -0.046875,0.0703125 -0.046875,0.10546875 s -0.02109375,0.08203125 -0.046875,0.10546875 c -0.0375,0.0328125 -0.046875,0.07265625 -0.046875,0.18515625 c 0,0.103125 -0.0140625,0.16171875 -0.046875,0.21328125 c -0.06796875,0.103125 -0.06796875,0.56953125 0,0.7171875 c 0.02578125,0.05625 0.046875,0.1359375 0.046875,0.178125 c 0,0.0515625 0.0140625,0.084375 0.046875,0.10078125 c 0.02578125,0.0140625 0.046875,0.04453125 0.046875,0.0703125 s 0.02109375,0.05625 0.046875,0.0703125 s 0.046875,0.03984375 0.046875,0.05859375 s 0.02109375,0.046875 0.046875,0.06328125 s 0.046875,0.046875 0.046875,0.065625 s 0.02109375,0.04921875 0.046875,0.065625 s 0.046875,0.03984375 0.046875,0.05625 c 0,0.0140625 0.065625,0.09140625 0.14765625,0.16875 c 0.16171875,0.1546875 0.60234375,0.4078125 0.88359375,0.50859375 c 0.1734375,0.0609375 0.2484375,0.103125 0.2671875,0.15234375 c 0.00703125,0.01875 -0.0421875,0.08671875 -0.1265625,0.1734375 c -0.07734375,0.075 -0.140625,0.15 -0.140625,0.16171875 c 0,0.0140625 -0.02109375,0.03515625 -0.046875,0.04921875 s -0.046875,0.04453125 -0.046875,0.06796875 s -0.02109375,0.0609375 -0.046875,0.084375 s -0.046875,0.065625 -0.046875,0.09140625 c 0,0.028125 -0.02109375,0.06328125 -0.046875,0.0796875 s -0.046875,0.05390625 -0.046875,0.08671875 s -0.01875,0.06796875 -0.046875,0.08203125 c -0.03046875,0.01640625 -0.046875,0.04921875 -0.046875,0.09375 s -0.01640625,0.07734375 -0.046875,0.09375 s -0.046875,0.04921875 -0.046875,0.09140625 c 0,0.03515625 -0.02109375,0.084375 -0.046875,0.1078125 s -0.046875,0.0703125 -0.046875,0.10546875 s -0.02109375,0.08203125 -0.046875,0.10546875 c -0.03046875,0.028125 -0.046875,0.07265625 -0.046875,0.1265625 c 0,0.046875 -0.02109375,0.11484375 -0.046875,0.1546875 c -0.02578125,0.0375 -0.046875,0.0890625 -0.046875,0.11015625 c 0,0.0234375 -0.009375,0.0421875 -0.02109375,0.0421875 s -0.03046875,0.02109375 -0.0375,0.046875 c -0.0140625,0.046875 -0.01875,0.04453125 -0.10078125,-0.02109375 c -0.1921875,-0.15234375 -4.35703125,-4.33359375 -4.43671875,-4.45546875 c -0.046875,-0.0703125 -0.11484375,-0.20390625 -0.15,-0.29296875 c -0.03515625,-0.09140625 -0.08203125,-0.196875 -0.10546875,-0.234375 c -0.0421875,-0.0703125 -0.1171875,-0.50625 -0.1171875,-0.675 c 0,-0.1875 -0.1171875,-0.27421875 -0.36796875,-0.27421875 l -0.16640625,0 z M 19.9734375,9.74765625 c -0.05390625,0.009375 -0.14296875,0.0515625 -0.19921875,0.09140625 c -0.05390625,0.03984375 -0.4734375,0.2625 -0.93046875,0.4921875 l -0.83203125,0.41953125 l -0.00703125,0.1171875 c -0.00703125,0.10546875 0,0.121875 0.05625,0.159375 c 0.05390625,0.03515625 0.07734375,0.0375 0.1359375,0.01640625 c 0.1359375,-0.04921875 0.37734375,-0.0984375 0.4828125,-0.0984375 c 0.084375,0.00234375 0.121875,0.01640625 0.1828125,0.0703125 l 0.07734375,0.0703125 l -0.00703125,2.64375 c -0.00703125,2.1328125 -0.0140625,2.66015625 -0.03984375,2.73515625 c -0.01875,0.05625 -0.0328125,0.21328125 -0.03515625,0.3890625 c -0.00234375,0.253125 0.0046875,0.3046875 0.03984375,0.3421875 c 0.02109375,0.02578125 0.03984375,0.06796875 0.03984375,0.09609375 c 0,0.0328125 0.02578125,0.065625 0.07734375,0.09140625 c 0.06328125,0.03515625 0.1359375,0.0421875 0.48515625,0.0421875 c 0.42890625,0 0.53203125,-0.01875 0.628125,-0.10546875 c 0.09609375,-0.0890625 0.103125,-0.1875 0.05859375,-0.8484375 c -0.05390625,-0.80859375 -0.05859375,-4.43203125 -0.009375,-5.80546875 c 0.028125,-0.7640625 0.028125,-0.9 0,-0.91875 c -0.0375,-0.0234375 -0.05859375,-0.0234375 -0.20390625,0"/>
</svg>
