<svg xmlns="http://www.w3.org/2000/svg" width="24" height="24" viewBox="0 0 24 24"><path d="M19.75 4C20.992599 4 22 5.00736 22 6.25V8.75C22 9.99264 20.992599 11 19.75 11H17.25C16.007401 11 15 9.99264 15 8.75V6.25C15 5.00736 16.007401 4 17.25 4ZM19.75 13C20.992599 13 22 14.0074 22 15.25V17.75C22 18.992599 20.992599 20 19.75 20H17.25C16.007401 20 15 18.992599 15 17.75V15.25C15 14.0074 16.007401 13 17.25 13ZM12.75 5C13.1642 5 13.5 5.33579 13.5 5.75C13.5 6.16421 13.1642 6.5 12.75 6.5H2.75C2.33579 6.5 2 6.16421 2 5.75C2 5.33579 2.33579 5 2.75 5ZM12.75 14C13.1642 14 13.5 14.3358 13.5 14.75C13.5 15.1642 13.1642 15.5 12.75 15.5H2.75C2.33579 15.5 2 15.1642 2 14.75C2 14.3358 2.33579 14 2.75 14ZM20.5 6.25C20.5 5.83579 20.1642 5.5 19.75 5.5H17.25C16.8358 5.5 16.5 5.83579 16.5 6.25V8.75C16.5 9.16421 16.8358 9.5 17.25 9.5H19.75C20.1642 9.5 20.5 9.16421 20.5 8.75ZM20.5 15.25C20.5 14.8358 20.1642 14.5 19.75 14.5H17.25C16.8358 14.5 16.5 14.8358 16.5 15.25V17.75C16.5 18.1642 16.8358 18.5 17.25 18.5H19.75C20.1642 18.5 20.5 18.1642 20.5 17.75ZM12.75 8C13.1642 8 13.5 8.33579 13.5 8.75C13.5 9.16421 13.1642 9.5 12.75 9.5H5.75C5.33579 9.5 5 9.16421 5 8.75C5 8.33579 5.33579 8 5.75 8ZM12.75 17C13.1642 17 13.5 17.3358 13.5 17.75C13.5 18.1642 13.1642 18.5 12.75 18.5H5.75C5.33579 18.5 5 18.1642 5 17.75C5 17.3358 5.33579 17 5.75 17Z"/></svg>
