<svg xmlns="http://www.w3.org/2000/svg" width="24" height="24" viewBox="0 0 24 24"><path d="M17.7521 16.0021C16.7856 16.0021 16.0021 16.7856 16.0021 17.7521L16.0021 20.25C16.0021 21.2165 16.7856 22 17.7521 22L20.25 22C21.2165 22 22 21.2165 22 20.25L22 17.7521C22 16.7856 21.2165 16.0021 20.25 16.0021L17.7521 16.0021ZM17.7521 17.5021L20.25 17.5021C20.3881 17.5021 20.5 17.6141 20.5 17.7521L20.5 20.25C20.5 20.3881 20.3881 20.5 20.25 20.5L17.7521 20.5C17.6141 20.5 17.5021 20.3881 17.5021 20.25L17.5021 17.7521C17.5021 17.6141 17.6141 17.5021 17.7521 17.5021ZM14.2519 18L2.74706 18C2.33285 18 1.99706 18.3358 1.99706 18.75C1.99706 19.1297 2.27928 19.4435 2.64535 19.4932L2.74706 19.5L14.2519 19.5C14.6661 19.5 15.0019 19.1642 15.0019 18.75C15.0019 18.3703 14.7197 18.0565 14.3537 18.0068L14.2519 18L2.74706 18L14.2519 18ZM17.7521 9.00106C16.7856 9.00106 16.0021 9.78456 16.0021 10.7511L16.0021 13.2489C16.0021 14.2154 16.7856 14.9989 17.7521 14.9989L20.25 14.9989C21.2165 14.9989 22 14.2154 22 13.2489L22 10.7511C22 9.78456 21.2165 9.00106 20.25 9.00106L17.7521 9.00106ZM17.7521 10.5011L20.25 10.5011C20.3881 10.5011 20.5 10.613 20.5 10.7511L20.5 13.2489C20.5 13.387 20.3881 13.4989 20.25 13.4989L17.7521 13.4989C17.6141 13.4989 17.5021 13.387 17.5021 13.2489L17.5021 10.7511C17.5021 10.613 17.6141 10.5011 17.7521 10.5011ZM14.2519 11L2.74706 11C2.33285 11 1.99706 11.3358 1.99706 11.75C1.99706 12.1297 2.27928 12.4435 2.64535 12.4932L2.74706 12.5L14.2519 12.5C14.6661 12.5 15.0019 12.1642 15.0019 11.75C15.0019 11.3703 14.7197 11.0565 14.3537 11.0068L14.2519 11L2.74706 11L14.2519 11ZM17.7521 2C16.7856 2 16.0021 2.7835 16.0021 3.75L16.0021 6.24788C16.0021 7.21437 16.7856 7.99788 17.7521 7.99788L20.25 7.99788C21.2165 7.99788 22 7.21437 22 6.24788L22 3.75C22 2.7835 21.2165 2 20.25 2L17.7521 2ZM17.7521 3.5L20.25 3.5C20.3881 3.5 20.5 3.61193 20.5 3.75L20.5 6.24788C20.5 6.38595 20.3881 6.49788 20.25 6.49788L17.7521 6.49788C17.6141 6.49788 17.5021 6.38595 17.5021 6.24788L17.5021 3.75C17.5021 3.61193 17.6141 3.5 17.7521 3.5ZM14.2519 4L2.74706 4C2.33285 4 1.99706 4.33579 1.99706 4.75C1.99706 5.1297 2.27928 5.44349 2.64535 5.49315L2.74706 5.5L14.2519 5.5C14.6661 5.5 15.0019 5.16421 15.0019 4.75C15.0019 4.3703 14.7197 4.05651 14.3537 4.00685L14.2519 4L2.74706 4L14.2519 4Z"/></svg>
