<svg xmlns="http://www.w3.org/2000/svg" width="24" height="24" viewBox="0 0 24 24"><path d="M17.752119 16.0021H20.25C21.216499 16.0021 22 16.785601 22 17.7521V20.25C22 21.216499 21.216499 22 20.25 22H17.752119C16.785629 22 16.002119 21.216499 16.002119 20.25V17.7521C16.002119 16.785601 16.785629 16.0021 17.752119 16.0021ZM17.752119 2H20.25C21.216499 2 22 2.7835 22 3.75V6.24788C22 7.21437 21.216499 7.99788 20.25 7.99788H17.752119C16.785629 7.99788 16.002119 7.21437 16.002119 6.24788V3.75C16.002119 2.7835 16.785629 2 17.752119 2ZM17.752119 9.00106H20.25C21.216499 9.00106 22 9.78456 22 10.7511V13.2489C22 14.2154 21.216499 14.9989 20.25 14.9989H17.752119C16.785629 14.9989 16.002119 14.2154 16.002119 13.2489V10.7511C16.002119 9.78456 16.785629 9.00106 17.752119 9.00106ZM14.25191 18 14.35368 18.0068C14.71975 18.056499 15.00191 18.3703 15.00191 18.75C15.00191 19.1642 14.66612 19.5 14.25191 19.5H2.7471L2.6453 19.4932C2.2793 19.443501 1.9971 19.1297 1.9971 18.75C1.9971 18.3358 2.3329 18 2.7471 18ZM14.25191 11 14.35368 11.0068C14.71975 11.0565 15.00191 11.3703 15.00191 11.75C15.00191 12.1642 14.66612 12.5 14.25191 12.5H2.7471L2.6453 12.4932C2.2793 12.4435 1.9971 12.1297 1.9971 11.75C1.9971 11.3358 2.3329 11 2.7471 11ZM14.25191 4 14.35368 4.00685C14.71975 4.05651 15.00191 4.3703 15.00191 4.75C15.00191 5.16421 14.66612 5.5 14.25191 5.5H2.7471L2.6453 5.49315C2.2793 5.44349 1.9971 5.1297 1.9971 4.75C1.9971 4.33579 2.3329 4 2.7471 4Z"/></svg>
