<svg xmlns="http://www.w3.org/2000/svg" width="24" height="24" viewBox="0 0 24 24"><path d="M17.75212 16.0021C16.78563 16.0021 16.00212 16.7856 16.00212 17.7521L16.00212 20.25C16.00212 21.2165 16.78563 22 17.75212 22L20.25 22C21.2165 22 22 21.2165 22 20.25L22 17.7521C22 16.7856 21.2165 16.0021 20.25 16.0021L17.75212 16.0021ZM14.25191 18L2.7471 18C2.3329 18 1.9971 18.3358 1.9971 18.75C1.9971 19.1297 2.2793 19.4435 2.6453 19.4932L2.7471 19.5L14.25191 19.5C14.66612 19.5 15.00191 19.1642 15.00191 18.75C15.00191 18.3703 14.71975 18.0565 14.35368 18.0068L14.25191 18L2.7471 18L14.25191 18ZM17.75212 9.00106C16.78563 9.00106 16.00212 9.78456 16.00212 10.7511L16.00212 13.2489C16.00212 14.2154 16.78563 14.9989 17.75212 14.9989L20.25 14.9989C21.2165 14.9989 22 14.2154 22 13.2489L22 10.7511C22 9.78456 21.2165 9.00106 20.25 9.00106L17.75212 9.00106ZM14.25191 11L2.7471 11C2.3329 11 1.9971 11.3358 1.9971 11.75C1.9971 12.1297 2.2793 12.4435 2.6453 12.4932L2.7471 12.5L14.25191 12.5C14.66612 12.5 15.00191 12.1642 15.00191 11.75C15.00191 11.3703 14.71975 11.0565 14.35368 11.0068L14.25191 11L2.7471 11L14.25191 11ZM17.75212 2C16.78563 2 16.00212 2.7835 16.00212 3.75L16.00212 6.24788C16.00212 7.21437 16.78563 7.99788 17.75212 7.99788L20.25 7.99788C21.2165 7.99788 22 7.21437 22 6.24788L22 3.75C22 2.7835 21.2165 2 20.25 2L17.75212 2ZM14.25191 4L2.7471 4C2.3329 4 1.9971 4.33579 1.9971 4.75C1.9971 5.1297 2.2793 5.44349 2.6453 5.49315L2.7471 5.5L14.25191 5.5C14.66612 5.5 15.00191 5.16421 15.00191 4.75C15.00191 4.3703 14.71975 4.05651 14.35368 4.00685L14.25191 4L2.7471 4L14.25191 4Z"/></svg>
