<svg xmlns="http://www.w3.org/2000/svg" width="24" height="24" viewBox="0 0 24 24"><path d="M17.7521 16.0021H20.25C21.216499 16.0021 22 16.785601 22 17.7521V20.25C22 21.216499 21.216499 22 20.25 22H17.7521C16.785601 22 16.0021 21.216499 16.0021 20.25V17.7521C16.0021 16.785601 16.785601 16.0021 17.7521 16.0021ZM17.7521 2H20.25C21.216499 2 22 2.7835 22 3.75V6.24788C22 7.21437 21.216499 7.99788 20.25 7.99788H17.7521C16.785601 7.99788 16.0021 7.21437 16.0021 6.24788V3.75C16.0021 2.7835 16.785601 2 17.7521 2ZM17.7521 9.00106H20.25C21.216499 9.00106 22 9.78456 22 10.7511V13.2489C22 14.2154 21.216499 14.9989 20.25 14.9989H17.7521C16.785601 14.9989 16.0021 14.2154 16.0021 13.2489V10.7511C16.0021 9.78456 16.785601 9.00106 17.7521 9.00106ZM14.2519 18 14.3537 18.0068C14.7197 18.056499 15.0019 18.3703 15.0019 18.75C15.0019 19.1642 14.6661 19.5 14.2519 19.5H2.74706L2.64535 19.4932C2.27928 19.443501 1.99706 19.1297 1.99706 18.75C1.99706 18.3358 2.33285 18 2.74706 18ZM14.2519 11 14.3537 11.0068C14.7197 11.0565 15.0019 11.3703 15.0019 11.75C15.0019 12.1642 14.6661 12.5 14.2519 12.5H2.74706L2.64535 12.4932C2.27928 12.4435 1.99706 12.1297 1.99706 11.75C1.99706 11.3358 2.33285 11 2.74706 11ZM14.2519 4 14.3537 4.00685C14.7197 4.05651 15.0019 4.3703 15.0019 4.75C15.0019 5.16421 14.6661 5.5 14.2519 5.5H2.74706L2.64535 5.49315C2.27928 5.44349 1.99706 5.1297 1.99706 4.75C1.99706 4.33579 2.33285 4 2.74706 4ZM17.7521 17.5021C17.6141 17.5021 17.5021 17.6141 17.5021 17.7521V20.25C17.5021 20.3881 17.6141 20.5 17.7521 20.5H20.25C20.3881 20.5 20.5 20.3881 20.5 20.25V17.7521C20.5 17.6141 20.3881 17.5021 20.25 17.5021ZM17.7521 3.5C17.6141 3.5 17.5021 3.61193 17.5021 3.75V6.24788C17.5021 6.38595 17.6141 6.49788 17.7521 6.49788H20.25C20.3881 6.49788 20.5 6.38595 20.5 6.24788V3.75C20.5 3.61193 20.3881 3.5 20.25 3.5ZM17.7521 10.5011C17.6141 10.5011 17.5021 10.613 17.5021 10.7511V13.2489C17.5021 13.387 17.6141 13.4989 17.7521 13.4989H20.25C20.3881 13.4989 20.5 13.387 20.5 13.2489V10.7511C20.5 10.613 20.3881 10.5011 20.25 10.5011Z"/></svg>
