<svg xmlns="http://www.w3.org/2000/svg" width="24" height="24" viewBox="0 0 24 24"><path d="M19.75 4C20.9926 4 22 5.00736 22 6.25L22 8.75C22 9.99264 20.9926 11 19.75 11L17.25 11C16.0074 11 15 9.99264 15 8.75L15 6.25C15 5.00736 16.0074 4 17.25 4L19.75 4ZM12.75 5C13.1642 5 13.5 5.33579 13.5 5.75C13.5 6.16421 13.1642 6.5 12.75 6.5L2.75 6.5C2.33579 6.5 2 6.16421 2 5.75C2 5.33579 2.33579 5 2.75 5L12.75 5ZM12.75 8C13.1642 8 13.5 8.33579 13.5 8.75C13.5 9.16421 13.1642 9.5 12.75 9.5L5.75 9.5C5.33579 9.5 5 9.16421 5 8.75C5 8.33579 5.33579 8 5.75 8L12.75 8ZM19.75 13C20.9926 13 22 14.0074 22 15.25L22 17.75C22 18.9926 20.9926 20 19.75 20L17.25 20C16.0074 20 15 18.9926 15 17.75L15 15.25C15 14.0074 16.0074 13 17.25 13L19.75 13ZM12.75 14C13.1642 14 13.5 14.3358 13.5 14.75C13.5 15.1642 13.1642 15.5 12.75 15.5L2.75 15.5C2.33579 15.5 2 15.1642 2 14.75C2 14.3358 2.33579 14 2.75 14L12.75 14ZM12.75 17C13.1642 17 13.5 17.3358 13.5 17.75C13.5 18.1642 13.1642 18.5 12.75 18.5L5.75 18.5C5.33579 18.5 5 18.1642 5 17.75C5 17.3358 5.33579 17 5.75 17L12.75 17Z"/></svg>
