<svg xmlns="http://www.w3.org/2000/svg" width="24" height="24" viewBox="0 0 24 24"><path d="M 11.801444448,4.61291251038 C 11.6534123437,4.65677404788 11.3244508125,4.9089778885 11.3244508125,4.98025230212 C 11.3244508125,4.9912176865 11.2997784052,5.01863173225 11.2696238906,5.0378208625 C 11.239469376,5.05700999275 11.2147969687,5.08990614587 11.2147969687,5.11183691462 C 11.2147969687,5.13376768337 11.1901245615,5.16392336763 11.1599700469,5.18037085937 C 11.1298155323,5.19681835112 11.105143125,5.22423239687 11.105143125,5.24342152712 C 11.105143125,5.26261182701 11.0804707177,5.29276634163 11.0503162031,5.31195547187 C 11.0201616885,5.33114460212 10.9954892812,5.36952403225 10.9954892812,5.39967854688 C 10.9954892812,5.42709259263 10.970816874,5.46547085313 10.9406623594,5.48191951451 C 10.9077662062,5.49836700625 10.8858354375,5.53948690525 10.8858354375,5.57786633538 C 10.8858354375,5.61624459587 10.8639046687,5.65736566451 10.8310085156,5.67381315625 C 10.795370724,5.6930022865 10.7761815937,5.73138171663 10.7761815937,5.7807253615 C 10.7761815937,5.82184526049 10.7515091865,5.87941382087 10.7213546719,5.90682786663 C 10.6857168802,5.93972401975 10.66652775,5.99180930312 10.66652775,6.05760160938 C 10.66652775,6.12339391562 10.6473386198,6.175479199 10.6117008281,6.20837535212 C 10.5733225676,6.24401314375 10.5568739062,6.29335795826 10.5568739062,6.37011447924 C 10.5568739062,6.43590678549 10.5349431375,6.51266447612 10.5102707302,6.55104390625 C 10.3896515021,6.71826631038 10.3869110333,7.842217624 10.5047886229,8.00944002812 C 10.532201499,8.05055992712 10.5568739062,8.12457597924 10.5568739062,8.17392079375 C 10.5568739062,8.23148935413 10.5760630365,8.2835746375 10.6117008281,8.31372915212 C 10.6473386198,8.34388483638 10.66652775,8.39322848125 10.66652775,8.456279149 C 10.66652775,8.52207145525 10.6829764114,8.55770924687 10.7213546719,8.57964001562 C 10.7515091865,8.59608867701 10.7761815937,8.631725299 10.7761815937,8.65913934475 C 10.7761815937,8.68655222087 10.800854001,8.73041375837 10.8310085156,8.75782780413 C 10.8611630302,8.78524068025 10.8858354375,8.82636174888 10.8858354375,8.8510329865 C 10.8858354375,8.87570539375 10.9105078448,8.91134318538 10.9406623594,8.93053231562 C 10.970816874,8.94972144587 10.9954892812,8.97987596049 10.9954892812,8.99906626038 C 10.9954892812,9.01551375212 11.0448340958,9.075823951 11.105143125,9.12790923437 C 11.1654521542,9.17999451775 11.2147969687,9.24030471663 11.2147969687,9.25675220837 C 11.2147969687,9.27594133862 11.233986099,9.29239 11.2559168677,9.29239 C 11.280589275,9.29239 11.3080021511,9.31432076875 11.3162270666,9.338993176 C 11.327192451,9.36366441362 11.4807078323,9.53362845625 11.6588944511,9.71181624475 C 11.8370822396,9.89274450212 11.982373875,10.0490015219 11.982373875,10.0599669062 C 11.982373875,10.0736739291 12.0070462823,10.0928630594 12.0372007969,10.1010868052 C 12.0673553115,10.1093105511 12.0920277187,10.1367245969 12.0920277187,10.1613970041 C 12.0920277187,10.1833277729 12.116700126,10.2079990105 12.1468546406,10.216223926 C 12.1770091552,10.2244476719 12.2016815625,10.2408951636 12.2016815625,10.257343825 C 12.2016815625,10.2820162323 12.5717629927,10.6630630469 12.5991770385,10.6630630469 C 12.6293315531,10.6630630469 12.7472091427,10.8138367896 12.7499507812,10.8522162198 C 12.7499507812,10.8960777573 12.6649693448,10.9783175552 12.5169360709,11.0770060146 C 12.4566270416,11.1181259136 12.3305245365,11.22229765 12.2345777156,11.3155028324 C 12.1413725333,11.4059675459 12.0454245427,11.4882085135 12.023493774,11.4964322594 C 12.0015630052,11.5046560052 11.982373875,11.5293284125 11.982373875,11.5512591812 C 11.982373875,11.57318995 11.9577014677,11.6006028261 11.9275469531,11.6088277416 C 11.8973924385,11.6170514875 11.8727200312,11.6362406177 11.8727200312,11.6499476406 C 11.8727200312,11.660913025 11.7987039791,11.7458944615 11.7082392656,11.8391008135 C 11.6177745521,11.9323059959 11.5437585,12.0200290709 11.5437585,12.0337360937 C 11.5437585,12.0474431166 11.5190860927,12.0721143542 11.4889315781,12.0885630156 C 11.4587770635,12.1050105074 11.4341046562,12.1351661916 11.4341046562,12.1570969604 C 11.4341046562,12.1790277291 11.409432249,12.2091822437 11.3792777344,12.2256297355 C 11.3491232198,12.2420783969 11.3244508125,12.2722329115 11.3244508125,12.2941636802 C 11.3244508125,12.316094449 11.2997784052,12.3462489636 11.2696238906,12.362697625 C 11.239469376,12.3791451167 11.2147969687,12.4147829084 11.2147969687,12.444937423 C 11.2147969687,12.4750931073 11.1901245615,12.5107297292 11.1599700469,12.5271783906 C 11.1298155323,12.5436258824 11.105143125,12.584746951 11.105143125,12.6176431041 C 11.105143125,12.6505392573 11.0804707177,12.6944007948 11.0503162031,12.713589925 C 11.0201616885,12.7327790552 10.9954892812,12.7766405927 10.9954892812,12.8122783844 C 10.9954892812,12.8451745375 10.970816874,12.8972598209 10.9406623594,12.9246738666 C 10.9105078448,12.9520867427 10.8858354375,13.0069136646 10.8858354375,13.0480347333 C 10.8858354375,13.0891546323 10.8611630302,13.1439815541 10.8310085156,13.1713944302 C 10.7981123625,13.2015501145 10.7761815937,13.2563770364 10.7761815937,13.3139444271 C 10.7761815937,13.3715129875 10.7569924635,13.4235982709 10.7213546719,13.4510123166 C 10.6829764114,13.4839084698 10.66652775,13.5332521146 10.66652775,13.6045276979 C 10.66652775,13.6703200041 10.6445969812,13.7388539489 10.6117008281,13.7799738479 C 10.5705809291,13.8320591312 10.5568739062,13.8923693301 10.5568739062,14.0129885583 C 10.5568739062,14.1144174865 10.5404252449,14.2076238385 10.5102707302,14.2624507604 C 10.4691508312,14.3364668125 10.4609270854,14.4241898875 10.4609270854,14.8436161323 C 10.4609270854,15.2274045854 10.4691508312,15.3535059209 10.5020469844,15.4055923739 C 10.5239777531,15.4439706344 10.5486501604,15.567331501 10.5568739062,15.6824674521 C 10.5678392906,15.825017449 10.5897700594,15.9072584166 10.619924574,15.9401545698 C 10.6500802583,15.9703090844 10.66652775,16.0306192833 10.66652775,16.1156007198 C 10.66652775,16.2115475406 10.6802347729,16.2608923551 10.7213546719,16.2965289771 C 10.7624745709,16.3321667687 10.7761815937,16.3815115833 10.7761815937,16.4747167656 C 10.7761815937,16.5679231176 10.7898886166,16.6172667625 10.8310085156,16.6529045541 C 10.8721284146,16.6912828146 10.8858354375,16.7378859906 10.8858354375,16.842057727 C 10.8858354375,16.929780802 10.9050245677,17.0202443459 10.9406623594,17.0860366521 C 10.976300151,17.1518289584 10.9954892812,17.2422936719 10.9954892812,17.3437237698 C 10.9982309198,17.4314468448 11.0119379426,17.5575481802 11.0256437959,17.626082125 C 11.0832123562,17.8728038583 11.0832123562,17.9221475031 11.0393508187,17.9879398094 C 11.0146784115,18.0208359625 10.9954892812,18.0674391385 10.9954892812,18.0866282687 C 10.9954892812,18.1359730833 10.8639046687,18.2648160573 10.754250825,18.3223846176 C 10.7049060105,18.3470558552 10.5870284209,18.3936590312 10.4910816,18.421073077 C 10.3046700656,18.4813821062 10.1210001698,18.6020013344 10.1182585312,18.6705352791 C 10.1182585312,18.6952076864 10.093586124,18.7363275854 10.0634316094,18.7637404615 C 10.0332770948,18.7911545073 10.0086046875,18.8267922989 10.0086046875,18.8459814291 C 10.0086046875,18.8651705594 10.0332770948,18.9062904584 10.0634316094,18.94192825 C 10.093586124,18.9775660416 10.1182585312,19.0132038333 10.1182585312,19.0241692176 C 10.1182585312,19.035134602 10.1593784302,19.0652891166 10.2114637136,19.0899615239 C 10.2937046812,19.1283397844 10.5102707302,19.1338230614 12.1824924323,19.1338230614 L 14.0575731604,19.1338230614 L 14.1644853656,19.0625474781 C 14.3207423854,18.9611173802 14.3810514146,18.8788775823 14.5318251574,18.5636230739 C 14.7593577604,18.0948520146 14.8169251511,17.7138052 14.7374269916,17.2395520334 C 14.6359968937,16.620008401 14.4358783365,16.269116101 13.7121629677,15.4302636115 C 13.6162161469,15.3178692989 13.5120444105,15.1972500708 13.4791482574,15.1588706406 C 13.0514982667,14.6572045979 12.8020360646,14.298088552 12.7362437584,14.0815213334 C 12.6594860677,13.8210937469 12.6265899146,13.4235982709 12.6622277063,13.1631706844 C 12.7472091427,12.5820053125 12.8212251949,12.409300801 13.205013648,11.8994098427 L 13.47366615,11.5430354354 L 13.5531654791,11.6033444646 C 13.5970270166,11.6362406177 13.7286116291,11.7623431229 13.8437475802,11.882962351 C 14.1124000823,12.1625790677 14.2878462323,12.3380252177 14.6497039166,12.6834354104 C 14.8114430437,12.8369507916 14.9430276562,12.9685354041 14.9430276562,12.97675915 C 14.9430276562,12.9877245344 15.2802129334,13.3194277041 15.6640013865,13.6867674959 C 15.748982823,13.7690084635 15.8202584062,13.8457661541 15.8202584062,13.8539899 C 15.8202584062,13.8759206687 16.0094115791,14.0568500958 16.0889097386,14.1089353791 C 16.1218058917,14.1308661479 16.1492199375,14.1610206625 16.1492199375,14.1719860469 C 16.1492199375,14.1966584541 16.3904583937,14.4461206562 16.415130801,14.4461206562 C 16.4315782927,14.4461206562 16.5878353125,14.602377676 16.5878353125,14.6215668062 C 16.5878353125,14.6462392135 17.415721248,15.4604192958 17.4403936552,15.4604192958 C 17.4541006781,15.4604192958 17.4650660625,15.474125149 17.4650660625,15.4878321719 C 17.4650660625,15.5042808333 17.6871153885,15.7400360125 17.9585083594,16.0114289834 C 18.2299013302,16.2855635927 18.4519506562,16.5130950261 18.4519506562,16.5213199416 C 18.4519506562,16.5459923489 18.731567373,16.8036782969 18.7562397802,16.8036782969 C 18.7699468031,16.8036782969 18.7809121875,16.8146436812 18.7809121875,16.8310923426 C 18.7809121875,16.8447981959 18.9289442917,17.006537323 19.1098737187,17.1902083885 C 19.2908019761,17.3711366459 19.43883525,17.53835905 19.43883525,17.5602898188 C 19.43883525,17.579478949 19.4635076573,17.6096334636 19.4936621719,17.626082125 C 19.5238166865,17.6425307864 19.5484890937,17.6836506854 19.5484890937,17.7165468385 C 19.5484890937,17.7494429916 19.573161501,17.7933045291 19.6033160156,17.8124936594 C 19.6334705302,17.8316827896 19.6581429375,17.8755443271 19.6581429375,17.9139237573 C 19.6581429375,17.9523020177 19.6800737062,17.9934219167 19.7129698594,18.0098705781 C 19.748607651,18.0290597084 19.7677967812,18.0674391385 19.7677967812,18.1167827834 C 19.7677967812,18.1579026824 19.743124374,18.2154712427 19.8226237031,18.2428852885 C 19.8555198562,18.2730398031 19.877450625,18.327866725 19.877450625,18.3799520084 C 19.877450625,18.4320372917 19.8993813937,18.4868642136 19.9322775469,18.5170198979 C 19.9816211917,18.5608814354 19.9871044687,18.6020013344 19.9871044687,18.859688452 C 19.9871044687,19.1173744 19.9925865761,19.158494299 20.0419313906,19.2023558365 C 20.0720859052,19.2297698823 20.0967583125,19.2681481427 20.0967583125,19.2845968041 C 20.0967583125,19.339423726 20.269462824,19.4079576708 20.403789075,19.4079576708 C 20.5573044562,19.4079576708 20.6340621469,19.3586128562 20.9410929094,19.0652891166 C 21.3468121313,18.678759025 21.5880505875,18.2565923114 21.7306005844,17.6699436625 C 21.853961451,17.1655359812 21.8457365355,16.4637513812 21.714151923,15.9428962083 C 21.6456191479,15.6715020677 21.409862799,15.1643539176 21.2618306948,14.9724591062 C 21.2015204959,14.8929597771 20.8999730104,14.5859290146 20.5902006094,14.2871231676 C 20.2831698469,13.9910577895 19.8171404261,13.5359937531 19.5594544781,13.281048274 L 19.08794295,12.8150200229 L 19.0440814125,12.6176431041 C 18.9563583375,12.228371374 18.9974782365,11.6855854323 19.1427698719,11.2661591875 C 19.3483705365,10.6740284312 19.8390711949,9.9091931635 20.0693442667,9.81324634263 C 20.181739749,9.76664316663 20.3188076385,9.81050470413 20.4476506125,9.93112393225 C 20.532632049,10.0133637302 20.5353736875,10.0243291146 20.5353736875,10.2354130562 C 20.5353736875,10.386186799 20.5463390719,10.4656861281 20.573751948,10.4958406427 C 20.5956827167,10.52051305 20.6450275312,10.5725983334 20.6806653229,10.613719402 C 20.8122499354,10.7562693989 21.0370397302,10.7672347833 21.2207096261,10.6356501708 C 21.3139159781,10.567116226 21.5578960729,10.210740649 21.6949627927,9.93660603962 C 22.0211826855,9.27594250826 22.0897166302,8.544002224 21.8813743271,7.8915624385 C 21.7415659687,7.45568870201 21.5195166427,7.15688168538 21.1110557824,6.85533303025 C 20.9081967562,6.7045592875 20.2584974396,6.36189073337 19.8938981167,6.21111699062 C 19.5786436084,6.07953237812 19.4004558199,5.96439642701 19.2387166927,5.783467 C 19.041339774,5.5641593125 18.9673237219,5.39967854688 18.9426513146,5.13925096038 C 18.9234621844,4.89527086562 18.8686352625,4.72256635413 18.7918775719,4.66773943225 C 18.7206019886,4.61565414888 18.5177429625,4.62387789475 18.432761526,4.67870481663 C 18.3258481511,4.74997923025 18.2326429687,4.84044394375 18.2326429687,4.87334009687 C 18.2326429687,4.88978875826 18.2079705615,4.91171952701 18.1778160469,4.91994327288 C 18.1476615323,4.92816701875 18.122989125,4.95558106451 18.122989125,4.97751183326 C 18.122989125,4.99944260201 18.1037999948,5.01589009375 18.081869226,5.01589009375 C 18.0571968188,5.01589009375 18.029782773,5.0378208625 18.0215590271,5.06249326975 C 18.0105936427,5.08990614587 17.9804391281,5.128285576 17.9530250824,5.14747470625 C 17.9256122062,5.1666638365 17.9036814375,5.19955998962 17.9036814375,5.22149075837 C 17.9036814375,5.24342152712 17.8790090302,5.27357721138 17.8488545156,5.29002470312 C 17.818700001,5.30647336451 17.7940275937,5.3421099865 17.7940275937,5.37226567076 C 17.7940275937,5.40242018538 17.7693551865,5.43805797701 17.7392006719,5.45450546875 C 17.7090461573,5.47095413013 17.68437375,5.50659075212 17.68437375,5.53674643638 C 17.68437375,5.566900951 17.6597013427,5.60253874263 17.6295468281,5.61898623437 C 17.5993923135,5.63543489576 17.5747199062,5.67655479475 17.5747199062,5.71219258638 C 17.5747199062,5.74782920837 17.550047499,5.79717402288 17.5198929844,5.824586899 C 17.4897384698,5.85200094475 17.4650660625,5.90682786663 17.4650660625,5.94794776562 C 17.4650660625,5.98906766462 17.4403936552,6.0438945865 17.4102391406,6.07130863225 C 17.374601349,6.10420478538 17.3554122187,6.15629006875 17.3554122187,6.21660026763 C 17.3554122187,6.27142718951 17.33348145,6.33721949576 17.3088090427,6.36737401038 C 17.2759128896,6.40301180201 17.2539821209,6.4852516 17.2430167365,6.6168362125 C 17.2347929906,6.72374841775 17.2101205834,6.86904005312 17.1909314531,6.94031563638 C 17.1580353,7.052709949 17.1580353,7.09108937913 17.1909314531,7.20074322288 C 17.2128622219,7.274759275 17.2347929906,7.409085526 17.240275098,7.50503234687 C 17.2485000135,7.63661695937 17.2622058667,7.68047849687 17.3033269354,7.70240926562 C 17.3362230885,7.72159839587 17.3554122187,7.759977826 17.3554122187,7.80932147087 C 17.3554122187,7.85044253951 17.3307398115,7.90800993025 17.3005852969,7.935423976 C 17.2704307823,7.96283685212 17.3554122187,8.00395792076 17.3554122187,8.02862915837 C 17.3554122187,8.05330156562 17.380084626,8.08893935725 17.4102391406,8.1081284875 C 17.4403936552,8.12731761775 17.4650660625,8.16021377087 17.4650660625,8.18214453962 C 17.4650660625,8.20407530837 17.4897384698,8.23423099263 17.5198929844,8.25067848437 C 17.550047499,8.26712714576 17.5747199062,8.29179838337 17.5747199062,8.30824704475 C 17.5747199062,8.34936694375 17.9036814375,8.65913934475 18.0133352812,8.719448374 C 18.0654205646,8.74960405826 18.1887814312,8.82362011038 18.2847282521,8.88118867076 C 18.3834167115,8.9414977 18.5424153698,9.02099702913 18.6411038291,9.06211692812 C 19.08794295,9.24030471663 19.129062849,9.26497712388 19.1153558261,9.34447528337 C 19.1071320802,9.3828547135 19.0550467969,9.45961240413 18.9974782365,9.514439326 C 18.9371692073,9.56926624788 18.8905660312,9.62409316975 18.8905660312,9.63780019263 C 18.8905660312,9.65150604587 18.865893624,9.67892009163 18.8357391094,9.69810922187 C 18.8055845948,9.71729835212 18.7809121875,9.75293614375 18.7809121875,9.78035018951 C 18.7809121875,9.80502142712 18.7562397802,9.84340085725 18.7260852656,9.8625899875 C 18.695930751,9.88177911775 18.6712583437,9.92564065525 18.6712583437,9.96402008538 C 18.6712583437,10.0023983459 18.649327575,10.0435194145 18.6164314219,10.0599669062 C 18.5862769073,10.0764155676 18.5616045,10.1175354666 18.5616045,10.1504316198 C 18.5616045,10.1833277729 18.5369320927,10.2271893104 18.5067775781,10.2463784406 C 18.4766230635,10.2655675709 18.4519506562,10.3012053625 18.4519506562,10.3313598771 C 18.4519506562,10.3587739229 18.427278249,10.4026354604 18.3971237344,10.4300483365 C 18.3669692198,10.4574623823 18.3422968125,10.5068060271 18.3422968125,10.5397021802 C 18.3422968125,10.5725983334 18.3176244052,10.6219431479 18.2874698906,10.649356024 C 18.2545737375,10.6795117083 18.2326429687,10.7343386301 18.2326429687,10.789165552 C 18.2326429687,10.8522162198 18.2161943074,10.8905944802 18.1778160469,10.9097847801 C 18.1394366167,10.9289739104 18.122989125,10.9673521709 18.122989125,11.0304040083 C 18.122989125,11.0852309301 18.1010583562,11.140057852 18.0681622031,11.1702123666 C 18.0270423041,11.2058501583 18.0133352812,11.2551938031 18.0133352812,11.351140624 C 18.0133352812,11.4580539989 17.9996282584,11.490950152 17.9448013365,11.5348116895 C 17.906423076,11.5649662041 17.8762673917,11.6033444646 17.8762673917,11.619793126 C 17.8762673917,11.6965508166 17.7858038479,11.6225347645 17.4047558636,11.2305213959 C 17.1772244302,11.0029899625 16.1958231135,10.0051399844 15.2199039041,9.01825539062 C 14.2439846948,8.03137079687 13.3640123062,7.13495091663 13.2653238469,7.03077918025 C 13.1666353875,6.923866975 13.0268270291,6.77583487076 12.9555514459,6.701817649 C 12.7170546281,6.44961380837 12.6402969375,6.33995996462 12.5196777094,6.08227401663 C 12.3634206896,5.74508873951 12.2839213605,5.44902336138 12.2647322302,5.12006183013 C 12.2455431,4.81303106763 12.204423201,4.71982471563 12.0563899271,4.65129077087 C 11.9220636761,4.58549846462 11.8233752167,4.57727471875 11.6917906042,4.61291251038 Z M 3.33342724163,9.46235287299 C 3.27585868125,9.49250855725 3.20184262913,9.55007594799 3.168946476,9.59119701663 C 3.13879196138,9.62957527712 3.08670550837,9.689885476 3.05380935525,9.72003999062 C 3.01817273326,9.75293614375 2.9907586875,9.78857393538 2.9907586875,9.80227978862 C 2.9907586875,9.8159868115 2.96608628025,9.84340085725 2.93593176562,9.8625899875 C 2.905777251,9.88177911775 2.88110484375,9.92015854788 2.88110484375,9.9503130625 C 2.88110484375,9.97772593862 2.8564324365,10.0161053687 2.82627792188,10.0325528605 C 2.79338176875,10.0517431604 2.771451,10.0901214209 2.771451,10.1367245969 C 2.771451,10.1805861344 2.74952023125,10.2244476719 2.71662407812,10.2463784406 C 2.67824464799,10.2683092094 2.66179715625,10.3094291084 2.66179715625,10.3724797761 C 2.66179715625,10.427306698 2.6398663875,10.4821336199 2.60697023437,10.5122893041 C 2.56585033538,10.5506675646 2.5521433125,10.5972707406 2.5521433125,10.7014413074 C 2.5521433125,10.7809406365 2.52747090525,10.912525249 2.49731639062,11.000248324 C 2.4233003385,11.2085906271 2.4233003385,11.4909489824 2.49731639062,11.6307585104 C 2.52747090525,11.6855854323 2.5521433125,11.7760489761 2.5521433125,11.8281354291 C 2.5521433125,11.8939277354 2.56859080424,11.9295643574 2.60697023437,11.9514951261 C 2.637124749,11.9679437875 2.66179715625,12.006322048 2.66179715625,12.0392182011 C 2.66179715625,12.1242008073 2.9907586875,12.4312315698 3.18539396775,12.5299200291 C 3.27585868125,12.5737815666 3.44856319275,12.6368322344 3.57466569788,12.6697283875 C 3.783008001,12.7218136709 3.89540231362,12.7272969479 5.19754258538,12.7464860781 C 6.65045543025,12.7656752084 6.68335158337,12.7684168469 6.92459003962,12.8917777135 C 7.12745023538,12.9932078114 7.3769124375,13.2070322219 7.3769124375,13.281048274 C 7.3769124375,13.2974969354 7.39884320625,13.3358751959 7.42899772087,13.3605476031 C 7.461893874,13.3907021177 7.48382464275,13.456494424 7.49204838862,13.544217499 C 7.50027330413,13.6182347208 7.52494454174,13.7004745187 7.5523585875,13.7278885645 C 7.57977146362,13.7607847176 7.596220125,13.8265770239 7.596220125,13.9115584604 C 7.596220125,13.9992815354 7.61266878638,14.0623322031 7.64556493951,14.0979699948 C 7.6866848385,14.1445731708 7.69216694587,14.2295546073 7.70039186138,14.8353923864 C 7.70861560725,15.4631597646 7.70313233025,15.5371769864 7.65378868538,15.7043982209 C 7.61266878638,15.8332423645 7.5934784865,15.9785328302 7.58799637913,16.2005821562 L 7.58251310212,16.5130961958 L 7.47285925837,16.578888502 C 7.374170799,16.6337154239 7.34127464587,16.6391975312 7.14389772712,16.6254905084 C 7.023278499,16.6172667625 6.04461882076,16.6035597396 4.97275162087,16.5953359937 C 2.80434715313,16.5816289709 2.80708879163,16.5816289709 2.76596889263,16.7433692676 C 2.75500350826,16.7872308051 2.724847824,16.8393160885 2.70291705525,16.8585052187 C 2.67824581763,16.8804359875 2.66179715625,16.9407461864 2.66179715625,17.0202443459 C 2.66179715625,17.1134506979 2.64809013337,17.1600538739 2.60697023437,17.1956904959 C 2.56859197388,17.228586649 2.5521433125,17.275189825 2.5521433125,17.3601712615 C 2.5521433125,17.4424122291 2.53569582076,17.4890154051 2.49731639062,17.5246520271 C 2.45893813013,17.5575481802 2.44248946875,17.6041513562 2.44248946875,17.6946160698 C 2.44248946875,17.7878212521 2.42878244587,17.8234590437 2.38766254688,17.8453898125 C 2.34654264788,17.8673205812 2.332835625,17.9029583729 2.332835625,17.9934230864 C 2.332835625,18.0729212459 2.31364649475,18.1332314448 2.27800870312,18.1743513437 C 2.24511255,18.2127307739 2.22318178125,18.2757814416 2.22318178125,18.3388321094 C 2.22318178125,18.4046244156 2.203992651,18.456709699 2.16835485937,18.4896058521 C 2.13545870625,18.5197615364 2.1135279375,18.5745884583 2.1135279375,18.6266737416 C 2.1135279375,18.678759025 2.09159716875,18.7335859469 2.05870101563,18.7637404615 C 1.97646121763,18.8377576833 1.981943325,19.0652891166 2.0669247615,19.1118922926 C 2.1135279375,19.1393051687 2.78789966138,19.1475289146 5.42233238025,19.1475289146 C 8.68179317812,19.1475289146 8.72017260826,19.1475289146 8.77225789163,19.0927019927 C 8.8270848135,19.035134602 9.5699893125,16.8338328115 9.5699893125,16.7269206062 C 9.5699893125,16.6830590687 9.54257643638,16.6556461926 9.46855921462,16.6227500395 C 9.36438864788,16.578888502 9.3068200875,16.5816289709 8.76129250725,16.6282321469 C 8.56117395,16.6446808083 8.38024569263,16.5843706094 8.40217646138,16.5076129187 C 8.48441625937,16.2252545635 8.61874251038,15.4850905334 8.68179317812,14.9395629531 C 8.777739999,14.1473136396 8.72565471562,12.8808123291 8.56665722701,12.0967867615 C 8.36653866975,11.0989367834 8.05402463025,10.6767700698 7.3303092615,10.4273078676 C 6.91088418638,10.2820162323 6.58192265513,10.2491200791 5.26607653013,10.2299309489 C 4.46286183225,10.216223926 4.10922789375,10.1997752646 4.05988424888,10.1778444959 C 3.89814395212,10.0983463364 3.77204261663,9.93386557076 3.73092271763,9.74197075937 C 3.71721569475,9.66795470725 3.69802656451,9.58023163225 3.689801649,9.54733547913 C 3.68157790312,9.508956049 3.63771636563,9.46783615 3.57740733638,9.44316374275 C 3.45678810826,9.39382009788 3.46775349263,9.39107845937 3.33342724163,9.46235404263 Z"/></svg>
