<svg xmlns="http://www.w3.org/2000/svg" width="24" height="24" viewBox="0 0 24 24"><path d="M11.801444 4.612913H11.691791C11.823375 4.577275 11.922064 4.585498 12.05639 4.651291C12.204423 4.719825 12.245543 4.813031 12.264732 5.120062C12.283921 5.449023 12.36342 5.745089 12.519678 6.082274C12.640297 6.33996 12.717054 6.449614 12.955551 6.701818C13.026827 6.775835 13.166636 6.923867 13.265324 7.030779C13.364013 7.134951 14.243984 8.031371 15.219904 9.018255C16.195824 10.00514 17.177225 11.00299 17.404757 11.230521C17.785805 11.622535 17.876266 11.69655 17.876266 11.619793C17.876266 11.603345 17.906424 11.564966 17.944801 11.534812C17.999628 11.490951 18.013336 11.458054 18.013336 11.351141C18.013336 11.255194 18.027042 11.205851 18.068163 11.170213C18.101059 11.140058 18.12299 11.085231 18.12299 11.030404C18.12299 10.967352 18.139437 10.928974 18.177816 10.909784C18.216194 10.890594 18.232643 10.852216 18.232643 10.789165C18.232643 10.734339 18.254574 10.679512 18.28747 10.649356C18.317625 10.621943 18.342297 10.572598 18.342297 10.539702C18.342297 10.506806 18.36697 10.457462 18.397123 10.430048C18.427279 10.402636 18.45195 10.358774 18.45195 10.33136C18.45195 10.301206 18.476624 10.265568 18.506777 10.246379C18.536932 10.227189 18.561605 10.183328 18.561605 10.150432C18.561605 10.117536 18.586277 10.076416 18.616432 10.059967C18.649328 10.043519 18.671259 10.002398 18.671259 9.96402C18.671259 9.925641 18.69593 9.881779 18.726086 9.86259C18.756239 9.843401 18.780912 9.805021 18.780912 9.78035C18.780912 9.752936 18.805584 9.717299 18.835739 9.69811C18.865894 9.67892 18.890566 9.651506 18.890566 9.6378C18.890566 9.624093 18.93717 9.569266 18.997478 9.51444C19.055046 9.459613 19.107132 9.382854 19.115356 9.344476C19.129063 9.264977 19.087942 9.240305 18.641104 9.062117C18.542416 9.020997 18.383417 8.941498 18.284729 8.881188C18.188782 8.82362 18.06542 8.749604 18.013336 8.719448C17.903681 8.65914 17.57472 8.349367 17.57472 8.308247C17.57472 8.291799 17.550047 8.267127 17.519894 8.250678C17.489738 8.234231 17.465067 8.204075 17.465067 8.182144C17.465067 8.160213 17.440393 8.127317 17.410238 8.108129C17.380085 8.08894 17.355412 8.053302 17.355412 8.028629C17.355412 8.018738 17.341751 8.006203 17.327328 7.992966C17.305777 7.973188 17.28252 7.951846 17.300585 7.935424C17.33074 7.90801 17.355412 7.850442 17.355412 7.809321C17.355412 7.759978 17.336224 7.721599 17.303328 7.702409C17.262205 7.680479 17.248501 7.636617 17.240274 7.505033C17.234793 7.409086 17.212862 7.274759 17.190931 7.200743C17.158035 7.091089 17.158035 7.05271 17.190931 6.940316C17.210121 6.86904 17.234793 6.723748 17.243017 6.616836C17.253983 6.485251 17.275913 6.403012 17.308809 6.367374C17.333481 6.33722 17.355412 6.271427 17.355412 6.2166C17.355412 6.15629 17.374601 6.104205 17.410238 6.071309C17.440393 6.043895 17.465067 5.989068 17.465067 5.947948C17.465067 5.906828 17.489738 5.852001 17.519894 5.824587C17.550047 5.797174 17.57472 5.747829 17.57472 5.712193C17.57472 5.676555 17.599392 5.635435 17.629547 5.618986C17.6597 5.602539 17.684374 5.566901 17.684374 5.536747C17.684374 5.506591 17.709045 5.470954 17.739201 5.454505C17.769356 5.438058 17.794027 5.40242 17.794027 5.372266C17.794027 5.34211 17.818701 5.306473 17.848854 5.290025C17.879009 5.273577 17.903681 5.243422 17.903681 5.221491C17.903681 5.19956 17.925611 5.166664 17.953026 5.147475C17.980438 5.128285 18.010593 5.089906 18.021559 5.062493C18.029783 5.037821 18.057198 5.01589 18.081869 5.01589C18.1038 5.01589 18.12299 4.999443 18.12299 4.977512C18.12299 4.955581 18.147661 4.928167 18.177816 4.919943C18.20797 4.911719 18.232643 4.889789 18.232643 4.87334C18.232643 4.840444 18.325848 4.749979 18.432762 4.678705C18.517742 4.623878 18.720602 4.615654 18.791878 4.667739C18.868635 4.722566 18.923462 4.895271 18.942652 5.139251C18.967323 5.399679 19.04134 5.564159 19.238716 5.783467C19.400455 5.964396 19.578644 6.079532 19.893898 6.211117C20.258497 6.361891 20.908197 6.704559 21.111055 6.855333C21.519516 7.156882 21.741566 7.455688 21.881374 7.891562C22.089716 8.544003 22.021183 9.275943 21.694963 9.936606C21.557896 10.210741 21.313915 10.567116 21.220709 10.635651C21.037039 10.767235 20.81225 10.756269 20.680666 10.613719C20.645027 10.572598 20.595682 10.520513 20.573751 10.495841C20.546339 10.465686 20.535374 10.386187 20.535374 10.235413C20.535374 10.024329 20.532633 10.013364 20.447651 9.931124C20.318808 9.810505 20.18174 9.766644 20.069344 9.813247C19.839071 9.909193 19.34837 10.674028 19.142771 11.266159C18.997478 11.685585 18.956358 12.228372 19.044081 12.617643L19.087942 12.81502L19.559454 13.281048C19.817141 13.535994 20.283171 13.991057 20.5902 14.287123C20.899973 14.585929 21.201521 14.89296 21.261831 14.972459C21.409863 15.164354 21.645618 15.671502 21.714151 15.942896C21.845737 16.463751 21.853962 17.165537 21.7306 17.669943C21.588051 18.256592 21.346811 18.678759 20.941093 19.065289C20.634062 19.358612 20.557304 19.407957 20.40379 19.407957C20.269463 19.407957 20.096758 19.339424 20.096758 19.284597C20.096758 19.268148 20.072086 19.229771 20.041931 19.202356C19.992586 19.158495 19.987104 19.117374 19.987104 18.859688C19.987104 18.602001 19.981621 18.560881 19.932278 18.517019C19.899382 18.486864 19.877451 18.432037 19.877451 18.379951C19.877451 18.327868 19.85552 18.273039 19.822624 18.242886C19.757849 18.220549 19.762232 18.178192 19.766077 18.141027C19.766951 18.13258 19.767797 18.124399 19.767797 18.116783C19.767797 18.06744 19.748608 18.02906 19.712971 18.009871C19.680073 17.993422 19.658142 17.952303 19.658142 17.913923C19.658142 17.875544 19.633471 17.831682 19.603315 17.812494C19.573162 17.793304 19.548489 17.749443 19.548489 17.716547C19.548489 17.683651 19.523817 17.64253 19.493662 17.626081C19.463509 17.609634 19.438835 17.579479 19.438835 17.560289C19.438835 17.538359 19.290802 17.371136 19.109873 17.190208C18.928944 17.006536 18.780912 16.844799 18.780912 16.831093C18.780912 16.814644 18.769947 16.803679 18.756239 16.803679C18.731567 16.803679 18.45195 16.545992 18.45195 16.52132C18.45195 16.513096 18.229902 16.285564 17.958508 16.011429C17.687115 15.740036 17.465067 15.504281 17.465067 15.487832C17.465067 15.474125 17.454102 15.46042 17.440393 15.46042C17.415722 15.46042 16.587835 14.646239 16.587835 14.621567C16.587835 14.602378 16.431578 14.44612 16.415131 14.44612C16.390459 14.44612 16.14922 14.196658 16.14922 14.171986C16.14922 14.16102 16.121805 14.130866 16.088909 14.108935C16.009411 14.05685 15.820258 13.87592 15.820258 13.85399C15.820258 13.845766 15.748982 13.769009 15.664001 13.686768C15.280213 13.319427 14.943027 12.987724 14.943027 12.976759C14.943027 12.968535 14.811443 12.836951 14.649704 12.683435C14.287847 12.338025 14.1124 12.16258 13.843747 11.882962C13.728612 11.762343 13.597027 11.636241 13.553165 11.603345L13.473666 11.543036L13.205013 11.89941C12.821225 12.409301 12.74721 12.582006 12.662228 13.163171C12.62659 13.423598 12.659486 13.821094 12.736244 14.081521C12.802036 14.298089 13.051498 14.657205 13.479148 15.158871C13.512044 15.19725 13.616216 15.317869 13.712163 15.430264C14.435879 16.269115 14.635997 16.620008 14.737427 17.239552C14.816925 17.713806 14.759357 18.094852 14.531825 18.563623C14.381051 18.878878 14.320743 18.961117 14.164485 19.062548L14.057573 19.133823H12.182492C10.510271 19.133823 10.293705 19.12834 10.211464 19.089962C10.159378 19.065289 10.118258 19.035135 10.118258 19.02417C10.118258 19.013205 10.093586 18.977566 10.063432 18.941929C10.033278 18.90629 10.008605 18.865171 10.008605 18.845982C10.008605 18.826792 10.033278 18.791155 10.063432 18.763741C10.093586 18.736328 10.118258 18.695208 10.118258 18.670536C10.121 18.602001 10.30467 18.481382 10.491081 18.421074C10.587029 18.39366 10.704906 18.347055 10.754251 18.322384C10.863905 18.264816 10.995489 18.135973 10.995489 18.086628C10.995489 18.06744 11.014678 18.020836 11.039351 17.98794C11.083212 17.922148 11.083212 17.872805 11.025643 17.626081C11.011938 17.557549 10.998231 17.431446 10.995489 17.343723C10.995489 17.242294 10.9763 17.151829 10.940662 17.086037C10.905025 17.020245 10.885836 16.929781 10.885836 16.842058C10.885836 16.737886 10.872128 16.691282 10.831009 16.652905C10.789888 16.617268 10.776181 16.567923 10.776181 16.474716C10.776181 16.381512 10.762475 16.332167 10.721354 16.29653C10.680235 16.260893 10.666528 16.211548 10.666528 16.115601C10.666528 16.030619 10.650081 15.970309 10.619925 15.940155C10.58977 15.907258 10.56784 15.825017 10.556874 15.682467C10.54865 15.567331 10.523977 15.443971 10.502047 15.405592C10.469151 15.353506 10.460927 15.227405 10.460927 14.843616C10.460927 14.42419 10.469151 14.336467 10.510271 14.262451C10.540425 14.207623 10.556874 14.114417 10.556874 14.012988C10.556874 13.892369 10.57058 13.832059 10.611701 13.779974C10.644597 13.738854 10.666528 13.67032 10.666528 13.604527C10.666528 13.533252 10.682977 13.483909 10.721354 13.451013C10.756992 13.423598 10.776181 13.371513 10.776181 13.313945C10.776181 13.256377 10.798112 13.20155 10.831009 13.171394C10.861163 13.143982 10.885836 13.089154 10.885836 13.048035C10.885836 13.006914 10.910508 12.952086 10.940662 12.924674C10.970817 12.89726 10.995489 12.845175 10.995489 12.812279C10.995489 12.776641 11.020162 12.73278 11.050316 12.71359C11.080471 12.694401 11.105144 12.650539 11.105144 12.617643C11.105144 12.584747 11.129815 12.543626 11.15997 12.527179C11.190125 12.51073 11.214797 12.475093 11.214797 12.444938C11.214797 12.414783 11.23947 12.379145 11.269624 12.362698C11.299778 12.346249 11.32445 12.316094 11.32445 12.294164C11.32445 12.272233 11.349123 12.242079 11.379278 12.22563C11.409432 12.209182 11.434105 12.179028 11.434105 12.157097C11.434105 12.135166 11.458777 12.10501 11.488932 12.088563C11.519086 12.072114 11.543758 12.047443 11.543758 12.033736C11.543758 12.020029 11.617775 11.932306 11.70824 11.839101C11.798704 11.745894 11.87272 11.660913 11.87272 11.649947C11.87272 11.636241 11.897392 11.617051 11.927547 11.608828C11.957702 11.600603 11.982374 11.57319 11.982374 11.551259C11.982374 11.529328 12.001563 11.504656 12.023494 11.496432C12.045424 11.488209 12.141373 11.405968 12.234578 11.315503C12.330524 11.222298 12.456627 11.118126 12.516936 11.077006C12.664969 10.978317 12.74995 10.896078 12.74995 10.852216C12.74721 10.813837 12.629332 10.663063 12.599177 10.663063C12.571763 10.663063 12.201681 10.282016 12.201681 10.257344C12.201681 10.240895 12.17701 10.224447 12.146854 10.216224C12.1167 10.207999 12.092028 10.183328 12.092028 10.161397C12.092028 10.136724 12.067355 10.10931 12.037201 10.101087C12.007047 10.092863 11.982374 10.073674 11.982374 10.059967C11.982374 10.049002 11.837082 9.892744 11.658895 9.711816C11.480708 9.533628 11.327192 9.363665 11.316227 9.338993C11.308002 9.314321 11.280589 9.29239 11.255917 9.29239C11.233986 9.29239 11.214797 9.275941 11.214797 9.256752C11.214797 9.240305 11.165452 9.179995 11.105144 9.12791C11.044834 9.075824 10.995489 9.015513 10.995489 8.999066C10.995489 8.979876 10.970817 8.949721 10.940662 8.930532C10.910508 8.911344 10.885836 8.875706 10.885836 8.851033C10.885836 8.826362 10.861163 8.785241 10.831009 8.757828C10.800854 8.730413 10.776181 8.686552 10.776181 8.65914C10.776181 8.631725 10.751509 8.596088 10.721354 8.57964C10.682977 8.55771 10.666528 8.522072 10.666528 8.456279C10.666528 8.393229 10.647339 8.343884 10.611701 8.313729C10.576063 8.283575 10.556874 8.231489 10.556874 8.173921C10.556874 8.124576 10.532202 8.05056 10.504788 8.00944C10.386911 7.842217 10.389651 6.718266 10.510271 6.551044C10.534944 6.512664 10.556874 6.435907 10.556874 6.370114C10.556874 6.293358 10.573322 6.244013 10.611701 6.208375C10.647339 6.175479 10.666528 6.123394 10.666528 6.057601C10.666528 5.991809 10.685717 5.939724 10.721354 5.906828C10.751509 5.879414 10.776181 5.821845 10.776181 5.780725C10.776181 5.731382 10.795371 5.693002 10.831009 5.673813C10.863905 5.657366 10.885836 5.616245 10.885836 5.577867C10.885836 5.539487 10.907766 5.498367 10.940662 5.481919C10.970817 5.465471 10.995489 5.427093 10.995489 5.399679C10.995489 5.369524 11.020162 5.331145 11.050316 5.311955C11.080471 5.292767 11.105144 5.262612 11.105144 5.243422C11.105144 5.224232 11.129815 5.196818 11.15997 5.180371C11.190125 5.163923 11.214797 5.133768 11.214797 5.111837C11.214797 5.089906 11.23947 5.05701 11.269624 5.037821C11.299778 5.018632 11.32445 4.991218 11.32445 4.980252C11.32445 4.908978 11.653413 4.656774 11.801444 4.612913ZM3.333427 9.462353C3.40431 9.424742 3.434735 9.407742 3.465386 9.407323C3.489671 9.406991 3.514097 9.417068 3.558898 9.435551C3.56471 9.437948 3.570865 9.440488 3.577407 9.443164C3.637716 9.467836 3.681578 9.508956 3.689802 9.547336C3.698027 9.580232 3.717216 9.667954 3.730923 9.741971C3.772043 9.933866 3.898144 10.098347 4.059884 10.177844C4.109228 10.199776 4.462862 10.216224 5.266077 10.229931C6.581923 10.24912 6.910884 10.282016 7.330309 10.427308C8.054025 10.67677 8.366539 11.098937 8.566657 12.096786C8.725655 12.880813 8.77774 14.147314 8.681793 14.939563C8.618743 15.48509 8.484416 16.225254 8.402177 16.507612C8.380246 16.58437 8.561174 16.64468 8.761292 16.628233C9.30682 16.581629 9.364388 16.578888 9.468559 16.622749C9.542577 16.655645 9.569989 16.68306 9.569989 16.726921C9.569989 16.833834 8.827085 19.035135 8.772258 19.092703C8.720173 19.14753 8.681793 19.14753 5.422332 19.14753C2.7879 19.14753 2.113528 19.139305 2.066925 19.111893C1.981943 19.065289 1.976461 18.837757 2.058701 18.763741C2.091597 18.733585 2.113528 18.678759 2.113528 18.626675C2.113528 18.574589 2.135459 18.519762 2.168355 18.489605C2.203993 18.456709 2.223182 18.404625 2.223182 18.338833C2.223182 18.275782 2.245113 18.21273 2.278009 18.174351C2.313647 18.133232 2.332836 18.072922 2.332836 17.993423C2.332836 17.902958 2.346543 17.867321 2.387663 17.84539C2.428782 17.82346 2.442489 17.787821 2.442489 17.694616C2.442489 17.604151 2.458938 17.557549 2.497316 17.524652C2.535696 17.489016 2.552143 17.442411 2.552143 17.36017C2.552143 17.27519 2.568592 17.228586 2.60697 17.19569C2.64809 17.160053 2.661797 17.113451 2.661797 17.020245C2.661797 16.940746 2.678246 16.880436 2.702917 16.858505C2.724848 16.839315 2.755003 16.787231 2.765969 16.74337C2.771441 16.721846 2.776137 16.703186 2.785276 16.68704C2.844804 16.581884 3.092862 16.583452 4.972079 16.595333L4.972752 16.595337C6.044619 16.603559 7.023279 16.617268 7.143898 16.62549C7.341275 16.639198 7.374171 16.633715 7.472859 16.578888L7.582513 16.513096L7.587996 16.200583C7.593479 15.978533 7.612669 15.833242 7.653789 15.704398C7.703132 15.537177 7.708616 15.46316 7.700392 14.835392C7.692167 14.229554 7.686685 14.144573 7.645565 14.09797C7.612669 14.062332 7.59622 13.999282 7.59622 13.911558C7.59622 13.826577 7.579772 13.760785 7.552359 13.727888C7.524944 13.700475 7.500273 13.618235 7.492048 13.544217C7.483825 13.456494 7.461894 13.390702 7.428998 13.360548C7.398843 13.335876 7.376913 13.297497 7.376913 13.281048C7.376913 13.207032 7.12745 12.993208 6.92459 12.891778C6.683352 12.768416 6.650455 12.765676 5.197543 12.746486C3.895402 12.727297 3.783008 12.721813 3.574666 12.669728C3.448563 12.636832 3.275859 12.573782 3.185394 12.52992C2.990759 12.431231 2.661797 12.124201 2.661797 12.039218C2.661797 12.006322 2.637125 11.967944 2.60697 11.951495C2.568591 11.929564 2.552143 11.893928 2.552143 11.828135C2.552143 11.776049 2.527471 11.685585 2.497316 11.630758C2.4233 11.490949 2.4233 11.208591 2.497316 11.000248C2.527471 10.912525 2.552143 10.780941 2.552143 10.701442C2.552143 10.597271 2.56585 10.550668 2.60697 10.512289C2.639866 10.482134 2.661797 10.427307 2.661797 10.372479C2.661797 10.309429 2.678245 10.26831 2.716624 10.246379C2.74952 10.224447 2.771451 10.180586 2.771451 10.136724C2.771451 10.090121 2.793382 10.051744 2.826278 10.032553C2.856432 10.016106 2.881105 9.977726 2.881105 9.950313C2.881105 9.920158 2.905777 9.881779 2.935932 9.86259C2.966086 9.843401 2.990759 9.815987 2.990759 9.802279C2.990759 9.788574 3.018173 9.752936 3.053809 9.72004C3.086705 9.689885 3.138792 9.629576 3.168947 9.591197C3.201843 9.550076 3.275859 9.492509 3.333427 9.462353Z"/></svg>
