<svg xmlns="http://www.w3.org/2000/svg" width="24" height="24" viewBox="0 0 24 24"><path d="M10.720312 4.999219C10.59375 5.036719 10.3125 5.252344 10.3125 5.313281C10.3125 5.322656 10.291406 5.346094 10.265625 5.3625C10.239844 5.378906 10.21875 5.407031 10.21875 5.425781C10.21875 5.444531 10.197656 5.470313 10.171875 5.484375C10.146094 5.498437 10.125 5.521875 10.125 5.538281C10.125 5.554688 10.103906 5.580469 10.078125 5.596875C10.052344 5.613281 10.03125 5.646094 10.03125 5.671875C10.03125 5.695313 10.010156 5.728125 9.984375 5.742188C9.95625 5.75625 9.9375 5.791406 9.9375 5.824219C9.9375 5.857031 9.91875 5.892188 9.890625 5.90625C9.860156 5.922656 9.84375 5.955469 9.84375 5.997656C9.84375 6.032812 9.822656 6.082031 9.796875 6.105469C9.766406 6.133594 9.75 6.178125 9.75 6.234375C9.75 6.290625 9.733594 6.335156 9.703125 6.363281C9.670313 6.39375 9.65625 6.435938 9.65625 6.501562C9.65625 6.557812 9.6375 6.623437 9.616406 6.65625C9.513281 6.799219 9.510938 7.760156 9.611719 7.903125C9.635156 7.938281 9.65625 8.001562 9.65625 8.04375C9.65625 8.092969 9.672656 8.1375 9.703125 8.163281C9.733594 8.189063 9.75 8.23125 9.75 8.285156C9.75 8.341406 9.764063 8.371875 9.796875 8.390625C9.822656 8.404688 9.84375 8.435156 9.84375 8.458594C9.84375 8.482031 9.864844 8.519531 9.890625 8.542969C9.916406 8.566406 9.9375 8.601563 9.9375 8.622656C9.9375 8.64375 9.958594 8.674219 9.984375 8.690625C10.010156 8.707031 10.03125 8.732812 10.03125 8.749219C10.03125 8.763281 10.073438 8.814844 10.125 8.859375C10.176562 8.903906 10.21875 8.955469 10.21875 8.969531C10.21875 8.985937 10.235156 9 10.253906 9C10.275 9 10.298437 9.01875 10.305469 9.039844C10.314844 9.060937 10.446094 9.20625 10.598437 9.358594C10.750781 9.513281 10.875 9.646875 10.875 9.65625C10.875 9.667969 10.896094 9.684375 10.921875 9.691406C10.947656 9.698437 10.96875 9.721875 10.96875 9.742969C10.96875 9.761719 10.989844 9.782812 11.015625 9.789844C11.041406 9.796875 11.0625 9.810937 11.0625 9.825C11.0625 9.846094 11.378906 10.171875 11.402344 10.171875C11.428125 10.171875 11.528906 10.300781 11.53125 10.333594C11.53125 10.371094 11.458594 10.441406 11.332031 10.525781C11.280469 10.560937 11.172656 10.65 11.090625 10.729687C11.010938 10.807031 10.928906 10.877344 10.910156 10.884375C10.891406 10.891406 10.875 10.9125 10.875 10.93125C10.875 10.95 10.853906 10.973437 10.828125 10.980469C10.802344 10.9875 10.78125 11.003906 10.78125 11.015625C10.78125 11.025 10.717969 11.097656 10.640625 11.177344C10.563281 11.257031 10.5 11.332031 10.5 11.34375C10.5 11.355469 10.478906 11.376562 10.453125 11.390625C10.427344 11.404687 10.40625 11.430469 10.40625 11.449219C10.40625 11.467969 10.385156 11.49375 10.359375 11.507812C10.333594 11.521875 10.3125 11.547656 10.3125 11.566406C10.3125 11.585156 10.291406 11.610937 10.265625 11.625C10.239844 11.639062 10.21875 11.669531 10.21875 11.695312C10.21875 11.721094 10.197656 11.751562 10.171875 11.765625C10.146094 11.779687 10.125 11.814844 10.125 11.842969C10.125 11.871094 10.103906 11.908594 10.078125 11.925C10.052344 11.941406 10.03125 11.978906 10.03125 12.009375C10.03125 12.0375 10.010156 12.082031 9.984375 12.105469C9.958594 12.128906 9.9375 12.175781 9.9375 12.210938C9.9375 12.246094 9.916406 12.292969 9.890625 12.316406C9.8625 12.342188 9.84375 12.389063 9.84375 12.438281C9.84375 12.4875 9.827344 12.532031 9.796875 12.555469C9.764063 12.583594 9.75 12.625781 9.75 12.686719C9.75 12.742969 9.73125 12.801563 9.703125 12.836719C9.667969 12.88125 9.65625 12.932813 9.65625 13.035938C9.65625 13.122656 9.642187 13.202344 9.616406 13.249219C9.58125 13.3125 9.574219 13.3875 9.574219 13.746094C9.574219 14.074219 9.58125 14.182031 9.609375 14.226563C9.628125 14.259375 9.649219 14.364844 9.65625 14.463281C9.665625 14.585156 9.684375 14.655469 9.710156 14.683594C9.735938 14.709375 9.75 14.760938 9.75 14.833594C9.75 14.915625 9.761719 14.957813 9.796875 14.988281C9.832031 15.01875 9.84375 15.060938 9.84375 15.140625C9.84375 15.220313 9.855469 15.2625 9.890625 15.292969C9.925781 15.325781 9.9375 15.365625 9.9375 15.454688C9.9375 15.529688 9.953906 15.607031 9.984375 15.663281C10.014844 15.719531 10.03125 15.796875 10.03125 15.883594C10.033594 15.958594 10.045313 16.066406 10.057031 16.125C10.10625 16.335938 10.10625 16.378125 10.06875 16.434375C10.047656 16.4625 10.03125 16.502344 10.03125 16.51875C10.03125 16.560938 9.91875 16.671094 9.825 16.720313C9.782812 16.741406 9.682031 16.78125 9.6 16.804688C9.440625 16.85625 9.283594 16.959375 9.28125 17.017969C9.28125 17.039063 9.260156 17.074219 9.234375 17.097656C9.208594 17.121094 9.1875 17.151563 9.1875 17.167969C9.1875 17.184375 9.208594 17.219531 9.234375 17.25C9.260156 17.280469 9.28125 17.310938 9.28125 17.320313C9.28125 17.329688 9.316406 17.355469 9.360937 17.376563C9.43125 17.409375 9.616406 17.414063 11.046094 17.414063L12.649219 17.414063L12.740625 17.353125C12.874219 17.266406 12.925781 17.196094 13.054687 16.926563C13.249219 16.525781 13.298437 16.2 13.230469 15.794531C13.14375 15.264844 12.972656 14.964844 12.353906 14.247656C12.271875 14.151563 12.182812 14.048438 12.154687 14.015625C11.789062 13.586719 11.575781 13.279688 11.519531 13.094531C11.453906 12.871875 11.425781 12.532031 11.45625 12.309375C11.528906 11.8125 11.592187 11.664844 11.920312 11.228906L12.15 10.924219L12.217969 10.975781C12.255469 11.003906 12.367969 11.111719 12.466406 11.214844C12.696094 11.453906 12.846094 11.603906 13.155469 11.899219C13.29375 12.030469 13.40625 12.142969 13.40625 12.15C13.40625 12.159375 13.694531 12.442969 14.022656 12.757031C14.095312 12.827344 14.15625 12.892969 14.15625 12.9C14.15625 12.91875 14.317969 13.073438 14.385937 13.117969C14.414062 13.136719 14.4375 13.1625 14.4375 13.171875C14.4375 13.192969 14.64375 13.40625 14.664844 13.40625C14.678906 13.40625 14.8125 13.539844 14.8125 13.55625C14.8125 13.577344 15.520312 14.273438 15.541406 14.273438C15.553125 14.273438 15.5625 14.285156 15.5625 14.296875C15.5625 14.310938 15.752344 14.5125 15.984375 14.744531C16.216406 14.978906 16.40625 15.173437 16.40625 15.180469C16.40625 15.201563 16.645312 15.421875 16.666406 15.421875C16.678125 15.421875 16.6875 15.43125 16.6875 15.445313C16.6875 15.457031 16.814062 15.595312 16.96875 15.752344C17.123437 15.907031 17.25 16.05 17.25 16.06875C17.25 16.085156 17.271094 16.110937 17.296875 16.125C17.322656 16.139063 17.34375 16.174219 17.34375 16.202344C17.34375 16.230469 17.364844 16.267969 17.390625 16.284375C17.416406 16.300781 17.4375 16.338281 17.4375 16.371094C17.4375 16.403906 17.45625 16.439062 17.484375 16.453125C17.514844 16.469531 17.53125 16.502344 17.53125 16.544531C17.53125 16.579687 17.510156 16.628906 17.578125 16.652344C17.60625 16.678125 17.625 16.725 17.625 16.769531C17.625 16.814062 17.64375 16.860937 17.671875 16.886719C17.714062 16.924219 17.71875 16.959375 17.71875 17.179688C17.71875 17.4 17.723437 17.435156 17.765625 17.472656C17.791406 17.496094 17.8125 17.528906 17.8125 17.542969C17.8125 17.589844 17.960156 17.648438 18.075 17.648438C18.20625 17.648438 18.271875 17.60625 18.534375 17.355469C18.88125 17.025 19.0875 16.664063 19.209375 16.1625C19.314844 15.73125 19.307812 15.13125 19.195312 14.685938C19.136719 14.453906 18.935156 14.020313 18.808594 13.85625C18.757031 13.788281 18.499219 13.525781 18.234375 13.270313C17.971875 13.017188 17.573437 12.628125 17.353125 12.410156L16.95 12.011719L16.9125 11.842969C16.8375 11.510156 16.872656 11.046094 16.996875 10.6875C17.172656 10.18125 17.592187 9.527344 17.789062 9.445313C17.885156 9.405469 18.002344 9.442969 18.1125 9.546094C18.185156 9.616406 18.1875 9.625781 18.1875 9.80625C18.1875 9.935156 18.196875 10.003125 18.220312 10.028906C18.239062 10.05 18.28125 10.094531 18.311719 10.129688C18.424219 10.251563 18.616406 10.260938 18.773437 10.148438C18.853125 10.089844 19.061719 9.785156 19.178906 9.550781C19.457812 8.985938 19.516406 8.360156 19.338281 7.802344C19.21875 7.429688 19.028906 7.174219 18.679687 6.916406C18.50625 6.7875 17.950781 6.494531 17.639062 6.365625C17.369531 6.253125 17.217187 6.154688 17.078906 6C16.910156 5.8125 16.846875 5.671875 16.825781 5.449219C16.809375 5.240625 16.7625 5.092969 16.696875 5.046094C16.635937 5.001563 16.4625 5.008594 16.389844 5.055469C16.298437 5.116406 16.21875 5.19375 16.21875 5.221875C16.21875 5.235938 16.197656 5.254688 16.171875 5.261719C16.146094 5.26875 16.125 5.292188 16.125 5.310938C16.125 5.329688 16.108594 5.34375 16.089844 5.34375C16.06875 5.34375 16.045312 5.3625 16.038281 5.383594C16.028906 5.407031 16.003125 5.439844 15.979687 5.45625C15.95625 5.472656 15.9375 5.500781 15.9375 5.519531C15.9375 5.538281 15.916406 5.564063 15.890625 5.578125C15.864844 5.592188 15.84375 5.622656 15.84375 5.648438C15.84375 5.674219 15.822656 5.704688 15.796875 5.71875C15.771094 5.732813 15.75 5.763281 15.75 5.789063C15.75 5.814844 15.728906 5.845313 15.703125 5.859375C15.677344 5.873438 15.65625 5.908594 15.65625 5.939063C15.65625 5.969531 15.635156 6.011719 15.609375 6.035156C15.583594 6.058594 15.5625 6.105469 15.5625 6.140625C15.5625 6.175781 15.541406 6.222656 15.515625 6.246094C15.485156 6.274219 15.46875 6.31875 15.46875 6.370313C15.46875 6.417188 15.45 6.473438 15.428906 6.499219C15.400781 6.529688 15.382031 6.6 15.372656 6.7125C15.365625 6.803906 15.344531 6.928125 15.328125 6.989063C15.3 7.085156 15.3 7.117969 15.328125 7.211719C15.346875 7.275 15.365625 7.389844 15.370312 7.471875C15.377344 7.584375 15.389062 7.621875 15.424219 7.640625C15.452344 7.657031 15.46875 7.689844 15.46875 7.732031C15.46875 7.767188 15.447656 7.816406 15.421875 7.839844C15.396094 7.863281 15.46875 7.898438 15.46875 7.919531C15.46875 7.940625 15.489844 7.971094 15.515625 7.9875C15.541406 8.003906 15.5625 8.032031 15.5625 8.050781C15.5625 8.069531 15.583594 8.095313 15.609375 8.109375C15.635156 8.123438 15.65625 8.144531 15.65625 8.158594C15.65625 8.19375 15.9375 8.458594 16.03125 8.510156C16.075781 8.535938 16.18125 8.599219 16.263281 8.648438C16.347656 8.7 16.483594 8.767969 16.567969 8.803125C16.95 8.955469 16.985156 8.976563 16.973437 9.044531C16.966406 9.077344 16.921875 9.142969 16.872656 9.189844C16.821094 9.236719 16.78125 9.283594 16.78125 9.295313C16.78125 9.307031 16.760156 9.330469 16.734375 9.346875C16.708594 9.363281 16.6875 9.39375 16.6875 9.417188C16.6875 9.438281 16.666406 9.471094 16.640625 9.4875C16.614844 9.503906 16.59375 9.541406 16.59375 9.574219C16.59375 9.607031 16.575 9.642188 16.546875 9.65625C16.521094 9.670313 16.5 9.705469 16.5 9.733594C16.5 9.761719 16.478906 9.799219 16.453125 9.815625C16.427344 9.832031 16.40625 9.8625 16.40625 9.888281C16.40625 9.911719 16.385156 9.949219 16.359375 9.972656C16.333594 9.996094 16.3125 10.038281 16.3125 10.066406C16.3125 10.094531 16.291406 10.136719 16.265625 10.160156C16.2375 10.185938 16.21875 10.232813 16.21875 10.279688C16.21875 10.333594 16.204687 10.366406 16.171875 10.382813C16.139062 10.399219 16.125 10.432031 16.125 10.485938C16.125 10.532813 16.10625 10.579688 16.078125 10.605469C16.042969 10.635938 16.03125 10.678125 16.03125 10.760156C16.03125 10.851563 16.019531 10.879688 15.972656 10.917188C15.939844 10.942969 15.914062 10.975781 15.914062 10.989844C15.914062 11.055469 15.836719 10.992188 15.510937 10.657031C15.316406 10.4625 14.477344 9.609375 13.642969 8.765625C12.808594 7.921875 12.05625 7.155469 11.971875 7.066406C11.8875 6.975 11.767969 6.848438 11.707031 6.785156C11.503125 6.569531 11.4375 6.475781 11.334375 6.255469C11.200781 5.967188 11.132812 5.714063 11.116406 5.432813C11.1 5.170313 11.064844 5.090625 10.938281 5.032031C10.823437 4.975781 10.739062 4.96875 10.626562 4.999219ZM3.480469 9.145312C3.43125 9.171094 3.367969 9.220312 3.339844 9.255469C3.314063 9.288281 3.269531 9.339844 3.241406 9.365625C3.210938 9.39375 3.1875 9.424219 3.1875 9.435937C3.1875 9.447656 3.166406 9.471094 3.140625 9.4875C3.114844 9.503906 3.09375 9.536719 3.09375 9.5625C3.09375 9.585937 3.072656 9.61875 3.046875 9.632812C3.01875 9.649219 3 9.682031 3 9.721875C3 9.759375 2.98125 9.796875 2.953125 9.815625C2.920312 9.834375 2.90625 9.869531 2.90625 9.923437C2.90625 9.970312 2.8875 10.017187 2.859375 10.042969C2.824219 10.075781 2.8125 10.115625 2.8125 10.204687C2.8125 10.272656 2.791406 10.385156 2.765625 10.460156C2.702344 10.638281 2.702344 10.879687 2.765625 10.999219C2.791406 11.046094 2.8125 11.123437 2.8125 11.167969C2.8125 11.224219 2.826562 11.254687 2.859375 11.273437C2.885156 11.2875 2.90625 11.320312 2.90625 11.348437C2.90625 11.421094 3.1875 11.683594 3.353906 11.767969C3.43125 11.805469 3.578906 11.859375 3.686719 11.8875C3.864844 11.932031 3.960937 11.936719 5.074219 11.953125C6.316406 11.969531 6.344531 11.971875 6.550781 12.077344C6.724219 12.164063 6.9375 12.346875 6.9375 12.410156C6.9375 12.424219 6.95625 12.457031 6.982031 12.478125C7.010156 12.503906 7.028906 12.560156 7.035937 12.635156C7.042969 12.698438 7.064062 12.76875 7.0875 12.792188C7.110937 12.820313 7.125 12.876563 7.125 12.949219C7.125 13.024219 7.139063 13.078125 7.167188 13.108594C7.202344 13.148438 7.207031 13.221094 7.214063 13.739063C7.221094 14.275781 7.216406 14.339063 7.174219 14.482031C7.139063 14.592188 7.122656 14.716406 7.117969 14.90625L7.113281 15.173438L7.019531 15.229688C6.935156 15.276563 6.907031 15.28125 6.738281 15.269531C6.635156 15.2625 5.798438 15.250781 4.882031 15.24375C3.028125 15.232031 3.030469 15.232031 2.995313 15.370313C2.985938 15.407813 2.960156 15.452344 2.941406 15.46875C2.920313 15.4875 2.90625 15.539063 2.90625 15.607031C2.90625 15.686719 2.894531 15.726563 2.859375 15.757031C2.826563 15.785156 2.8125 15.825 2.8125 15.897656C2.8125 15.967969 2.798438 16.007813 2.765625 16.038281C2.732813 16.066406 2.71875 16.10625 2.71875 16.183594C2.71875 16.263281 2.707031 16.29375 2.671875 16.3125C2.636719 16.33125 2.625 16.361719 2.625 16.439063C2.625 16.507031 2.608594 16.558594 2.578125 16.59375C2.55 16.626563 2.53125 16.680469 2.53125 16.734375C2.53125 16.790625 2.514844 16.835156 2.484375 16.863281C2.45625 16.889063 2.4375 16.935938 2.4375 16.980469C2.4375 17.025 2.41875 17.071875 2.390625 17.097656C2.320313 17.160938 2.325 17.355469 2.397656 17.395313C2.4375 17.41875 3.014063 17.425781 5.266406 17.425781C8.053125 17.425781 8.085938 17.425781 8.130469 17.378906C8.177344 17.329688 8.8125 15.447656 8.8125 15.35625C8.8125 15.31875 8.789063 15.295313 8.725781 15.267188C8.636719 15.229688 8.5875 15.232031 8.121094 15.271875C7.95 15.285938 7.795313 15.234375 7.814063 15.16875C7.884375 14.927344 7.999219 14.294531 8.053125 13.828125C8.135156 13.150781 8.090625 12.067969 7.954688 11.397656C7.783594 10.544531 7.516406 10.183594 6.897656 9.970313C6.539063 9.846094 6.257813 9.817969 5.132813 9.801563C4.446094 9.789844 4.14375 9.775781 4.101563 9.757031C3.963281 9.689063 3.855469 9.548438 3.820313 9.384375C3.808594 9.321094 3.792188 9.246094 3.785156 9.217969C3.778125 9.185156 3.740625 9.15 3.689063 9.128906C3.585938 9.086719 3.595313 9.084375 3.480469 9.145313Z"/></svg>
