<svg xmlns="http://www.w3.org/2000/svg" width="24" height="24" viewBox="0 0 24 24"><path d="M 8.32586837818,2.10311474052 C 8.30752486864,2.11412115932 8.24515255307,2.1287969062 8.19011889364,2.139803325 C 8.09839508432,2.16181772802 7.8305623125,2.37828460307 7.8305623125,2.4333182625 C 7.8305623125,2.4443246813 7.76452066886,2.51770341568 7.68380484375,2.5984208062 C 7.60308901864,2.67546886864 7.537047375,2.76352334989 7.537047375,2.78920551557 C 7.537047375,2.81855700932 7.50402655318,2.86258424995 7.46366864062,2.88826641562 C 7.42331072807,2.9139485813 7.39028990625,2.95797582193 7.39028990625,2.98732731568 C 7.39028990625,3.01667880943 7.35726908443,3.05703672198 7.31691117187,3.079051125 C 7.27655325932,3.10106396261 7.2435324375,3.1487605313 7.2435324375,3.1854506812 C 7.2435324375,3.22213926568 7.21051161568,3.28084225318 7.17015370312,3.31753240307 C 7.12979579057,3.35422098755 7.09677496875,3.41292397505 7.09677496875,3.44594479687 C 7.09677496875,3.4789656187 7.06375414693,3.5376686062 7.02339623437,3.57435719068 C 6.98303832182,3.61104734057 6.9500175,3.68442607495 6.9500175,3.7357904063 C 6.9500175,3.79082406573 6.91699667818,3.86053503745 6.87663876562,3.89722362193 C 6.82894219693,3.93391377182 6.80326003125,4.00362317813 6.80326003125,4.08067124057 C 6.80326003125,4.15404997495 6.7739085375,4.23109647198 6.73355062495,4.26778662188 C 6.68218472818,4.31548319057 6.66017189057,4.39986834375 6.6454961437,4.66770111557 C 6.63448972489,4.85481649687 6.597799575,5.07128337193 6.56844808125,5.15200076245 C 6.53175949677,5.24739233443 6.51341442182,5.43083995307 6.50974509375,5.66565190307 C 6.50974509375,5.9665039313 6.52442084062,6.05822774063 6.58312382813,6.17196438755 C 6.62715106875,6.25268177807 6.6565025625,6.3774248438 6.6565025625,6.48749372807 C 6.6565025625,6.60856746573 6.67851696552,6.69295418432 6.72988129687,6.75899426255 C 6.77023920943,6.81036015932 6.80326003125,6.89841464057 6.80326003125,6.96078539073 C 6.80326003125,7.01948837823 6.83628085307,7.09653644068 6.87663876562,7.13322659057 C 6.91699667818,7.16991517505 6.9500175,7.2469632375 6.9500175,7.30199689693 C 6.9500175,7.36803854057 6.97936899375,7.42674152807 7.02339623437,7.45242369375 C 7.06375414693,7.47810585943 7.09677496875,7.53680884693 7.09677496875,7.58083608755 C 7.09677496875,7.62486332818 7.12979579057,7.67989698761 7.17015370312,7.70191139062 C 7.21051161568,7.72392579364 7.2435324375,7.77162079693 7.2435324375,7.81198027489 C 7.2435324375,7.85233818745 7.27655325932,7.90003319073 7.31691117187,7.92204759375 C 7.35726908443,7.94406199677 7.39028990625,7.97708125318 7.39028990625,7.99542632812 C 7.39028990625,8.03211647802 7.56272954068,8.21556253125 7.5957503625,8.21556253125 C 7.62143252818,8.21556253125 7.8305623125,8.42469231557 7.8305623125,8.45037448125 C 7.8305623125,8.46138090005 7.96264403437,8.6081383688 8.12407725,8.76957158443 C 8.28551046563,8.93467412812 8.4175921875,9.07409294073 8.4175921875,9.08143159687 C 8.4175921875,9.09243801568 8.58636405927,9.26854697818 8.79549227818,9.4776767625 C 9.00095273443,9.68680654682 9.21375184682,9.90327342187 9.26511617818,9.96197640937 C 9.32015140302,10.0206793969 9.43021872187,10.1307467157 9.51460387505,10.2077947782 C 9.59532126557,10.2811735126 9.66503067187,10.3692279938 9.66503067187,10.3985794876 C 9.66503067187,10.4719582219 9.44489446875,10.6847573343 9.2871305812,10.7618038314 C 9.21008251875,10.7948246532 9.15137953125,10.8388518938 9.15137953125,10.8571969687 C 9.15137953125,10.8755420437 9.10001519989,10.9195692843 9.03397355625,10.9525885407 C 8.91656758125,11.0112915282 8.711107125,11.1984084749 8.711107125,11.2387663875 C 8.711107125,11.2534421344 8.61204622495,11.3561723625 8.49097092187,11.4735783375 C 8.3698956188,11.5909843125 8.27083471875,11.7083902875 8.27083471875,11.7304031251 C 8.27083471875,11.7524175281 8.23781389693,11.7891061126 8.19745598437,11.8111205156 C 8.15709807182,11.8331333532 8.12407725,11.8734928312 8.12407725,11.9028443249 C 8.12407725,11.9321958187 8.09105642818,11.9762230593 8.05069851562,12.001905225 C 8.01034060307,12.0275873907 7.97731978125,12.0752839594 7.97731978125,12.1119725439 C 7.97731978125,12.1449933657 7.94429895943,12.1853512782 7.90394104687,12.1963592624 C 7.85991380625,12.2110350093 7.8305623125,12.2513929219 7.8305623125,12.2990894906 C 7.8305623125,12.3431167312 7.79754149068,12.4018197187 7.75718357812,12.4275018844 C 7.71682566557,12.4531840501 7.68380484375,12.4972112907 7.68380484375,12.5265627844 C 7.68380484375,12.5559142782 7.65078402193,12.5962721907 7.61042610938,12.6182865937 C 7.57006819682,12.6402994314 7.537047375,12.6769895812 7.537047375,12.7026717469 C 7.537047375,12.7283539126 7.50402655318,12.7687133906 7.46366864062,12.7943955563 C 7.42331072807,12.8200777219 7.39028990625,12.8787807094 7.39028990625,12.9264772781 C 7.39028990625,12.9705045187 7.35726908443,13.0402139251 7.31691117187,13.0769040749 C 7.27655325932,13.1135926594 7.2435324375,13.1796343031 7.2435324375,13.2236615437 C 7.2435324375,13.2676887843 7.21051161568,13.3337288626 7.17015370312,13.3704190124 C 7.12245713443,13.4144462531 7.09677496875,13.4841556594 7.09677496875,13.5758794687 C 7.09677496875,13.6786096968 7.0784298938,13.7263062655 7.02339623437,13.7556577593 C 6.96836257495,13.7850076876 6.9500175,13.8327042563 6.9500175,13.9464424686 C 6.9500175,14.0381647126 6.92433533432,14.1262191938 6.88764518443,14.1702464344 C 6.84728727188,14.2142736751 6.81426645005,14.3316796501 6.79959070318,14.4857757749 C 6.7849149563,14.6178574968 6.74822637182,14.7939664593 6.71887487807,14.8746822844 C 6.67117830937,14.9884204968 6.66017189057,15.1681972219 6.6565025625,15.6745112718 C 6.6565025625,16.2542024907 6.66384121864,16.3385892093 6.72988129687,16.4596629469 C 6.78858428437,16.5734011593 6.80326003125,16.6687927313 6.80326003125,16.9659769968 C 6.80326003125,17.2704983531 6.81793577812,17.3512157436 6.87663876562,17.4429379876 C 6.92066600625,17.5089796312 6.9500175,17.6153791874 6.9500175,17.7034336686 C 6.9500175,17.8061623314 6.97203190302,17.8758733031 7.02339623437,17.9199005437 C 7.07109280307,17.9639277843 7.09677496875,18.0336371906 7.09677496875,18.1216916719 C 7.09677496875,18.2097461531 7.12245713443,18.2794555594 7.16648437505,18.319813472 C 7.22151959989,18.3675100407 7.23986310943,18.4445581031 7.24720176557,18.6720329624 C 7.25820818438,18.8664854344 7.28022258739,18.9802220814 7.32058049995,19.0242508874 C 7.47467505943,19.2003582845 7.4673379687,20.0552209313 7.3132418438,20.1506140687 C 7.27288393125,20.1762962344 7.2435324375,20.2129863843 7.2435324375,20.2349992219 C 7.2435324375,20.2900328813 6.98303832182,20.4698111719 6.90599025937,20.4698111719 C 6.87296943755,20.4698111719 6.832611525,20.4844869187 6.8216051062,20.5065013218 C 6.81059868739,20.5285141594 6.75189569989,20.5431899062 6.69686047505,20.5431899062 C 6.5867931562,20.5431899062 6.33363613125,20.6532587905 6.17220291562,20.7743325282 C 6.0804791063,20.8440419345 6.0694726875,20.8733949936 6.0694726875,21.0715167937 C 6.0694726875,21.27697725 6.0804791063,21.3063287438 6.1868786625,21.4053896438 L 6.30061530943,21.5154585281 L 8.8285131,21.5264649469 C 11.5765470937,21.5374713657 11.4224509688,21.5484777845 11.6792773218,21.3283415814 C 11.8113590437,21.2182742625 12.1635769687,20.5358512501 12.2369557031,20.2423363126 C 12.2699765249,20.1175932469 12.2883200344,19.8350847282 12.2883200344,19.4608539656 C 12.2883200344,18.8921691655 12.2846522718,18.8628176718 12.1672462968,18.5252754936 C 11.9911373343,18.0189614437 11.7563253843,17.6007018751 11.4261202969,17.2044582749 C 10.8977934094,16.5697318312 10.0062421781,15.4580428314 9.86682180005,15.2599210313 C 9.79344306568,15.1535214751 9.68704507489,14.9480610188 9.63567917812,14.8049728781 C 9.54762469688,14.5664916001 9.54028760614,14.4967821937 9.54028760614,13.9391038125 C 9.54028760614,13.4254526719 9.55129402495,13.2823645312 9.62467275932,12.9851802656 C 9.73474007818,12.5412385313 9.84113963438,12.3394474031 10.2667362938,11.7854383499 L 10.6079477999,11.3378272876 L 10.6923329531,11.4258817688 C 10.7400295218,11.4772476656 10.7950631813,11.5176055781 10.8170775843,11.5176055781 C 10.8390904219,11.5176055781 10.9161384843,11.5836472218 10.9858478906,11.6643630469 C 11.0555572969,11.745078872 11.1252682686,11.8111205156 11.1399440155,11.8111205156 C 11.1509504343,11.8111205156 11.41144455,12.0569388844 11.7159659063,12.3614618061 C 12.020488828,12.6623138344 12.2809829437,12.9118015312 12.2919893625,12.9118015312 C 12.3140037655,12.9118015312 12.6735587812,13.2676887843 12.6735587812,13.29337095 C 12.6735587812,13.3043773688 12.7579439344,13.3924318501 12.8643434906,13.4878249874 C 13.1505213374,13.7556577593 17.9568276562,18.5582947501 17.9568276562,18.576639825 C 17.9568276562,18.6023219907 18.1402752749,18.7821002812 18.1622881125,18.7821002812 C 18.1989782624,18.7821002812 18.3971000625,18.9948978282 18.3971000625,19.0352573062 C 18.3971000625,19.0572701438 18.4301208843,19.0939602937 18.4704787969,19.1196424594 C 18.5108367094,19.1453246251 18.5438575312,19.1966905218 18.5438575312,19.2297097782 C 18.5438575312,19.2663999281 18.5768783531,19.3104271687 18.6172362656,19.3324400064 C 18.6612635062,19.3544544094 18.690615,19.4094880688 18.690615,19.4608539656 C 18.690615,19.5122182969 18.7199664938,19.5672519564 18.7639937344,19.5892663594 C 18.8043516469,19.611279197 18.8373724687,19.6663144218 18.8373724687,19.7103416624 C 18.8373724687,19.7543689031 18.8703932906,19.8130718906 18.9107512031,19.8387540562 C 18.9621155345,19.86810555 18.9841299375,19.9231392094 18.9841299375,20.0075243626 C 18.9841299375,20.080903097 19.0134814312,20.1542818314 19.0575086719,20.1946413093 C 19.1052052406,20.2386685499 19.1308874062,20.3083779562 19.1308874062,20.3890937814 C 19.1308874062,20.4661418438 19.1602389,20.550526997 19.2005968126,20.5945542376 C 19.2592998001,20.6569265532 19.2739755469,20.7449810344 19.2886512938,21.0495023907 C 19.3033270407,21.3246738187 19.3216721156,21.4457475564 19.3656993562,21.4934441251 C 19.3987201781,21.5301342749 19.4244023437,21.6035130093 19.4244023437,21.6585466687 C 19.4244023437,21.7392624939 19.4537538375,21.7686139876 19.5821662313,21.8273169751 C 19.6665513845,21.8676764531 19.8133088532,21.9006957095 19.9050326626,21.9006957095 C 20.0664658782,21.9006957095 20.0921480439,21.8860199626 20.4003387282,21.6108501001 C 20.8075918781,21.2512950843 21.0644166657,20.9357657438 21.27354645,20.5395205782 C 21.6734609437,19.7873881595 21.8238861751,18.9472028249 21.7395010219,17.9565891282 C 21.6954737813,17.4392686595 21.5450469845,16.9439625938 21.2772157781,16.4156357063 C 21.0717553218,16.0193905407 20.8662948656,15.7882479188 19.3143334595,14.2216123312 C 18.4814852157,13.3814254312 18.2099846812,13.0842411657 18.1402737095,12.9374836969 C 18.0522192282,12.7540376437 18.0485514656,12.7173474938 18.0485514656,12.0862903782 C 18.0522192282,11.4515639345 18.0558885563,11.41487535 18.1549494564,11.1507119063 C 18.433788647,10.4095859064 18.8924061282,9.62810355932 19.277644875,9.2318583937 C 19.4537538375,9.0557494312 19.5014504062,9.02272860937 19.6151870531,9.02272860937 C 19.6848964594,9.02272860937 19.8023024344,9.04841077505 19.8756811688,9.0777622688 C 20.0004257999,9.12912816557 20.0040935626,9.1364652563 20.0297772937,9.39695937198 C 20.0444530406,9.54371684073 20.0811416251,9.70881938443 20.1068253561,9.76385304386 C 20.1361752845,9.8188882687 20.1581896875,9.91061051261 20.1581896875,9.96931350011 C 20.1581896875,10.0903888032 20.2792649906,10.1967883594 20.4994011937,10.2664977657 C 20.7195373968,10.3398765001 20.9249978531,10.2481526907 21.1231196532,9.98398924698 C 21.6477772126,9.29789847193 21.9999951376,8.34764425312 21.9999951376,7.62853265625 C 21.9963273749,6.8250359062 21.6991431094,6.00686340927 21.2221805532,5.4858736125 C 20.8589562094,5.09329777495 20.0627965501,4.60899812807 19.2519627093,4.29713811562 C 19.0501700157,4.21642229052 18.808020975,4.10268407818 18.7199664938,4.04031332802 C 18.4484643939,3.84952861864 18.1439430376,3.52299285932 18.0228677345,3.28818090932 C 17.9164697437,3.08638978114 17.9054617595,3.02768679364 17.9091310876,2.78920551557 C 17.9164697437,2.58007573125 17.8981246688,2.48468415927 17.8394216813,2.36727818427 C 17.7366914531,2.16548549068 17.6779884656,2.1287969062 17.4615215906,2.12512757812 C 17.3074254657,2.12512757812 17.2523918063,2.14714198114 17.1313165032,2.2462028812 C 16.9185189562,2.41864251562 16.7827679063,2.5507242375 16.7827679063,2.58741438739 C 16.7827679063,2.60575789693 16.7497470844,2.64244804682 16.7093891719,2.6681302125 C 16.6690312593,2.69381237818 16.6360104375,2.7378396188 16.6360104375,2.76719111255 C 16.6360104375,2.7965426063 16.6029896157,2.83690208427 16.5626317031,2.85891492187 C 16.5222737906,2.88092932489 16.4892529688,2.92862432818 16.4892529688,2.96898380614 C 16.4892529688,3.0093417187 16.4562321469,3.05703828739 16.4158742344,3.079051125 C 16.3755163218,3.10106552802 16.3424955,3.14142344057 16.3424955,3.17077493432 C 16.3424955,3.20012642807 16.3094746782,3.2441536687 16.2691167656,3.26983583437 C 16.2287588531,3.29551800005 16.1957380313,3.35422098755 16.1957380313,3.39824822818 C 16.1957380313,3.4422754688 16.1627172094,3.49731069364 16.1223592969,3.51932353125 C 16.0746627282,3.54500569693 16.0489805625,3.5963715937 16.0489805625,3.66241167193 C 16.0489805625,3.71744689677 16.0159597407,3.7944933938 15.9756018281,3.8311835437 C 15.9315745875,3.87154145625 15.9022230937,3.94492019062 15.9022230937,4.018298925 C 15.9022230937,4.10268407818 15.8802086907,4.15404997495 15.8288443594,4.17973214062 C 15.7701413719,4.21275296245 15.755465625,4.25678020307 15.755465625,4.4292198375 C 15.755465625,4.56864021552 15.7297834593,4.68604619052 15.6820868906,4.77776843443 C 15.6197145751,4.89150664677 15.6087081562,4.98322889068 15.6087081562,5.36479830943 C 15.6087081562,5.74269996552 15.6197145751,5.83442220943 15.6820868906,5.95182818443 C 15.7224448032,6.0252069188 15.755465625,6.13527580307 15.755465625,6.19764811864 C 15.755465625,6.26735752495 15.7811477907,6.32239118438 15.8288443594,6.35174267812 C 15.8692022719,6.3774248438 15.9022230937,6.4361278313 15.9022230937,6.48015507193 C 15.9022230937,6.52418231255 15.9352439156,6.57921753739 15.9756018281,6.601230375 C 16.0159597407,6.62324477802 16.0489805625,6.6709397813 16.0489805625,6.71129925927 C 16.0489805625,6.75165717182 16.0820013843,6.79935374052 16.1223592969,6.82136657812 C 16.1627172094,6.84338098114 16.1957380313,6.8837388937 16.1957380313,6.91309038745 C 16.1957380313,6.9424418812 16.2287588531,6.98279979375 16.2691167656,7.00481419677 C 16.3094746782,7.02682703437 16.3424955,7.0598478562 16.3424955,7.07819293114 C 16.3424955,7.14423300938 16.6103282718,7.40839645312 16.8194564907,7.5514845938 C 17.1129714282,7.75327728739 17.5972710751,8.00643274693 17.9825098219,8.16052887182 C 18.2209911,8.2559204438 18.3273906562,8.31829275937 18.3457341657,8.36965865614 C 18.3604099126,8.4210229875 18.3494034938,8.45771313739 18.3090455812,8.479725975 C 18.2760247594,8.49807104995 18.2503425937,8.53109187177 18.2503425937,8.55677403745 C 18.2503425937,8.58245620312 18.1843009501,8.65950426557 18.103585125,8.72921367187 C 18.0228677345,8.79892307818 17.9568276562,8.87597114062 17.9568276562,8.89431621557 C 17.9568276562,8.91632905318 17.9238068344,8.95301920307 17.8834489219,8.97870136875 C 17.8430910093,9.00438353443 17.8100701875,9.0557494312 17.8100701875,9.09610734375 C 17.8100701875,9.13279749364 17.7770493657,9.184161825 17.7366914531,9.20617622802 C 17.6926642125,9.22818906562 17.6633127187,9.28322272505 17.6633127187,9.33458862182 C 17.6633127187,9.38595295318 17.633961225,9.44098817802 17.5899339844,9.46300101562 C 17.5459067438,9.48501541864 17.51655525,9.54004907807 17.51655525,9.59141340943 C 17.51655525,9.6427793062 17.4835344282,9.7014822937 17.4431765156,9.72716445937 C 17.4028186031,9.75284662505 17.3697977812,9.81521894062 17.3697977812,9.86658483739 C 17.3697977812,9.91794916875 17.3367769594,9.98032148432 17.2964190469,10.00600365 C 17.2523918063,10.0316858157 17.2230403125,10.0903888032 17.2230403125,10.1564304468 C 17.2230403125,10.2114641063 17.1900194907,10.2885121687 17.1496615781,10.3252007532 C 17.1093036656,10.3618909031 17.0762828438,10.4352696374 17.0762828438,10.4903032969 C 17.0762828438,10.5453369563 17.0432620219,10.6187156907 17.0029041094,10.6554058406 C 16.9552075407,10.6994330812 16.929525375,10.7691424875 16.929525375,10.8535276407 C 16.929525375,10.967265853 16.8524773126,11.1727263093 16.7387406656,11.3708481094 C 16.7203955907,11.4001996031 16.6983827531,11.4552332626 16.6873747689,11.4882540844 C 16.6690312593,11.5432877438 16.6286717814,11.5249442343 16.4415564001,11.3598416906 C 16.320481097,11.2571114624 16.1443721345,11.0883395907 16.0526498906,10.9892786906 C 15.9609260812,10.8902177906 14.7465084187,9.66846147187 13.3523124656,8.27426551875 C 11.9617842751,6.88006956562 10.5455754844,5.45652211875 10.2117026343,5.11531061255 C 9.56963753448,4.45123424052 9.55129402495,4.42555050943 9.21375184682,3.64773592505 C 9.11468938136,3.4202626312 9.0046220625,2.86625357802 9.0046220625,2.59108215005 C 9.0046220625,2.30123654062 8.85052593761,2.139803325 8.5460045813,2.11045183125 C 8.44694368125,2.09944541245 8.3478827812,2.09577608437 8.32586837818,2.10311474052 Z M 4.65693165943,8.85395830302 C 4.51751284682,8.88330979677 4.30104440636,9.04841077505 4.30104440636,9.12178950943 C 4.30104440636,9.14380391245 4.26802514995,9.18049249693 4.22766567198,9.20617622802 C 4.18730775943,9.2318583937 4.15428693761,9.27588563432 4.15428693761,9.30523712807 C 4.15428693761,9.33458862182 4.1212676812,9.37494653437 4.08090820323,9.39696093739 C 4.03321319995,9.42264310307 4.00752946886,9.47400743443 4.00752946886,9.54371840614 C 4.00752946886,9.61342781245 3.98184730318,9.6647921438 3.93415073448,9.69047587489 C 3.88278640312,9.71615804057 3.86077200011,9.76752237193 3.86077200011,9.85190909052 C 3.86077200011,9.92161849682 3.8277527437,10.0096729781 3.78739326573,10.0573695468 C 3.7213531875,10.1344160438 3.71401453136,10.1931190313 3.71401453136,10.7031024093 C 3.71401453136,11.2277599687 3.71768385943,11.2681178812 3.78739326573,11.3048080311 C 3.83142050636,11.3268208687 3.86077200011,11.3818545282 3.86077200011,11.4332204249 C 3.86077200011,11.4845847563 3.89379282193,11.5432877438 3.93415073448,11.5689714749 C 3.97451021245,11.5946536406 4.00752946886,11.6423502093 4.00752946886,11.671701703 C 4.01119879693,11.7597561843 4.34140388432,11.9908988062 4.59822867193,12.0789532874 C 4.82203420312,12.1596691126 4.89908226557,12.1633384406 6.35564896886,12.1853528436 C 7.19216654073,12.2000285905 7.91127813761,12.2220414281 7.95530537823,12.236717175 C 8.0176776938,12.258731578 8.05803560636,12.2220414281 8.20846240318,11.9945681343 C 8.52765950636,11.5102684874 8.711107125,11.2901322843 9.1330344563,10.8755420437 L 9.55496178761,10.4682904593 L 9.32014983761,10.2334785093 C 8.8175066812,9.73083378745 8.50931599682,9.66112438114 6.55744166245,9.62443423125 C 5.6695581938,9.6060891563 5.28798877505,9.5840763187 5.22928578755,9.55472482495 C 5.10454272182,9.48134609057 5.0018124937,9.32724996568 4.97979809068,9.18049249693 C 4.93577085005,8.92366770932 4.92476443125,8.88697755943 4.85872278761,8.85395830302 C 4.8257035312,8.83561322807 4.73397972187,8.83561322807 4.65693165943,8.85395830302 Z M 5.3540304187,16.1771559936 C 5.31367094073,16.1954995032 4.76333121562,16.2101752501 4.1322741,16.2101752501 C 2.99490293448,16.2138445781 2.840808375,16.228520325 2.840808375,16.3385876439 C 2.840808375,16.3642713749 2.80778755318,16.4156357063 2.76742964062,16.4523258562 C 2.7123959812,16.5000208595 2.69405090625,16.5660625031 2.69405090625,16.6908071343 C 2.69405090625,16.8155502 2.6757058313,16.8815918436 2.62067217187,16.9292868469 C 2.57297560318,16.9733140876 2.5472934375,17.0430250593 2.5472934375,17.1310795405 C 2.5472934375,17.2117953656 2.51794194375,17.3071869376 2.47391470312,17.3622221624 C 2.43355679057,17.4135864938 2.40053596875,17.5089796312 2.40053596875,17.5823583656 C 2.40053596875,17.6594048626 2.37485380307,17.732783597 2.32715723437,17.7731430749 C 2.27579133761,17.8208380782 2.2537785,17.8868797219 2.2537785,17.9932792781 C 2.2537785,18.0996772689 2.23176566239,18.1657189125 2.18039976562,18.2134154812 C 2.14004185307,18.2501040657 2.10702103125,18.3234828001 2.10702103125,18.3785180249 C 2.10702103125,18.4335516843 2.08133886557,18.4995917626 2.05198737182,18.5252754936 C 1.96760065323,18.5949848999 1.98594572818,18.6646943062 2.10702103125,18.7270666218 C 2.19874484057,18.7747616251 2.50693552495,18.7821002812 4.34507321239,18.7821002812 C 6.34831187812,18.7821002812 6.47305650927,18.7784309532 6.47305650927,18.716060203 C 6.47305650927,18.6830393812 6.42902926864,18.5216061656 6.37766337188,18.363842278 C 6.22723657505,17.8832103938 6.04012119375,17.1347473032 5.97774887818,16.7458407937 C 5.893363725,16.2211832343 5.89703305307,16.2321896531 5.79430282495,16.1844930844 C 5.68423394068,16.133128753 5.46042840948,16.1294594249 5.3540304187,16.1771559936 Z"/></svg>
