<svg xmlns="http://www.w3.org/2000/svg" width="24" height="24" viewBox="0 0 24 24"><path d="M8.325869 2.103115C8.347883 2.095776 8.446943 2.099445 8.546004 2.110452C8.850526 2.139803 9.004622 2.301237 9.004622 2.591082C9.004622 2.866254 9.11469 3.420263 9.213752 3.647736C9.551294 4.42555 9.569637 4.451234 10.211702 5.115311C10.545575 5.456522 11.961784 6.88007 13.352312 8.274265C14.746509 9.668462 15.960926 10.890218 16.05265 10.989279C16.144373 11.08834 16.32048 11.257112 16.441557 11.359841C16.628672 11.524944 16.669031 11.543287 16.687374 11.488255C16.698383 11.455234 16.720396 11.4002 16.738741 11.370848C16.852478 11.172727 16.929525 10.967266 16.929525 10.853528C16.929525 10.769142 16.955208 10.699433 17.002905 10.655406C17.043262 10.618715 17.076283 10.545337 17.076283 10.490303C17.076283 10.435269 17.109304 10.361891 17.149662 10.325201C17.19002 10.288512 17.22304 10.211464 17.22304 10.15643C17.22304 10.090389 17.252392 10.031686 17.296419 10.006003C17.336777 9.980322 17.369799 9.917949 17.369799 9.866585C17.369799 9.815219 17.402819 9.752847 17.443176 9.727164C17.483534 9.701482 17.516556 9.642779 17.516556 9.591413C17.516556 9.54005 17.545906 9.485016 17.589933 9.463001C17.633961 9.440989 17.663313 9.385953 17.663313 9.334589C17.663313 9.283223 17.692665 9.228189 17.736691 9.206176C17.77705 9.184162 17.81007 9.132797 17.81007 9.096107C17.81007 9.05575 17.84309 9.004383 17.88345 8.978702C17.923807 8.953019 17.956827 8.916329 17.956827 8.894317C17.956827 8.875971 18.022867 8.798923 18.103584 8.729214C18.184301 8.659504 18.250343 8.582457 18.250343 8.556774C18.250343 8.531092 18.276024 8.498071 18.309046 8.479726C18.349403 8.457713 18.360411 8.421023 18.345734 8.369658C18.327391 8.318293 18.220991 8.25592 17.98251 8.160529C17.597271 8.006433 17.112972 7.753277 16.819456 7.551485C16.610329 7.408396 16.342495 7.144233 16.342495 7.078193C16.342495 7.059848 16.309475 7.026827 16.269117 7.004814C16.22876 6.9828 16.195738 6.942442 16.195738 6.91309C16.195738 6.883739 16.162718 6.843381 16.12236 6.821367C16.082001 6.799354 16.048981 6.751657 16.048981 6.711299C16.048981 6.67094 16.015961 6.623245 15.975602 6.60123C15.935244 6.579217 15.902223 6.524182 15.902223 6.480155C15.902223 6.436128 15.869203 6.377425 15.828844 6.351743C15.781148 6.322391 15.755466 6.267357 15.755466 6.197648C15.755466 6.135276 15.722445 6.025207 15.682087 5.951828C15.619715 5.834422 15.608708 5.7427 15.608708 5.364799C15.608708 4.983229 15.619715 4.891507 15.682087 4.777769C15.729783 4.686046 15.755466 4.56864 15.755466 4.42922C15.755466 4.25678 15.770142 4.212753 15.828844 4.179732C15.880209 4.15405 15.902223 4.102684 15.902223 4.018299C15.902223 3.94492 15.931575 3.871542 15.975602 3.831183C16.015961 3.794493 16.048981 3.717447 16.048981 3.662412C16.048981 3.596372 16.074663 3.545006 16.12236 3.519324C16.162718 3.497311 16.195738 3.442276 16.195738 3.398248C16.195738 3.354221 16.22876 3.295518 16.269117 3.269836C16.309475 3.244154 16.342495 3.200126 16.342495 3.170775C16.342495 3.141423 16.375517 3.101066 16.415874 3.079051C16.456232 3.057038 16.489252 3.009342 16.489252 2.968984C16.489252 2.928624 16.522274 2.880929 16.562632 2.858915C16.602989 2.836902 16.636011 2.796543 16.636011 2.767191C16.636011 2.73784 16.669031 2.693812 16.709389 2.66813C16.749746 2.642448 16.782768 2.605758 16.782768 2.587415C16.782768 2.550724 16.918518 2.418643 17.131317 2.246203C17.252392 2.147142 17.307425 2.125128 17.461521 2.125128C17.677988 2.128797 17.736691 2.165485 17.839422 2.367278C17.898125 2.484684 17.91647 2.580076 17.909132 2.789206C17.905462 3.027687 17.91647 3.08639 18.022867 3.288181C18.143944 3.522993 18.448465 3.849529 18.719967 4.040313C18.808022 4.102684 19.050171 4.216422 19.251963 4.297138C20.062796 4.608998 20.858955 5.093298 21.222181 5.485874C21.699142 6.006864 21.996326 6.825036 21.999994 7.628533C21.999994 8.347644 21.647778 9.297898 21.123119 9.98399C20.924997 10.248153 20.719538 10.339876 20.499401 10.266498C20.279264 10.196789 20.15819 10.090389 20.15819 9.969314C20.15819 9.91061 20.136175 9.818889 20.106825 9.763853C20.081142 9.708819 20.044453 9.543716 20.029778 9.396959C20.004093 9.136465 20.000425 9.129128 19.875681 9.077763C19.802303 9.04841 19.684896 9.022729 19.615187 9.022729C19.50145 9.022729 19.453754 9.05575 19.277645 9.231858C18.892406 9.628103 18.433788 10.409586 18.154949 11.150712C18.055889 11.414875 18.052219 11.451564 18.048552 12.08629C18.048552 12.717347 18.052219 12.754038 18.140274 12.937484C18.209984 13.084241 18.481485 13.381426 19.314333 14.221612C20.866295 15.788248 21.071754 16.01939 21.277216 16.415636C21.545048 16.943962 21.695475 17.439268 21.739502 17.956589C21.823887 18.947203 21.67346 19.787388 21.273546 20.53952C21.064417 20.935766 20.807592 21.251295 20.400339 21.610849C20.092148 21.886021 20.066465 21.900696 19.905033 21.900696C19.813309 21.900696 19.666552 21.867676 19.582167 21.827316C19.453754 21.768614 19.424402 21.739262 19.424402 21.658546C19.424402 21.603514 19.39872 21.530134 19.3657 21.493444C19.321672 21.445747 19.303328 21.324675 19.288651 21.049503C19.273975 20.744982 19.2593 20.656927 19.200598 20.594555C19.160238 20.550528 19.130888 20.466143 19.130888 20.389093C19.130888 20.308378 19.105206 20.238668 19.057508 20.194641C19.013481 20.154282 18.984131 20.080904 18.984131 20.007524C18.984131 19.92314 18.962116 19.868105 18.910751 19.838755C18.870394 19.813072 18.837372 19.75437 18.837372 19.710342C18.837372 19.666315 18.804352 19.611279 18.763994 19.589266C18.719967 19.567251 18.690615 19.512218 18.690615 19.460854C18.690615 19.409489 18.661264 19.354454 18.617237 19.332439C18.576878 19.310427 18.543858 19.266399 18.543858 19.22971C18.543858 19.19669 18.510838 19.145325 18.470478 19.119642C18.43012 19.09396 18.3971 19.05727 18.3971 19.035257C18.3971 18.994898 18.198978 18.782101 18.162289 18.782101C18.140276 18.782101 17.956827 18.602322 17.956827 18.576639C17.956827 18.558294 13.150521 13.755658 12.864344 13.487825C12.757944 13.392432 12.673559 13.304378 12.673559 13.293371C12.673559 13.267689 12.314004 12.911801 12.291989 12.911801C12.280983 12.911801 12.020489 12.662313 11.715966 12.361462C11.411445 12.056939 11.15095 11.811121 11.139944 11.811121C11.125268 11.811121 11.055557 11.745079 10.985847 11.664363C10.916139 11.583647 10.83909 11.517606 10.817078 11.517606C10.795063 11.517606 10.740029 11.477247 10.692333 11.425881L10.607947 11.337828L10.266736 11.785439C9.84114 12.339447 9.73474 12.541239 9.624673 12.98518C9.551294 13.282365 9.540288 13.425452 9.540288 13.939104C9.540288 14.496782 9.547625 14.566491 9.635679 14.804973C9.687045 14.948061 9.793443 15.153522 9.866822 15.259921C10.006242 15.458043 10.897794 16.569733 11.426121 17.204458C11.756326 17.600702 11.991138 18.018961 12.167246 18.525276C12.284653 18.862818 12.28832 18.89217 12.28832 19.460854C12.28832 19.835085 12.269977 20.117594 12.236956 20.242336C12.163577 20.535851 11.811359 21.218275 11.679277 21.328342C11.636815 21.364738 11.605586 21.394815 11.570616 21.419621C11.404673 21.537329 11.15449 21.53627 9.219773 21.528088C9.096348 21.527567 8.966066 21.527016 8.828513 21.526464L6.300615 21.515459L6.186879 21.40539C6.080479 21.306328 6.069473 21.276978 6.069473 21.071516C6.069473 20.873396 6.080479 20.844042 6.172203 20.774332C6.333636 20.653259 6.586793 20.54319 6.69686 20.54319C6.751896 20.54319 6.810599 20.528515 6.821605 20.506502C6.832612 20.484488 6.87297 20.46981 6.90599 20.46981C6.983038 20.46981 7.243533 20.290033 7.243533 20.234999C7.243533 20.212986 7.272884 20.176296 7.313242 20.150614C7.467338 20.055222 7.474675 19.200357 7.32058 19.02425C7.280222 18.980223 7.258208 18.866486 7.247202 18.672033C7.239863 18.444557 7.221519 18.36751 7.166484 18.319813C7.122457 18.279455 7.096775 18.209745 7.096775 18.121691C7.096775 18.033638 7.071093 17.963928 7.023396 17.919901C6.972032 17.875874 6.950017 17.806162 6.950017 17.703434C6.950017 17.615379 6.920666 17.50898 6.876639 17.442938C6.817936 17.351215 6.80326 17.270498 6.80326 16.965977C6.80326 16.668793 6.788584 16.5734 6.729881 16.459663C6.663841 16.338589 6.656503 16.254202 6.656503 15.674511C6.660172 15.168198 6.671178 14.98842 6.718875 14.874682C6.748226 14.793966 6.784915 14.617858 6.799591 14.485776C6.814267 14.331679 6.847287 14.214273 6.887645 14.170246C6.924335 14.126219 6.950017 14.038165 6.950017 13.946443C6.950017 13.832705 6.968363 13.785007 7.023396 13.755658C7.07843 13.726306 7.096775 13.67861 7.096775 13.575879C7.096775 13.484156 7.122457 13.414446 7.170154 13.370419C7.210512 13.333729 7.243533 13.267689 7.243533 13.223661C7.243533 13.179634 7.276553 13.113593 7.316911 13.076904C7.357269 13.040214 7.39029 12.970505 7.39029 12.926477C7.39029 12.87878 7.423311 12.820078 7.463669 12.794395C7.504026 12.768713 7.537047 12.728354 7.537047 12.702672C7.537047 12.67699 7.570068 12.6403 7.610426 12.618286C7.650784 12.596272 7.683805 12.555914 7.683805 12.526563C7.683805 12.497211 7.716825 12.453184 7.757184 12.427502C7.797542 12.40182 7.830562 12.343117 7.830562 12.299089C7.830562 12.27159 7.84032 12.24653 7.857021 12.227425C7.626959 12.213753 7.029383 12.197173 6.355649 12.185353C4.899082 12.163339 4.822034 12.159669 4.598228 12.078954C4.341404 11.990899 4.011199 11.759756 4.007529 11.671701C4.007529 11.64235 3.97451 11.594654 3.934151 11.568972C3.893793 11.543287 3.860772 11.484585 3.860772 11.433221C3.860772 11.381854 3.83142 11.326821 3.787393 11.304808C3.717684 11.268118 3.714015 11.22776 3.714015 10.703102C3.714015 10.193119 3.721353 10.134416 3.787393 10.057369C3.827753 10.009673 3.860772 9.921618 3.860772 9.851909C3.860772 9.767523 3.882787 9.716158 3.934151 9.690475C3.981847 9.664792 4.007529 9.613428 4.007529 9.543718C4.007529 9.474008 4.033213 9.422643 4.080908 9.396961C4.121268 9.374947 4.154287 9.334589 4.154287 9.305237C4.154287 9.275886 4.187308 9.231858 4.227666 9.206176C4.268025 9.180492 4.301044 9.143804 4.301044 9.12179C4.301044 9.04841 4.517513 8.883309 4.656932 8.853958C4.73398 8.835613 4.825704 8.835613 4.858723 8.853958C4.924765 8.886977 4.935771 8.923668 4.979798 9.180492C5.001812 9.32725 5.104543 9.481346 5.229286 9.554725C5.287989 9.584076 5.669558 9.60609 6.557442 9.624434C8.509316 9.661124 8.817507 9.730834 9.320149 10.233479L9.554962 10.46829L9.20818 10.80301C9.230178 10.789045 9.257277 10.774598 9.28713 10.761804C9.444895 10.684757 9.66503 10.471958 9.66503 10.39858C9.66503 10.369228 9.595322 10.281174 9.514604 10.207795C9.430219 10.130747 9.320151 10.020679 9.265116 9.961976C9.213752 9.903274 9.000953 9.686807 8.795492 9.477676C8.586364 9.268547 8.417592 9.092438 8.417592 9.081431C8.417592 9.074093 8.28551 8.934674 8.124077 8.769571C7.962644 8.608138 7.830562 8.461381 7.830562 8.450375C7.830562 8.424692 7.621432 8.215563 7.59575 8.215563C7.562729 8.215563 7.39029 8.032117 7.39029 7.995426C7.39029 7.977081 7.357269 7.944062 7.316911 7.922048C7.276553 7.900033 7.243533 7.852338 7.243533 7.81198C7.243533 7.771621 7.210512 7.723926 7.170154 7.701911C7.129796 7.679897 7.096775 7.624863 7.096775 7.580836C7.096775 7.536809 7.063754 7.478106 7.023396 7.452424C6.979369 7.426742 6.950017 7.368039 6.950017 7.301997C6.950017 7.246963 6.916996 7.169915 6.876639 7.133226C6.836281 7.096537 6.80326 7.019488 6.80326 6.960785C6.80326 6.898415 6.770239 6.81036 6.729881 6.758994C6.678517 6.692954 6.656503 6.608567 6.656503 6.487494C6.656503 6.377425 6.627151 6.252682 6.583124 6.171964C6.524421 6.058228 6.509745 5.966504 6.509745 5.665652C6.513414 5.43084 6.531759 5.247392 6.568448 5.152001C6.5978 5.071283 6.63449 4.854816 6.645496 4.667701C6.660172 4.399868 6.682185 4.315483 6.733551 4.267787C6.773909 4.231096 6.80326 4.15405 6.80326 4.080671C6.80326 4.003623 6.828942 3.933914 6.876639 3.897224C6.916996 3.860535 6.950017 3.790824 6.950017 3.73579C6.950017 3.684426 6.983038 3.611047 7.023396 3.574357C7.063754 3.537669 7.096775 3.478966 7.096775 3.445945C7.096775 3.412924 7.129796 3.354221 7.170154 3.317532C7.210512 3.280842 7.243533 3.222139 7.243533 3.185451C7.243533 3.148761 7.276553 3.101064 7.316911 3.079051C7.357269 3.057037 7.39029 3.016679 7.39029 2.987327C7.39029 2.957976 7.423311 2.913949 7.463669 2.888266C7.504026 2.862584 7.537047 2.818557 7.537047 2.789206C7.537047 2.763523 7.603089 2.675469 7.683805 2.598421C7.764521 2.517704 7.830562 2.444325 7.830562 2.433318C7.830562 2.378285 8.098395 2.161818 8.190119 2.139803C8.245152 2.128797 8.307525 2.114121 8.325869 2.103115ZM5.354031 16.177156C5.460428 16.129459 5.684234 16.133129 5.794303 16.184494C5.897033 16.232189 5.893364 16.221184 5.977749 16.74584C6.040121 17.134747 6.227237 17.883211 6.377663 18.363842C6.429029 18.521606 6.473056 18.683039 6.473056 18.716061C6.473056 18.778431 6.348312 18.782101 4.345073 18.782101C2.506936 18.782101 2.198745 18.774761 2.107021 18.727066C1.985946 18.664694 1.967601 18.594984 2.051987 18.525276C2.081339 18.499592 2.107021 18.433552 2.107021 18.378517C2.107021 18.323483 2.140042 18.250105 2.1804 18.213415C2.231766 18.165718 2.253778 18.099678 2.253778 17.993279C2.253778 17.886879 2.275791 17.820839 2.327157 17.773144C2.374854 17.732784 2.400536 17.659405 2.400536 17.582359C2.400536 17.50898 2.433557 17.413586 2.473915 17.362223C2.517942 17.307186 2.547293 17.211796 2.547293 17.131079C2.547293 17.043026 2.572976 16.973314 2.620672 16.929287C2.675706 16.881592 2.694051 16.81555 2.694051 16.690807C2.694051 16.566063 2.712396 16.500021 2.76743 16.452326C2.807788 16.415636 2.840808 16.364271 2.840808 16.338587C2.840808 16.228519 2.994903 16.213844 4.132274 16.210175C4.763331 16.210175 5.313671 16.195499 5.354031 16.177156ZM9.151359 10.857856 9.133035 10.875542C9.11639 10.891896 9.100118 10.907949 9.084192 10.923727C9.123653 10.897801 9.150498 10.871387 9.151359 10.857856Z"/></svg>
