<svg xmlns="http://www.w3.org/2000/svg" width="24" height="24" viewBox="0 0 24 24"><path d="M8.378906 5.001563C8.367188 5.008594 8.327344 5.017969 8.292188 5.025C8.233594 5.039063 8.0625 5.177344 8.0625 5.2125C8.0625 5.219531 8.020312 5.266406 7.96875 5.317969C7.917188 5.367188 7.875 5.423438 7.875 5.439844C7.875 5.458594 7.853906 5.486719 7.828125 5.503125C7.802344 5.519531 7.78125 5.547656 7.78125 5.566406C7.78125 5.585156 7.760156 5.610937 7.734375 5.625C7.708594 5.639062 7.6875 5.669531 7.6875 5.692969C7.6875 5.716406 7.666406 5.753906 7.640625 5.777344C7.614844 5.800781 7.59375 5.838281 7.59375 5.859375C7.59375 5.880469 7.572656 5.917969 7.546875 5.941406C7.521094 5.964844 7.5 6.011719 7.5 6.044531C7.5 6.079687 7.478906 6.124219 7.453125 6.147656C7.422656 6.171094 7.40625 6.215625 7.40625 6.264844C7.40625 6.311719 7.3875 6.360937 7.361719 6.384375C7.328906 6.414844 7.314844 6.46875 7.305469 6.639844C7.298438 6.759375 7.275 6.897656 7.25625 6.949219C7.232813 7.010156 7.221094 7.127344 7.21875 7.277344C7.21875 7.469531 7.228125 7.528125 7.265625 7.600781C7.29375 7.652344 7.3125 7.732031 7.3125 7.802344C7.3125 7.879687 7.326563 7.933594 7.359375 7.975781C7.385156 8.008594 7.40625 8.064844 7.40625 8.104687C7.40625 8.142187 7.427344 8.191406 7.453125 8.214844C7.478906 8.238281 7.5 8.2875 7.5 8.322656C7.5 8.364844 7.51875 8.402344 7.546875 8.41875C7.572656 8.435156 7.59375 8.472656 7.59375 8.500781C7.59375 8.528906 7.614844 8.564062 7.640625 8.578125C7.666406 8.592188 7.6875 8.622656 7.6875 8.648438C7.6875 8.674219 7.708594 8.704687 7.734375 8.71875C7.760156 8.732813 7.78125 8.753906 7.78125 8.765625C7.78125 8.789063 7.891406 8.90625 7.9125 8.90625C7.928906 8.90625 8.0625 9.039844 8.0625 9.05625C8.0625 9.063281 8.146875 9.157031 8.25 9.260156C8.353125 9.365625 8.4375 9.454687 8.4375 9.459375C8.4375 9.466406 8.545313 9.578906 8.678906 9.7125C8.810156 9.846094 8.946094 9.984375 8.978906 10.021875C9.014063 10.059375 9.084375 10.129687 9.138281 10.178906C9.189844 10.225781 9.234375 10.282031 9.234375 10.300781C9.234375 10.347656 9.09375 10.483594 8.992969 10.532812C8.94375 10.553906 8.90625 10.582031 8.90625 10.59375C8.90625 10.605469 8.873438 10.633594 8.83125 10.654687C8.75625 10.692187 8.625 10.811719 8.625 10.8375C8.625 10.846875 8.561719 10.9125 8.484375 10.9875C8.407031 11.0625 8.34375 11.1375 8.34375 11.151562C8.34375 11.165625 8.322656 11.189062 8.296875 11.203125C8.271094 11.217187 8.25 11.242969 8.25 11.261719C8.25 11.280469 8.228906 11.308594 8.203125 11.325C8.177344 11.341406 8.15625 11.371875 8.15625 11.395312C8.15625 11.416406 8.135156 11.442187 8.109375 11.449219C8.08125 11.458594 8.0625 11.484375 8.0625 11.514844C8.0625 11.542969 8.041406 11.580469 8.015625 11.596875C7.989844 11.613281 7.96875 11.641406 7.96875 11.660156C7.96875 11.678906 7.947656 11.704687 7.921875 11.71875C7.896094 11.732812 7.875 11.75625 7.875 11.772656C7.875 11.789062 7.853906 11.814844 7.828125 11.83125C7.802344 11.847656 7.78125 11.885156 7.78125 11.915625C7.78125 11.94375 7.760156 11.988281 7.734375 12.011719C7.708594 12.035156 7.6875 12.077344 7.6875 12.105469C7.6875 12.133594 7.666406 12.175781 7.640625 12.199219C7.610156 12.227344 7.59375 12.271875 7.59375 12.330469C7.59375 12.396094 7.582031 12.426563 7.546875 12.445313C7.511719 12.464062 7.5 12.494531 7.5 12.567188C7.5 12.625781 7.483594 12.682031 7.460156 12.710156C7.434375 12.738281 7.413281 12.813281 7.403906 12.911719C7.394531 12.996094 7.371094 13.108594 7.352344 13.160156C7.321875 13.232813 7.314844 13.347656 7.3125 13.671094C7.3125 14.041406 7.317188 14.095313 7.359375 14.172656C7.396875 14.245313 7.40625 14.30625 7.40625 14.496094C7.40625 14.690625 7.415625 14.742188 7.453125 14.800781C7.48125 14.842969 7.5 14.910938 7.5 14.967188C7.5 15.032812 7.514063 15.077344 7.546875 15.105469C7.577344 15.133594 7.59375 15.178125 7.59375 15.234375C7.59375 15.290625 7.610156 15.335156 7.638281 15.360937C7.673438 15.391406 7.685156 15.440625 7.689844 15.585938C7.696875 15.710156 7.710938 15.782812 7.736719 15.810938C7.835156 15.923437 7.830469 16.469531 7.732031 16.530469C7.70625 16.546875 7.6875 16.570313 7.6875 16.584375C7.6875 16.619531 7.521094 16.734375 7.471875 16.734375C7.450781 16.734375 7.425 16.74375 7.417969 16.757813C7.410938 16.771875 7.373438 16.78125 7.338281 16.78125C7.267969 16.78125 7.10625 16.851563 7.003125 16.928906C6.944531 16.973437 6.9375 16.992188 6.9375 17.11875C6.9375 17.25 6.944531 17.26875 7.0125 17.332031L7.085156 17.402344L8.7 17.409375C10.455469 17.416406 10.357031 17.423437 10.521094 17.282812C10.605469 17.2125 10.830469 16.776562 10.877344 16.589062C10.898438 16.509375 10.910156 16.328906 10.910156 16.089844C10.910156 15.726563 10.907813 15.707813 10.832813 15.492188C10.720313 15.16875 10.570313 14.901562 10.359375 14.648438C10.021875 14.242969 9.452344 13.532812 9.363281 13.40625C9.316406 13.338281 9.248438 13.207031 9.215625 13.115625C9.159375 12.963281 9.154688 12.91875 9.154688 12.5625C9.154688 12.234375 9.161719 12.142969 9.208594 11.953125C9.278906 11.669531 9.346875 11.540625 9.61875 11.186719L9.836719 10.900781L9.890625 10.957031C9.921094 10.989844 9.95625 11.015625 9.970313 11.015625C9.984375 11.015625 10.033594 11.057813 10.078125 11.109375C10.122656 11.160937 10.167188 11.203125 10.176563 11.203125C10.183594 11.203125 10.35 11.360156 10.544531 11.554688C10.739063 11.746875 10.905469 11.90625 10.9125 11.90625C10.926563 11.90625 11.15625 12.133594 11.15625 12.15C11.15625 12.157031 11.210156 12.213281 11.278125 12.274219C11.460938 12.445313 14.53125 15.513281 14.53125 15.525C14.53125 15.541406 14.648438 15.65625 14.6625 15.65625C14.685938 15.65625 14.8125 15.792187 14.8125 15.817969C14.8125 15.832031 14.833594 15.855469 14.859375 15.871875C14.885156 15.888281 14.90625 15.921094 14.90625 15.942187C14.90625 15.965625 14.927344 15.99375 14.953125 16.007812C14.98125 16.021875 15 16.057031 15 16.089844C15 16.122656 15.01875 16.157812 15.046875 16.171875C15.072656 16.185937 15.09375 16.221094 15.09375 16.249219C15.09375 16.277344 15.114844 16.314844 15.140625 16.33125C15.173437 16.35 15.1875 16.385156 15.1875 16.439062C15.1875 16.485937 15.20625 16.532812 15.234375 16.558594C15.264844 16.586719 15.28125 16.63125 15.28125 16.682812C15.28125 16.732031 15.3 16.785937 15.325781 16.814062C15.363281 16.853906 15.372656 16.910156 15.382031 17.104687C15.391406 17.280469 15.403125 17.357812 15.43125 17.388281C15.452344 17.411719 15.46875 17.458594 15.46875 17.49375C15.46875 17.545312 15.4875 17.564062 15.569531 17.601562C15.623437 17.627344 15.717187 17.648437 15.775781 17.648437C15.878906 17.648437 15.895312 17.639062 16.092187 17.463281C16.352344 17.233594 16.516406 17.032031 16.65 16.778906C16.905469 16.298437 17.001562 15.761719 16.947656 15.128906C16.919531 14.798437 16.823437 14.482031 16.652344 14.144531C16.521094 13.891406 16.389844 13.74375 15.398437 12.742969C14.866406 12.20625 14.692969 12.016406 14.648437 11.922656C14.592187 11.805469 14.589844 11.782031 14.589844 11.378906C14.592187 10.973437 14.594531 10.95 14.657812 10.78125C14.835937 10.307812 15.128906 9.808594 15.375 9.555469C15.4875 9.442969 15.517969 9.421875 15.590625 9.421875C15.635156 9.421875 15.710156 9.438281 15.757031 9.457031C15.836719 9.489844 15.839062 9.494531 15.855469 9.660937C15.864844 9.754687 15.888281 9.860156 15.904688 9.895312C15.923437 9.930469 15.9375 9.989062 15.9375 10.026562C15.9375 10.103906 16.014844 10.171875 16.155469 10.216406C16.296094 10.263281 16.427344 10.204687 16.553906 10.035937C16.889062 9.597656 17.114062 8.990625 17.114062 8.53125C17.111719 8.017969 16.921875 7.495313 16.617187 7.1625C16.385156 6.911719 15.876562 6.602344 15.358594 6.403125C15.229687 6.351563 15.075 6.278906 15.01875 6.239063C14.845312 6.117188 14.650781 5.908594 14.573437 5.758594C14.505469 5.629688 14.498437 5.592188 14.500781 5.439844C14.505469 5.30625 14.49375 5.245313 14.45625 5.170313C14.390625 5.041406 14.353125 5.017969 14.214844 5.015625C14.116406 5.015625 14.08125 5.029688 14.003906 5.092969C13.867969 5.203125 13.78125 5.2875 13.78125 5.310938C13.78125 5.322656 13.760156 5.346094 13.734375 5.3625C13.708594 5.378906 13.6875 5.407031 13.6875 5.425781C13.6875 5.444531 13.666406 5.470313 13.640625 5.484375C13.614844 5.498438 13.59375 5.528906 13.59375 5.554688C13.59375 5.580469 13.572656 5.610938 13.546875 5.625C13.521094 5.639063 13.5 5.664844 13.5 5.683594C13.5 5.702344 13.478906 5.730469 13.453125 5.746875C13.427344 5.763281 13.40625 5.800781 13.40625 5.828906C13.40625 5.857031 13.385156 5.892188 13.359375 5.90625C13.328906 5.922656 13.3125 5.955469 13.3125 5.997656C13.3125 6.032813 13.291406 6.082031 13.265625 6.105469C13.2375 6.13125 13.21875 6.178125 13.21875 6.225C13.21875 6.278906 13.204687 6.311719 13.171875 6.328125C13.134375 6.349219 13.125 6.377344 13.125 6.4875C13.125 6.576563 13.108594 6.651563 13.078125 6.710156C13.038281 6.782813 13.03125 6.841406 13.03125 7.085156C13.03125 7.326563 13.038281 7.385156 13.078125 7.460156C13.103906 7.507031 13.125 7.577344 13.125 7.617188C13.125 7.661719 13.141406 7.696875 13.171875 7.715625C13.197656 7.732031 13.21875 7.769531 13.21875 7.797656C13.21875 7.825781 13.239844 7.860938 13.265625 7.875C13.291406 7.889063 13.3125 7.919531 13.3125 7.945313C13.3125 7.971094 13.333594 8.001563 13.359375 8.015625C13.385156 8.029688 13.40625 8.055469 13.40625 8.074219C13.40625 8.092969 13.427344 8.11875 13.453125 8.132813C13.478906 8.146875 13.5 8.167969 13.5 8.179688C13.5 8.221875 13.671094 8.390625 13.804687 8.482031C13.992187 8.610938 14.301562 8.772656 14.547656 8.871094C14.7 8.932031 14.767969 8.971875 14.779687 9.004688C14.789062 9.0375 14.782031 9.060938 14.75625 9.075C14.735156 9.086719 14.71875 9.107813 14.71875 9.124219C14.71875 9.140625 14.676562 9.189844 14.625 9.234375C14.573437 9.278906 14.53125 9.328125 14.53125 9.339844C14.53125 9.353906 14.510156 9.377344 14.484375 9.39375C14.458594 9.410156 14.4375 9.442969 14.4375 9.46875C14.4375 9.492188 14.416406 9.525 14.390625 9.539063C14.3625 9.553125 14.34375 9.588281 14.34375 9.621094C14.34375 9.653906 14.325 9.689063 14.296875 9.703125C14.26875 9.717188 14.25 9.752344 14.25 9.785156C14.25 9.817969 14.228906 9.855469 14.203125 9.871875C14.177344 9.888281 14.15625 9.928125 14.15625 9.960938C14.15625 9.99375 14.135156 10.033594 14.109375 10.05C14.08125 10.066406 14.0625 10.103906 14.0625 10.146094C14.0625 10.18125 14.041406 10.230469 14.015625 10.253906C13.989844 10.277344 13.96875 10.324219 13.96875 10.359375C13.96875 10.394531 13.947656 10.441406 13.921875 10.464844C13.891406 10.492969 13.875 10.5375 13.875 10.591406C13.875 10.664063 13.825781 10.795313 13.753125 10.921875C13.741406 10.940625 13.727344 10.975781 13.720312 10.996875C13.708594 11.032031 13.682812 11.020313 13.563281 10.914844C13.485937 10.849219 13.373437 10.741406 13.314844 10.678125C13.25625 10.614844 12.480469 9.834375 11.589844 8.94375C10.701562 8.053125 9.796875 7.14375 9.583594 6.925781C9.173437 6.501563 9.161719 6.485156 8.946094 5.988281C8.882812 5.842969 8.8125 5.489063 8.8125 5.313281C8.8125 5.128125 8.714062 5.025 8.519531 5.00625C8.45625 4.999219 8.392969 4.996875 8.378906 5.001563ZM6.035156 9.314063C5.946094 9.332813 5.807812 9.438281 5.807812 9.485156C5.807812 9.499219 5.786719 9.522656 5.760937 9.539063C5.735156 9.555469 5.714062 9.583594 5.714062 9.602344C5.714062 9.621094 5.692969 9.646875 5.667187 9.660938C5.636719 9.677344 5.620312 9.710156 5.620312 9.754688C5.620312 9.799219 5.603906 9.832031 5.573437 9.848438C5.540625 9.864844 5.526562 9.897656 5.526562 9.951563C5.526562 9.996094 5.505469 10.052344 5.479687 10.082813C5.4375 10.132031 5.432812 10.169531 5.432812 10.495313C5.432812 10.830469 5.435156 10.85625 5.479687 10.879688C5.507812 10.89375 5.526562 10.928906 5.526562 10.961719C5.526562 10.994531 5.547656 11.032031 5.573437 11.048438C5.599219 11.064844 5.620312 11.095313 5.620312 11.114063C5.622656 11.170313 5.833594 11.317969 5.997656 11.374219C6.140625 11.425781 6.189844 11.428125 7.120312 11.442188C7.654687 11.451563 8.114062 11.465625 8.142187 11.475C8.182031 11.489063 8.207812 11.465625 8.303906 11.320313C8.507812 11.010938 8.625 10.870313 8.894531 10.605469L9.164062 10.345313L9.014062 10.195313C8.692969 9.874219 8.496094 9.829688 7.249219 9.80625C6.682031 9.794531 6.438281 9.780469 6.400781 9.761719C6.321094 9.714844 6.255469 9.616406 6.241406 9.522656C6.213281 9.358594 6.20625 9.335156 6.164062 9.314063C6.142969 9.302344 6.084375 9.302344 6.035156 9.314063ZM6.480469 13.992188C6.454687 14.003906 6.103125 14.013281 5.7 14.013281C4.973437 14.015625 4.875 14.025 4.875 14.095312C4.875 14.111719 4.853906 14.144531 4.828125 14.167969C4.792969 14.198437 4.78125 14.240625 4.78125 14.320313C4.78125 14.4 4.769531 14.442188 4.734375 14.472656C4.703906 14.500781 4.6875 14.545313 4.6875 14.601563C4.6875 14.653125 4.66875 14.714062 4.640625 14.749219C4.614844 14.782031 4.59375 14.842969 4.59375 14.889844C4.59375 14.939062 4.577344 14.985937 4.546875 15.011719C4.514062 15.042187 4.5 15.084375 4.5 15.152344C4.5 15.220312 4.485938 15.2625 4.453125 15.292969C4.427344 15.316406 4.40625 15.363281 4.40625 15.398438C4.40625 15.433594 4.389844 15.475781 4.371094 15.492188C4.317187 15.536719 4.328906 15.58125 4.40625 15.621094C4.464844 15.651562 4.661719 15.65625 5.835938 15.65625C7.115625 15.65625 7.195313 15.653906 7.195313 15.614063C7.195313 15.592969 7.167188 15.489844 7.134375 15.389063C7.038281 15.082031 6.91875 14.603906 6.878906 14.355469C6.825 14.020313 6.827344 14.027344 6.761719 13.996875C6.691406 13.964063 6.548437 13.961719 6.480469 13.992188Z"/></svg>
