<svg xmlns="http://www.w3.org/2000/svg" width="24" height="24" viewBox="0 0 24 24"><path fill-rule="evenodd" d="M17.5 2C18.88 2 20 3.12 20 4.5L20 19.5C20 20.879999 18.88 21.999999 17.5 21.999999L4.250667 21.999999C3.833333 21.999999 3.5 21.666666 3.5 21.250666C3.5 20.833333 3.833333 20.499999 4.250667 20.499999L17.5 20.499999C18.052 20.499999 18.5 20.051999 18.5 19.5L4.250667 19.5C3.833333 19.5 3.5 19.166666 3.5 18.749333L3.5 4.5C3.5 3.12 4.62 2 6 2ZM4.584 14.073333L4.584 8.349333L6.437333 8.349333C7.14 8.349333 7.598666 8.374666 7.812 8.432C8.14 8.521333 8.416 8.708 8.636 8.994666C8.86 9.281333 8.969333 9.650666 8.969333 10.109333C8.969333 10.458666 8.906666 10.754666 8.776 10.994666C8.650666 11.234666 8.489333 11.421333 8.292 11.562666C8.093333 11.697333 7.896 11.786666 7.693333 11.833333C7.416 11.885333 7.016 11.912 6.494667 11.912L5.74 11.912L5.74 14.073333ZM5.74 9.317333L5.74 10.942666L6.369333 10.942666C6.828 10.942666 7.130666 10.912 7.286666 10.854666C7.437333 10.792 7.557333 10.697333 7.645333 10.573333C7.734666 10.442666 7.776 10.292 7.776 10.125333C7.776 9.917333 7.713333 9.745333 7.593333 9.609333C7.469333 9.473333 7.317333 9.390666 7.130666 9.354666C6.989333 9.328 6.713333 9.317333 6.297333 9.317333ZM9.917333 8.349333L12.026666 8.349333C12.505333 8.349333 12.869333 8.385333 13.12 8.458666C13.453333 8.557333 13.74 8.734666 13.978666 8.984C14.218666 9.24 14.401333 9.546666 14.526666 9.917333C14.650666 10.281333 14.713333 10.729333 14.713333 11.265333C14.713333 11.734666 14.656 12.14 14.541333 12.484C14.396 12.901333 14.193333 13.24 13.926666 13.494666C13.724 13.693333 13.453333 13.844 13.114666 13.953333C12.86 14.036 12.516 14.073333 12.088 14.073333L9.917333 14.073333ZM11.073333 9.317333L11.073333 13.109333L11.932 13.109333C12.254666 13.109333 12.489333 13.088 12.636 13.052C12.822666 13.005333 12.973333 12.926666 13.098666 12.817333C13.224 12.702666 13.322666 12.521333 13.401333 12.265333C13.478666 12.005333 13.521333 11.656 13.521333 11.213333C13.521333 10.770666 13.478666 10.432 13.401333 10.193333C13.322666 9.958666 13.213333 9.776 13.073333 9.64C12.932 9.510666 12.754666 9.416 12.541333 9.369333C12.38 9.333333 12.062666 9.317333 11.588 9.317333ZM15.702666 14.073333L15.702666 8.349333L19.630666 8.349333L19.630666 9.317333L16.86 9.317333L16.86 10.672L19.250666 10.672L19.250666 11.64L16.86 11.64L16.86 14.073333Z"/></svg>
