<svg xmlns="http://www.w3.org/2000/svg" width="24" height="24" viewBox="0 0 24 24"><path d="M20 4.5C20 3.12 18.88 2 17.5 2L6 2C4.62 2 3.5 3.12 3.5 4.5L3.5 18.749333C3.5 19.166666 3.833333 19.5 4.250667 19.5L18.5 19.5C18.5 20.051999 18.052 20.499999 17.5 20.499999L4.250667 20.499999C3.833333 20.499999 3.5 20.833333 3.5 21.250666C3.5 21.666666 3.833333 21.999999 4.250667 21.999999L17.5 21.999999C18.88 21.999999 20 20.879999 20 19.5ZM18.5 18L5 18L5 4.5C5 3.948 5.448 3.5 6 3.5L17.5 3.5C18.052 3.5 18.5 3.948 18.5 4.5Z"/><path d="M5.973333 13.688L5.973333 9.030666L7.478666 9.030666C8.052 9.030666 8.421333 9.057333 8.598666 9.104C8.864 9.172 9.088 9.322666 9.265333 9.557333C9.448 9.792 9.536 10.093333 9.536 10.464C9.536 10.749333 9.484 10.989333 9.38 11.182666C9.276 11.38 9.145333 11.530666 8.984 11.645333C8.828 11.754666 8.666666 11.828 8.5 11.864C8.276 11.906666 7.948 11.932 7.526666 11.932L6.912 11.932L6.912 13.688ZM6.912 9.817333L6.912 11.14L7.426666 11.14C7.797333 11.14 8.046666 11.114666 8.166666 11.068C8.292 11.016 8.390666 10.942666 8.464 10.838666C8.530666 10.734666 8.568 10.614666 8.568 10.473333C8.568 10.306666 8.521333 10.166666 8.421333 10.057333C8.322666 9.948 8.193333 9.88 8.041333 9.849333C7.932 9.828 7.702666 9.817333 7.364 9.817333ZM10.306666 9.030666L12.021333 9.030666C12.412 9.030666 12.702666 9.062666 12.906666 9.12C13.182666 9.202666 13.416 9.344 13.609333 9.552C13.802666 9.754666 13.953333 10.005333 14.052 10.306666C14.156 10.598666 14.208 10.969333 14.208 11.401333C14.208 11.786666 14.156 12.114666 14.062666 12.396C13.948 12.734666 13.781333 13.005333 13.562666 13.213333C13.401333 13.374666 13.182666 13.5 12.906666 13.588C12.697333 13.650666 12.421333 13.688 12.073333 13.688L10.306666 13.688ZM11.245333 9.817333L11.245333 12.901333L11.948 12.901333C12.208 12.901333 12.396 12.885333 12.516 12.86C12.666666 12.817333 12.792 12.754666 12.890666 12.661333C12.994666 12.573333 13.078666 12.421333 13.14 12.213333C13.202666 12.005333 13.234666 11.724 13.234666 11.364C13.234666 11 13.202666 10.724 13.14 10.530666C13.078666 10.344 12.989333 10.193333 12.874666 10.082666C12.76 9.973333 12.614666 9.901333 12.437333 9.864C12.306666 9.833333 12.052 9.817333 11.666666 9.817333ZM15.010666 13.688L15.010666 9.030666L18.197333 9.030666L18.197333 9.817333L15.948 9.817333L15.948 10.921333L17.890666 10.921333L17.890666 11.708L15.948 11.708L15.948 13.688Z"/></svg>
