<svg xmlns="http://www.w3.org/2000/svg" width="24" height="24" viewBox="0 0 24 24"><path d="M5.205464 4.444413C4.97401 4.550332 4.919089 4.699404 4.919089 5.221156C4.919089 5.476147 4.90732 5.684064 4.891629 5.687986C4.872014 5.687986 4.628792 5.691909 4.350262 5.695831C3.934431 5.703678 3.816742 5.715447 3.730437 5.774291C3.526445 5.90767 3.487215 6.01359 3.471524 6.511804L3.459755 6.970788L3.020385 6.98648C2.541786 7.006095 2.380946 7.061016 2.263258 7.241472C2.196567 7.343468 2.192645 7.688687 2.192645 13.357338C2.192645 19.877268 2.180876 19.484973 2.404483 19.637969C2.498633 19.704658 2.769317 19.708581 6.602031 19.72035L10.697583 19.728196L10.846655 19.849808C11.125184 20.069492 11.352715 20.120491 12.050998 20.120491C12.764973 20.120491 12.968967 20.077338 13.247495 19.865499L13.424028 19.728196L17.499965 19.72035C21.348371 19.708581 21.579825 19.704658 21.701437 19.637969C21.96035 19.496742 21.944659 19.896883 21.944659 13.349492C21.944659 7.927986 21.940736 7.390543 21.881891 7.268932C21.764204 7.021786 21.689668 7.006095 20.701086 6.978635C20.661857 6.978635 20.650088 6.864868 20.650088 6.543188C20.650088 6.060666 20.603012 5.895901 20.422557 5.774291C20.336252 5.715447 20.22641 5.703678 19.79881 5.699755C19.516357 5.695831 19.265289 5.68014 19.241752 5.664448C19.214291 5.648757 19.1986 5.472224 19.1986 5.201541C19.1986 4.47972 19.09268 4.389492 18.268862 4.389492C16.754606 4.389492 15.267811 4.624868 14.353765 5.005394C13.914396 5.189773 13.431874 5.444763 13.169037 5.633064C12.82774 5.876287 12.407986 6.276427 12.270683 6.48042C12.082382 6.766796 12.070613 6.766796 11.882312 6.515727C11.242872 5.65268 9.971839 4.938704 8.555657 4.644483C7.822066 4.495412 7.182627 4.428722 6.21366 4.405184C5.483993 4.389492 5.30746 4.397338 5.205464 4.444413M7.58669 5.154466C9.603082 5.460456 10.956497 6.197969 11.533169 7.296392L11.725394 7.665149L11.737163 12.804204C11.741086 15.628722 11.737163 17.966796 11.725394 17.994256C11.713625 18.029563 11.607705 17.947181 11.423328 17.747111C11.270332 17.582347 11.046725 17.370508 10.925114 17.28028C10.6662 17.084134 10.034606 16.70753 9.76 16.58592C9.293169 16.381926 8.410508 16.115167 7.939755 16.036707C7.31993 15.930788 7.112014 15.911173 6.390192 15.887635L5.605604 15.864099L5.593835 10.454361L5.58599 5.044623L6.378424 5.068161C6.817794 5.083853 7.359159 5.123082 7.58669 5.154466M18.508161 5.091699C18.523853 5.115237 18.543468 14.051699 18.531699 15.828792C18.531699 15.856252 18.280631 15.87979 17.778494 15.895482C16.61338 15.934711 15.989633 16.040631 15.004973 16.358389C14.44007 16.538845 13.949703 16.774221 13.475027 17.088056C13.121961 17.323433 12.655132 17.743188 12.568827 17.904028C12.541367 17.955027 12.486445 18.006025 12.447216 18.01387C12.37268 18.033485 12.37268 17.904028 12.37268 13.008196C12.376602 9.006796 12.384449 7.931909 12.4276 7.739685C12.588441 6.994326 13.216112 6.323503 14.236077 5.81352C14.961821 5.448687 15.94648 5.193695 17.001752 5.099544C17.484274 5.05247 18.484624 5.048546 18.508161 5.091699M4.919089 11.325254L4.938704 16.283853L5.060315 16.389773L5.181926 16.499615L6.060666 16.523152C7.939755 16.578074 9.163713 16.9076 10.317058 17.672575C10.654431 17.896182 11.207565 18.417934 11.329177 18.629773C11.415482 18.778845 11.391944 18.770998 11.097724 18.551313C9.920841 17.664728 7.74753 17.30774 5.095622 17.566655C4.664099 17.605884 4.295342 17.645114 4.271804 17.649037C4.252189 17.65296 4.209037 17.656883 4.185499 17.65296C4.14627 17.649037 4.134501 16.491769 4.134501 12L4.134501 6.347041L4.518949 6.358809L4.899474 6.370578ZM19.95965 6.38627C19.987111 6.429422 19.994956 17.61373 19.967496 17.637268C19.95965 17.645114 19.708581 17.625499 19.406515 17.594116C18.068792 17.441121 17.150823 17.441121 15.785639 17.590193C14.695062 17.707881 13.514256 18.11979 13.019965 18.555237C12.976812 18.594466 12.890508 18.641542 12.831664 18.665079L12.721821 18.708231L12.804204 18.58662C13.157268 18.096252 13.73394 17.637268 14.432224 17.292049C15.491419 16.774221 16.456462 16.570228 18.080561 16.523152C18.535622 16.511384 18.935762 16.483923 18.974992 16.464309C19.014221 16.444693 19.080911 16.370158 19.12014 16.303468C19.194676 16.181856 19.1986 16.060245 19.1986 11.289948C19.1986 8.602732 19.210368 6.390192 19.22606 6.378424C19.265289 6.335272 19.936113 6.347041 19.95965 6.38627M3.475447 12.859124L3.487215 18.037408L3.569598 18.147251C3.714746 18.343398 3.832435 18.355167 4.664099 18.253171C7.057093 17.958949 9.206866 18.18648 10.36021 18.857303C10.49359 18.931839 10.595587 19.010298 10.583818 19.029913C10.56028 19.065219 2.996848 19.073065 2.902697 19.037759C2.843853 19.014221 2.83993 18.476777 2.83993 13.349492L2.83993 7.684763L3.4676 7.684763ZM21.285604 7.723993C21.29345 7.743608 21.289528 10.301367 21.277759 13.400491L21.258144 19.041682L17.441121 19.05345C15.338424 19.057373 13.592715 19.045604 13.561332 19.02599C13.514256 19.002452 13.553485 18.963223 13.730018 18.857303C14.21254 18.567006 14.977513 18.339474 15.883713 18.21394C16.58592 18.115868 18.359089 18.115868 19.12014 18.21394C19.410437 18.249247 19.810578 18.2924 20.010648 18.304169L20.371559 18.327705L20.512785 18.18648L20.650088 18.049177L20.650088 7.684763L20.96 7.684763C21.13261 7.684763 21.277759 7.700456 21.285604 7.723993"/><path d="M6.58634 7.45331C6.398039 7.559229 6.350963 7.782837 6.488266 7.92014C6.562802 7.994676 6.617724 7.9986 8.638039 7.9986C10.670123 7.9986 10.713275 7.9986 10.795657 7.92014C10.909422 7.814221 10.909422 7.606305 10.79958 7.504309C10.721121 7.433695 10.619124 7.429773 8.689037 7.421926C7.257163 7.41408 6.641261 7.421926 6.58634 7.45331M6.547111 8.869492C6.437268 8.93226 6.409808 8.979334 6.409808 9.124483C6.409808 9.210788 6.441191 9.273555 6.511804 9.328476C6.6138 9.410858 6.653029 9.410858 8.645884 9.410858C10.63874 9.410858 10.677969 9.410858 10.779965 9.328476C10.913345 9.222557 10.921191 9.018564 10.795657 8.900876C10.713275 8.822417 10.670123 8.822417 8.669422 8.822417C7.217934 8.82634 6.602031 8.838109 6.547111 8.869492M6.515727 10.285674C6.409808 10.36021 6.38627 10.591664 6.476497 10.697583L6.547111 10.787811L8.62627 10.783888C10.944728 10.783888 10.881961 10.787811 10.881961 10.528897C10.881961 10.442592 10.850578 10.36021 10.803503 10.313134C10.728967 10.2386 10.674045 10.234676 8.65373 10.234676C7.053169 10.234676 6.566725 10.246445 6.515727 10.285674M6.488266 11.725394C6.441191 11.77247 6.409808 11.854851 6.409808 11.937233C6.409808 12.203993 6.343117 12.196147 8.645884 12.196147C10.670123 12.196147 10.713275 12.196147 10.795657 12.117688C10.913345 12.007846 10.913345 11.792084 10.795657 11.709703C10.717198 11.654781 10.446515 11.646936 8.638039 11.646936C6.617724 11.646936 6.562802 11.650858 6.488266 11.725394M6.496112 13.110193C6.382347 13.231804 6.382347 13.41226 6.500035 13.522101L6.590262 13.608406L8.634116 13.608406C10.63874 13.608406 10.677969 13.608406 10.779965 13.526025C10.909422 13.424028 10.921191 13.216112 10.803503 13.098424C10.728967 13.023888 10.674045 13.019965 8.65373 13.019965L6.578494 13.019965ZM6.511804 14.514606C6.441191 14.569528 6.409808 14.632295 6.409808 14.7186C6.41373 15.024588 6.370578 15.020666 8.657653 15.020666C10.63874 15.020666 10.677969 15.020666 10.779965 14.938284C10.909422 14.836287 10.921191 14.628371 10.803503 14.510683C10.728967 14.436147 10.674045 14.432224 8.669422 14.432224C6.653029 14.432224 6.6138 14.432224 6.511804 14.514606M13.404414 7.469002C13.220035 7.54746 13.176883 7.763223 13.314186 7.912295L13.396567 7.9986L15.471804 7.9986C17.499965 7.9986 17.554886 7.994676 17.629422 7.92014C17.735342 7.814221 17.731419 7.602382 17.625499 7.504309C17.547041 7.433695 17.448967 7.429773 15.530648 7.425849C13.996777 7.421926 13.494641 7.433695 13.404414 7.469002M13.3338 8.920491C13.20042 9.049948 13.204344 9.222557 13.337724 9.328476C13.43972 9.410858 13.478949 9.410858 15.471804 9.410858C17.464658 9.410858 17.503888 9.410858 17.605884 9.328476C17.747111 9.218635 17.747111 9.014641 17.605884 8.904798C17.503888 8.822417 17.464658 8.822417 15.463958 8.822417L13.427951 8.822417ZM13.318109 10.336672C13.220035 10.462206 13.216112 10.575972 13.30634 10.69366L13.37303 10.783888L15.393345 10.783888C16.503538 10.787811 17.445044 10.787811 17.484274 10.787811C17.590193 10.783888 17.707881 10.63874 17.707881 10.509282C17.707881 10.442592 17.672575 10.356287 17.629422 10.313134C17.554886 10.2386 17.499965 10.234676 15.475727 10.234676L13.396567 10.234676ZM13.392645 11.674396C13.227881 11.73324 13.180806 11.984309 13.314186 12.117688C13.388722 12.192224 13.443643 12.196147 15.471804 12.196147C17.499965 12.196147 17.554886 12.192224 17.629422 12.117688C17.676497 12.070613 17.707881 11.988231 17.707881 11.905849C17.707881 11.639089 17.770648 11.646936 15.491419 11.650858C14.369457 11.650858 13.424028 11.662627 13.392645 11.674396M13.3338 13.118039C13.20042 13.247495 13.204344 13.420105 13.337724 13.526025C13.43972 13.608406 13.478949 13.608406 15.471804 13.608406C17.464658 13.608406 17.503888 13.608406 17.605884 13.526025C17.739264 13.420105 17.747111 13.223958 17.617653 13.10627L17.527426 13.019965L13.427951 13.019965ZM13.3338 14.530297C13.20042 14.659755 13.204344 14.832365 13.337724 14.938284C13.43972 15.020666 13.478949 15.020666 15.471804 15.020666C17.464658 15.020666 17.503888 15.020666 17.605884 14.938284C17.739264 14.832365 17.747111 14.628371 17.621577 14.510683C17.539194 14.432224 17.496043 14.432224 15.483573 14.432224L13.427951 14.432224Z"/></svg>
