<svg xmlns="http://www.w3.org/2000/svg" width="24" height="24" viewBox="0 0 24 24"><path d="M20 4.5C20 3.12 18.88 2 17.5 2L6 2C4.62 2 3.5 3.12 3.5 4.5L3.5 18.749333C3.5 19.166666 3.833333 19.5 4.250667 19.5L18.5 19.5C18.5 20.051999 18.052 20.499999 17.5 20.499999L4.250667 20.499999C3.833333 20.499999 3.5 20.833333 3.5 21.250666C3.5 21.666666 3.833333 21.999999 4.250667 21.999999L17.5 21.999999C18.88 21.999999 20 20.879999 20 19.5ZM18.5 18L5 18L5 4.5C5 3.948 5.448 3.5 6 3.5L17.5 3.5C18.052 3.5 18.5 3.948 18.5 4.5Z"/><path d="M6.473333 13.688L6.473333 12.838666L8.917333 9.817333L6.749333 9.817333L6.749333 9.030666L10.156 9.030666L10.156 9.76L7.609333 12.901333L10.254666 12.901333L10.254666 13.688ZM10.817333 13.688L10.817333 9.030666L11.76 9.030666L11.76 13.688ZM12.64 13.688L12.64 9.030666L14.046666 9.030666L14.890666 12.208L15.724 9.030666L17.136 9.030666L17.136 13.688L16.26 13.688L16.26 10.021333L15.338666 13.688L14.432 13.688L13.516 10.021333L13.516 13.688Z"/></svg>
