<svg xmlns="http://www.w3.org/2000/svg" width="24" height="24" viewBox="0 0 24 24"><path d="M20 4.5C20 3.12 18.88 2 17.5 2L6 2C4.62 2 3.5 3.12 3.5 4.5L3.5 18.749333C3.5 19.166666 3.833333 19.5 4.250667 19.5L18.5 19.5C18.5 20.051999 18.052 20.499999 17.5 20.499999L4.250667 20.499999C3.833333 20.499999 3.5 20.833333 3.5 21.250666C3.5 21.666666 3.833333 21.999999 4.250667 21.999999L17.5 21.999999C18.88 21.999999 20 20.879999 20 19.5ZM18.5 18L5 18L5 4.5C5 3.948 5.448 3.5 6 3.5L17.5 3.5C18.052 3.5 18.5 3.948 18.5 4.5Z"/></svg>
