<svg xmlns="http://www.w3.org/2000/svg" width="24" height="24" viewBox="0 0 24 24"><path fill-rule="evenodd" d="M17.5 2C18.88 2 20 3.12 20 4.5L20 19.5C20 20.879999 18.88 21.999999 17.5 21.999999L4.250667 21.999999C3.833333 21.999999 3.5 21.666666 3.5 21.250666C3.5 20.833333 3.833333 20.499999 4.250667 20.499999L17.5 20.499999C18.052 20.499999 18.5 20.051999 18.5 19.5L4.250667 19.5C3.833333 19.5 3.5 19.166666 3.5 18.749333L3.5 4.5C3.5 3.12 4.62 2 6 2ZM8.426666 15.109333L6.38 6.521333L8.150666 6.521333L9.448 12.421333L11.021333 6.521333L13.082666 6.521333L14.588 12.521333L15.906666 6.521333L17.650666 6.521333L15.568 15.109333L13.724 15.109333L12.016 8.688L10.306666 15.109333Z"/></svg>
