<svg xmlns="http://www.w3.org/2000/svg" width="24" height="24" viewBox="0 0 24 24"><path d="M17.5 2C18.879999 2 20 3.12 20 4.5V19.5C20 20.879999 18.879999 21.999998 17.5 21.999998H4.250667C3.833333 21.999998 3.5 21.666666 3.5 21.250666C3.5 20.833332 3.833333 20.499998 4.250667 20.499998H17.5C18.052 20.499998 18.5 20.051998 18.5 19.5H4.250667C3.833333 19.5 3.5 19.166666 3.5 18.749332V4.5C3.5 3.12 4.62 2 6 2ZM12.792 14.073333H13.864V9.568L14.994666 14.073333H16.109333L17.245333 9.568V14.073333H18.317333V8.349333H16.584L15.557333 12.254666L14.521333 8.349333H12.792ZM5.197333 14.073333H9.854666V13.109333H6.593333L9.729333 9.245333V8.349333H5.541333V9.317333H8.208L5.197333 13.030666ZM10.546666 14.073333H11.702666V8.349333H10.546666Z"/></svg>
