<svg xmlns="http://www.w3.org/2000/svg" width="24" height="24" viewBox="0 0 24 24"><path d="M 4.374978,3.3905 C 4.197978,3.5465 4.176978,3.6105 4.154978,4.1265 L 4.126978,4.6935 L 3.532978,4.7215 C 2.732978,4.7495 2.632978,4.8495 2.597978,5.6275 L 2.569978,6.1945 L 2.193978,6.1945 C 1.995978,6.1945 1.733978,6.2295 1.620978,6.2645 C 1.181978,6.4205 1.202978,6.0385 1.188978,13.1325 C 1.181978,17.2175 1.202978,19.6955 1.252978,19.8375 C 1.393978,20.3045 1.167978,20.2835 6.059978,20.2835 C 10.102978,20.2835 10.505978,20.2905 10.590978,20.4035 C 10.810978,20.6655 11.227978,20.7795 11.992978,20.7795 C 12.608978,20.7795 12.785978,20.7505 13.047978,20.6295 C 13.217978,20.5455 13.373978,20.4325 13.394978,20.3825 C 13.422978,20.2975 14.180978,20.2835 17.904978,20.2835 C 22.832978,20.2835 22.605978,20.3045 22.747978,19.8375 C 22.797978,19.6955 22.817978,17.2105 22.810978,13.1185 L 22.796978,6.6185 L 22.598978,6.4285 C 22.428978,6.2585 22.343978,6.2295 21.876978,6.2085 L 21.345978,6.1805 L 21.345978,5.6495 C 21.345978,5.1605 21.331978,5.1035 21.139978,4.9125 C 20.941978,4.7225 20.899978,4.7075 20.361978,4.7075 L 19.787978,4.7075 L 19.787978,4.1555 C 19.787978,3.6955 19.766978,3.5755 19.646978,3.4475 C 19.433978,3.2205 19.235978,3.1925 18.130978,3.2495 C 16.368978,3.3265 15.242978,3.5745 14.088978,4.1415 C 13.330978,4.5095 12.813978,4.9055 12.297978,5.5145 L 11.978978,5.8965 L 11.716978,5.5645 C 10.498978,4.0275 8.261978,3.2275 5.188978,3.2205 C 4.643978,3.2205 4.551978,3.2415 4.374978,3.3905 Z M 7.001978,4.1485 C 8.501978,4.3035 9.840978,4.8775 10.689978,5.7345 C 10.966978,6.0035 11.277978,6.3995 11.390978,6.6045 L 11.589978,6.9805 L 11.596978,12.5875 C 11.603978,16.0075 11.574978,18.1805 11.539978,18.1595 C 11.428749,18.065862 11.324474,17.964261 11.227978,17.8555 C 10.151978,16.6655 8.176978,15.9085 5.825978,15.7735 C 5.132978,15.7385 4.990978,15.7095 4.983978,15.6175 C 4.976899,11.76617 4.976899,7.91483 4.983978,4.0635 C 4.990978,4.0065 6.080978,4.0565 7.001978,4.1485 Z M 19.008978,9.8615 L 19.008978,15.7315 L 18.208978,15.7735 C 15.879978,15.9085 14.166978,16.5315 12.948978,17.6855 L 12.346978,18.2515 L 12.367978,12.5945 L 12.389978,6.9375 L 12.579978,6.6195 C 13.146978,5.6495 13.953978,5.0115 15.164978,4.5725 C 15.992978,4.2685 16.729978,4.1345 17.876978,4.0775 C 18.237832,4.053779 18.59884,4.032445 18.959977,4.0135 C 18.987978,4.0065 19.009978,6.6405 19.009978,9.8615 Z M 4.141978,10.7965 C 4.141978,16.4105 4.141978,16.3825 4.488978,16.4965 C 4.559978,16.5165 5.012978,16.5525 5.487978,16.5665 C 7.929978,16.6585 9.565978,17.2665 10.782978,18.5345 C 11.278978,19.0585 11.349978,19.1865 10.959978,18.8815 C 10.266978,18.3515 9.218978,17.9475 8.057978,17.7705 C 7.009978,17.6145 4.453978,17.6425 3.476978,17.8265 C 3.440978,17.8335 3.412978,15.2285 3.406978,11.7025 L 3.398978,5.5575 L 4.141978,5.5575 Z M 20.567978,11.7025 L 20.567978,17.8475 L 19.880978,17.7555 C 19.002978,17.6425 16.808978,17.6285 16.107978,17.7355 C 14.818978,17.9325 13.784978,18.3085 13.119978,18.8175 C 12.928978,18.9595 12.779978,19.0515 12.779978,19.0165 C 12.779978,18.9095 13.636978,18.0675 13.983978,17.8265 C 15.123978,17.0475 16.595978,16.6445 18.549978,16.5735 C 19.434978,16.5455 19.477978,16.5315 19.625978,16.3535 L 19.788978,16.1705 L 19.788978,5.5575 L 20.567978,5.5575 Z M 2.584978,12.6155 C 2.584978,18.4215 2.584978,18.4285 2.874978,18.6055 C 2.959978,18.6625 3.363978,18.6405 4.234978,18.5485 C 5.678978,18.4005 7.349978,18.4285 8.319978,18.6195 C 8.991978,18.7545 9.890978,19.0795 10.159978,19.2925 C 10.336978,19.4335 10.329978,19.4335 6.180978,19.4335 L 2.016978,19.4335 L 2.016978,7.0435 L 2.583978,7.0435 Z M 21.983978,13.2385 L 21.983978,19.4335 L 17.792978,19.4335 C 14.903978,19.4335 13.629978,19.4055 13.699978,19.3565 C 14.252978,18.9805 15.299978,18.6405 16.284978,18.5205 C 17.162978,18.4145 18.662978,18.4285 19.682978,18.5485 C 20.836978,18.6905 20.985978,18.6835 21.183978,18.4985 L 21.346978,18.3505 L 21.346978,7.0435 L 21.983978,7.0435 Z"/></svg>
