<svg xmlns="http://www.w3.org/2000/svg" width="24" height="24" viewBox="0 0 24 24"><path fill-rule="evenodd" d="M17.5 2L6 2C4.62 2 3.5 3.12 3.5 4.5L3.5 18.749333C3.5 19.161333 3.838667 19.5 4.250667 19.5L18.5 19.5C18.5 20.051999 18.052 20.499999 17.5 20.499999L4.250667 20.499999C3.250667 20.499999 3.250667 21.999999 4.250667 21.999999L17.5 21.999999C18.88 21.999999 20 20.879999 20 19.5L20 4.5C20 3.12 18.88 2 17.5 2ZM9 9C5 9 5 15 9 15L11 15L11 13.5L9 13.5C7 13.5 7 10.5 9 10.5L11 10.5L11 9ZM15 9L13 9L13 10.5L15 10.5C17 10.5 17 13.5 15 13.5L13 13.5L13 15L15 15C19 15 19 9 15 9ZM11 11.5L13 11.5L13 12.5L11 12.5Z"/></svg>
