<svg xmlns="http://www.w3.org/2000/svg" width="24" height="24" viewBox="0 0 24 24" fill="currentColor">
  <path fill-rule="evenodd" d="M4.5 3A3.5 3.5 0 0 0 1 6.5v10A3.5 3.5 0 0 0 4.5 20h4.25c.98 0 1.92.39 2.61 1.08a.9.9 0 0 0 1.28 0A3.69 3.69 0 0 1 15.25 20h4.25a3.5 3.5 0 0 0 3.5-3.5v-10A3.5 3.5 0 0 0 19.5 3h-4.25c-1.24 0-2.4.49-3.25 1.35A4.56 4.56 0 0 0 8.75 3zm6.75 3.25A2.75 2.75 0 0 0 8.5 4.5h-4A2 2 0 0 0 2.5 6.5v10a2 2 0 0 0 2 2h4.25c.9 0 1.75.23 2.5.64zm1.5 12.89a5.2 5.2 0 0 1 2.5-.64h4.25a2 2 0 0 0 2-2v-10a2 2 0 0 0-2-2h-4a2.75 2.75 0 0 0-2.75 2.75z" clip-rule="evenodd"/>
  <path d="M4.5 7.25c0-.41.34-.75.75-.75h3.5a.75.75 0 0 1 0 1.5h-3.5a.75.75 0 0 1-.75-.75M4.5 10.75c0-.41.34-.75.75-.75h3.5a.75.75 0 0 1 0 1.5h-3.5a.75.75 0 0 1-.75-.75M4.5 14.25c0-.41.34-.75.75-.75h3.5a.75.75 0 0 1 0 1.5h-3.5a.75.75 0 0 1-.75-.75M14.5 7.25c0-.41.34-.75.75-.75h3.5a.75.75 0 0 1 0 1.5h-3.5a.75.75 0 0 1-.75-.75M14.5 10.75c0-.41.34-.75.75-.75h3.5a.75.75 0 0 1 0 1.5h-3.5a.75.75 0 0 1-.75-.75M14.5 14.25c0-.41.34-.75.75-.75h3.5a.75.75 0 0 1 0 1.5h-3.5a.75.75 0 0 1-.75-.75"/>
</svg>
