<svg xmlns="http://www.w3.org/2000/svg" width="24" height="24" viewBox="0 0 24 24" fill="currentColor">
  <path fill-rule="evenodd" d="M4.25 3A3.25 3.25 0 0 0 1 6.25v9.5A3.25 3.25 0 0 0 4.25 19h4.5c.98 0 1.92.39 2.61 1.08a.9.9 0 0 0 1.28 0A3.69 3.69 0 0 1 15.25 19h.23a5.75 5.75 0 0 1-.95-1.5 5.2 5.2 0 0 0-1.78.51V6.75A2.25 2.25 0 0 1 15 4.5h4.75a1.75 1.75 0 0 1 1.75 1.75v3.78c.56.28 1.06.65 1.5 1.08V6.25A3.25 3.25 0 0 0 19.75 3H15a3.75 3.75 0 0 0-3 1.5A3.75 3.75 0 0 0 9 3zm7 15.01a5.2 5.2 0 0 0-2.5-.51h-4.5a1.75 1.75 0 0 1-1.75-1.75v-9.5A1.75 1.75 0 0 1 4.25 4.5H9a2.25 2.25 0 0 1 2.25 2.25z" clip-rule="evenodd"/>
  <path d="M4.5 7.25c0-.41.34-.75.75-.75h3a.75.75 0 0 1 0 1.5h-3a.75.75 0 0 1-.75-.75M4.5 10.75c0-.41.34-.75.75-.75h3a.75.75 0 0 1 0 1.5h-3a.75.75 0 0 1-.75-.75"/>
  <path fill-rule="evenodd" d="M18.25 10a4.75 4.75 0 1 0 2.74 8.63l1.23 1.23a.8.8 0 0 0 1.14-1.13l-1.24-1.24A4.75 4.75 0 0 0 18.25 10m-3.15 4.75a3.15 3.15 0 1 1 6.3 0 3.15 3.15 0 0 1-6.3 0" clip-rule="evenodd"/>
</svg>
