<svg xmlns="http://www.w3.org/2000/svg" width="24" height="24" viewBox="0 0 24 24"><path d="M17.5 2C18.879999 2 20 3.12 20 4.5V19.5C20 20.879999 18.879999 21.999998 17.5 21.999998H4.250667C3.250667 21.999998 3.250667 20.499998 4.250667 20.499998H17.5C18.052 20.499998 18.5 20.051998 18.5 19.5H4.250667C3.833333 19.5 3.5 19.166666 3.5 18.749332V4.5C3.5 3.12 4.62 2 6 2ZM5 18H18.5V4.5C18.5 3.948 18.052 3.5 17.5 3.5H6C5.448 3.5 5 3.948 5 4.5ZM14.401333 6.598667C15.202666 6.650667 15.917333 7.021333 16.453333 7.552C16.983999 8.088 17.354666 8.802666 17.406666 9.604C17.458666 10.406666 17.156 11.276 16.489332 11.969333C16.483999 11.973333 16.483999 11.973333 16.478666 11.978666L15.130666 13.328C13.786666 14.672 11.521333 14.510666 10.38 12.989333C10.082666 12.588 10.161333 12.026666 10.562666 11.729333C10.958666 11.432 11.521333 11.516 11.822666 11.912C12.322666 12.584 13.265333 12.650666 13.854666 12.057333L15.197333 10.718666V10.713333C15.552 10.349333 15.630666 10.036 15.609333 9.724C15.588 9.406666 15.432 9.078666 15.177333 8.822666C14.926666 8.573333 14.593333 8.416 14.281333 8.396C13.969333 8.374666 13.656 8.453333 13.292 8.806666H13.286666L12.521333 9.568C12.172 9.921333 11.598666 9.917333 11.250666 9.568C10.901333 9.213333 10.901333 8.645333 11.254666 8.292L12.026666 7.521333C12.030666 7.521333 12.030666 7.516 12.036 7.516C12.729333 6.849333 13.598666 6.546667 14.401333 6.598667ZM11.322666 9.765333C12.197333 9.828 13.052 10.250666 13.62 11.010666C13.917333 11.412 13.838666 11.973333 13.437333 12.270666C13.041333 12.568 12.478666 12.484 12.177333 12.088C11.677333 11.416 10.734666 11.349333 10.145333 11.942666L8.802666 13.281333V13.286666C8.448 13.650666 8.369333 13.964 8.390666 14.276C8.412 14.593333 8.568 14.921333 8.822666 15.177333C9.073333 15.426666 9.406666 15.584 9.718666 15.604C10.030666 15.625333 10.344 15.546666 10.708 15.193333L11.473333 14.432C11.822666 14.082666 12.390666 14.082666 12.745333 14.432C13.093333 14.786666 13.093333 15.354666 12.745333 15.702666L11.973333 16.473333C11.969333 16.478666 11.969333 16.483999 11.964 16.483999C11.270666 17.150665 10.401333 17.453333 9.598666 17.401333C8.797333 17.349333 8.082666 16.978666 7.546666 16.448C7.016 15.912 6.645333 15.197333 6.593333 14.396C6.541333 13.593333 6.844 12.724 7.510666 12.030666C7.516 12.026666 7.516 12.026666 7.521333 12.021333L8.869333 10.672C9.541333 10 10.448 9.702666 11.322666 9.765333Z"/></svg>
