<svg xmlns="http://www.w3.org/2000/svg" width="24" height="24" viewBox="0 0 24 24"><path d="M12.227 19.353001 12.111 19.247999 12 19.136999 11.889 19.247999 11.773 19.353001 11.65 19.450001 11.522 19.541 11.389 19.624001 11.25 19.700001 11.107 19.768 10.96 19.827999 10.809 19.879 10.653 19.922001 10.495 19.955999 10.333 19.98 10.168 19.995001 10 20H3.75L3.546 19.988001L3.349 19.954L3.16 19.898001L2.98 19.822001L2.812 19.728001L2.655 19.615999L2.513 19.487L2.384 19.344999L2.272 19.188L2.178 19.02L2.102 18.84L2.046 18.650999L2.012 18.454L2 18.25V5.75L2.012 5.546L2.046 5.349L2.102 5.16L2.178 4.98L2.272 4.812L2.384 4.655L2.513 4.513L2.655 4.384L2.812 4.272L2.98 4.178L3.16 4.102L3.349 4.046L3.546 4.012L3.75 4H10L10.168 4.005L10.333 4.02L10.495 4.044L10.653 4.078L10.809 4.121L10.96 4.172L11.107 4.232L11.25 4.3L11.389 4.376L11.522 4.459L11.65 4.55L11.773 4.648L11.889 4.752L12 4.863L12.111 4.752L12.227 4.648L12.35 4.55L12.478 4.459L12.611 4.376L12.75 4.3L12.893 4.232L13.04 4.172L13.191 4.121L13.347 4.078L13.505 4.044L13.667 4.02L13.832 4.005L14 4H20.25L20.454 4.012L20.650999 4.046L20.84 4.102L21.02 4.178L21.188 4.272L21.344999 4.384L21.487 4.513L21.615999 4.655L21.728001 4.812L21.822001 4.98L21.898001 5.16L21.954 5.349L21.988001 5.546L22 5.75V18.25L21.988001 18.454L21.954 18.650999L21.898001 18.84L21.822001 19.02L21.728001 19.188L21.615999 19.344999L21.487 19.487L21.344999 19.615999L21.188 19.728001L21.02 19.822001L20.84 19.898001L20.650999 19.954L20.454 19.988001L20.25 20H14L13.832 19.995001L13.667 19.98L13.505 19.955999L13.347 19.922001L13.191 19.879L13.04 19.827999L12.893 19.768L12.75 19.700001L12.611 19.624001L12.478 19.541L12.35 19.450001ZM12.758 6.604 12.75 6.75V8.625H14.5L14.598 8.631L14.695 8.647L14.789 8.674L14.88 8.712L14.966 8.759L15.046 8.816L15.119 8.881L15.184 8.954L15.241 9.034L15.288 9.12L15.326 9.211L15.353 9.305L15.369 9.402L15.375 9.5V14.5L15.369 14.598L15.353 14.695L15.326 14.789L15.288 14.88L15.241 14.966L15.184 15.046L15.119 15.119L15.046 15.184L14.966 15.241L14.88 15.288L14.789 15.326L14.695 15.353L14.598 15.369L14.5 15.375H12.75V17.25L12.758 17.396L12.783 17.537001L12.823 17.672001L12.877 17.799999L12.945 17.92L13.025 18.032L13.116 18.134001L13.218 18.225L13.33 18.305L13.45 18.372999L13.578 18.427L13.713 18.466999L13.854 18.492001L14 18.5H20.25L20.278999 18.497999L20.306999 18.493L20.334 18.485001L20.360001 18.475L20.384001 18.461L20.406 18.445L20.427 18.427L20.445 18.406L20.461 18.384001L20.475 18.360001L20.485001 18.334L20.493 18.306999L20.497999 18.278999L20.5 18.25V5.75L20.497999 5.721L20.493 5.693L20.485001 5.666L20.475 5.64L20.461 5.616L20.445 5.594L20.427 5.573L20.406 5.555L20.384001 5.539L20.360001 5.525L20.334 5.515L20.306999 5.507L20.278999 5.502L20.25 5.5H14L13.854 5.508L13.713 5.533L13.578 5.573L13.45 5.627L13.33 5.695L13.218 5.775L13.116 5.866L13.025 5.968L12.945 6.08L12.877 6.2L12.823 6.328L12.783 6.463ZM11.242 17.396 11.25 17.25V15.375H9.5L9.402 15.369L9.305 15.353L9.211 15.326L9.12 15.288L9.034 15.241L8.954 15.184L8.881 15.119L8.816 15.046L8.759 14.966L8.712 14.88L8.674 14.789L8.647 14.695L8.631 14.598L8.625 14.5V9.5L8.631 9.402L8.647 9.305L8.674 9.211L8.712 9.12L8.759 9.034L8.816 8.954L8.881 8.881L8.954 8.816L9.034 8.759L9.12 8.712L9.211 8.674L9.305 8.647L9.402 8.631L9.5 8.625H11.25V6.75L11.242 6.604L11.217 6.463L11.177 6.328L11.123 6.2L11.055 6.08L10.975 5.968L10.884 5.866L10.782 5.775L10.67 5.695L10.55 5.627L10.422 5.573L10.287 5.533L10.146 5.508L10 5.5H3.75L3.721 5.502L3.693 5.507L3.666 5.515L3.64 5.525L3.616 5.539L3.594 5.555L3.573 5.573L3.555 5.594L3.539 5.616L3.525 5.64L3.515 5.666L3.507 5.693L3.502 5.721L3.5 5.75V18.25L3.502 18.278999L3.507 18.306999L3.515 18.334L3.525 18.360001L3.539 18.384001L3.555 18.406L3.573 18.427L3.594 18.445L3.616 18.461L3.64 18.475L3.666 18.485001L3.693 18.493L3.721 18.497999L3.75 18.5H10L10.146 18.492001L10.287 18.466999L10.422 18.427L10.55 18.372999L10.67 18.305L10.782 18.225L10.884 18.134001L10.975 18.032L11.055 17.92L11.123 17.799999L11.177 17.672001L11.217 17.537001ZM14.5 9.375H9.5L9.486 9.376L9.472 9.378L9.459 9.382L9.446 9.387L9.433 9.394L9.422 9.402L9.412 9.412L9.402 9.422L9.394 9.433L9.387 9.446L9.382 9.459L9.378 9.472L9.376 9.486L9.375 9.5V14.5L9.376 14.514L9.378 14.528L9.382 14.541L9.387 14.554L9.394 14.567L9.402 14.578L9.412 14.588L9.422 14.598L9.433 14.606L9.446 14.613L9.459 14.618L9.472 14.622L9.486 14.624L9.5 14.625H14.5L14.514 14.624L14.528 14.622L14.541 14.618L14.554 14.613L14.567 14.606L14.578 14.598L14.588 14.588L14.598 14.578L14.606 14.567L14.613 14.554L14.618 14.541L14.622 14.528L14.624 14.514L14.625 14.5V9.5L14.624 9.486L14.622 9.472L14.618 9.459L14.613 9.446L14.606 9.433L14.598 9.422L14.588 9.412L14.578 9.402L14.567 9.394L14.554 9.387L14.541 9.382L14.528 9.378L14.514 9.376Z"/></svg>
