<svg xmlns="http://www.w3.org/2000/svg" width="24" height="24" viewBox="0 0 24 24"><path d="M4.72014 3.904729C4.472154 4.018214 4.41331 4.177933 4.41331 4.736953C4.41331 5.010158 4.400701 5.232925 4.383888 5.237128C4.362872 5.237128 4.102277 5.241331 3.803853 5.245534C3.358319 5.25394 3.232224 5.26655 3.139755 5.329597C2.921191 5.472504 2.879159 5.585989 2.862347 6.11979L2.849737 6.611559L2.378984 6.628371C1.8662 6.649387 1.69387 6.708231 1.567776 6.901576C1.496322 7.010858 1.492119 7.380736 1.492119 13.454291C1.492119 20.43993 1.47951 20.019615 1.719089 20.183538C1.819965 20.254991 2.109982 20.259194 6.216462 20.271804L10.604553 20.28021L10.764273 20.410508C11.062697 20.645884 11.30648 20.700525 12.054641 20.700525C12.819615 20.700525 13.038179 20.654291 13.336602 20.42732L13.525744 20.28021L17.89282 20.271804C22.016112 20.259194 22.264098 20.254991 22.394396 20.183538C22.671804 20.032224 22.654991 20.460946 22.654991 13.445884C22.654991 7.637128 22.650788 7.061296 22.587741 6.930998C22.461646 6.6662 22.381786 6.649387 21.322592 6.619965C21.28056 6.619965 21.267951 6.498074 21.267951 6.153415C21.267951 5.636427 21.217513 5.459895 21.024168 5.329597C20.931699 5.26655 20.814011 5.25394 20.355867 5.249737C20.05324 5.245534 19.784238 5.228722 19.759019 5.211909C19.729597 5.195096 19.712785 5.005954 19.712785 4.715937C19.712785 3.942557 19.599299 3.845884 18.716637 3.845884C17.094221 3.845884 15.501226 4.098074 14.521891 4.505779C14.051138 4.703327 13.534151 4.976532 13.252539 5.178284C12.886865 5.438879 12.437128 5.867601 12.290018 6.086165C12.088266 6.392995 12.075657 6.392995 11.873905 6.123993C11.188792 5.199299 9.82697 4.434326 8.309632 4.119089C7.523643 3.95937 6.838529 3.887916 5.80035 3.862697C5.018564 3.845884 4.829422 3.854291 4.72014 3.904729ZM7.271454 4.665499C9.431874 4.993345 10.881961 5.783538 11.499825 6.96042L11.705779 7.355517L11.718389 12.861646C11.722592 15.887916 11.718389 18.392995 11.705779 18.422417C11.69317 18.460245 11.579685 18.371979 11.382137 18.157618C11.218214 17.981086 10.978634 17.754116 10.848336 17.657443C10.570928 17.447285 9.894221 17.043783 9.6 16.913485C9.099825 16.694921 8.154116 16.409107 7.649737 16.325044C6.985639 16.211559 6.762872 16.190543 5.989492 16.165324L5.148862 16.140105L5.136252 10.343958L5.127846 4.547811L5.976883 4.57303C6.447636 4.589842 7.027671 4.631874 7.271454 4.665499ZM18.97303 4.598249C18.989842 4.623468 19.010858 14.198249 18.998249 16.102277C18.998249 16.131699 18.729247 16.156918 18.191243 16.17373C16.942907 16.215762 16.274606 16.329247 15.219615 16.669702C14.614361 16.863047 14.088967 17.115236 13.580385 17.451489C13.202102 17.703678 12.701926 18.153415 12.609457 18.325744C12.580035 18.380385 12.521191 18.435026 12.479159 18.443433C12.399299 18.464448 12.399299 18.325744 12.399299 13.08021C12.403503 8.792995 12.411909 7.641331 12.458144 7.435377C12.630473 6.636778 13.302977 5.918039 14.395797 5.371629C15.17338 4.980736 16.228371 4.707531 17.359019 4.606655C17.876007 4.556217 18.947811 4.552014 18.97303 4.598249ZM4.41331 11.277058L4.434326 16.589842L4.564623 16.703327L4.694921 16.821016L5.636427 16.846235C7.649737 16.905079 8.961121 17.258144 10.196848 18.077758C10.558319 18.317338 11.150963 18.876357 11.281261 19.103327C11.37373 19.263047 11.348511 19.254641 11.033275 19.019264C9.772329 18.069352 7.443783 17.686865 4.602452 17.964273C4.140105 18.006305 3.745009 18.048336 3.71979 18.052539C3.698774 18.056743 3.652539 18.060946 3.62732 18.056743C3.585289 18.052539 3.57268 16.812609 3.57268 12L3.57268 5.943257L3.984588 5.955867L4.392294 5.968476ZM20.528196 5.985289C20.557618 6.031524 20.566025 18.014711 20.536602 18.03993C20.528196 18.048336 20.259194 18.02732 19.935552 17.993695C18.502277 17.829772 17.518739 17.829772 16.056042 17.989492C14.887566 18.115587 13.622417 18.556918 13.09282 19.023468C13.046585 19.065499 12.954116 19.115937 12.891068 19.141156L12.77338 19.187391L12.861646 19.057093C13.23993 18.531699 13.857793 18.03993 14.605954 17.670053C15.740806 17.115236 16.774781 16.896673 18.514886 16.846235C19.002452 16.833625 19.431173 16.804203 19.473205 16.783187C19.515236 16.762172 19.58669 16.682312 19.628722 16.610858C19.708581 16.48056 19.712785 16.350263 19.712785 11.239229C19.712785 8.36007 19.725394 5.989492 19.742207 5.976883C19.784238 5.930648 20.502977 5.943257 20.528196 5.985289ZM2.86655 12.92049L2.879159 18.468651L2.967426 18.58634C3.122942 18.796497 3.249037 18.809107 4.140105 18.699825C6.704028 18.384588 9.007356 18.628371 10.243082 19.34711C10.385989 19.42697 10.495271 19.511033 10.482662 19.532049C10.457443 19.569877 2.353765 19.578284 2.25289 19.540455C2.189842 19.515236 2.185639 18.939405 2.185639 13.445884L2.185639 7.376532L2.858144 7.376532ZM21.948862 7.418564C21.957268 7.43958 21.953065 10.180035 21.940455 13.500525L21.91944 19.544658L17.829772 19.557268C15.576883 19.561471 13.70648 19.548862 13.672855 19.527846C13.622417 19.502627 13.664448 19.460595 13.85359 19.34711C14.370578 19.036077 15.190193 18.792294 16.161121 18.657793C16.913485 18.552715 18.81331 18.552715 19.628722 18.657793C19.939755 18.695622 20.368476 18.741856 20.582837 18.754466L20.969527 18.779685L21.120841 18.628371L21.267951 18.481261L21.267951 7.376532L21.6 7.376532C21.784939 7.376532 21.940455 7.393345 21.948862 7.418564Z"/><path d="M6.19965 7.128546C5.997898 7.242032 5.947461 7.481611 6.094571 7.628722C6.174431 7.708581 6.233275 7.712785 8.397898 7.712785C10.575131 7.712785 10.621366 7.712785 10.709632 7.628722C10.831524 7.515236 10.831524 7.292469 10.713835 7.183187C10.629772 7.107531 10.52049 7.103327 8.452539 7.094921C6.918389 7.086515 6.258494 7.094921 6.19965 7.128546ZM6.157618 8.645884C6.03993 8.713135 6.010508 8.763573 6.010508 8.919089C6.010508 9.011559 6.044133 9.078809 6.11979 9.137653C6.229072 9.225919 6.271103 9.225919 8.406305 9.225919C10.541506 9.225919 10.583538 9.225919 10.69282 9.137653C10.835727 9.024168 10.844133 8.805604 10.709632 8.67951C10.621366 8.595447 10.575131 8.595447 8.431524 8.595447C6.876357 8.59965 6.216462 8.612259 6.157618 8.645884ZM6.123993 10.163222C6.010508 10.243082 5.985289 10.491068 6.081961 10.604553L6.157618 10.701226L8.385289 10.697023C10.869352 10.697023 10.802102 10.701226 10.802102 10.423818C10.802102 10.331349 10.768476 10.243082 10.718039 10.192644C10.638179 10.112785 10.579335 10.108581 8.414711 10.108581C6.699825 10.108581 6.178634 10.121191 6.123993 10.163222ZM6.094571 11.705779C6.044133 11.756217 6.010508 11.844483 6.010508 11.93275C6.010508 12.218564 5.939054 12.210158 8.406305 12.210158C10.575131 12.210158 10.621366 12.210158 10.709632 12.126095C10.835727 12.008406 10.835727 11.777233 10.709632 11.688967C10.625569 11.630123 10.335552 11.621716 8.397898 11.621716C6.233275 11.621716 6.174431 11.625919 6.094571 11.705779ZM6.102977 13.189492C5.981086 13.31979 5.981086 13.513135 6.10718 13.630823L6.203853 13.723292L8.393695 13.723292C10.541506 13.723292 10.583538 13.723292 10.69282 13.635026C10.831524 13.525744 10.844133 13.302977 10.718039 13.176883C10.638179 13.097023 10.579335 13.09282 8.414711 13.09282L6.191243 13.09282ZM6.11979 14.694221C6.044133 14.753065 6.010508 14.820315 6.010508 14.912785C6.014711 15.24063 5.968476 15.236427 8.418914 15.236427C10.541506 15.236427 10.583538 15.236427 10.69282 15.148161C10.831524 15.038879 10.844133 14.816112 10.718039 14.690018C10.638179 14.610158 10.579335 14.605954 8.431524 14.605954C6.271103 14.605954 6.229072 14.605954 6.11979 14.694221ZM13.504729 7.145359C13.30718 7.229422 13.260946 7.460595 13.408056 7.620315L13.496322 7.712785L15.71979 7.712785C17.89282 7.712785 17.951664 7.708581 18.031524 7.628722C18.145009 7.515236 18.140806 7.288266 18.02732 7.183187C17.943257 7.107531 17.838179 7.103327 15.782837 7.099124C14.139405 7.094921 13.601401 7.107531 13.504729 7.145359ZM13.429072 8.700525C13.286165 8.839229 13.290368 9.024168 13.433275 9.137653C13.542557 9.225919 13.584588 9.225919 15.71979 9.225919C17.854991 9.225919 17.897023 9.225919 18.006305 9.137653C18.157618 9.019965 18.157618 8.801401 18.006305 8.683713C17.897023 8.595447 17.854991 8.595447 15.711384 8.595447L13.529947 8.595447ZM13.412259 10.217863C13.30718 10.352364 13.302977 10.474256 13.39965 10.60035L13.471103 10.697023L15.635727 10.697023C16.825219 10.701226 17.833975 10.701226 17.876007 10.701226C17.989492 10.697023 18.115587 10.541506 18.115587 10.402802C18.115587 10.331349 18.077758 10.238879 18.031524 10.192644C17.951664 10.112785 17.89282 10.108581 15.723993 10.108581L13.496322 10.108581ZM13.492119 11.651138C13.315587 11.714186 13.265149 11.983187 13.408056 12.126095C13.487916 12.205954 13.54676 12.210158 15.71979 12.210158C17.89282 12.210158 17.951664 12.205954 18.031524 12.126095C18.081961 12.075657 18.115587 11.987391 18.115587 11.899124C18.115587 11.61331 18.182837 11.621716 15.740806 11.625919C14.538704 11.625919 13.525744 11.638529 13.492119 11.651138ZM13.429072 13.197898C13.286165 13.336602 13.290368 13.521541 13.433275 13.635026C13.542557 13.723292 13.584588 13.723292 15.71979 13.723292C17.854991 13.723292 17.897023 13.723292 18.006305 13.635026C18.149212 13.521541 18.157618 13.311384 18.018914 13.185289L17.922242 13.09282L13.529947 13.09282ZM13.429072 14.711033C13.286165 14.849737 13.290368 15.034676 13.433275 15.148161C13.542557 15.236427 13.584588 15.236427 15.71979 15.236427C17.854991 15.236427 17.897023 15.236427 18.006305 15.148161C18.149212 15.034676 18.157618 14.816112 18.023117 14.690018C17.934851 14.605954 17.888616 14.605954 15.732399 14.605954L13.529947 14.605954Z"/></svg>
