<svg xmlns="http://www.w3.org/2000/svg" width="24" height="24" viewBox="0 0 24 24"><path d="M20 4.5V19.5C20 20.880699 18.880711 22 17.5 22H4.25C3.8358 22 3.5 21.6642 3.5 21.25C3.5 20.8358 3.8358 20.5 4.25 20.5H17.5C18.05228 20.5 18.5 20.052299 18.5 19.5H4.25C3.8358 19.5 3.5 19.1642 3.5 18.75V4.5C3.5 3.11929 4.6193 2 6 2H17.5C18.880711 2 20 3.11929 20 4.5ZM12.5 9.75C12.5 9.33579 12.1642 9 11.75 9C11.3358 9 11 9.33579 11 9.75V14.75C11 15.1642 11.3358 15.5 11.75 15.5C12.1642 15.5 12.5 15.1642 12.5 14.75ZM11.75 8C12.3023 8 12.75 7.55228 12.75 7C12.75 6.44772 12.3023 6 11.75 6C11.1977 6 10.75 6.44772 10.75 7C10.75 7.55228 11.1977 8 11.75 8Z"/></svg>
