<svg xmlns="http://www.w3.org/2000/svg" width="24" height="24" viewBox="0 0 24 24"><path d="M5.04712 3.891099C5.700524 3.836649 7.103665 3.924607 7.874346 4.067016C9.813613 4.431414 11.195812 5.147644 11.983246 6.194764C12.079581 6.328796 12.092147 6.332984 12.150785 6.265969C12.875393 5.37801 13.570681 4.904712 14.743455 4.502618C16.008377 4.067016 16.799999 3.937173 18.282722 3.907853C19.325653 3.891099 19.375916 3.895288 19.509949 3.974869C19.757069 4.134031 19.811518 4.27644 19.811518 4.779058C19.811518 5.147644 19.824083 5.231414 19.878534 5.252356C19.916229 5.264921 20.150785 5.277487 20.406282 5.277487C21.176964 5.277487 21.285864 5.382199 21.319372 6.157068L21.340315 6.638743L21.821989 6.659686C22.349737 6.680628 22.454451 6.718325 22.575916 6.92356C22.659685 7.053403 22.659685 7.191623 22.659685 13.18534C22.659685 13.687366 22.659821 14.149596 22.659946 14.575234C22.661274 19.085995 22.661392 19.487139 22.485556 19.59133C22.45248 19.610928 22.413179 19.62002 22.366491 19.643978C22.20314 19.727749 22.127748 19.727749 17.880629 19.727749H13.562304L13.390576 19.874346C13.118325 20.1089 12.862827 20.16754 12.104712 20.16754C11.334031 20.16754 11.099476 20.117277 10.793717 19.8911L10.580105 19.727749H6.270157C6.111489 19.727749 5.958428 19.727758 5.810771 19.727768C2.11818 19.728001 1.804345 19.72802 1.659002 19.571541C1.638939 19.54994 1.622086 19.525356 1.6 19.497381L1.507853 19.380104L1.51623 13.189529L1.528796 7.003141L1.633508 6.890052C1.805236 6.705759 1.884817 6.680628 2.366492 6.659686L2.827225 6.638743L2.848168 6.157068C2.86911 5.633508 2.902618 5.54555 3.107853 5.394764C3.229319 5.310995 3.308901 5.294241 3.790576 5.277487L4.335079 5.256545L4.360209 4.795812C4.372775 4.540314 4.402094 4.284817 4.427225 4.226178C4.510995 4.033508 4.720419 3.920419 5.04712 3.891099ZM7.267016 4.732984C6.944503 4.682723 6.337173 4.632461 5.918325 4.619895L5.151832 4.594764V5.156021C5.147644 5.465969 5.139267 7.91623 5.126702 10.601047C5.105759 14.642932 5.114136 15.489005 5.160209 15.526702C5.189529 15.551832 5.562304 15.581152 6.052356 15.593717C7.794764 15.648168 8.908901 15.924607 10.131937 16.615707C10.672251 16.921467 11.00733 17.168587 11.375916 17.532984C11.551832 17.704712 11.706806 17.834555 11.72356 17.826178C11.740314 17.813614 11.75288 15.459686 11.75288 12.594764L11.748691 7.384293L11.560209 7.011518C11.237696 6.379058 10.768586 5.943455 9.956021 5.528796C9.176963 5.135079 8.376963 4.900524 7.267016 4.732984ZM19.049215 10.048168 19.03665 4.628272 18.492147 4.624084C17.851309 4.615707 17.369635 4.657592 16.640839 4.774869C14.437696 5.13089 12.887958 6.060733 12.52356 7.237696C12.443979 7.497382 12.439791 7.635602 12.439791 12.674346C12.439791 16.242931 12.452356 17.842932 12.481675 17.842932C12.506806 17.842932 12.674346 17.696335 12.850262 17.51623C13.197906 17.164398 13.549738 16.904713 14.115183 16.582199C15.250262 15.937173 16.732985 15.593717 18.458639 15.576963C18.810471 15.572775 18.986387 15.556021 19.015707 15.518325C19.045027 15.484817 19.053404 13.721466 19.049215 10.048168ZM14.994764 7.363351C15.371728 7.258639 15.920419 7.28377 16.309948 7.426178C17.327749 7.798953 17.997906 8.887958 17.84712 9.914136C17.763351 10.475393 17.470158 11.036649 17.084818 11.359162L16.879581 11.53089L16.988482 11.731937C17.059687 11.857592 17.143456 11.949738 17.223038 11.983246C17.290052 12.008377 17.390575 12.092147 17.440838 12.163351C17.587435 12.364398 18.387436 13.943455 18.387436 14.035602C18.387436 14.173822 18.232462 14.429319 18.115183 14.48377C18.056545 14.513089 17.939266 14.534031 17.859686 14.534031C17.595812 14.534031 17.486912 14.441885 17.290052 14.043979C17.185341 13.838743 16.975916 13.432461 16.820942 13.13089C16.552879 12.624084 16.536125 12.57801 16.561256 12.389529C16.582199 12.234555 16.569633 12.154974 16.502619 12.025131C16.456545 11.932984 16.402094 11.849215 16.38534 11.836649C16.364397 11.824084 16.24712 11.845026 16.121466 11.878534C15.824084 11.958115 15.246073 11.958115 14.931937 11.874346C14.140314 11.664921 13.482723 10.994764 13.298429 10.215707C13.168586 9.650262 13.264921 8.929843 13.532984 8.477487C13.842932 7.958115 14.420942 7.518325 14.994764 7.363351ZM4.364398 10.998953 4.356021 6.031414H3.547644L3.576963 6.286911C3.589529 6.429319 3.602094 9.005236 3.602094 12.012565V17.478535L3.803141 17.453403C6.240838 17.172775 7.61466 17.206284 9.097382 17.574869C9.842932 17.759163 10.617801 18.090052 11.019895 18.395811C11.308901 18.617802 11.329843 18.626179 11.241885 18.471205C11.141361 18.299477 10.596859 17.801046 10.228272 17.545549C9.830366 17.26911 9.089005 16.904713 8.565445 16.728796C7.685864 16.435602 6.856545 16.305759 5.541361 16.263874L4.674346 16.238743L4.527749 16.100525L4.376963 15.966492ZM20.565445 11.748691V6.031414H19.811518V15.924607L19.656546 16.083771L19.497381 16.238743L18.638742 16.263874C16.938219 16.318325 15.710995 16.582199 14.62199 17.13089C13.951832 17.470158 13.26911 18.010471 12.950785 18.458639L12.858639 18.588482L13.034555 18.504711C13.135079 18.454451 13.231414 18.395811 13.256545 18.366491C13.457592 18.127748 14.525654 17.696335 15.371728 17.51623C16.699476 17.231415 18.559162 17.185341 20.004189 17.403141C20.230366 17.436649 20.452356 17.465969 20.494242 17.465969C20.561256 17.465969 20.565445 17.164398 20.565445 11.748691ZM21.897383 7.42199C21.868063 7.39267 21.734032 7.371728 21.583246 7.371728H21.319372V12.586387C21.319372 12.844131 21.319397 13.089682 21.319422 13.323628V13.324115C21.319866 17.641718 21.319904 18.006199 21.152822 18.115698C21.127277 18.132439 21.097826 18.143219 21.063873 18.161257C20.887959 18.249214 20.783245 18.249214 19.937174 18.136126C18.312042 17.922512 16.60733 17.964397 15.39267 18.240837C14.64712 18.412565 13.553927 18.885864 13.700524 18.97801C13.763351 19.015707 21.775915 19.028273 21.87644 18.990576C21.943455 18.965445 21.947643 18.567539 21.947643 13.218848C21.947643 8.804188 21.93508 7.459686 21.897383 7.42199ZM2.848168 12.649215 2.827225 7.39267 2.546597 7.380105 2.26178 7.367539V18.973822L2.358115 18.994764C2.534031 19.040838 10.492147 18.998953 10.487958 18.952881C10.475393 18.831413 9.285864 18.362305 8.649215 18.224085C7.275393 17.926702 5.637696 17.922512 3.602094 18.219894C3.375916 18.253403 3.304712 18.245026 3.158115 18.178011C3.06178 18.136126 2.957068 18.056545 2.92356 18.002094C2.877487 17.922512 2.864921 16.925653 2.848168 12.649215ZM15.886911 7.853403C15.44712 7.761257 15.137173 7.794764 14.760209 7.979058C13.842932 8.427225 13.470157 9.579058 13.947644 10.508901C14.090052 10.789529 14.433508 11.107853 14.764398 11.271204C15.045026 11.409424 15.074346 11.413613 15.539267 11.413613C15.991623 11.413613 16.037697 11.405236 16.293194 11.28377C16.636648 11.124607 16.837696 10.948691 17.055496 10.626178C17.260733 10.328796 17.340315 10.052356 17.340313 9.646073C17.341526 8.779724 16.734787 8.031354 15.886911 7.853403ZM6.110995 9.838743 6.232461 9.717277H10.642932L10.743455 9.82199C10.936126 10.010471 10.835602 10.270157 10.546597 10.324607C10.471204 10.337173 9.46178 10.34555 8.305759 10.337173L6.20733 10.324607L6.098429 10.224084C5.956021 10.090052 5.960209 9.989529 6.110995 9.838743ZM6.094241 11.246073 6.194764 11.141361H8.439791C10.626178 11.141361 10.680628 11.141361 10.764398 11.225131C10.873298 11.334031 10.86911 11.47644 10.760209 11.618848L10.67644 11.727749H6.161257L6.077487 11.618848C5.964398 11.472251 5.968586 11.371728 6.094241 11.246073ZM6.098429 12.628272 6.211518 12.52356H8.418848C10.588482 12.52356 10.630366 12.52356 10.739267 12.611518C10.873298 12.71623 10.881675 12.887958 10.764398 13.017801L10.67644 13.109948H6.182199L6.085864 13.017801C5.960209 12.900524 5.964398 12.753927 6.098429 12.628272ZM6.198953 13.956021C6.245026 13.939267 7.271204 13.93089 8.490052 13.939267C10.659686 13.951832 10.701571 13.956021 10.776963 14.039791C10.86911 14.148691 10.86911 14.291099 10.768586 14.412565L10.689005 14.513089L8.443979 14.525654L6.198953 14.53822L6.094241 14.433508C6.035602 14.374869 5.989529 14.295288 5.989529 14.253403C5.989529 14.15288 6.102618 13.989529 6.198953 13.956021ZM6.077487 7.06178 6.161257 6.95288H8.423037C10.626178 6.95288 10.680628 6.95288 10.764398 7.036649C10.885864 7.158115 10.873298 7.346597 10.739267 7.451309C10.630366 7.539267 10.588482 7.539267 8.452356 7.539267C6.626178 7.539267 6.257592 7.53089 6.161257 7.47644C5.968586 7.380105 5.939267 7.237696 6.077487 7.06178ZM6.094241 8.435602 6.198953 8.33089 8.464921 8.343455C10.651309 8.356021 10.73089 8.360209 10.789529 8.435602C10.873298 8.55288 10.860733 8.712042 10.756021 8.825131L10.668063 8.921466H6.194764L6.094241 8.816754C5.960209 8.686911 5.960209 8.569634 6.094241 8.435602ZM15.091099 8.184293C15.187435 8.154974 15.325654 8.134031 15.39267 8.13822C15.493194 8.146597 15.518325 8.163351 15.518325 8.24712C15.518325 8.335079 15.484817 8.356021 15.267016 8.418848C14.701571 8.573822 14.370681 8.967539 14.299476 9.566492C14.265969 9.842932 14.182199 9.947644 14.085864 9.82199C14.010471 9.717277 14.043979 9.386387 14.161257 9.04712C14.286911 8.686911 14.693194 8.314136 15.091099 8.184293Z"/></svg>
