<svg width="24" height="24" xmlns="http://www.w3.org/2000/svg" fill="currentColor" viewBox="0 0 24 24"><path d="M 4.99315068493,3.99452054795 c -0.197260273973,0.0452054794521 -0.341095890411,0.152054794521 -0.431506849315,0.308219178082 c -0.0821917808219,0.143835616438 -0.0945205479452,0.221917808219 -0.086301369863,0.530136986301 c 0.0041095890411,0.230136986301 -0.0123287671233,0.369863013699 -0.041095890411,0.390410958904 c -0.0246575342466,0.0123287671233 -0.22602739726,0.0246575342466 -0.443835616438,0.0205479452055 c -0.345205479452,-0.00821917808219 -0.419178082192,0.00410958904109 -0.579452054795,0.0904109589041 c -0.258904109589,0.135616438356 -0.345205479452,0.3 -0.369863013699,0.727397260274 l -0.0205479452055,0.349315068493 l -0.452054794521,0.0205479452055 c -0.521917808219,0.0246575342466 -0.682191780822,0.0904109589041 -0.809589041096,0.332876712329 C 1.68493150685,6.90821917808 1.68493150685,7.1301369863 1.68493150685,13.0068493151 c 0,6.06164383562 0,6.09452054795 0.086301369863,6.2301369863 c 0.0452054794521,0.0739726027397 0.152054794521,0.176712328767 0.234246575342,0.230136986301 l 0.152054794521,0.0945205479452 l 4.26164383562,0.0205479452055 l 4.25753424658,0.0205479452055 l 0.0986301369863,0.086301369863 c 0.0534246575342,0.0493150684932 0.176712328767,0.131506849315 0.279452054795,0.184931506849 c 0.176712328767,0.0945205479452 0.22602739726,0.0986301369863 0.965753424658,0.0986301369863 c 0.727397260274,0 0.793150684932,-0.00821917808219 0.986301369863,-0.0945205479452 c 0.115068493151,-0.0534246575342 0.250684931507,-0.139726027397 0.308219178082,-0.193150684932 l 0.106849315068,-0.102739726027 l 4.24931506849,-0.00821917808219 l 4.25342465753,-0.0123287671233 l 0.160273972603,-0.0986301369863 c 0.086301369863,-0.0534246575342 0.193150684932,-0.156164383562 0.234246575342,-0.22602739726 c 0.0739726027397,-0.123287671233 0.0780821917808,-0.316438356164 0.0780821917808,-6.25068493151 c 0,-5.99589041096 0,-6.12739726027 -0.0821917808219,-6.25479452055 c -0.139726027397,-0.234246575342 -0.254794520548,-0.275342465753 -0.776712328767,-0.3 l -0.476712328767,-0.0205479452055 l -0.0205479452055,-0.349315068493 c -0.0369863013699,-0.628767123288 -0.254794520548,-0.821917808219 -0.928767123288,-0.821917808219 c -0.209589041096,0 -0.406849315068,-0.0123287671233 -0.443835616438,-0.0246575342466 c -0.0534246575342,-0.0205479452055 -0.0657534246575,-0.0945205479452 -0.0657534246575,-0.394520547945 c 0,-0.394520547945 -0.041095890411,-0.517808219178 -0.22602739726,-0.690410958904 c -0.106849315068,-0.102739726027 -0.115068493151,-0.102739726027 -0.978082191781,-0.115068493151 c -1.02328767123,-0.0164383561644 -1.69726027397,0.0328767123288 -2.43287671233,0.176712328767 c -1.27397260274,0.250684931507 -2.07534246575,0.542465753425 -2.76164383562,0.994520547945 c -0.369863013699,0.246575342466 -0.887671232877,0.682191780822 -0.953424657534,0.805479452055 c -0.0287671232877,0.0534246575342 -0.086301369863,0.119178082192 -0.135616438356,0.147945205479 c -0.0739726027397,0.0452054794521 -0.0945205479452,0.0369863013699 -0.209589041096,-0.106849315068 c -0.842465753425,-1.03150684932 -2.67123287671,-1.79589041096 -4.75479452055,-1.98082191781 c -0.52602739726,-0.0452054794521 -2.0301369863,-0.086301369863 -2.15753424658,-0.0575342465753 M 7.47945205479,4.29452054795 c 0.78904109589,0.119178082192 1.61917808219,0.320547945205 2.2397260274,0.546575342466 c 0.267123287671,0.0945205479452 0.916438356164,0.435616438356 1.20821917808,0.624657534247 c 0.332876712329,0.221917808219 0.830136986301,0.706849315068 0.97397260274,0.949315068493 c 0.0575342465753,0.0986301369863 0.123287671233,0.180821917808 0.143835616438,0.180821917808 c 0.0164383561644,0 0.0821917808219,-0.0780821917808 0.135616438356,-0.176712328767 c 0.131506849315,-0.22602739726 0.665753424658,-0.743835616438 0.990410958904,-0.961643835616 c 0.575342465753,-0.386301369863 1.41780821918,-0.735616438356 2.2602739726,-0.941095890411 c 0.945205479452,-0.22602739726 1.3397260274,-0.271232876712 2.51095890411,-0.291780821918 c 0.797260273973,-0.0164383561644 1.13835616438,-0.00821917808219 1.2,0.0246575342466 c 0.184931506849,0.0986301369863 0.234246575342,0.238356164384 0.254794520548,0.743835616438 l 0.0205479452055,0.472602739726 l 0.534246575342,0 c 0.772602739726,0 0.813698630137,0.0328767123288 0.842465753425,0.694520547945 l 0.0205479452055,0.456164383562 l 0.558904109589,0.0205479452055 c 0.398630136986,0.0164383561644 0.579452054795,0.0369863013699 0.628767123288,0.0780821917808 c 0.197260273973,0.164383561644 0.18904109589,-0.11095890411 0.18904109589,6.27123287671 c 0,5.86438356164 0,5.98767123288 -0.0821917808219,6.1397260274 c -0.0534246575342,0.106849315068 -0.123287671233,0.176712328767 -0.213698630137,0.205479452055 c -0.0945205479452,0.0328767123288 -1.32328767123,0.0452054794521 -4.36438356164,0.0452054794521 l -4.23287671233,-0.0041095890411 l -0.0821917808219,0.0986301369863 c -0.217808219178,0.250684931507 -0.6,0.33698630137 -1.35616438356,0.308219178082 c -0.550684931507,-0.0246575342466 -0.743835616438,-0.0821917808219 -0.953424657534,-0.283561643836 l -0.127397260274,-0.123287671233 l -4.24109589041,0.0041095890411 c -4.68493150685,0.0041095890411 -4.39726027397,0.0205479452055 -4.56575342466,-0.258904109589 c -0.0821917808219,-0.127397260274 -0.0821917808219,-0.254794520548 -0.0821917808219,-6.12328767123 c 0,-6.3904109589 -0.00821917808219,-6.11506849315 0.18904109589,-6.27945205479 c 0.0493150684932,-0.041095890411 0.230136986301,-0.0616438356164 0.628767123288,-0.0780821917808 l 0.558904109589,-0.0205479452055 l 0.0205479452055,-0.452054794521 c 0.0205479452055,-0.476712328767 0.0657534246575,-0.612328767123 0.213698630137,-0.665753424658 c 0.0534246575342,-0.0164383561644 0.33698630137,-0.0328767123288 0.628767123288,-0.0328767123288 l 0.534246575342,0 l 0.0205479452055,-0.493150684932 c 0.0205479452055,-0.493150684932 0.0575342465753,-0.632876712329 0.197260273973,-0.719178082192 c 0.0904109589041,-0.0575342465753 2.16575342466,-0.0246575342466 2.59726027397,0.041095890411"/><path d="M 5.3301369863,4.81643835616 c -0.0164383561644,0.0123287671233 -0.0287671232877,2.42465753425 -0.0287671232877,5.35479452055 l 0,5.32602739726 l 0.875342465753,0.0493150684931 c 1.53287671233,0.0904109589041 2.38356164384,0.267123287671 3.32876712329,0.690410958904 c 0.809589041096,0.369863013699 1.52465753425,0.875342465753 1.9602739726,1.38904109589 c 0.123287671233,0.147945205479 0.234246575342,0.271232876712 0.246575342466,0.271232876712 c 0.0205479452055,0 0.0123287671233,-5.19863013699 -0.0123287671233,-8.97945205479 l -0.00821917808219,-1.64383561644 l -0.160273972603,-0.308219178082 c -0.209589041096,-0.398630136986 -0.702739726027,-0.891780821918 -1.15890410959,-1.15479452055 c -0.665753424658,-0.390410958904 -1.73424657534,-0.743835616438 -2.64657534247,-0.875342465753 c -0.875342465753,-0.127397260274 -2.31780821918,-0.201369863014 -2.39589041096,-0.119178082192 m 5.44109589041,2.22739726027 c 0.123287671233,0.0986301369863 0.131506849315,0.341095890411 0.0164383561644,0.452054794521 c -0.0780821917808,0.0739726027397 -0.197260273973,0.0821917808219 -2.1698630137,0.102739726027 c -2.1698630137,0.0287671232877 -2.37123287671,0.0164383561644 -2.45342465753,-0.139726027397 c -0.0657534246575,-0.127397260274 -0.0493150684932,-0.320547945205 0.041095890411,-0.41095890411 c 0.0821917808219,-0.0821917808219 0.135616438356,-0.0821917808219 2.27671232877,-0.0821917808219 c 2.08356164384,0 2.19863013699,0.0041095890411 2.28904109589,0.0780821917808 m 0.0205479452055,1.41369863014 c 0.115068493151,0.135616438356 0.127397260274,0.275342465753 0.0287671232877,0.394520547945 c -0.0739726027397,0.0821917808219 -0.102739726027,0.0821917808219 -2.30136986301,0.0945205479452 c -2.13287671233,0.0123287671233 -2.22739726027,0.00821917808219 -2.3095890411,-0.0657534246575 c -0.164383561644,-0.147945205479 -0.0986301369863,-0.447945205479 0.119178082192,-0.530136986301 c 0.0328767123288,-0.0123287671233 1.03150684932,-0.0205479452055 2.21095890411,-0.0164383561644 l 2.15342465753,0.00821917808219 z m -0.086301369863,1.28630136986 c 0.0986301369863,0.0369863013699 0.18904109589,0.246575342466 0.160273972603,0.361643835616 c -0.0575342465753,0.234246575342 -0.0287671232877,0.230136986301 -2.35890410959,0.230136986301 c -2.13698630137,0 -2.26438356164,-0.00821917808219 -2.35068493151,-0.139726027397 c -0.0616438356164,-0.0904109589041 -0.0328767123288,-0.312328767123 0.0493150684932,-0.394520547945 c 0.0780821917808,-0.0780821917808 0.135616438356,-0.0821917808219 2.25616438356,-0.0821917808219 c 1.19589041096,0 2.20684931507,0.0123287671233 2.24383561644,0.0246575342466 m -0.041095890411,1.38904109589 c 0.18904109589,0.0821917808219 0.254794520548,0.221917808219 0.184931506849,0.394520547945 c -0.0287671232877,0.0739726027397 -0.0986301369863,0.147945205479 -0.152054794521,0.168493150685 c -0.0575342465753,0.0205479452055 -1.0397260274,0.0369863013699 -2.22739726027,0.0369863013699 c -2.09178082192,0 -2.13287671233,0 -2.2397260274,-0.086301369863 c -0.0821917808219,-0.0657534246575 -0.106849315068,-0.119178082192 -0.106849315068,-0.242465753425 c 0,-0.18904109589 0.0739726027397,-0.254794520548 0.324657534247,-0.291780821918 c 0.102739726027,-0.0123287671233 1.0602739726,-0.0287671232877 2.12876712329,-0.0328767123288 c 1.63150684932,-0.0041095890411 1.96438356164,0.00410958904109 2.08767123288,0.0534246575342 m 0.0369863013699,1.38493150685 c 0.119178082192,0.0575342465753 0.209589041096,0.242465753425 0.168493150685,0.361643835616 c -0.0657534246575,0.217808219178 0.0205479452055,0.209589041096 -2.35479452055,0.209589041096 c -2.48630136986,0 -2.39178082192,0.0123287671233 -2.39178082192,-0.287671232877 c 0,-0.123287671233 0.0246575342466,-0.176712328767 0.106849315068,-0.242465753425 c 0.106849315068,-0.086301369863 0.147945205479,-0.086301369863 2.2397260274,-0.086301369863 c 1.49589041096,0 2.15753424658,0.0123287671233 2.23150684932,0.0452054794521 m -0.086301369863,1.35616438356 c 0.304109589041,0.0821917808219 0.357534246575,0.468493150685 0.086301369863,0.575342465753 c -0.0739726027397,0.0246575342466 -0.879452054795,0.0369863013699 -2.25616438356,0.0287671232877 c -2.04657534247,-0.0123287671233 -2.15342465753,-0.0164383561644 -2.23561643836,-0.0904109589041 c -0.0575342465753,-0.0534246575342 -0.086301369863,-0.127397260274 -0.086301369863,-0.230136986301 c 0,-0.172602739726 0.0616438356164,-0.242465753425 0.258904109589,-0.287671232877 c 0.209589041096,-0.0493150684931 4.05205479452,-0.0493150684931 4.23287671233,0.0041095890411 M 17.4452054795,4.81643835616 c -1.18767123288,0.0986301369863 -2.05890410959,0.279452054795 -2.91780821918,0.616438356164 c -0.953424657534,0.369863013699 -1.59863013699,0.879452054795 -1.9602739726,1.55342465753 l -0.176712328767,0.328767123288 L 12.3698630137,12.595890411 c -0.0123287671233,2.90547945205 -0.0205479452055,5.28493150685 -0.0164383561644,5.29315068493 c 0.0041095890411,0.0041095890411 0.131506849315,-0.131506849315 0.287671232877,-0.308219178082 c 0.715068493151,-0.797260273973 2.00136986301,-1.50410958904 3.28356164384,-1.8 c 0.628767123288,-0.147945205479 2.29726027397,-0.304109589041 2.67534246575,-0.250684931507 l 0.180821917808,0.0246575342466 L 18.7808219178,4.78767123288 l -0.583561643836,0.00821917808219 c -0.324657534247,0.0041095890411 -0.661643835616,0.0123287671233 -0.752054794521,0.0205479452055 m -1.6397260274,2.56438356164 c 0.37397260274,0.0657534246575 0.784931506849,0.283561643836 1.1095890411,0.587671232877 c 0.234246575342,0.213698630137 0.324657534247,0.33698630137 0.480821917808,0.649315068493 c 0.456164383562,0.916438356164 0.304109589041,1.89452054795 -0.41095890411,2.64657534247 c -0.143835616438,0.147945205479 -0.258904109589,0.287671232877 -0.258904109589,0.312328767123 c 0,0.0945205479452 0.176712328767,0.320547945205 0.271232876712,0.345205479452 c 0.160273972603,0.041095890411 0.258904109589,0.193150684932 0.727397260274,1.12602739726 c 0.427397260274,0.854794520548 0.439726027397,0.887671232877 0.402739726027,1.04794520548 c -0.102739726027,0.41095890411 -0.653424657534,0.505479452055 -0.895890410959,0.160273972603 c -0.0452054794521,-0.0657534246575 -0.271232876712,-0.48904109589 -0.501369863014,-0.93698630137 c -0.41095890411,-0.797260273973 -0.423287671233,-0.82602739726 -0.398630136986,-1.02739726027 c 0.0205479452055,-0.168493150685 0.00821917808219,-0.234246575342 -0.0575342465753,-0.345205479452 c -0.0616438356164,-0.102739726027 -0.106849315068,-0.131506849315 -0.156164383562,-0.11095890411 c -0.361643835616,0.135616438356 -1.15479452055,0.131506849315 -1.53287671233,-0.0164383561644 c -0.304109589041,-0.115068493151 -0.764383561644,-0.439726027397 -0.97397260274,-0.690410958904 c -0.719178082192,-0.838356164384 -0.719178082192,-2.17397260274 0,-2.99178082192 c 0.558904109589,-0.63698630137 1.35205479452,-0.908219178082 2.19452054795,-0.756164383562"/><path d="M 14.8726027397,7.93150684932 c -0.435616438356,0.160273972603 -0.67397260274,0.332876712329 -0.908219178082,0.661643835616 c -0.287671232877,0.398630136986 -0.33698630137,0.554794520548 -0.341095890411,1.06438356164 c 0,0.435616438356 0.0041095890411,0.464383561644 0.139726027397,0.739726027397 c 0.287671232877,0.583561643836 0.834246575342,0.961643835616 1.43424657534,0.998630136986 c 0.961643835616,0.0534246575342 1.7301369863,-0.550684931507 1.90684931507,-1.50821917808 c 0.115068493151,-0.616438356164 -0.217808219178,-1.35616438356 -0.780821917808,-1.7301369863 c -0.390410958904,-0.258904109589 -1.07671232877,-0.365753424658 -1.45068493151,-0.22602739726 m 0.476712328767,0.365753424658 c 0,0.106849315068 -0.0164383561644,0.123287671233 -0.22602739726,0.176712328767 c -0.123287671233,0.0287671232877 -0.312328767123,0.11095890411 -0.419178082192,0.180821917808 c -0.316438356164,0.205479452055 -0.439726027397,0.439726027397 -0.550684931507,1.04383561644 c -0.0123287671233,0.0657534246575 -0.0287671232877,0.131506849315 -0.041095890411,0.152054794521 c -0.0328767123288,0.0534246575342 -0.168493150685,0.0369863013699 -0.221917808219,-0.0287671232877 c -0.0780821917808,-0.0945205479452 -0.0205479452055,-0.517808219178 0.106849315068,-0.805479452055 c 0.205479452055,-0.456164383562 0.776712328767,-0.871232876712 1.16712328767,-0.850684931507 c 0.172602739726,0.0123287671233 0.184931506849,0.0205479452055 0.184931506849,0.131506849315 M 3.90410958904,6.11095890411 L 3.90410958904,11.7328767123 c -0.0041095890411,5.19863013699 0,5.56849315068 0.0657534246575,5.5602739726 c 0.0369863013699,-0.00410958904109 0.328767123288,-0.0369863013699 0.649315068493,-0.0780821917808 c 0.71095890411,-0.0945205479452 2.65479452055,-0.106849315068 3.27123287671,-0.0246575342466 c 1.41369863014,0.18904109589 2.7,0.661643835616 3.37397260274,1.23287671233 c 0.086301369863,0.0780821917808 0.160273972603,0.119178082192 0.160273972603,0.0986301369863 c 0,-0.123287671233 -0.624657534247,-0.784931506849 -1.00684931507,-1.07260273973 c -1.16712328767,-0.879452054795 -2.50684931507,-1.25753424658 -4.5904109589,-1.29863013699 c -0.505479452055,-0.00821917808219 -0.883561643836,-0.0328767123288 -0.932876712329,-0.0616438356164 c -0.217808219178,-0.115068493151 -0.209589041096,0.106849315068 -0.209589041096,-5.15753424658 L 4.68493150685,6.06164383562 l -0.390410958904,0 c -0.283561643836,0 -0.390410958904,0.0123287671233 -0.390410958904,0.0493150684932 m 15.4931506849,4.76712328767 c 0,3.22191780822 -0.0164383561644,4.8698630137 -0.0452054794521,4.97671232877 c -0.0698630136986,0.254794520548 -0.119178082192,0.267123287671 -1.09315068493,0.291780821918 c -1.23698630137,0.0328767123288 -2.07123287671,0.156164383562 -2.88493150685,0.423287671233 c -0.657534246575,0.213698630137 -1.49178082192,0.682191780822 -1.96438356164,1.09315068493 c -0.217808219178,0.193150684932 -0.682191780822,0.727397260274 -0.657534246575,0.756164383562 c 0.0123287671233,0.00821917808219 0.135616438356,-0.0657534246575 0.279452054795,-0.164383561644 c 0.764383561644,-0.534246575342 1.84931506849,-0.895890410959 3.1602739726,-1.06438356164 c 0.63698630137,-0.0780821917808 2.54383561644,-0.0657534246575 3.22602739726,0.0205479452055 c 0.295890410959,0.041095890411 0.595890410959,0.0821917808219 0.669863013699,0.0945205479452 l 0.131506849315,0.0246575342466 L 20.2191780822,6.06164383562 l -0.821917808219,0 z"/><path d="M 2.52739726027,7.24520547945 c -0.0287671232877,0.0205479452055 -0.0328767123288,1.96438356164 -0.0205479452055,5.76164383562 l 0.0205479452055,5.73287671233 l 4.06849315068,0.00821917808219 l 4.06849315068,0.00821917808219 l -0.102739726027,-0.086301369863 c -0.143835616438,-0.123287671233 -0.780821917808,-0.415068493151 -1.17123287671,-0.542465753425 c -0.949315068493,-0.304109589041 -1.49589041096,-0.37397260274 -2.93835616438,-0.37397260274 c -1.14246575342,0 -1.78767123288,0.0452054794521 -2.43698630137,0.164383561644 c -0.33698630137,0.0616438356164 -0.521917808219,0.0246575342466 -0.645205479452,-0.131506849315 c -0.0821917808219,-0.106849315068 -0.0821917808219,-0.127397260274 -0.0821917808219,-5.31369863014 c 0,-4.71369863014 -0.00821917808219,-5.21095890411 -0.0657534246575,-5.23561643836 c -0.0904109589041,-0.0328767123288 -0.645205479452,-0.0287671232877 -0.694520547945,0.00821917808219 m 18.2876712329,0.0164383561644 c -0.0123287671233,0.0287671232877 -0.0246575342466,2.39589041096 -0.0287671232877,5.2602739726 l -0.0123287671233,5.20273972603 l -0.0986301369863,0.106849315068 c -0.123287671233,0.131506849315 -0.168493150685,0.131506849315 -0.969863013699,0.0205479452055 c -0.891780821918,-0.123287671233 -2.58904109589,-0.152054794521 -3.3698630137,-0.0616438356164 c -0.969863013699,0.119178082192 -1.67260273973,0.312328767123 -2.39178082192,0.661643835616 c -0.254794520548,0.127397260274 -0.464383561644,0.246575342466 -0.464383561644,0.267123287671 c 0,0.0287671232877 1.41780821918,0.041095890411 4.04794520548,0.041095890411 L 21.5753424658,18.7602739726 L 21.5753424658,7.21232876712 l -0.369863013699,0 c -0.258904109589,0 -0.378082191781,0.0164383561644 -0.390410958904,0.0493150684931"/></svg>