<svg xmlns="http://www.w3.org/2000/svg" width="24" height="24" viewBox="0 0 24 24" fill="currentColor"><path d="M 4.839419,3.32104 c -0.211,0.183 -0.232,0.246 -0.267,0.71 l -0.035,0.505 l -0.414,0 c -0.794,0 -1.11,0.26 -1.11,0.92 l 0,0.393 l -0.561,0.035 c -0.653,0.035 -0.899,0.168 -1.032,0.554 c -0.12,0.344 -0.12,13.12 0,13.472 c 0.049,0.133 0.19,0.308 0.323,0.4 l 0.238,0.161 l 8.614,0 l 0.288,0.19 c 0.246,0.161 0.379,0.196 0.905,0.217 c 0.766,0.035 1.032,-0.007 1.362,-0.231 l 0.26,-0.176 l 4.317,0 c 3.953,0 4.339,-0.007 4.528,-0.12 c 0.435,-0.259 0.414,0.078 0.414,-7.244 L 22.669419,6.43104 l -0.231,-0.26 c -0.232,-0.245 -0.26,-0.252 -0.808,-0.287 l -0.575,-0.035 l 0,-0.31 c 0,-0.722 -0.323,-1.003 -1.159,-1.003 l -0.456,0 l 0,-0.499 c 0,-0.456 -0.014,-0.512 -0.217,-0.709 l -0.211,-0.217 l -1.348,0.042 c -1.144,0.028 -1.453,0.063 -2.029,0.21 c -1.291,0.337 -2.358,0.948 -3.152,1.784 l -0.463,0.49 l -0.428,-0.476 c -0.744,-0.815 -1.882,-1.46 -3.166,-1.798 c -0.569,-0.147 -0.885,-0.182 -2.015,-0.21 l -1.34,-0.042 z m 2.492,0.099 c 0.99,0.119 1.621,0.309 2.457,0.73 c 0.863,0.428 1.621,1.053 2.007,1.65 l 0.225,0.343 l 0.19,-0.294 c 0.273,-0.436 0.87,-1.004 1.418,-1.362 c 1.186,-0.766 2.674,-1.145 4.5,-1.145 c 0.708,0 0.765,0.014 0.926,0.176 c 0.155,0.154 0.176,0.225 0.176,0.737 l 0,0.562 l 0.603,0 c 0.33,0 0.66,0.028 0.73,0.07 c 0.169,0.091 0.281,0.435 0.281,0.884 l 0,0.38 l 0.625,0 c 0.61,0 0.632,0.006 0.807,0.217 l 0.183,0.218 l 0,6.507 c 0,4.584 -0.021,6.578 -0.077,6.74 c -0.155,0.435 -0.036,0.428 -4.823,0.428 c -4.198,0 -4.346,0.007 -4.465,0.133 c -0.309,0.344 -1.6,0.365 -2.092,0.042 l -0.267,-0.175 L 6.453419,20.26104 c -4.59,0 -4.584,0 -4.773,-0.344 c -0.05,-0.092 -0.07,-2.36 -0.07,-6.782 l 0,-6.64 l 0.175,-0.17 c 0.154,-0.16 0.225,-0.175 0.807,-0.175 l 0.632,0 l 0,-0.484 c 0,-0.38 0.028,-0.52 0.147,-0.667 c 0.134,-0.175 0.176,-0.182 0.808,-0.182 l 0.66,0 l 0,-0.59 c 0,-0.555 0.014,-0.604 0.182,-0.737 c 0.162,-0.127 0.288,-0.148 0.934,-0.148 c 0.407,0 1.032,0.036 1.376,0.078"/><path d="M 5.470419,9.97604 l 0,6.002 l 0.653,0 c 2.092,0 3.98,0.773 5.21,2.127 l 0.385,0.429 l -0.014,-5.827 l -0.02,-5.82 l -0.162,-0.33 c -0.787,-1.593 -2.9,-2.583 -5.525,-2.583 l -0.527,0 z M 16.787419,4.05104 c -1.98,0.232 -3.63,1.194 -4.226,2.471 l -0.211,0.436 l 0,11.555 l 0.28,-0.323 c 1.173,-1.355 2.872,-2.1 5.02,-2.205 l 0.913,-0.042 L 18.563419,4.00904 l -0.632,-0.007 a 10,10 0 0,0 -1.144,0.05"/><path d="M 3.855419,11.70304 l 0,6.255 l 0.162,-0.042 c 0.87,-0.218 3.349,-0.225 4.402,-0.007 c 1.032,0.21 1.93,0.576 2.534,1.032 c 0.484,0.372 0.534,0.386 0.316,0.084 c -1.11,-1.502 -2.745,-2.26 -5.202,-2.387 c -0.78,-0.042 -0.934,-0.063 -1.067,-0.19 l -0.161,-0.14 L 4.839419,5.44804 L 3.855419,5.44804 z M 19.230419,10.84704 c 0,5.244 -0.007,5.398 -0.14,5.567 c -0.127,0.168 -0.183,0.175 -1.068,0.224 c -2.05,0.106 -3.278,0.527 -4.486,1.524 c -0.301,0.252 -0.905,0.961 -0.905,1.067 c 0,0.028 0.168,-0.078 0.372,-0.232 c 1.102,-0.835 2.73,-1.264 4.823,-1.264 c 0.807,0 1.888,0.092 2.197,0.183 c 0.112,0.035 0.12,-0.295 0.12,-6.213 L 20.143419,5.44804 l -0.913,0 z"/><path d="M 2.241419,13.17004 l 0,6.389 L 6.425419,19.55904 c 3.49,0 4.177,-0.014 4.107,-0.092 c -0.134,-0.161 -1.137,-0.603 -1.713,-0.744 a 11,11 0 0,0 -1.25,-0.217 c -1.137,-0.113 -1.762,-0.099 -3.552,0.105 c -0.4,0.049 -0.442,0.042 -0.61,-0.126 l -0.183,-0.183 L 3.224419,6.78204 l -0.983,0 z M 20.830419,12.53804 l -0.02,5.757 l -0.19,0.19 l -0.19,0.19 l -0.653,-0.092 c -2.211,-0.295 -4.317,-0.105 -5.637,0.52 c -1.025,0.484 -1.25,0.449 3.426,0.456 l 4.19,0 L 21.756419,6.78204 l -0.912,0 z"/></svg>
