<svg xmlns="http://www.w3.org/2000/svg" width="24" height="24" viewBox="0 0 24 24"><path d="M10.948 1.442667C10.833333 1.469333 9.984 1.864 9.052 2.328C8.125333 2.792 6.978666 3.354667 6.510667 3.578667C6.046667 3.806667 4.890667 4.374667 3.948 4.844C3.005333 5.317333 2.109333 5.749333 1.958667 5.806667C1.661333 5.917333 1.156 6.374667 1.036 6.625333C0.912 6.906666 0.874667 7.005333 0.844 7.177333C0.770667 7.546666 0.828 8.270666 0.926667 8.338666C0.953333 8.354666 0.973333 8.401333 0.973333 8.442666C0.973333 8.562666 1.36 9.098666 1.546667 9.24C1.718667 9.369333 2.306667 9.598666 3.770667 10.104C4.478667 10.349333 4.964 10.516 7.562666 11.437333C8.297333 11.697333 8.989333 11.937333 9.104 11.973333C9.213333 12.010666 9.573333 12.14 9.896 12.254666C11.864 12.969333 11.948 12.989333 12.516 12.958666C13.021333 12.932 13.177333 12.869333 14.177333 12.322666C14.958666 11.890666 14.806666 11.978666 17.464 10.536C21.494666 8.354666 22.026666 8.057333 22.150666 7.942666C22.250666 7.838666 22.259999 7.792 22.245333 7.578666C22.213333 7.292 22.114666 7.182666 21.854666 7.177333C21.671999 7.177333 21.702666 7.166666 19.437333 8.401333C18.688 8.812 17.802666 9.292 17.464 9.478666C17.125333 9.661333 16.604 9.937333 16.306666 10.104C16.010666 10.26 15.306666 10.64 14.745333 10.942666C14.177333 11.250666 13.557333 11.588 13.364 11.708C13.036 11.901333 12.978666 11.917333 12.568 11.937333C12.088 11.958666 12.218666 11.994666 10.306666 11.312C9.208 10.921333 7.421333 10.286666 6.745333 10.052C6.437333 9.942666 5.754667 9.702666 5.229333 9.521333C4.708 9.338666 3.849333 9.036 3.317333 8.849333C2.792 8.666666 2.292 8.484 2.213333 8.442666C2 8.328 1.885333 8.177333 1.817333 7.906666C1.693333 7.416 1.912 6.953333 2.312 6.890666C2.478667 6.864 3.812 7.297333 5.718667 8C5.942667 8.082666 6.432 8.250666 6.797333 8.38C7.166666 8.505333 7.833333 8.74 8.281333 8.896C8.734666 9.057333 9.161333 9.202666 9.229333 9.229333C9.302666 9.250666 9.802666 9.426666 10.333333 9.614666C11.406666 9.989333 11.838666 10.062666 12.36 9.953333C12.630666 9.896 13.416 9.5 15.588 8.317333C16.082666 8.052 16.754666 7.688 17.078666 7.510666C17.401333 7.338666 17.849333 7.093333 18.078666 6.973333C18.302666 6.854666 18.625333 6.682666 18.797333 6.588C19.177333 6.38 20.281333 5.786667 20.693333 5.562667C21.869333 4.932 22.125333 4.786667 22.193333 4.677333C22.302666 4.505333 22.254666 4.082667 22.109333 3.953333C21.983999 3.844 21.078666 3.588 19.844 3.302667C19.412 3.202667 18.890666 3.078667 18.693333 3.021333C18.5 2.969333 17.557333 2.74 16.614666 2.505333C15.672 2.276 14.584 2.010667 14.202666 1.912C12.172 1.390667 11.562666 1.302667 10.948 1.442667Z"/><path d="M20.999999 9.473333C20.469333 9.776 19.12 10.516 18.650666 10.765333C17.64 11.292 15.202666 12.609333 14.281333 13.130666C13.973333 13.297333 13.62 13.489333 13.5 13.541333C13.016 13.770666 12.161333 13.792 11.552 13.593333C11.390666 13.536 10.76 13.317333 10.156 13.104C7.885333 12.292 7.598666 12.193333 6.896 11.948C6.5 11.812 5.682667 11.521333 5.078667 11.306666C4.473333 11.093333 3.926667 10.901333 3.869333 10.885333C3.702667 10.844 2.828 11.286666 2.557333 11.541333C2.322667 11.781333 2.104 12.145333 2.104 12.306666C2.104 12.364 2.078667 12.421333 2.052 12.437333C1.984 12.478666 1.984 13.473333 2.052 13.510666C2.082667 13.526666 2.104 13.584 2.104 13.64C2.104 13.76 2.286667 14.104 2.469333 14.322666C2.702667 14.604 2.969333 14.754666 3.745333 15.030666C4.156 15.172 4.636 15.344 4.822667 15.412C5.005333 15.478666 5.792 15.754666 6.562667 16.026666C7.338666 16.297333 8.104 16.568 8.254666 16.625333C8.412 16.682666 9.057333 16.912 9.693333 17.14C10.328 17.364 10.994666 17.604 11.177333 17.666666C13.078666 18.354666 13.328 18.412 13.869333 18.312C14.276 18.24 14.437333 18.161333 18.177333 16.104C18.484 15.932 21.625333 14.213333 22.093333 13.964C22.947999 13.494666 22.999999 13.464 23.093333 13.270666C23.171999 13.104 23.177333 13.068 23.109333 12.906666C23.030666 12.718666 22.895999 12.614666 22.723999 12.614666C22.661333 12.614666 22.087999 12.901333 21.447999 13.250666C19.344 14.396 18.177333 15.036 18.130666 15.078666C18.104 15.098666 17.708 15.312 17.254666 15.552C16.806666 15.792 15.984 16.234666 15.437333 16.536C14.005333 17.328 14.073333 17.297333 13.666666 17.322666C13.276 17.344 13.254666 17.338666 11.489333 16.693333C10.521333 16.344 9.24 15.885333 8.104 15.489333C7.636 15.322666 7.166666 15.156 7.052 15.114666C6.937333 15.068 6.281333 14.833333 5.588 14.588C3.250667 13.765333 3.213333 13.745333 3.041333 13.412C2.921333 13.188 2.932 12.776 3.057333 12.562666C3.197333 12.312 3.489333 12.177333 3.734667 12.245333C3.932 12.302666 4.093333 12.354666 8.281333 13.854666C8.677333 13.994666 9.36 14.234666 9.797333 14.396C10.229333 14.546666 10.682666 14.708 10.797333 14.749333C10.906666 14.792 11.057333 14.844 11.130666 14.869333C11.197333 14.890666 11.521333 15.010666 11.844 15.130666C12.562666 15.390666 12.926666 15.489333 13.229333 15.489333C13.530666 15.489333 14.026666 15.36 14.281333 15.208C14.396 15.145333 14.661333 15 14.869333 14.885333C15.734666 14.421333 16.656 13.926666 17.822666 13.297333C18.5 12.926666 19.354666 12.469333 19.718666 12.270666C23.103999 10.442666 22.969333 10.521333 23.087999 10.292C23.202666 10.057333 23.177333 9.854666 22.994666 9.677333C22.859999 9.536 21.854666 9.229333 21.562666 9.229333C21.478666 9.229333 21.229333 9.338666 20.999999 9.473333Z"/><path d="M4.052 18.609333C4.052 20.598666 4.068 21.338666 4.114667 21.489333C4.150667 21.598666 4.193333 21.693333 4.213333 21.693333C4.24 21.693333 4.254667 21.729333 4.254667 21.775999C4.254667 21.885333 4.76 22.369333 5 22.489333C5.197333 22.587999 5.369333 22.587999 12.510666 22.603999C16.530666 22.609333 19.869333 22.603999 19.932 22.587999C20.067999 22.557333 20.202666 22.322666 20.202666 22.135999C20.202666 22.062666 20.155999 21.947999 20.093333 21.874666L19.973333 21.745333L12.989333 21.739999C9.150666 21.739999 5.849333 21.713333 5.666667 21.693333C5.172 21.630666 4.921333 21.369333 4.921333 20.911999C4.921333 20.593333 5.068 20.354666 5.333333 20.218666L5.557333 20.103999L19.156 20.103999L19.412 19.978666C19.749333 19.828 20.026666 19.510666 20.125333 19.172C20.229333 18.817333 20.245333 15.948 20.145333 15.948C20.067999 15.953333 19.833333 16.078666 18.254666 16.948C17.650666 17.281333 16.885333 17.697333 16.562666 17.869333C16.24 18.046666 15.708 18.333333 15.385333 18.510666C14.442666 19.021333 14.224 19.093333 13.588 19.093333C13 19.093333 13.036 19.104 11.536 18.562666C11.130666 18.416 10.412 18.161333 9.937333 17.994666C9.464 17.833333 9.052 17.682666 9.021333 17.661333C8.984 17.64 8.578666 17.494666 8.109333 17.328C7.245333 17.030666 6.338667 16.702666 5.078667 16.245333C4.697333 16.104 4.306667 15.978666 4.218667 15.964L4.052 15.937333Z"/></svg>
