<svg xmlns="http://www.w3.org/2000/svg" width="24" height="24" viewBox="0 0 24 24"><path d="M4.993151 3.994521C4.79589 4.039726 4.652055 4.146575 4.561644 4.30274C4.479452 4.446575 4.467123 4.524658 4.475342 4.832877C4.479452 5.063014 4.463014 5.20274 4.434247 5.223288C4.409589 5.235616 4.208219 5.247945 3.990411 5.243836C3.645205 5.235616 3.571233 5.247945 3.410959 5.334247C3.152055 5.469863 3.065753 5.634247 3.041096 6.061644L3.020548 6.410959L2.568493 6.431507C2.046575 6.456164 1.886301 6.521918 1.758904 6.764384C1.684932 6.908219 1.684932 7.130137 1.684932 13.006849C1.684932 19.068493 1.684932 19.10137 1.771233 19.236986C1.816438 19.310959 1.923288 19.413699 2.005479 19.467123L2.157534 19.561644L6.419178 19.582192L10.676712 19.60274L10.775342 19.689041C10.828767 19.738356 10.952055 19.820548 11.054795 19.873973C11.231507 19.968493 11.280822 19.972603 12.020548 19.972603C12.747945 19.972603 12.813699 19.964384 13.006849 19.878082C13.121918 19.824658 13.257534 19.738356 13.315068 19.684932L13.421918 19.582192L17.671233 19.573973L21.924658 19.561644L22.084932 19.463014C22.171233 19.409589 22.278082 19.306849 22.319178 19.236986C22.393151 19.113699 22.39726 18.920548 22.39726 12.986301C22.39726 6.990411 22.39726 6.858904 22.315068 6.731507C22.175342 6.49726 22.060274 6.456164 21.538356 6.431507L21.061644 6.410959L21.041096 6.061644C21.00411 5.432877 20.786301 5.239726 20.112329 5.239726C19.90274 5.239726 19.705479 5.227397 19.668493 5.215068C19.615068 5.194521 19.60274 5.120548 19.60274 4.820548C19.60274 4.426027 19.561644 4.30274 19.376712 4.130137C19.269863 4.027397 19.261644 4.027397 18.39863 4.015068C17.375342 3.99863 16.70137 4.047945 15.965753 4.191781C14.691781 4.442466 13.890411 4.734247 13.20411 5.186301C12.834247 5.432877 12.316438 5.868493 12.250685 5.991781C12.221918 6.045205 12.164384 6.110959 12.115068 6.139726C12.041096 6.184932 12.020548 6.176712 11.905479 6.032877C11.063014 5.00137 9.234247 4.236986 7.150685 4.052055C6.624658 4.006849 5.120548 3.965753 4.993151 3.994521ZM7.479452 4.294521C8.268493 4.413699 9.09863 4.615068 9.719178 4.841096C9.986301 4.935616 10.635616 5.276712 10.927397 5.465753C11.260274 5.687671 11.757534 6.172603 11.90137 6.415068C11.958904 6.513699 12.024658 6.59589 12.045205 6.59589C12.061644 6.59589 12.127397 6.517808 12.180822 6.419178C12.312329 6.193151 12.846575 5.675342 13.171233 5.457534C13.746575 5.071233 14.589041 4.721918 15.431507 4.516438C16.376712 4.290411 16.771233 4.245205 17.942466 4.224658C18.739726 4.208219 19.080822 4.216438 19.142466 4.249315C19.327397 4.347945 19.376712 4.487671 19.39726 4.993151L19.417808 5.465753L19.952055 5.465753C20.724658 5.465753 20.765753 5.49863 20.794521 6.160274L20.815068 6.616438L21.373973 6.636986C21.772603 6.653425 21.953425 6.673973 22.00274 6.715068C22.2 6.879452 22.191781 6.60411 22.191781 12.986301C22.191781 18.850685 22.191781 18.973973 22.109589 19.126027C22.056164 19.232877 21.986301 19.30274 21.89589 19.331507C21.80137 19.364384 20.572603 19.376712 17.531507 19.376712L13.29863 19.372603L13.216438 19.471233C12.99863 19.721918 12.616438 19.808219 11.860274 19.779452C11.309589 19.754795 11.116438 19.69726 10.906849 19.49589L10.779452 19.372603L6.538356 19.376712C1.853425 19.380822 2.141096 19.39726 1.972603 19.117808C1.890411 18.990411 1.890411 18.863014 1.890411 12.994521C1.890411 6.60411 1.882192 6.879452 2.079452 6.715068C2.128767 6.673973 2.309589 6.653425 2.708219 6.636986L3.267123 6.616438L3.287671 6.164384C3.308219 5.687671 3.353425 5.552055 3.50137 5.49863C3.554795 5.482192 3.838356 5.465753 4.130137 5.465753L4.664384 5.465753L4.684932 4.972603C4.705479 4.479452 4.742466 4.339726 4.882192 4.253425C4.972603 4.19589 7.047945 4.228767 7.479452 4.294521Z"/><path d="M5.330137 4.816438C5.313699 4.828767 5.30137 7.241096 5.30137 10.171233L5.30137 15.49726L6.176712 15.546575C7.709589 15.636986 8.560274 15.813699 9.505479 16.236986C10.315068 16.606849 11.030137 17.112329 11.465753 17.626027C11.589041 17.773973 11.7 17.89726 11.712329 17.89726C11.732877 17.89726 11.724658 12.69863 11.7 8.917808L11.691781 7.273973L11.531507 6.965753C11.321918 6.567123 10.828767 6.073973 10.372603 5.810959C9.706849 5.420548 8.638356 5.067123 7.726027 4.935616C6.850685 4.808219 5.408219 4.734247 5.330137 4.816438ZM10.771233 7.043836C10.894521 7.142466 10.90274 7.384932 10.787671 7.49589C10.709589 7.569863 10.590411 7.578082 8.617808 7.59863C6.447945 7.627397 6.246575 7.615068 6.164384 7.458904C6.09863 7.331507 6.115068 7.138356 6.205479 7.047945C6.287671 6.965753 6.341096 6.965753 8.482192 6.965753C10.565753 6.965753 10.680822 6.969863 10.771233 7.043836ZM10.791781 8.457534C10.906849 8.593151 10.919178 8.732877 10.820548 8.852055C10.746575 8.934247 10.717808 8.934247 8.519178 8.946575C6.386301 8.958904 6.291781 8.954795 6.209589 8.880822C6.045205 8.732877 6.110959 8.432877 6.328767 8.350685C6.361644 8.338356 7.360274 8.330137 8.539726 8.334247L10.693151 8.342466ZM10.705479 9.743836C10.80411 9.780822 10.894521 9.990411 10.865753 10.105479C10.808219 10.339726 10.836986 10.335616 8.506849 10.335616C6.369863 10.335616 6.242466 10.327397 6.156164 10.19589C6.094521 10.105479 6.123288 9.883562 6.205479 9.80137C6.283562 9.723288 6.341096 9.719178 8.461644 9.719178C9.657534 9.719178 10.668493 9.731507 10.705479 9.743836ZM10.664384 11.132877C10.853425 11.215068 10.919178 11.354795 10.849315 11.527397C10.820548 11.60137 10.750685 11.675342 10.69726 11.69589C10.639726 11.716438 9.657534 11.732877 8.469863 11.732877C6.378082 11.732877 6.336986 11.732877 6.230137 11.646575C6.147945 11.580822 6.123288 11.527397 6.123288 11.40411C6.123288 11.215068 6.19726 11.149315 6.447945 11.112329C6.550685 11.1 7.508219 11.083562 8.576712 11.079452C10.208219 11.075342 10.541096 11.083562 10.664384 11.132877ZM10.70137 12.517808C10.820548 12.575342 10.910959 12.760274 10.869863 12.879452C10.80411 13.09726 10.890411 13.089041 8.515068 13.089041C6.028767 13.089041 6.123288 13.10137 6.123288 12.80137C6.123288 12.678082 6.147945 12.624658 6.230137 12.558904C6.336986 12.472603 6.378082 12.472603 8.469863 12.472603C9.965753 12.472603 10.627397 12.484932 10.70137 12.517808ZM10.615068 13.873973C10.919178 13.956164 10.972603 14.342466 10.70137 14.449315C10.627397 14.473973 9.821918 14.486301 8.445205 14.478082C6.39863 14.465753 6.291781 14.461644 6.209589 14.387671C6.152055 14.334247 6.123288 14.260274 6.123288 14.157534C6.123288 13.984932 6.184932 13.915068 6.382192 13.869863C6.591781 13.820548 10.434247 13.820548 10.615068 13.873973ZM17.445205 4.816438C16.257534 4.915068 15.386301 5.09589 14.527397 5.432877C13.573973 5.80274 12.928767 6.312329 12.567123 6.986301L12.390411 7.315068L12.369863 12.59589C12.357534 15.50137 12.349315 17.880822 12.353425 17.889041C12.357534 17.893151 12.484932 17.757534 12.641096 17.580822C13.356164 16.783562 14.642466 16.076712 15.924658 15.780822C16.553425 15.632877 18.221918 15.476712 18.6 15.530137L18.780822 15.554795L18.780822 4.787671L18.19726 4.79589C17.872603 4.8 17.535616 4.808219 17.445205 4.816438ZM15.805479 7.380822C16.179452 7.446575 16.590411 7.664384 16.915068 7.968493C17.149315 8.182192 17.239726 8.305479 17.39589 8.617808C17.852055 9.534247 17.7 10.512329 16.984932 11.264384C16.841096 11.412329 16.726027 11.552055 16.726027 11.576712C16.726027 11.671233 16.90274 11.89726 16.99726 11.921918C17.157534 11.963014 17.256164 12.115068 17.724658 13.047945C18.152055 13.90274 18.164384 13.935616 18.127397 14.09589C18.024658 14.506849 17.473973 14.60137 17.231507 14.256164C17.186301 14.190411 16.960274 13.767123 16.730137 13.319178C16.319178 12.521918 16.306849 12.493151 16.331507 12.291781C16.352055 12.123288 16.339726 12.057534 16.273973 11.946575C16.212329 11.843836 16.167123 11.815068 16.117808 11.835616C15.756164 11.971233 14.963014 11.967123 14.584932 11.819178C14.280822 11.70411 13.820548 11.379452 13.610959 11.128767C12.891781 10.290411 12.891781 8.954795 13.610959 8.136986C14.169863 7.5 14.963014 7.228767 15.805479 7.380822Z"/><path d="M14.872603 7.931507C14.436986 8.091781 14.19863 8.264384 13.964384 8.593151C13.676712 8.991781 13.627397 9.147945 13.623288 9.657534C13.623288 10.093151 13.627397 10.121918 13.763014 10.39726C14.050685 10.980822 14.59726 11.358904 15.19726 11.39589C16.158904 11.449315 16.927397 10.845205 17.10411 9.887671C17.219178 9.271233 16.886301 8.531507 16.323288 8.157534C15.932877 7.89863 15.246575 7.791781 14.872603 7.931507ZM15.349315 8.29726C15.349315 8.40411 15.332877 8.420548 15.123288 8.473973C15 8.50274 14.810959 8.584932 14.70411 8.654795C14.387671 8.860274 14.264384 9.094521 14.153425 9.69863C14.141096 9.764384 14.124658 9.830137 14.112329 9.850685C14.079452 9.90411 13.943836 9.887671 13.890411 9.821918C13.812329 9.727397 13.869863 9.30411 13.99726 9.016438C14.20274 8.560274 14.773973 8.145205 15.164384 8.165753C15.336986 8.178082 15.349315 8.186301 15.349315 8.29726ZM3.90411 6.110959L3.90411 11.732877C3.9 16.931507 3.90411 17.30137 3.969863 17.293151C4.006849 17.289041 4.29863 17.256164 4.619178 17.215068C5.330137 17.120548 7.273973 17.108219 7.890411 17.190411C9.30411 17.379452 10.590411 17.852055 11.264384 18.423288C11.350685 18.50137 11.424658 18.542466 11.424658 18.521918C11.424658 18.39863 10.8 17.736986 10.417808 17.449315C9.250685 16.569863 7.910959 16.191781 5.827397 16.150685C5.321918 16.142466 4.943836 16.117808 4.894521 16.089041C4.676712 15.973973 4.684932 16.19589 4.684932 10.931507L4.684932 6.061644L4.294521 6.061644C4.010959 6.061644 3.90411 6.073973 3.90411 6.110959ZM19.39726 10.878082C19.39726 14.1 19.380822 15.747945 19.352055 15.854795C19.282192 16.109589 19.232877 16.121918 18.258904 16.146575C17.021918 16.179452 16.187671 16.30274 15.373973 16.569863C14.716438 16.783562 13.882192 17.252055 13.409589 17.663014C13.191781 17.856164 12.727397 18.390411 12.752055 18.419178C12.764384 18.427397 12.887671 18.353425 13.031507 18.254795C13.79589 17.720548 14.880822 17.358904 16.191781 17.190411C16.828767 17.112329 18.735616 17.124658 19.417808 17.210959C19.713699 17.252055 20.013699 17.293151 20.087671 17.305479L20.219178 17.330137L20.219178 6.061644L19.39726 6.061644Z"/><path d="M2.527397 7.245205C2.49863 7.265753 2.494521 9.209589 2.506849 13.006849L2.527397 18.739726L6.59589 18.747945L10.664384 18.756164L10.561644 18.669863C10.417808 18.546575 9.780822 18.254795 9.390411 18.127397C8.441096 17.823288 7.894521 17.753425 6.452055 17.753425C5.309589 17.753425 4.664384 17.79863 4.015068 17.917808C3.678082 17.979452 3.493151 17.942466 3.369863 17.786301C3.287671 17.679452 3.287671 17.658904 3.287671 12.472603C3.287671 7.758904 3.279452 7.261644 3.221918 7.236986C3.131507 7.20411 2.576712 7.208219 2.527397 7.245205ZM20.815068 7.261644C20.80274 7.290411 20.790411 9.657534 20.786301 12.521918L20.773973 17.724658L20.675342 17.831507C20.552055 17.963014 20.506849 17.963014 19.705479 17.852055C18.813699 17.728767 17.116438 17.7 16.335616 17.790411C15.365753 17.909589 14.663014 18.10274 13.943836 18.452055C13.689041 18.579452 13.479452 18.69863 13.479452 18.719178C13.479452 18.747945 14.89726 18.760274 17.527397 18.760274L21.575342 18.760274L21.575342 7.212329L21.205479 7.212329C20.946575 7.212329 20.827397 7.228767 20.815068 7.261644Z"/></svg>
