<svg xmlns="http://www.w3.org/2000/svg" width="24" height="24" viewBox="0 0 24 24"><path d="M5.04712 3.891099C4.720419 3.920419 4.510995 4.033508 4.427225 4.226178C4.402094 4.284817 4.372775 4.540314 4.360209 4.795812L4.335079 5.256545L3.790576 5.277487C3.308901 5.294241 3.229319 5.310995 3.107853 5.394764C2.902618 5.54555 2.86911 5.633508 2.848168 6.157068L2.827225 6.638743L2.366492 6.659686C1.884817 6.680628 1.805236 6.705759 1.633508 6.890052L1.528796 7.003141L1.51623 13.189529L1.507853 19.380105L1.6 19.497382C1.788482 19.736126 1.595812 19.727749 6.270157 19.727749L10.580105 19.727749L10.793717 19.891099C11.099476 20.117277 11.334031 20.167539 12.104712 20.167539C12.862827 20.167539 13.118325 20.108901 13.390576 19.874346L13.562304 19.727749L17.880628 19.727749C22.127749 19.727749 22.203141 19.727749 22.366492 19.643979C22.684817 19.480628 22.659686 20.008377 22.659686 13.18534C22.659686 7.191623 22.659686 7.053403 22.575916 6.92356C22.45445 6.718325 22.349738 6.680628 21.82199 6.659686L21.340314 6.638743L21.319372 6.157068C21.285864 5.382199 21.176963 5.277487 20.406283 5.277487C20.150785 5.277487 19.91623 5.264921 19.878534 5.252356C19.824084 5.231414 19.811518 5.147644 19.811518 4.779058C19.811518 4.27644 19.757068 4.134031 19.509948 3.974869C19.375916 3.895288 19.325654 3.891099 18.282723 3.907853C16.8 3.937173 16.008377 4.067016 14.743455 4.502618C13.570681 4.904712 12.875393 5.37801 12.150785 6.265969C12.092147 6.332984 12.079581 6.328796 11.983246 6.194764C11.195812 5.147644 9.813613 4.431414 7.874346 4.067016C7.103665 3.924607 5.700524 3.836649 5.04712 3.891099ZM7.267016 4.732984C8.376963 4.900524 9.176963 5.135079 9.956021 5.528796C10.768586 5.943455 11.237696 6.379058 11.560209 7.011518L11.748691 7.384293L11.75288 12.594764C11.75288 15.459686 11.740314 17.813613 11.72356 17.826178C11.706806 17.834555 11.551832 17.704712 11.375916 17.532984C11.00733 17.168586 10.672251 16.921466 10.131937 16.615707C8.908901 15.924607 7.794764 15.648168 6.052356 15.593717C5.562304 15.581152 5.189529 15.551832 5.160209 15.526702C5.114136 15.489005 5.105759 14.642932 5.126702 10.601047C5.139267 7.91623 5.147644 5.465969 5.151832 5.156021L5.151832 4.594764L5.918325 4.619895C6.337173 4.632461 6.944503 4.682723 7.267016 4.732984ZM19.049215 10.048168C19.053403 13.721466 19.045026 15.484817 19.015707 15.518325C18.986387 15.556021 18.810471 15.572775 18.458639 15.576963C16.732984 15.593717 15.250262 15.937173 14.115183 16.582199C13.549738 16.904712 13.197906 17.164398 12.850262 17.51623C12.674346 17.696335 12.506806 17.842932 12.481675 17.842932C12.452356 17.842932 12.439791 16.242932 12.439791 12.674346C12.439791 7.635602 12.443979 7.497382 12.52356 7.237696C12.887958 6.060733 14.437696 5.13089 16.640838 4.774869C17.369634 4.657592 17.851309 4.615707 18.492147 4.624084L19.036649 4.628272ZM4.364398 10.998953L4.376963 15.966492L4.527749 16.100524L4.674346 16.238743L5.541361 16.263874C6.856545 16.305759 7.685864 16.435602 8.565445 16.728796C9.089005 16.904712 9.830366 17.26911 10.228272 17.54555C10.596859 17.801047 11.141361 18.299476 11.241885 18.471204C11.329843 18.626178 11.308901 18.617801 11.019895 18.395812C10.617801 18.090052 9.842932 17.759162 9.097382 17.574869C7.61466 17.206283 6.240838 17.172775 3.803141 17.453403L3.602094 17.478534L3.602094 12.012565C3.602094 9.005236 3.589529 6.429319 3.576963 6.286911L3.547644 6.031414L4.356021 6.031414ZM20.565445 11.748691C20.565445 17.164398 20.561257 17.465969 20.494241 17.465969C20.452356 17.465969 20.230366 17.436649 20.004188 17.403141C18.559162 17.18534 16.699476 17.231414 15.371728 17.51623C14.525654 17.696335 13.457592 18.127749 13.256545 18.366492C13.231414 18.395812 13.135079 18.45445 13.034555 18.504712L12.858639 18.588482L12.950785 18.458639C13.26911 18.010471 13.951832 17.470157 14.62199 17.13089C15.710995 16.582199 16.93822 16.318325 18.638743 16.263874L19.497382 16.238743L19.656545 16.08377L19.811518 15.924607L19.811518 6.031414L20.565445 6.031414ZM2.848168 12.649215C2.864921 16.925654 2.877487 17.922513 2.92356 18.002094C2.957068 18.056545 3.06178 18.136126 3.158115 18.17801C3.304712 18.245026 3.375916 18.253403 3.602094 18.219895C5.637696 17.922513 7.275393 17.926702 8.649215 18.224084C9.285864 18.362304 10.475393 18.831414 10.487958 18.95288C10.492147 18.998953 2.534031 19.040838 2.358115 18.994764L2.26178 18.973822L2.26178 7.367539L2.546597 7.380105L2.827225 7.39267ZM21.897382 7.42199C21.935079 7.459686 21.947644 8.804188 21.947644 13.218848C21.947644 18.567539 21.943455 18.965445 21.87644 18.990576C21.775916 19.028272 13.763351 19.015707 13.700524 18.97801C13.553927 18.885864 14.64712 18.412565 15.39267 18.240838C16.60733 17.964398 18.312042 17.922513 19.937173 18.136126C20.783246 18.249215 20.887958 18.249215 21.063874 18.161257C21.331937 18.018848 21.319372 18.328796 21.319372 12.586387L21.319372 7.371728L21.583246 7.371728C21.734031 7.371728 21.868063 7.39267 21.897382 7.42199Z"/><path d="M6.077487 7.06178C5.939267 7.237696 5.968586 7.380105 6.161257 7.47644C6.257592 7.53089 6.626178 7.539267 8.452356 7.539267C10.588482 7.539267 10.630366 7.539267 10.739267 7.451309C10.873298 7.346597 10.885864 7.158115 10.764398 7.036649C10.680628 6.95288 10.626178 6.95288 8.423037 6.95288L6.161257 6.95288ZM6.094241 8.435602C5.960209 8.569634 5.960209 8.686911 6.094241 8.816754L6.194764 8.921466L10.668063 8.921466L10.756021 8.825131C10.860733 8.712042 10.873298 8.55288 10.789529 8.435602C10.73089 8.360209 10.651309 8.356021 8.464921 8.343455L6.198953 8.33089ZM6.110995 9.838743C5.960209 9.989529 5.956021 10.090052 6.098429 10.224084L6.20733 10.324607L8.305759 10.337173C9.46178 10.34555 10.471204 10.337173 10.546597 10.324607C10.835602 10.270157 10.936126 10.010471 10.743455 9.82199L10.642932 9.717277L6.232461 9.717277ZM6.094241 11.246073C5.968586 11.371728 5.964398 11.472251 6.077487 11.618848L6.161257 11.727749L10.67644 11.727749L10.760209 11.618848C10.86911 11.47644 10.873298 11.334031 10.764398 11.225131C10.680628 11.141361 10.626178 11.141361 8.439791 11.141361L6.194764 11.141361ZM6.098429 12.628272C5.964398 12.753927 5.960209 12.900524 6.085864 13.017801L6.182199 13.109948L10.67644 13.109948L10.764398 13.017801C10.881675 12.887958 10.873298 12.71623 10.739267 12.611518C10.630366 12.52356 10.588482 12.52356 8.418848 12.52356L6.211518 12.52356ZM6.198953 13.956021C6.102618 13.989529 5.989529 14.15288 5.989529 14.253403C5.989529 14.295288 6.035602 14.374869 6.094241 14.433508L6.198953 14.53822L8.443979 14.525654L10.689005 14.513089L10.768586 14.412565C10.86911 14.291099 10.86911 14.148691 10.776963 14.039791C10.701571 13.956021 10.659686 13.951832 8.490052 13.939267C7.271204 13.93089 6.245026 13.939267 6.198953 13.956021ZM14.994764 7.363351C14.420942 7.518325 13.842932 7.958115 13.532984 8.477487C13.264921 8.929843 13.168586 9.650262 13.298429 10.215707C13.482723 10.994764 14.140314 11.664921 14.931937 11.874346C15.246073 11.958115 15.824084 11.958115 16.121466 11.878534C16.24712 11.845026 16.364398 11.824084 16.38534 11.836649C16.402094 11.849215 16.456545 11.932984 16.502618 12.025131C16.569634 12.154974 16.582199 12.234555 16.561257 12.389529C16.536126 12.57801 16.55288 12.624084 16.820942 13.13089C16.975916 13.432461 17.18534 13.838743 17.290052 14.043979C17.486911 14.441885 17.595812 14.534031 17.859686 14.534031C17.939267 14.534031 18.056545 14.513089 18.115183 14.48377C18.232461 14.429319 18.387435 14.173822 18.387435 14.035602C18.387435 13.943455 17.587435 12.364398 17.440838 12.163351C17.390576 12.092147 17.290052 12.008377 17.223037 11.983246C17.143455 11.949738 17.059686 11.857592 16.988482 11.731937L16.879581 11.53089L17.084817 11.359162C17.470157 11.036649 17.763351 10.475393 17.84712 9.914136C17.997906 8.887958 17.327749 7.798953 16.309948 7.426178C15.920419 7.28377 15.371728 7.258639 14.994764 7.363351ZM15.886911 7.853403C16.734787 8.031354 17.341526 8.779724 17.340313 9.646073C17.340314 10.052356 17.260733 10.328796 17.055497 10.626178C16.837696 10.948691 16.636649 11.124607 16.293194 11.28377C16.037696 11.405236 15.991623 11.413613 15.539267 11.413613C15.074346 11.413613 15.045026 11.409424 14.764398 11.271204C14.433508 11.107853 14.090052 10.789529 13.947644 10.508901C13.470157 9.579058 13.842932 8.427225 14.760209 7.979058C15.137173 7.794764 15.44712 7.761257 15.886911 7.853403Z"/><path d="M15.091099 8.184293C14.693194 8.314136 14.286911 8.686911 14.161257 9.04712C14.043979 9.386387 14.010471 9.717277 14.085864 9.82199C14.182199 9.947644 14.265969 9.842932 14.299476 9.566492C14.370681 8.967539 14.701571 8.573822 15.267016 8.418848C15.484817 8.356021 15.518325 8.335079 15.518325 8.24712C15.518325 8.163351 15.493194 8.146597 15.39267 8.13822C15.325654 8.134031 15.187435 8.154974 15.091099 8.184293Z"/></svg>
