<svg xmlns="http://www.w3.org/2000/svg" width="24" height="24" viewBox="0 0 24 24"><path d="M17.5 2C18.879999 2 20 3.12 20 4.5V19.5C20 20.879999 18.879999 21.999998 17.5 21.999998H4.250667C3.833333 21.999998 3.5 21.666666 3.5 21.250666C3.5 20.833332 3.833333 20.499998 4.250667 20.499998H17.5C18.052 20.499998 18.5 20.051998 18.5 19.5H4.250667C3.833333 19.5 3.5 19.166666 3.5 18.749332V4.5C3.5 3.12 4.62 2 6 2ZM9.917333 8.349333V14.073333H12.088C12.516 14.073333 12.86 14.036 13.114666 13.953333C13.453333 13.844 13.724 13.693333 13.926666 13.494666C14.193333 13.24 14.396 12.901333 14.541333 12.484C14.656 12.14 14.713333 11.734666 14.713333 11.265333C14.713333 10.729333 14.650666 10.281333 14.526666 9.917333C14.401333 9.546666 14.218666 9.24 13.978666 8.984C13.74 8.734666 13.453333 8.557333 13.12 8.458666C12.869333 8.385333 12.505333 8.349333 12.026666 8.349333ZM4.584 14.073333H5.74V11.912H6.494667C7.016 11.912 7.416 11.885333 7.693333 11.833333C7.896 11.786666 8.093333 11.697333 8.292 11.562666C8.489333 11.421333 8.650666 11.234666 8.776 10.994666C8.906666 10.754666 8.969333 10.458666 8.969333 10.109333C8.969333 9.650666 8.86 9.281333 8.636 8.994666C8.416 8.708 8.14 8.521333 7.812 8.432C7.598666 8.374666 7.14 8.349333 6.437333 8.349333H4.584ZM15.702666 14.073333H16.860001V11.64H19.250666V10.672H16.860001V9.317333H19.630667V8.349333H15.702666ZM11.073333 9.317333H11.588C12.062666 9.317333 12.38 9.333333 12.541333 9.369333C12.754666 9.416 12.932 9.510666 13.073333 9.64C13.213333 9.776 13.322666 9.958666 13.401333 10.193333C13.478666 10.432 13.521333 10.770666 13.521333 11.213333C13.521333 11.656 13.478666 12.005333 13.401333 12.265333C13.322666 12.521333 13.224 12.702666 13.098666 12.817333C12.973333 12.926666 12.822666 13.005333 12.636 13.052C12.489333 13.088 12.254666 13.109333 11.932 13.109333H11.073333ZM5.74 9.317333H6.297333C6.713333 9.317333 6.989333 9.328 7.130666 9.354666C7.317333 9.390666 7.469333 9.473333 7.593333 9.609333C7.713333 9.745333 7.776 9.917333 7.776 10.125333C7.776 10.292 7.734666 10.442666 7.645333 10.573333C7.557333 10.697333 7.437333 10.792 7.286666 10.854666C7.130666 10.912 6.828 10.942666 6.369333 10.942666H5.74Z"/></svg>
