<svg xmlns="http://www.w3.org/2000/svg" width="24" height="24" viewBox="0 0 24 24"><path d="M5.017065 3.968601C5.152218 3.919454 5.340614 3.911263 6.122867 3.931741C7.85529 3.972696 8.801365 4.136519 9.870307 4.591126C10.668942 4.926962 11.389761 5.434812 11.791126 5.938567C11.88942 6.061433 11.991809 6.163823 12.020478 6.163823C12.049147 6.163823 12.106485 6.114676 12.14744 6.053242C12.446416 5.627304 13.068942 5.119454 13.642321 4.828669C14.932423 4.18157 16.07099 3.948123 18.020477 3.935836C18.880547 3.931741 18.950171 3.935836 19.085323 4.013652C19.318771 4.152901 19.388395 4.324915 19.396587 4.759044C19.400682 4.967918 19.417065 5.156314 19.433447 5.180887C19.449829 5.205461 19.650513 5.221843 19.941298 5.221843C20.375427 5.221843 20.436859 5.230034 20.559727 5.311945C20.809555 5.483959 20.858704 5.594539 20.879181 6C20.891468 6.200683 20.90785 6.368601 20.924232 6.372696C20.93652 6.372696 21.153584 6.376792 21.403414 6.380887C21.817064 6.389078 21.870308 6.39727 22.021843 6.499659C22.068394 6.5303 22.107738 6.544663 22.140985 6.567791C22.322426 6.693999 22.322323 7.081197 22.321058 11.798893C22.320944 12.22543 22.32082 12.687368 22.32082 13.187713V19.482594L22.230717 19.642321C22.18157 19.732424 22.075085 19.847099 21.993174 19.896246L21.849829 19.986347L17.541298 20.006826C13.249147 20.027304 13.23686 20.027304 13.138567 20.113312C12.888737 20.338568 12.380887 20.436859 11.713311 20.395905C11.303754 20.367235 11.078498 20.293514 10.840956 20.113312L10.701706 20.006826H2.264846L2.092833 19.912628C1.994539 19.863482 1.859386 19.740614 1.785666 19.642321L1.658703 19.466211L1.650512 13.400683C1.642321 9.956314 1.654608 7.212287 1.675085 7.056655C1.74471 6.556997 1.945392 6.413652 2.641638 6.372696L3.09215 6.348123L3.137201 5.975427C3.215017 5.348805 3.329693 5.254608 4.075085 5.221843L4.566553 5.201365L4.587031 4.771331C4.607509 4.378157 4.619795 4.324915 4.72628 4.185666C4.791809 4.103754 4.845051 4.03413 4.849147 4.03413C4.849147 4.03413 4.926962 4.005461 5.017065 3.968601ZM6.782253 4.156997C6.159727 4.116041 5.299659 4.111945 5.131741 4.14471C5.082594 4.152901 4.992491 4.21843 4.935154 4.283959C4.83686 4.40273 4.832765 4.431399 4.832765 4.918771V5.426621H4.243003C3.669625 5.426621 3.649147 5.430717 3.52628 5.533106C3.370648 5.660068 3.317406 5.848464 3.317406 6.253925V6.573379H2.817747C2.232082 6.573379 2.072355 6.626621 1.957679 6.860068C1.888055 6.995222 1.883959 7.380205 1.883959 13.16314C1.883959 19.257338 1.883959 19.326962 1.96587 19.494881C2.010922 19.589079 2.101024 19.691467 2.162457 19.720137C2.25256 19.765188 3.079863 19.78157 6.573379 19.793858L10.87372 19.81024L11.000683 19.92901C11.189078 20.109215 11.443003 20.170649 12.016382 20.170649C12.606143 20.170649 12.778157 20.129692 13.027986 19.92901L13.216382 19.777473L17.430717 19.793858C21.210922 19.806143 21.661432 19.797953 21.812969 19.740614C21.862379 19.722086 21.90378 19.717899 21.938448 19.700388C22.117367 19.610008 22.116982 19.164673 22.112991 14.560804V14.56071C22.112629 14.141253 22.112234 13.687276 22.111944 13.195904C22.111944 8.543345 22.099659 7.007509 22.062799 6.901024C22.02594 6.794539 21.968601 6.733106 21.829351 6.663481C21.673719 6.585666 21.583618 6.573379 21.165871 6.573379H20.682594V6.270307C20.682594 5.848464 20.64983 5.725597 20.490103 5.56587L20.350853 5.426621H19.167234V4.943345C19.167234 4.079181 19.101706 4.050512 17.266893 4.156997C15.518089 4.259386 14.207509 4.648464 13.167235 5.38157C12.786348 5.647782 12.380887 6.045051 12.176109 6.356314C12.094198 6.475085 12.016382 6.573379 12.004096 6.573379C11.987713 6.573379 11.901706 6.466894 11.807509 6.335836C10.869625 5.053925 9.141297 4.300341 6.782253 4.156997ZM5.447099 15.939932V4.718089L6.286689 4.742662C7.195904 4.775427 7.879863 4.849147 8.457338 4.9843C9.800683 5.295563 10.918771 5.979522 11.385666 6.778157C11.432267 6.85769 11.471232 6.914787 11.50385 6.975306C11.67073 7.28494 11.671427 7.68414 11.678326 11.635923C11.678967 12.002861 11.67966 12.400429 11.680546 12.831399C11.68873 15.781787 11.68056 18.196571 11.66829 18.196592L11.668259 18.196587C11.655973 18.188396 11.545392 18.073721 11.422526 17.934471C10.324915 16.701706 8.580205 16.050512 6.155631 15.964505ZM16.853243 4.795904C17.234131 4.76314 17.774744 4.738567 18.053242 4.734471L18.5529 4.730375V15.939932L17.848463 15.964505C15.96041 16.030033 14.592491 16.402731 13.453925 17.16041C13.113993 17.385666 12.683959 17.774744 12.454608 18.061434L12.327645 18.225256L12.335836 12.774061L12.348123 7.322867L12.532423 6.958362C12.925597 6.1843 13.773379 5.557679 14.965188 5.16041C15.595904 4.94744 16.083277 4.853242 16.853243 4.795904ZM20.678497 7.216382C20.682594 7.2 20.862799 7.191809 21.08396 7.195904L21.48123 7.208191L21.493515 13.195904L21.501705 19.187714H13.249147L13.576792 18.995222C14.281229 18.58157 14.825939 18.421843 16.136518 18.237543C16.72628 18.15563 18.765869 18.172014 19.372013 18.262115C20.36314 18.409555 20.453241 18.40546 20.580206 18.196587C20.662115 18.061434 20.662115 17.983618 20.670307 12.65529C20.674402 9.681911 20.678497 7.232765 20.678497 7.216382ZM2.588396 7.220478C2.641638 7.212287 2.825939 7.212287 3.002048 7.220478L3.317406 7.23686V12.565188C3.317406 16.095564 3.333788 17.950853 3.358362 18.049147C3.382935 18.131058 3.45256 18.241638 3.513993 18.290785C3.612287 18.368601 3.657338 18.376793 3.931741 18.352219C4.099659 18.339931 4.443686 18.303072 4.68942 18.266212C5.340614 18.176109 6.823208 18.143345 7.494881 18.200684C8.744027 18.311262 9.45256 18.483276 10.21843 18.872355C10.275232 18.900927 10.329775 18.926926 10.379393 18.950579C10.523746 19.019392 10.626406 19.068331 10.621774 19.102892C10.610364 19.188019 9.947938 19.185886 7.653846 19.178499C7.344615 19.177504 7.005738 19.176413 6.634812 19.175426L2.518771 19.167234L2.506485 13.2L2.498294 7.232765ZM3.984983 6.024573C4.009556 6.012287 4.07099 6.012287 4.116041 6.020478C4.161092 6.032765 4.341297 6.040956 4.517406 6.040956H4.832765V11.127645C4.832765 16.095564 4.83686 16.222527 4.914676 16.349487C5.049829 16.570648 5.098976 16.582935 6.1843 16.611605C7.703754 16.656654 8.694881 16.857338 9.587713 17.30785C10.398635 17.71331 11.135836 18.352219 11.426621 18.896929C11.471672 18.982935 11.45529 18.97884 11.299659 18.851877C10.824573 18.466894 10.283959 18.184299 9.63686 17.983618C8.465529 17.619114 8.072355 17.569965 6.348123 17.569965C5.086689 17.569965 4.730375 17.590445 4.087372 17.696928L3.931741 17.725597V11.885324C3.931741 7.253242 3.944027 6.045051 3.984983 6.024573ZM19.195904 6.024573C19.212288 6.008191 19.408875 6.004096 19.63413 6.008191L20.047783 6.020478L20.060068 11.832082C20.064163 15.030717 20.051876 17.664164 20.035496 17.680546C20.015017 17.701023 19.789761 17.684643 19.53174 17.647781C18.905119 17.561775 16.963823 17.524916 16.267576 17.586348C14.809556 17.721502 13.544027 18.159727 12.749488 18.810923C12.630717 18.905119 12.532423 18.974745 12.532423 18.958363C12.532423 18.819113 13.376109 17.954948 13.78157 17.684643C14.563823 17.16041 15.473038 16.836861 16.58703 16.685324C16.779522 16.660751 17.369284 16.627987 17.897612 16.6157C18.987032 16.582935 19.048464 16.566553 19.122185 16.29215C19.150852 16.185665 19.167234 14.469625 19.167234 11.094881C19.167234 8.322184 19.179522 6.040956 19.195904 6.024573ZM17.549488 14.539249C17.434813 14.486007 17.074404 14.477816 15.45256 14.481911C14.047782 14.481911 13.453925 14.498294 13.351536 14.531058C13.105802 14.617065 13.077133 14.936519 13.298294 15.079863C13.400683 15.149488 13.564505 15.153584 15.473038 15.145392C17.262798 15.137201 17.549488 15.12901 17.635494 15.071672C17.840273 14.940614 17.791126 14.637543 17.549488 14.539249ZM17.606827 7.269625C17.561775 7.245051 16.701706 7.228669 15.440273 7.228669H13.34744L13.249147 7.331058C13.118089 7.45802 13.118089 7.601365 13.245051 7.748805L13.343345 7.863481L15.395222 7.875768C17.238226 7.883959 17.463482 7.879863 17.590445 7.81843C17.676451 7.777474 17.746075 7.711945 17.758362 7.654608C17.791126 7.531741 17.705118 7.322867 17.606827 7.269625ZM17.569965 8.715358C17.422525 8.641638 13.45802 8.641638 13.31058 8.715358C13.101706 8.821843 13.101706 9.157679 13.31058 9.264164C13.388396 9.305119 13.896246 9.317406 15.45256 9.317406C17.320137 9.317406 17.504436 9.313311 17.615017 9.247782C17.832083 9.116724 17.807508 8.83413 17.569965 8.715358ZM10.730375 7.31058C10.65256 7.232765 10.595222 7.228669 8.543345 7.228669C6.597952 7.228669 6.43413 7.232765 6.356314 7.298294C6.188396 7.441638 6.237543 7.716041 6.446416 7.81843C6.569283 7.875768 6.827304 7.883959 8.592491 7.883959C10.558362 7.883959 10.599317 7.883959 10.705802 7.797952C10.840956 7.691468 10.857338 7.437543 10.730375 7.31058ZM10.72628 14.576109C10.644369 14.502389 10.54198 14.498294 8.5843 14.490102C7.45802 14.486007 6.503754 14.494198 6.47099 14.506485C6.241638 14.592491 6.188396 14.883276 6.372696 15.05529L6.479181 15.153584L8.572014 15.137201C10.375425 15.124656 10.73054 15.131325 10.797958 14.99535C10.81448 14.962029 10.813725 14.920142 10.812772 14.867308C10.812536 14.854204 10.812287 14.840426 10.812287 14.825939C10.812287 14.703072 10.787713 14.633447 10.72628 14.576109ZM10.734471 10.214334C10.644369 10.140614 10.529693 10.136519 8.539249 10.136519C6.58157 10.136519 6.43413 10.140614 6.348123 10.210239C6.282594 10.263481 6.25802 10.32901 6.25802 10.443686C6.25802 10.627986 6.356314 10.734471 6.565188 10.771331C6.638908 10.783618 7.584983 10.791809 8.670307 10.783618C10.619795 10.771331 10.648464 10.771331 10.734471 10.685324C10.857338 10.558362 10.857338 10.312628 10.734471 10.214334ZM17.598635 11.647782C17.475767 11.574061 17.369284 11.569966 15.440273 11.569966C14.051877 11.574061 13.388396 11.586348 13.331058 11.619113C13.122184 11.733788 13.085324 11.946758 13.253242 12.106485L13.359727 12.204778L15.370648 12.217065C17.475767 12.229352 17.647781 12.217065 17.737885 12.057338C17.807508 11.92628 17.74198 11.737884 17.598635 11.647782ZM17.635494 10.230717 17.524916 10.136519H13.34744L13.249147 10.238908C13.118089 10.36587 13.118089 10.509215 13.245051 10.656655L13.343345 10.771331H17.56587L17.655973 10.681229C17.787031 10.554266 17.778839 10.353584 17.635494 10.230717ZM10.705802 8.748123C10.599317 8.662116 10.558362 8.662116 8.539249 8.662116C6.520137 8.662116 6.479181 8.662116 6.372696 8.748123C6.233447 8.858703 6.22116 9.100341 6.352218 9.219113C6.43413 9.292833 6.540614 9.296928 8.543345 9.309215C10.607509 9.317406 10.648464 9.317406 10.730375 9.235495C10.857338 9.108532 10.840956 8.854608 10.705802 8.748123ZM10.681229 11.635495C10.599317 11.578157 10.353584 11.569966 8.535154 11.569966C6.520137 11.569966 6.479181 11.569966 6.372696 11.655973C6.233447 11.766553 6.22116 12.008191 6.352218 12.126962C6.43413 12.200683 6.540614 12.204778 8.490102 12.217065C9.948123 12.225256 10.574744 12.212969 10.65256 12.180205C10.869625 12.090102 10.886007 11.77884 10.681229 11.635495ZM17.582253 13.08942C17.516724 13.056655 16.840956 13.044369 15.399317 13.044369H13.314676L13.232765 13.150853C13.183618 13.212287 13.146758 13.302389 13.146758 13.351536C13.146758 13.400683 13.183618 13.490785 13.232765 13.552218L13.314676 13.658703H17.57406L17.672356 13.556314C17.729692 13.503072 17.774744 13.429352 17.774744 13.396587C17.774744 13.281911 17.684643 13.134471 17.582253 13.08942ZM10.730375 13.12628C10.65256 13.048464 10.595222 13.044369 8.54744 13.044369C8.459011 13.044369 8.374003 13.044352 8.292286 13.044335C6.683797 13.044016 6.349729 13.043949 6.28219 13.178089C6.264484 13.213255 6.265097 13.257644 6.265871 13.31367C6.266038 13.325744 6.266212 13.338358 6.266212 13.351536C6.266212 13.365108 6.26602 13.37808 6.265836 13.390481C6.265014 13.445997 6.264363 13.49002 6.281868 13.524946C6.349102 13.659122 6.684206 13.659056 8.306349 13.658736H8.306487C8.388899 13.65872 8.474633 13.658703 8.563823 13.658703C10.558362 13.658703 10.681229 13.654608 10.742662 13.584983C10.840956 13.478498 10.832765 13.228669 10.730375 13.12628Z"/></svg>
