<svg xmlns="http://www.w3.org/2000/svg" width="24" height="24" viewBox="0 0 24 24"><path d="M5.460274 4.528219C5.276165 4.570412 5.141919 4.670138 5.057534 4.815891C4.980822 4.950138 4.969315 5.023014 4.976987 5.310686C4.980822 5.525479 4.96548 5.655891 4.938631 5.675069C4.915617 5.686576 4.727672 5.698083 4.524384 5.694247C4.202193 5.686576 4.133151 5.698083 3.983562 5.778631C3.741919 5.905206 3.66137 6.058631 3.638357 6.457534L3.619179 6.783562L3.19726 6.802741C2.710138 6.825755 2.560548 6.887124 2.441644 7.113425C2.372603 7.247672 2.372603 7.454795 2.372603 12.939727C2.372603 18.597263 2.372603 18.627947 2.453151 18.754523C2.495343 18.823564 2.595069 18.919454 2.671781 18.969318L2.813698 19.057537L6.791234 19.076714L10.764932 19.095892L10.856987 19.17644C10.906851 19.222468 11.02192 19.29918 11.11781 19.349044C11.282741 19.437263 11.328768 19.441099 12.01918 19.441099C12.698084 19.441099 12.759454 19.433427 12.939728 19.35288C13.047125 19.303016 13.173701 19.222468 13.227399 19.172605L13.327125 19.076714L17.293152 19.069044L21.263016 19.057537L21.412605 18.965482C21.493154 18.915619 21.59288 18.819728 21.631236 18.754523C21.700276 18.639454 21.704112 18.45918 21.704112 12.920549C21.704112 7.324384 21.704112 7.201644 21.6274 7.082741C21.49699 6.86411 21.389592 6.825755 20.902469 6.802741L20.457537 6.783562L20.438359 6.457534C20.403838 5.870686 20.20055 5.690412 19.571509 5.690412C19.375893 5.690412 19.191783 5.678905 19.157263 5.667398C19.1074 5.64822 19.095893 5.579179 19.095893 5.299179C19.095893 4.930959 19.057537 4.815891 18.884933 4.654795C18.785208 4.558905 18.777537 4.558905 17.972057 4.547398C17.016988 4.532055 16.387947 4.578083 15.701372 4.712329C14.51233 4.946302 13.764385 5.218631 13.123837 5.640548C12.778632 5.870686 12.295344 6.27726 12.233974 6.392329C12.207125 6.442193 12.153427 6.503562 12.107399 6.530412C12.038358 6.572603 12.01918 6.564932 11.911782 6.430686C11.12548 5.467946 9.418632 4.754521 7.473974 4.581919C6.983015 4.539726 5.579179 4.50137 5.460274 4.528219M7.780823 4.808219C8.517261 4.919452 9.292056 5.107398 9.871234 5.318357C10.120549 5.406576 10.726577 5.724932 10.998906 5.90137C11.309591 6.108493 11.773701 6.561096 11.907947 6.787398C11.961646 6.879453 12.023015 6.956165 12.042194 6.956165C12.057536 6.956165 12.118906 6.883288 12.168768 6.791234C12.291508 6.580274 12.790139 6.096986 13.093152 5.8937C13.630139 5.533151 14.41644 5.207124 15.202742 5.015343C16.084933 4.804384 16.453152 4.762193 17.546304 4.743014C18.290413 4.727672 18.608769 4.735343 18.666304 4.766028C18.838907 4.858083 18.884933 4.988493 18.904112 5.460274L18.92329 5.90137L19.421921 5.90137C20.143016 5.90137 20.181373 5.932055 20.208221 6.549589L20.2274 6.975343L20.749044 6.994521C21.121099 7.009864 21.289866 7.029041 21.335893 7.067398C21.520003 7.220822 21.512331 6.963836 21.512331 12.920549C21.512331 18.393975 21.512331 18.509044 21.435619 18.650961C21.385756 18.750687 21.32055 18.815892 21.236167 18.842742C21.147948 18.873427 20.001099 18.884933 17.162742 18.884933L13.212056 18.881099L13.135344 18.973152C12.932056 19.207126 12.575344 19.287673 11.869591 19.260824C11.355618 19.237811 11.175344 19.184112 10.979727 18.996166L10.860823 18.881099L6.902467 18.884933C2.529864 18.888769 2.798357 18.904112 2.641096 18.64329C2.564384 18.524385 2.564384 18.405482 2.564384 12.92822C2.564384 6.963836 2.556712 7.220822 2.740822 7.067398C2.78685 7.029041 2.955617 7.009864 3.327672 6.994521L3.849315 6.975343L3.868493 6.553425C3.887672 6.108493 3.929864 5.981919 4.067946 5.932055C4.117808 5.916713 4.382467 5.90137 4.654795 5.90137L5.153425 5.90137L5.172603 5.441096C5.191781 4.980822 5.226302 4.850412 5.356713 4.769864C5.441096 4.716165 7.378083 4.74685 7.780823 4.808219"/><path d="M5.774795 5.295343C5.759453 5.30685 5.747946 7.558357 5.747946 10.293151L5.747946 15.264111L6.564932 15.310139C7.995617 15.394522 8.789591 15.559454 9.671782 15.954523C10.427399 16.299728 11.094796 16.771509 11.501372 17.250961C11.61644 17.389044 11.720001 17.504111 11.731508 17.504111C11.750687 17.504111 11.743015 12.652056 11.720001 9.123289L11.71233 7.589041L11.562741 7.30137C11.367125 6.929315 10.906851 6.469041 10.481097 6.223562C9.859727 5.859179 8.862467 5.529315 8.01096 5.406576C7.193974 5.287672 5.847672 5.218631 5.774795 5.295343M10.853152 7.374248C10.96822 7.466302 10.975892 7.692603 10.868494 7.796165C10.795618 7.865206 10.684385 7.872877 8.843289 7.892055C6.818083 7.918905 6.630138 7.907398 6.553425 7.761644C6.492055 7.642741 6.507398 7.462467 6.591782 7.378083C6.668494 7.30137 6.718357 7.30137 8.716713 7.30137C10.661372 7.30137 10.768768 7.305206 10.853152 7.374248M10.87233 8.6937C10.979727 8.820275 10.991234 8.950686 10.89918 9.061919C10.830139 9.138631 10.803289 9.138631 8.751234 9.150138C6.760549 9.161644 6.672329 9.15781 6.595617 9.088768C6.442193 8.950686 6.503562 8.670686 6.70685 8.593974C6.737536 8.582467 7.669589 8.574796 8.770412 8.578631L10.780275 8.586303ZM10.791782 9.894248C10.883837 9.928768 10.96822 10.124384 10.941372 10.231782C10.887673 10.450412 10.914522 10.446577 8.739727 10.446577C6.745206 10.446577 6.626303 10.438905 6.545755 10.316165C6.48822 10.231782 6.515069 10.024658 6.591782 9.947946C6.664658 9.87507 6.718357 9.871234 8.697536 9.871234C9.8137 9.871234 10.757261 9.882741 10.791782 9.894248M10.753427 11.190686C10.929865 11.267398 10.991234 11.39781 10.926029 11.558905C10.89918 11.627946 10.833974 11.696987 10.784111 11.716165C10.730413 11.735344 9.8137 11.750686 8.705206 11.750686C6.752877 11.750686 6.714522 11.750686 6.614796 11.670139C6.538083 11.608768 6.515069 11.558905 6.515069 11.443837C6.515069 11.267398 6.58411 11.206029 6.818083 11.171508C6.913974 11.160001 7.807672 11.144658 8.804932 11.140823C10.327672 11.136987 10.638358 11.144658 10.753427 11.190686M10.787946 12.483289C10.89918 12.536987 10.983563 12.709591 10.945206 12.820823C10.883837 13.024111 10.964385 13.01644 8.747398 13.01644C6.42685 13.01644 6.515069 13.027946 6.515069 12.747946C6.515069 12.632878 6.538083 12.583015 6.614796 12.521646C6.714522 12.441097 6.752877 12.441097 8.705206 12.441097C10.101372 12.441097 10.718906 12.452604 10.787946 12.483289M10.707399 13.749042C10.991234 13.825755 11.041097 14.186303 10.787946 14.286029C10.718906 14.309042 9.967125 14.320549 8.682193 14.312878C6.772056 14.301372 6.672329 14.297536 6.595617 14.228494C6.541919 14.178632 6.515069 14.109591 6.515069 14.013701C6.515069 13.852604 6.572603 13.787399 6.756713 13.745208C6.952329 13.69918 10.538632 13.69918 10.707399 13.749042M17.082194 5.295343C15.973701 5.387398 15.16055 5.556165 14.358906 5.870686C13.469042 6.215891 12.866851 6.691507 12.529316 7.320548L12.364385 7.627398L12.345208 12.556166C12.333701 15.267947 12.326029 17.488769 12.329865 17.49644C12.333701 17.500276 12.452604 17.373701 12.598358 17.208769C13.265755 16.464659 14.466303 15.804933 15.663016 15.528769C16.249865 15.390687 17.807126 15.244933 18.160002 15.294796L18.328769 15.31781L18.328769 5.268493L17.784112 5.276165C17.481099 5.28 17.166578 5.287672 17.082194 5.295343M15.551783 7.688768C15.900824 7.750138 16.284385 7.953425 16.587399 8.237261C16.80603 8.436713 16.890413 8.551782 17.036166 8.843289C17.46192 9.698631 17.320002 10.611508 16.652605 11.313425C16.518358 11.451508 16.410961 11.581919 16.410961 11.604932C16.410961 11.693152 16.575892 11.904111 16.664111 11.927125C16.813701 11.96548 16.905756 12.107399 17.343016 12.978084C17.74192 13.775892 17.753427 13.806577 17.718906 13.956166C17.623016 14.339728 17.109044 14.427947 16.882742 14.105755C16.84055 14.044385 16.629592 13.649316 16.414797 13.231234C16.031235 12.487125 16.019728 12.460275 16.042742 12.27233C16.06192 12.11507 16.050413 12.0537 15.989044 11.950139C15.931509 11.854248 15.889318 11.827399 15.84329 11.846577C15.505756 11.973152 14.765482 11.969316 14.412604 11.831234C14.128769 11.723837 13.69918 11.420823 13.503563 11.186851C12.83233 10.404384 12.83233 9.15781 13.503563 8.394522C14.025208 7.800001 14.765482 7.54685 15.551783 7.688768"/><path d="M14.681097 8.202741C14.274523 8.352329 14.052056 8.513425 13.833427 8.820275C13.564933 9.192329 13.518906 9.338083 13.51507 9.8137C13.51507 10.220275 13.518906 10.247124 13.645482 10.504111C13.913975 11.048768 14.424111 11.401646 14.984111 11.436165C15.881646 11.486029 16.598906 10.922193 16.763838 10.028494C16.871235 9.453151 16.56055 8.762741 16.035071 8.4137C15.670687 8.172055 15.030139 8.072329 14.681097 8.202741M15.12603 8.54411C15.12603 8.643836 15.110687 8.659179 14.91507 8.709042C14.800002 8.735891 14.623563 8.812603 14.523837 8.87781C14.228495 9.069589 14.113427 9.28822 14.009865 9.852056C13.998358 9.913425 13.983016 9.974796 13.971509 9.993974C13.940823 10.043837 13.814249 10.028494 13.764385 9.967124C13.691509 9.878905 13.745208 9.483837 13.864111 9.215343C14.055892 8.789589 14.589044 8.402193 14.953427 8.42137C15.114523 8.432877 15.12603 8.440549 15.12603 8.54411M4.443836 6.503562L4.443836 11.750686C4.44 16.602742 4.443836 16.947947 4.505206 16.940276C4.539727 16.93644 4.812055 16.905756 5.111234 16.867399C5.774795 16.77918 7.589042 16.767673 8.164384 16.844385C9.483837 17.020823 10.684385 17.46192 11.313427 17.995071C11.393974 18.067947 11.463015 18.106304 11.463015 18.087125C11.463015 17.972057 10.880001 17.354523 10.523289 17.08603C9.433974 16.265208 8.183563 15.91233 6.238905 15.873975C5.767124 15.866303 5.414248 15.843289 5.36822 15.81644C5.164932 15.709042 5.172603 15.916166 5.172603 11.002741L5.172603 6.457534L4.80822 6.457534C4.543562 6.457534 4.443836 6.469041 4.443836 6.503562M18.904112 10.952878C18.904112 13.960001 18.888769 15.498084 18.861921 15.59781C18.796714 15.835618 18.750687 15.847125 17.841646 15.870139C16.687125 15.900823 15.908495 16.015892 15.149044 16.265208C14.535344 16.464659 13.756714 16.90192 13.315618 17.285482C13.11233 17.465756 12.678906 17.964385 12.70192 17.991235C12.713427 17.998906 12.828494 17.929865 12.962742 17.837811C13.676166 17.33918 14.688769 17.001646 15.912331 16.844385C16.506852 16.771509 18.286578 16.783016 18.92329 16.863563C19.199454 16.90192 19.479454 16.940276 19.548495 16.951783L19.671235 16.974797L19.671235 6.457534L18.904112 6.457534Z"/><path d="M3.158905 7.562193C3.132055 7.58137 3.128219 9.395617 3.139726 12.939727L3.158905 18.290413L6.956165 18.298085L10.753427 18.305756L10.657536 18.225208C10.523289 18.110139 9.928768 17.837811 9.564385 17.718906C8.678358 17.435071 8.16822 17.369865 6.821919 17.369865C5.755617 17.369865 5.153425 17.412057 4.547398 17.52329C4.232877 17.580824 4.060274 17.546304 3.945206 17.40055C3.868493 17.300824 3.868493 17.281646 3.868493 12.441097C3.868493 8.041644 3.860822 7.577534 3.807124 7.554522C3.72274 7.523836 3.204932 7.527672 3.158905 7.562193M20.2274 7.577534C20.215893 7.604384 20.204386 9.8137 20.20055 12.487125L20.189044 17.343016L20.096988 17.442742C19.981921 17.565482 19.939728 17.565482 19.191783 17.46192C18.359454 17.346851 16.775345 17.320002 16.046578 17.404385C15.141372 17.515618 14.485482 17.695892 13.814249 18.02192C13.57644 18.140824 13.380823 18.252057 13.380823 18.271235C13.380823 18.298085 14.704111 18.309592 17.158906 18.309592L20.936988 18.309592L20.936988 7.531508L20.591783 7.531508C20.35014 7.531508 20.238907 7.54685 20.2274 7.577534"/></svg>
