<svg xmlns="http://www.w3.org/2000/svg" width="24" height="24" viewBox="0 0 24 24"><path d="M14.484375 4.136719C14.214844 4.148438 14.132813 4.178906 13.975781 4.3125C13.926562 4.354687 13.860937 4.436719 13.832812 4.492969L13.778906 4.596094L13.769531 6.058594C13.760156 8.032031 13.760156 8.055469 13.771875 13.614844C13.78125 18.157031 13.778906 18.489844 13.74375 18.529687C13.692187 18.588281 13.659375 18.585937 13.598437 18.520312L13.546875 18.466406L13.542187 13.682812L13.535156 8.896875L13.485937 8.833594C13.460156 8.798437 13.399219 8.735156 13.35 8.697656L13.260937 8.625L12.307031 8.625C11.503125 8.625 11.339062 8.629687 11.282812 8.660156C11.19375 8.707031 11.128125 8.772656 11.088281 8.859375C11.071875 8.896875 11.048437 8.948438 11.036719 8.969531C11.025 8.992969 11.015625 11.055469 11.015625 13.755469L11.015625 18.499219L10.957031 18.536719C10.900781 18.574219 10.89375 18.574219 10.828125 18.534375L10.757812 18.494531L10.753125 12.609375C10.746094 7.003125 10.74375 6.721875 10.703906 6.61875C10.642969 6.464062 10.525781 6.3375 10.375781 6.2625L10.244531 6.199219L8.990625 6.199219C7.792969 6.199219 7.732031 6.201562 7.654687 6.24375C7.446094 6.360937 7.40625 6.400781 7.335937 6.546094L7.263281 6.69375L7.258594 12.583594C7.253906 18.342187 7.253906 18.475781 7.209375 18.525C7.153125 18.588281 7.117969 18.585937 7.03125 18.525L6.963281 18.473437L6.960937 14.198437C6.958594 9.977344 6.958594 9.923437 6.911719 9.799219C6.860156 9.660937 6.717187 9.508594 6.597656 9.464062C6.386719 9.386719 6.3375 9.384375 5.414062 9.39375C4.51875 9.403125 4.3125 9.414844 4.3125 9.459375C4.3125 9.471094 4.298437 9.480469 4.284375 9.480469C4.267969 9.480469 4.207031 9.515625 4.148437 9.560156C4.040625 9.639844 3.95625 9.775781 3.923437 9.925781C3.914062 9.970312 3.902344 11.915625 3.897656 14.247656C3.892969 17.594531 3.883594 18.494531 3.860156 18.508594C3.846094 18.517969 3.75 18.527344 3.651562 18.527344C3.553125 18.527344 3.464062 18.536719 3.457031 18.550781C3.45 18.5625 3.424219 18.574219 3.400781 18.574219C3.344531 18.574219 3.175781 18.724219 3.13125 18.813281C3.084375 18.907031 3.082031 19.176562 3.128906 19.267969C3.175781 19.364062 3.276562 19.455469 3.379687 19.497656C3.459375 19.530469 4.345312 19.535156 12.070312 19.535156C19.795312 19.535156 20.68125 19.530469 20.760937 19.497656C20.955469 19.417969 21.070312 19.239844 21.070312 19.024219C21.070312 18.841406 21 18.705469 20.85 18.602344C20.75625 18.539062 20.714062 18.527344 20.603906 18.527344C20.53125 18.527344 20.460937 18.517969 20.446875 18.508594C20.407031 18.482812 20.397656 18.382031 20.320312 17.003906C20.308594 16.778906 20.2875 16.425 20.273437 16.21875C20.245312 15.771094 20.214844 15.2625 20.167969 14.4375C20.123437 13.680469 20.090625 13.134375 20.0625 12.679687C20.039062 12.316406 20.010937 11.859375 19.96875 11.074219C19.954687 10.823437 19.933594 10.457812 19.921875 10.265625C19.910156 10.071094 19.889062 9.682031 19.875 9.398437C19.842187 8.751562 19.81875 8.545312 19.760156 8.428125C19.70625 8.327344 19.535156 8.167969 19.476562 8.167969C19.455469 8.167969 19.427344 8.15625 19.413281 8.142187C19.3875 8.116406 19.249219 8.121094 18.46875 8.165625C17.922656 8.198437 17.535937 8.23125 17.442187 8.25C17.315625 8.278125 17.109375 8.503125 17.109375 8.610937C17.109375 8.636719 17.1 8.6625 17.088281 8.671875C17.046094 8.697656 17.036719 8.882812 17.0625 9.164062C17.114062 9.719531 17.135156 10.078125 17.203125 11.589844C17.214844 11.854687 17.235937 12.239062 17.25 12.445312C17.285156 12.972656 17.313281 13.483594 17.341406 14.109375C17.355469 14.404687 17.378906 14.817187 17.390625 15.023437C17.404687 15.229687 17.425781 15.583594 17.4375 15.808594C17.449219 16.033594 17.470312 16.3875 17.484375 16.59375C17.5125 17.027344 17.547656 17.690625 17.56875 18.16875C17.580469 18.475781 17.580469 18.499219 17.538281 18.513281C17.470312 18.532031 17.08125 18.536719 17.010937 18.515625L16.945312 18.499219L16.945312 11.603906C16.945312 3.864844 16.961719 4.55625 16.769531 4.35C16.713281 4.289063 16.642969 4.228125 16.6125 4.214063C16.582031 4.2 16.532812 4.178906 16.5 4.164844C16.436719 4.134375 14.932031 4.115625 14.484375 4.136719ZM16.439062 4.450781C16.551562 4.497656 16.635937 4.619531 16.640625 4.746094C16.645312 4.804688 16.645312 5.111719 16.642969 5.430469L16.640625 6.011719L15.39375 6.011719C14.707031 6.011719 14.121094 6.004688 14.092969 5.997656L14.039063 5.983594L14.039063 5.364844C14.039063 4.715625 14.048437 4.642969 14.151562 4.525781C14.242969 4.422656 14.280469 4.420313 15.346875 4.417969C16.1625 4.417969 16.375781 4.425 16.439062 4.450781ZM16.642969 6.35625C16.65 6.489844 16.635938 7.101563 16.624219 7.113281C16.603125 7.136719 14.125781 7.134375 14.083594 7.110938C14.04375 7.089844 14.039063 7.057031 14.039063 6.705469C14.039063 6.496875 14.046094 6.316406 14.055469 6.309375C14.0625 6.3 14.648438 6.292969 15.35625 6.292969L16.640625 6.292969ZM10.242188 6.525C10.286719 6.548438 10.352344 6.609375 10.3875 6.658594L10.450781 6.75L10.453125 12.623438C10.453125 17.960156 10.450781 18.499219 10.415625 18.513281C10.347656 18.539063 7.617188 18.529688 7.567969 18.503906C7.523438 18.478125 7.523438 18.389063 7.523438 12.672656C7.523438 9.271875 7.532812 6.829688 7.546875 6.775781C7.572656 6.65625 7.635937 6.571875 7.736719 6.522656C7.809375 6.485156 7.919531 6.480469 8.988281 6.480469C10.085156 6.480469 10.167188 6.482813 10.242188 6.525ZM16.640625 7.492969C16.65 13.830469 16.635937 18.492188 16.610156 18.508594C16.577344 18.529688 14.132813 18.534375 14.076563 18.513281C14.041406 18.499219 14.039063 17.988281 14.039063 12.958594L14.039063 7.417969L16.640625 7.417969ZM19.382813 8.446875C19.560938 8.540625 19.55625 8.5125 19.640625 10.371094C19.652344 10.661719 19.673437 11.041406 19.6875 11.214844C19.720312 11.620313 19.771875 12.452344 19.828125 13.5C19.85625 13.996875 19.882031 14.432813 19.921875 15.046875C19.935938 15.253125 19.957031 15.611719 19.966406 15.84375C19.999219 16.5 20.036719 17.165625 20.064844 17.589844C20.078906 17.803125 20.090625 18.098438 20.092969 18.246094L20.097656 18.515625L19.066406 18.527344C18.471094 18.534375 18.002344 18.529688 17.960156 18.517969C17.913281 18.503906 17.882813 18.480469 17.882813 18.459375C17.882813 18.438281 17.866406 18.16875 17.847656 17.859375C17.828906 17.55 17.803125 17.111719 17.789063 16.886719C17.777344 16.661719 17.75625 16.291406 17.742188 16.066406C17.716406 15.632813 17.688281 15.117188 17.648438 14.407031C17.634375 14.170313 17.613281 13.8 17.601563 13.586719C17.589844 13.371094 17.56875 13.000781 17.554688 12.761719C17.542969 12.522656 17.521875 12.142969 17.507813 11.917969C17.49375 11.692969 17.472656 11.317969 17.460938 11.085938C17.446875 10.853906 17.425781 10.504688 17.414063 10.3125C17.4 10.117969 17.378906 9.759375 17.367188 9.515625C17.355469 9.269531 17.339063 9.007031 17.329688 8.927344C17.315625 8.758594 17.3625 8.613281 17.453906 8.554688C17.519531 8.510156 17.685938 8.49375 18.457031 8.449219C18.714844 8.435156 18.946875 8.41875 18.972656 8.416406C19.129688 8.392969 19.307812 8.404688 19.382813 8.446875ZM13.192969 8.955469L13.265625 9.016406L13.265625 9.646875C13.265625 10.258594 13.263281 10.277344 13.216406 10.300781C13.18125 10.319531 13.148438 10.319531 13.096875 10.303125C12.996094 10.267969 11.749219 10.267969 11.578125 10.305469C11.470312 10.326563 11.432812 10.326563 11.369531 10.298438L11.294531 10.265625L11.301562 9.6375L11.308594 9.007031L11.374219 8.950781L11.439844 8.894531L13.120313 8.894531ZM6.475781 9.728906C6.58125 9.785156 6.609375 9.817969 6.658594 9.95625C6.696094 10.059375 6.703125 10.14375 6.703125 10.5C6.703125 10.8 6.69375 10.933594 6.675 10.952344C6.653906 10.973438 6.351562 10.980469 5.458594 10.980469C4.804687 10.980469 4.253906 10.973438 4.232812 10.966406C4.2 10.954688 4.195312 10.889063 4.195312 10.474219C4.195312 9.9375 4.204687 9.890625 4.345312 9.766406L4.432031 9.691406L5.416406 9.691406C6.28125 9.691406 6.410156 9.696094 6.475781 9.728906ZM13.251562 10.619531C13.258594 10.640625 13.265625 12.13125 13.265625 13.935938L13.265625 17.214844L12.407812 17.214844C11.889844 17.214844 11.533594 17.224219 11.507813 17.238281C11.477344 17.254688 11.439844 17.25 11.38125 17.226563L11.296875 17.191406L11.296875 10.582031L12.267187 10.582031C13.129687 10.582031 13.239844 10.586719 13.251562 10.619531ZM6.667969 11.292188C6.707812 11.353125 6.714844 11.758594 6.677344 11.828906C6.65625 11.86875 6.574219 11.871094 5.460937 11.871094C4.807031 11.871094 4.253906 11.864062 4.232812 11.857031C4.202344 11.845312 4.195312 11.796094 4.195312 11.554688C4.195312 11.273438 4.197656 11.264063 4.249219 11.254687C4.277344 11.25 4.825781 11.242969 5.465625 11.240625L6.632813 11.238281ZM6.689062 12.189844C6.696094 12.210938 6.703125 13.614844 6.703125 15.311719C6.703125 17.751562 6.696094 18.410156 6.672656 18.457031L6.642187 18.515625L5.472656 18.527344C4.790625 18.534375 4.279687 18.529688 4.249219 18.517969L4.195312 18.496875L4.195312 12.152344L5.435156 12.152344C6.54375 12.152344 6.677344 12.157031 6.689062 12.189844ZM13.251562 17.533594C13.258594 17.554688 13.265625 17.772656 13.265625 18.023438C13.265625 18.367969 13.258594 18.480469 13.235156 18.499219C13.2 18.529687 11.409375 18.541406 11.336719 18.515625C11.301563 18.499219 11.296875 18.454687 11.296875 18.014063C11.296875 17.746875 11.303906 17.519531 11.313281 17.5125C11.320313 17.503125 11.758594 17.496094 12.283594 17.496094C13.132031 17.496094 13.239844 17.500781 13.251562 17.533594ZM20.690625 18.836719C20.744531 18.864844 20.8125 18.975 20.8125 19.035938C20.8125 19.101563 20.739844 19.207031 20.671875 19.242188C20.610937 19.272656 19.66875 19.277344 12.135937 19.277344C6.126562 19.277344 3.639844 19.270313 3.574219 19.251562C3.396094 19.202344 3.314062 19.066406 3.384375 18.928125C3.405469 18.890625 3.435937 18.850781 3.45 18.839063C3.50625 18.803906 5.416406 18.796875 13.042969 18.803906C18.75 18.808594 20.650781 18.815625 20.690625 18.836719ZM8.017969 8.189063C7.96875 8.257031 7.96875 8.278125 7.96875 9.735937C7.96875 11.184375 7.96875 11.214844 8.015625 11.261719C8.060156 11.30625 8.092969 11.308594 8.983594 11.308594C9.778125 11.308594 9.911719 11.303906 9.95625 11.271094L10.007813 11.235937L10.007813 9.717187C10.007813 8.275781 10.005469 8.196094 9.965625 8.160937C9.925781 8.125781 9.825 8.121094 8.992969 8.121094L8.064844 8.121094ZM9.719531 8.465625C9.752344 8.559375 9.745313 10.971094 9.7125 11.003906C9.696094 11.020312 9.459375 11.025 8.985938 11.022656L8.285156 11.015625L8.273438 9.761719C8.266406 9.072656 8.266406 8.484375 8.271094 8.453906L8.278125 8.402344L9.698438 8.402344ZM7.9875 17.451563C7.9125 17.507813 7.900781 17.596875 7.961719 17.655469C7.996875 17.690625 8.1 17.695313 8.98125 17.702344L9.960938 17.709375L10.019531 17.650781C10.094531 17.575781 10.094531 17.5125 10.017187 17.451563C9.95625 17.404688 9.930469 17.402344 9.002344 17.402344C8.078906 17.404688 8.048437 17.404688 7.9875 17.451563ZM18.667969 10.092188C18.023438 10.122656 17.915625 10.136719 17.857031 10.197656C17.803125 10.25625 17.803125 10.272656 17.859375 11.121094C17.871094 11.294531 17.889844 11.685938 17.901562 11.988281C17.927344 12.632813 17.941406 12.73125 18.007031 12.766406C18.039844 12.782812 18.13125 12.7875 18.267187 12.778125C18.384375 12.76875 18.653906 12.75 18.867188 12.735937C19.078125 12.721875 19.270313 12.700781 19.29375 12.689062C19.375781 12.644531 19.385156 12.588281 19.361719 12.253125C19.335938 11.892187 19.303125 11.348437 19.263281 10.628906C19.235156 10.099219 19.223437 10.061719 19.092188 10.071094C19.052344 10.073437 18.8625 10.082812 18.667969 10.092187ZM18.951563 10.3875C18.970312 10.427344 18.982031 10.591406 19.028906 11.4375C19.0875 12.464062 19.0875 12.419531 19.035937 12.45C18.986719 12.478125 18.285937 12.501562 18.24375 12.475781C18.229687 12.466406 18.20625 12.246094 18.189844 11.925C18.171094 11.632031 18.145313 11.200781 18.13125 10.96875C18.117188 10.736719 18.107813 10.51875 18.1125 10.483594C18.121875 10.403906 18.124219 10.403906 18.527344 10.375781C18.696094 10.364062 18.855469 10.354687 18.88125 10.352344C18.909375 10.35 18.942188 10.366406 18.951563 10.3875ZM19.3125 17.217188C18.785156 17.242969 18.276562 17.280469 18.199219 17.299219C18.100781 17.320313 18.046875 17.374219 18.046875 17.451563C18.046875 17.56875 18.096094 17.575781 18.607031 17.545313C18.860156 17.528906 19.197656 17.505469 19.357031 17.49375C19.516406 17.482031 19.673437 17.472656 19.701563 17.472656C19.732031 17.472656 19.778906 17.451563 19.807031 17.423437C19.891406 17.339062 19.81875 17.184375 19.701563 17.196094C19.673437 17.198437 19.5 17.207812 19.3125 17.217187ZM4.70625 17.451563C4.628906 17.510156 4.621875 17.594531 4.6875 17.660156C4.732031 17.704687 4.764844 17.707031 5.4375 17.707031C6.110156 17.707031 6.142969 17.704687 6.1875 17.660156C6.234375 17.613281 6.248438 17.528906 6.215625 17.482031C6.16875 17.409375 6.086719 17.402344 5.432812 17.402344C4.8 17.404688 4.767187 17.407031 4.70625 17.451563Z"/></svg>
