<svg xmlns="http://www.w3.org/2000/svg" width="24" height="24" viewBox="0 0 24 24"><path d="M17.5 2C18.879999 2 20 3.12 20 4.5V19.5C20 20.879999 18.879999 21.999998 17.5 21.999998H4.250667C3.833333 21.999998 3.5 21.666666 3.5 21.250666C3.5 20.833332 3.833333 20.499998 4.250667 20.499998H17.5C18.052 20.499998 18.5 20.051998 18.5 19.5H4.250667C3.833333 19.5 3.5 19.166666 3.5 18.749332V4.5C3.5 3.12 4.62 2 6 2ZM8.426666 15.109333H10.306666L12.016 8.688L13.724 15.109333H15.568L17.650665 6.521333H15.906666L14.588 12.521333L13.082666 6.521333H11.021333L9.448 12.421333L8.150666 6.521333H6.38Z"/></svg>
