<svg xmlns="http://www.w3.org/2000/svg" width="24" height="24" fill="none" viewBox="0 0 24 24"><path fill="#212121" d="M 9 9 A 3 3 0 0 0 9 15 L 11 15 L 11 13.5 L 9 13.5 A 1.5 1.5 0 0 1 9 10.5 L 11 10.5 L 11 9 Z M 15 9 L 13 9 L 13 10.5 L 15 10.5 A 1.5 1.5 0 0 1 15 13.5 L 13 13.5 L 13 15 L 15 15 A 3 3 0 0 0 15 9 Z M 11 11.5 L 13 11.5 L 13 12.5 L 11 12.5 Z"/><path fill="#212121" d="M17.5 2A2.5 2.5 0 0 1 20 4.5v15a2.5 2.5 0 0 1-2.5 2.5H4.25a.75.75 0 0 1 0-1.5H17.5a1 1 0 0 0 1-1H4.25a.75.75 0 0 1-.75-.75V4.5A2.5 2.5 0 0 1 6 2zM5 18h13.5V4.5a1 1 0 0 0-1-1H6a1 1 0 0 0-1 1z"/></svg>
