<svg xmlns="http://www.w3.org/2000/svg" width="24" height="24" viewBox="0 0 24 24"><path d="M14.573333 3.942667C14.568 3.953333 14.536 3.964 14.505333 3.964C14.426666 3.964 14.250666 4.046667 14.177333 4.125333C14.104 4.197333 14.010666 4.364 14.010666 4.416C14.010666 4.437333 14 4.464 13.989333 4.469333C13.964 4.5 13.973333 17.797333 14.005333 17.912C14.052 18.104 14.177333 18.254666 14.364 18.349333L14.478666 18.401333L16.734666 18.401333L16.844 18.354666C16.969333 18.292 17.057333 18.224 17.125333 18.114666C17.250666 17.937333 17.24 18.521333 17.245333 11.166666C17.250666 4.786667 17.250666 4.464 17.218666 4.369333C17.177333 4.250667 17.026666 4.073333 16.912 4.016C16.734666 3.926667 16.693333 3.921333 15.609333 3.921333C14.948 3.921333 14.584 3.932 14.573333 3.942667ZM16.953333 6.208C16.973333 6.276 16.984 6.693333 16.964 6.770666C16.948 6.828 16.838666 6.88 16.770666 6.86C16.74 6.854666 16.593333 6.849333 16.442666 6.854666C16.125333 6.864 16.046666 6.864 15.224 6.854666C14.901333 6.854666 14.573333 6.854666 14.505333 6.864C14.416 6.869333 14.374666 6.869333 14.364 6.854666C14.36 6.844 14.333333 6.833333 14.312 6.833333C14.281333 6.833333 14.276 6.817333 14.276 6.5C14.276 6.317333 14.281333 6.161333 14.292 6.156C14.297333 6.150667 14.896 6.145333 15.62 6.145333L16.932 6.145333Z"/><path d="M7.088 5.016C7.062666 5.030667 7.021333 5.046667 7.005333 5.052C6.989333 5.062667 6.948 5.082667 6.917333 5.098667C6.828 5.145333 6.724 5.265333 6.656 5.390667L6.593333 5.5L6.584 7.14C6.578667 8.036 6.578667 10.828 6.584 13.338666L6.593333 17.906666L6.656 18.030666C6.734666 18.188 6.812 18.265333 6.958666 18.338666L7.073333 18.401333L9.849333 18.401333L9.958666 18.349333C10.104 18.276 10.229333 18.150666 10.292 18.016L10.344 17.906666L10.344 5.5L10.297333 5.396C10.202666 5.202667 10.062666 5.088 9.833333 5.016C9.745333 4.989333 7.177333 4.989333 7.088 5.016ZM9.453333 6.973333C9.573333 7.041333 9.568 6.948 9.568 8.874666C9.568 10.614666 9.568 10.630666 9.530666 10.693333L9.489333 10.754666L8.5 10.754666C7.453333 10.754666 7.489333 10.76 7.421333 10.661333C7.390666 10.614666 7.385333 10.478666 7.385333 8.844L7.385333 7.078666L7.516 6.948L8.458666 6.948C9.26 6.948 9.406666 6.953333 9.453333 6.973333Z"/><path d="M19.166666 7.636C19.109333 7.650666 18.86 7.682666 18.469333 7.713333C18.130666 7.74 17.994666 7.76 17.969333 7.786666C17.953333 7.797333 17.926666 7.806666 17.912 7.806666C17.864 7.806666 17.666666 8.005333 17.62 8.093333C17.557333 8.213333 17.557333 8.546666 17.625333 9.213333C17.636 9.302666 17.650666 9.469333 17.661333 9.588C17.677333 9.708 17.688 9.828 17.697333 9.849333C17.702666 9.869333 17.713333 9.989333 17.724 10.114666C17.749333 10.526666 17.776 10.770666 17.792 10.792C17.797333 10.806666 17.812 10.932 17.817333 11.068C17.849333 11.526666 17.874666 11.817333 17.885333 11.849333C17.896 11.874666 17.912 12.041333 17.953333 12.526666C17.978666 12.890666 18.010666 13.177333 18.030666 13.26C18.041333 13.302666 18.046666 13.401333 18.046666 13.473333C18.046666 13.546666 18.057333 13.666666 18.068 13.734666C18.082666 13.86 18.109333 14.062666 18.145333 14.448C18.150666 14.541333 18.166666 14.734666 18.182666 14.88C18.193333 15.026666 18.202666 15.156 18.213333 15.177333C18.218666 15.193333 18.234666 15.306666 18.24 15.426666C18.250666 15.546666 18.265333 15.734666 18.276 15.849333C18.281333 15.958666 18.297333 16.062666 18.306666 16.078666C18.317333 16.093333 18.333333 16.213333 18.338666 16.344C18.38 16.926666 18.385333 17.005333 18.401333 17.030666C18.406666 17.041333 18.421333 17.166666 18.432 17.306666C18.484 18.016 18.5 18.082666 18.666666 18.234666C18.812 18.369333 19.026666 18.448 19.172 18.421333C19.213333 18.416 19.396 18.396 19.578666 18.38C20.494666 18.306666 20.630666 18.286666 20.729333 18.24C20.863999 18.177333 20.969333 18.078666 21.030666 17.953333C21.125333 17.765333 21.125333 17.729333 21.030666 16.844C21.026666 16.749333 21.005333 16.541333 20.983999 16.374666C20.969333 16.202666 20.947999 15.994666 20.937333 15.906666C20.926666 15.812 20.911999 15.64 20.901333 15.521333C20.890666 15.401333 20.874666 15.213333 20.859999 15.109333C20.833333 14.86 20.791999 14.426666 20.729333 13.792C20.707999 13.584 20.687999 13.364 20.639999 12.937333C20.625333 12.786666 20.603999 12.557333 20.593333 12.432C20.583999 12.302666 20.562666 12.078666 20.546666 11.932C20.515999 11.64 20.411999 10.604 20.379999 10.317333C20.374666 10.218666 20.349333 10.005333 20.333333 9.849333C20.317333 9.688 20.297333 9.469333 20.286666 9.36C20.275999 9.250666 20.254666 9.026666 20.239999 8.86C20.223999 8.697333 20.202666 8.473333 20.193333 8.364C20.182666 8.254666 20.166666 8.136 20.161333 8.109333C20.125333 7.932 19.964 7.729333 19.797333 7.656C19.724 7.625333 19.672 7.62 19.464 7.62C19.333333 7.62 19.197333 7.630666 19.166666 7.636ZM19.625333 9.458666C19.625333 9.464 19.64 9.478666 19.656 9.5C19.688 9.546666 19.713333 9.682666 19.729333 9.989333C19.734666 10.125333 19.749333 10.24 19.76 10.254666C19.765333 10.265333 19.781333 10.38 19.792 10.505333C19.802666 10.625333 19.817333 10.802666 19.828 10.901333C19.833333 10.994666 19.854666 11.197333 19.864 11.349333C19.874666 11.494666 19.890666 11.630666 19.901333 11.645333C19.906666 11.656 19.921333 11.770666 19.926666 11.896C19.937333 12.021333 19.948 12.172 19.953333 12.224C19.978666 12.432 19.921333 12.484 19.636 12.5C19.208 12.530666 19.010666 12.546666 18.958666 12.573333C18.849333 12.614666 18.688 12.578666 18.636 12.494666C18.614666 12.469333 18.593333 12.338666 18.578666 12.161333C18.557333 12.005333 18.541333 11.844 18.536 11.797333C18.526666 11.754666 18.516 11.64 18.505333 11.541333C18.5 11.442666 18.473333 11.229333 18.458666 11.073333C18.442666 10.912 18.421333 10.697333 18.412 10.593333C18.374666 10.208 18.354666 9.994666 18.333333 9.849333C18.312 9.688 18.322666 9.614666 18.396 9.552C18.412 9.541333 18.546666 9.521333 18.697333 9.505333C18.854666 9.489333 19.057333 9.464 19.156 9.453333C19.406666 9.426666 19.5 9.421333 19.568 9.437333C19.598666 9.448 19.625333 9.458666 19.625333 9.458666Z"/><path d="M11.416 8.297333C11.374666 8.312 11.328 8.322666 11.317333 8.322666C11.302666 8.322666 11.245333 8.354666 11.188 8.390666C11.078666 8.464 11 8.578666 10.958666 8.729333C10.948 8.770666 10.937333 10.536 10.932 13.338666C10.926666 18.161333 10.921333 17.926666 11.010666 18.093333C11.057333 18.182666 11.177333 18.297333 11.281333 18.349333L11.38 18.401333L12.969333 18.401333L13.068 18.344C13.254666 18.245333 13.354666 18.114666 13.406666 17.906666C13.448 17.754666 13.448 8.874666 13.406666 8.745333C13.338666 8.510666 13.208 8.38 12.973333 8.306666C12.86 8.270666 12.802666 8.265333 12.172 8.270666C11.630666 8.270666 11.478666 8.276 11.416 8.297333ZM13.156 9.901333C13.177333 9.984 13.172 10.516 13.145333 10.541333C13.125333 10.557333 12.890666 10.562666 12.202666 10.562666C11.697333 10.562666 11.265333 10.557333 11.24 10.552C11.197333 10.541333 11.197333 10.536 11.197333 10.197333L11.197333 9.854666L13.145333 9.854666Z"/><path d="M3.828 8.505333C3.614667 8.526666 3.473333 8.604 3.354667 8.776C3.344 8.786666 3.322667 8.828 3.302667 8.869333C3.286667 8.912 3.26 8.964 3.250667 8.978666C3.229333 9.030666 3.229333 17.906666 3.254667 17.921333C3.265333 17.926666 3.270667 17.948 3.270667 17.964C3.270667 18.073333 3.421333 18.254666 3.584 18.338666L3.702667 18.401333L5.5 18.401333L5.588 18.354666C5.718667 18.286666 5.792 18.224 5.864 18.125333C6 17.942666 5.989333 18.312 5.989333 13.448C5.989333 8.677333 5.994667 8.984 5.885333 8.797333C5.792 8.636 5.636 8.536 5.426667 8.5C5.276 8.473333 4.088 8.473333 3.828 8.505333ZM5.697333 10.177333C5.713333 10.208 5.724 10.322666 5.724 10.505333C5.724 10.734666 5.718667 10.786666 5.688 10.817333C5.661333 10.849333 5.604 10.854666 4.636 10.854666C4.068 10.854666 3.588 10.844 3.568 10.838666C3.521333 10.828 3.521333 10.822666 3.521333 10.473333L3.521333 10.125333L5.677333 10.125333ZM5.64 11.421333C5.702667 11.426666 5.724 11.505333 5.724 11.806666C5.724 12.021333 5.718667 12.098666 5.697333 12.125333C5.666667 12.161333 5.630667 12.161333 4.661333 12.166666C4.109333 12.172 3.625333 12.166666 3.593333 12.156L3.530667 12.14L3.526667 11.786666L3.521333 11.426666L3.562667 11.421333C3.604 11.416 5.546667 11.416 5.64 11.421333Z"/><path d="M3.36 18.890666C2.786667 18.901333 2.718667 18.906666 2.661333 18.937333C2.469333 19.046666 2.432 19.125333 2.432 19.421333C2.432 19.636 2.432 19.650666 2.484 19.734666C2.521333 19.786666 2.573333 19.838666 2.636 19.869333L2.729333 19.921333L11.994666 19.937333C21.250666 19.948 21.254666 19.948 21.338666 19.912C21.385333 19.890666 21.453333 19.849333 21.478666 19.817333C21.573333 19.718666 21.593333 19.661333 21.603999 19.453333C21.609333 19.276 21.609333 19.250666 21.562666 19.150666C21.526666 19.068 21.494666 19.030666 21.411999 18.978666L21.311999 18.917333L12.869333 18.901333C8.229333 18.896 4.333333 18.885333 4.208 18.88C4.088 18.88 3.702667 18.88 3.36 18.890666Z"/></svg>
