<svg xmlns="http://www.w3.org/2000/svg" width="24" height="24" viewBox="0 0 24 24"><path d="M5.510645 4.431693C5.205724 4.459057 5.010261 4.564607 4.932076 4.744433C4.90862 4.799162 4.881256 5.037626 4.869528 5.27609L4.846073 5.706107L4.337871 5.725654C3.888307 5.741291 3.814031 5.756928 3.700663 5.835113C3.50911 5.975846 3.477836 6.05794 3.45829 6.546597L3.438744 6.99616L3.008726 7.015707C2.559162 7.035253 2.484887 7.058708 2.324607 7.230715L2.226876 7.336265L2.215148 13.110226L2.207329 18.888096L2.293333 18.997555C2.469249 19.220382 2.289424 19.212564 6.652146 19.212564L10.674763 19.212564L10.874135 19.365024C11.159511 19.576124 11.378428 19.623035 12.09773 19.623035C12.805304 19.623035 13.043768 19.568305 13.297869 19.349387L13.458148 19.212564L17.488585 19.212564C21.452563 19.212564 21.52293 19.212564 21.67539 19.134379C21.972493 18.981918 21.949037 19.474484 21.949037 13.106316C21.949037 7.512181 21.949037 7.383175 21.870852 7.261989C21.757485 7.070435 21.659754 7.035253 21.167188 7.015707L20.717624 6.99616L20.698078 6.546597C20.666804 5.823385 20.565163 5.725654 19.845862 5.725654C19.607397 5.725654 19.38848 5.713926 19.353296 5.702199C19.302476 5.682652 19.290749 5.604467 19.290749 5.260454C19.290749 4.791344 19.239929 4.658429 19.009283 4.509878C18.884186 4.435602 18.837275 4.431693 17.863872 4.447329C16.479998 4.474694 15.741151 4.595882 14.560557 5.002443C13.465967 5.377731 12.817032 5.819476 12.140731 6.648237C12.086003 6.710784 12.074274 6.706876 11.984361 6.581779C11.249423 5.604467 9.959371 4.935985 8.149388 4.595882C7.430086 4.462967 6.120488 4.380872 5.510645 4.431693M7.582548 5.217451C8.618498 5.373821 9.365165 5.59274 10.092285 5.960208C10.85068 6.347224 11.288516 6.753787 11.589528 7.344083L11.765444 7.692006L11.769353 12.555112C11.769353 15.229038 11.757625 17.426037 11.741988 17.437765C11.726352 17.445583 11.581709 17.324396 11.41752 17.164117C11.073507 16.824012 10.760767 16.593366 10.256474 16.307992C9.114973 15.662966 8.075112 15.404955 6.448864 15.354135C5.991483 15.342407 5.64356 15.315042 5.616195 15.291587C5.573194 15.256403 5.565375 14.466735 5.584921 10.69431C5.596649 8.188481 5.604467 5.90157 5.608376 5.612286L5.608376 5.088446L6.323769 5.111901C6.714694 5.12363 7.281535 5.17054 7.582548 5.217451M18.579265 10.178289C18.583174 13.6067 18.575355 15.252495 18.547992 15.283768C18.520627 15.318951 18.356438 15.334588 18.028061 15.338497C16.41745 15.354135 15.033576 15.674693 13.974169 16.276718C13.446421 16.57773 13.118044 16.820103 12.793576 17.14848C12.629387 17.316577 12.473017 17.453401 12.449562 17.453401C12.422197 17.453401 12.41047 15.960068 12.41047 12.629388C12.41047 7.926561 12.414379 7.797556 12.488655 7.555183C12.82876 6.456683 14.275181 5.58883 16.331447 5.256544C17.011656 5.147085 17.46122 5.107993 18.059334 5.115811L18.567538 5.11972ZM4.873438 11.065688L4.885165 15.702058L5.025898 15.827154L5.162723 15.956159L5.971937 15.979614C7.19944 16.018707 7.973472 16.139894 8.794414 16.413541C9.28307 16.57773 9.975008 16.917834 10.346386 17.175845C10.690401 17.414308 11.198603 17.879509 11.292424 18.039789C11.374519 18.184431 11.354973 18.176613 11.085234 17.969422C10.709947 17.684047 9.986735 17.375216 9.290889 17.20321C7.907015 16.859195 6.624781 16.827921 4.349598 17.089841L4.161954 17.113297L4.161954 12.011726C4.161954 9.204885 4.150227 6.800698 4.138498 6.667783L4.111134 6.429319L4.865619 6.429319ZM19.994413 11.765444C19.994413 16.820103 19.990504 17.101569 19.927956 17.101569C19.888863 17.101569 19.681673 17.074205 19.470574 17.04293C18.121883 16.839649 16.386176 16.882651 15.146945 17.14848C14.357276 17.316577 13.360417 17.719231 13.172773 17.942058C13.149318 17.969422 13.059406 18.024152 12.965583 18.071063L12.801395 18.149248L12.887398 18.028061C13.184501 17.609771 13.821709 17.105479 14.447189 16.788829C15.463593 16.276718 16.609004 16.030434 18.196158 15.979614L18.997555 15.956159L19.146106 15.811517L19.290749 15.662966L19.290749 6.429319L19.994413 6.429319ZM3.45829 12.605932C3.473926 16.597276 3.485654 17.527677 3.528656 17.601953C3.55993 17.652773 3.657661 17.727048 3.747573 17.766141C3.884397 17.828689 3.950855 17.836508 4.161954 17.805234C6.06185 17.527677 7.590366 17.531586 8.872599 17.809143C9.466805 17.938148 10.577032 18.375984 10.58876 18.489353C10.59267 18.532354 3.165096 18.571447 3.000908 18.528445L2.910995 18.508899L2.910995 7.67637L3.176824 7.688097L3.438744 7.699825ZM21.237554 7.72719C21.272738 7.762372 21.284465 9.017242 21.284465 13.137591C21.284465 18.129702 21.280556 18.50108 21.218008 18.524535C21.124186 18.559719 13.645793 18.547992 13.587154 18.512808C13.450331 18.426804 14.470644 17.985059 15.166491 17.824781C16.300173 17.56677 17.891237 17.527677 19.408026 17.727048C20.197694 17.832598 20.295426 17.832598 20.459614 17.750504C20.709805 17.61759 20.698078 17.906874 20.698078 12.547294L20.698078 7.680279L20.94436 7.680279C21.085094 7.680279 21.21019 7.699825 21.237554 7.72719"/><path d="M6.472321 7.390994C6.343316 7.555183 6.37068 7.688097 6.550506 7.77801C6.640418 7.82883 6.984432 7.836649 8.688864 7.836649C10.682582 7.836649 10.721675 7.836649 10.823315 7.754555C10.948411 7.656824 10.960138 7.480906 10.846771 7.367539C10.768586 7.289354 10.717765 7.289354 8.6615 7.289354L6.550506 7.289354ZM6.487957 8.673228C6.362862 8.798324 6.362862 8.907783 6.487957 9.028969L6.581779 9.1267L10.756857 9.1267L10.838952 9.036788C10.936683 8.931238 10.948411 8.782687 10.870226 8.673228C10.815496 8.602862 10.741221 8.598952 8.700592 8.587224L6.585688 8.575497ZM6.503594 9.982826C6.362862 10.12356 6.358952 10.217381 6.491867 10.342477L6.593507 10.4363L8.552041 10.448027C9.630994 10.455846 10.573122 10.448027 10.64349 10.4363C10.913227 10.385479 11.007049 10.143106 10.827224 9.967189L10.733402 9.869458L6.616963 9.869458ZM6.487957 11.296334C6.37068 11.413612 6.366771 11.507433 6.472321 11.644258L6.550506 11.745898L10.764676 11.745898L10.842861 11.644258C10.944502 11.511343 10.948411 11.378428 10.846771 11.276788C10.768586 11.198603 10.717765 11.198603 8.677137 11.198603L6.581779 11.198603ZM6.491867 12.586386C6.366771 12.703664 6.362862 12.840487 6.480139 12.949946L6.570052 13.03595L10.764676 13.03595L10.846771 12.949946C10.956229 12.82876 10.948411 12.668481 10.823315 12.57075C10.721675 12.488655 10.682582 12.488655 8.657591 12.488655L6.597417 12.488655ZM6.585688 13.825618C6.495776 13.856892 6.390226 14.009353 6.390226 14.103175C6.390226 14.142268 6.433228 14.216543 6.487957 14.271273L6.585688 14.369004L8.681046 14.357276L10.776403 14.345549L10.85068 14.251726C10.944502 14.138358 10.944502 14.005444 10.858498 13.903803C10.788132 13.825618 10.74904 13.821709 8.724048 13.809982C7.586456 13.802163 6.628691 13.809982 6.585688 13.825618M14.795112 7.67246C14.259545 7.817102 13.720068 8.227573 13.430784 8.712321C13.180592 9.134519 13.09068 9.80691 13.211866 10.334659C13.383873 11.061779 13.997625 11.687259 14.736474 11.882721C15.029667 11.960906 15.569143 11.960906 15.846699 11.88663C15.963977 11.855356 16.073437 11.83581 16.092983 11.847538C16.108619 11.859266 16.15944 11.937451 16.202442 12.023454C16.264989 12.144641 16.276718 12.218916 16.257172 12.363559C16.233715 12.539475 16.249353 12.582477 16.499544 13.055496C16.644186 13.336962 16.839649 13.716159 16.93738 13.907713C17.121115 14.279091 17.222756 14.365095 17.469038 14.365095C17.543313 14.365095 17.652773 14.345549 17.707502 14.318184C17.816962 14.267364 17.961603 14.028899 17.961603 13.899894C17.961603 13.81389 17.214937 12.340104 17.078114 12.15246C17.031202 12.086003 16.93738 12.007818 16.874832 11.984361C16.800556 11.953088 16.722371 11.867084 16.655914 11.749807L16.554274 11.562163L16.745828 11.401884C17.105479 11.100872 17.379126 10.577032 17.457311 10.053192C17.598043 9.095427 16.972564 8.079022 16.022616 7.731099C15.659056 7.598184 15.146945 7.574729 14.795112 7.67246M15.627782 8.129842C16.419132 8.295929 16.985422 8.994408 16.98429 9.803C16.984291 10.182199 16.910016 10.440208 16.718463 10.717765C16.515181 11.018777 16.327538 11.182966 16.006979 11.331517C15.768514 11.444885 15.725513 11.452704 15.303315 11.452704C14.869387 11.452704 14.842022 11.448794 14.580104 11.319789C14.271273 11.167329 13.950714 10.870226 13.817799 10.608306C13.372146 9.740453 13.720068 8.665409 14.576194 8.24712C14.928026 8.075112 15.217311 8.043839 15.627782 8.129842"/><path d="M14.885025 8.438673C14.513646 8.55986 14.134449 8.907783 14.017172 9.243978C13.907713 9.560628 13.876438 9.869458 13.946805 9.967189C14.036718 10.084467 14.114903 9.986736 14.146176 9.728725C14.212634 9.169703 14.521465 8.802233 15.049213 8.657591C15.252493 8.598952 15.283768 8.579406 15.283768 8.497312C15.283768 8.419127 15.260312 8.40349 15.166491 8.395671C15.103942 8.391762 14.974937 8.411308 14.885025 8.438673"/></svg>
