<svg xmlns="http://www.w3.org/2000/svg" width="24" height="24" viewBox="0 0 24 24"><path d="M17.5 2C18.880713 2 20 3.119288 20 4.5V19.5C20 20.880713 18.880713 22 17.5 22H4.25C3.835786 22 3.5 21.664213 3.5 21.25C3.5 20.835787 3.835786 20.5 4.25 20.5H17.5C18.052284 20.5 18.5 20.052284 18.5 19.5H4.25C3.835786 19.5 3.5 19.164213 3.5 18.75V4.5C3.5 3.119288 4.619288 2 6 2ZM5 18H18.5V4.5C18.5 3.947715 18.052284 3.5 17.5 3.5H6C5.447715 3.5 5 3.947715 5 4.5ZM15 9C16.656855 9 18 10.343145 18 12C18 13.656855 16.656855 15 15 15H13V13.5H15C15.828427 13.5 16.5 12.828427 16.5 12C16.5 11.171573 15.828427 10.5 15 10.5H13V9ZM9 9H11V10.5H9C8.171573 10.5 7.5 11.171573 7.5 12C7.5 12.828427 8.171573 13.5 9 13.5H11V15H9C7.343146 15 6 13.656855 6 12C6 10.343145 7.343146 9 9 9ZM11 11.5H13V12.5H11Z"/></svg>
