<svg xmlns="http://www.w3.org/2000/svg" width="24" height="24" viewBox="0 0 24 24" fill="currentColor">
  <path fill-rule="evenodd" d="M4.5 2A3.5 3.5 0 0 0 1 5.5v11A3.5 3.5 0 0 0 4.5 20h4.25c.98 0 1.92.39 2.61 1.08a.9.9 0 0 0 1.28 0A3.69 3.69 0 0 1 15.25 20h4.25a3.5 3.5 0 0 0 3.5-3.5v-11A3.5 3.5 0 0 0 19.5 2h-4.25A4.56 4.56 0 0 0 12 3.35 4.56 4.56 0 0 0 8.75 2zM5 6.25a.75.75 0 0 1 .75-.75h3a.75.75 0 0 1 0 1.5h-3A.75.75 0 0 1 5 6.25m0 3.5A.75.75 0 0 1 5.75 9h3a.75.75 0 0 1 0 1.5h-3A.75.75 0 0 1 5 9.75m.75 2.75a.75.75 0 0 0 0 1.5h3a.75.75 0 0 0 0-1.5zm9.5-7a.75.75 0 0 0 0 1.5h3a.75.75 0 0 0 0-1.5zm-.75 4.25a.75.75 0 0 1 .75-.75h3a.75.75 0 0 1 0 1.5h-3a.75.75 0 0 1-.75-.75m.75 2.75a.75.75 0 0 0 0 1.5h3a.75.75 0 0 0 0-1.5z" clip-rule="evenodd"/>
</svg>
