<svg xmlns="http://www.w3.org/2000/svg" width="24" height="24" viewBox="0 0 24 24" fill="currentColor">
  <path fill-rule="evenodd" d="M4.25 2A3.25 3.25 0 0 0 1 5.25v10.5A3.25 3.25 0 0 0 4.25 19h4.5c.98 0 1.92.39 2.61 1.08a.9.9 0 0 0 1.28 0c.54-.54 1.22-.9 1.96-1.02A5.75 5.75 0 0 1 13 15.07V5.75A2.25 2.25 0 0 1 15.25 3.5h4.5a1.75 1.75 0 0 1 1.75 1.75v4.9c.56.36 1.07.81 1.5 1.33V5.25A3.25 3.25 0 0 0 19.75 2h-4.5A3.75 3.75 0 0 0 12 3.88 3.75 3.75 0 0 0 8.75 2zM4.5 6.25a.75.75 0 0 1 .75-.75h3a.75.75 0 0 1 0 1.5h-3a.75.75 0 0 1-.75-.75m.75 2.75a.75.75 0 0 0 0 1.5h3a.75.75 0 0 0 0-1.5z" clip-rule="evenodd"/>
  <path fill-rule="evenodd" d="M18.25 10a4.75 4.75 0 1 0 2.74 8.63l1.23 1.23a.8.8 0 0 0 1.14-1.13l-1.24-1.24A4.75 4.75 0 0 0 18.25 10m-2.75 4.75a2.75 2.75 0 1 1 5.5 0 2.75 2.75 0 0 1-5.5 0" clip-rule="evenodd"/>
</svg>
