<svg xmlns="http://www.w3.org/2000/svg" width="24" height="24" viewBox="0 0 24 24"><path d="M5.926619 3.522302C6.099281 3.466187 7.014388 3.461871 12.258993 3.466187L18.388489 3.47482L18.595682 3.595683C18.867626 3.755396 19.083452 3.984173 19.204317 4.230216L19.294964 4.42446V19.532373L19.169785 19.76115C18.936691 20.179855 18.643166 20.404318 18.172663 20.529495C17.995684 20.576979 16.774101 20.589928 11.641727 20.589928C11.292649 20.589928 10.962324 20.589962 10.649731 20.589993C5.518613 20.590517 5.165043 20.590551 5.068766 20.43318C5.055879 20.412115 5.047601 20.388231 5.033094 20.361151C4.916547 20.141006 5.05036 19.92518 5.330935 19.877699C5.520863 19.847483 5.646043 19.709352 5.689209 19.489208C5.702158 19.415827 5.728058 19.303596 5.745324 19.234531C5.77554 19.105036 5.697842 18.699282 5.602878 18.509354C5.568345 18.43597 5.494964 18.379856 5.425899 18.362591C5.192806 18.315107 5.093525 18.254677 5.041727 18.142447C4.968345 17.991367 4.959712 4.683453 5.028777 4.640288C5.054676 4.627338 5.071942 4.558273 5.071942 4.489209C5.071942 4.178417 5.551079 3.638849 5.926619 3.522302ZM17.13669 4.182734C17.11079 4.143885 6.276259 4.130935 6.151079 4.174101C5.982734 4.230216 5.883453 4.299281 5.801439 4.428777C5.719424 4.566906 5.715108 4.648921 5.719424 11.076259C5.719424 14.654676 5.736691 17.602879 5.753957 17.620144C5.801439 17.667625 17.080576 17.663309 17.123741 17.620144C17.16259 17.581295 17.175541 4.247482 17.13669 4.182734ZM8.443165 5.352518C8.663309 5.27482 8.810072 5.270504 11.438849 5.266187C14.348201 5.266187 14.438849 5.270504 14.732374 5.464748C14.969784 5.620144 15.189928 5.861871 15.315108 6.103597L15.453237 6.366906V12.280576L15.336691 12.500719C15.185612 12.789928 14.870504 13.096403 14.572662 13.243165L14.330935 13.359712L11.52518 13.372662C8.589928 13.385612 8.520863 13.381295 8.179856 13.195683C7.968345 13.083453 7.653237 12.764029 7.558273 12.574101C7.515108 12.483453 7.463309 12.37554 7.441727 12.336691C7.385612 12.228777 7.389928 6.444604 7.446043 6.410072C7.471942 6.397122 7.489209 6.345324 7.489209 6.302158C7.489209 6.254676 7.528058 6.146763 7.579856 6.056115C7.756835 5.732374 8.05036 5.494964 8.443165 5.352518ZM18.176977 18.427338C18.008633 18.34964 17.779856 18.345324 12.155396 18.345324H6.315108L6.345324 18.483454C6.410072 18.794245 6.418705 19.359713 6.36259 19.58849C6.315108 19.78705 6.319424 19.825899 6.371223 19.860432C6.405755 19.882013 8.883453 19.894964 12.280576 19.886332L18.129496 19.877699L18.289209 19.769785C18.781296 19.43741 18.716547 18.673382 18.176977 18.427338ZM18.233093 4.191367C18.155396 4.165468 18.038849 4.143885 17.969784 4.143885H17.848921L17.857553 10.886331L17.870504 17.633095L18.151079 17.706474C18.306475 17.745323 18.474819 17.779856 18.530935 17.779856L18.625898 17.784172V4.614388L18.496403 4.42446C18.423021 4.316547 18.315107 4.221583 18.233093 4.191367Z"/></svg>
