<svg xmlns="http://www.w3.org/2000/svg" width="24" height="24" viewBox="0 0 24 24"><path d="M4.718667 3.906667C4.473333 4.016 4.412 4.177333 4.412 4.734667C4.412 5.010667 4.401333 5.234667 4.385333 5.24C4.364 5.24 4.104 5.24 3.802667 5.245333C3.36 5.254667 3.234667 5.265333 3.14 5.328C2.921333 5.473333 2.88 5.588 2.864 6.12L2.849333 6.609333L2.38 6.630667C1.864 6.650667 1.693333 6.708 1.568 6.901333C1.494667 7.010666 1.489333 7.38 1.489333 13.453333C1.489333 20.437333 1.478667 20.021333 1.718667 20.182666C1.817333 20.254666 2.109333 20.259999 6.218667 20.270666L10.604 20.281333L10.765333 20.411999C11.062666 20.645333 11.306666 20.702666 12.052 20.702666C12.817333 20.702666 13.036 20.655999 13.338666 20.426666L13.526666 20.281333L17.890666 20.270666C22.015999 20.259999 22.265333 20.254666 22.395999 20.182666C22.671999 20.030666 22.655999 20.463999 22.655999 13.448C22.655999 7.636 22.650666 7.062666 22.587999 6.932C22.463999 6.666666 22.379999 6.650667 21.322666 6.62C21.281333 6.62 21.265333 6.5 21.265333 6.150667C21.265333 5.636 21.218666 5.458667 21.026666 5.328C20.931999 5.265333 20.811999 5.254667 20.354666 5.250667C20.051999 5.245333 19.786666 5.229333 19.76 5.213333C19.729333 5.193333 19.713333 5.005333 19.713333 4.713333C19.713333 3.942667 19.598666 3.844 18.718666 3.844C17.093333 3.844 15.5 4.098667 14.521333 4.505333C14.052 4.702667 13.536 4.973333 13.250666 5.177333C12.885333 5.437333 12.437333 5.869333 12.292 6.088C12.088 6.390667 12.078666 6.390667 11.874666 6.125333C11.188 5.197333 9.828 4.432 8.306666 4.12C7.526666 3.958667 6.838666 3.885333 5.802667 3.864C5.021333 3.844 4.828 3.854667 4.718667 3.906667M7.270666 4.666667C9.432 4.994667 10.88 5.781333 11.5 6.958666L11.708 7.354666L11.718666 12.86C11.724 15.885333 11.718666 18.390666 11.708 18.421333C11.693333 18.458666 11.578666 18.369333 11.38 18.156C11.218666 17.978666 10.978666 17.754666 10.849333 17.656C10.573333 17.448 9.896 17.041333 9.598666 16.912C9.098666 16.693333 8.156 16.412 7.650666 16.322666C6.984 16.213333 6.76 16.193333 5.989333 16.166666L5.150667 16.14L5.136 10.344L5.130667 4.546667L5.978667 4.573333C6.448 4.588 7.026666 4.630667 7.270666 4.666667M18.973333 4.598667C18.989333 4.625333 19.010666 14.197333 19 16.104C19 16.130666 18.729333 16.156 18.193333 16.172C16.942666 16.213333 16.276 16.328 15.218666 16.672C14.614666 16.864 14.088 17.114666 13.578666 17.453333C13.202666 17.702666 12.702666 18.150666 12.609333 18.328C12.578666 18.38 12.521333 18.437333 12.478666 18.442666C12.401333 18.464 12.401333 18.328 12.401333 13.078666C12.401333 8.792 12.412 7.64 12.458666 7.437333C12.630666 6.636 13.302666 5.917333 14.396 5.369333C15.172 4.978667 16.229333 4.708 17.36 4.604C17.874666 4.557333 18.948 4.552 18.973333 4.598667M4.412 11.276L4.432 16.588L4.562667 16.702666L4.693333 16.822666L5.636 16.844C7.650666 16.906666 8.964 17.26 10.197333 18.078666C10.557333 18.317333 11.150666 18.874666 11.281333 19.104C11.374666 19.265333 11.349333 19.254666 11.030666 19.021333C9.770666 18.068 7.442666 17.688 4.604 17.964C4.14 18.005333 3.745333 18.046666 3.718667 18.052C3.697333 18.057333 3.650667 18.062666 3.625333 18.057333C3.584 18.052 3.573333 16.812 3.573333 12L3.573333 5.942667L3.984 5.958667L4.390667 5.969333ZM20.526666 5.984C20.557333 6.030667 20.567999 18.016 20.535999 18.041333C20.526666 18.046666 20.259999 18.026666 19.937333 17.994666C18.5 17.828 17.521333 17.828 16.057333 17.989333C14.885333 18.114666 13.625333 18.557333 13.093333 19.026666C13.046666 19.068 12.953333 19.114666 12.890666 19.14L12.770666 19.188L12.86 19.057333C13.24 18.530666 13.86 18.041333 14.604 17.672C15.74 17.114666 16.776 16.896 18.516 16.844C19 16.833333 19.432 16.802666 19.473333 16.781333C19.516 16.76 19.588 16.682666 19.630666 16.609333C19.708 16.478666 19.713333 16.349333 19.713333 11.24C19.713333 8.36 19.724 5.989333 19.745333 5.978667C19.786666 5.932 20.505333 5.942667 20.526666 5.984M2.864 12.921333L2.88 18.469333L2.969333 18.588C3.125333 18.797333 3.250667 18.806666 4.14 18.697333C6.702666 18.385333 9.005333 18.630666 10.245333 19.349333C10.385333 19.426666 10.494666 19.510666 10.484 19.530666C10.458666 19.568 2.354667 19.578666 2.254667 19.541333C2.188 19.516 2.188 18.937333 2.188 13.448L2.188 7.374666L2.86 7.374666ZM21.947999 7.416C21.958666 7.437333 21.953333 10.182666 21.942666 13.5L21.921333 19.546666L17.828 19.557333C15.578666 19.562666 13.708 19.546666 13.672 19.526666C13.625333 19.505333 13.666666 19.458666 13.854666 19.349333C14.369333 19.036 15.193333 18.792 16.161333 18.656C16.912 18.552 18.812 18.552 19.630666 18.656C19.937333 18.697333 20.369333 18.74 20.583999 18.754666L20.969333 18.781333L21.119999 18.630666L21.265333 18.478666L21.265333 7.374666L21.598666 7.374666C21.786666 7.374666 21.942666 7.396 21.947999 7.416"/><path d="M6.197333 7.130666C6 7.24 5.948 7.478666 6.093333 7.630666C6.172 7.708 6.234667 7.713333 8.396 7.713333C10.573333 7.713333 10.62 7.713333 10.708 7.630666C10.833333 7.516 10.833333 7.292 10.713333 7.182666C10.630666 7.109333 10.521333 7.104 8.453333 7.093333C6.917333 7.088 6.26 7.093333 6.197333 7.130666M6.156 8.645333C6.041333 8.713333 6.010667 8.765333 6.010667 8.917333C6.010667 9.010666 6.041333 9.078666 6.12 9.136C6.229333 9.224 6.270667 9.224 8.406666 9.224C10.541333 9.224 10.584 9.224 10.693333 9.136C10.833333 9.026666 10.844 8.806666 10.708 8.677333C10.62 8.593333 10.573333 8.593333 8.432 8.593333C6.874666 8.598666 6.218667 8.614666 6.156 8.645333M6.125333 10.161333C6.010667 10.245333 5.984 10.489333 6.082667 10.604L6.156 10.702666L8.385333 10.697333C10.869333 10.697333 10.802666 10.702666 10.802666 10.421333C10.802666 10.333333 10.770666 10.245333 10.718666 10.193333C10.64 10.114666 10.578666 10.109333 8.416 10.109333C6.697333 10.109333 6.177333 10.12 6.125333 10.161333M6.093333 11.708C6.041333 11.754666 6.010667 11.844 6.010667 11.932C6.010667 12.218666 5.937333 12.208 8.406666 12.208C10.573333 12.208 10.62 12.208 10.708 12.125333C10.833333 12.010666 10.833333 11.776 10.708 11.688C10.625333 11.630666 10.333333 11.62 8.396 11.62C6.234667 11.62 6.172 11.625333 6.093333 11.708M6.104 13.188C5.978667 13.317333 5.978667 13.516 6.109333 13.630666L6.202667 13.724L8.396 13.724C10.541333 13.724 10.584 13.724 10.693333 13.636C10.833333 13.526666 10.844 13.302666 10.718666 13.177333C10.64 13.098666 10.578666 13.093333 8.416 13.093333L6.193333 13.093333ZM6.12 14.693333C6.041333 14.754666 6.010667 14.822666 6.010667 14.912C6.016 15.24 5.969333 15.234666 8.416 15.234666C10.541333 15.234666 10.584 15.234666 10.693333 15.145333C10.833333 15.036 10.844 14.817333 10.718666 14.688C10.64 14.609333 10.578666 14.604 8.432 14.604C6.270667 14.604 6.229333 14.604 6.12 14.693333M13.505333 7.145333C13.306666 7.229333 13.26 7.458666 13.406666 7.62L13.494666 7.713333L15.718666 7.713333C17.890666 7.713333 17.953333 7.708 18.030666 7.630666C18.145333 7.516 18.14 7.286666 18.026666 7.182666C17.942666 7.109333 17.838666 7.104 15.781333 7.098666C14.14 7.093333 13.598666 7.109333 13.505333 7.145333M13.426666 8.702666C13.286666 8.838666 13.292 9.026666 13.432 9.136C13.541333 9.224 13.584 9.224 15.718666 9.224C17.854666 9.224 17.896 9.224 18.005333 9.136C18.156 9.021333 18.156 8.802666 18.005333 8.682666C17.896 8.593333 17.854666 8.593333 15.713333 8.593333L13.530666 8.593333ZM13.412 10.218666C13.306666 10.354666 13.302666 10.473333 13.401333 10.598666L13.469333 10.697333L15.636 10.697333C16.822666 10.702666 17.833333 10.702666 17.874666 10.702666C17.989333 10.697333 18.114666 10.541333 18.114666 10.401333C18.114666 10.333333 18.078666 10.24 18.030666 10.193333C17.953333 10.114666 17.890666 10.109333 15.724 10.109333L13.494666 10.109333ZM13.489333 11.650666C13.317333 11.713333 13.265333 11.984 13.406666 12.125333C13.489333 12.208 13.546666 12.208 15.718666 12.208C17.890666 12.208 17.953333 12.208 18.030666 12.125333C18.082666 12.078666 18.114666 11.989333 18.114666 11.901333C18.114666 11.614666 18.182666 11.62 15.74 11.625333C14.536 11.625333 13.526666 11.64 13.489333 11.650666M13.426666 13.197333C13.286666 13.338666 13.292 13.521333 13.432 13.636C13.541333 13.724 13.584 13.724 15.718666 13.724C17.854666 13.724 17.896 13.724 18.005333 13.636C18.150666 13.521333 18.156 13.312 18.021333 13.188L17.921333 13.093333L13.530666 13.093333ZM13.426666 14.713333C13.286666 14.849333 13.292 15.036 13.432 15.145333C13.541333 15.234666 13.584 15.234666 15.718666 15.234666C17.854666 15.234666 17.896 15.234666 18.005333 15.145333C18.150666 15.036 18.156 14.817333 18.021333 14.688C17.932 14.604 17.890666 14.604 15.734666 14.604L13.530666 14.604Z"/></svg>
