<svg xmlns="http://www.w3.org/2000/svg" width="24" height="24" viewBox="0 0 24 24"><path d="M11.416 2.432C10.661333 2.593333 9.464 2.833333 8.76 2.964C5.874667 3.516 5 3.708 4.781333 3.822667C4.458667 3.994667 4.14 4.734667 4.14 5.344C4.14 5.926667 4.426667 6.562667 4.802667 6.786666C5.041333 6.932 5.030667 6.942666 4.526667 7.104C3.74 7.36 3.557333 7.666666 3.557333 8.76C3.557333 9.516 3.588 9.697333 3.802667 9.973333C3.926667 10.14 4.036 10.312 4.036 10.344C4.036 10.374666 3.688 10.469333 3.250667 10.568C2.349333 10.765333 2.218667 10.926666 2.593333 11.374666C3.078667 11.958666 3.078667 13.136 2.604 13.656C2.156 14.136 2.114667 14.104 3.926667 14.432C4.598667 14.557333 5.265333 14.688 5.406667 14.718666L5.672 14.770666L5.322667 15.046666C4.885333 15.385333 4.672 15.874666 4.672 16.505333L4.672 16.969333L4.12 17.098666C3.188 17.322666 2.76 17.885333 2.76 18.901333C2.76 19.912 3.12 20.411999 3.984 20.603999C4.802667 20.791999 11.62 22.182666 12.636 22.363999L13.541333 22.535999L16.937333 21.687999C22.395999 20.311999 21.983999 20.463999 21.515999 19.973333C20.942666 19.38 20.942666 18.317333 21.526666 17.713333C21.811999 17.406666 21.811999 17.396 21.619999 17.245333C21.505333 17.161333 21.291999 17.098666 21.155999 17.098666C20.729333 17.098666 20.515999 16.926666 20.567999 16.62C20.603999 16.458666 20.578666 16.354666 20.505333 16.354666C20.431999 16.354666 20.302666 16.182666 20.218666 15.964C20.026666 15.505333 20.093333 15.005333 20.390666 14.625333C20.635999 14.312 20.666666 14.016 20.453333 14.016C19.88 14.016 19.473333 12.86 19.666666 11.776C19.729333 11.426666 19.838666 11.078666 19.921333 11C19.994666 10.917333 20.401333 10.792 20.811999 10.713333C21.781333 10.546666 21.895999 10.406666 21.463999 9.973333C21.166666 9.672 21.130666 9.588 21.130666 8.973333C21.130666 8.36 21.166666 8.250666 21.463999 7.912C21.854666 7.464 21.781333 7.286666 21.119999 7.177333C20.749333 7.114666 20.707999 7.082666 20.759999 6.890666C20.811999 6.734666 20.749333 6.584 20.546666 6.369333C20.187999 6 20.103999 5.385333 20.327999 4.854667C20.411999 4.630667 20.557333 4.426667 20.655999 4.396C20.822666 4.322667 20.869333 4.078667 20.718666 3.994667C20.505333 3.854667 13.412 2.125333 13.114666 2.136C12.942666 2.136 12.182666 2.270667 11.416 2.432ZM16.250666 3.374667C18.88 4.046667 19.432 4.26 18.724 4.333333C18.562666 4.354667 17.682666 4.536 16.781333 4.734667C15.874666 4.948 14.921333 5.150667 14.656 5.202667C14.390666 5.245333 13.729333 5.385333 13.177333 5.510667L12.172 5.745333L11.213333 5.458667C10.682666 5.306667 9.650666 5 8.921333 4.781333C8.188 4.557333 7.338666 4.312 7.041333 4.24C6.734666 4.161333 6.478667 4.068 6.478667 4.016C6.478667 3.917333 6.458667 3.926667 8.338666 3.557333C9.098666 3.406667 10.385333 3.156 11.202666 2.984C12.021333 2.812 12.86 2.677333 13.062666 2.677333C13.265333 2.677333 14.697333 2.994667 16.250666 3.374667ZM6.754666 4.713333C7.625333 4.969333 9.046666 5.385333 9.906666 5.64C10.765333 5.885333 11.541333 6.14 11.630666 6.202667C11.754666 6.297333 11.754666 6.416 11.672 6.786666C11.609333 7.093333 11.598666 7.421333 11.672 7.74C11.724 8.005333 11.754666 8.24 11.734666 8.26C11.713333 8.281333 11.541333 8.250666 11.344 8.188C11.150666 8.125333 10.344 7.88 9.557333 7.645333C8.005333 7.188 7.188 6.942666 5.948 6.573333C5.510667 6.437333 5.057333 6.245333 4.937333 6.14C4.568 5.797333 4.693333 4.250667 5.098667 4.250667C5.130667 4.250667 5.885333 4.458667 6.754666 4.713333ZM19.729333 4.906667C19.708 5.109333 19.614666 5.161333 19.218666 5.213333C18.958666 5.254667 17.806666 5.510667 16.672 5.786667C15.536 6.062667 14.412 6.317333 14.177333 6.369333C13.369333 6.521333 12.817333 6.702666 12.912 6.797333C12.969333 6.849333 13.521333 6.776 14.177333 6.625333C14.822666 6.478667 15.874666 6.245333 16.516 6.093333C17.161333 5.958667 17.969333 5.765333 18.317333 5.682667C18.666666 5.598667 19.104 5.510667 19.276 5.5C19.552 5.469333 19.593333 5.5 19.593333 5.734667C19.593333 5.958667 19.521333 6.010667 18.958666 6.14C18.604 6.213333 18.073333 6.317333 17.765333 6.369333C17.469333 6.416 17.172 6.489333 17.12 6.521333C17.068 6.552 16.650666 6.645333 16.182666 6.745333C15.729333 6.828 15.177333 6.942666 14.973333 7C14.770666 7.062666 14.24 7.177333 13.806666 7.286666C12.921333 7.473333 12.817333 7.521333 12.890666 7.636C12.942666 7.718666 13.464 7.614666 17.552 6.693333C19.521333 6.254667 19.86 6.224 19.86 6.510667C19.86 6.604 19.432 6.745333 18.562666 6.932C17.838666 7.093333 17.12 7.276 16.937333 7.328C16.765333 7.38 15.948 7.573333 15.130666 7.749333C14.312 7.932 13.412 8.145333 13.125333 8.229333C12.541333 8.412 12.489333 8.390666 12.254666 7.942666C12.052 7.552 12.093333 6.541333 12.328 6.328C12.416 6.245333 13.964 5.86 15.770666 5.469333C17.584 5.078667 19.082666 4.734667 19.104 4.713333C19.125333 4.693333 19.286666 4.672 19.453333 4.672C19.718666 4.672 19.76 4.713333 19.729333 4.906667ZM6.478667 8.073333C10.202666 8.844 11.906666 9.208 11.958666 9.270666C11.989333 9.302666 11.978666 9.557333 11.926666 9.833333C11.874666 10.12 11.86 10.588 11.906666 10.885333C11.937333 11.172 11.958666 11.426666 11.937333 11.448C11.926666 11.469333 11.130666 11.306666 10.172 11.098666C9.229333 10.896 7.984 10.62 7.432 10.505333C6.88 10.385333 6.14 10.213333 5.776 10.130666C5.426667 10.046666 5.057333 9.984 4.958667 9.984C4.109333 9.984 3.650667 8.718666 4.193333 7.890666C4.292 7.749333 4.374667 7.645333 4.385333 7.645333C4.396 7.645333 5.344 7.838666 6.478667 8.073333ZM20.687999 8.188C20.645333 8.494666 20.505333 8.546666 19.276 8.749333C18.693333 8.844 17.948 8.973333 17.630666 9.026666C17.306666 9.078666 16.588 9.208 16.036 9.292C15.484 9.385333 14.656 9.526666 14.197333 9.598666C13.74 9.672 13.338666 9.770666 13.306666 9.812C13.125333 9.994666 13.464 9.994666 14.412 9.833333C14.984 9.74 16.568 9.473333 17.937333 9.24C19.297333 9.005333 20.453333 8.844 20.505333 8.88C20.557333 8.912 20.603999 9.026666 20.603999 9.145333C20.603999 9.396 20.338666 9.505333 19.484 9.598666C19.136 9.64 18.677333 9.718666 18.478666 9.770666C18.276 9.822666 17.650666 9.937333 17.098666 10.026666C15.937333 10.202666 14.36 10.469333 13.776 10.578666C13.401333 10.64 13.188 10.781333 13.297333 10.896C13.328 10.917333 13.718666 10.864 14.188 10.781333C14.645333 10.693333 15.770666 10.505333 16.672 10.354666C17.573333 10.193333 18.677333 10.016 19.114666 9.926666C20.677333 9.650666 20.593333 9.650666 20.718666 9.896C20.869333 10.172 20.749333 10.26 20.026666 10.344C19.729333 10.385333 19.010666 10.516 18.426666 10.62C16.874666 10.917333 13.593333 11.5 13.177333 11.552C12.636 11.630666 12.437333 11.297333 12.426666 10.344C12.426666 9.76 12.469333 9.557333 12.614666 9.432C12.724 9.322666 13.562666 9.130666 14.812 8.921333C15.926666 8.729333 17.598666 8.442666 18.530666 8.281333C20.687999 7.901333 20.729333 7.901333 20.687999 8.188ZM19.218666 11.333333C19.208 11.385333 19.166666 11.630666 19.125333 11.885333C19.073333 12.161333 19.073333 12.645333 19.125333 13.041333C19.177333 13.421333 19.208 13.74 19.188 13.76C19.177333 13.786666 18.901333 13.869333 18.584 13.953333C18.265333 14.036 17.213333 14.328 16.250666 14.604C13.994666 15.24 13.030666 15.494666 12.932 15.505333C12.901333 15.505333 12.817333 15.364 12.765333 15.188C12.636 14.822666 12.36 14.942666 15.026666 14.229333C17.598666 13.541333 18.584 13.245333 18.584 13.145333C18.584 13.021333 18.530666 13.021333 16.864 13.473333C16.406666 13.604 15.688 13.797333 15.270666 13.901333C14.844 14.016 14.114666 14.208 13.656 14.338666C13.197333 14.464 12.754666 14.536 12.666666 14.505333C12.478666 14.432 12.530666 14.016 12.745333 13.901333C12.828 13.86 13.932 13.552 15.188 13.218666C18.636 12.297333 18.584 12.317333 18.584 12.150666C18.584 11.969333 18.573333 11.969333 18.193333 12.114666C17.917333 12.234666 15.250666 12.969333 14.442666 13.156C14.24 13.208 13.76 13.328 13.401333 13.432C13.030666 13.530666 12.702666 13.584 12.656 13.552C12.625333 13.510666 12.645333 13.349333 12.702666 13.188C12.786666 12.942666 12.912 12.869333 13.645333 12.677333C14.114666 12.552 14.973333 12.317333 15.557333 12.161333C18.786666 11.276 19.218666 11.182666 19.218666 11.333333ZM3.926667 11.458666C4.250667 11.521333 5.374667 11.713333 6.426667 11.896C7.473333 12.073333 9.166666 12.36 10.182666 12.541333C11.193333 12.713333 12.062666 12.88 12.114666 12.912C12.245333 12.989333 12.245333 13.453333 12.114666 13.530666C12.030666 13.593333 11.416 13.484 8.869333 13.010666C8.401333 12.921333 7.349333 12.734666 6.530667 12.573333C3.708 12.062666 3.505333 12 3.385333 11.713333C3.292 11.448 3.270667 11.364 3.322667 11.364C3.333333 11.364 3.609333 11.406666 3.926667 11.458666ZM7.964 13.114666C10.098666 13.510666 11.906666 13.849333 11.978666 13.869333C12.041333 13.890666 12.104 14.052 12.104 14.229333C12.104 14.505333 12.073333 14.546666 11.874666 14.505333C11.344 14.401333 10.536 14.24 9.926666 14.136C9.578666 14.073333 8.697333 13.901333 7.964 13.76C7.234666 13.625333 6.182667 13.421333 5.630667 13.328C3.650667 12.969333 3.557333 12.932 3.526667 12.593333C3.494667 12.306666 3.505333 12.297333 3.792 12.349333C3.948 12.38 5.828 12.734666 7.964 13.114666ZM4.224 13.328C4.62 13.412 5.584 13.604 6.369333 13.74C7.156 13.890666 8.188 14.093333 8.656 14.177333C9.12 14.26 10.078666 14.453333 10.781333 14.578666C11.896 14.802666 12.062666 14.854666 12.182666 15.088C12.254666 15.229333 12.276 15.374666 12.234666 15.421333C12.193333 15.464 11.797333 15.421333 11.364 15.333333C10.926666 15.250666 10.24 15.109333 9.822666 15.026666C9.177333 14.901333 5.584 14.208 3.964 13.901333C3.344 13.786666 3.250667 13.697333 3.344 13.38C3.432 13.125333 3.354667 13.136 4.224 13.328ZM19.604 15.364C19.604 15.650666 19.636 16.046666 19.688 16.26C19.76 16.62 19.749333 16.650666 19.464 16.713333C19.306666 16.754666 19.030666 16.864 18.849333 16.948C18.573333 17.068 17.754666 17.396 15.005333 18.458666C14.432 18.677333 14.312 18.573333 14.250666 17.817333C14.188 17 14.328 16.745333 14.942666 16.526666C15.218666 16.416 15.62 16.270666 15.822666 16.193333C17.478666 15.546666 19.306666 14.890666 19.442666 14.88C19.584 14.869333 19.614666 14.973333 19.604 15.364ZM7.442666 15.729333C9.473333 16.036 10.781333 16.24 11.630666 16.364C12.041333 16.426666 12.656 16.526666 13.010666 16.578666C13.36 16.630666 13.666666 16.672 13.697333 16.672C13.74 16.672 13.76 17.130666 13.749333 17.682666L13.749333 18.693333L13.484 18.636C13.338666 18.614666 12.890666 18.541333 12.478666 18.478666C12.073333 18.416 11.306666 18.297333 10.781333 18.213333C10.26 18.125333 9.156 17.958666 8.338666 17.838666C5.489333 17.426666 5.521333 17.437333 5.354667 17.030666C5.172 16.598666 5.161333 16.14 5.333333 15.770666C5.478667 15.442666 5.584 15.442666 7.442666 15.729333ZM5.254667 18.062666C7.401333 18.469333 12.797333 19.562666 12.828 19.593333C12.849333 19.614666 12.817333 19.890666 12.745333 20.207999C12.666666 20.614666 12.656 20.921333 12.734666 21.250666C12.88 21.895999 12.88 21.906666 12.614666 21.833333C12.478666 21.802666 11.276 21.557333 9.926666 21.291999C8.593333 21.026666 7.297333 20.759999 7.062666 20.707999C6.828 20.655999 6.041333 20.483999 5.306667 20.338666C4.578667 20.187999 3.896 20.035999 3.792 20.005333C3.464 19.912 3.26 19.349333 3.312 18.677333C3.364 17.989333 3.546667 17.693333 3.864 17.776C3.994667 17.806666 4.62 17.937333 5.254667 18.062666ZM20.655999 18.245333C20.625333 18.369333 20.505333 18.489333 20.411999 18.521333C20.218666 18.573333 14.645333 19.932 14.26 20.015999C13.973333 20.082666 13.932 20.281333 14.197333 20.281333C14.302666 20.281333 15.74 19.942666 17.396 19.530666C19.052 19.114666 20.421333 18.797333 20.442666 18.817333C20.463999 18.838666 20.505333 18.969333 20.546666 19.114666L20.614666 19.38L17.437333 20.155999C14.338666 20.921333 13.901333 21.046666 14.036 21.187999C14.093333 21.239999 19.338666 19.994666 20.411999 19.688C20.578666 19.636 20.901333 20.026666 20.781333 20.145333C20.718666 20.197333 20.177333 20.338666 16.989333 21.119999C15.792 21.421333 14.557333 21.739999 14.24 21.833333C13.666666 22.005333 13.666666 22.005333 13.473333 21.759999C13.197333 21.395999 13.114666 20.697333 13.286666 20.155999C13.412 19.76 13.494666 19.677333 13.86 19.562666C14.901333 19.234666 20.557333 17.896 20.635999 17.958666C20.687999 18 20.697333 18.125333 20.655999 18.245333Z"/></svg>
