<svg xmlns="http://www.w3.org/2000/svg" width="24" height="24" viewBox="0 0 24 24"><path d="M4.374978 3.3905C4.551978 3.2415 4.643978 3.2205 5.188978 3.2205C8.261978 3.2275 10.498978 4.0275 11.716978 5.5645L11.978978 5.8965L12.297978 5.5145C12.813978 4.9055 13.330978 4.5095 14.088978 4.1415C15.242978 3.5745 16.368979 3.3265 18.130978 3.2495C19.235977 3.1925 19.433977 3.2205 19.646978 3.4475C19.766977 3.5755 19.787977 3.6955 19.787977 4.1555V4.7075H20.361979C20.899979 4.7075 20.941978 4.7225 21.139978 4.9125C21.331978 5.1035 21.345978 5.1605 21.345978 5.6495V6.1805L21.876978 6.2085C22.343979 6.2295 22.428978 6.2585 22.598978 6.4285L22.796978 6.6185L22.810978 13.1185C22.817978 17.210501 22.797977 19.695499 22.747978 19.8375C22.722151 19.922441 22.70853 19.99124 22.673876 20.046955C22.526224 20.284348 21.996733 20.284246 18.514145 20.283577H18.514091C18.320341 20.283539 18.117451 20.283501 17.904978 20.283501C14.180978 20.283501 13.422978 20.297501 13.394978 20.3825C13.373978 20.432501 13.217978 20.5455 13.047978 20.629499C12.785978 20.7505 12.608978 20.779499 11.992978 20.779499C11.227978 20.779499 10.810978 20.665501 10.590978 20.4035C10.505978 20.290501 10.102978 20.283501 6.059978 20.283501C5.849049 20.283501 5.647635 20.283539 5.455296 20.283577H5.455207C2.001907 20.284246 1.474084 20.284349 1.32698 20.047733C1.292254 19.99188 1.278744 19.922838 1.252978 19.8375C1.202978 19.695499 1.181978 17.217501 1.188978 13.1325C1.189597 12.818814 1.190148 12.519746 1.190673 12.234602C1.200221 7.048429 1.201289 6.468577 1.451369 6.326244C1.498491 6.299426 1.554453 6.28814 1.620978 6.2645C1.733978 6.2295 1.995978 6.1945 2.193978 6.1945H2.569978L2.597978 5.6275C2.632978 4.8495 2.732978 4.7495 3.532978 4.7215L4.126978 4.6935L4.154978 4.1265C4.176978 3.6105 4.197978 3.5465 4.374978 3.3905ZM19.008978 9.8615H19.009977C19.009977 6.6405 18.987978 4.0065 18.959976 4.0135C18.598841 4.032445 18.237831 4.053779 17.876978 4.0775C16.729979 4.1345 15.992978 4.2685 15.164978 4.5725C13.953978 5.0115 13.146978 5.6495 12.579978 6.6195L12.389978 6.9375L12.367978 12.5945L12.346978 18.251499L12.948978 17.685499C14.166978 16.5315 15.879978 15.9085 18.208979 15.7735L19.008978 15.7315ZM7.001978 4.1485C6.080978 4.0565 4.990978 4.0065 4.983978 4.0635C4.976899 7.91483 4.976899 11.76617 4.983978 15.6175C4.990978 15.7095 5.132978 15.7385 5.825978 15.7735C8.176978 15.9085 10.151978 16.665501 11.227978 17.855499C11.324474 17.96426 11.428749 18.065863 11.539978 18.1595C11.574978 18.1805 11.603978 16.0075 11.596978 12.5875L11.589978 6.9805L11.390978 6.6045C11.277978 6.3995 10.966978 6.0035 10.689978 5.7345C9.840978 4.8775 8.501978 4.3035 7.001978 4.1485ZM20.567978 17.8475V5.5575H19.788979V16.1705L19.625978 16.3535C19.477978 16.5315 19.434978 16.5455 18.549978 16.5735C16.595978 16.644501 15.123978 17.047501 13.983978 17.8265C13.636978 18.067499 12.779978 18.9095 12.779978 19.0165C12.779978 19.0515 12.928978 18.959499 13.119978 18.817499C13.784978 18.3085 14.818978 17.932501 16.107979 17.7355C16.808977 17.6285 19.002977 17.6425 19.880978 17.755501ZM4.141978 10.7965V5.5575H3.398978L3.406978 11.7025C3.412978 15.2285 3.440978 17.8335 3.476978 17.8265C4.453978 17.6425 7.009978 17.6145 8.057978 17.7705C9.218978 17.9475 10.266978 18.3515 10.959978 18.8815C11.349978 19.186501 11.278978 19.0585 10.782978 18.5345C9.565978 17.2665 7.929978 16.658501 5.487978 16.5665C5.012978 16.5525 4.559978 16.5165 4.488978 16.4965C4.141978 16.3825 4.141978 16.4105 4.141978 10.7965ZM21.983978 19.4335V7.0435H21.346977V18.3505L21.183977 18.498501C20.985977 18.6835 20.836979 18.6905 19.682978 18.5485C18.662977 18.428499 17.162977 18.414499 16.284979 18.5205C15.299978 18.640499 14.252978 18.980499 13.699978 19.356501C13.629978 19.4055 14.903978 19.4335 17.792978 19.4335ZM2.584978 12.6155 2.583978 7.0435H2.016978V19.4335H6.180978C10.329978 19.4335 10.336978 19.4335 10.159978 19.2925C9.890978 19.0795 8.991978 18.754499 8.319978 18.619499C7.349978 18.428499 5.678978 18.400499 4.234978 18.5485C3.363978 18.640499 2.959978 18.6625 2.874978 18.605499C2.584978 18.428499 2.584978 18.421499 2.584978 12.6155Z"/></svg>
