<svg xmlns="http://www.w3.org/2000/svg" width="24" height="24" viewBox="0 0 24 24"><path d="M7.224 1.396L4.322667 1.421333L4.030667 1.584C3.708 1.76 3.464 2.026667 3.276 2.401333L3.14 2.656L3.14 19.713333L3.270667 19.817333C3.338667 19.869333 3.464 19.921333 3.541333 19.921333C3.749333 19.921333 3.849333 20.051999 3.958667 20.469333C4.036 20.770666 4.041333 20.879999 3.989333 21.182666C3.921333 21.587999 3.802667 21.797333 3.645333 21.797333C3.489333 21.797333 3.234667 21.942666 3.161333 22.073333C3.130667 22.135999 3.12 22.265333 3.14 22.369333C3.202667 22.739999 2.609333 22.718666 11.526666 22.702666L19.573333 22.682666L19.833333 22.562666C20.223999 22.385333 20.530666 22.103999 20.734666 21.754666L20.911999 21.447999L20.926666 12.057333L20.937333 2.666667L20.817333 2.396C20.645333 2.026667 20.411999 1.770667 20.078666 1.588C19.854666 1.464 19.697333 1.426667 19.26 1.390667C18.682666 1.344 12.197333 1.349333 7.224 1.396ZM18.229333 10.656L18.229333 19.030666L11.130666 19.052L4.026667 19.062666L4.026667 2.806667L4.150667 2.625333C4.213333 2.526667 4.354667 2.401333 4.458667 2.344C4.636 2.26 5.057333 2.254667 11.437333 2.265333L18.229333 2.281333ZM19.697333 2.406667C19.776 2.458667 19.88 2.573333 19.942666 2.650667C20.051999 2.797333 20.051999 2.812 20.067999 10.969333C20.073333 15.464 20.067999 19.172 20.051999 19.208C20.030666 19.265333 20.005333 19.265333 19.906666 19.208C19.838666 19.177333 19.64 19.12 19.464 19.088L19.14 19.026666L19.125333 10.708C19.12 6.130667 19.125333 2.36 19.14 2.312C19.177333 2.218667 19.521333 2.270667 19.697333 2.406667ZM19.609333 20.067999C20.223999 20.453333 20.213333 21.374666 19.598666 21.677333L19.354666 21.791999L12.098666 21.806666C8.109333 21.817333 4.822667 21.806666 4.802667 21.786666C4.776 21.765333 4.797333 21.639999 4.833333 21.510666C4.896 21.265333 4.88 20.359999 4.806667 20.062666L4.765333 19.921333L12.082666 19.932L19.412 19.948Z"/></svg>
