<svg xmlns="http://www.w3.org/2000/svg" width="24" height="24" viewBox="0 0 24 24"><path d="M17.5 2C18.880713 2 20 3.119288 20 4.5V19.5C20 20.880713 18.880713 22 17.5 22L4.25 22.000002C3.835787 22.000002 3.5 21.664213 3.5 21.250002C3.5 20.835787 3.835787 20.500002 4.25 20.5H17.5C18.052284 20.5 18.5 20.052284 18.5 19.5H4.25C3.836 19.5 3.5 19.164 3.5 18.75V4.5C3.5 3.119288 4.619288 2 6 2ZM9 9C7.343146 9 6 10.343146 6 12C6 13.656855 7.343146 15 9 15H11V13.5H9C8.171573 13.5 7.5 12.828427 7.5 12C7.5 11.171573 8.171573 10.5 9 10.5H11V9ZM15 9H13V10.5H15C15.828428 10.5 16.5 11.171573 16.5 12C16.5 12.828427 15.828428 13.5 15 13.5H13V15H15C16.656855 15 18 13.656855 18 12C18 10.343146 16.656855 9 15 9ZM11 11.5V12.5H13V11.5Z"/></svg>
