<svg xmlns="http://www.w3.org/2000/svg" width="24" height="24" viewBox="0 0 24 24"><path d="M5.016 3.969333C4.926667 4.005333 4.849333 4.036 4.849333 4.036C4.844 4.036 4.792 4.104 4.724 4.188C4.62 4.322667 4.609333 4.38 4.588 4.770667L4.568 5.202667L4.073333 5.224C3.328 5.254667 3.213333 5.349333 3.136 5.973333L3.093333 6.349333L2.64 6.374667C1.948 6.412 1.745333 6.557333 1.677333 7.057333C1.656 7.213333 1.64 9.958666 1.650667 13.401333L1.656 19.469333L1.786667 19.64C1.86 19.74 1.994667 19.864 2.093333 19.912L2.265333 20.005333L10.702666 20.005333L10.838666 20.114666C11.078666 20.291999 11.302666 20.369333 11.713333 20.395999C12.38 20.437333 12.890666 20.338666 13.14 20.114666C13.234666 20.026666 13.250666 20.026666 17.541333 20.005333L21.849333 19.984L21.994666 19.896C22.073333 19.849333 22.182666 19.734666 22.229333 19.64L22.322666 19.484L22.322666 13.188C22.322666 6.14 22.343999 6.713333 22.021333 6.5C21.869333 6.396 21.817333 6.390667 21.401333 6.38C21.150666 6.374667 20.937333 6.374667 20.921333 6.374667C20.906666 6.369333 20.890666 6.202667 20.879999 6C20.859999 5.593333 20.806666 5.484 20.557333 5.312C20.437333 5.229333 20.374666 5.224 19.942666 5.224C19.650666 5.224 19.448 5.202667 19.432 5.182667C19.416 5.156 19.401333 4.969333 19.396 4.76C19.390666 4.322667 19.317333 4.150667 19.082666 4.016C18.948 3.937333 18.88 3.932 18.021333 3.937333C16.073333 3.948 14.932 4.182667 13.64 4.828C13.068 5.12 12.448 5.625333 12.145333 6.052C12.104 6.114667 12.046666 6.161333 12.021333 6.161333C11.989333 6.161333 11.890666 6.062667 11.792 5.937333C11.390666 5.432 10.666666 4.926667 9.869333 4.588C8.802666 4.136 7.854666 3.973333 6.125333 3.932C5.338667 3.912 5.150667 3.921333 5.016 3.969333M6.781333 4.156C9.14 4.302667 10.869333 5.052 11.806666 6.333333C11.901333 6.469333 11.989333 6.573333 12.005333 6.573333C12.016 6.573333 12.093333 6.473333 12.177333 6.354667C12.38 6.046667 12.786666 5.645333 13.166666 5.38C14.208 4.650667 15.516 4.26 17.265333 4.156C19.104 4.052 19.166666 4.078667 19.166666 4.942667L19.166666 5.426667L20.349333 5.426667L20.489333 5.568C20.650666 5.724 20.682666 5.849333 20.682666 6.270667L20.682666 6.573333L21.166666 6.573333C21.583999 6.573333 21.671999 6.584 21.827999 6.661333C21.969333 6.734666 22.026666 6.797333 22.062666 6.901333C22.098666 7.005333 22.109333 8.541333 22.109333 13.197333C22.114666 20.125333 22.139999 19.62 21.811999 19.74C21.661333 19.797333 21.207999 19.806666 17.432 19.792L13.218666 19.776L13.026666 19.926666C12.776 20.130666 12.604 20.171999 12.016 20.171999C11.442666 20.171999 11.188 20.109333 11 19.926666L10.874666 19.812L6.573333 19.792C3.078667 19.781333 2.250667 19.765333 2.161333 19.718666C2.098667 19.693333 2.010667 19.588 1.964 19.494666C1.885333 19.328 1.885333 19.254666 1.885333 13.161333C1.885333 7.38 1.890667 6.994666 1.958667 6.86C2.073333 6.625333 2.234667 6.573333 2.817333 6.573333L3.317333 6.573333L3.317333 6.254667C3.317333 5.849333 3.369333 5.661333 3.526667 5.530667C3.650667 5.432 3.672 5.426667 4.245333 5.426667L4.833333 5.426667L4.833333 4.917333C4.833333 4.432 4.838667 4.401333 4.937333 4.286667C4.994667 4.218667 5.082667 4.150667 5.130667 4.145333C5.302667 4.109333 6.161333 4.114667 6.781333 4.156"/><path d="M5.448 10.328L5.448 15.937333L6.156 15.964C8.578666 16.052 10.322666 16.702666 11.421333 17.932C11.546666 18.073333 11.656 18.188 11.666666 18.197333C11.682666 18.202666 11.688 15.786666 11.682666 12.833333C11.666666 6.854666 11.693333 7.302666 11.385333 6.776C10.917333 5.978667 9.802666 5.297333 8.458666 4.984C7.88 4.849333 7.197333 4.776 6.286667 4.745333L5.448 4.718667ZM10.729333 7.312C10.86 7.437333 10.838666 7.693333 10.708 7.797333C10.598666 7.885333 10.557333 7.885333 8.593333 7.885333C6.828 7.885333 6.568 7.874666 6.448 7.817333C6.24 7.713333 6.188 7.442666 6.354667 7.297333C6.432 7.234666 6.598667 7.229333 8.541333 7.229333C10.593333 7.229333 10.650666 7.234666 10.729333 7.312M10.708 8.749333C10.838666 8.854666 10.86 9.109333 10.729333 9.234666C10.650666 9.317333 10.609333 9.317333 8.541333 9.306666C6.541333 9.297333 6.432 9.292 6.354667 9.218666C6.218667 9.098666 6.234667 8.86 6.374667 8.749333C6.478667 8.661333 6.521333 8.661333 8.541333 8.661333C10.557333 8.661333 10.598666 8.661333 10.708 8.749333M10.734666 10.213333C10.86 10.312 10.86 10.557333 10.734666 10.688C10.650666 10.770666 10.62 10.770666 8.672 10.781333C7.584 10.792 6.64 10.781333 6.568 10.770666C6.354667 10.734666 6.26 10.630666 6.26 10.442666C6.26 10.328 6.281333 10.265333 6.349333 10.208C6.432 10.14 6.584 10.136 8.541333 10.136C10.530666 10.136 10.645333 10.14 10.734666 10.213333M10.682666 11.636C10.885333 11.781333 10.869333 12.088 10.650666 12.182666C10.573333 12.213333 9.948 12.224 8.489333 12.218666C6.541333 12.202666 6.432 12.202666 6.354667 12.125333C6.218667 12.010666 6.234667 11.765333 6.374667 11.656C6.478667 11.568 6.521333 11.568 8.536 11.568C10.354666 11.568 10.598666 11.578666 10.682666 11.636M10.729333 13.125333C10.833333 13.229333 10.838666 13.478666 10.745333 13.584C10.682666 13.656 10.557333 13.656 8.562666 13.656C6.161333 13.656 6.265333 13.672 6.265333 13.349333C6.265333 13.030666 6.161333 13.046666 8.546666 13.046666C10.593333 13.046666 10.650666 13.046666 10.729333 13.125333M10.724 14.578666C10.786666 14.636 10.812 14.702666 10.812 14.828C10.812 15.136 10.926666 15.12 8.573333 15.136L6.478667 15.150666L6.374667 15.057333C6.188 14.885333 6.24 14.593333 6.469333 14.505333C6.505333 14.494666 7.458666 14.484 8.584 14.489333C10.541333 14.5 10.645333 14.5 10.724 14.578666M16.854666 4.797333C16.082666 4.854667 15.593333 4.948 14.964 5.161333C13.770666 5.557333 12.926666 6.182667 12.530666 6.958666L12.349333 7.322666L12.333333 12.776L12.328 18.224L12.453333 18.062666C12.682666 17.776 13.114666 17.385333 13.453333 17.161333C14.593333 16.401333 15.958666 16.030666 17.849333 15.964L18.552 15.937333L18.552 4.729333L18.052 4.734667C17.776 4.74 17.234666 4.765333 16.854666 4.797333M17.609333 7.270666C17.702666 7.322666 17.792 7.530666 17.76 7.656C17.745333 7.713333 17.677333 7.776 17.588 7.817333C17.464 7.88 17.24 7.885333 15.396 7.874666L13.344 7.864L13.245333 7.749333C13.12 7.598666 13.12 7.458666 13.250666 7.333333L13.349333 7.229333L15.442666 7.229333C16.702666 7.229333 17.562666 7.245333 17.609333 7.270666M17.568 8.713333C17.806666 8.833333 17.833333 9.114666 17.614666 9.250666C17.505333 9.312 17.317333 9.317333 15.453333 9.317333C13.896 9.317333 13.390666 9.306666 13.312 9.265333C13.104 9.156 13.104 8.822666 13.312 8.713333C13.458666 8.64 17.421333 8.64 17.568 8.713333M17.636 10.229333C17.781333 10.354666 17.786666 10.552 17.656 10.682666L17.568 10.770666L13.344 10.770666L13.245333 10.656C13.12 10.510666 13.12 10.364 13.250666 10.24L13.349333 10.136L17.526666 10.136ZM17.598666 11.645333C17.74 11.74 17.806666 11.926666 17.74 12.057333C17.645333 12.218666 17.473333 12.229333 15.369333 12.218666L13.36 12.202666L13.254666 12.104C13.082666 11.948 13.12 11.734666 13.333333 11.62C13.390666 11.588 14.052 11.573333 15.442666 11.568C17.369333 11.568 17.473333 11.573333 17.598666 11.645333M17.584 13.088C17.682666 13.136 17.776 13.281333 17.776 13.396C17.776 13.426666 17.729333 13.505333 17.672 13.557333L17.573333 13.656L13.312 13.656L13.234666 13.552C13.182666 13.489333 13.145333 13.401333 13.145333 13.349333C13.145333 13.302666 13.182666 13.213333 13.234666 13.150666L13.312 13.046666L15.401333 13.046666C16.838666 13.046666 17.516 13.057333 17.584 13.088M17.552 14.541333C17.792 14.636 17.838666 14.942666 17.636 15.073333C17.552 15.130666 17.26 15.136 15.473333 15.145333C13.562666 15.150666 13.401333 15.150666 13.297333 15.078666C13.078666 14.937333 13.104 14.614666 13.349333 14.530666C13.453333 14.5 14.046666 14.484 15.453333 14.484C17.073333 14.478666 17.432 14.484 17.552 14.541333"/><path d="M3.984 6.026667C3.942667 6.046667 3.932 7.254666 3.932 11.885333L3.932 17.724L4.088 17.697333C4.729333 17.588 5.088 17.568 6.349333 17.568C8.073333 17.568 8.464 17.62 9.636 17.984C10.286666 18.182666 10.822666 18.469333 11.302666 18.854666C11.453333 18.978666 11.473333 18.984 11.426666 18.896C11.136 18.354666 10.401333 17.713333 9.588 17.306666C8.693333 16.86 7.702666 16.656 6.182667 16.609333C5.098667 16.584 5.052 16.573333 4.917333 16.349333C4.838667 16.224 4.833333 16.093333 4.833333 11.130666L4.833333 6.041333L4.516 6.041333C4.344 6.041333 4.161333 6.030667 4.114667 6.021333C4.073333 6.010667 4.010667 6.010667 3.984 6.026667M19.197333 6.026667C19.177333 6.041333 19.166666 8.322666 19.166666 11.093333C19.166666 14.469333 19.150666 16.188 19.12 16.292C19.046666 16.568 18.989333 16.584 17.896 16.614666C17.369333 16.630666 16.781333 16.661333 16.588 16.688C15.473333 16.838666 14.562666 17.161333 13.781333 17.682666C13.374666 17.953333 12.530666 18.817333 12.530666 18.958666C12.530666 18.973333 12.630666 18.906666 12.749333 18.812C13.541333 18.161333 14.806666 17.724 16.265333 17.588C16.964 17.526666 18.906666 17.562666 19.530666 17.645333C19.792 17.682666 20.015999 17.702666 20.035999 17.682666C20.051999 17.666666 20.062666 15.030666 20.062666 11.833333L20.046666 6.021333L19.636 6.010667C19.412 6.005333 19.213333 6.010667 19.197333 6.026667"/><path d="M2.588 7.218666L2.5 7.234666L2.505333 13.197333L2.521333 19.166666L6.636 19.177333C11.26 19.188 10.901333 19.218666 10.218666 18.869333C9.453333 18.484 8.745333 18.312 7.494666 18.202666C6.822666 18.145333 5.338667 18.177333 4.688 18.265333C4.442667 18.302666 4.098667 18.338666 3.932 18.354666C3.656 18.374666 3.614667 18.369333 3.516 18.292C3.453333 18.24 3.385333 18.130666 3.36 18.046666C3.333333 17.953333 3.317333 16.093333 3.317333 12.568L3.317333 7.234666L3 7.218666C2.828 7.213333 2.64 7.213333 2.588 7.218666M20.677333 7.218666C20.677333 7.234666 20.671999 9.682666 20.671999 12.656C20.661333 17.984 20.661333 18.062666 20.578666 18.197333C20.453333 18.406666 20.363999 18.412 19.369333 18.26C18.765333 18.172 16.724 18.156 16.136 18.24C14.828 18.421333 14.281333 18.584 13.578666 18.994666L13.250666 19.188L21.499999 19.188L21.494666 13.197333L21.478666 7.208L21.082666 7.197333C20.863999 7.193333 20.682666 7.197333 20.677333 7.218666"/></svg>
