<svg xmlns="http://www.w3.org/2000/svg" width="24" height="24" viewBox="0 0 24 24"><path d="M5.046667 3.890667C4.718667 3.921333 4.510667 4.030667 4.426667 4.224C4.401333 4.286667 4.374667 4.541333 4.36 4.797333L4.333333 5.254667L3.792 5.276C3.306667 5.292 3.229333 5.312 3.109333 5.396C2.901333 5.546667 2.869333 5.636 2.849333 6.156L2.828 6.64L2.364 6.661333C1.885333 6.682666 1.806667 6.708 1.636 6.890666L1.530667 7.005333L1.516 13.188L1.510667 19.38L1.598667 19.494666C1.786667 19.734666 1.593333 19.729333 6.270667 19.729333L10.578666 19.729333L10.792 19.890666C11.098666 20.119999 11.333333 20.166666 12.104 20.166666C12.864 20.166666 13.12 20.109333 13.390666 19.874666L13.562666 19.729333L17.88 19.729333C22.130666 19.729333 22.202666 19.729333 22.363999 19.645333C22.682666 19.478666 22.661333 20.010666 22.661333 13.188C22.661333 7.193333 22.661333 7.052 22.578666 6.921333C22.453333 6.718666 22.349333 6.682666 21.822666 6.661333L21.338666 6.64L21.317333 6.156C21.286666 5.38 21.177333 5.276 20.406666 5.276C20.150666 5.276 19.917333 5.265333 19.88 5.250667C19.822666 5.229333 19.812 5.145333 19.812 4.781333C19.812 4.276 19.754666 4.136 19.510666 3.973333C19.374666 3.896 19.328 3.890667 18.281333 3.906667C16.802666 3.937333 16.010666 4.068 14.745333 4.505333C13.573333 4.906667 12.874666 5.38 12.150666 6.265333C12.093333 6.333333 12.078666 6.328 11.984 6.193333C11.197333 5.145333 9.812 4.432 7.874666 4.068C7.104 3.926667 5.702667 3.838667 5.046667 3.890667M7.265333 4.734667C8.374666 4.901333 9.177333 5.136 9.958666 5.530667C10.770666 5.942667 11.24 6.38 11.562666 7.010666L11.749333 7.385333L11.754666 12.593333C11.754666 15.458666 11.74 17.812 11.724 17.828C11.708 17.833333 11.552 17.702666 11.374666 17.530666C11.005333 17.166666 10.672 16.921333 10.130666 16.614666C8.912 15.926666 7.797333 15.645333 6.052 15.593333C5.562667 15.584 5.188 15.552 5.161333 15.526666C5.114667 15.489333 5.104 14.64 5.125333 10.598666C5.14 7.917333 5.145333 5.464 5.150667 5.156L5.150667 4.593333L5.917333 4.62C6.338667 4.630667 6.942666 4.682667 7.265333 4.734667M19.046666 10.046666C19.052 13.724 19.046666 15.484 19.016 15.521333C18.984 15.557333 18.812 15.573333 18.458666 15.578666C16.734666 15.593333 15.250666 15.937333 14.114666 16.584C13.552 16.906666 13.197333 17.166666 12.849333 17.516C12.672 17.697333 12.505333 17.844 12.478666 17.844C12.453333 17.844 12.437333 16.245333 12.437333 12.672C12.437333 7.636 12.442666 7.494666 12.526666 7.24C12.885333 6.062667 14.437333 5.130667 16.64 4.776C17.369333 4.656 17.849333 4.614667 18.489333 4.625333L19.036 4.630667ZM4.364 11L4.374667 15.969333L4.526667 16.098666L4.672 16.24L5.541333 16.265333C6.854666 16.306666 7.688 16.437333 8.568 16.729333C9.088 16.906666 9.828 17.270666 10.229333 17.546666C10.598666 17.802666 11.14 18.297333 11.24 18.469333C11.328 18.625333 11.306666 18.62 11.021333 18.396C10.62 18.088 9.844 17.76 9.098666 17.573333C7.614666 17.208 6.24 17.172 3.802667 17.453333L3.604 17.478666L3.604 12.010666C3.604 9.005333 3.588 6.426667 3.578667 6.286667L3.546667 6.030667L4.354667 6.030667ZM20.567999 11.749333C20.567999 17.166666 20.562666 17.464 20.494666 17.464C20.453333 17.464 20.229333 17.437333 20.005333 17.401333C18.557333 17.188 16.697333 17.229333 15.369333 17.516C14.526666 17.697333 13.458666 18.130666 13.254666 18.364C13.229333 18.396 13.136 18.453333 13.036 18.505333L12.86 18.588L12.953333 18.458666C13.270666 18.010666 13.953333 17.469333 14.62 17.130666C15.713333 16.584 16.937333 16.317333 18.64 16.265333L19.494666 16.24L19.656 16.082666L19.812 15.926666L19.812 6.030667L20.567999 6.030667ZM2.849333 12.650666C2.864 16.926666 2.874667 17.921333 2.921333 18C2.958667 18.057333 3.062667 18.136 3.156 18.177333C3.306667 18.245333 3.374667 18.254666 3.604 18.218666C5.636 17.921333 7.276 17.926666 8.650666 18.224C9.286666 18.364 10.473333 18.833333 10.489333 18.953333C10.489333 19 2.536 19.041333 2.36 18.994666L2.26 18.973333L2.26 7.369333L2.546667 7.38L2.828 7.390666ZM21.895999 7.421333C21.937333 7.458666 21.947999 8.802666 21.947999 13.218666C21.947999 18.568 21.942666 18.964 21.874666 18.989333C21.775999 19.026666 13.765333 19.016 13.702666 18.978666C13.552 18.885333 14.645333 18.412 15.390666 18.24C16.609333 17.964 18.312 17.921333 19.937333 18.136C20.781333 18.250666 20.885333 18.250666 21.062666 18.161333C21.333333 18.021333 21.317333 18.328 21.317333 12.588L21.317333 7.369333L21.583999 7.369333C21.734666 7.369333 21.869333 7.390666 21.895999 7.421333"/><path d="M6.078667 7.062666C5.937333 7.24 5.969333 7.38 6.161333 7.473333C6.254667 7.530666 6.625333 7.541333 8.453333 7.541333C10.588 7.541333 10.630666 7.541333 10.74 7.453333C10.874666 7.349333 10.885333 7.156 10.765333 7.036C10.682666 6.953333 10.625333 6.953333 8.421333 6.953333L6.161333 6.953333ZM6.093333 8.437333C5.958667 8.568 5.958667 8.688 6.093333 8.817333L6.193333 8.921333L10.666666 8.921333L10.754666 8.822666C10.86 8.713333 10.874666 8.552 10.792 8.437333C10.729333 8.36 10.650666 8.354666 8.464 8.344L6.197333 8.333333ZM6.109333 9.838666C5.958667 9.989333 5.958667 10.088 6.098667 10.224L6.208 10.322666L8.306666 10.338666C9.464 10.344 10.469333 10.338666 10.546666 10.322666C10.833333 10.270666 10.937333 10.010666 10.745333 9.822666L10.64 9.718666L6.234667 9.718666ZM6.093333 11.245333C5.969333 11.369333 5.964 11.473333 6.078667 11.62L6.161333 11.729333L10.677333 11.729333L10.76 11.62C10.869333 11.473333 10.874666 11.333333 10.765333 11.224C10.682666 11.14 10.625333 11.14 8.437333 11.14L6.193333 11.14ZM6.098667 12.630666C5.964 12.754666 5.958667 12.901333 6.082667 13.016L6.182667 13.109333L10.677333 13.109333L10.765333 13.016C10.88 12.885333 10.874666 12.718666 10.74 12.609333C10.630666 12.526666 10.588 12.526666 8.416 12.526666L6.213333 12.526666ZM6.197333 13.958666C6.104 13.989333 5.989333 14.150666 5.989333 14.254666C5.989333 14.297333 6.036 14.374666 6.093333 14.432L6.197333 14.536L10.688 14.516L10.770666 14.412C10.869333 14.292 10.869333 14.150666 10.776 14.041333C10.702666 13.958666 10.661333 13.953333 8.489333 13.937333C7.270666 13.932 6.245333 13.937333 6.197333 13.958666M14.994666 7.364C14.421333 7.521333 13.844 7.958666 13.530666 8.478666C13.265333 8.932 13.166666 9.650666 13.297333 10.213333C13.484 10.994666 14.14 11.666666 14.932 11.874666C15.245333 11.958666 15.822666 11.958666 16.12 11.88C16.245333 11.844 16.364 11.822666 16.385333 11.838666C16.401333 11.849333 16.458666 11.932 16.505333 12.026666C16.568 12.156 16.584 12.234666 16.562666 12.390666C16.536 12.578666 16.552 12.625333 16.822666 13.130666C16.973333 13.432 17.188 13.838666 17.292 14.041333C17.484 14.442666 17.593333 14.536 17.86 14.536C17.937333 14.536 18.057333 14.516 18.114666 14.484C18.234666 14.426666 18.385333 14.172 18.385333 14.036C18.385333 13.942666 17.588 12.364 17.442666 12.161333C17.390666 12.093333 17.292 12.010666 17.224 11.984C17.145333 11.948 17.057333 11.86 16.989333 11.734666L16.88 11.530666L17.082666 11.36C17.469333 11.036 17.765333 10.473333 17.849333 9.917333C18 8.885333 17.328 7.797333 16.312 7.426666C15.921333 7.281333 15.369333 7.26 14.994666 7.364M15.885333 7.854666C16.734666 8.030666 17.344 8.781333 17.338666 9.645333C17.338666 10.052 17.26 10.328 17.057333 10.625333C16.838666 10.948 16.636 11.125333 16.292 11.281333C16.036 11.406666 15.989333 11.412 15.541333 11.412C15.073333 11.412 15.046666 11.412 14.765333 11.270666C14.432 11.109333 14.088 10.792 13.948 10.510666C13.469333 9.578666 13.844 8.426666 14.76 7.978666C15.136 7.797333 15.448 7.76 15.885333 7.854666"/><path d="M15.088 8.182666C14.693333 8.312 14.286666 8.688 14.161333 9.046666C14.041333 9.385333 14.010666 9.718666 14.082666 9.822666C14.182666 9.948 14.265333 9.844 14.297333 9.568C14.369333 8.969333 14.702666 8.573333 15.265333 8.416C15.484 8.354666 15.521333 8.333333 15.521333 8.245333C15.521333 8.161333 15.494666 8.145333 15.390666 8.14C15.328 8.136 15.188 8.156 15.088 8.182666"/></svg>
