<svg xmlns="http://www.w3.org/2000/svg" width="24" height="24" viewBox="0 0 24 24"><path d="M10.948 1.442667C11.562666 1.302667 12.172 1.390667 14.202666 1.912C14.584 2.010667 15.672 2.276 16.614666 2.505333C17.557333 2.74 18.5 2.969333 18.693333 3.021333C18.890665 3.078667 19.412001 3.202667 19.844 3.302667C21.078667 3.588 21.983999 3.844 22.109333 3.953333C22.254665 4.082667 22.302666 4.505333 22.193333 4.677333C22.125334 4.786667 21.869333 4.932 20.693333 5.562667C20.281334 5.786667 19.177334 6.38 18.797333 6.588C18.625334 6.682666 18.302666 6.854666 18.078667 6.973333C17.849333 7.093333 17.401333 7.338666 17.078667 7.510666C16.754665 7.688 16.082666 8.052 15.588 8.317333C13.416 9.5 12.630666 9.896 12.36 9.953333C11.838666 10.062666 11.406666 9.989333 10.333333 9.614666C9.802666 9.426666 9.302666 9.250666 9.229333 9.229333C9.161333 9.202666 8.734666 9.057333 8.281333 8.896C7.833333 8.74 7.166666 8.505333 6.797333 8.38C6.432 8.250666 5.942667 8.082666 5.718667 8C3.812 7.297333 2.478667 6.864 2.312 6.890666C1.912 6.953333 1.693333 7.416 1.817333 7.906666C1.885333 8.177333 2 8.328 2.213333 8.442666C2.292 8.484 2.792 8.666666 3.317333 8.849333C3.849333 9.036 4.708 9.338666 5.229333 9.521333C5.754667 9.702666 6.437333 9.942666 6.745333 10.052C7.421333 10.286666 9.208 10.921333 10.306666 11.312C11.781937 11.838735 12.04112 11.937616 12.303043 11.945508C12.362995 11.947314 12.42309 11.944353 12.497945 11.940664C12.519903 11.939583 12.543132 11.938438 12.568 11.937333C12.978666 11.917333 13.036 11.901333 13.364 11.708C13.557333 11.588 14.177333 11.250666 14.745333 10.942666C15.306666 10.64 16.010666 10.26 16.306665 10.104C16.604 9.937333 17.125334 9.661333 17.464001 9.478666C17.802666 9.292 18.688 8.812 19.437332 8.401333C21.513672 7.269673 21.661135 7.184221 21.811945 7.177839C21.824261 7.177318 21.836596 7.177324 21.850008 7.177331L21.854666 7.177333C22.114666 7.182666 22.213333 7.292 22.245333 7.578666C22.259998 7.792 22.250666 7.838666 22.150665 7.942666C22.026667 8.057333 21.494665 8.354666 17.464001 10.536C14.806666 11.978666 14.958666 11.890666 14.177333 12.322666C13.177333 12.869333 13.021333 12.932 12.516 12.958666C11.948 12.989333 11.864 12.969333 9.896 12.254666C9.573333 12.14 9.213333 12.010666 9.104 11.973333C8.989333 11.937333 8.297333 11.697333 7.562666 11.437333C4.964 10.516 4.478667 10.349333 3.770667 10.104C2.306667 9.598666 1.718667 9.369333 1.546667 9.24C1.36 9.098666 0.973333 8.562666 0.973333 8.442666C0.973333 8.401333 0.953333 8.354666 0.926667 8.338666C0.828 8.270666 0.770667 7.546666 0.844 7.177333C0.874667 7.005333 0.912 6.906666 1.036 6.625333C1.156 6.374667 1.661333 5.917333 1.958667 5.806667C2.109333 5.749333 3.005333 5.317333 3.948 4.844C4.890667 4.374667 6.046667 3.806667 6.510667 3.578667C6.978666 3.354667 8.125333 2.792 9.052 2.328C9.984 1.864 10.833333 1.469333 10.948 1.442667ZM20.999998 9.473333C21.229334 9.338666 21.478666 9.229333 21.562666 9.229333C21.854666 9.229333 22.859999 9.536 22.994665 9.677333C23.177334 9.854666 23.202665 10.057333 23.087999 10.292C23.07568 10.315809 23.06609 10.336299 23.055008 10.355947C22.959354 10.52555 22.752527 10.632452 19.718666 12.270666C19.354666 12.469333 18.5 12.926666 17.822666 13.297333C16.656 13.926666 15.734666 14.421333 14.869333 14.885333C14.661333 15 14.396 15.145333 14.281333 15.208C14.026666 15.36 13.530666 15.489333 13.229333 15.489333C12.926666 15.489333 12.562666 15.390666 11.844 15.130666C11.521333 15.010666 11.197333 14.890666 11.130666 14.869333C11.057333 14.844 10.906666 14.792 10.797333 14.749333C10.682666 14.708 10.229333 14.546666 9.797333 14.396C9.36 14.234666 8.677333 13.994666 8.281333 13.854666C4.093333 12.354666 3.932 12.302666 3.734667 12.245333C3.489333 12.177333 3.197333 12.312 3.057333 12.562666C2.932 12.776 2.921333 13.188 3.041333 13.412C3.213333 13.745333 3.250667 13.765333 5.588 14.588C6.281333 14.833333 6.937333 15.068 7.052 15.114666C7.166666 15.156 7.636 15.322666 8.104 15.489333C9.24 15.885333 10.521333 16.344 11.489333 16.693333C13.254666 17.338667 13.276 17.344 13.666666 17.322666C13.759752 17.316868 13.827968 17.314003 13.894996 17.303534C14.120795 17.268269 14.333117 17.146711 15.437333 16.535999C15.984 16.234667 16.806665 15.792 17.254665 15.552C17.708 15.312 18.104 15.098666 18.130667 15.078666C18.177334 15.036 19.344 14.396 21.447998 13.250666C22.087999 12.901333 22.661333 12.614666 22.723999 12.614666C22.896 12.614666 23.030666 12.718666 23.109333 12.906666C23.177334 13.068 23.171999 13.104 23.093332 13.270666C22.999998 13.464 22.947998 13.494666 22.093332 13.964C21.625334 14.213333 18.483999 15.932 18.177334 16.104C14.437333 18.161333 14.276 18.24 13.869333 18.312C13.328 18.412001 13.078666 18.354666 11.177333 17.666666C10.994666 17.604 10.328 17.364 9.693333 17.139999C9.057333 16.912001 8.412 16.682667 8.254666 16.625334C8.104 16.568001 7.338666 16.297333 6.562667 16.026667C5.792 15.754666 5.005333 15.478666 4.822667 15.412C4.636 15.344 4.156 15.172 3.745333 15.030666C2.969333 14.754666 2.702667 14.604 2.469333 14.322666C2.286667 14.104 2.104 13.76 2.104 13.64C2.104 13.584 2.082667 13.526666 2.052 13.510666C1.984 13.473333 1.984 12.478666 2.052 12.437333C2.078667 12.421333 2.104 12.364 2.104 12.306666C2.104 12.145333 2.322667 11.781333 2.557333 11.541333C2.828 11.286666 3.702667 10.844 3.869333 10.885333C3.926667 10.901333 4.473333 11.093333 5.078667 11.306666C5.682667 11.521333 6.5 11.812 6.896 11.948C7.598666 12.193333 7.885333 12.292 10.156 13.104C10.76 13.317333 11.390666 13.536 11.552 13.593333C12.161333 13.792 13.016 13.770666 13.5 13.541333C13.62 13.489333 13.973333 13.297333 14.281333 13.130666C15.202666 12.609333 17.639999 11.292 18.650665 10.765333C19.120001 10.516 20.469334 9.776 20.999998 9.473333ZM4.052 18.609333V15.937333L4.218667 15.964C4.306667 15.978666 4.697333 16.104 5.078667 16.245333C6.338667 16.702665 7.245333 17.030666 8.109333 17.327999C8.578666 17.494665 8.984 17.639999 9.021333 17.661333C9.052 17.682667 9.464 17.833332 9.937333 17.994665C10.412 18.161333 11.130666 18.416 11.536 18.562666C12.612467 18.951151 12.897873 19.055347 13.190547 19.083218C13.297813 19.093431 13.406057 19.093393 13.554581 19.09334L13.588 19.093332C14.224 19.093332 14.442666 19.021334 15.385333 18.510666C15.708 18.333332 16.24 18.046665 16.562666 17.869333C16.885332 17.697332 17.650665 17.281334 18.254665 16.948C19.833332 16.078667 20.067999 15.953333 20.145332 15.948C20.245333 15.948 20.229334 18.817333 20.125334 19.172001C20.026667 19.510666 19.749332 19.827999 19.412001 19.978666L19.156 20.103998H5.557333L5.333333 20.218666C5.068 20.354666 4.921333 20.593332 4.921333 20.911999C4.921333 21.369333 5.172 21.630667 5.666667 21.693333C5.849333 21.713333 9.150666 21.74 12.989333 21.74L19.973333 21.745333L20.093332 21.874666C20.155998 21.947998 20.202665 22.062666 20.202665 22.136C20.202665 22.322666 20.067999 22.557333 19.931999 22.587999C19.869333 22.603998 16.530666 22.609333 12.510666 22.603998C5.369333 22.587999 5.197333 22.587999 5 22.489332C4.76 22.369333 4.254667 21.885332 4.254667 21.775999C4.254667 21.729334 4.24 21.693333 4.213333 21.693333C4.193333 21.693333 4.150667 21.598665 4.114667 21.489332C4.068 21.338667 4.052 20.598665 4.052 18.609333Z"/></svg>
