<svg xmlns="http://www.w3.org/2000/svg" width="24" height="24" viewBox="0 0 24 24"><path d="M17.5 2C18.880713 2 20 3.119288 20 4.5V19.5C20 20.880713 18.880713 22 17.5 22H4.25C3.835786 22 3.5 21.664213 3.5 21.25C3.5 20.835787 3.835786 20.5 4.25 20.5H17.5C18.052284 20.5 18.5 20.052284 18.5 19.5H4.25C3.835786 19.5 3.5 19.164213 3.5 18.75V4.5C3.5 3.119288 4.619288 2 6 2ZM5 18H18.5V4.5C18.5 3.947715 18.052284 3.5 17.5 3.5H6C5.447715 3.5 5 3.947715 5 4.5ZM10.5 6H13.5V12H16.5L12 16.5L7.5 12H10.5Z"/></svg>
