<svg xmlns="http://www.w3.org/2000/svg" width="24" height="24" viewBox="0 0 24 24"><path d="M17.5 2C18.88 2 20 3.12 20 4.5L20 19.5C20 20.879999 18.88 21.999999 17.5 21.999999L4.250667 21.999999C3.250667 21.999999 3.250667 20.499999 4.250667 20.499999L17.5 20.499999C18.052 20.499999 18.5 20.051999 18.5 19.5L4.250667 19.5C3.833333 19.5 3.5 19.166666 3.5 18.749333L3.5 4.5C3.5 3.12 4.62 2 6 2ZM5 18L18.5 18L18.5 4.5C18.5 3.948 18.052 3.5 17.5 3.5L6 3.5C5.448 3.5 5 3.948 5 4.5Z"/><path d="M14.401333 6.598667C13.598666 6.546667 12.729333 6.849333 12.036 7.516C12.030666 7.516 12.030666 7.521333 12.026666 7.521333L11.254666 8.292C10.901333 8.645333 10.901333 9.213333 11.250666 9.568C11.598666 9.917333 12.172 9.921333 12.521333 9.568L13.286666 8.806666L13.292 8.806666C13.656 8.453333 13.969333 8.374666 14.281333 8.396C14.593333 8.416 14.926666 8.573333 15.177333 8.822666C15.432 9.078666 15.588 9.406666 15.609333 9.724C15.630666 10.036 15.552 10.349333 15.197333 10.713333C15.197333 10.713333 15.197333 10.718666 15.197333 10.718666L13.854666 12.057333C13.265333 12.650666 12.322666 12.584 11.822666 11.912C11.521333 11.516 10.958666 11.432 10.562666 11.729333C10.161333 12.026666 10.082666 12.588 10.38 12.989333C11.521333 14.510666 13.786666 14.672 15.130666 13.328L16.478666 11.978666C16.484 11.973333 16.484 11.973333 16.489333 11.969333C17.156 11.276 17.458666 10.406666 17.406666 9.604C17.354666 8.802666 16.984 8.088 16.453333 7.552C15.917333 7.021333 15.202666 6.650667 14.401333 6.598667Z"/><path d="M11.322666 9.765333C10.448 9.702666 9.541333 10 8.869333 10.672L7.521333 12.021333C7.516 12.026666 7.516 12.026666 7.510666 12.030666C6.844 12.724 6.541333 13.593333 6.593333 14.396C6.645333 15.197333 7.016 15.912 7.546666 16.448C8.082666 16.978666 8.797333 17.349333 9.598666 17.401333C10.401333 17.453333 11.270666 17.150666 11.964 16.484C11.969333 16.484 11.969333 16.478666 11.973333 16.473333L12.745333 15.702666C13.093333 15.354666 13.093333 14.786666 12.745333 14.432C12.390666 14.082666 11.822666 14.082666 11.473333 14.432L10.708 15.193333C10.344 15.546666 10.030666 15.625333 9.718666 15.604C9.406666 15.584 9.073333 15.426666 8.822666 15.177333C8.568 14.921333 8.412 14.593333 8.390666 14.276C8.369333 13.964 8.448 13.650666 8.802666 13.286666C8.802666 13.286666 8.802666 13.281333 8.802666 13.281333L10.145333 11.942666C10.734666 11.349333 11.677333 11.416 12.177333 12.088C12.478666 12.484 13.041333 12.568 13.437333 12.270666C13.838666 11.973333 13.917333 11.412 13.62 11.010666C13.052 10.250666 12.197333 9.828 11.322666 9.765333Z"/></svg>
