<svg xmlns="http://www.w3.org/2000/svg" width="24" height="24" viewBox="0 0 24 24"><path d="M7.088 5.016C7.177333 4.989333 9.745333 4.989333 9.833333 5.016C10.062666 5.088 10.202666 5.202667 10.297333 5.396L10.344 5.5V17.906666L10.292 18.016001C10.229333 18.150665 10.104 18.275999 9.958666 18.349333L9.849333 18.401333H7.073333L6.958666 18.338667C6.812 18.265333 6.734666 18.188 6.656 18.030666L6.593333 17.906666L6.584 13.338666C6.578667 10.828 6.578667 8.036 6.584 7.14L6.593333 5.5L6.656 5.390667C6.724 5.265333 6.828 5.145333 6.917333 5.098667C6.948 5.082667 6.989333 5.062667 7.005333 5.052C7.021333 5.046667 7.062666 5.030667 7.088 5.016ZM14.573333 3.942667C14.584 3.932 14.948 3.921333 15.609333 3.921333C16.693333 3.921333 16.734667 3.926667 16.912001 4.016C17.026667 4.073333 17.177334 4.250667 17.218666 4.369333C17.250666 4.464 17.250666 4.786667 17.245333 11.166666C17.244926 11.726182 17.244614 12.239752 17.244326 12.711206C17.241213 17.818001 17.241112 17.983326 17.158966 18.075651C17.14901 18.08684 17.13785 18.096956 17.125334 18.114666C17.057333 18.224001 16.969334 18.292 16.844 18.354666L16.734667 18.401333H14.478666L14.364 18.349333C14.177333 18.254665 14.052 18.104 14.005333 17.912001C13.973333 17.797333 13.964 4.5 13.989333 4.469333C14 4.464 14.010666 4.437333 14.010666 4.416C14.010666 4.364 14.104 4.197333 14.177333 4.125333C14.250666 4.046667 14.426666 3.964 14.505333 3.964C14.536 3.964 14.568 3.953333 14.573333 3.942667ZM19.166666 7.636C19.197332 7.630666 19.333332 7.62 19.464001 7.62C19.672001 7.62 19.724001 7.625333 19.797333 7.656C19.964001 7.729333 20.125334 7.932 20.161333 8.109333C20.166666 8.136 20.182667 8.254666 20.193333 8.364C20.202665 8.473333 20.223999 8.697333 20.24 8.86C20.254665 9.026666 20.275999 9.250666 20.286667 9.36C20.297333 9.469333 20.317333 9.688 20.333332 9.849333C20.349333 10.005333 20.374666 10.218666 20.379999 10.317333C20.411999 10.604 20.515999 11.64 20.546665 11.932C20.562666 12.078666 20.584 12.302666 20.593332 12.432C20.603998 12.557333 20.625334 12.786666 20.639999 12.937333C20.688 13.364 20.707998 13.584 20.729334 13.792C20.792 14.426666 20.833332 14.86 20.859999 15.109333C20.874666 15.213333 20.890665 15.401333 20.901333 15.521333C20.911999 15.64 20.926666 15.812 20.937332 15.906666C20.947998 15.994666 20.969334 16.202665 20.983999 16.374666C21.005333 16.541332 21.026667 16.749332 21.030666 16.844C21.125334 17.729334 21.125334 17.765333 21.030666 17.953333C20.969334 18.078667 20.863998 18.177334 20.729334 18.24C20.630667 18.286667 20.494665 18.306665 19.578667 18.379999C19.396 18.396 19.213333 18.416 19.172001 18.421333C19.026667 18.448 18.812 18.369333 18.666666 18.234667C18.5 18.082666 18.483999 18.016001 18.431999 17.306665C18.421333 17.166666 18.406666 17.041332 18.401333 17.030666C18.385332 17.005333 18.379999 16.926666 18.338667 16.344C18.333332 16.213333 18.317333 16.093332 18.306665 16.078667C18.297333 16.062666 18.281334 15.958666 18.275999 15.849333C18.265333 15.734666 18.250666 15.546666 18.24 15.426666C18.234667 15.306666 18.218666 15.193333 18.213333 15.177333C18.202665 15.156 18.193333 15.026666 18.182667 14.88C18.166666 14.734666 18.150665 14.541333 18.145332 14.448C18.109333 14.062666 18.082666 13.86 18.068001 13.734666C18.057333 13.666666 18.046665 13.546666 18.046665 13.473333C18.046665 13.401333 18.041332 13.302666 18.030666 13.26C18.010666 13.177333 17.978666 12.890666 17.953333 12.526666C17.912001 12.041333 17.896 11.874666 17.885332 11.849333C17.874666 11.817333 17.849333 11.526666 17.817333 11.068C17.812 10.932 17.797333 10.806666 17.792 10.792C17.775999 10.770666 17.749332 10.526666 17.724001 10.114666C17.713333 9.989333 17.702665 9.869333 17.697332 9.849333C17.688 9.828 17.677334 9.708 17.661333 9.588C17.650665 9.469333 17.636 9.302666 17.625334 9.213333C17.557333 8.546666 17.557333 8.213333 17.620001 8.093333C17.666666 8.005333 17.864 7.806666 17.912001 7.806666C17.926666 7.806666 17.953333 7.797333 17.969334 7.786666C17.994665 7.76 18.130667 7.74 18.469334 7.713333C18.860001 7.682666 19.109333 7.650666 19.166666 7.636ZM3.828 8.505333C4.088 8.473333 5.276 8.473333 5.426667 8.5C5.636 8.536 5.792 8.636 5.885333 8.797333C5.896245 8.815963 5.906015 8.829679 5.914762 8.844019C5.989567 8.966658 5.989558 9.134931 5.989356 12.812881C5.989345 13.013914 5.989333 13.225431 5.989333 13.448C5.989333 13.803652 5.98939 14.131323 5.989443 14.433277C5.990027 17.793762 5.990058 17.968891 5.904753 18.076157C5.892894 18.091068 5.879385 18.10467 5.864 18.125334C5.792 18.224001 5.718667 18.286667 5.588 18.354666L5.5 18.401333H3.702667L3.584 18.338667C3.421333 18.254665 3.270667 18.073334 3.270667 17.964001C3.270667 17.948 3.265333 17.926666 3.254667 17.921333C3.229333 17.906666 3.229333 9.030666 3.250667 8.978666C3.26 8.964 3.286667 8.912 3.302667 8.869333C3.322667 8.828 3.344 8.786666 3.354667 8.776C3.473333 8.604 3.614667 8.526666 3.828 8.505333ZM11.416 8.297333C11.478666 8.276 11.630666 8.270666 12.172 8.270666C12.802666 8.265333 12.86 8.270666 12.973333 8.306666C13.208 8.38 13.338666 8.510666 13.406666 8.745333C13.448 8.874666 13.448 17.754665 13.406666 17.906666C13.354666 18.114666 13.254666 18.245333 13.068 18.344L12.969333 18.401333H11.38L11.281333 18.349333C11.177333 18.297333 11.057333 18.182667 11.010666 18.093332C11.003328 18.079643 10.99663 18.068663 10.990518 18.057364C10.926597 17.939207 10.926777 17.786373 10.931076 14.139997C10.931372 13.889718 10.931685 13.62298 10.932 13.338666C10.937333 10.536 10.948 8.770666 10.958666 8.729333C11 8.578666 11.078666 8.464 11.188 8.390666C11.245333 8.354666 11.302666 8.322666 11.317333 8.322666C11.328 8.322666 11.374666 8.312 11.416 8.297333ZM3.36 18.890665C3.702667 18.879999 4.088 18.879999 4.208 18.879999C4.333333 18.885332 8.229333 18.896 12.869333 18.901333L21.311998 18.917334L21.411999 18.978666C21.494665 19.030666 21.526667 19.068001 21.562666 19.150665C21.609333 19.250666 21.609333 19.275999 21.603998 19.453333C21.593332 19.661333 21.573334 19.718666 21.478666 19.817333C21.453333 19.849333 21.385332 19.890665 21.338667 19.912001C21.254665 19.948 21.250666 19.948 11.994666 19.937332L2.729333 19.921333L2.636 19.869333C2.573333 19.838667 2.521333 19.786667 2.484 19.734667C2.432 19.650665 2.432 19.636 2.432 19.421333C2.432 19.125334 2.469333 19.046665 2.661333 18.937332C2.718667 18.906666 2.786667 18.901333 3.36 18.890665ZM9.453333 6.973333C9.406666 6.953333 9.26 6.948 8.458666 6.948H7.516L7.385333 7.078666V8.844C7.385333 10.478666 7.390666 10.614666 7.421333 10.661333C7.432395 10.677384 7.440705 10.690683 7.451372 10.7017C7.502905 10.754927 7.609445 10.754898 8.347122 10.754694C8.395332 10.754681 8.446238 10.754666 8.5 10.754666H9.489333L9.530666 10.693333C9.568 10.630666 9.568 10.614666 9.568 8.874666C9.568 8.792514 9.568009 8.714035 9.568019 8.639059C9.568196 7.201157 9.568215 7.051854 9.49662 6.998316C9.484397 6.989176 9.470086 6.982827 9.453333 6.973333ZM19.625334 9.458666C19.625334 9.458666 19.598665 9.448 19.568001 9.437333C19.5 9.421333 19.406666 9.426666 19.156 9.453333C19.057333 9.464 18.854666 9.489333 18.697332 9.505333C18.546665 9.521333 18.412001 9.541333 18.396 9.552C18.322666 9.614666 18.312 9.688 18.333332 9.849333C18.354666 9.994666 18.374666 10.208 18.412001 10.593333C18.421333 10.697333 18.442665 10.912 18.458666 11.073333C18.473333 11.229333 18.5 11.442666 18.505333 11.541333C18.516001 11.64 18.526667 11.754666 18.535999 11.797333C18.541332 11.844 18.557333 12.005333 18.578667 12.161333C18.593332 12.338666 18.614666 12.469333 18.636 12.494666C18.688 12.578666 18.849333 12.614666 18.958666 12.573333C19.010666 12.546666 19.208 12.530666 19.636 12.5C19.921333 12.484 19.978666 12.432 19.953333 12.224C19.948 12.172 19.937332 12.021333 19.926666 11.896C19.921333 11.770666 19.906666 11.656 19.901333 11.645333C19.890665 11.630666 19.874666 11.494666 19.864 11.349333C19.854666 11.197333 19.833332 10.994666 19.827999 10.901333C19.817333 10.802666 19.802666 10.625333 19.792 10.505333C19.781334 10.38 19.765333 10.265333 19.76 10.254666C19.749332 10.24 19.734667 10.125333 19.729334 9.989333C19.713333 9.682666 19.688 9.546666 19.656 9.5C19.639999 9.478666 19.625334 9.464 19.625334 9.458666ZM16.953333 6.208 16.931999 6.145333H15.62C14.896 6.145333 14.297333 6.150667 14.292 6.156C14.281333 6.161333 14.276 6.317333 14.276 6.5C14.276 6.817333 14.281333 6.833333 14.312 6.833333C14.333333 6.833333 14.36 6.844 14.364 6.854666C14.374666 6.869333 14.416 6.869333 14.505333 6.864C14.573333 6.854666 14.901333 6.854666 15.224 6.854666C16.046665 6.864 16.125334 6.864 16.442665 6.854666C16.593332 6.849333 16.74 6.854666 16.770666 6.86C16.838667 6.88 16.948 6.828 16.964001 6.770666C16.983999 6.693333 16.973333 6.276 16.953333 6.208ZM5.64 11.421333C5.546667 11.416 3.604 11.416 3.562667 11.421333L3.521333 11.426666L3.526667 11.786666L3.530667 12.14L3.593333 12.156C3.625333 12.166666 4.109333 12.172 4.661333 12.166666C5.630667 12.161333 5.666667 12.161333 5.697333 12.125333C5.718667 12.098666 5.724 12.021333 5.724 11.806666C5.724 11.505333 5.702667 11.426666 5.64 11.421333ZM5.697333 10.177333 5.677333 10.125333H3.521333V10.473333C3.521333 10.822666 3.521333 10.828 3.568 10.838666C3.588 10.844 4.068 10.854666 4.636 10.854666C5.604 10.854666 5.661333 10.849333 5.688 10.817333C5.718667 10.786666 5.724 10.734666 5.724 10.505333C5.724 10.322666 5.713333 10.208 5.697333 10.177333ZM13.156 9.901333 13.145333 9.854666H11.197333V10.197333C11.197333 10.536 11.197333 10.541333 11.24 10.552C11.265333 10.557333 11.697333 10.562666 12.202666 10.562666C12.890666 10.562666 13.125333 10.557333 13.145333 10.541333C13.172 10.516 13.177333 9.984 13.156 9.901333Z"/></svg>
