<svg xmlns="http://www.w3.org/2000/svg" width="24" height="24" viewBox="0 0 24 24"><path d="M20 4.5V19.5C20 20.879999 18.879999 21.999998 17.5 21.999998H4.250667C3.833333 21.999998 3.5 21.666666 3.5 21.250666C3.5 20.833332 3.833333 20.499998 4.250667 20.499998H17.5C18.052 20.499998 18.5 20.051998 18.5 19.5H4.250667C3.833333 19.5 3.5 19.166666 3.5 18.749332V4.5C3.5 3.12 4.62 2 6 2H17.5C18.879999 2 20 3.12 20 4.5ZM18.5 18V4.5C18.5 3.948 18.052 3.5 17.5 3.5H6C5.448 3.5 5 3.948 5 4.5V18ZM8.654 4.9838C8.698 4.9596 8.8212 4.9596 8.8696 4.9838C8.8894 4.9948 8.9356 5.0168 8.9686 5.0322C9.0522 5.0718 9.116 5.1818 9.116 5.2874C9.116 5.338 9.1358 5.4854 9.1578 5.6152C9.204 5.8836 9.3668 6.2752 9.5032 6.4578C9.6396 6.6382 13.681 10.6686 13.6876 10.6312C13.692 10.6114 13.703 10.596 13.714 10.596C13.7228 10.596 13.736 10.563 13.7426 10.5234C13.7888 10.2682 13.7844 10.277 13.8658 10.1164C13.89 10.0636 13.912 10.002 13.912 9.9778C13.912 9.9558 13.923 9.936 13.934 9.936C13.9472 9.936 13.956 9.9118 13.956 9.8832C13.956 9.8524 13.967 9.8216 13.978 9.815C13.9912 9.8084 14 9.782 14 9.76C14 9.738 14.0088 9.716 14.0176 9.7116C14.0264 9.7072 14.0616 9.65 14.0946 9.584C14.1716 9.4278 14.2222 9.3442 14.2706 9.2892C14.2904 9.265 14.308 9.232 14.308 9.2166C14.308 9.2012 14.319 9.188 14.33 9.188C14.3432 9.188 14.352 9.1748 14.352 9.1572C14.352 9.1396 14.4158 9.0582 14.495 8.9746C14.7106 8.748 14.7084 8.7282 14.462 8.627C13.9472 8.4136 13.6458 8.2024 13.406 7.89C13.3642 7.835 13.3246 7.7866 13.318 7.78C13.2564 7.725 13.12 7.4808 13.12 7.428C13.12 7.406 13.1112 7.3818 13.1002 7.3752C13.0298 7.3312 13.0298 6.4798 13.1002 6.405C13.1112 6.394 13.12 6.3676 13.12 6.3456C13.12 6.3236 13.1376 6.2642 13.1618 6.2114C13.1838 6.1608 13.2146 6.0838 13.23 6.042C13.2806 5.8968 13.307 5.844 13.3224 5.844C13.3334 5.844 13.34 5.8308 13.34 5.8154C13.34 5.8022 13.3642 5.7604 13.395 5.7252C13.4258 5.69 13.45 5.6548 13.45 5.646C13.45 5.6372 13.4742 5.602 13.505 5.5668C13.5358 5.5316 13.56 5.4964 13.56 5.4876C13.56 5.4436 13.9296 5.052 13.9714 5.052C13.9868 5.052 14 5.041 14 5.03C14 5.0168 14.0616 5.008 14.1408 5.008C14.2596 5.008 14.2882 5.0168 14.3344 5.063C14.4026 5.1312 14.44 5.2544 14.44 5.4172C14.44 5.723 14.7436 6.0926 15.1484 6.2796C15.2056 6.306 15.2694 6.328 15.287 6.328C15.3046 6.328 15.32 6.3368 15.32 6.35C15.32 6.361 15.3376 6.372 15.3596 6.372C15.397 6.372 16.002001 6.669 16.024 6.6976C16.0306 6.7064 16.079 6.7438 16.1318 6.779C16.299 6.8912 16.4816 7.0738 16.5872 7.2322C16.697201 7.3994 16.822599 7.7294 16.8578 7.956C16.934799 8.4334 16.818199 8.9702 16.530001 9.4542C16.312201 9.8238 16.1626 9.9382 15.9668 9.8898C15.9096 9.8744 15.8304 9.8348 15.7908 9.7974C15.7182 9.7358 15.716 9.727 15.716 9.573C15.716 9.3948 15.683 9.2914 15.595 9.2056C15.463 9.0714 15.3398 9.1286 15.1132 9.43C14.836 9.7974 14.6336 10.1934 14.5478 10.53C14.4884 10.772 14.4906 11.2076 14.5522 11.4188C14.561381 11.449023 14.565773 11.470398 14.572524 11.490999C14.604596 11.58887 14.689918 11.669291 15.595 12.598C16.270399 13.291 16.316601 13.3438 16.4398 13.5858C16.758801 14.204 16.829201 14.853 16.650999 15.524C16.538799 15.9486 16.2572 16.4018 15.9404 16.6768C15.7556 16.833 15.6962 16.865999 15.584 16.865999C15.3596 16.865999 15.243 16.7208 15.2232 16.415001C15.21 16.221399 15.188 16.0982 15.1638 16.0828C15.1528 16.0762 15.144 16.052 15.144 16.0278C15.144 16.0058 15.1352 15.9684 15.1242 15.9464C15.1132 15.9266 15.0956 15.8848 15.0824 15.854C15.034 15.733 14.9526 15.5702 14.8492 15.392C14.748 15.216 14.6072 15.0708 12.5062 12.9742C11.2764 11.7488 10.2182 10.7016 10.1566 10.6466L10.04 10.5476L9.996 10.5982C9.8816 10.7324 9.622 11.102 9.5714 11.2032C9.5406 11.2648 9.4922 11.399 9.4658 11.5002C9.3272 12.0326 9.3866 12.565 9.6198 12.906C9.7694 13.126 10.1434 13.5946 10.5196 14.0346C10.7396 14.292 10.876 14.5274 10.9772 14.8244C11.0586 15.0686 11.0608 15.0796 11.0608 15.392C11.063 15.777 11.0366 15.8892 10.8628 16.243401C10.755 16.469999 10.733 16.4986 10.6274 16.569L10.5108 16.646L8.9796 16.6416L7.4484 16.635L7.389 16.58C7.3186 16.514 7.268 16.4238 7.268 16.3622C7.268 16.2192 7.4528 16.052 7.6112 16.052C7.653 16.052 7.7036 16.0432 7.7256 16.0322C7.8928 15.9486 7.9654 15.9068 7.9874 15.8848C8.0314 15.843 8.104 15.7022 8.104 15.6604C8.104 15.6384 8.115 15.6098 8.1282 15.5966C8.159 15.5658 8.1282 15.2248 8.0842 15.117C8.0666 15.0752 8.0446 14.996 7.9896 14.787C7.9764 14.7386 7.9588 14.6792 7.95 14.655C7.939 14.6308 7.9192 14.5714 7.9038 14.523C7.8906 14.4746 7.8708 14.4174 7.8598 14.3976C7.8488 14.3756 7.84 14.3294 7.84 14.2942C7.84 14.2568 7.8312 14.2238 7.8202 14.2172C7.8026 14.204 7.7894 14.149 7.7608 13.9554C7.752 13.9114 7.7388 13.8674 7.7278 13.8608C7.7168 13.8542 7.708 13.808 7.708 13.7552C7.708 13.7046 7.697 13.6518 7.686 13.6408C7.6552 13.61 7.6706 12.6926 7.7058 12.532C7.7212 12.466 7.7366 12.378 7.7454 12.3384C7.752 12.2988 7.7652 12.2614 7.7762 12.2548C7.7872 12.2482 7.796 12.2196 7.796 12.191C7.796 12.1624 7.807 12.1316 7.818 12.125C7.8312 12.1184 7.84 12.092 7.84 12.0678C7.84 12.026 7.8488 12.0062 7.9016 11.9006C7.917 11.872 7.928 11.8346 7.928 11.817C7.928 11.7994 7.939 11.784 7.95 11.784C7.9632 11.784 7.972 11.7686 7.972 11.751C7.972 11.7202 8.0116 11.6344 8.038 11.608C8.0446 11.6014 8.0688 11.5574 8.0952 11.509C8.1612 11.3792 8.2008 11.3154 8.2294 11.2846C8.2448 11.267 8.2734 11.2252 8.2954 11.19C8.3152 11.1526 8.3416 11.124 8.3504 11.124C8.3592 11.124 8.368 11.1108 8.368 11.0954C8.368 11.08 8.3856 11.047 8.4076 11.0228C8.4296 11.0008 8.4692 10.9458 8.5 10.904C8.6232 10.7236 9.281 10.112 9.3492 10.112C9.369 10.112 9.468 9.9954 9.468 9.969C9.468 9.958 9.2964 9.7754 9.0874 9.562C8.115 8.5764 7.9302 8.3564 7.8202 8.066C7.8048 8.0242 7.7718 7.9472 7.7498 7.8966C7.7256 7.8438 7.708 7.7822 7.708 7.7602C7.708 7.736 7.6992 7.7096 7.686 7.703C7.675 7.6964 7.664 7.6502 7.664 7.604C7.664 7.5578 7.6552 7.5138 7.6442 7.5072C7.6266 7.4962 7.5936 7.1992 7.5958 7.076C7.598 7.0276 7.6156 6.8582 7.6552 6.504C7.6618 6.438 7.6772 6.3742 7.6882 6.361C7.6992 6.35 7.708 6.3258 7.708 6.306C7.708 6.2862 7.7278 6.229 7.752 6.1784C7.7762 6.13 7.796 6.0728 7.796 6.053C7.796 6.0354 7.807 6.02 7.818 6.02C7.8312 6.02 7.84 6.0002 7.84 5.976C7.84 5.9518 7.851 5.932 7.862 5.932C7.8752 5.932 7.884 5.9122 7.884 5.888C7.884 5.8638 7.8906 5.844 7.9016 5.844C7.9104 5.844 7.9302 5.811 7.9478 5.7714C7.9786 5.7032 8.0974 5.514 8.126 5.492C8.1326 5.4854 8.1634 5.4458 8.192 5.404C8.3174 5.2258 8.4626 5.0762 8.5572 5.0322C8.5924 5.0168 8.6364 4.9948 8.654 4.9838Z"/></svg>
