<svg xmlns="http://www.w3.org/2000/svg" width="24" height="24" viewBox="0 0 24 24"><path d="M5.28 5.76L2.88 5.76L2.88 21.119999L21.119999 21.119999L21.119999 5.76L18.72 5.76"/><path d="M5.28 3.84C7.92 3.36 10.32 3.84 12 6.24L12 19.68C10.32 18.24 7.92 17.76 5.28 18.24Z"/><path d="M6.72 7.68L10.8 7.68"/><path d="M6.72 9.84L10.8 9.84"/><path d="M6.72 12L10.8 12"/><path d="M6.72 14.16L10.8 14.16"/><path d="M6.72 16.32L10.8 16.32"/><path d="M18.72 3.84C16.08 3.36 13.68 3.84 12 6.24L12 19.68C13.68 18.24 16.08 17.76 18.72 18.24Z"/><path d="M13.2 7.68L17.28 7.68"/><path d="M13.2 9.84L17.28 9.84"/><path d="M13.2 12L17.28 12"/><path d="M13.2 14.16L17.28 14.16"/><path d="M13.2 16.32L17.28 16.32"/><path d="M12 19.68L12 21.119999"/></svg>
