<svg xmlns="http://www.w3.org/2000/svg" width="24" height="24" viewBox="0 0 24 24"><path d="M3.541 4.053 3.767 4.013 4 4H10L10.164 4.004L10.325 4.017L10.484 4.039L10.64 4.068L10.793 4.106L10.943 4.151L11.089 4.204L11.232 4.264L11.371 4.331L11.506 4.405L11.636 4.485L11.762 4.572L11.884 4.665L12 4.764L12.116 4.665L12.238 4.572L12.364 4.485L12.494 4.405L12.629 4.331L12.768 4.264L12.911 4.204L13.057 4.151L13.207 4.106L13.36 4.068L13.516 4.039L13.675 4.017L13.836 4.004L14 4H20L20.233 4.013L20.459 4.053L20.674999 4.117L20.879999 4.203L21.072001 4.311L21.250999 4.439L21.414 4.586L21.561001 4.749L21.688999 4.928L21.797001 5.12L21.882999 5.325L21.947001 5.541L21.987 5.767L22 6V18L21.987 18.233L21.947001 18.459L21.882999 18.674999L21.797001 18.879999L21.688999 19.072001L21.561001 19.250999L21.414 19.414L21.250999 19.561001L21.072001 19.688999L20.879999 19.797001L20.674999 19.882999L20.459 19.947001L20.233 19.987L20 20H14L13.836 19.996L13.675 19.983L13.516 19.961L13.36 19.931999L13.207 19.893999L13.057 19.849001L12.911 19.796L12.768 19.736L12.629 19.669001L12.494 19.594999L12.364 19.514999L12.238 19.427999L12.116 19.334999L12 19.236L11.884 19.334999L11.762 19.427999L11.636 19.514999L11.506 19.594999L11.371 19.669001L11.232 19.736L11.089 19.796L10.943 19.849001L10.793 19.893999L10.64 19.931999L10.484 19.961L10.325 19.983L10.164 19.996L10 20H4L3.767 19.987L3.541 19.947001L3.325 19.882999L3.12 19.797001L2.928 19.688999L2.749 19.561001L2.586 19.414L2.439 19.250999L2.311 19.072001L2.203 18.879999L2.117 18.674999L2.053 18.459L2.013 18.233L2 18V6L2.013 5.767L2.053 5.541L2.117 5.325L2.203 5.12L2.311 4.928L2.439 4.749L2.586 4.586L2.749 4.439L2.928 4.311L3.12 4.203L3.325 4.117ZM9.5 8.25H11V7L10.993 6.883L10.974 6.771L10.942 6.663L10.898 6.56L10.844 6.464L10.78 6.375L10.707 6.293L10.625 6.22L10.536 6.156L10.44 6.102L10.337 6.058L10.229 6.026L10.117 6.007L10 6H4V18H10L10.117 17.993L10.229 17.974001L10.337 17.941999L10.44 17.898001L10.536 17.844L10.625 17.780001L10.707 17.707001L10.78 17.625L10.844 17.535999L10.898 17.440001L10.942 17.337L10.974 17.229L10.993 17.117001L11 17V15.75H9.5L9.36 15.742L9.222 15.719L9.087 15.68L8.958 15.626L8.835 15.558L8.721 15.477L8.616 15.384L8.523 15.279L8.442 15.165L8.374 15.042L8.32 14.913L8.281 14.778L8.258 14.64L8.25 14.5V9.5L8.258 9.36L8.281 9.222L8.32 9.087L8.374 8.958L8.442 8.835L8.523 8.721L8.616 8.616L8.721 8.523L8.835 8.442L8.958 8.374L9.087 8.32L9.222 8.281L9.36 8.258ZM14.5 15.75H13V17L13.007 17.117001L13.026 17.229L13.058 17.337L13.102 17.440001L13.156 17.535999L13.22 17.625L13.293 17.707001L13.375 17.780001L13.464 17.844L13.56 17.898001L13.663 17.941999L13.771 17.974001L13.883 17.993L14 18H20V6H14L13.883 6.007L13.771 6.026L13.663 6.058L13.56 6.102L13.464 6.156L13.375 6.22L13.293 6.293L13.22 6.375L13.156 6.464L13.102 6.56L13.058 6.663L13.026 6.771L13.007 6.883L13 7V8.25H14.5L14.64 8.258L14.778 8.281L14.913 8.32L15.042 8.374L15.165 8.442L15.279 8.523L15.384 8.616L15.477 8.721L15.558 8.835L15.626 8.958L15.68 9.087L15.719 9.222L15.742 9.36L15.75 9.5V14.5L15.742 14.64L15.719 14.778L15.68 14.913L15.626 15.042L15.558 15.165L15.477 15.279L15.384 15.384L15.279 15.477L15.165 15.558L15.042 15.626L14.913 15.68L14.778 15.719L14.64 15.742ZM9.75 9.75V14.25H14.25V9.75Z"/></svg>
