<svg xmlns="http://www.w3.org/2000/svg" width="24" height="24" viewBox="0 0 24 24"><path d="M20 4.5V19.5C20 20.879999 18.879999 21.999998 17.5 21.999998H4.250667C3.833333 21.999998 3.5 21.666666 3.5 21.250666C3.5 20.833332 3.833333 20.499998 4.250667 20.499998H17.5C18.052 20.499998 18.5 20.051998 18.5 19.5H4.250667C3.833333 19.5 3.5 19.166666 3.5 18.749332V4.5C3.5 3.12 4.62 2 6 2H17.5C18.879999 2 20 3.12 20 4.5ZM18.5 18V4.5C18.5 3.948 18.052 3.5 17.5 3.5H6C5.448 3.5 5 3.948 5 4.5V18ZM17 6V8C17 8.552 16.552 9 16 9H8C7.448 9 7 8.552 7 8V6C7 5.448 7.448 5 8 5H16C16.552 5 17 5.448 17 6ZM15.5 7.5V6.5H8.5V7.5Z"/></svg>
