<svg xmlns="http://www.w3.org/2000/svg" width="24" height="24" viewBox="0 0 24 24"><path d="M17.5 2C18.88 2 20 3.12 20 4.5L20 19.5C20 20.879999 18.88 21.999999 17.5 21.999999L4.250667 21.999999C3.250667 21.999999 3.250667 20.499999 4.250667 20.499999L17.5 20.499999C18.052 20.499999 18.5 20.051999 18.5 19.5L4.250667 19.5C3.833333 19.5 3.5 19.166666 3.5 18.749333L3.5 4.5C3.5 3.12 4.62 2 6 2ZM5 18L18.5 18L18.5 4.5C18.5 3.948 18.052 3.5 17.5 3.5L6 3.5C5.448 3.5 5 3.948 5 4.5Z"/><path d="M11.098666 12.448C11.921333 13.546666 13.526666 13.661333 14.494666 12.693333L15.844 11.344C17.890666 9.224 14.781333 6.114667 12.661333 8.161333L11.885333 8.932"/><path d="M12.901333 11.552C12.078666 10.453333 10.473333 10.338666 9.505333 11.306666L8.156 12.656C6.109333 14.776 9.218666 17.885333 11.338666 15.838666L12.109333 15.068"/></svg>
