<svg xmlns="http://www.w3.org/2000/svg" width="24" height="24" viewBox="0 0 24 24"><path d="M4.994667 3.994667C4.797333 4.041333 4.650667 4.145333 4.562667 4.302667C4.478667 4.448 4.469333 4.526667 4.473333 4.833333C4.478667 5.062667 4.464 5.202667 4.432 5.224C4.412 5.234667 4.208 5.250667 3.989333 5.245333C3.645333 5.234667 3.573333 5.250667 3.412 5.333333C3.150667 5.469333 3.068 5.636 3.041333 6.062667L3.021333 6.412L2.568 6.432C2.046667 6.458667 1.885333 6.521333 1.76 6.765333C1.688 6.906666 1.688 7.130666 1.688 13.005333C1.688 19.068 1.688 19.098666 1.770667 19.24C1.817333 19.312 1.921333 19.412 2.005333 19.469333L2.156 19.562666L10.677333 19.604L10.776 19.688C10.828 19.74 10.953333 19.822666 11.057333 19.874666C11.229333 19.969333 11.281333 19.973333 12.021333 19.973333C12.749333 19.973333 12.812 19.964 13.005333 19.88C13.12 19.822666 13.254666 19.74 13.312 19.688L13.421333 19.584L17.672 19.573333L21.926666 19.562666L22.082666 19.464C22.171999 19.412 22.275999 19.306666 22.317333 19.24C22.390666 19.114666 22.395999 18.921333 22.395999 12.984C22.395999 6.989333 22.395999 6.86 22.311999 6.729333C22.177333 6.494667 22.062666 6.458667 21.535999 6.432L21.062666 6.412L21.041333 6.062667C21.005333 5.432 20.786666 5.24 20.114666 5.24C19.901333 5.24 19.702666 5.229333 19.666666 5.213333C19.614666 5.193333 19.604 5.12 19.604 4.822667C19.604 4.426667 19.562666 4.302667 19.374666 4.130667C19.270666 4.026667 19.26 4.026667 18.401333 4.016C17.374666 4 16.702666 4.046667 15.964 4.193333C14.693333 4.442667 13.890666 4.734667 13.202666 5.188C12.833333 5.432 12.317333 5.869333 12.250666 5.989333C12.224 6.046667 12.166666 6.109333 12.114666 6.14C12.041333 6.188 12.021333 6.177333 11.906666 6.030667C11.062666 5 9.234666 4.24 7.150666 4.052C6.625333 4.005333 5.12 3.964 4.994667 3.994667M7.478666 4.297333C8.270666 4.412 9.098666 4.614667 9.718666 4.838667C9.984 4.937333 10.636 5.276 10.926666 5.464C11.26 5.688 11.754666 6.172 11.901333 6.416C11.958666 6.516 12.026666 6.593333 12.046666 6.593333C12.062666 6.593333 12.125333 6.516 12.182666 6.416C12.312 6.193333 12.849333 5.677333 13.172 5.458667C13.745333 5.073333 14.588 4.724 15.432 4.516C16.374666 4.292 16.770666 4.245333 17.942666 4.224C18.74 4.208 19.082666 4.218667 19.14 4.250667C19.328 4.349333 19.374666 4.489333 19.396 4.994667L19.416 5.464L19.953333 5.464C20.723999 5.464 20.765333 5.5 20.797333 6.161333L20.811999 6.614667L21.374666 6.636C21.770666 6.650667 21.953333 6.672 22.005333 6.713333C22.197333 6.88 22.193333 6.604 22.193333 12.984C22.193333 18.849333 22.193333 18.973333 22.109333 19.125333C22.057333 19.234666 21.983999 19.302666 21.895999 19.333333C21.802666 19.364 20.573333 19.374666 17.530666 19.374666L13.297333 19.374666L13.218666 19.469333C13 19.724 12.614666 19.806666 11.86 19.781333C11.306666 19.754666 11.114666 19.697333 10.906666 19.494666L10.781333 19.374666L6.536 19.374666C1.854667 19.38 2.14 19.396 1.973333 19.12C1.890667 18.989333 1.890667 18.864 1.890667 12.994666C1.890667 6.604 1.88 6.88 2.078667 6.713333C2.130667 6.672 2.306667 6.650667 2.708 6.636L3.265333 6.614667L3.286667 6.166667C3.306667 5.688 3.354667 5.552 3.5 5.5C3.557333 5.484 3.838667 5.464 4.130667 5.464L4.666667 5.464L4.688 4.973333C4.702667 4.478667 4.745333 4.338667 4.88 4.254667C4.973333 4.197333 7.046666 4.229333 7.478666 4.297333"/><path d="M5.328 4.817333C5.312 4.828 5.302667 7.24 5.302667 10.172L5.302667 15.494666L6.177333 15.546666C7.708 15.636 8.562666 15.812 9.505333 16.24C10.312 16.609333 11.030666 17.114666 11.464 17.625333C11.588 17.776 11.697333 17.896 11.713333 17.896C11.734666 17.896 11.724 12.697333 11.697333 8.917333L11.693333 7.276L11.530666 6.964C11.322666 6.568 10.828 6.073333 10.374666 5.812C9.708 5.421333 8.64 5.068 7.724 4.937333C6.849333 4.806667 5.406667 4.734667 5.328 4.817333M10.770666 7.041333C10.896 7.14 10.901333 7.385333 10.786666 7.494666C10.708 7.568 10.588 7.578666 8.62 7.598666C6.448 7.625333 6.245333 7.614666 6.166667 7.458666C6.098667 7.333333 6.114667 7.14 6.202667 7.046666C6.286667 6.964 6.338667 6.964 8.484 6.964C10.568 6.964 10.682666 6.969333 10.770666 7.041333M10.792 8.458666C10.906666 8.593333 10.917333 8.734666 10.822666 8.854666C10.745333 8.932 10.718666 8.932 8.521333 8.948C6.385333 8.958666 6.292 8.953333 6.208 8.88C6.046667 8.734666 6.109333 8.432 6.328 8.349333C6.36 8.338666 7.36 8.328 8.541333 8.333333L10.693333 8.344ZM10.702666 9.745333C10.802666 9.781333 10.896 9.989333 10.864 10.104C10.806666 10.338666 10.838666 10.333333 8.505333 10.333333C6.369333 10.333333 6.245333 10.328 6.156 10.197333C6.093333 10.104 6.125333 9.885333 6.202667 9.802666C6.281333 9.724 6.338667 9.718666 8.464 9.718666C9.656 9.718666 10.666666 9.729333 10.702666 9.745333M10.666666 11.136C10.854666 11.213333 10.917333 11.354666 10.849333 11.526666C10.822666 11.598666 10.749333 11.677333 10.697333 11.697333C10.64 11.718666 9.656 11.734666 8.469333 11.734666C6.38 11.734666 6.338667 11.734666 6.229333 11.645333C6.145333 11.584 6.125333 11.526666 6.125333 11.406666C6.125333 11.213333 6.197333 11.150666 6.448 11.114666C6.552 11.098666 7.510666 11.082666 8.578666 11.078666C10.208 11.073333 10.541333 11.082666 10.666666 11.136M10.702666 12.516C10.822666 12.573333 10.912 12.76 10.869333 12.88C10.802666 13.098666 10.890666 13.088 8.516 13.088C6.030667 13.088 6.125333 13.098666 6.125333 12.802666C6.125333 12.677333 6.145333 12.625333 6.229333 12.557333C6.338667 12.473333 6.38 12.473333 8.469333 12.473333C9.964 12.473333 10.625333 12.484 10.702666 12.516M10.614666 13.874666C10.917333 13.958666 10.973333 14.344 10.702666 14.448C10.625333 14.473333 9.822666 14.484 8.442666 14.478666C6.401333 14.464 6.292 14.464 6.208 14.385333C6.150667 14.333333 6.125333 14.26 6.125333 14.156C6.125333 13.984 6.188 13.917333 6.38 13.869333C6.593333 13.822666 10.432 13.822666 10.614666 13.874666M17.442666 4.817333C16.254666 4.917333 15.385333 5.093333 14.526666 5.432C13.573333 5.802667 12.926666 6.312 12.568 6.984L12.390666 7.312L12.369333 12.593333C12.36 15.5 12.349333 17.88 12.354666 17.890666C12.36 17.890666 12.484 17.754666 12.64 17.584C13.354666 16.781333 14.64 16.078666 15.926666 15.781333C16.552 15.636 18.224 15.478666 18.598666 15.530666L18.781333 15.557333L18.781333 4.786667L18.197333 4.797333C17.874666 4.802667 17.536 4.806667 17.442666 4.817333M15.806666 7.38C16.177333 7.448 16.588 7.666666 16.917333 7.969333C17.150666 8.182666 17.24 8.306666 17.396 8.62C17.854666 9.536 17.697333 10.510666 16.984 11.265333C16.838666 11.412 16.724 11.552 16.724 11.578666C16.724 11.672 16.901333 11.896 16.994666 11.921333C17.156 11.964 17.254666 12.114666 17.724 13.046666C18.150666 13.901333 18.166666 13.937333 18.125333 14.093333C18.026666 14.505333 17.473333 14.598666 17.229333 14.254666C17.188 14.193333 16.958666 13.765333 16.729333 13.317333C16.317333 12.521333 16.306666 12.494666 16.333333 12.292C16.354666 12.125333 16.338666 12.057333 16.276 11.948C16.213333 11.844 16.166666 11.812 16.12 11.833333C15.754666 11.969333 14.964 11.969333 14.584 11.817333C14.281333 11.702666 13.822666 11.38 13.609333 11.130666C12.890666 10.292 12.890666 8.953333 13.609333 8.136C14.172 7.5 14.964 7.229333 15.806666 7.38"/><path d="M14.874666 7.932C14.437333 8.093333 14.197333 8.265333 13.964 8.593333C13.677333 8.989333 13.625333 9.145333 13.625333 9.656C13.625333 10.093333 13.625333 10.12 13.76 10.396C14.052 10.978666 14.598666 11.36 15.197333 11.396C16.161333 11.448 16.926666 10.844 17.104 9.885333C17.218666 9.270666 16.885333 8.530666 16.322666 8.156C15.932 7.901333 15.245333 7.792 14.874666 7.932M15.349333 8.297333C15.349333 8.406666 15.333333 8.421333 15.125333 8.473333C15 8.505333 14.812 8.584 14.702666 8.656C14.385333 8.86 14.265333 9.093333 14.150666 9.697333C14.14 9.765333 14.125333 9.828 14.114666 9.849333C14.078666 9.906666 13.942666 9.885333 13.890666 9.822666C13.812 9.729333 13.869333 9.302666 13.994666 9.016C14.202666 8.562666 14.776 8.145333 15.166666 8.166666C15.338666 8.177333 15.349333 8.188 15.349333 8.297333M3.906667 6.109333L3.906667 11.734666C3.901333 16.932 3.906667 17.302666 3.969333 17.292C4.005333 17.286666 4.297333 17.254666 4.62 17.213333C5.328 17.12 7.276 17.109333 7.890666 17.193333C9.302666 17.38 10.588 17.854666 11.265333 18.421333C11.349333 18.5 11.426666 18.541333 11.426666 18.521333C11.426666 18.401333 10.802666 17.74 10.416 17.448C9.250666 16.568 7.912 16.193333 5.828 16.150666C5.322667 16.14 4.942667 16.12 4.896 16.088C4.677333 15.973333 4.688 16.197333 4.688 10.932L4.688 6.062667L4.297333 6.062667C4.010667 6.062667 3.906667 6.073333 3.906667 6.109333M19.396 10.88C19.396 14.098666 19.38 15.749333 19.354666 15.854666C19.281333 16.109333 19.234666 16.12 18.26 16.145333C17.021333 16.177333 16.188 16.302666 15.374666 16.568C14.718666 16.781333 13.88 17.250666 13.412 17.661333C13.193333 17.854666 12.729333 18.390666 12.749333 18.416C12.765333 18.426666 12.885333 18.354666 13.030666 18.254666C13.797333 17.718666 14.88 17.36 16.193333 17.193333C16.828 17.114666 18.734666 17.125333 19.416 17.213333C19.713333 17.250666 20.015999 17.292 20.087999 17.306666L20.218666 17.328L20.218666 6.062667L19.396 6.062667Z"/><path d="M2.526667 7.245333C2.5 7.265333 2.494667 9.208 2.505333 13.005333L2.526667 18.74L6.593333 18.749333L10.666666 18.754666L10.562666 18.672C10.416 18.546666 9.781333 18.254666 9.390666 18.125333C8.442666 17.822666 7.896 17.754666 6.453333 17.754666C5.306667 17.754666 4.666667 17.797333 4.016 17.917333C3.677333 17.978666 3.494667 17.942666 3.369333 17.786666C3.286667 17.677333 3.286667 17.661333 3.286667 12.473333C3.286667 7.76 3.281333 7.26 3.224 7.24C3.130667 7.202666 2.578667 7.208 2.526667 7.245333M20.811999 7.26C20.802666 7.292 20.791999 9.656 20.786666 12.521333L20.775999 17.724L20.677333 17.833333C20.551999 17.964 20.505333 17.964 19.702666 17.854666C18.812 17.729333 17.114666 17.697333 16.333333 17.792C15.364 17.912 14.661333 18.104 13.942666 18.453333C13.688 18.578666 13.478666 18.697333 13.478666 18.718666C13.478666 18.749333 14.896 18.76 17.526666 18.76L21.573333 18.76L21.573333 7.213333L21.202666 7.213333C20.947999 7.213333 20.827999 7.229333 20.811999 7.26"/></svg>
