<svg xmlns="http://www.w3.org/2000/svg" width="24" height="24" viewBox="0 0 24 24"><path d="M5.017065 3.968601C4.926962 4.005461 4.849147 4.03413 4.849147 4.03413C4.845051 4.03413 4.791809 4.103754 4.72628 4.185666C4.619795 4.324915 4.607509 4.378157 4.587031 4.771331L4.566553 5.201365L4.075085 5.221843C3.329693 5.254608 3.215017 5.348805 3.137201 5.975427L3.09215 6.348123L2.641638 6.372696C1.945392 6.413652 1.74471 6.556997 1.675085 7.056655C1.654608 7.212287 1.642321 9.956314 1.650512 13.400683L1.658703 19.466212L1.785666 19.642321C1.859386 19.740614 1.994539 19.863481 2.092833 19.912628L2.264846 20.006826L10.701706 20.006826L10.840956 20.113311C11.078498 20.293515 11.303754 20.367235 11.713311 20.395904C12.380887 20.43686 12.888737 20.338567 13.138567 20.113311C13.23686 20.027304 13.249147 20.027304 17.541297 20.006826L21.849829 19.986348L21.993174 19.896246C22.075085 19.847099 22.18157 19.732423 22.230717 19.642321L22.320819 19.482594L22.320819 13.187713C22.320819 6.139249 22.345392 6.712628 22.021843 6.499659C21.870307 6.39727 21.817065 6.389078 21.403413 6.380887C21.153584 6.376792 20.936519 6.372696 20.924232 6.372696C20.90785 6.368601 20.891468 6.200683 20.879181 6C20.858703 5.594539 20.809556 5.483959 20.559727 5.311945C20.43686 5.230034 20.375427 5.221843 19.941297 5.221843C19.650512 5.221843 19.449829 5.205461 19.433447 5.180887C19.417065 5.156314 19.400683 4.967918 19.396587 4.759044C19.388396 4.324915 19.318771 4.152901 19.085324 4.013652C18.950171 3.935836 18.880546 3.931741 18.020478 3.935836C16.07099 3.948123 14.932423 4.18157 13.642321 4.828669C13.068942 5.119454 12.446416 5.627304 12.14744 6.053242C12.106485 6.114676 12.049147 6.163823 12.020478 6.163823C11.991809 6.163823 11.88942 6.061433 11.791126 5.938567C11.389761 5.434812 10.668942 4.926962 9.870307 4.591126C8.801365 4.136519 7.85529 3.972696 6.122867 3.931741C5.340614 3.911263 5.152218 3.919454 5.017065 3.968601ZM6.782253 4.156997C9.141297 4.300341 10.869625 5.053925 11.807509 6.335836C11.901706 6.466894 11.987713 6.573379 12.004096 6.573379C12.016382 6.573379 12.094198 6.475085 12.176109 6.356314C12.380887 6.045051 12.786348 5.647782 13.167235 5.38157C14.207509 4.648464 15.518089 4.259386 17.266894 4.156997C19.101706 4.050512 19.167235 4.079181 19.167235 4.943345L19.167235 5.426621L20.350853 5.426621L20.490102 5.56587C20.649829 5.725597 20.682594 5.848464 20.682594 6.270307L20.682594 6.573379L21.16587 6.573379C21.583618 6.573379 21.67372 6.585666 21.829352 6.663481C21.968601 6.733106 22.025939 6.794539 22.062799 6.901024C22.099659 7.007509 22.111945 8.543345 22.111945 13.195904C22.116041 20.125597 22.140614 19.617747 21.812969 19.740614C21.661433 19.797952 21.210922 19.806143 17.430717 19.793857L13.216382 19.777474L13.027986 19.92901C12.778157 20.129693 12.606143 20.170648 12.016382 20.170648C11.443003 20.170648 11.189078 20.109215 11.000683 19.92901L10.87372 19.810239L6.573379 19.793857C3.079863 19.78157 2.25256 19.765188 2.162457 19.720137C2.101024 19.691468 2.010922 19.589078 1.96587 19.494881C1.883959 19.326962 1.883959 19.257338 1.883959 13.16314C1.883959 7.380205 1.888055 6.995222 1.957679 6.860068C2.072355 6.626621 2.232082 6.573379 2.817747 6.573379L3.317406 6.573379L3.317406 6.253925C3.317406 5.848464 3.370648 5.660068 3.52628 5.533106C3.649147 5.430717 3.669625 5.426621 4.243003 5.426621L4.832765 5.426621L4.832765 4.918771C4.832765 4.431399 4.83686 4.40273 4.935154 4.283959C4.992491 4.21843 5.082594 4.152901 5.131741 4.14471C5.299659 4.111945 6.159727 4.116041 6.782253 4.156997Z"/><path d="M5.447099 10.32901L5.447099 15.939932L6.155631 15.964505C8.580205 16.050512 10.324915 16.701706 11.422526 17.934471C11.545392 18.07372 11.655973 18.188396 11.668259 18.196587C11.680546 18.200683 11.688737 15.7843 11.680546 12.831399C11.668259 6.851877 11.692833 7.302389 11.385666 6.778157C10.918771 5.979522 9.800683 5.295563 8.457338 4.9843C7.879863 4.849147 7.195904 4.775427 6.286689 4.742662L5.447099 4.718089ZM10.730375 7.31058C10.857338 7.437543 10.840956 7.691468 10.705802 7.797952C10.599317 7.883959 10.558362 7.883959 8.592491 7.883959C6.827304 7.883959 6.569283 7.875768 6.446416 7.81843C6.237543 7.716041 6.188396 7.441638 6.356314 7.298294C6.43413 7.232765 6.597952 7.228669 8.543345 7.228669C10.595222 7.228669 10.65256 7.232765 10.730375 7.31058ZM10.705802 8.748123C10.840956 8.854608 10.857338 9.108532 10.730375 9.235495C10.648464 9.317406 10.607509 9.317406 8.543345 9.309215C6.540614 9.296928 6.43413 9.292833 6.352218 9.219113C6.22116 9.100341 6.233447 8.858703 6.372696 8.748123C6.479181 8.662116 6.520137 8.662116 8.539249 8.662116C10.558362 8.662116 10.599317 8.662116 10.705802 8.748123ZM10.734471 10.214334C10.857338 10.312628 10.857338 10.558362 10.734471 10.685324C10.648464 10.771331 10.619795 10.771331 8.670307 10.783618C7.584983 10.791809 6.638908 10.783618 6.565188 10.771331C6.356314 10.734471 6.25802 10.627986 6.25802 10.443686C6.25802 10.32901 6.282594 10.263481 6.348123 10.210239C6.43413 10.140614 6.58157 10.136519 8.539249 10.136519C10.529693 10.136519 10.644369 10.140614 10.734471 10.214334ZM10.681229 11.635495C10.886007 11.77884 10.869625 12.090102 10.65256 12.180205C10.574744 12.212969 9.948123 12.225256 8.490102 12.217065C6.540614 12.204778 6.43413 12.200683 6.352218 12.126962C6.22116 12.008191 6.233447 11.766553 6.372696 11.655973C6.479181 11.569966 6.520137 11.569966 8.535154 11.569966C10.353584 11.569966 10.599317 11.578157 10.681229 11.635495ZM10.730375 13.12628C10.832765 13.228669 10.840956 13.478498 10.742662 13.584983C10.681229 13.654608 10.558362 13.658703 8.563823 13.658703C6.159727 13.658703 6.266212 13.67099 6.266212 13.351536C6.266212 13.032082 6.163823 13.044369 8.54744 13.044369C10.595222 13.044369 10.65256 13.048464 10.730375 13.12628ZM10.72628 14.576109C10.787713 14.633447 10.812287 14.703072 10.812287 14.825939C10.812287 15.137201 10.926962 15.120819 8.572014 15.137201L6.479181 15.153584L6.372696 15.05529C6.188396 14.883276 6.241638 14.592491 6.47099 14.506485C6.503754 14.494198 7.45802 14.486007 8.5843 14.490102C10.54198 14.498294 10.644369 14.502389 10.72628 14.576109ZM16.853242 4.795904C16.083276 4.853242 15.595904 4.94744 14.965188 5.16041C13.773379 5.557679 12.925597 6.1843 12.532423 6.958362L12.348123 7.322867L12.335836 12.774061L12.327645 18.225256L12.454608 18.061433C12.683959 17.774744 13.113993 17.385666 13.453925 17.16041C14.592491 16.40273 15.96041 16.030034 17.848464 15.964505L18.552901 15.939932L18.552901 4.730375L18.053242 4.734471C17.774744 4.738567 17.23413 4.76314 16.853242 4.795904ZM17.606826 7.269625C17.705119 7.322867 17.791126 7.531741 17.758362 7.654608C17.746075 7.711945 17.676451 7.777474 17.590444 7.81843C17.463481 7.879863 17.238225 7.883959 15.395222 7.875768L13.343345 7.863481L13.245051 7.748805C13.118089 7.601365 13.118089 7.45802 13.249147 7.331058L13.34744 7.228669L15.440273 7.228669C16.701706 7.228669 17.561775 7.245051 17.606826 7.269625ZM17.569966 8.715358C17.807509 8.83413 17.832082 9.116724 17.615017 9.247782C17.504437 9.313311 17.320137 9.317406 15.45256 9.317406C13.896246 9.317406 13.388396 9.305119 13.31058 9.264164C13.101706 9.157679 13.101706 8.821843 13.31058 8.715358C13.45802 8.641638 17.422526 8.641638 17.569966 8.715358ZM17.635495 10.230717C17.77884 10.353584 17.787031 10.554266 17.655973 10.681229L17.56587 10.771331L13.343345 10.771331L13.245051 10.656655C13.118089 10.509215 13.118089 10.36587 13.249147 10.238908L13.34744 10.136519L17.524915 10.136519ZM17.598635 11.647782C17.74198 11.737884 17.807509 11.92628 17.737884 12.057338C17.647782 12.217065 17.475768 12.229352 15.370648 12.217065L13.359727 12.204778L13.253242 12.106485C13.085324 11.946758 13.122184 11.733788 13.331058 11.619113C13.388396 11.586348 14.051877 11.574061 15.440273 11.569966C17.369283 11.569966 17.475768 11.574061 17.598635 11.647782ZM17.582253 13.08942C17.684642 13.134471 17.774744 13.281911 17.774744 13.396587C17.774744 13.429352 17.729693 13.503072 17.672355 13.556314L17.574061 13.658703L13.314676 13.658703L13.232765 13.552218C13.183618 13.490785 13.146758 13.400683 13.146758 13.351536C13.146758 13.302389 13.183618 13.212287 13.232765 13.150853L13.314676 13.044369L15.399317 13.044369C16.840956 13.044369 17.516724 13.056655 17.582253 13.08942ZM17.549488 14.539249C17.791126 14.637543 17.840273 14.940614 17.635495 15.071672C17.549488 15.12901 17.262799 15.137201 15.473038 15.145392C13.564505 15.153584 13.400683 15.149488 13.298294 15.079863C13.077133 14.936519 13.105802 14.617065 13.351536 14.531058C13.453925 14.498294 14.047782 14.481911 15.45256 14.481911C17.074403 14.477816 17.434812 14.486007 17.549488 14.539249Z"/><path d="M3.984983 6.024573C3.944027 6.045051 3.931741 7.253242 3.931741 11.885324L3.931741 17.725597L4.087372 17.696928C4.730375 17.590444 5.086689 17.569966 6.348123 17.569966C8.072355 17.569966 8.465529 17.619113 9.63686 17.983618C10.283959 18.1843 10.824573 18.466894 11.299659 18.851877C11.45529 18.97884 11.471672 18.982935 11.426621 18.896928C11.135836 18.352218 10.398635 17.713311 9.587713 17.30785C8.694881 16.857338 7.703754 16.656655 6.1843 16.611604C5.098976 16.582935 5.049829 16.570648 4.914676 16.349488C4.83686 16.222526 4.832765 16.095563 4.832765 11.127645L4.832765 6.040956L4.517406 6.040956C4.341297 6.040956 4.161092 6.032765 4.116041 6.020478C4.07099 6.012287 4.009556 6.012287 3.984983 6.024573ZM19.195904 6.024573C19.179522 6.040956 19.167235 8.322184 19.167235 11.094881C19.167235 14.469625 19.150853 16.185666 19.122184 16.29215C19.048464 16.566553 18.987031 16.582935 17.897611 16.6157C17.369283 16.627986 16.779522 16.660751 16.587031 16.685324C15.473038 16.83686 14.563823 17.16041 13.78157 17.684642C13.376109 17.954949 12.532423 18.819113 12.532423 18.958362C12.532423 18.974744 12.630717 18.905119 12.749488 18.810922C13.544027 18.159727 14.809556 17.721502 16.267577 17.586348C16.963823 17.524915 18.905119 17.561775 19.531741 17.647782C19.789761 17.684642 20.015017 17.701024 20.035495 17.680546C20.051877 17.664164 20.064164 15.030717 20.060068 11.832082L20.047782 6.020478L19.63413 6.008191C19.408874 6.004096 19.212287 6.008191 19.195904 6.024573Z"/><path d="M2.588396 7.220478L2.498294 7.232765L2.506485 13.2L2.518771 19.167235L6.634812 19.175427C11.258703 19.187713 10.902389 19.216382 10.21843 18.872355C9.45256 18.483276 8.744027 18.311263 7.494881 18.200683C6.823208 18.143345 5.340614 18.176109 4.68942 18.266212C4.443686 18.303072 4.099659 18.339932 3.931741 18.352218C3.657338 18.376792 3.612287 18.368601 3.513993 18.290785C3.45256 18.241638 3.382935 18.131058 3.358362 18.049147C3.333788 17.950853 3.317406 16.095563 3.317406 12.565188L3.317406 7.23686L3.002048 7.220478C2.825939 7.212287 2.641638 7.212287 2.588396 7.220478ZM20.678498 7.216382C20.678498 7.232765 20.674403 9.681911 20.670307 12.65529C20.662116 17.983618 20.662116 18.061433 20.580205 18.196587C20.453242 18.405461 20.36314 18.409556 19.372014 18.262116C18.76587 18.172014 16.72628 18.155631 16.136519 18.237543C14.825939 18.421843 14.281229 18.58157 13.576792 18.995222L13.249147 19.187713L21.501706 19.187713L21.493515 13.195904L21.481229 7.208191L21.083959 7.195904C20.862799 7.191809 20.682594 7.2 20.678498 7.216382Z"/></svg>
