<svg xmlns="http://www.w3.org/2000/svg" width="24" height="24" viewBox="0 0 24 24"><path d="M17.5 2C18.879999 2 20 3.12 20 4.5V19.5C20 20.879999 18.879999 21.999998 17.5 21.999998H4.250667C3.250667 21.999998 3.250667 20.499998 4.250667 20.499998H17.5C18.052 20.499998 18.5 20.051998 18.5 19.5H4.250667C3.838667 19.5 3.5 19.161333 3.5 18.749332V4.5C3.5 3.12 4.62 2 6 2ZM10.688 5.172C8.188 5.172 6.401333 7.584 7.125333 9.978666C7.854666 12.369333 10.682666 13.38 12.76 11.989333L15.234666 14.464C15.516 14.749333 15.973333 14.749333 16.26 14.464C16.541332 14.182666 16.541332 13.724 16.26 13.442666L13.781333 10.969333C15.437333 8.494666 13.666666 5.172 10.688 5.172ZM10.688 6.62C13.724 6.62 13.724 11.172 10.688 11.172C7.650666 11.172 7.650666 6.62 10.688 6.62Z"/></svg>
