<svg xmlns="http://www.w3.org/2000/svg" width="24" height="24" viewBox="0 0 24 24"><path d="M4.34 1.515C4.163 1.671 4.142 1.735 4.12 2.251L4.092 2.818L3.498 2.846C2.698 2.874 2.598 2.974 2.563 3.752L2.535 4.319L2.159 4.319C1.961 4.319 1.699 4.354 1.586 4.389C1.147 4.545 1.168 4.163 1.154 11.257C1.147 15.342 1.168 17.82 1.218 17.962C1.359 18.429 1.133 18.408 6.025 18.408C10.068 18.408 10.471 18.415 10.556 18.528C10.776 18.79 11.193 18.904 11.958 18.904C12.574 18.904 12.751 18.875 13.013 18.754C13.183 18.67 13.339 18.557 13.36 18.507C13.388 18.422 14.146 18.408 17.87 18.408C22.798 18.408 22.571 18.429 22.713 17.962C22.763 17.82 22.783 15.335 22.776 11.243L22.762 4.743L22.564 4.553C22.394 4.383 22.309 4.354 21.842 4.333L21.311 4.305L21.311 3.774C21.311 3.285 21.297 3.228 21.105 3.037C20.907 2.847 20.865 2.832 20.327 2.832L19.753 2.832L19.753 2.28C19.753 1.82 19.732 1.7 19.612 1.572C19.399 1.345 19.201 1.317 18.096 1.374C16.334 1.451 15.208 1.699 14.054 2.266C13.296 2.634 12.779 3.03 12.263 3.639L11.944 4.021L11.682 3.689C10.464 2.152 8.227 1.352 5.154 1.345C4.609 1.345 4.517 1.366 4.34 1.515ZM6.967 2.273C8.467 2.428 9.806 3.002 10.655 3.859C10.932 4.128 11.243 4.524 11.356 4.729L11.555 5.105L11.562 10.712C11.569 14.132 11.54 16.305 11.505 16.284C11.393771 16.190362 11.289496 16.088761 11.193 15.98C10.117 14.79 8.142 14.033 5.791 13.898C5.098 13.863 4.956 13.834 4.949 13.742C4.941921 9.89067 4.941921 6.03933 4.949 2.188C4.956 2.131 6.046 2.181 6.967 2.273ZM18.974 7.986L18.974 13.856L18.174 13.898C15.845 14.033 14.132 14.656 12.914 15.81L12.312 16.376L12.333 10.719L12.355 5.062L12.545 4.744C13.112 3.774 13.919 3.136 15.13 2.697C15.958 2.393 16.695 2.259 17.842 2.202C18.202854 2.178279 18.563862 2.156945 18.924999 2.138C18.953 2.131 18.975 4.765 18.975 7.986ZM4.107 8.921C4.107 14.535 4.107 14.507 4.454 14.621C4.525 14.641 4.978 14.677 5.453 14.691C7.895 14.783 9.531 15.391 10.748 16.659C11.244 17.183 11.315 17.311 10.925 17.006C10.232 16.476 9.184 16.072 8.023 15.895C6.975 15.739 4.419 15.767 3.442 15.951C3.406 15.958 3.378 13.353 3.372 9.827L3.364 3.682L4.107 3.682ZM20.533 9.827L20.533 15.972L19.846 15.88C18.968 15.767 16.774 15.753 16.073 15.86C14.784 16.057 13.75 16.433 13.085 16.942C12.894 17.084 12.745 17.176 12.745 17.141C12.745 17.034 13.602 16.192 13.949 15.951C15.089 15.172 16.561 14.769 18.515 14.698C19.4 14.67 19.443 14.656 19.591 14.478L19.754 14.295L19.754 3.682L20.533 3.682ZM2.55 10.74C2.55 16.546 2.55 16.553 2.84 16.73C2.925 16.787 3.329 16.765 4.2 16.673C5.644 16.525 7.315 16.553 8.285 16.744C8.957 16.879 9.856 17.204 10.125 17.417C10.302 17.558 10.295 17.558 6.146 17.558L1.982 17.558L1.982 5.168L2.549 5.168ZM21.949 11.363L21.949 17.558L17.758 17.558C14.869 17.558 13.595 17.53 13.665 17.481C14.218 17.105 15.265 16.765 16.25 16.645C17.128 16.539 18.628 16.553 19.648 16.673C20.802 16.815 20.951 16.808 21.149 16.623L21.312 16.475L21.312 5.168L21.949 5.168Z"/></svg>
