<svg xmlns="http://www.w3.org/2000/svg" width="24" height="24" viewBox="0 0 24 24"><path d="M17.5 2C18.879999 2 20 3.12 20 4.5V19.5C20 20.879999 18.879999 21.999998 17.5 21.999998H4.250667C3.833333 21.999998 3.5 21.666666 3.5 21.250666C3.5 20.833332 3.833333 20.499998 4.250667 20.499998H17.5C18.052 20.499998 18.5 20.051998 18.5 19.5H4.250667C3.833333 19.5 3.5 19.166666 3.5 18.749332V4.5C3.5 3.12 4.62 2 6 2ZM16 5H8C7.448 5 7 5.448 7 6V7C7 7.552 7.448 8 8 8H16C16.552 8 17 7.552 17 7V6C17 5.448 16.552 5 16 5Z"/></svg>
