<svg xmlns="http://www.w3.org/2000/svg" width="24" height="24" viewBox="0 0 24 24"><path d="M11.416 2.432C12.182666 2.270667 12.942666 2.136 13.114666 2.136C13.412 2.125333 20.505333 3.854667 20.718666 3.994667C20.869333 4.078667 20.822666 4.322667 20.655998 4.396C20.557333 4.426667 20.411999 4.630667 20.327999 4.854667C20.103998 5.385333 20.188 6 20.546665 6.369333C20.749332 6.584 20.811998 6.734666 20.759998 6.890666C20.707998 7.082666 20.749332 7.114666 21.119999 7.177333C21.781334 7.286666 21.854666 7.464 21.463999 7.912C21.166666 8.250666 21.130667 8.36 21.130667 8.973333C21.130667 9.588 21.166666 9.672 21.463999 9.973333C21.896 10.406666 21.781334 10.546666 20.811998 10.713333C20.401333 10.792 19.994665 10.917333 19.921333 11C19.838667 11.078666 19.729334 11.426666 19.666666 11.776C19.473333 12.86 19.879999 14.016 20.453333 14.016C20.666666 14.016 20.636 14.312 20.390665 14.625333C20.093332 15.005333 20.026667 15.505333 20.218666 15.964C20.302666 16.182667 20.431999 16.354666 20.505333 16.354666C20.578667 16.354666 20.603998 16.458666 20.567999 16.620001C20.515999 16.926666 20.729334 17.098665 21.155998 17.098665C21.292 17.098665 21.505333 17.161333 21.619999 17.245333C21.811998 17.396 21.811998 17.406666 21.526667 17.713333C20.942665 18.317333 20.942665 19.379999 21.515999 19.973333C21.551786 20.010855 21.587246 20.044617 21.619778 20.075592C21.704899 20.156637 21.769979 20.218601 21.768444 20.27887C21.762894 20.496788 20.886419 20.692528 16.937332 21.688L13.541333 22.535999L12.636 22.363998C11.62 22.182667 4.802667 20.792 3.984 20.603998C3.12 20.411999 2.76 19.912001 2.76 18.901333C2.76 17.885332 3.188 17.322666 4.12 17.098665L4.672 16.969334V16.505333C4.672 15.874666 4.885333 15.385333 5.322667 15.046666L5.672 14.770666L5.406667 14.718666C5.265333 14.688 4.598667 14.557333 3.926667 14.432C2.779702 14.224381 2.375307 14.161003 2.346585 14.020713C2.331409 13.946589 2.421109 13.850993 2.561571 13.701301C2.575249 13.686724 2.589409 13.671634 2.604 13.656C3.078667 13.136 3.078667 11.958666 2.593333 11.374666C2.218667 10.926666 2.349333 10.765333 3.250667 10.568C3.688 10.469333 4.036 10.374666 4.036 10.344C4.036 10.312 3.926667 10.14 3.802667 9.973333C3.588 9.697333 3.557333 9.516 3.557333 8.76C3.557333 7.666666 3.74 7.36 4.526667 7.104C5.030667 6.942666 5.041333 6.932 4.802667 6.786666C4.426667 6.562667 4.14 5.926667 4.14 5.344C4.14 4.734667 4.458667 3.994667 4.781333 3.822667C5 3.708 5.874667 3.516 8.76 2.964C9.464 2.833333 10.661333 2.593333 11.416 2.432ZM5.254667 18.062666C4.62 17.937332 3.994667 17.806665 3.864 17.775999C3.546667 17.693333 3.364 17.989332 3.312 18.677334C3.26 19.349333 3.464 19.912001 3.792 20.005333C3.896 20.035999 4.578667 20.188 5.306667 20.338667C6.041333 20.483999 6.828 20.655998 7.062666 20.707998C7.297333 20.759998 8.593333 21.026667 9.926666 21.292C11.276 21.557333 12.478666 21.802666 12.614666 21.833332C12.88 21.906666 12.88 21.896 12.734666 21.250666C12.656 20.921333 12.666666 20.614666 12.745333 20.207998C12.817333 19.890665 12.849333 19.614666 12.828 19.593332C12.797333 19.562666 7.401333 18.469334 5.254667 18.062666ZM16.250666 3.374667C14.697333 2.994667 13.265333 2.677333 13.062666 2.677333C12.86 2.677333 12.021333 2.812 11.202666 2.984C10.385333 3.156 9.098666 3.406667 8.338666 3.557333C6.674882 3.884191 6.499197 3.914471 6.480794 3.985502C6.478622 3.993873 6.478641 4.002812 6.478662 4.012898V4.012917L6.478667 4.016C6.478667 4.068 6.734666 4.161333 7.041333 4.24C7.338666 4.312 8.188 4.557333 8.921333 4.781333C9.650666 5 10.682666 5.306667 11.213333 5.458667L12.172 5.745333L13.177333 5.510667C13.729333 5.385333 14.390666 5.245333 14.656 5.202667C14.921333 5.150667 15.874666 4.948 16.781334 4.734667C17.682667 4.536 18.562666 4.354667 18.724001 4.333333C19.431999 4.26 18.879999 4.046667 16.250666 3.374667ZM6.478667 8.073333C5.344 7.838666 4.396 7.645333 4.385333 7.645333C4.374667 7.645333 4.292 7.749333 4.193333 7.890666C3.650667 8.718666 4.109333 9.984 4.958667 9.984C5.057333 9.984 5.426667 10.046666 5.776 10.130666C6.14 10.213333 6.88 10.385333 7.432 10.505333C7.984 10.62 9.229333 10.896 10.172 11.098666C11.130666 11.306666 11.926666 11.469333 11.937333 11.448C11.958666 11.426666 11.937333 11.172 11.906666 10.885333C11.86 10.588 11.874666 10.12 11.926666 9.833333C11.978666 9.557333 11.989333 9.302666 11.958666 9.270666C11.906666 9.208 10.202666 8.844 6.478667 8.073333ZM7.442666 15.729333C5.584 15.442666 5.478667 15.442666 5.333333 15.770666C5.161333 16.139999 5.172 16.598665 5.354667 17.030666C5.521333 17.437332 5.489333 17.426666 8.338666 17.838667C9.156 17.958666 10.26 18.125334 10.781333 18.213333C11.306666 18.297333 12.073333 18.416 12.478666 18.478666C12.890666 18.541332 13.338666 18.614666 13.484 18.636L13.749333 18.693333V17.682667C13.76 17.130667 13.74 16.672001 13.697333 16.672001C13.666666 16.672001 13.36 16.630667 13.010666 16.578667C12.656 16.526667 12.041333 16.426666 11.630666 16.364C10.781333 16.24 9.473333 16.035999 7.442666 15.729333ZM20.688 8.188C20.729334 7.901333 20.688 7.901333 18.530666 8.281333C17.598665 8.442666 15.926666 8.729333 14.812 8.921333C13.562666 9.130666 12.724 9.322666 12.614666 9.432C12.469333 9.557333 12.426666 9.76 12.426666 10.344C12.437333 11.297333 12.636 11.630666 13.177333 11.552C13.593333 11.5 16.874666 10.917333 18.426666 10.62C19.010666 10.516 19.729334 10.385333 20.026667 10.344C20.749332 10.26 20.869333 10.172 20.718666 9.896C20.688408 9.836773 20.670351 9.791843 20.63838 9.761644C20.544899 9.673343 20.33246 9.710977 19.348234 9.885333C19.274769 9.898348 19.197002 9.912124 19.114666 9.926666C18.677334 10.016 17.573334 10.193333 16.672001 10.354666C15.770666 10.505333 14.645333 10.693333 14.188 10.781333C13.718666 10.864 13.328 10.917333 13.297333 10.896C13.188 10.781333 13.401333 10.64 13.776 10.578666C14.36 10.469333 15.937333 10.202666 17.098665 10.026666C17.650665 9.937333 18.275999 9.822666 18.478666 9.770666C18.677334 9.718666 19.136 9.64 19.483999 9.598666C20.338667 9.505333 20.603998 9.396 20.603998 9.145333C20.603998 9.026666 20.557333 8.912 20.505333 8.88C20.453333 8.844 19.297333 9.005333 17.937332 9.24C16.568001 9.473333 14.984 9.74 14.412 9.833333C13.464 9.994666 13.125333 9.994666 13.306666 9.812C13.338666 9.770666 13.74 9.672 14.197333 9.598666C14.656 9.526666 15.484 9.385333 16.035999 9.292C16.587999 9.208 17.306665 9.078666 17.630667 9.026666C17.948 8.973333 18.693333 8.844 19.275999 8.749333C20.505333 8.546666 20.645332 8.494666 20.688 8.188ZM6.754666 4.713333C5.885333 4.458667 5.130667 4.250667 5.098667 4.250667C4.693333 4.250667 4.568 5.797333 4.937333 6.14C5.057333 6.245333 5.510667 6.437333 5.948 6.573333C7.188 6.942666 8.005333 7.188 9.557333 7.645333C10.344 7.88 11.150666 8.125333 11.344 8.188C11.541333 8.250666 11.713333 8.281333 11.734666 8.26C11.754666 8.24 11.724 8.005333 11.672 7.74C11.598666 7.421333 11.609333 7.093333 11.672 6.786666C11.754666 6.416 11.754666 6.297333 11.630666 6.202667C11.541333 6.14 10.765333 5.885333 9.906666 5.64C9.046666 5.385333 7.625333 4.969333 6.754666 4.713333ZM19.218666 11.333333C19.218666 11.182666 18.786667 11.276 15.557333 12.161333C14.973333 12.317333 14.114666 12.552 13.645333 12.677333C12.912 12.869333 12.786666 12.942666 12.702666 13.188C12.645333 13.349333 12.625333 13.510666 12.656 13.552C12.702666 13.584 13.030666 13.530666 13.401333 13.432C13.76 13.328 14.24 13.208 14.442666 13.156C15.250666 12.969333 17.917334 12.234666 18.193333 12.114666C18.573334 11.969333 18.584 11.969333 18.584 12.150666L18.584023 12.157975C18.584091 12.172711 18.584152 12.185995 18.581522 12.198722C18.555693 12.323671 18.270481 12.395002 15.188 13.218666C13.932 13.552 12.828 13.86 12.745333 13.901333C12.530666 14.016 12.478666 14.432 12.666666 14.505333C12.754666 14.536 13.197333 14.464 13.656 14.338666C14.114666 14.208 14.844 14.016 15.270666 13.901333C15.688 13.797333 16.406666 13.604 16.864 13.473333C18.530666 13.021333 18.584 13.021333 18.584 13.145333C18.584 13.245333 17.598665 13.541333 15.026666 14.229333C13.108144 14.742537 12.712752 14.824407 12.690065 14.965996C12.684357 15.001625 12.702249 15.041036 12.72541 15.092053C12.73814 15.120095 12.752462 15.151645 12.765333 15.188C12.817333 15.364 12.901333 15.505333 12.932 15.505333C13.030666 15.494666 13.994666 15.24 16.250666 14.604C17.213333 14.328 18.265333 14.036 18.584 13.953333C18.901333 13.869333 19.177334 13.786666 19.188 13.76C19.208 13.74 19.177334 13.421333 19.125334 13.041333C19.073334 12.645333 19.073334 12.161333 19.125334 11.885333C19.166666 11.630666 19.208 11.385333 19.218666 11.333333ZM20.655998 18.245333C20.697332 18.125334 20.688 18 20.636 17.958666C20.557333 17.896 14.901333 19.234667 13.86 19.562666C13.494666 19.677334 13.412 19.76 13.286666 20.155998C13.114666 20.697332 13.197333 21.396 13.473333 21.759998C13.546566 21.852928 13.592059 21.910658 13.65148 21.937172C13.748928 21.980654 13.883837 21.940182 14.24 21.833332C14.557333 21.74 15.792 21.421333 16.989332 21.119999C20.177334 20.338667 20.718666 20.197332 20.781334 20.145332C20.901333 20.026667 20.578667 19.636 20.411999 19.688C19.338667 19.994665 14.093333 21.24 14.036 21.188C13.901333 21.046665 14.338666 20.921333 17.437332 20.155998L20.614666 19.379999L20.546665 19.114666C20.505333 18.969334 20.463999 18.838667 20.442665 18.817333C20.421333 18.797333 19.052 19.114666 17.396 19.530666C15.74 19.942665 14.302666 20.281334 14.197333 20.281334C13.932 20.281334 13.973333 20.082666 14.26 20.015999C14.645333 19.931999 20.218666 18.573334 20.411999 18.521334C20.505333 18.489332 20.625334 18.369333 20.655998 18.245333ZM19.729334 4.906667C19.76 4.713333 19.718666 4.672 19.453333 4.672C19.286667 4.672 19.125334 4.693333 19.104 4.713333C19.082666 4.734667 17.584 5.078667 15.770666 5.469333C13.964 5.86 12.416 6.245333 12.328 6.328C12.093333 6.541333 12.052 7.552 12.254666 7.942666C12.489333 8.390666 12.541333 8.412 13.125333 8.229333C13.412 8.145333 14.312 7.932 15.130666 7.749333C15.948 7.573333 16.765333 7.38 16.937332 7.328C17.120001 7.276 17.838667 7.093333 18.562666 6.932C19.431999 6.745333 19.860001 6.604 19.860001 6.510667C19.860001 6.224 19.521334 6.254667 17.552 6.693333C13.464 7.614666 12.942666 7.718666 12.890666 7.636C12.817333 7.521333 12.921333 7.473333 13.806666 7.286666C14.24 7.177333 14.770666 7.062666 14.973333 7C15.177333 6.942666 15.729333 6.828 16.182667 6.745333C16.650665 6.645333 17.068001 6.552 17.120001 6.521333C17.172001 6.489333 17.469334 6.416 17.765333 6.369333C18.073334 6.317333 18.604 6.213333 18.958666 6.14C19.521334 6.010667 19.593332 5.958667 19.593332 5.734667C19.593332 5.5 19.552 5.469333 19.275999 5.5C19.104 5.510667 18.666666 5.598667 18.317333 5.682667C17.969334 5.765333 17.161333 5.958667 16.516001 6.093333C15.874666 6.245333 14.822666 6.478667 14.177333 6.625333C13.521333 6.776 12.969333 6.849333 12.912 6.797333C12.817333 6.702666 13.369333 6.521333 14.177333 6.369333C14.412 6.317333 15.536 6.062667 16.672001 5.786667C17.806665 5.510667 18.958666 5.254667 19.218666 5.213333C19.614666 5.161333 19.708 5.109333 19.729334 4.906667ZM19.604 15.364C19.614666 14.973333 19.584 14.869333 19.442665 14.88C19.306665 14.890666 17.478666 15.546666 15.822666 16.193333C15.62 16.270666 15.218666 16.416 14.942666 16.526667C14.328 16.745333 14.188 17 14.250666 17.817333C14.312 18.573334 14.432 18.677334 15.005333 18.458666C17.754665 17.396 18.573334 17.068001 18.849333 16.948C19.030666 16.864 19.306665 16.754665 19.464001 16.713333C19.749332 16.650665 19.76 16.620001 19.688 16.26C19.636 16.046665 19.604 15.650666 19.604 15.364ZM3.926667 11.458666C3.609333 11.406666 3.333333 11.364 3.322667 11.364C3.270667 11.364 3.292 11.448 3.385333 11.713333C3.505333 12 3.708 12.062666 6.530667 12.573333C7.349333 12.734666 8.401333 12.921333 8.869333 13.010666C11.416 13.484 12.030666 13.593333 12.114666 13.530666C12.245333 13.453333 12.245333 12.989333 12.114666 12.912C12.062666 12.88 11.193333 12.713333 10.182666 12.541333C9.166666 12.36 7.473333 12.073333 6.426667 11.896C5.374667 11.713333 4.250667 11.521333 3.926667 11.458666ZM4.224 13.328C4.1435 13.310221 4.071117 13.293997 4.005969 13.279394C3.601792 13.188799 3.476063 13.160618 3.417947 13.210776C3.384269 13.239842 3.373296 13.295218 3.344 13.38C3.250667 13.697333 3.344 13.786666 3.964 13.901333C5.584 14.208 9.177333 14.901333 9.822666 15.026666C10.24 15.109333 10.926666 15.250666 11.364 15.333333C11.797333 15.421333 12.193333 15.464 12.234666 15.421333C12.276 15.374666 12.254666 15.229333 12.182666 15.088C12.062666 14.854666 11.896 14.802666 10.781333 14.578666C10.078666 14.453333 9.12 14.26 8.656 14.177333C8.188 14.093333 7.156 13.890666 6.369333 13.74C5.584 13.604 4.62 13.412 4.224 13.328ZM7.964 13.114666C5.828 12.734666 3.948 12.38 3.792 12.349333C3.505333 12.297333 3.494667 12.306666 3.526667 12.593333C3.557333 12.932 3.650667 12.969333 5.630667 13.328C6.182667 13.421333 7.234666 13.625333 7.964 13.76C8.697333 13.901333 9.578666 14.073333 9.926666 14.136C10.536 14.24 11.344 14.401333 11.874666 14.505333C12.073333 14.546666 12.104 14.505333 12.104 14.229333C12.104 14.052 12.041333 13.890666 11.978666 13.869333C11.906666 13.849333 10.098666 13.510666 7.964 13.114666Z"/></svg>
