<svg xmlns="http://www.w3.org/2000/svg" width="24" height="24" viewBox="0 0 24 24"><path d="M7.224 1.396C12.197333 1.349333 18.682667 1.344 19.26 1.390667C19.697332 1.426667 19.854666 1.464 20.078667 1.588C20.411999 1.770667 20.645332 2.026667 20.817333 2.396L20.937332 2.666667L20.926666 12.057333L20.911999 21.447998L20.734667 21.754665C20.530666 22.103998 20.223999 22.385332 19.833332 22.562666L19.573334 22.682667L11.526666 22.702665C11.016698 22.703581 10.537835 22.704514 10.088175 22.705389C3.867938 22.717501 3.235957 22.718731 3.158727 22.512358C3.143916 22.47278 3.149508 22.425568 3.14 22.369333C3.12 22.265333 3.130667 22.136 3.161333 22.073334C3.234667 21.942665 3.489333 21.797333 3.645333 21.797333C3.802667 21.797333 3.921333 21.587999 3.989333 21.182667C4.041333 20.879999 4.036 20.770666 3.958667 20.469334C3.849333 20.051998 3.749333 19.921333 3.541333 19.921333C3.464 19.921333 3.338667 19.869333 3.270667 19.817333L3.14 19.713333V2.656L3.276 2.401333C3.464 2.026667 3.708 1.76 4.030667 1.584L4.322667 1.421333ZM18.229334 19.030666V2.281333L11.437333 2.265333C5.057333 2.254667 4.636 2.26 4.458667 2.344C4.354667 2.401333 4.213333 2.526667 4.150667 2.625333L4.026667 2.806667V19.062666L11.130666 19.052ZM19.609333 20.067999 19.412001 19.948 12.082666 19.931999 4.765333 19.921333 4.806667 20.062666C4.88 20.359999 4.896 21.265333 4.833333 21.510666C4.797333 21.639999 4.776 21.765333 4.802667 21.786667C4.822667 21.806665 8.109333 21.817333 12.098666 21.806665L19.354666 21.792L19.598665 21.677334C20.213333 21.374666 20.223999 20.453333 19.609333 20.067999ZM19.697332 2.406667C19.521334 2.270667 19.177334 2.218667 19.139999 2.312C19.125334 2.36 19.120001 6.130667 19.125334 10.708L19.139999 19.026667L19.464001 19.087999C19.639999 19.120001 19.838667 19.177334 19.906666 19.208C20.005333 19.265333 20.030666 19.265333 20.051998 19.208C20.067999 19.172001 20.073334 15.464 20.067999 10.969333C20.051998 2.812 20.051998 2.797333 19.942665 2.650667C19.879999 2.573333 19.775999 2.458667 19.697332 2.406667Z"/></svg>
