<svg xmlns="http://www.w3.org/2000/svg" width="24" height="24" viewBox="0 0 24 24"><path d="M4.993151 3.994521C5.120548 3.965753 6.624658 4.006849 7.150685 4.052055C9.234246 4.236986 11.063014 5.00137 11.905479 6.032876C12.020548 6.176713 12.041096 6.184931 12.115068 6.139726C12.164384 6.110959 12.221918 6.045206 12.250685 5.991781C12.316439 5.868493 12.834247 5.432877 13.204109 5.186301C13.890411 4.734247 14.691781 4.442466 15.965754 4.191781C16.70137 4.047945 17.375343 3.99863 18.39863 4.015069C19.261644 4.027397 19.269863 4.027397 19.376713 4.130137C19.561644 4.30274 19.602739 4.426027 19.602739 4.820548C19.602739 5.120548 19.615068 5.19452 19.668493 5.215068C19.705479 5.227397 19.90274 5.239726 20.112329 5.239726C20.786301 5.239726 21.00411 5.432877 21.041096 6.061644L21.061644 6.410959L21.538357 6.431507C22.060274 6.456164 22.175343 6.49726 22.315069 6.731507C22.397261 6.858904 22.397261 6.990411 22.397261 12.986301C22.397261 18.920547 22.39315 19.113699 22.319178 19.236986C22.278082 19.306849 22.171232 19.40959 22.084932 19.463015L21.924658 19.561644L17.671232 19.573973L13.421918 19.582191L13.315068 19.684931C13.257534 19.738356 13.121918 19.824657 13.006849 19.878082C12.813699 19.964384 12.747945 19.972603 12.020548 19.972603C11.280822 19.972603 11.231507 19.968493 11.054794 19.873972C10.952055 19.820547 10.828767 19.738356 10.775343 19.689041L10.676712 19.602739L6.419178 19.582191L2.157534 19.561644L2.005479 19.467123C1.923288 19.413698 1.816438 19.310959 1.771233 19.236986C1.684932 19.10137 1.684932 19.068493 1.684932 13.006849C1.684932 7.130137 1.684932 6.908219 1.758904 6.764384C1.886301 6.521918 2.046575 6.456164 2.568493 6.431507L3.020548 6.410959L3.041096 6.061644C3.065753 5.634246 3.152055 5.469863 3.410959 5.334247C3.571233 5.247945 3.645205 5.235616 3.990411 5.243835C4.208219 5.247945 4.409589 5.235616 4.434247 5.223288C4.463014 5.20274 4.479452 5.063014 4.475342 4.832877C4.467124 4.524658 4.479452 4.446575 4.561644 4.30274C4.652055 4.146575 4.79589 4.039726 4.993151 3.994521ZM7.479452 4.29452C7.047945 4.228767 4.972603 4.19589 4.882192 4.253425C4.742466 4.339726 4.70548 4.479452 4.684931 4.972603L4.664383 5.465754H4.130137C3.838356 5.465754 3.554795 5.482192 3.50137 5.49863C3.353425 5.552055 3.308219 5.687671 3.287671 6.164383L3.267123 6.616438L2.708219 6.636986C2.309589 6.653425 2.128767 6.673973 2.079452 6.715068C2.061429 6.730088 2.04512 6.741436 2.030365 6.754534C1.890096 6.879041 1.890111 7.161592 1.890385 12.258033C1.890398 12.493133 1.890411 12.738476 1.890411 12.99452C1.890411 18.863014 1.890411 18.990412 1.972603 19.117807C1.997104 19.158443 2.011959 19.192823 2.033861 19.221893C2.154065 19.381439 2.486512 19.381077 5.790531 19.377472H5.79063C6.02464 19.377216 6.273555 19.376945 6.538356 19.376713L10.779452 19.372602L10.906849 19.49589C11.116438 19.69726 11.309589 19.754795 11.860274 19.779451C12.616438 19.80822 12.998631 19.721918 13.216438 19.471233L13.29863 19.372602L17.531507 19.376713C20.572603 19.376713 21.801371 19.364384 21.895891 19.331507C21.986301 19.30274 22.056164 19.232876 22.109589 19.126028C22.19178 18.973972 22.19178 18.850685 22.19178 12.986301C22.19178 12.730513 22.191793 12.485417 22.191807 12.250559C22.19208 7.161482 22.192095 6.879039 22.051876 6.754571C22.037107 6.741462 22.020782 6.730104 22.002739 6.715068C21.953424 6.673973 21.772602 6.653425 21.373972 6.636986L20.815069 6.616438L20.794521 6.160274C20.765753 5.49863 20.724657 5.465754 19.952055 5.465754H19.417809L19.397261 4.993151C19.376713 4.487671 19.327396 4.347945 19.142466 4.249315C19.080822 4.216438 18.739725 4.208219 17.942465 4.224658C16.771233 4.245205 16.376713 4.290411 15.431507 4.516438C14.589041 4.721918 13.746575 5.071233 13.171233 5.457534C12.846576 5.675343 12.312328 6.193151 12.180822 6.419178C12.127398 6.517808 12.061644 6.595891 12.045205 6.595891C12.024657 6.595891 11.958904 6.513699 11.90137 6.415069C11.757534 6.172603 11.260274 5.687671 10.927398 5.465754C10.635616 5.276712 9.986301 4.935616 9.719178 4.841096C9.09863 4.615068 8.268493 4.413699 7.479452 4.29452ZM5.330137 4.816438C5.408219 4.734247 6.850685 4.808219 7.726027 4.935616C8.638356 5.067123 9.706849 5.420548 10.372602 5.810959C10.828767 6.073973 11.321918 6.567123 11.531507 6.965754L11.691781 7.273973L11.7 8.917809C11.724657 12.698589 11.732877 17.897146 11.712329 17.897261C11.7 17.897261 11.589041 17.773973 11.465754 17.626028C11.030137 17.112329 10.315068 16.60685 9.50548 16.236986C8.560274 15.813699 7.709589 15.636987 6.176713 15.546576L5.30137 15.49726V10.171233C5.30137 7.241096 5.313699 4.828767 5.330137 4.816438ZM17.445206 4.816438C17.535616 4.808219 17.872602 4.8 18.19726 4.79589L18.780823 4.787671V15.554794L18.6 15.530137C18.221918 15.476712 16.553425 15.632876 15.924658 15.780822C14.642466 16.076712 13.356164 16.783562 12.641096 17.580822C12.484932 17.757534 12.357534 17.89315 12.353425 17.889042C12.349315 17.880821 12.357534 15.501369 12.369863 12.59589L12.390411 7.315069L12.567123 6.986301C12.928767 6.312329 13.573973 5.80274 14.527397 5.432877C15.386301 5.095891 16.257534 4.915069 17.445206 4.816438ZM15.805479 7.380822C14.963014 7.228767 14.169863 7.5 13.610959 8.136987C12.891781 8.954795 12.891781 10.290411 13.610959 11.128767C13.820548 11.379452 14.280822 11.704109 14.584931 11.819178C14.963014 11.967123 15.756165 11.971232 16.117807 11.835616C16.167124 11.815068 16.212328 11.843836 16.273973 11.946575C16.339725 12.057534 16.352055 12.123287 16.331507 12.29178C16.306849 12.493151 16.319178 12.521917 16.730137 13.319178C16.960274 13.767123 17.186302 14.190411 17.231506 14.256165C17.473972 14.60137 18.024658 14.506849 18.127398 14.09589C18.164383 13.935616 18.152056 13.90274 17.724657 13.047945C17.256165 12.115068 17.157534 11.963014 16.997261 11.921918C16.90274 11.897261 16.726027 11.671233 16.726027 11.576713C16.726027 11.552054 16.841095 11.412329 16.984932 11.264383C17.700001 10.512329 17.852055 9.534246 17.395891 8.617808C17.239725 8.305479 17.149315 8.182192 16.915068 7.968493C16.59041 7.664383 16.179453 7.446575 15.805479 7.380822ZM20.815069 7.261644C20.827396 7.228767 20.946575 7.212329 21.205479 7.212329H21.575342V18.760275H17.527397C14.897261 18.760275 13.479452 18.747946 13.479452 18.719177C13.479452 18.698629 13.689041 18.579453 13.943835 18.452055C14.663013 18.102739 15.365753 17.90959 16.335617 17.790411C17.116438 17.700001 18.813698 17.728767 19.705479 17.852055C20.506849 17.963015 20.552055 17.963015 20.675343 17.831507L20.773973 17.724657L20.786301 12.521917C20.790411 9.657535 20.80274 7.290411 20.815069 7.261644ZM2.527397 7.245205C2.576712 7.208219 3.131507 7.20411 3.221918 7.236986C3.279452 7.261644 3.287671 7.758904 3.287671 12.472603C3.287671 17.658905 3.287671 17.679453 3.369863 17.786301C3.493151 17.942465 3.678082 17.979452 4.015069 17.917809C4.664383 17.79863 5.309589 17.753426 6.452055 17.753426C7.894521 17.753426 8.441096 17.823288 9.390411 18.127398C9.780822 18.254795 10.417809 18.546576 10.561644 18.669863L10.664384 18.756165L6.595891 18.747946L2.527397 18.739725L2.506849 13.006849C2.494521 9.209589 2.49863 7.265753 2.527397 7.245205ZM19.397261 10.878082V6.061644H20.219177V17.330137L20.087671 17.305479C20.013699 17.29315 19.713699 17.252054 19.417809 17.210958C18.735617 17.124657 16.828768 17.112329 16.19178 17.190411C14.880822 17.358904 13.795891 17.720549 13.031507 18.254795C12.887671 18.353424 12.764383 18.427397 12.752055 18.419178C12.727397 18.390411 13.191781 17.856165 13.409589 17.663013C13.882192 17.252054 14.716438 16.783562 15.373973 16.569862C16.187672 16.30274 17.021917 16.179453 18.258904 16.146576C19.232876 16.121918 19.282192 16.109589 19.352055 15.854795C19.380821 15.747945 19.397261 14.1 19.397261 10.878082ZM3.904109 6.110959C3.904109 6.073973 4.010959 6.061644 4.29452 6.061644H4.684931V10.931507C4.684931 11.123214 4.68492 11.307644 4.68491 11.485081C4.684664 15.642097 4.684646 15.960147 4.830316 16.055407C4.849172 16.067736 4.870468 16.076334 4.894521 16.089041C4.943836 16.117807 5.321918 16.142466 5.827397 16.150684C7.910959 16.19178 9.250685 16.569862 10.417809 17.449314C10.8 17.736986 11.424658 18.39863 11.424658 18.521917C11.424658 18.542465 11.350685 18.501369 11.264383 18.423288C10.590411 17.852055 9.30411 17.379452 7.890411 17.190411C7.273973 17.108219 5.330137 17.120548 4.619178 17.215069C4.29863 17.256165 4.006849 17.289042 3.969863 17.29315C3.904109 17.301371 3.9 16.931507 3.904109 11.732877ZM14.872602 7.931507C15.246575 7.791781 15.932877 7.89863 16.323288 8.157535C16.886301 8.531507 17.219177 9.271233 17.104109 9.887671C16.927397 10.845205 16.158905 11.449315 15.19726 11.39589C14.59726 11.358904 14.050685 10.980822 13.763014 10.397261C13.627398 10.121918 13.623287 10.093151 13.623287 9.657535C13.627398 9.147945 13.676712 8.991781 13.964383 8.593151C14.19863 8.264383 14.436986 8.091781 14.872602 7.931507ZM10.664384 11.132876C10.541096 11.083562 10.20822 11.075342 8.576713 11.079453C7.508219 11.083562 6.550685 11.1 6.447945 11.112329C6.19726 11.149315 6.123288 11.215069 6.123288 11.40411C6.123288 11.527397 6.147945 11.580822 6.230137 11.646575C6.336986 11.732877 6.378082 11.732877 8.469863 11.732877C9.657535 11.732877 10.639726 11.716438 10.69726 11.69589C10.750685 11.675343 10.820548 11.60137 10.849315 11.527397C10.919178 11.354795 10.853425 11.215069 10.664384 11.132876ZM10.615068 13.873973C10.434247 13.820548 6.591781 13.820548 6.382192 13.869863C6.184931 13.915069 6.123288 13.984932 6.123288 14.157535C6.123288 14.260274 6.152055 14.334247 6.209589 14.387671C6.291781 14.461644 6.39863 14.465754 8.445206 14.478083C9.821918 14.486301 10.627398 14.473972 10.70137 14.449315C10.972603 14.342465 10.919178 13.956164 10.615068 13.873973ZM10.771233 7.043836C10.680822 6.969863 10.565753 6.965754 8.482192 6.965754C6.341096 6.965754 6.287671 6.965754 6.20548 7.047945C6.115068 7.138356 6.09863 7.331507 6.164383 7.458904C6.246575 7.615068 6.447945 7.627397 8.617808 7.59863C10.590411 7.578082 10.709589 7.569863 10.787671 7.495891C10.90274 7.384932 10.894521 7.142466 10.771233 7.043836ZM10.79178 8.457534 10.693151 8.342465 8.539726 8.334247C7.360274 8.330137 6.361644 8.338356 6.328767 8.350685C6.110959 8.432877 6.045206 8.732877 6.209589 8.880822C6.291781 8.954795 6.386302 8.958904 8.519178 8.946575C10.717808 8.934247 10.746575 8.934247 10.820548 8.852055C10.919178 8.732877 10.906849 8.593151 10.79178 8.457534ZM10.70137 12.517808C10.627398 12.484932 9.965754 12.472603 8.469863 12.472603C6.378082 12.472603 6.336986 12.472603 6.230137 12.558904C6.147945 12.624658 6.123288 12.678082 6.123288 12.80137C6.123288 12.812373 6.12316 12.822957 6.123038 12.833137C6.122428 12.883865 6.12194 12.924556 6.137911 12.957192C6.202654 13.089494 6.537881 13.089425 8.232125 13.089079C8.322516 13.08906 8.416776 13.089041 8.515068 13.089041C8.601562 13.089041 8.684793 13.089051 8.764885 13.089062H8.765057C10.50477 13.08929 10.763904 13.089324 10.835974 12.973225C10.851697 12.947895 10.858516 12.917039 10.869863 12.879452C10.910959 12.760274 10.820548 12.575342 10.70137 12.517808ZM10.70548 9.743835C10.668493 9.731507 9.657535 9.719178 8.461644 9.719178C6.341096 9.719178 6.283562 9.723288 6.20548 9.80137C6.123288 9.883562 6.094521 10.105479 6.156164 10.19589C6.242466 10.327397 6.369863 10.335616 8.506849 10.335616L8.625311 10.335619H8.625511C10.457473 10.335675 10.75278 10.335685 10.832384 10.204646C10.848833 10.177571 10.856071 10.1449 10.865753 10.105479C10.894521 9.990411 10.80411 9.780822 10.70548 9.743835ZM15.349315 8.29726C15.349315 8.186301 15.336987 8.178082 15.164384 8.165753C14.773973 8.145205 14.20274 8.560274 13.99726 9.016438C13.869863 9.30411 13.812328 9.727397 13.890411 9.821918C13.943835 9.887671 14.079453 9.90411 14.112329 9.850685C14.124658 9.830137 14.141096 9.764383 14.153424 9.69863C14.264383 9.094521 14.387671 8.860274 14.704109 8.654795C14.810959 8.584931 15 8.50274 15.123287 8.473972C15.332877 8.420547 15.349315 8.40411 15.349315 8.29726Z"/></svg>
