<svg width="24" height="24" viewBox="0 0 24 24" fill="none" xmlns="http://www.w3.org/2000/svg">
<path fill-rule="evenodd" clip-rule="evenodd" d="M12.227,19.353 L12.111,19.248 L12.000,19.137 L11.889,19.248 L11.773,19.353 L11.650,19.450 L11.522,19.541 L11.389,19.624 L11.250,19.700 L11.107,19.768 L10.960,19.828 L10.809,19.879 L10.653,19.922 L10.495,19.956 L10.333,19.980 L10.168,19.995 L10.000,20.000 L3.750,20.000 L3.546,19.988 L3.349,19.954 L3.160,19.898 L2.980,19.822 L2.812,19.728 L2.655,19.616 L2.513,19.487 L2.384,19.345 L2.272,19.188 L2.178,19.020 L2.102,18.840 L2.046,18.651 L2.012,18.454 L2.000,18.250 L2.000,5.750 L2.012,5.546 L2.046,5.349 L2.102,5.160 L2.178,4.980 L2.272,4.812 L2.384,4.655 L2.513,4.513 L2.655,4.384 L2.812,4.272 L2.980,4.178 L3.160,4.102 L3.349,4.046 L3.546,4.012 L3.750,4.000 L10.000,4.000 L10.168,4.005 L10.333,4.020 L10.495,4.044 L10.653,4.078 L10.809,4.121 L10.960,4.172 L11.107,4.232 L11.250,4.300 L11.389,4.376 L11.522,4.459 L11.650,4.550 L11.773,4.648 L11.889,4.752 L12.000,4.863 L12.111,4.752 L12.227,4.648 L12.350,4.550 L12.478,4.459 L12.611,4.376 L12.750,4.300 L12.893,4.232 L13.040,4.172 L13.191,4.121 L13.347,4.078 L13.505,4.044 L13.667,4.020 L13.832,4.005 L14.000,4.000 L20.250,4.000 L20.454,4.012 L20.651,4.046 L20.840,4.102 L21.020,4.178 L21.188,4.272 L21.345,4.384 L21.487,4.513 L21.616,4.655 L21.728,4.812 L21.822,4.980 L21.898,5.160 L21.954,5.349 L21.988,5.546 L22.000,5.750 L22.000,18.250 L21.988,18.454 L21.954,18.651 L21.898,18.840 L21.822,19.020 L21.728,19.188 L21.616,19.345 L21.487,19.487 L21.345,19.616 L21.188,19.728 L21.020,19.822 L20.840,19.898 L20.651,19.954 L20.454,19.988 L20.250,20.000 L14.000,20.000 L13.832,19.995 L13.667,19.980 L13.505,19.956 L13.347,19.922 L13.191,19.879 L13.040,19.828 L12.893,19.768 L12.750,19.700 L12.611,19.624 L12.478,19.541 L12.350,19.450 Z M12.758,6.604 L12.750,6.750 L12.750,8.625 L14.500,8.625 L14.598,8.631 L14.695,8.647 L14.789,8.674 L14.880,8.712 L14.966,8.759 L15.046,8.816 L15.119,8.881 L15.184,8.954 L15.241,9.034 L15.288,9.120 L15.326,9.211 L15.353,9.305 L15.369,9.402 L15.375,9.500 L15.375,14.500 L15.369,14.598 L15.353,14.695 L15.326,14.789 L15.288,14.880 L15.241,14.966 L15.184,15.046 L15.119,15.119 L15.046,15.184 L14.966,15.241 L14.880,15.288 L14.789,15.326 L14.695,15.353 L14.598,15.369 L14.500,15.375 L12.750,15.375 L12.750,17.250 L12.758,17.396 L12.783,17.537 L12.823,17.672 L12.877,17.800 L12.945,17.920 L13.025,18.032 L13.116,18.134 L13.218,18.225 L13.330,18.305 L13.450,18.373 L13.578,18.427 L13.713,18.467 L13.854,18.492 L14.000,18.500 L20.250,18.500 L20.279,18.498 L20.307,18.493 L20.334,18.485 L20.360,18.475 L20.384,18.461 L20.406,18.445 L20.427,18.427 L20.445,18.406 L20.461,18.384 L20.475,18.360 L20.485,18.334 L20.493,18.307 L20.498,18.279 L20.500,18.250 L20.500,5.750 L20.498,5.721 L20.493,5.693 L20.485,5.666 L20.475,5.640 L20.461,5.616 L20.445,5.594 L20.427,5.573 L20.406,5.555 L20.384,5.539 L20.360,5.525 L20.334,5.515 L20.307,5.507 L20.279,5.502 L20.250,5.500 L14.000,5.500 L13.854,5.508 L13.713,5.533 L13.578,5.573 L13.450,5.627 L13.330,5.695 L13.218,5.775 L13.116,5.866 L13.025,5.968 L12.945,6.080 L12.877,6.200 L12.823,6.328 L12.783,6.463 Z M14.500,9.375 L9.500,9.375 L9.486,9.376 L9.472,9.378 L9.459,9.382 L9.446,9.387 L9.433,9.394 L9.422,9.402 L9.412,9.412 L9.402,9.422 L9.394,9.433 L9.387,9.446 L9.382,9.459 L9.378,9.472 L9.376,9.486 L9.375,9.500 L9.375,14.500 L9.376,14.514 L9.378,14.528 L9.382,14.541 L9.387,14.554 L9.394,14.567 L9.402,14.578 L9.412,14.588 L9.422,14.598 L9.433,14.606 L9.446,14.613 L9.459,14.618 L9.472,14.622 L9.486,14.624 L9.500,14.625 L14.500,14.625 L14.514,14.624 L14.528,14.622 L14.541,14.618 L14.554,14.613 L14.567,14.606 L14.578,14.598 L14.588,14.588 L14.598,14.578 L14.606,14.567 L14.613,14.554 L14.618,14.541 L14.622,14.528 L14.624,14.514 L14.625,14.500 L14.625,9.500 L14.624,9.486 L14.622,9.472 L14.618,9.459 L14.613,9.446 L14.606,9.433 L14.598,9.422 L14.588,9.412 L14.578,9.402 L14.567,9.394 L14.554,9.387 L14.541,9.382 L14.528,9.378 L14.514,9.376 Z M11.242,17.396 L11.250,17.250 L11.250,15.375 L9.500,15.375 L9.402,15.369 L9.305,15.353 L9.211,15.326 L9.120,15.288 L9.034,15.241 L8.954,15.184 L8.881,15.119 L8.816,15.046 L8.759,14.966 L8.712,14.880 L8.674,14.789 L8.647,14.695 L8.631,14.598 L8.625,14.500 L8.625,9.500 L8.631,9.402 L8.647,9.305 L8.674,9.211 L8.712,9.120 L8.759,9.034 L8.816,8.954 L8.881,8.881 L8.954,8.816 L9.034,8.759 L9.120,8.712 L9.211,8.674 L9.305,8.647 L9.402,8.631 L9.500,8.625 L11.250,8.625 L11.250,6.750 L11.242,6.604 L11.217,6.463 L11.177,6.328 L11.123,6.200 L11.055,6.080 L10.975,5.968 L10.884,5.866 L10.782,5.775 L10.670,5.695 L10.550,5.627 L10.422,5.573 L10.287,5.533 L10.146,5.508 L10.000,5.500 L3.750,5.500 L3.721,5.502 L3.693,5.507 L3.666,5.515 L3.640,5.525 L3.616,5.539 L3.594,5.555 L3.573,5.573 L3.555,5.594 L3.539,5.616 L3.525,5.640 L3.515,5.666 L3.507,5.693 L3.502,5.721 L3.500,5.750 L3.500,18.250 L3.502,18.279 L3.507,18.307 L3.515,18.334 L3.525,18.360 L3.539,18.384 L3.555,18.406 L3.573,18.427 L3.594,18.445 L3.616,18.461 L3.640,18.475 L3.666,18.485 L3.693,18.493 L3.721,18.498 L3.750,18.500 L10.000,18.500 L10.146,18.492 L10.287,18.467 L10.422,18.427 L10.550,18.373 L10.670,18.305 L10.782,18.225 L10.884,18.134 L10.975,18.032 L11.055,17.920 L11.123,17.800 L11.177,17.672 L11.217,17.537 Z" fill="#212121"/>
</svg>
