<svg xmlns="http://www.w3.org/2000/svg" width="24" height="24" viewBox="0 0 24 24"><path d="M5.926619 3.522302C5.551079 3.638849 5.071942 4.178417 5.071942 4.489209C5.071942 4.558273 5.054676 4.627338 5.028777 4.640288C4.959712 4.683453 4.968345 17.991367 5.041727 18.142446C5.093525 18.254676 5.192806 18.315108 5.425899 18.36259C5.494964 18.379856 5.568345 18.435971 5.602878 18.509353C5.697842 18.699281 5.77554 19.105036 5.745324 19.234532C5.728058 19.303597 5.702158 19.415827 5.689209 19.489209C5.646043 19.709353 5.520863 19.847482 5.330935 19.877698C5.05036 19.92518 4.916547 20.141007 5.033094 20.361151C5.16259 20.602878 4.795683 20.589928 11.641727 20.589928C16.774101 20.589928 17.995683 20.576978 18.172662 20.529496C18.643165 20.404317 18.936691 20.179856 19.169784 19.761151L19.294964 19.532374L19.294964 4.42446L19.204317 4.230216C19.083453 3.984173 18.867626 3.755396 18.595683 3.595683L18.388489 3.47482L12.258993 3.466187C7.014388 3.461871 6.099281 3.466187 5.926619 3.522302ZM17.136691 4.182734C17.17554 4.247482 17.16259 17.581295 17.123741 17.620144C17.080576 17.663309 5.801439 17.667626 5.753957 17.620144C5.736691 17.602878 5.719424 14.654676 5.719424 11.076259C5.715108 4.648921 5.719424 4.566906 5.801439 4.428777C5.883453 4.299281 5.982734 4.230216 6.151079 4.174101C6.276259 4.130935 17.110791 4.143885 17.136691 4.182734ZM18.233094 4.191367C18.315108 4.221583 18.423022 4.316547 18.496403 4.42446L18.625899 4.614388L18.625899 17.784173L18.530935 17.779856C18.47482 17.779856 18.306475 17.745324 18.151079 17.706475L17.870504 17.633094L17.857554 10.886331L17.848921 4.143885L17.969784 4.143885C18.038849 4.143885 18.155396 4.165468 18.233094 4.191367ZM18.176978 18.427338C18.716547 18.673381 18.781295 19.43741 18.289209 19.769784L18.129496 19.877698L12.280576 19.886331C8.883453 19.894964 6.405755 19.882014 6.371223 19.860432C6.319424 19.825899 6.315108 19.78705 6.36259 19.588489C6.418705 19.359712 6.410072 18.794245 6.345324 18.483453L6.315108 18.345324L12.155396 18.345324C17.779856 18.345324 18.008633 18.34964 18.176978 18.427338ZM8.443165 5.352518C8.05036 5.494964 7.756835 5.732374 7.579856 6.056115C7.528058 6.146763 7.489209 6.254676 7.489209 6.302158C7.489209 6.345324 7.471942 6.397122 7.446043 6.410072C7.389928 6.444604 7.385612 12.228777 7.441727 12.336691C7.463309 12.37554 7.515108 12.483453 7.558273 12.574101C7.653237 12.764029 7.968345 13.083453 8.179856 13.195683C8.520863 13.381295 8.589928 13.385612 11.52518 13.372662L14.330935 13.359712L14.572662 13.243165C14.870504 13.096403 15.185612 12.789928 15.336691 12.500719L15.453237 12.280576L15.453237 6.366906L15.315108 6.103597C15.189928 5.861871 14.969784 5.620144 14.732374 5.464748C14.438849 5.270504 14.348201 5.266187 11.438849 5.266187C8.810072 5.270504 8.663309 5.27482 8.443165 5.352518Z"/></svg>
