<svg xmlns="http://www.w3.org/2000/svg" width="24" height="24" viewBox="0 0 24 24"><path d="M12 17.5C9.5 16.197333 6 16.197333 3 16.802666L3 6.802666C6 6.197333 9.5 6.197333 12 7.5"/><path d="M7.734666 5.682667C6.093333 5.588 4.406667 5.754667 2.854667 6.062667C2.5 6.136 2.250667 6.442667 2.250667 6.802666L2.250667 16.802666C2.250667 17.270666 2.682667 17.625333 3.145333 17.536C6.036 16.958666 9.406666 17 11.656 18.166666C12.021333 18.36 12.473333 18.213333 12.666666 17.844C12.86 17.478666 12.713333 17.026666 12.344 16.833333C9.844 15.530666 6.650667 15.530666 3.749333 15.994666L3.749333 7.489333C6.5 7.030666 9.557333 7.078666 11.656 8.166666C12.021333 8.36 12.473333 8.213333 12.666666 7.844C12.86 7.478666 12.713333 7.026666 12.344 6.833333C10.969333 6.12 9.374666 5.770667 7.734666 5.682667Z"/><path d="M12 17.5C14.5 16.197333 18 16.197333 20.999999 16.802666L20.999999 6.802666C18 6.197333 14.5 6.197333 12 7.5"/><path d="M16.265333 5.682667C14.625333 5.770667 13.030666 6.12 11.656 6.833333C11.286666 7.026666 11.14 7.478666 11.333333 7.844C11.526666 8.213333 11.978666 8.36 12.344 8.166666C14.442666 7.078666 17.5 7.030666 20.250666 7.489333L20.250666 15.994666C17.349333 15.530666 14.156 15.530666 11.656 16.833333C11.286666 17.026666 11.14 17.478666 11.333333 17.844C11.526666 18.213333 11.978666 18.36 12.344 18.166666C14.593333 17 17.964 16.958666 20.854666 17.536C21.317333 17.625333 21.749333 17.270666 21.749333 16.802666L21.749333 6.802666C21.749333 6.442667 21.499999 6.136 21.145333 6.062667C19.593333 5.754667 17.906666 5.588 16.265333 5.682667Z"/><path d="M11.250666 7.5L12.750666 7.5L12.750666 17.5L11.250666 17.5Z"/></svg>
