<svg xmlns="http://www.w3.org/2000/svg" width="24" height="24" viewBox="0 0 24 24"><path d="M12 17.5C9.5 16.197333 6 16.197333 3 16.802666L3 6.802666C6 6.197333 9.5 6.197333 12 7.5"/><path d="M12 17.5C14.5 16.197333 18 16.197333 20.999999 16.802666L20.999999 6.802666C18 6.197333 14.5 6.197333 12 7.5"/><path d="M12 7.5L12 17.5"/><path d="M5.5 9L9.5 9"/><path d="M5.5 11.5L9.5 11.5"/><path d="M5.5 14L9.5 14"/><path d="M14.5 9L18.5 9"/><path d="M14.5 11.5L18.5 11.5"/><path d="M14.5 14L18.5 14"/></svg>
