<svg xmlns="http://www.w3.org/2000/svg" width="24" height="24" viewBox="0 0 24 24">
  <!-- נתיב הספר המקורי (קו מתאר שחור) - fill=none כדי למנוע חפיפה -->
  <path d="M 17.5,2 C 18.88,2 20,3.12 20,4.5 L 20,19.5 C 20,20.879999 18.88,21.999999 17.5,21.999999 L 4.250667,21.999999 C 3.833333,21.999999 3.5,21.666666 3.5,21.250666 C 3.5,20.833333 3.833333,20.499999 4.250667,20.499999 L 17.5,20.499999 C 18.052,20.499999 18.5,20.051999 18.5,19.5 L 4.250667,19.5 C 3.833333,19.5 3.5,19.166666 3.5,18.749333 L 3.5,4.5 C 3.5,3.12 4.62,2 6,2 Z M 18.5,4.5 C 18.5,3.948 18.052,3.5 17.5,3.5 L 6,3.5 C 5.448,3.5 5,3.948 5,4.5 L 5,18 L 18.5,18 Z" fill="black"/>
  
  <!-- נתיב למילוי הרקע השחור בתוך גוף הספר - מורחב מעט stroke כדי למנוע את הקו הלבן -->
  <path d="M5 4.5C5 3.948 5.448 3.5 6 3.5L17.5 3.5C18.052 3.5 18.5 3.948 18.5 4.5L18.5 18L5 18Z" fill="black"/>

  <!-- נתיב האות א' - מוגדל (קנה מידה 0.022), מיושר, ממוקם במרכז, וצבע לבן -->
  <path d="M 8.654,4.9838 c -0.0176,0.011 -0.0616,0.033 -0.0968,0.0484 c -0.0946,0.044 -0.2398,0.1936 -0.3652,0.3718 c -0.0286,0.0418 -0.0594,0.0814 -0.066,0.088 c -0.0286,0.022 -0.1474,0.2112 -0.1782,0.2794 c -0.0176,0.0396 -0.0374,0.0726 -0.0462,0.0726 c -0.011,0 -0.0176,0.0198 -0.0176,0.044 s -0.0088,0.044 -0.022,0.044 c -0.011,0 -0.022,0.0198 -0.022,0.044 s -0.0088,0.044 -0.022,0.044 c -0.011,0 -0.022,0.0154 -0.022,0.033 c 0,0.0198 -0.0198,0.077 -0.044,0.1254 c -0.0242,0.0506 -0.044,0.1078 -0.044,0.1276 s -0.0088,0.044 -0.0198,0.055 c -0.011,0.0132 -0.0264,0.077 -0.033,0.143 c -0.0396,0.3542 -0.0572,0.5236 -0.0594,0.572 c -0.0022,0.1232 0.0308,0.4202 0.0484,0.4312 c 0.011,0.0066 0.0198,0.0506 0.0198,0.0968 s 0.011,0.0924 0.022,0.099 c 0.0132,0.0066 0.022,0.033 0.022,0.0572 c 0,0.022 0.0176,0.0836 0.0418,0.1364 c 0.022,0.0506 0.055,0.1276 0.0704,0.1694 c 0.11,0.2904 0.2948,0.5104 1.2672,1.496 c 0.209,0.2134 0.3806,0.396 0.3806,0.407 c 0,0.0264 -0.099,0.143 -0.1188,0.143 c -0.0682,0 -0.726,0.6116 -0.8492,0.792 c -0.0308,0.0418 -0.0704,0.0968 -0.0924,0.1188 c -0.022,0.0242 -0.0396,0.0572 -0.0396,0.0726 s -0.0088,0.0286 -0.0176,0.0286 s -0.0352,0.0286 -0.055,0.066 c -0.022,0.0352 -0.0506,0.077 -0.066,0.0946 c -0.0286,0.0308 -0.0682,0.0946 -0.1342,0.2244 c -0.0264,0.0484 -0.0506,0.0924 -0.0572,0.099 c -0.0264,0.0264 -0.066,0.1122 -0.066,0.143 c 0,0.0176 -0.0088,0.033 -0.022,0.033 c -0.011,0 -0.022,0.0154 -0.022,0.033 s -0.011,0.055 -0.0264,0.0836 c -0.0528,0.1056 -0.0616,0.1254 -0.0616,0.1672 c 0,0.0242 -0.0088,0.0506 -0.022,0.0572 c -0.011,0.0066 -0.022,0.0374 -0.022,0.066 s -0.0088,0.0572 -0.0198,0.0638 s -0.0242,0.044 -0.0308,0.0836 c -0.0088,0.0396 -0.0242,0.1276 -0.0396,0.1936 c -0.0352,0.1606 -0.0506,1.078 -0.0198,1.1088 c 0.011,0.011 0.022,0.0638 0.022,0.1144 c 0,0.0528 0.0088,0.099 0.0198,0.1056 s 0.0242,0.0506 0.033,0.0946 c 0.0286,0.1936 0.0418,0.2486 0.0594,0.2618 c 0.011,0.0066 0.0198,0.0396 0.0198,0.077 c 0,0.0352 0.0088,0.0814 0.0198,0.1034 c 0.011,0.0198 0.0308,0.077 0.044,0.1254 c 0.0154,0.0484 0.0352,0.1078 0.0462,0.132 c 0.0088,0.0242 0.0264,0.0836 0.0396,0.132 c 0.055,0.209 0.077,0.2882 0.0946,0.33 c 0.044,0.1078 0.0748,0.4488 0.044,0.4796 c -0.0132,0.0132 -0.0242,0.0418 -0.0242,0.0638 c 0,0.0418 -0.0726,0.1826 -0.1166,0.2244 c -0.022,0.022 -0.0946,0.0638 -0.2618,0.1474 c -0.022,0.011 -0.0726,0.0198 -0.1144,0.0198 c -0.1584,0 -0.3432,0.1672 -0.3432,0.3102 c 0,0.0616 0.0506,0.1518 0.121,0.2178 l 0.0594,0.055 l 1.5312,0.0066 l 1.5312,0.0044 l 0.1166,-0.077 c 0.1056,-0.0704 0.1276,-0.099 0.2354,-0.3256 c 0.1738,-0.3542 0.2002,-0.4664 0.198,-0.8514 c 0,-0.3124 -0.0022,-0.3234 -0.0836,-0.5676 c -0.1012,-0.297 -0.2376,-0.5324 -0.4576,-0.7898 c -0.3762,-0.44 -0.7502,-0.9086 -0.8998,-1.1286 c -0.2332,-0.341 -0.2926,-0.8734 -0.154,-1.4058 c 0.0264,-0.1012 0.0748,-0.2354 0.1056,-0.297 c 0.0506,-0.1012 0.3102,-0.4708 0.4246,-0.605 l 0.044,-0.0506 l 0.1166,0.099 c 0.0616,0.055 1.1198,1.1022 2.3496,2.3276 C 14.6072,15.0708 14.748,15.216 14.8492,15.392 c 0.1034,0.1782 0.1848,0.341 0.2332,0.462 c 0.0132,0.0308 0.0308,0.0726 0.0418,0.0924 c 0.011,0.022 0.0198,0.0594 0.0198,0.0814 c 0,0.0242 0.0088,0.0484 0.0198,0.055 c 0.0242,0.0154 0.0462,0.1386 0.0594,0.3322 c 0.0198,0.3058 0.1364,0.451 0.3608,0.451 c 0.1122,0 0.1716,-0.033 0.3564,-0.1892 c 0.3168,-0.275 0.5984,-0.7282 0.7106,-1.1528 c 0.1782,-0.671 0.1078,-1.32 -0.2112,-1.9382 c -0.1232,-0.242 -0.1694,-0.2948 -0.8448,-0.9878 c -1.0956,-1.1242 -0.99,-1.0054 -1.0428,-1.1792 c -0.0616,-0.2112 -0.0638,-0.6468 -0.0044,-0.8888 c 0.0858,-0.3366 0.2882,-0.7326 0.5654,-1.1 c 0.2266,-0.3014 0.3498,-0.3586 0.4818,-0.2244 c 0.088,0.0858 0.121,0.1892 0.121,0.3674 c 0,0.154 0.0022,0.1628 0.0748,0.2244 c 0.0396,0.0374 0.1188,0.077 0.176,0.0924 c 0.1958,0.0484 0.3454,-0.066 0.5632,-0.4356 c 0.2882,-0.484 0.4048,-1.0208 0.3278,-1.4982 c -0.0352,-0.2266 -0.1606,-0.5566 -0.2706,-0.7238 c -0.1056,-0.1584 -0.2882,-0.341 -0.4554,-0.4532 c -0.0528,-0.0352 -0.1012,-0.0726 -0.1078,-0.0814 c -0.022,-0.0286 -0.627,-0.3256 -0.6644,-0.3256 c -0.022,0 -0.0396,-0.011 -0.0396,-0.022 c 0,-0.0132 -0.0154,-0.022 -0.033,-0.022 s -0.0814,-0.022 -0.1386,-0.0484 c -0.4048,-0.187 -0.7084,-0.5566 -0.7084,-0.8624 c 0,-0.1628 -0.0374,-0.286 -0.1056,-0.3542 c -0.0462,-0.0462 -0.0748,-0.055 -0.1936,-0.055 c -0.0792,0 -0.1408,0.0088 -0.1408,0.022 c 0,0.011 -0.0132,0.022 -0.0286,0.022 c -0.0418,0 -0.4114,0.3916 -0.4114,0.4356 c 0,0.0088 -0.0242,0.044 -0.055,0.0792 s -0.055,0.0704 -0.055,0.0792 s -0.0242,0.044 -0.055,0.0792 s -0.055,0.077 -0.055,0.0902 c 0,0.0154 -0.0066,0.0286 -0.0176,0.0286 c -0.0154,0 -0.0418,0.0528 -0.0924,0.198 c -0.0154,0.0418 -0.0462,0.1188 -0.0682,0.1694 c -0.0242,0.0528 -0.0418,0.1122 -0.0418,0.1342 s -0.0088,0.0484 -0.0198,0.0594 c -0.0704,0.0748 -0.0704,0.9262 0,0.9702 c 0.011,0.0066 0.0198,0.0308 0.0198,0.0528 c 0,0.0528 0.1364,0.297 0.198,0.352 c 0.0066,0.0066 0.0462,0.055 0.088,0.11 c 0.2398,0.3124 0.5412,0.5236 1.056,0.737 c 0.2464,0.1012 0.2486,0.121 0.033,0.3476 c -0.0792,0.0836 -0.143,0.165 -0.143,0.1826 s -0.0088,0.0308 -0.022,0.0308 c -0.011,0 -0.022,0.0132 -0.022,0.0286 s -0.0176,0.0484 -0.0374,0.0726 c -0.0484,0.055 -0.099,0.1386 -0.176,0.2948 c -0.033,0.066 -0.0682,0.1232 -0.077,0.1276 s -0.0176,0.0264 -0.0176,0.0484 s -0.0088,0.0484 -0.022,0.055 c -0.011,0.0066 -0.022,0.0374 -0.022,0.0682 c 0,0.0286 -0.0088,0.0528 -0.022,0.0528 c -0.011,0 -0.022,0.0198 -0.022,0.0418 c 0,0.0242 -0.022,0.0858 -0.0462,0.1386 c -0.0814,0.1606 -0.077,0.1518 -0.1232,0.407 c -0.0066,0.0396 -0.0198,0.0726 -0.0286,0.0726 c -0.011,0 -0.022,0.0154 -0.0264,0.0352 c -0.0066,0.0374 -4.048,-3.993 -4.1844,-4.1734 c -0.1364,-0.1826 -0.2992,-0.5742 -0.3454,-0.8426 c -0.022,-0.1298 -0.0418,-0.2772 -0.0418,-0.3278 c 0,-0.1056 -0.0638,-0.2156 -0.1474,-0.2552 c -0.033,-0.0154 -0.0792,-0.0374 -0.099,-0.0484 c -0.0484,-0.0242 -0.1716,-0.0242 -0.2156,0" fill="white"/>
</svg>
