<svg xmlns="http://www.w3.org/2000/svg" width="24" height="24" viewBox="0 0 24 24"><path d="M7.734666 5.682667C9.239609 5.76342 10.706378 6.064236 12.000002 6.664448C13.293622 6.064236 14.76039 5.76342 16.265333 5.682667C17.906666 5.588 19.593332 5.754667 21.145332 6.062667C21.499998 6.136 21.749332 6.442667 21.749332 6.802666V15.977437C21.749777 15.992475 21.749777 16.007524 21.749332 16.022562V16.802666C21.749332 17.270666 21.317333 17.625334 20.854666 17.535999C17.971045 16.960073 14.609759 16.999804 12.360465 18.158157C12.340216 18.169353 12.3195 18.179594 12.298393 18.188854C12.102769 18.275909 11.887103 18.270226 11.70166 18.188879C11.680531 18.179609 11.659793 18.169357 11.639522 18.15815C9.390226 16.999802 6.028949 16.960073 3.145333 17.535999C2.682667 17.625334 2.250667 17.270666 2.250667 16.802666V6.802666C2.250667 6.442667 2.5 6.136 2.854667 6.062667C4.406667 5.754667 6.093333 5.588 7.734666 5.682667ZM11.250666 7.974329C9.175532 7.074641 6.327707 7.059395 3.749333 7.489333V15.994666C6.242575 15.595931 8.95145 15.539846 11.250666 16.358629V7.974329ZM16.5 9.250666C15.250666 9.250666 14.250666 10.250666 14.250666 11.5C14.250666 12.749333 15.250666 13.749333 16.5 13.749333C17.055084 13.749333 17.560947 13.551928 17.951752 13.222955C17.983253 13.16947 18.022005 13.119119 18.068001 13.073333C18.114891 13.02421 18.167763 12.982865 18.224762 12.949601C18.552649 12.559093 18.749332 12.054066 18.749332 11.5C18.749332 10.250666 17.749332 9.250666 16.5 9.250666ZM16.5 7.749333C18.562666 7.749333 20.250666 9.437333 20.250666 11.5C20.250666 12.262315 20.020105 12.973455 19.625282 13.567124L20.250666 14.191465V7.489333C17.672844 7.059487 14.825685 7.074634 12.750666 7.973752V11.399721C12.804307 9.382905 14.47086 7.749333 16.5 7.749333ZM5.5 10.749333H9.5C9.917333 10.749333 10.250666 11.082666 10.250666 11.5C10.250666 11.917333 9.917333 12.250666 9.5 12.250666H5.5C5.082667 12.250666 4.749333 11.917333 4.749333 11.5C4.749333 11.082666 5.082667 10.749333 5.5 10.749333ZM5.5 8.250666H9.5C9.917333 8.250666 10.250666 8.584 10.250666 9C10.250666 9.416 9.917333 9.749333 9.5 9.749333H5.5C5.082667 9.749333 4.749333 9.416 4.749333 9C4.749333 8.584 5.082667 8.250666 5.5 8.250666ZM5.5 13.250666H9.5C9.917333 13.250666 10.250666 13.584 10.250666 14C10.250666 14.416 9.917333 14.749333 9.5 14.749333H5.5C5.082667 14.749333 4.749333 14.416 4.749333 14C4.749333 13.584 5.082667 13.250666 5.5 13.250666ZM12.750666 16.358156C14.934873 15.580704 17.488621 15.592583 19.875946 15.937609L18.564583 14.626972C17.971426 15.020763 17.261227 15.250666 16.5 15.250666C14.47086 15.250666 12.804307 13.617094 12.750666 11.600279V16.358156Z"/></svg>
