<svg xmlns="http://www.w3.org/2000/svg" width="24" height="24" viewBox="0 0 24 24"><path d="M2.88 5.16H4.68V3.84C4.68 3.55008 4.88736 3.30112 5.17248 3.24992C5.86624 3.12384 6.55616 3.06368 7.23136 3.0864C9.021206 3.144986 10.696654 3.778309 12.000001 5.267986C13.303346 3.778309 14.978794 3.144986 16.768641 3.0864C17.44384 3.06368 18.13376 3.12384 18.82752 3.24992C19.11264 3.30112 19.32 3.55008 19.32 3.84V5.16H21.119999C21.451199 5.16 21.719999 5.4288 21.719999 5.76V21.119999C21.719999 21.451199 21.451199 21.719999 21.119999 21.719999H2.88C2.5488 21.719999 2.28 21.451199 2.28 21.119999V5.76C2.28 5.4288 2.5488 5.16 2.88 5.16ZM16.81632 4.26368C15.15488 4.2864 13.7424 4.89984 12.6 6.44992V18.53376C14.15264 17.6224 16.07616 17.338881 18.120001 17.583679V4.38496C18.090618 4.380914 18.061224 4.376845 18.031832 4.372777C17.617239 4.315386 17.202688 4.258002 16.81632 4.26368ZM7.18368 4.26368C6.797314 4.258002 6.382766 4.315386 5.968173 4.372776C5.938779 4.376845 5.909385 4.380914 5.88 4.38496V17.583679C7.92384 17.338881 9.84736 17.6224 11.4 18.53376V6.44992C10.2576 4.89984 8.84512 4.2864 7.18368 4.26368ZM11.4 20.519999V19.963905C9.894197 18.796204 7.781605 18.394403 5.38752 18.83008C5.01888 18.8976 4.68 18.61376 4.68 18.24V6.36H3.48V20.519999H11.4ZM19.32 6.36V18.24C19.32 18.61376 18.981119 18.8976 18.61248 18.83008C16.218395 18.394403 14.105803 18.796204 12.6 19.963905V20.519999H20.519999V6.36H19.32Z"/></svg>
