<svg xmlns="http://www.w3.org/2000/svg" width="24" height="24" viewBox="0 0 24 24"><path d="M7.734666 5.682667C9.239609 5.76342 10.706378 6.064236 12.000002 6.664448C13.293622 6.064236 14.76039 5.76342 16.265333 5.682667C17.906666 5.588 19.593332 5.754667 21.145332 6.062667C21.499998 6.136 21.749332 6.442667 21.749332 6.802666V16.802666C21.749332 17.270666 21.317333 17.625334 20.854666 17.535999C17.971045 16.960073 14.609759 16.999804 12.360465 18.158157C12.340216 18.169353 12.3195 18.179594 12.298393 18.188854C12.102769 18.275909 11.887103 18.270226 11.70166 18.188879C11.680531 18.179609 11.659793 18.169357 11.639522 18.15815C9.390226 16.999802 6.028949 16.960073 3.145333 17.535999C2.682667 17.625334 2.250667 17.270666 2.250667 16.802666V6.802666C2.250667 6.442667 2.5 6.136 2.854667 6.062667C4.406667 5.754667 6.093333 5.588 7.734666 5.682667ZM11.250666 7.974329C9.175532 7.074641 6.327707 7.059395 3.749333 7.489333V15.994666C6.242575 15.595931 8.95145 15.539846 11.250666 16.358629V7.974329ZM12.750666 16.358156C15.049596 15.539868 17.757906 15.596008 20.250666 15.994666V7.489333C17.672844 7.059487 14.825685 7.074634 12.750666 7.973752V16.358156ZM5.5 10.749333H9.5C9.917333 10.749333 10.250666 11.082666 10.250666 11.5C10.250666 11.917333 9.917333 12.250666 9.5 12.250666H5.5C5.082667 12.250666 4.749333 11.917333 4.749333 11.5C4.749333 11.082666 5.082667 10.749333 5.5 10.749333ZM14.5 10.749333H18.5C18.917334 10.749333 19.250666 11.082666 19.250666 11.5C19.250666 11.917333 18.917334 12.250666 18.5 12.250666H14.5C14.082666 12.250666 13.749333 11.917333 13.749333 11.5C13.749333 11.082666 14.082666 10.749333 14.5 10.749333ZM5.5 8.250666H9.5C9.917333 8.250666 10.250666 8.584 10.250666 9C10.250666 9.416 9.917333 9.749333 9.5 9.749333H5.5C5.082667 9.749333 4.749333 9.416 4.749333 9C4.749333 8.584 5.082667 8.250666 5.5 8.250666ZM5.5 13.250666H9.5C9.917333 13.250666 10.250666 13.584 10.250666 14C10.250666 14.416 9.917333 14.749333 9.5 14.749333H5.5C5.082667 14.749333 4.749333 14.416 4.749333 14C4.749333 13.584 5.082667 13.250666 5.5 13.250666ZM14.5 8.250666H18.5C18.917334 8.250666 19.250666 8.584 19.250666 9C19.250666 9.416 18.917334 9.749333 18.5 9.749333H14.5C14.082666 9.749333 13.749333 9.416 13.749333 9C13.749333 8.584 14.082666 8.250666 14.5 8.250666ZM14.5 13.250666H18.5C18.917334 13.250666 19.250666 13.584 19.250666 14C19.250666 14.416 18.917334 14.749333 18.5 14.749333H14.5C14.082666 14.749333 13.749333 14.416 13.749333 14C13.749333 13.584 14.082666 13.250666 14.5 13.250666Z"/></svg>
