<svg xmlns="http://www.w3.org/2000/svg" width="24" height="24" viewBox="0 0 24 24"><path fill-rule="evenodd" d="M17.5 2L6 2C4.619288 2 3.5 3.119288 3.5 4.5L3.5 18.75C3.5 19.164 3.836 19.5 4.25 19.5L18.5 19.5C18.5 20.052285 18.052285 20.5 17.5 20.5L4.25 20.5C3.835787 20.500001 3.5 20.835787 3.5 21.250001C3.5 21.664214 3.835787 22.000001 4.25 22.000001L17.5 22C18.880712 22 20 20.880712 20 19.5L20 4.5C20 3.119288 18.880712 2 17.5 2ZM9 9C7.343146 9 6 10.343146 6 12C6 13.656855 7.343146 15 9 15L11 15L11 13.5L9 13.5C8.171573 13.5 7.5 12.828427 7.5 12C7.5 11.171573 8.171573 10.5 9 10.5L11 10.5L11 9ZM15 9L13 9L13 10.5L15 10.5C15.828428 10.5 16.5 11.171573 16.5 12C16.5 12.828427 15.828428 13.5 15 13.5L13 13.5L13 15L15 15C16.656855 15 18 13.656855 18 12C18 10.343146 16.656855 9 15 9ZM11 11.5L13 11.5L13 12.5L11 12.5Z"/></svg>
