<svg width="24" height="24" viewBox="0 0 24 24" fill="none" xmlns="http://www.w3.org/2000/svg">
<path fill-rule="evenodd" clip-rule="evenodd" d="M3.541,4.053 L3.767,4.013 L4.000,4.000 L10.000,4.000 L10.164,4.004 L10.325,4.017 L10.484,4.039 L10.640,4.068 L10.793,4.106 L10.943,4.151 L11.089,4.204 L11.232,4.264 L11.371,4.331 L11.506,4.405 L11.636,4.485 L11.762,4.572 L11.884,4.665 L12.000,4.764 L12.116,4.665 L12.238,4.572 L12.364,4.485 L12.494,4.405 L12.629,4.331 L12.768,4.264 L12.911,4.204 L13.057,4.151 L13.207,4.106 L13.360,4.068 L13.516,4.039 L13.675,4.017 L13.836,4.004 L14.000,4.000 L20.000,4.000 L20.233,4.013 L20.459,4.053 L20.675,4.117 L20.880,4.203 L21.072,4.311 L21.251,4.439 L21.414,4.586 L21.561,4.749 L21.689,4.928 L21.797,5.120 L21.883,5.325 L21.947,5.541 L21.987,5.767 L22.000,6.000 L22.000,18.000 L21.987,18.233 L21.947,18.459 L21.883,18.675 L21.797,18.880 L21.689,19.072 L21.561,19.251 L21.414,19.414 L21.251,19.561 L21.072,19.689 L20.880,19.797 L20.675,19.883 L20.459,19.947 L20.233,19.987 L20.000,20.000 L14.000,20.000 L13.836,19.996 L13.675,19.983 L13.516,19.961 L13.360,19.932 L13.207,19.894 L13.057,19.849 L12.911,19.796 L12.768,19.736 L12.629,19.669 L12.494,19.595 L12.364,19.515 L12.238,19.428 L12.116,19.335 L12.000,19.236 L11.884,19.335 L11.762,19.428 L11.636,19.515 L11.506,19.595 L11.371,19.669 L11.232,19.736 L11.089,19.796 L10.943,19.849 L10.793,19.894 L10.640,19.932 L10.484,19.961 L10.325,19.983 L10.164,19.996 L10.000,20.000 L4.000,20.000 L3.767,19.987 L3.541,19.947 L3.325,19.883 L3.120,19.797 L2.928,19.689 L2.749,19.561 L2.586,19.414 L2.439,19.251 L2.311,19.072 L2.203,18.880 L2.117,18.675 L2.053,18.459 L2.013,18.233 L2.000,18.000 L2.000,6.000 L2.013,5.767 L2.053,5.541 L2.117,5.325 L2.203,5.120 L2.311,4.928 L2.439,4.749 L2.586,4.586 L2.749,4.439 L2.928,4.311 L3.120,4.203 L3.325,4.117 Z M14.500,15.750 L13.000,15.750 L13.000,17.000 L13.007,17.117 L13.026,17.229 L13.058,17.337 L13.102,17.440 L13.156,17.536 L13.220,17.625 L13.293,17.707 L13.375,17.780 L13.464,17.844 L13.560,17.898 L13.663,17.942 L13.771,17.974 L13.883,17.993 L14.000,18.000 L20.000,18.000 L20.000,6.000 L14.000,6.000 L13.883,6.007 L13.771,6.026 L13.663,6.058 L13.560,6.102 L13.464,6.156 L13.375,6.220 L13.293,6.293 L13.220,6.375 L13.156,6.464 L13.102,6.560 L13.058,6.663 L13.026,6.771 L13.007,6.883 L13.000,7.000 L13.000,8.250 L14.500,8.250 L14.640,8.258 L14.778,8.281 L14.913,8.320 L15.042,8.374 L15.165,8.442 L15.279,8.523 L15.384,8.616 L15.477,8.721 L15.558,8.835 L15.626,8.958 L15.680,9.087 L15.719,9.222 L15.742,9.360 L15.750,9.500 L15.750,14.500 L15.742,14.640 L15.719,14.778 L15.680,14.913 L15.626,15.042 L15.558,15.165 L15.477,15.279 L15.384,15.384 L15.279,15.477 L15.165,15.558 L15.042,15.626 L14.913,15.680 L14.778,15.719 L14.640,15.742 Z M9.750,9.750 L9.750,14.250 L14.250,14.250 L14.250,9.750 Z M9.500,8.250 L11.000,8.250 L11.000,7.000 L10.993,6.883 L10.974,6.771 L10.942,6.663 L10.898,6.560 L10.844,6.464 L10.780,6.375 L10.707,6.293 L10.625,6.220 L10.536,6.156 L10.440,6.102 L10.337,6.058 L10.229,6.026 L10.117,6.007 L10.000,6.000 L4.000,6.000 L4.000,18.000 L10.000,18.000 L10.117,17.993 L10.229,17.974 L10.337,17.942 L10.440,17.898 L10.536,17.844 L10.625,17.780 L10.707,17.707 L10.780,17.625 L10.844,17.536 L10.898,17.440 L10.942,17.337 L10.974,17.229 L10.993,17.117 L11.000,17.000 L11.000,15.750 L9.500,15.750 L9.360,15.742 L9.222,15.719 L9.087,15.680 L8.958,15.626 L8.835,15.558 L8.721,15.477 L8.616,15.384 L8.523,15.279 L8.442,15.165 L8.374,15.042 L8.320,14.913 L8.281,14.778 L8.258,14.640 L8.250,14.500 L8.250,9.500 L8.258,9.360 L8.281,9.222 L8.320,9.087 L8.374,8.958 L8.442,8.835 L8.523,8.721 L8.616,8.616 L8.721,8.523 L8.835,8.442 L8.958,8.374 L9.087,8.320 L9.222,8.281 L9.360,8.258 Z" fill="#212121"/>
</svg>
