<svg xmlns="http://www.w3.org/2000/svg" width="24" height="24" viewBox="0 0 24 24"><path d="M2.88 5.16C2.5488 5.16 2.28 5.4288 2.28 5.76L2.28 21.119999C2.28 21.451199 2.5488 21.719999 2.88 21.719999L21.119999 21.719999C21.451199 21.719999 21.719999 21.451199 21.719999 21.119999L21.719999 5.76C21.719999 5.4288 21.451199 5.16 21.119999 5.16L18.72 5.16C18.3888 5.16 18.12 5.4288 18.12 5.76C18.12 6.0912 18.3888 6.36 18.72 6.36L20.519999 6.36L20.519999 20.519999L3.48 20.519999L3.48 6.36L5.28 6.36C5.6112 6.36 5.88 6.0912 5.88 5.76C5.88 5.4288 5.6112 5.16 5.28 5.16Z"/><path d="M7.23136 3.0864C6.55616 3.06368 5.86624 3.12384 5.17248 3.24992C4.88736 3.30112 4.68 3.55008 4.68 3.84L4.68 18.24C4.68 18.61376 5.01888 18.8976 5.38752 18.83008C7.89504 18.37376 10.09376 18.83616 11.60992 20.135039C11.99872 20.468799 12.6 20.192639 12.6 19.68L12.6 6.24C12.6 6.11744 12.56256 5.99616 12.4912 5.89632C11.13248 3.9536 9.25504 3.15264 7.23136 3.0864ZM7.18368 4.26368C8.84512 4.2864 10.2576 4.89984 11.4 6.44992L11.4 18.53376C9.84736 17.6224 7.92384 17.33888 5.88 17.58368L5.88 4.38496C6.32384 4.32384 6.76992 4.2576 7.18368 4.26368Z"/><path d="M16.76864 3.0864C14.74496 3.15264 12.86752 3.9536 11.5088 5.89632C11.43744 5.99616 11.4 6.11744 11.4 6.24L11.4 19.68C11.4 20.192639 12.00128 20.468799 12.39008 20.135039C13.90624 18.83616 16.10496 18.37376 18.61248 18.83008C18.98112 18.8976 19.32 18.61376 19.32 18.24L19.32 3.84C19.32 3.55008 19.11264 3.30112 18.82752 3.24992C18.13376 3.12384 17.44384 3.06368 16.76864 3.0864ZM16.81632 4.26368C17.23008 4.2576 17.67616 4.32384 18.12 4.38496L18.12 17.58368C16.07616 17.33888 14.15264 17.6224 12.6 18.53376L12.6 6.44992C13.7424 4.89984 15.15488 4.2864 16.81632 4.26368Z"/><path d="M12 19.08C11.6688 19.08 11.4 19.3488 11.4 19.68L11.4 21.119999C11.4 21.451199 11.6688 21.719999 12 21.719999C12.3312 21.719999 12.6 21.451199 12.6 21.119999L12.6 19.68C12.6 19.3488 12.3312 19.08 12 19.08Z"/></svg>
