<svg xmlns="http://www.w3.org/2000/svg" width="24" height="24" viewBox="0 0 24 24"><path d="M20 4.5V19.5C20 20.879999 18.879999 21.999998 17.5 21.999998H4.250667C3.833333 21.999998 3.5 21.666666 3.5 21.250666C3.5 20.833332 3.833333 20.499998 4.250667 20.499998H17.5C18.052 20.499998 18.5 20.051998 18.5 19.5H4.250667C3.833333 19.5 3.5 19.166666 3.5 18.749332V4.5C3.5 3.12 4.62 2 6 2H17.5C18.879999 2 20 3.12 20 4.5ZM18.5 18V4.5C18.5 3.948 18.052 3.5 17.5 3.5H6C5.448 3.5 5 3.948 5 4.5V18ZM8.426666 15.109333 6.38 6.521333H8.150666L9.448 12.421333L11.021333 6.521333H13.082666L14.588 12.521333L15.906666 6.521333H17.650665L15.568 15.109333H13.724L12.016 8.688L10.306666 15.109333Z"/></svg>
