<svg xmlns="http://www.w3.org/2000/svg" width="24" height="24" viewBox="0 0 24 24"><path d="M20 4.5V19.5C20 20.879999 18.879999 21.999998 17.5 21.999998H4.250667C3.833333 21.999998 3.5 21.666666 3.5 21.250666C3.5 20.833332 3.833333 20.499998 4.250667 20.499998H17.5C18.052 20.499998 18.5 20.051998 18.5 19.5H4.250667C3.833333 19.5 3.5 19.166666 3.5 18.749332V4.5C3.5 3.12 4.62 2 6 2H17.5C18.879999 2 20 3.12 20 4.5ZM18.5 18V4.5C18.5 3.948 18.052 3.5 17.5 3.5H6C5.448 3.5 5 3.948 5 4.5V18ZM12.64 13.688V9.030666H14.046666L14.890666 12.208L15.724 9.030666H17.136V13.688H16.26V10.021333L15.338666 13.688H14.432L13.516 10.021333V13.688ZM6.473333 13.688V12.838666L8.917333 9.817333H6.749333V9.030666H10.156V9.76L7.609333 12.901333H10.254666V13.688ZM10.817333 13.688V9.030666H11.76V13.688Z"/></svg>
