<svg xmlns="http://www.w3.org/2000/svg" width="24" height="24" viewBox="0 0 24 24"><path fill-rule="evenodd" d="M17.5 2C18.88 2 20 3.12 20 4.5L20 19.5C20 20.879999 18.88 21.999999 17.5 21.999999L4.250667 21.999999C3.833333 21.999999 3.5 21.666666 3.5 21.250666C3.5 20.833333 3.833333 20.499999 4.250667 20.499999L17.5 20.499999C18.052 20.499999 18.5 20.051999 18.5 19.5L4.250667 19.5C3.833333 19.5 3.5 19.166666 3.5 18.749333L3.5 4.5C3.5 3.12 4.62 2 6 2ZM5.197333 14.073333L5.197333 13.030666L8.208 9.317333L5.541333 9.317333L5.541333 8.349333L9.729333 8.349333L9.729333 9.245333L6.593333 13.109333L9.854666 13.109333L9.854666 14.073333ZM10.546666 14.073333L10.546666 8.349333L11.702666 8.349333L11.702666 14.073333ZM12.792 14.073333L12.792 8.349333L14.521333 8.349333L15.557333 12.254666L16.584 8.349333L18.317333 8.349333L18.317333 14.073333L17.245333 14.073333L17.245333 9.568L16.109333 14.073333L14.994666 14.073333L13.864 9.568L13.864 14.073333Z"/></svg>
