<svg xmlns="http://www.w3.org/2000/svg" width="24" height="24" viewBox="0 0 24 24"><path d="M4.839419 3.32104 5.071419 3.11104 6.411419 3.15304C7.541419 3.18104 7.857419 3.21604 8.426419 3.36304C9.710419 3.70104 10.848419 4.34604 11.592419 5.16104L12.020419 5.63704L12.483419 5.14704C13.277419 4.31104 14.344419 3.70004 15.635419 3.36304C16.211418 3.21604 16.520418 3.18104 17.664419 3.15304L19.012419 3.11104L19.223419 3.32804C19.426418 3.52504 19.440418 3.58104 19.440418 4.03704V4.53604H19.89642C20.732418 4.53604 21.05542 4.81704 21.05542 5.53904V5.84904L21.630419 5.88404C22.178419 5.91904 22.206419 5.92604 22.438419 6.17104L22.669418 6.43104V13.10704C22.669418 13.44494 22.669462 13.766527 22.669506 14.072616V14.073028C22.670261 19.511038 22.670338 20.05637 22.406788 20.25923C22.363745 20.292362 22.313669 20.316357 22.255419 20.35104C22.06642 20.464041 21.68042 20.471041 17.727419 20.471041H13.410419L13.150419 20.647039C12.820419 20.87104 12.554419 20.91304 11.788419 20.87804C11.262419 20.85704 11.129419 20.822041 10.883419 20.661039L10.595419 20.471041H1.981419L1.743419 20.31004C1.610419 20.21804 1.469419 20.043039 1.420419 19.91004C1.300419 19.558041 1.300419 6.78204 1.420419 6.43804C1.553419 6.05204 1.799419 5.91904 2.452419 5.88404L3.013419 5.84904V5.45604C3.013419 4.79604 3.329419 4.53604 4.123419 4.53604H4.537419L4.572419 4.03104C4.607419 3.56704 4.628419 3.50404 4.839419 3.32104ZM7.331419 3.42004C6.987419 3.37804 6.362419 3.34204 5.955419 3.34204C5.309419 3.34204 5.183419 3.36304 5.021419 3.49004C4.853419 3.62304 4.839419 3.67204 4.839419 4.22704V4.81704H4.179419C3.547419 4.81704 3.505419 4.82404 3.371419 4.99904C3.252419 5.14604 3.224419 5.28604 3.224419 5.66604V6.15004H2.592419C2.010419 6.15004 1.939419 6.16504 1.785419 6.32504L1.610419 6.49504V13.13504C1.610419 17.557039 1.630419 19.825041 1.680419 19.91704C1.869419 20.26104 1.863419 20.26104 6.453419 20.26104H10.735419L11.002419 20.436041C11.494419 20.759041 12.785419 20.738041 13.094419 20.394039C13.213419 20.26804 13.361419 20.26104 17.55942 20.26104L17.783302 20.261044C21.597015 20.261133 22.1418 20.261147 22.307264 20.010616C22.339619 19.961628 22.35747 19.903061 22.38242 19.83304C22.438419 19.67104 22.459419 17.67704 22.459419 13.09304V6.58604L22.276419 6.36804C22.101419 6.15704 22.079418 6.15104 21.469419 6.15104H20.844419V5.77104C20.844419 5.32204 20.732418 4.97804 20.563419 4.88704C20.49342 4.84504 20.16342 4.81704 19.83342 4.81704H19.230419V4.25504C19.230419 3.74304 19.209419 3.67204 19.054419 3.51804C18.893419 3.35604 18.836418 3.34204 18.12842 3.34204C16.30242 3.34204 14.814419 3.72104 13.628419 4.48704C13.080419 4.84504 12.483419 5.41304 12.210419 5.84904L12.020419 6.14304L11.795419 5.80004C11.409419 5.20304 10.651419 4.57804 9.788419 4.15004C8.952419 3.72904 8.321419 3.53904 7.331419 3.42004ZM5.470419 15.97804V3.97404H5.997419C8.622419 3.97404 10.735419 4.96404 11.522419 6.55704L11.684419 6.88704L11.704419 12.70704L11.718419 18.53404L11.333419 18.10504C10.103419 16.75104 8.215419 15.97804 6.123419 15.97804ZM16.787418 4.05104V4.05204C17.167484 4.013536 17.549444 3.996842 17.931419 4.00204L18.563419 4.00904V15.94304L17.650419 15.98504C15.502419 16.09004 13.803419 16.835039 12.630419 18.190041L12.350419 18.513041V6.95804L12.561419 6.52204C13.157419 5.24504 14.807419 4.28304 16.787418 4.05104ZM2.241419 19.55904V6.78204H3.224419V18.30204L3.407419 18.485041C3.575419 18.65304 3.617419 18.66004 4.017419 18.61104C5.807419 18.40704 6.432419 18.39304 7.569419 18.506041C7.989913 18.554264 8.407274 18.626719 8.819419 18.72304C9.395419 18.86404 10.398419 19.30604 10.532419 19.467039C10.602419 19.54504 9.915419 19.55904 6.425419 19.55904ZM20.83042 12.53804 20.844419 6.78204H21.756418V19.55904H17.56642C17.253534 19.558571 16.962593 19.558292 16.692366 19.558031C14.328876 19.555754 13.550033 19.555004 13.533789 19.443331C13.525805 19.388445 13.70204 19.306761 13.964893 19.184933C14.019906 19.159435 14.078712 19.132177 14.140419 19.103041C15.460419 18.478041 17.56642 18.28804 19.777418 18.58304L20.43042 18.675039L20.810419 18.29504ZM3.855419 17.95804V5.44804H4.839419V16.308041L5.000419 16.44804C5.133419 16.575041 5.287419 16.596041 6.067419 16.638041C8.524419 16.765039 10.159419 17.523041 11.269419 19.02504C11.487419 19.32704 11.437419 19.31304 10.953419 18.94104C10.349419 18.485041 9.451419 18.11904 8.419419 17.90904C7.366419 17.69104 4.887419 17.69804 4.017419 17.91604ZM19.230419 10.84704V5.44804H20.143419V11.70304C20.143419 17.62104 20.13542 17.95104 20.023418 17.91604C19.714418 17.825041 18.633419 17.73304 17.82642 17.73304C15.733419 17.73304 14.105419 18.162041 13.003419 18.99704C12.799419 19.151039 12.631419 19.25704 12.631419 19.22904C12.631419 19.123039 13.235419 18.41404 13.536419 18.162041C14.744419 17.165039 15.972419 16.74404 18.022419 16.638041C18.907419 16.589041 18.963419 16.582041 19.09042 16.41404C19.223419 16.245041 19.230419 16.09104 19.230419 10.84704Z"/></svg>
