<svg xmlns="http://www.w3.org/2000/svg" width="24" height="24" viewBox="0 0 24 24"><path d="M2.88 5.16C2.5488 5.16 2.28 5.4288 2.28 5.76L2.28 21.119999C2.28 21.451199 2.5488 21.719999 2.88 21.719999L21.119999 21.719999C21.451199 21.719999 21.719999 21.451199 21.719999 21.119999L21.719999 5.76C21.719999 5.4288 21.451199 5.16 21.119999 5.16L18.72 5.16C18.3888 5.16 18.12 5.4288 18.12 5.76C18.12 6.0912 18.3888 6.36 18.72 6.36L20.519999 6.36L20.519999 20.519999L3.48 20.519999L3.48 6.36L5.28 6.36C5.6112 6.36 5.88 6.0912 5.88 5.76C5.88 5.4288 5.6112 5.16 5.28 5.16Z"/><path d="M7.23136 3.0864C6.55616 3.06368 5.86624 3.12384 5.17248 3.24992C4.88736 3.30112 4.68 3.55008 4.68 3.84L4.68 18.24C4.68 18.61376 5.01888 18.8976 5.38752 18.83008C7.89504 18.37376 10.09376 18.83616 11.60992 20.135039C11.99872 20.468799 12.6 20.192639 12.6 19.68L12.6 6.24C12.6 6.11744 12.56256 5.99616 12.4912 5.89632C11.13248 3.9536 9.25504 3.15264 7.23136 3.0864ZM7.18368 4.26368C8.84512 4.2864 10.2576 4.89984 11.4 6.44992L11.4 18.53376C9.84736 17.6224 7.92384 17.33888 5.88 17.58368L5.88 4.38496C6.32384 4.32384 6.76992 4.2576 7.18368 4.26368Z"/><path d="M6.72 7.32C6.52128 7.32 6.36 7.48128 6.36 7.68C6.36 7.87872 6.52128 8.04 6.72 8.04L10.8 8.04C10.99872 8.04 11.16 7.87872 11.16 7.68C11.16 7.48128 10.99872 7.32 10.8 7.32Z"/><path d="M6.72 9.48C6.52128 9.48 6.36 9.64128 6.36 9.84C6.36 10.03872 6.52128 10.2 6.72 10.2L10.8 10.2C10.99872 10.2 11.16 10.03872 11.16 9.84C11.16 9.64128 10.99872 9.48 10.8 9.48Z"/><path d="M6.72 11.64C6.52128 11.64 6.36 11.80128 6.36 12C6.36 12.19872 6.52128 12.36 6.72 12.36L10.8 12.36C10.99872 12.36 11.16 12.19872 11.16 12C11.16 11.80128 10.99872 11.64 10.8 11.64Z"/><path d="M6.72 13.8C6.52128 13.8 6.36 13.96128 6.36 14.16C6.36 14.35872 6.52128 14.52 6.72 14.52L10.8 14.52C10.99872 14.52 11.16 14.35872 11.16 14.16C11.16 13.96128 10.99872 13.8 10.8 13.8Z"/><path d="M6.72 15.96C6.52128 15.96 6.36 16.12128 6.36 16.32C6.36 16.51872 6.52128 16.68 6.72 16.68L10.8 16.68C10.99872 16.68 11.16 16.51872 11.16 16.32C11.16 16.12128 10.99872 15.96 10.8 15.96Z"/><path d="M16.76864 3.0864C14.74496 3.15264 12.86752 3.9536 11.5088 5.89632C11.43744 5.99616 11.4 6.11744 11.4 6.24L11.4 19.68C11.4 20.192639 12.00128 20.468799 12.39008 20.135039C13.90624 18.83616 16.10496 18.37376 18.61248 18.83008C18.98112 18.8976 19.32 18.61376 19.32 18.24L19.32 3.84C19.32 3.55008 19.11264 3.30112 18.82752 3.24992C18.13376 3.12384 17.44384 3.06368 16.76864 3.0864ZM16.81632 4.26368C17.23008 4.2576 17.67616 4.32384 18.12 4.38496L18.12 17.58368C16.07616 17.33888 14.15264 17.6224 12.6 18.53376L12.6 6.44992C13.7424 4.89984 15.15488 4.2864 16.81632 4.26368Z"/><path d="M13.2 7.32C13.00128 7.32 12.84 7.48128 12.84 7.68C12.84 7.87872 13.00128 8.04 13.2 8.04L17.28 8.04C17.47872 8.04 17.64 7.87872 17.64 7.68C17.64 7.48128 17.47872 7.32 17.28 7.32Z"/><path d="M13.2 9.48C13.00128 9.48 12.84 9.64128 12.84 9.84C12.84 10.03872 13.00128 10.2 13.2 10.2L17.28 10.2C17.47872 10.2 17.64 10.03872 17.64 9.84C17.64 9.64128 17.47872 9.48 17.28 9.48Z"/><path d="M13.2 11.64C13.00128 11.64 12.84 11.80128 12.84 12C12.84 12.19872 13.00128 12.36 13.2 12.36L17.28 12.36C17.47872 12.36 17.64 12.19872 17.64 12C17.64 11.80128 17.47872 11.64 17.28 11.64Z"/><path d="M13.2 13.8C13.00128 13.8 12.84 13.96128 12.84 14.16C12.84 14.35872 13.00128 14.52 13.2 14.52L17.28 14.52C17.47872 14.52 17.64 14.35872 17.64 14.16C17.64 13.96128 17.47872 13.8 17.28 13.8Z"/><path d="M13.2 15.96C13.00128 15.96 12.84 16.12128 12.84 16.32C12.84 16.51872 13.00128 16.68 13.2 16.68L17.28 16.68C17.47872 16.68 17.64 16.51872 17.64 16.32C17.64 16.12128 17.47872 15.96 17.28 15.96Z"/><path d="M12 19.08C11.6688 19.08 11.4 19.3488 11.4 19.68L11.4 21.119999C11.4 21.451199 11.6688 21.719999 12 21.719999C12.3312 21.719999 12.6 21.451199 12.6 21.119999L12.6 19.68C12.6 19.3488 12.3312 19.08 12 19.08Z"/></svg>
