<svg xmlns="http://www.w3.org/2000/svg" width="24" height="24" viewBox="0 0 24 24"><path d="M14.484375 4.136719C14.932031 4.115625 16.43672 4.134375 16.5 4.164844C16.532812 4.178906 16.582031 4.2 16.612499 4.214063C16.642969 4.228125 16.713282 4.289063 16.769531 4.35C16.792402 4.374545 16.812321 4.386377 16.829664 4.401218C16.946505 4.501208 16.946461 4.737784 16.945509 9.919159C16.945415 10.430952 16.945312 10.99099 16.945312 11.603906V18.49922L17.010937 18.515625C17.081249 18.536718 17.470312 18.53203 17.53828 18.513281C17.580469 18.49922 17.580469 18.47578 17.56875 18.168751C17.547655 17.690624 17.512501 17.027344 17.484375 16.59375C17.470312 16.387501 17.449219 16.033594 17.4375 15.808594C17.425781 15.583594 17.404688 15.229687 17.390625 15.023437C17.378906 14.817187 17.355469 14.404687 17.341406 14.109375C17.31328 13.483594 17.285156 12.972656 17.25 12.445312C17.235937 12.239062 17.214844 11.854687 17.203125 11.589844C17.135157 10.078125 17.114061 9.719531 17.0625 9.164062C17.036718 8.882812 17.046095 8.697656 17.088282 8.671875C17.1 8.6625 17.109375 8.636719 17.109375 8.610937C17.109375 8.503125 17.315624 8.278125 17.442186 8.25C17.535936 8.23125 17.922655 8.198437 18.46875 8.165625C19.24922 8.121094 19.387501 8.116406 19.41328 8.142187C19.427343 8.15625 19.455469 8.167969 19.476562 8.167969C19.535156 8.167969 19.706249 8.327344 19.760157 8.428125C19.81875 8.545312 19.842188 8.751562 19.875 9.398437C19.889063 9.682031 19.910156 10.071094 19.921875 10.265625C19.933594 10.457812 19.954687 10.823437 19.96875 11.074219C20.010937 11.859375 20.039062 12.316406 20.0625 12.679687C20.090626 13.134375 20.123438 13.680469 20.167969 14.4375C20.214844 15.2625 20.245312 15.771094 20.273438 16.21875C20.2875 16.424999 20.308594 16.778906 20.320312 17.003906C20.397655 18.38203 20.40703 18.482813 20.446875 18.508595C20.460938 18.517969 20.53125 18.527344 20.603907 18.527344C20.714062 18.527344 20.75625 18.539062 20.85 18.602345C21 18.705469 21.070312 18.841406 21.070312 19.02422C21.070312 19.239843 20.955469 19.417969 20.760937 19.497656C20.68125 19.53047 19.795313 19.535156 12.070312 19.535156C4.345312 19.535156 3.459375 19.53047 3.379687 19.497656C3.276562 19.455469 3.175781 19.364061 3.128906 19.267969C3.082031 19.176561 3.084375 18.90703 3.13125 18.81328C3.175781 18.724218 3.344531 18.574219 3.400781 18.574219C3.424219 18.574219 3.45 18.5625 3.457031 18.550781C3.464062 18.536718 3.553125 18.527344 3.651562 18.527344C3.75 18.527344 3.846094 18.517969 3.860156 18.508595C3.883594 18.494532 3.892969 17.59453 3.897656 14.247656C3.902344 11.915625 3.914062 9.970312 3.923437 9.925781C3.95625 9.775781 4.040625 9.639844 4.148437 9.560156C4.207031 9.515625 4.267969 9.480469 4.284375 9.480469C4.298437 9.480469 4.3125 9.471094 4.3125 9.459375C4.3125 9.414844 4.51875 9.403125 5.414062 9.39375C6.3375 9.384375 6.386719 9.386719 6.597656 9.464062C6.717187 9.508594 6.860156 9.660937 6.911719 9.799219C6.958594 9.923437 6.958594 9.977344 6.960937 14.198437L6.963281 18.473436L7.03125 18.525C7.117969 18.585938 7.153125 18.588282 7.209375 18.525C7.253906 18.47578 7.253906 18.342188 7.258594 12.583594L7.263281 6.69375L7.335937 6.546094C7.40625 6.400781 7.446094 6.360937 7.654687 6.24375C7.732031 6.201562 7.792969 6.199219 8.990625 6.199219H10.244531L10.375781 6.2625C10.525781 6.3375 10.642969 6.464062 10.703906 6.61875C10.74375 6.721875 10.746094 7.003125 10.753125 12.609375L10.757812 18.494532L10.828125 18.534374C10.89375 18.574219 10.900781 18.574219 10.957031 18.536718L11.015625 18.49922V13.755469C11.015625 11.055469 11.025 8.992969 11.036719 8.969531C11.048437 8.948438 11.071875 8.896875 11.088281 8.859375C11.128125 8.772656 11.19375 8.707031 11.282812 8.660156C11.339062 8.629687 11.503125 8.625 12.307031 8.625H13.260937L13.35 8.697656C13.399219 8.735156 13.460156 8.798437 13.485937 8.833594L13.535156 8.896875L13.542187 13.682812L13.546875 18.466406L13.598437 18.520311C13.659375 18.585938 13.692187 18.588282 13.74375 18.529688C13.778906 18.489843 13.78125 18.15703 13.771875 13.614844C13.760156 8.055469 13.760156 8.032031 13.769531 6.058594L13.778906 4.596094L13.832812 4.492969C13.860937 4.436719 13.926562 4.354687 13.975781 4.3125C14.132813 4.178906 14.214844 4.148438 14.484375 4.136719ZM10.242188 6.525C10.167188 6.482813 10.085156 6.480469 8.988281 6.480469C7.919531 6.480469 7.809375 6.485156 7.736719 6.522656C7.635937 6.571875 7.572656 6.65625 7.546875 6.775781C7.532812 6.829688 7.523438 9.271875 7.523438 12.672656C7.523438 18.389063 7.523438 18.478125 7.567969 18.503906C7.617188 18.529688 10.347656 18.539062 10.415625 18.513281C10.450781 18.49922 10.453125 17.960155 10.453125 12.623438L10.450781 6.75L10.3875 6.658594C10.352344 6.609375 10.286719 6.548438 10.242188 6.525ZM16.640625 7.492969V7.417969H14.039063V12.958594C14.039063 17.988281 14.041406 18.49922 14.076563 18.513281C14.132813 18.534374 16.577345 18.529688 16.610155 18.508595C16.635937 18.492188 16.65 13.830469 16.640625 7.492969ZM19.382812 8.446875C19.307812 8.404688 19.129688 8.392969 18.972656 8.416406C18.946875 8.41875 18.714844 8.435156 18.457031 8.449219C17.685938 8.49375 17.519531 8.510156 17.453905 8.554688C17.362499 8.613281 17.315624 8.758594 17.329687 8.927344C17.339064 9.007031 17.355469 9.269531 17.367188 9.515625C17.378906 9.759375 17.4 10.117969 17.414062 10.3125C17.425781 10.504688 17.446875 10.853906 17.460938 11.085938C17.472656 11.317969 17.49375 11.692969 17.507812 11.917969C17.521875 12.142969 17.542969 12.522656 17.554688 12.761719C17.56875 13.000781 17.589844 13.371094 17.601562 13.586719C17.613281 13.8 17.634375 14.170313 17.648438 14.407031C17.68828 15.117188 17.716406 15.632813 17.742188 16.066406C17.75625 16.291407 17.777344 16.661718 17.789062 16.886719C17.803125 17.111719 17.828905 17.549999 17.847656 17.859375C17.866405 18.168751 17.882812 18.43828 17.882812 18.459375C17.882812 18.480469 17.91328 18.503906 17.960155 18.517969C18.002344 18.529688 18.471094 18.534374 19.066406 18.527344L20.097656 18.515625L20.09297 18.246094C20.090626 18.098438 20.078905 17.803125 20.064844 17.589844C20.036718 17.165625 19.99922 16.5 19.966406 15.84375C19.957031 15.611719 19.935938 15.253125 19.921875 15.046875C19.88203 14.432813 19.856251 13.996875 19.828125 13.5C19.771875 12.452344 19.720312 11.620313 19.6875 11.214844C19.673437 11.041406 19.652344 10.661719 19.640625 10.371094C19.55625 8.5125 19.560938 8.540625 19.382812 8.446875ZM6.689062 12.189844C6.677344 12.157031 6.54375 12.152344 5.435156 12.152344H4.195312V18.496876L4.249219 18.517969C4.279687 18.529688 4.790625 18.534374 5.472656 18.527344L6.642187 18.515625L6.672656 18.457031C6.696094 18.410156 6.703125 17.751562 6.703125 15.311719C6.703125 13.614844 6.696094 12.210938 6.689062 12.189844ZM13.251562 10.619531C13.239844 10.586719 13.129687 10.582031 12.267187 10.582031H11.296875V17.191406L11.38125 17.226562C11.439844 17.25 11.477344 17.254688 11.507813 17.238281C11.533594 17.224218 11.889844 17.214844 12.407812 17.214844H13.265625V13.935938C13.265625 12.13125 13.258594 10.640625 13.251562 10.619531ZM20.690624 18.83672C20.650782 18.815624 18.75 18.808594 13.042969 18.803905C5.416406 18.796875 3.50625 18.803905 3.45 18.839064C3.435937 18.85078 3.405469 18.890625 3.384375 18.928125C3.314062 19.066406 3.396094 19.202345 3.574219 19.251562C3.639844 19.270313 6.126562 19.277344 12.135937 19.277344C19.668751 19.277344 20.610937 19.272655 20.671875 19.242188C20.739843 19.207031 20.8125 19.101562 20.8125 19.035938C20.8125 18.975 20.744532 18.864843 20.690624 18.83672ZM8.017969 8.189063 8.064844 8.121094H8.992969C9.825 8.121094 9.925781 8.125781 9.965625 8.160937C10.005469 8.196094 10.007813 8.275781 10.007813 9.717187V11.235937L9.95625 11.271094C9.911719 11.303906 9.778125 11.308594 8.983594 11.308594C8.092969 11.308594 8.060156 11.30625 8.015625 11.261719C7.96875 11.214844 7.96875 11.184375 7.96875 9.735937C7.96875 8.278125 7.96875 8.257031 8.017969 8.189063ZM16.439062 4.450781C16.37578 4.425 16.1625 4.417969 15.346875 4.417969C14.280469 4.420313 14.242969 4.422656 14.151562 4.525781C14.048437 4.642969 14.039063 4.715625 14.039063 5.364844V5.983594L14.092969 5.997656C14.121094 6.004688 14.707031 6.011719 15.39375 6.011719H16.640625L16.642969 5.430469C16.645311 5.111719 16.645311 4.804688 16.640625 4.746094C16.635937 4.619531 16.551561 4.497656 16.439062 4.450781ZM9.719531 8.465625 9.698438 8.402344H8.278125L8.271094 8.453906C8.266406 8.484375 8.266406 9.072656 8.273438 9.761719L8.285156 11.015625L8.985938 11.022656C9.459375 11.025 9.696094 11.020312 9.7125 11.003906C9.745313 10.971094 9.752344 8.559375 9.719531 8.465625ZM18.667969 10.092188C18.862499 10.082812 19.052343 10.073437 19.092188 10.071094C19.223436 10.061719 19.235155 10.099219 19.263281 10.628906C19.303125 11.348437 19.335938 11.892187 19.361719 12.253125C19.385157 12.588281 19.37578 12.644531 19.293751 12.689062C19.270313 12.700781 19.078125 12.721875 18.867188 12.735937C18.653906 12.75 18.384375 12.76875 18.267187 12.778125C18.13125 12.7875 18.039845 12.782812 18.00703 12.766406C17.941406 12.73125 17.927343 12.632813 17.901562 11.988281C17.889845 11.685938 17.871094 11.294531 17.859375 11.121094C17.803125 10.272656 17.803125 10.25625 17.857031 10.197656C17.915625 10.136719 18.023438 10.122656 18.667969 10.092188ZM6.475781 9.728906C6.410156 9.696094 6.28125 9.691406 5.416406 9.691406H4.432031L4.345312 9.766406C4.204687 9.890625 4.195312 9.9375 4.195312 10.474219C4.195312 10.889063 4.2 10.954688 4.232812 10.966406C4.253906 10.973438 4.804687 10.980469 5.458594 10.980469C6.351562 10.980469 6.653906 10.973438 6.675 10.952344C6.69375 10.933594 6.703125 10.8 6.703125 10.5C6.703125 10.14375 6.696094 10.059375 6.658594 9.95625C6.609375 9.817969 6.58125 9.785156 6.475781 9.728906ZM13.192969 8.955469 13.120313 8.894531H11.439844L11.374219 8.950781L11.308594 9.007031L11.301562 9.6375L11.294531 10.265625L11.369531 10.298438C11.432812 10.326563 11.470312 10.326563 11.578125 10.305469C11.749219 10.267969 12.996094 10.267969 13.096875 10.303125C13.148438 10.319531 13.18125 10.319531 13.216406 10.300781C13.263281 10.277344 13.265625 10.258594 13.265625 9.646875V9.016406ZM16.642969 6.35625 16.640625 6.292969H15.35625C14.648438 6.292969 14.0625 6.3 14.055469 6.309375C14.046094 6.316406 14.039063 6.496875 14.039063 6.705469C14.039063 7.057031 14.04375 7.089844 14.083594 7.110938C14.125781 7.134375 16.603125 7.136719 16.62422 7.113281C16.635939 7.101563 16.65 6.489844 16.642969 6.35625ZM13.251562 17.533594C13.239844 17.50078 13.132031 17.496094 12.283594 17.496094C11.758594 17.496094 11.320313 17.503124 11.313281 17.512501C11.303906 17.519531 11.296875 17.746876 11.296875 18.014063C11.296875 18.454687 11.301563 18.49922 11.336719 18.515625C11.409375 18.541407 13.2 18.529688 13.235156 18.49922C13.258594 18.480469 13.265625 18.36797 13.265625 18.023438C13.265625 17.772655 13.258594 17.554688 13.251562 17.533594ZM18.951563 10.3875C18.942188 10.366406 18.909374 10.35 18.88125 10.352344C18.855469 10.354687 18.696095 10.364062 18.527344 10.375781C18.12422 10.403906 18.121876 10.403906 18.112499 10.483594C18.107813 10.51875 18.117188 10.736719 18.13125 10.96875C18.145313 11.200781 18.171095 11.632031 18.189844 11.925C18.206249 12.246094 18.229687 12.466406 18.24375 12.475781C18.285936 12.501562 18.986719 12.478125 19.035936 12.45C19.042381 12.446191 19.048021 12.443555 19.052841 12.439851C19.084826 12.415279 19.080734 12.343751 19.036556 11.571368C19.034128 11.528901 19.031578 11.484314 19.028906 11.4375C18.982031 10.591406 18.970312 10.427344 18.951563 10.3875ZM6.667969 11.292188 6.632813 11.238281 5.465625 11.240625C4.825781 11.242969 4.277344 11.25 4.249219 11.254687C4.197656 11.264063 4.195312 11.273438 4.195312 11.554688C4.195312 11.796094 4.202344 11.845312 4.232812 11.857031C4.253906 11.864062 4.807031 11.871094 5.460937 11.871094C6.574219 11.871094 6.65625 11.86875 6.677344 11.828906C6.714844 11.758594 6.707812 11.353125 6.667969 11.292188ZM7.9875 17.451563C8.048437 17.404688 8.078906 17.404688 9.002344 17.402344C9.930469 17.402344 9.95625 17.404688 10.017187 17.451563C10.094531 17.512501 10.094531 17.575781 10.019531 17.650782L9.960938 17.709375L8.98125 17.702345C8.1 17.695312 7.996875 17.690624 7.961719 17.65547C7.900781 17.596874 7.9125 17.507812 7.9875 17.451563ZM19.3125 17.217188C19.5 17.207811 19.673437 17.198437 19.701563 17.196095C19.81875 17.184376 19.891405 17.339062 19.807032 17.423437C19.778906 17.451563 19.732031 17.472656 19.701563 17.472656C19.673437 17.472656 19.516405 17.482031 19.357031 17.49375C19.197657 17.505468 18.860155 17.528906 18.607031 17.545313C18.096094 17.575781 18.046875 17.56875 18.046875 17.451563C18.046875 17.37422 18.10078 17.320312 18.199219 17.299219C18.276562 17.28047 18.785156 17.24297 19.3125 17.217188ZM4.70625 17.451563C4.767187 17.40703 4.8 17.404688 5.432812 17.402344C6.086719 17.402344 6.16875 17.409374 6.215625 17.482031C6.248438 17.528906 6.234375 17.613281 6.1875 17.660156C6.142969 17.704687 6.110156 17.707031 5.4375 17.707031C4.764844 17.707031 4.732031 17.704687 4.6875 17.660156C4.621875 17.59453 4.628906 17.510157 4.70625 17.451563Z"/></svg>
