<svg xmlns="http://www.w3.org/2000/svg" width="24" height="24" viewBox="0 0 24 24"><path d="M14.218666 4.161333C14.145333 4.188 14.030666 4.26 13.958666 4.317333C13.901333 4.369333 13.854666 4.448 13.812 4.562667C13.781333 4.656 13.781333 5.005333 13.781333 11.588L13.781333 18.521333L13.718666 18.530666C13.688 18.536 13.630666 18.530666 13.593333 18.521333L13.530666 18.5L13.530666 13.76C13.530666 10.557333 13.526666 9 13.510666 8.953333C13.478666 8.844 13.38 8.724 13.270666 8.672L13.177333 8.62L12.317333 8.614666C11.552 8.609333 11.442666 8.614666 11.349333 8.64C11.245333 8.677333 11.098666 8.786666 11.098666 8.833333C11.098666 8.849333 11.093333 8.86 11.082666 8.86C11.073333 8.86 11.062666 8.885333 11.062666 8.917333C11.062666 8.948 11.052 8.978666 11.041333 8.984C11.030666 8.994666 11.026666 10.604 11.026666 13.749333C11.026666 18.068 11.021333 18.505333 10.994666 18.516C10.953333 18.530666 10.817333 18.530666 10.76 18.516L10.718666 18.505333L10.718666 12.650666C10.713333 6.276 10.724 6.677333 10.609333 6.489333C10.578666 6.442667 10.510666 6.369333 10.458666 6.333333C10.286666 6.197333 10.302666 6.202667 8.964 6.202667C7.833333 6.202667 7.754666 6.202667 7.661333 6.24C7.530666 6.286667 7.401333 6.385333 7.364 6.469333C7.354666 6.484 7.344 6.510667 7.333333 6.526667C7.302666 6.578667 7.276 6.650667 7.265333 6.718666C7.254666 6.754666 7.250666 9.416 7.24 12.630666C7.234666 16.536 7.224 18.484 7.213333 18.5C7.193333 18.526666 7.010666 18.536 6.973333 18.510666C6.953333 18.5 6.948 17.588 6.942666 14.197333L6.937333 9.906666L6.885333 9.797333C6.817333 9.650666 6.661333 9.505333 6.526667 9.453333C6.421333 9.406666 6.416 9.406666 5.426667 9.406666L4.432 9.406666L4.317333 9.458666C4.188 9.521333 4.109333 9.584 4.041333 9.682666C3.921333 9.854666 3.896 9.984 3.896 10.448C3.901333 11.322666 3.901333 11.630666 3.901333 11.74C3.901333 11.806666 3.901333 13.114666 3.901333 14.650666C3.901333 17.510666 3.896 18.473333 3.874667 18.505333C3.869333 18.521333 3.770667 18.526666 3.656 18.526666C3.536 18.526666 3.421333 18.536 3.396 18.546666C3.281333 18.598666 3.182667 18.688 3.136 18.770666C3.098667 18.849333 3.088 18.885333 3.093333 19.046666C3.098667 19.229333 3.098667 19.234666 3.166667 19.328C3.208 19.385333 3.270667 19.437333 3.328 19.464L3.416 19.510666L12.036 19.516C19.978666 19.521333 20.666666 19.521333 20.754666 19.489333C20.869333 19.453333 20.994666 19.328 21.041333 19.208C21.067999 19.145333 21.073333 19.082666 21.067999 18.978666C21.062666 18.854666 21.051999 18.828 20.989333 18.729333C20.890666 18.584 20.781333 18.526666 20.573333 18.526666C20.494666 18.526666 20.421333 18.521333 20.411999 18.510666C20.395999 18.505333 20.374666 18.297333 20.354666 17.953333C20.338666 17.650666 20.317333 17.26 20.306666 17.082666C20.297333 16.901333 20.275999 16.530666 20.259999 16.26C20.245333 15.984 20.223999 15.697333 20.218666 15.625333C20.213333 15.552 20.202666 15.354666 20.193333 15.188C20.182666 15.016 20.161333 14.650666 20.145333 14.374666C20.130666 14.093333 20.109333 13.718666 20.093333 13.541333C20.087999 13.36 20.062666 13 20.046666 12.734666C20.015999 12.208 19.994666 11.822666 19.964 11.245333C19.953333 11.030666 19.937333 10.802666 19.932 10.729333C19.926666 10.650666 19.912 10.432 19.906666 10.24C19.854666 9.312 19.806666 8.557333 19.786666 8.5C19.754666 8.390666 19.661333 8.276 19.573333 8.224C19.421333 8.136 19.317333 8.109333 19.156 8.125333C18.802666 8.156 18.557333 8.172 18.088 8.188C17.62 8.208 17.478666 8.224 17.396 8.270666C17.374666 8.281333 17.344 8.286666 17.328 8.286666C17.292 8.286666 17.145333 8.437333 17.145333 8.478666C17.145333 8.5 17.14 8.516 17.130666 8.516C17.12 8.516 17.109333 8.536 17.109333 8.562666C17.109333 8.588 17.104 8.614666 17.093333 8.62C17.073333 8.636 17.026666 8.86 17.041333 8.88C17.062666 8.917333 17.098666 9.453333 17.145333 10.448C17.156 10.697333 17.172 10.912 17.177333 10.926666C17.188 10.942666 17.197333 11.182666 17.208 11.464C17.229333 12.125333 17.26 12.749333 17.276 12.786666C17.281333 12.802666 17.292 12.973333 17.302666 13.166666C17.333333 13.953333 17.36 14.364 17.369333 14.390666C17.38 14.406666 17.390666 14.588 17.401333 14.792C17.432 15.645333 17.453333 16.016 17.464 16.041333C17.473333 16.052 17.489333 16.229333 17.494666 16.437333C17.505333 16.645333 17.521333 16.953333 17.530666 17.12C17.536 17.286666 17.557333 17.604 17.568 17.828C17.578666 18.046666 17.593333 18.281333 17.598666 18.344C17.604 18.406666 17.598666 18.473333 17.588 18.489333C17.573333 18.510666 17.516 18.516 17.306666 18.521333C17.161333 18.526666 17.016 18.521333 16.984 18.516L16.917333 18.505333L16.917333 11.552L16.912 4.604L16.864 4.505333C16.806666 4.385333 16.666666 4.245333 16.541333 4.188C16.453333 4.145333 16.432 4.145333 15.369333 4.14C14.5 4.136 14.276 4.14 14.218666 4.161333ZM16.453333 4.426667C16.557333 4.473333 16.604 4.536 16.656 4.656C16.688 4.724 16.688 4.822667 16.688 5.36C16.688 5.958667 16.688 5.994667 16.650666 6.026667C16.614666 6.062667 16.578666 6.062667 15.328 6.057333C14.62 6.052 14.036 6.041333 14.030666 6.036C14.026666 6.030667 14.021333 5.729333 14.021333 5.364C14.021333 4.724 14.021333 4.693333 14.057333 4.609333C14.104 4.521333 14.188 4.442667 14.286666 4.406667C14.322666 4.390667 14.697333 4.385333 15.349333 4.385333L16.354666 4.38ZM16.661333 6.312C16.697333 6.36 16.697333 7.078666 16.666666 7.125333C16.64 7.156 16.557333 7.161333 15.349333 7.161333C14.412 7.161333 14.057333 7.156 14.041333 7.14C14.021333 7.12 14.005333 6.464 14.021333 6.338667L14.030666 6.276L15.333333 6.276C16.552 6.276 16.64 6.281333 16.661333 6.312ZM10.276 6.516C10.322666 6.546667 10.38 6.609333 10.406666 6.650667L10.448 6.729333L10.448 18.5L10.396 18.510666C10.36 18.516 7.724 18.516 7.516 18.510666C7.484 18.505333 7.484 18.213333 7.484 12.636C7.484 6.948 7.484 6.765333 7.521333 6.688C7.562666 6.593333 7.62 6.536 7.724 6.484C7.797333 6.453333 7.86 6.448 8.994666 6.453333L10.193333 6.458667ZM16.666666 7.426666C16.682666 7.453333 16.688 8.661333 16.688 12.953333C16.688 17.636 16.688 18.448 16.661333 18.478666C16.636 18.516 16.593333 18.516 15.349333 18.521333C14.645333 18.521333 14.057333 18.516 14.052 18.510666C14.036 18.5 14.030666 16.568 14.030666 12.973333C14.026666 9.937333 14.026666 7.437333 14.026666 7.421333C14.030666 7.390666 14.104 7.385333 15.333333 7.385333C16.609333 7.385333 16.64 7.385333 16.666666 7.426666ZM19.333333 8.385333C19.432 8.421333 19.494666 8.473333 19.546666 8.573333C19.584 8.650666 19.588 8.697333 19.598666 9.052C19.62 9.688 19.650666 10.338666 19.666666 10.374666C19.677333 10.390666 19.688 10.573333 19.697333 10.786666C19.724 11.568 19.745333 11.937333 19.76 11.964C19.776 11.984 19.802666 12.385333 19.828 13.026666C19.86 13.797333 19.885333 14.229333 19.896 14.265333C19.906666 14.286666 19.917333 14.478666 19.926666 14.688C19.942666 15.150666 19.973333 15.702666 19.989333 15.781333C19.994666 15.812 20.010666 16.036 20.021333 16.276C20.030666 16.521333 20.046666 16.854666 20.057333 17.026666C20.073333 17.193333 20.082666 17.401333 20.087999 17.484C20.119999 18.125333 20.130666 18.317333 20.145333 18.385333C20.166666 18.526666 20.234666 18.516 18.989333 18.510666C18.374666 18.510666 17.869333 18.505333 17.86 18.5C17.854666 18.489333 17.844 18.364 17.833333 18.213333C17.817333 17.88 17.792 17.406666 17.749333 16.765333C17.734666 16.5 17.713333 16.130666 17.702666 15.953333C17.693333 15.770666 17.672 15.412 17.656 15.145333C17.64 14.885333 17.625333 14.593333 17.62 14.5C17.609333 14.401333 17.598666 14.193333 17.588 14.036C17.573333 13.770666 17.536 13.193333 17.494666 12.354666C17.478666 12.150666 17.464 11.854666 17.453333 11.693333C17.416 11.12 17.369333 10.354666 17.328 9.666666C17.270666 8.688 17.270666 8.724 17.312 8.650666C17.349333 8.578666 17.369333 8.557333 17.437333 8.510666C17.494666 8.473333 17.713333 8.453333 18.688 8.401333C18.901333 8.390666 19.082666 8.38 19.098666 8.374666C19.166666 8.36 19.270666 8.364 19.333333 8.385333ZM13.208 8.932L13.270666 8.994666L13.276 9.645333L13.286666 10.297333L13.234666 10.317333C13.177333 10.338666 11.333333 10.333333 11.297333 10.312C11.276 10.297333 11.270666 10.150666 11.270666 9.672C11.270666 8.978666 11.276 8.948 11.396 8.890666C11.448 8.864 11.557333 8.86 12.302666 8.864L13.145333 8.869333ZM6.426667 9.693333C6.552 9.754666 6.645333 9.844 6.677333 9.942666C6.693333 10 6.697333 10.156 6.693333 10.505333L6.688 10.994666L5.473333 11.005333C4.806667 11.010666 4.24 11.010666 4.208 11.005333L4.161333 10.994666L4.156 10.484C4.150667 9.989333 4.150667 9.978666 4.197333 9.896C4.218667 9.849333 4.270667 9.786666 4.312 9.754666C4.442667 9.645333 4.448 9.645333 5.426667 9.645333L6.322667 9.645333ZM13.270666 10.578666C13.292 10.625333 13.286666 17.193333 13.265333 17.213333C13.254666 17.224 11.792 17.234666 11.317333 17.224L11.270666 17.224L11.270666 10.546666L12.265333 10.546666C13.177333 10.546666 13.26 10.546666 13.270666 10.578666ZM6.718666 11.281333C6.76 11.344 6.76 11.354666 6.729333 11.396C6.708 11.432 6.697333 11.494666 6.697333 11.650666C6.697333 11.770666 6.693333 11.869333 6.682666 11.874666C6.656 11.890666 4.229333 11.890666 4.188 11.874666C4.145333 11.86 4.150667 11.885333 4.150667 11.530666C4.156 11.338666 4.161333 11.24 4.177333 11.229333C4.193333 11.224 4.76 11.213333 5.437333 11.213333L6.677333 11.213333ZM6.713333 12.156C6.74 12.202666 6.74 12.218666 6.724 12.276C6.702666 12.322666 6.697333 13.041333 6.697333 15.416C6.697333 17.109333 6.693333 18.5 6.688 18.505333C6.672 18.521333 4.177333 18.521333 4.166667 18.505333C4.156 18.5 4.145333 13.650666 4.150667 12.145333L4.150667 12.093333L6.682666 12.104ZM13.281333 17.510666C13.297333 17.541333 13.302666 17.588 13.292 17.614666C13.286666 17.64 13.281333 17.849333 13.281333 18.073333C13.281333 18.312 13.270666 18.489333 13.26 18.5C13.250666 18.505333 11.505333 18.516 11.317333 18.510666L11.270666 18.505333L11.270666 17.453333L13.26 17.453333ZM20.614666 18.776C20.791999 18.806666 20.863999 18.921333 20.822666 19.098666C20.806666 19.166666 20.786666 19.208 20.745333 19.234666C20.693333 19.270666 20.655999 19.270666 12.088 19.270666L3.489333 19.270666L3.421333 19.229333C3.344 19.177333 3.312 19.114666 3.312 19.016C3.312 18.937333 3.364 18.828 3.421333 18.802666C3.437333 18.792 7.265333 18.781333 11.921333 18.776C16.584 18.770666 20.415999 18.765333 20.453333 18.76C20.483999 18.76 20.557333 18.765333 20.614666 18.776Z"/><path d="M8.036 8.182666C8.005333 8.218666 8.010666 11.193333 8.041333 11.229333C8.073333 11.265333 9.854666 11.265333 9.901333 11.229333C9.932 11.208 9.937333 11.098666 9.937333 9.702666C9.937333 8.276 9.937333 8.202666 9.901333 8.177333C9.874666 8.156 9.688 8.150666 8.964 8.150666C8.177333 8.150666 8.057333 8.156 8.036 8.182666ZM9.718666 8.396C9.745333 8.448 9.74 10.978666 9.713333 11.005333C9.697333 11.016 9.458666 11.021333 8.953333 11.021333L8.218666 11.016L8.213333 9.713333C8.213333 8.994666 8.213333 8.401333 8.218666 8.385333C8.224 8.369333 8.396 8.364 8.964 8.364C9.645333 8.364 9.702666 8.364 9.718666 8.396Z"/><path d="M7.958666 17.458666C7.912 17.478666 7.912 17.593333 7.958666 17.630666C7.978666 17.650666 8.166666 17.656 8.937333 17.661333C9.458666 17.666666 9.906666 17.661333 9.926666 17.656C10.026666 17.630666 10.068 17.494666 9.994666 17.453333C9.942666 17.426666 8.005333 17.426666 7.958666 17.458666Z"/><path d="M18.697333 10.125333C18.568 10.136 18.354666 10.145333 18.218666 10.150666C17.958666 10.166666 17.88 10.188 17.854666 10.245333C17.844 10.292 17.869333 11.036 17.890666 11.082666C17.896 11.098666 17.906666 11.254666 17.917333 11.437333C17.969333 12.688 17.969333 12.656 18.010666 12.697333C18.046666 12.734666 18.052 12.734666 18.598666 12.697333C18.901333 12.682666 19.177333 12.666666 19.213333 12.656C19.322666 12.64 19.328 12.62 19.302666 12.136C19.276 11.713333 19.254666 11.437333 19.213333 10.718666C19.208 10.521333 19.193333 10.317333 19.193333 10.265333C19.188 10.208 19.172 10.150666 19.161333 10.136C19.136 10.104 19.12 10.104 18.697333 10.125333ZM18.973333 10.374666C18.978666 10.401333 18.989333 10.494666 18.994666 10.584C19.030666 11.312 19.046666 11.521333 19.062666 11.578666C19.073333 11.614666 19.082666 11.822666 19.082666 12.041333L19.082666 12.437333L19.010666 12.458666C18.969333 12.469333 18.770666 12.478666 18.568 12.484C18.276 12.494666 18.197333 12.494666 18.193333 12.473333C18.182666 12.453333 18.156 12.098666 18.125333 11.5C18.114666 11.349333 18.098666 11.068 18.088 10.869333C18.062666 10.469333 18.057333 10.412 18.078666 10.390666C18.093333 10.374666 18.562666 10.344 18.828 10.338666C18.958666 10.333333 18.969333 10.338666 18.973333 10.374666Z"/><path d="M19.688 17.197333C19.682666 17.202666 19.521333 17.213333 19.328 17.229333C19.136 17.24 18.885333 17.254666 18.776 17.265333C18.666666 17.270666 18.469333 17.286666 18.344 17.292C18.218666 17.302666 18.098666 17.312 18.082666 17.322666C18.057333 17.333333 18.046666 17.364 18.046666 17.406666C18.046666 17.521333 18.073333 17.526666 18.702666 17.489333C19.677333 17.426666 19.754666 17.421333 19.797333 17.374666C19.833333 17.328 19.838666 17.281333 19.806666 17.24C19.776 17.208 19.708 17.177333 19.688 17.197333Z"/><path d="M4.754667 17.448C4.729333 17.453333 4.697333 17.473333 4.677333 17.494666C4.630667 17.546666 4.661333 17.630666 4.734667 17.650666C4.770667 17.656 5.088 17.666666 5.453333 17.666666L6.109333 17.661333L6.156 17.62C6.208 17.562666 6.213333 17.536 6.172 17.478666C6.145333 17.448 6.114667 17.442666 5.469333 17.442666C5.098667 17.442666 4.776 17.442666 4.754667 17.448Z"/></svg>
