<svg xmlns="http://www.w3.org/2000/svg" width="24" height="24" viewBox="0 0 24 24"><path d="M4.72014 3.904729C4.829422 3.854291 5.018564 3.845884 5.80035 3.862697C6.838529 3.887916 7.523643 3.95937 8.309632 4.119089C9.82697 4.434326 11.188792 5.199299 11.873905 6.123993C12.075657 6.392995 12.088266 6.392995 12.290018 6.086165C12.437128 5.867601 12.886865 5.438879 13.252539 5.178284C13.534151 4.976532 14.051138 4.703327 14.521891 4.505779C15.501226 4.098074 17.094221 3.845884 18.716637 3.845884C19.599298 3.845884 19.712786 3.942557 19.712786 4.715937C19.712786 5.005954 19.729597 5.195096 19.75902 5.211909C19.784239 5.228722 20.05324 5.245534 20.355867 5.249737C20.814011 5.25394 20.9317 5.26655 21.024168 5.329597C21.217512 5.459895 21.26795 5.636427 21.26795 6.153415C21.26795 6.498074 21.28056 6.619965 21.322592 6.619965C22.381786 6.649387 22.461645 6.6662 22.587742 6.930998C22.650787 7.061296 22.654991 7.637128 22.654991 13.445884C22.654991 13.848128 22.655046 14.2259 22.655098 14.580709C22.65584 19.649521 22.655895 20.032066 22.484297 20.138905C22.458426 20.155012 22.428656 20.164852 22.394396 20.183538C22.264097 20.254992 22.016111 20.259193 17.89282 20.271805L13.525744 20.28021L13.336602 20.42732C13.038179 20.654291 12.819615 20.700525 12.054641 20.700525C11.30648 20.700525 11.062697 20.645884 10.764273 20.410507L10.604553 20.28021L6.216462 20.271805C2.109982 20.259193 1.819965 20.254992 1.719089 20.183538C1.692243 20.165171 1.668564 20.154139 1.647679 20.139198C1.491525 20.027506 1.491556 19.697456 1.492057 14.450406V14.45035C1.492087 14.136282 1.492119 13.804599 1.492119 13.454291C1.492119 7.380736 1.496322 7.010858 1.567776 6.901576C1.69387 6.708231 1.8662 6.649387 2.378984 6.628371L2.849737 6.611559L2.862347 6.11979C2.879159 5.585989 2.921191 5.472504 3.139755 5.329597C3.232224 5.26655 3.358319 5.25394 3.803853 5.245534C4.102277 5.241331 4.362872 5.237128 4.383888 5.237128C4.400701 5.232925 4.41331 5.010158 4.41331 4.736953C4.41331 4.177933 4.472154 4.018214 4.72014 3.904729ZM18.97303 4.598249C18.947811 4.552014 17.876007 4.556217 17.359018 4.606655C16.228371 4.707531 15.17338 4.980736 14.395797 5.371629C13.302977 5.918039 12.630473 6.636778 12.458144 7.435377C12.411909 7.641331 12.403503 8.792995 12.399299 13.08021C12.399299 18.325745 12.399299 18.464449 12.479159 18.443434C12.521191 18.435026 12.580035 18.380384 12.609457 18.325745C12.701926 18.153416 13.202102 17.703678 13.580385 17.451488C14.088967 17.115236 14.614361 16.863047 15.219615 16.669703C16.274607 16.329247 16.942907 16.215761 18.191242 16.173731C18.729246 16.156918 18.998249 16.131699 18.998249 16.102278C19.010859 14.198249 18.989841 4.623468 18.97303 4.598249ZM7.271454 4.665499C7.027671 4.631874 6.447636 4.589842 5.976883 4.57303L5.127846 4.547811L5.136252 10.343958L5.148862 16.140104L5.989492 16.165323C6.762872 16.190542 6.985639 16.211559 7.649737 16.325045C8.154116 16.409107 9.099825 16.694921 9.6 16.913485C9.894221 17.043783 10.570928 17.447285 10.848336 17.657442C10.978634 17.754116 11.218214 17.981087 11.382137 18.157618C11.579685 18.371979 11.69317 18.460245 11.705779 18.422417C11.718389 18.392996 11.722592 15.887916 11.718389 12.861646L11.705779 7.355517L11.499825 6.96042C10.881961 5.783538 9.431874 4.993345 7.271454 4.665499ZM20.528196 5.985289C20.502977 5.943257 19.784239 5.930648 19.742207 5.976883C19.725393 5.989492 19.712786 8.36007 19.712786 11.239229C19.712786 16.350264 19.708582 16.48056 19.628721 16.610859C19.586691 16.682312 19.515236 16.762173 19.473206 16.783188C19.431173 16.804203 19.002453 16.833626 18.514887 16.846235C16.77478 16.896673 15.740806 17.115236 14.605954 17.670053C13.857793 18.03993 13.23993 18.531698 12.861646 19.057093L12.77338 19.187391L12.891068 19.141155C12.954116 19.115936 13.046585 19.065498 13.09282 19.023468C13.622417 18.556917 14.887566 18.115587 16.056042 17.989492C17.51874 17.829773 18.502277 17.829773 19.935553 17.993694C20.259193 18.027321 20.528196 18.048336 20.536602 18.03993C20.566025 18.014711 20.557617 6.031524 20.528196 5.985289ZM4.41331 11.277058 4.392294 5.968476 3.984588 5.955867 3.57268 5.943257V12C3.57268 16.812609 3.585289 18.05254 3.62732 18.056744C3.652539 18.060946 3.698774 18.056744 3.71979 18.05254C3.745009 18.048336 4.140105 18.006306 4.602452 17.964273C7.443783 17.686865 9.772329 18.069351 11.033275 19.019264C11.348511 19.254641 11.37373 19.263046 11.281261 19.103327C11.150963 18.876356 10.558319 18.317339 10.196848 18.077759C8.961121 17.258144 7.649737 16.905079 5.636427 16.846235L4.694921 16.821016L4.564623 16.703327L4.434326 16.589842ZM2.86655 12.92049 2.858144 7.376532H2.185639V13.445884C2.185639 18.939405 2.189842 19.515236 2.25289 19.540455C2.353765 19.578283 10.457443 19.569878 10.482662 19.532049C10.495271 19.511032 10.385989 19.42697 10.243082 19.347111C9.007356 18.62837 6.704028 18.384588 4.140105 18.699825C3.249037 18.809107 3.122942 18.796497 2.967426 18.58634L2.879159 18.468651ZM21.948862 7.418564C21.940454 7.393345 21.784939 7.376532 21.6 7.376532H21.26795V18.48126L20.969526 18.779684L20.582836 18.754465C20.368477 18.741856 19.939754 18.695621 19.628721 18.657793C18.813311 18.552715 16.913485 18.552715 16.161121 18.657793C15.190193 18.792294 14.370578 19.036077 13.85359 19.347111C13.664448 19.460594 13.622417 19.502626 13.672855 19.527845C13.70648 19.548862 15.576883 19.561472 17.829773 19.557268L21.919439 19.544659L21.940454 13.500525C21.953066 10.180035 21.957268 7.43958 21.948862 7.418564ZM6.102977 13.189492 6.191243 13.09282H8.414711C10.579335 13.09282 10.638179 13.097023 10.718039 13.176883C10.844133 13.302977 10.831524 13.525744 10.69282 13.635026C10.583538 13.723292 10.541506 13.723292 8.393695 13.723292H6.203853L6.10718 13.630823C5.981086 13.513135 5.981086 13.31979 6.102977 13.189492ZM13.429072 13.197898 13.529947 13.09282H17.922241L18.018913 13.185289C18.157618 13.311384 18.149212 13.521541 18.006306 13.635026C17.897022 13.723292 17.854992 13.723292 15.71979 13.723292C13.584588 13.723292 13.542557 13.723292 13.433275 13.635026C13.290368 13.521541 13.286165 13.336602 13.429072 13.197898ZM13.429072 14.711033 13.529947 14.605954H15.732399C17.888617 14.605954 17.934851 14.605954 18.023117 14.690018C18.157618 14.816112 18.149212 15.034676 18.006306 15.148161C17.897022 15.236427 17.854992 15.236427 15.71979 15.236427C13.584588 15.236427 13.542557 15.236427 13.433275 15.148161C13.290368 15.034676 13.286165 14.849737 13.429072 14.711033ZM13.429072 8.700525 13.529947 8.595447H15.711384C17.854992 8.595447 17.897022 8.595447 18.006306 8.683713C18.157618 8.801401 18.157618 9.019965 18.006306 9.137653C17.897022 9.225919 17.854992 9.225919 15.71979 9.225919C13.584588 9.225919 13.542557 9.225919 13.433275 9.137653C13.290368 9.024168 13.286165 8.839229 13.429072 8.700525ZM6.11979 14.694221C6.229072 14.605954 6.271103 14.605954 8.431524 14.605954C10.579335 14.605954 10.638179 14.610158 10.718039 14.690018C10.844133 14.816112 10.831524 15.038879 10.69282 15.148161C10.583538 15.236427 10.541506 15.236427 8.418914 15.236427L8.327053 15.236428C6.488606 15.236469 6.111265 15.236477 6.032256 15.082953C6.011851 15.043305 6.011344 14.993418 6.010706 14.930645C6.010646 14.924804 6.010586 14.918851 6.010508 14.912785C6.010508 14.820315 6.044133 14.753065 6.11979 14.694221ZM6.157618 8.645884C6.216462 8.612259 6.876357 8.59965 8.431524 8.595447C10.575131 8.595447 10.621366 8.595447 10.709632 8.67951C10.844133 8.805604 10.835727 9.024168 10.69282 9.137653C10.583538 9.225919 10.541506 9.225919 8.406305 9.225919C6.271103 9.225919 6.229072 9.225919 6.11979 9.137653C6.044133 9.078809 6.010508 9.011559 6.010508 8.919089C6.010508 8.763573 6.03993 8.713135 6.157618 8.645884ZM6.19965 7.128546C6.258494 7.094921 6.918389 7.086515 8.452539 7.094921C10.52049 7.103327 10.629772 7.107531 10.713835 7.183187C10.831524 7.292469 10.831524 7.515236 10.709632 7.628722C10.621366 7.712785 10.575131 7.712785 8.397898 7.712785C6.233275 7.712785 6.174431 7.708581 6.094571 7.628722C5.947461 7.481611 5.997898 7.242032 6.19965 7.128546ZM13.504729 7.145359C13.601401 7.107531 14.139405 7.094921 15.782837 7.099124C17.838179 7.103327 17.943256 7.107531 18.027321 7.183187C18.140806 7.288266 18.145008 7.515236 18.031525 7.628722C17.951664 7.708581 17.89282 7.712785 15.71979 7.712785H13.496322L13.408056 7.620315C13.260946 7.460595 13.30718 7.229422 13.504729 7.145359ZM13.412259 10.217863 13.496322 10.108581H15.723993C17.89282 10.108581 17.951664 10.112785 18.031525 10.192644C18.077759 10.238879 18.115587 10.331349 18.115587 10.402802C18.115587 10.541506 17.989492 10.697023 17.876007 10.701226C17.833975 10.701226 16.825218 10.701226 15.635727 10.697023H13.471103L13.39965 10.60035C13.302977 10.474256 13.30718 10.352364 13.412259 10.217863ZM6.123993 10.163222C6.178634 10.121191 6.699825 10.108581 8.414711 10.108581C10.579335 10.108581 10.638179 10.112785 10.718039 10.192644C10.768476 10.243082 10.802102 10.331349 10.802102 10.423818C10.802102 10.431133 10.802149 10.438252 10.802195 10.445181C10.802503 10.492149 10.802753 10.530353 10.788 10.561428C10.72361 10.697082 10.373423 10.697073 8.494932 10.697025H8.494865L8.385289 10.697023L6.157618 10.701226L6.081961 10.604553C5.985289 10.491068 6.010508 10.243082 6.123993 10.163222ZM6.094571 11.705779C6.174431 11.625919 6.233275 11.621716 8.397898 11.621716C10.335552 11.621716 10.625569 11.630123 10.709632 11.688967C10.835727 11.777233 10.835727 12.008406 10.709632 12.126095C10.621366 12.210158 10.575131 12.210158 8.406305 12.210158C8.335757 12.210158 8.267284 12.210165 8.200827 12.210172C6.430983 12.210349 6.089955 12.210383 6.025208 12.076652C6.009755 12.044732 6.010041 12.005193 6.010396 11.95621L6.010508 11.93275C6.010508 11.844483 6.044133 11.756217 6.094571 11.705779ZM13.492119 11.651138C13.525744 11.638529 14.538704 11.625919 15.740806 11.625919C15.811564 11.625797 15.880218 11.625672 15.946826 11.62555C17.69581 11.622358 18.035475 11.621738 18.100574 11.755121C18.116264 11.787269 18.116005 11.827199 18.115683 11.876752L18.115587 11.899124C18.115587 11.987391 18.081961 12.075657 18.031525 12.126095C17.951664 12.205954 17.89282 12.210158 15.71979 12.210158C13.54676 12.210158 13.487916 12.205954 13.408056 12.126095C13.265149 11.983187 13.315587 11.714186 13.492119 11.651138Z"/></svg>
