<svg xmlns="http://www.w3.org/2000/svg" width="24" height="24" viewBox="0 0 24 24"><path d="M6.25 3H17.75C19.544901 3 21 4.45507 21 6.25V17.75C21 19.544901 19.544901 21 17.75 21H6.25C4.45507 21 3 19.544901 3 17.75V6.25C3 4.45507 4.45507 3 6.25 3ZM4.5 8.5V17.75C4.5 18.716499 5.2835 19.5 6.25 19.5H17.75C18.716499 19.5 19.5 18.716499 19.5 17.75V8.5ZM6.25 4.5C5.2835 4.5 4.5 5.2835 4.5 6.25V7H19.5V6.25C19.5 5.2835 18.716499 4.5 17.75 4.5ZM12 10.5C12.6904 10.5 13.25 11.0596 13.25 11.75C13.25 12.4404 12.6904 13 12 13C11.3096 13 10.75 12.4404 10.75 11.75C10.75 11.0596 11.3096 10.5 12 10.5ZM12 14.5C12.6904 14.5 13.25 15.0596 13.25 15.75C13.25 16.440399 12.6904 17 12 17C11.3096 17 10.75 16.440399 10.75 15.75C10.75 15.0596 11.3096 14.5 12 14.5ZM16.25 10.5C16.940399 10.5 17.5 11.0596 17.5 11.75C17.5 12.4404 16.940399 13 16.25 13C15.5596 13 15 12.4404 15 11.75C15 11.0596 15.5596 10.5 16.25 10.5ZM16.25 14.5C16.940399 14.5 17.5 15.0596 17.5 15.75C17.5 16.440399 16.940399 17 16.25 17C15.5596 17 15 16.440399 15 15.75C15 15.0596 15.5596 14.5 16.25 14.5ZM7.75 10.5C8.44036 10.5 9 11.0596 9 11.75C9 12.4404 8.44036 13 7.75 13C7.05964 13 6.5 12.4404 6.5 11.75C6.5 11.0596 7.05964 10.5 7.75 10.5Z"/></svg>
