<svg xmlns="http://www.w3.org/2000/svg" width="24" height="24" viewBox="0 0 24 24"><path d="M15.9863 4.00068 15.9862 3.99944 17.75 4C18.992599 4 20 5.00736 20 6.25V19.75C20 20.992599 18.992599 22 17.75 22H6.25C5.00736 22 4 20.992599 4 19.75V6.25C4 5.00736 5.00736 4 6.25 4L8.01379 3.99944C8.13841 2.87472 9.09205 2 10.25 2H13.75C14.9084 2 15.8623 2.87537 15.9863 4.00068ZM10.25 6.5C9.46997 6.5 8.78267 6.1031 8.37902 5.5002L6.25 5.5C5.83579 5.5 5.5 5.83579 5.5 6.25V19.75C5.5 20.1642 5.83579 20.5 6.25 20.5H17.75C18.1642 20.5 18.5 20.1642 18.5 19.75V6.25C18.5 5.83579 18.1642 5.5 17.75 5.5L15.621 5.50016C15.2174 6.10307 14.53 6.5 13.75 6.5ZM17.2803 8.71967C17.5732 9.01256 17.5732 9.48744 17.2803 9.78033L15.2803 11.7803C14.9874 12.0732 14.5126 12.0732 14.2197 11.7803L13.2197 10.7803C12.9268 10.4874 12.9268 10.0126 13.2197 9.71967C13.5126 9.42678 13.9874 9.42678 14.2803 9.71967L14.75 10.1893L16.2197 8.71967C16.5126 8.42678 16.9874 8.42678 17.2803 8.71967ZM17.2803 15.2803 15.2803 17.2803C14.9874 17.5732 14.5126 17.5732 14.2197 17.2803L13.2197 16.2803C12.9268 15.9874 12.9268 15.5126 13.2197 15.2197C13.5126 14.9268 13.9874 14.9268 14.2803 15.2197L14.75 15.6893L16.2197 14.2197C16.5126 13.9268 16.9874 13.9268 17.2803 14.2197C17.5732 14.5126 17.5732 14.9874 17.2803 15.2803ZM7 10.25C7 9.83579 7.33579 9.5 7.75 9.5H11.2501C11.6643 9.5 12.0001 9.83579 12.0001 10.25C12.0001 10.6642 11.6643 11 11.2501 11H7.75C7.33579 11 7 10.6642 7 10.25ZM10.25 3.5C9.83579 3.5 9.5 3.83579 9.5 4.25C9.5 4.66421 9.83579 5 10.25 5H13.75C14.1642 5 14.5 4.66421 14.5 4.25C14.5 3.83579 14.1642 3.5 13.75 3.5ZM7.75006 15H11.25C11.6642 15 12 15.3358 12 15.75C12 16.1642 11.6642 16.5 11.25 16.5H7.75006C7.33585 16.5 7.00006 16.1642 7.00006 15.75C7.00006 15.3358 7.33585 15 7.75006 15Z"/></svg>
