<svg xmlns="http://www.w3.org/2000/svg" width="24" height="24" viewBox="0 0 24 24"><path d="M15.9795 3.94469 15.9862 3.99944 17.75 4C18.992599 4 20 5.00736 20 6.25V19.75C20 20.992599 18.992599 22 17.75 22H6.25C5.00736 22 4 20.992599 4 19.75V6.25C4 5.00736 5.00736 4 6.25 4L8.01379 3.99944L8.006 4.08L8.02054 3.94469C8.16953 2.84646 9.11091 2 10.25 2H13.75C14.8891 2 15.8305 2.84646 15.9795 3.94469ZM8 9C7.58579 9 7.25 9.33579 7.25 9.75C7.25 10.1642 7.58579 10.5 8 10.5H16C16.4142 10.5 16.75 10.1642 16.75 9.75C16.75 9.33579 16.4142 9 16 9ZM10 17C9.58579 17 9.25 17.3358 9.25 17.75C9.25 18.1642 9.58579 18.5 10 18.5H16C16.4142 18.5 16.75 18.1642 16.75 17.75C16.75 17.3358 16.4142 17 16 17ZM11.25 13.75C11.25 14.1642 11.5858 14.5 12 14.5H16C16.4142 14.5 16.75 14.1642 16.75 13.75C16.75 13.3358 16.4142 13 16 13H12C11.5858 13 11.25 13.3358 11.25 13.75ZM10.25 3.5C9.83579 3.5 9.5 3.83579 9.5 4.25C9.5 4.66421 9.83579 5 10.25 5H13.75C14.1642 5 14.5 4.66421 14.5 4.25C14.5 3.83579 14.1642 3.5 13.75 3.5Z"/></svg>
