<svg xmlns="http://www.w3.org/2000/svg" width="24" height="24" viewBox="0 0 24 24"><path d="M13.75 2C14.9079 2 15.8616 2.87472 15.9862 3.99944L17.75 4C18.992599 4 20 5.00736 20 6.25V19.75C20 20.992599 18.992599 22 17.75 22H6.25C5.00736 22 4 20.992599 4 19.75V6.25C4 5.00736 5.00736 4 6.25 4L8.01379 3.99944C8.13841 2.87472 9.09205 2 10.25 2ZM17.2803 8.71967C16.9874 8.42678 16.5126 8.42678 16.2197 8.71967L14.75 10.1893L14.2803 9.71967C13.9874 9.42678 13.5126 9.42678 13.2197 9.71967C12.9268 10.0126 12.9268 10.4874 13.2197 10.7803L14.2197 11.7803C14.5126 12.0732 14.9874 12.0732 15.2803 11.7803L17.2803 9.78033C17.5732 9.48744 17.5732 9.01256 17.2803 8.71967ZM17.2803 15.2803C17.5732 14.9874 17.5732 14.5126 17.2803 14.2197C16.9874 13.9268 16.5126 13.9268 16.2197 14.2197L14.75 15.6893L14.2803 15.2197C13.9874 14.9268 13.5126 14.9268 13.2197 15.2197C12.9268 15.5126 12.9268 15.9874 13.2197 16.2803L14.2197 17.2803C14.5126 17.5732 14.9874 17.5732 15.2803 17.2803ZM7 10.25C7 10.6642 7.33579 11 7.75 11H11.2501C11.6643 11 12.0001 10.6642 12.0001 10.25C12.0001 9.83579 11.6643 9.5 11.2501 9.5H7.75C7.33579 9.5 7 9.83579 7 10.25ZM10.25 3.5C9.83579 3.5 9.5 3.83579 9.5 4.25C9.5 4.66421 9.83579 5 10.25 5H13.75C14.1642 5 14.5 4.66421 14.5 4.25C14.5 3.83579 14.1642 3.5 13.75 3.5ZM7.75006 15C7.33585 15 7.00006 15.3358 7.00006 15.75C7.00006 16.1642 7.33585 16.5 7.75006 16.5H11.25C11.6642 16.5 12 16.1642 12 15.75C12 15.3358 11.6642 15 11.25 15Z"/></svg>
