<svg xmlns="http://www.w3.org/2000/svg" width="24" height="24" viewBox="0 0 24 24">
<path d="M3.5 12a8.5 8.5 0 1 1 17 0 8.5 8.5 0 0 1-17 0M12 2C6.477 2 2 6.477 2 12s4.477 10 10 10 10-4.477 10-10S17.523 2 12 2m-.007 4.648a.75.75 0 0 0-1.493.102v6l.007.102a.75.75 0 0 0 .743.648h4l.102-.007A.75.75 0 0 0 15.25 12H12V6.75z"/>
<path d="M13.5 18.0C13.5 15.514719009399414 15.514719009399414 13.5 18.0 13.5C20.485280990600586 13.5 22.5 15.514719009399414 22.5 18.0C22.5 20.485280990600586 20.485280990600586 22.5 18.0 22.5C15.514719009399414 22.5 13.5 20.485280990600586 13.5 18.0Z"/>
<path d="M17.399999618530273 15.5C17.399999618530273 15.168628692626953 17.668628692626953 14.899999618530273 18.0 14.899999618530273C18.331371307373047 14.899999618530273 18.600000381469727 15.168628692626953 18.600000381469727 15.5V17.399999618530273H20.5C20.831371307373047 17.399999618530273 21.100000381469727 17.668628692626953 21.100000381469727 18.0C21.100000381469727 18.331371307373047 20.831371307373047 18.600000381469727 20.5 18.600000381469727H18.600000381469727V20.5C18.600000381469727 20.831371307373047 18.331371307373047 21.100000381469727 18.0 21.100000381469727C17.668628692626953 21.100000381469727 17.399999618530273 20.831371307373047 17.399999618530273 20.5V18.600000381469727H15.5C15.168628692626953 18.600000381469727 14.899999618530273 18.331371307373047 14.899999618530273 18.0C14.899999618530273 17.668628692626953 15.168628692626953 17.399999618530273 15.5 17.399999618530273H17.399999618530273Z"/>
</svg>
