<svg xmlns="http://www.w3.org/2000/svg" width="24" height="24" viewBox="0 0 24 24"><path d="M2.250667 0.489333C2.213333 0.505333 2.161333 0.516 2.114667 0.516C2.068 0.516 2.036 0.526667 2.010667 0.546667C1.989333 0.557333 1.958667 0.573333 1.926667 0.573333C1.901333 0.573333 1.874667 0.584 1.86 0.598667C1.844 0.614667 1.817333 0.625333 1.802667 0.625333C1.786667 0.625333 1.765333 0.636 1.749333 0.650667C1.74 0.666667 1.693333 0.693333 1.656 0.713333C1.614667 0.734667 1.578667 0.76 1.573333 0.770667C1.568 0.781333 1.557333 0.792 1.546667 0.792C1.5 0.792 1.281333 0.994667 1.218667 1.098667C1.202667 1.12 1.172 1.166667 1.14 1.197333C1.114667 1.234667 1.088 1.270667 1.088 1.286667C1.088 1.297333 1.078667 1.317333 1.062667 1.328C1.046667 1.344 1.036 1.364 1.036 1.385333C1.036 1.396 1.021333 1.421333 1.005333 1.437333C0.994667 1.448 0.978667 1.473333 0.978667 1.494667C0.978667 1.510667 0.969333 1.541333 0.953333 1.562667C0.937333 1.584 0.926667 1.62 0.926667 1.645333C0.926667 1.672 0.917333 1.702667 0.901333 1.718667C0.885333 1.74 0.874667 1.781333 0.869333 1.896C0.864 1.978667 0.854667 2.078667 0.844 2.114667C0.833333 2.166667 0.828 2.369333 0.838667 2.890667C0.844 3.281333 0.849333 7.708 0.854667 12.729333C0.854667 17.749333 0.864 21.947999 0.869333 22.051999C0.88 22.202666 0.885333 22.259999 0.901333 22.286666C0.917333 22.302666 0.926667 22.333333 0.926667 22.354666C0.926667 22.369333 0.937333 22.406666 0.953333 22.426666C0.969333 22.447999 0.978667 22.483999 0.978667 22.499999C0.978667 22.515999 0.994667 22.546666 1.005333 22.567999C1.021333 22.583999 1.036 22.614666 1.036 22.635999C1.036 22.650666 1.041333 22.666666 1.052 22.671999C1.057333 22.677333 1.073333 22.707999 1.088 22.739999C1.14 22.843999 1.161333 22.874666 1.229333 22.963999C1.369333 23.150666 1.546667 23.306666 1.745333 23.437333C1.86 23.510666 2.052 23.603999 2.082667 23.603999C2.098667 23.603999 2.109333 23.609333 2.114667 23.619999C2.12 23.625333 2.150667 23.635999 2.188 23.645333C2.224 23.655999 2.281333 23.671999 2.312 23.682666C2.521333 23.745333 2.114667 23.739999 11.984 23.739999C20.250666 23.739999 21.265333 23.739999 21.411999 23.718666C21.895999 23.655999 22.270666 23.469333 22.598666 23.119999C22.707999 23.005333 22.734666 22.973333 22.822666 22.838666C22.958666 22.630666 23.046666 22.406666 23.098666 22.139999L23.130666 21.999999L23.130666 1.984L23.098666 1.849333C23.046666 1.593333 22.969333 1.401333 22.843999 1.202667C22.754666 1.073333 22.515999 0.833333 22.395999 0.749333C22.270666 0.666667 22.082666 0.573333 22.051999 0.573333C22.035999 0.573333 22.010666 0.562667 21.999999 0.552C21.983999 0.541333 21.937333 0.526667 21.890666 0.516C21.843999 0.510667 21.797333 0.494667 21.786666 0.489333C21.765333 0.473333 20.057333 0.469333 12.036 0.469333C2.364 0.464 2.306667 0.464 2.250667 0.489333ZM21.489333 1.812C21.557333 1.833333 21.635999 1.896 21.682666 1.973333C21.718666 2.026667 21.729333 2.062667 21.745333 2.218667C21.765333 2.374667 21.765333 2.426667 21.749333 2.64C21.739999 2.817333 21.739999 3.098667 21.749333 3.749333C21.765333 4.792 21.754666 7.864 21.734666 7.917333C21.729333 7.937333 21.630666 7.953333 21.567999 7.948C21.530666 7.942666 20.655999 7.948 20.469333 7.948C20.415999 7.953333 20.322666 7.948 20.259999 7.942666L20.150666 7.932L20.213333 7.890666C20.245333 7.864 20.291999 7.817333 20.317333 7.781333L20.359999 7.713333L20.359999 3.125333L20.317333 3.057333C20.297333 3.021333 20.250666 2.973333 20.218666 2.948L20.161333 2.906667L19.432 2.912C18.729333 2.917333 18.697333 2.917333 18.666666 2.942667C18.650666 2.953333 18.625333 2.969333 18.614666 2.969333C18.584 2.969333 18.516 3.041333 18.516 3.073333C18.516 3.088 18.505333 3.114667 18.489333 3.130667C18.469333 3.161333 18.469333 3.297333 18.464 5.390667C18.458666 7.593333 18.458666 7.614666 18.484 7.666666C18.5 7.697333 18.516 7.734666 18.516 7.754666C18.516 7.797333 18.593333 7.885333 18.656 7.912C18.697333 7.926666 18.693333 7.926666 18.573333 7.942666C18.510666 7.948 18.437333 7.953333 18.412 7.948C18.354666 7.948 15.24 7.948 15.156 7.948C15.12 7.953333 15.036 7.948 14.969333 7.942666C14.849333 7.926666 14.849333 7.926666 14.890666 7.912C14.937333 7.890666 15.016 7.812 15.052 7.745333C15.073333 7.702666 15.078666 7.578666 15.078666 5.188C15.082666 2.385333 15.088 2.584 14.989333 2.478667C14.958666 2.448 14.926666 2.421333 14.912 2.421333C14.896 2.421333 14.869333 2.412 14.844 2.396C14.806666 2.369333 14.781333 2.369333 14.24 2.369333L13.672 2.369333L13.588 2.426667C13.505333 2.478667 13.448 2.536 13.448 2.568C13.448 2.578667 13.437333 2.609333 13.421333 2.64C13.396 2.702667 13.396 2.74 13.396 5.145333C13.396 7.530666 13.396 7.588 13.421333 7.645333C13.437333 7.672 13.448 7.713333 13.448 7.74C13.448 7.792 13.521333 7.88 13.593333 7.912L13.645333 7.937333L13.541333 7.937333C13.489333 7.937333 13.432 7.942666 13.426666 7.953333C13.416 7.964 13.390666 7.964 13.354666 7.958666C13.292 7.948 11.781333 7.942666 11.265333 7.948C11.114666 7.948 10.901333 7.948 10.786666 7.942666C10.64 7.937333 10.541333 7.937333 10.432 7.953333C10.24 7.973333 9.682666 7.978666 9.666666 7.953333C9.661333 7.942666 9.62 7.937333 9.562666 7.932L9.473333 7.926666L9.869333 7.806666C10.328 7.672 10.364 7.656 10.426666 7.604C10.478666 7.557333 10.536 7.442666 10.536 7.38C10.536 7.333333 10.510666 7.213333 10.453333 7.036C10.432 6.969333 10.385333 6.817333 10.354666 6.702666C10.317333 6.593333 10.270666 6.426667 10.245333 6.344C10.218666 6.26 10.182666 6.145333 10.172 6.098667C10.145333 6.010667 10.057333 5.708 10.005333 5.541333C9.989333 5.489333 9.969333 5.412 9.953333 5.364C9.937333 5.312 9.917333 5.229333 9.896 5.182667C9.88 5.125333 9.86 5.052 9.849333 5.016C9.838666 4.978667 9.817333 4.912 9.802666 4.86C9.786666 4.812 9.749333 4.677333 9.713333 4.568C9.62 4.245333 9.557333 4.036 9.541333 3.994667C9.536 3.973333 9.510666 3.885333 9.489333 3.806667C9.464 3.724 9.416 3.562667 9.385333 3.453333C9.349333 3.338667 9.317333 3.224 9.312 3.193333C9.265333 3 9.208 2.896 9.130666 2.838667C9.073333 2.806667 9.062666 2.802667 8.901333 2.802667C8.754666 2.802667 8.724 2.806667 8.688 2.833333C8.661333 2.849333 8.630666 2.86 8.609333 2.86C8.593333 2.86 8.568 2.869333 8.546666 2.885333C8.526666 2.906667 8.5 2.912 8.464 2.912C8.426666 2.912 8.390666 2.921333 8.364 2.942667C8.338666 2.958667 8.302666 2.969333 8.26 2.969333C8.218666 2.969333 8.188 2.978667 8.161333 2.994667C8.145333 3.010667 8.109333 3.021333 8.088 3.021333C8.036 3.021333 7.969333 3.068 7.869333 3.177333C7.844 3.208 7.838666 3.224 7.838666 3.369333C7.838666 3.505333 7.844 3.536 7.864 3.578667C7.885333 3.609333 7.896 3.650667 7.896 3.666667C7.896 3.688 7.906666 3.724 7.921333 3.754667C7.937333 3.781333 7.948 3.822667 7.948 3.844C7.948 3.869333 7.964 3.906667 7.973333 3.932C7.989333 3.958667 8.005333 4.016 8.010666 4.052C8.010666 4.088 8.026666 4.14 8.036 4.166667C8.046666 4.193333 8.062666 4.24 8.068 4.265333C8.078666 4.297333 8.088 4.338667 8.098666 4.364C8.104 4.385333 8.12 4.432 8.136 4.473333C8.145333 4.510667 8.161333 4.568 8.166666 4.604C8.177333 4.64 8.188 4.688 8.202666 4.702667C8.213333 4.724 8.224 4.749333 8.224 4.765333C8.224 4.797333 8.24 4.854667 8.302666 5.036C8.312 5.073333 8.322666 5.12 8.333333 5.150667C8.338666 5.182667 8.349333 5.208 8.36 5.213333C8.364 5.218667 8.374666 5.254667 8.385333 5.292C8.390666 5.328 8.406666 5.374667 8.416 5.396C8.432 5.421333 8.442666 5.464 8.442666 5.489333C8.442666 5.521333 8.453333 5.562667 8.469333 5.593333C8.484 5.625333 8.494666 5.666667 8.494666 5.693333C8.494666 5.718667 8.505333 5.76 8.521333 5.792C8.536 5.817333 8.546666 5.854667 8.546666 5.88C8.546666 5.901333 8.562666 5.937333 8.578666 5.969333C8.593333 5.994667 8.604 6.030667 8.604 6.057333C8.604 6.078667 8.614666 6.114667 8.630666 6.145333C8.645333 6.172 8.656 6.213333 8.656 6.24C8.656 6.26 8.672 6.306667 8.688 6.344C8.697333 6.374667 8.713333 6.416 8.713333 6.437333C8.713333 6.458667 8.724 6.5 8.74 6.530667C8.754666 6.568 8.765333 6.604 8.765333 6.62C8.765333 6.636 8.776 6.666666 8.786666 6.693333C8.802666 6.713333 8.817333 6.76 8.822666 6.797333C8.828 6.833333 8.844 6.874666 8.854666 6.890666C8.864 6.901333 8.874666 6.932 8.874666 6.964C8.874666 6.994666 8.890666 7.046666 8.901333 7.078666C8.917333 7.109333 8.932 7.150666 8.932 7.172C8.932 7.193333 8.942666 7.234666 8.958666 7.26C8.973333 7.292 8.984 7.328 8.984 7.344C8.984 7.354666 8.994666 7.396 9.010666 7.426666C9.026666 7.458666 9.041333 7.5 9.046666 7.530666C9.052 7.557333 9.062666 7.588 9.073333 7.593333C9.082666 7.609333 9.093333 7.636 9.093333 7.672C9.093333 7.702666 9.098666 7.734666 9.109333 7.74C9.114666 7.745333 9.136 7.776 9.145333 7.806666C9.166666 7.854666 9.188 7.869333 9.24 7.901333L9.312 7.932L9.218666 7.942666C9.172 7.942666 9.104 7.953333 9.073333 7.964C9.036 7.973333 9.005333 7.973333 8.958666 7.958666C8.917333 7.948 8.672 7.942666 8.270666 7.942666C7.734666 7.937333 7.630666 7.942666 7.557333 7.958666C7.464 7.978666 7.333333 7.978666 7.306666 7.953333C7.297333 7.942666 7.250666 7.937333 7.202666 7.937333L7.114666 7.937333L7.177333 7.901333C7.250666 7.864 7.281333 7.828 7.328 7.734666L7.36 7.672L7.36 5.161333C7.36 3.776 7.354666 2.625333 7.349333 2.598667C7.333333 2.536 7.234666 2.421333 7.197333 2.421333C7.182666 2.421333 7.156 2.412 7.136 2.396C7.104 2.369333 7.082666 2.369333 6.526667 2.369333C5.969333 2.369333 5.953333 2.369333 5.926667 2.396C5.917333 2.412 5.890667 2.421333 5.874667 2.421333C5.864 2.421333 5.822667 2.453333 5.786667 2.489333C5.724 2.557333 5.718667 2.562667 5.708 2.656C5.697333 2.792 5.697333 7.364 5.708 7.546666C5.718667 7.677333 5.729333 7.708 5.76 7.770666C5.812 7.864 5.838667 7.890666 5.885333 7.917333L5.926667 7.932L5.86 7.937333C5.822667 7.937333 5.781333 7.942666 5.776 7.953333C5.754667 7.973333 5.609333 7.973333 5.552 7.948C5.516 7.932 5.265333 7.937333 5.068 7.958666C5.010667 7.964 4.973333 7.964 4.964 7.953333C4.958667 7.942666 4.906667 7.937333 4.854667 7.937333L4.754667 7.937333L4.812 7.901333C4.885333 7.864 4.937333 7.806666 4.948 7.76C4.953333 7.74 4.969333 7.713333 4.978667 7.697333C4.994667 7.677333 4.994667 7.286666 4.994667 5.406667L4.994667 3.136L4.958667 3.068C4.942667 3.026667 4.912 2.984 4.890667 2.973333C4.869333 2.964 4.844 2.948 4.833333 2.937333C4.817333 2.917333 4.749333 2.912 4.302667 2.912L3.786667 2.912L3.724 2.969333C3.688 3.005333 3.645333 3.057333 3.630667 3.093333L3.593333 3.156L3.593333 5.396C3.593333 7.604 3.593333 7.630666 3.62 7.682666C3.636 7.708 3.645333 7.745333 3.645333 7.765333C3.645333 7.806666 3.702667 7.874666 3.770667 7.912L3.817333 7.937333L3.734667 7.937333C3.693333 7.937333 3.645333 7.942666 3.64 7.953333C3.630667 7.964 3.593333 7.964 3.536 7.958666C3.464 7.948 2.609333 7.942666 2.396 7.953333C2.36 7.953333 2.312 7.948 2.281333 7.942666L2.224 7.926666L2.224 5.026667C2.218667 2.182667 2.218667 2.12 2.245333 2.046667C2.286667 1.932 2.36 1.86 2.469333 1.812C2.526667 1.792 21.406666 1.792 21.489333 1.812ZM21.718666 9.333333C21.729333 9.338666 21.739999 9.354666 21.739999 9.364C21.739999 9.38 21.749333 9.406666 21.759999 9.426666C21.786666 9.478666 21.786666 9.573333 21.759999 9.666666C21.745333 9.718666 21.739999 9.76 21.745333 9.812C21.759999 9.901333 21.759999 12.88 21.745333 13.906666C21.739999 14.344 21.739999 14.614666 21.749333 14.661333C21.759999 14.713333 21.759999 14.76 21.749333 14.817333L21.734666 14.896L21.661333 14.917333C21.619999 14.926666 21.578666 14.926666 21.541333 14.921333C21.453333 14.901333 20.119999 14.901333 20.073333 14.921333C20.046666 14.932 19.942666 14.942666 19.833333 14.942666C19.661333 14.948 19.636 14.948 19.614666 14.926666C19.598666 14.912 19.568 14.906666 19.521333 14.906666L19.448 14.906666L19.584 14.817333C19.656 14.770666 19.838666 14.656 19.984 14.562666C20.343999 14.338666 20.369333 14.306666 20.369333 14.136C20.369333 14.030666 20.359999 14.005333 20.245333 13.828C20.155999 13.682666 20.015999 13.464 19.88 13.24C19.754666 13.036 19.688 12.926666 19.630666 12.833333C19.516 12.650666 19.338666 12.369333 19.26 12.24C19.161333 12.082666 18.86 11.593333 18.806666 11.516C18.792 11.489333 18.74 11.406666 18.688 11.328C18.64 11.254666 18.588 11.166666 18.568 11.136C18.546666 11.098666 18.521333 11.062666 18.516 11.052C18.510666 11.030666 18.374666 10.817333 18.322666 10.74C18.302666 10.713333 18.270666 10.656 18.245333 10.614666C18 10.213333 17.917333 10.098666 17.874666 10.098666C17.864 10.098666 17.844 10.093333 17.828 10.082666C17.776 10.046666 17.724 10.041333 17.666666 10.073333C17.64 10.088 17.604 10.098666 17.588 10.098666C17.573333 10.098666 17.541333 10.114666 17.526666 10.130666C17.505333 10.14 17.478666 10.156 17.464 10.156C17.453333 10.156 17.432 10.166666 17.426666 10.177333C17.416 10.197333 17.38 10.218666 17.306666 10.254666C17.286666 10.270666 17.26 10.286666 17.254666 10.297333C17.254666 10.306666 17.218666 10.328 17.177333 10.349333C17.136 10.369333 17.098666 10.396 17.093333 10.406666C17.088 10.421333 17.073333 10.426666 17.052 10.426666C17.036 10.426666 17.010666 10.437333 16.994666 10.453333C16.978666 10.469333 16.942666 10.494666 16.901333 10.516C16.869333 10.530666 16.812 10.578666 16.781333 10.609333C16.729333 10.666666 16.718666 10.688 16.713333 10.745333C16.697333 10.844 16.697333 10.844 16.708 10.937333C16.718666 11.026666 16.765333 11.109333 17.046666 11.541333C17.093333 11.609333 17.136 11.682666 17.161333 11.729333C17.193333 11.786666 17.421333 12.150666 17.478666 12.24C17.530666 12.317333 17.546666 12.344 17.614666 12.458666C17.636 12.5 17.666666 12.541333 17.677333 12.552C17.688 12.562666 17.697333 12.573333 17.697333 12.578666C17.697333 12.598666 17.770666 12.708 17.786666 12.718666C17.797333 12.724 17.806666 12.74 17.806666 12.749333C17.806666 12.770666 17.906666 12.932 17.973333 13.021333C18 13.057333 18.026666 13.093333 18.026666 13.098666C18.026666 13.109333 18.036 13.130666 18.052 13.150666C18.068 13.166666 18.078666 13.188 18.078666 13.193333C18.078666 13.202666 18.104 13.24 18.130666 13.286666C18.161333 13.328 18.188 13.369333 18.188 13.374666C18.188 13.385333 18.197333 13.401333 18.213333 13.416C18.229333 13.426666 18.24 13.448 18.24 13.453333C18.24 13.464 18.265333 13.505333 18.297333 13.552C18.322666 13.598666 18.369333 13.672 18.401333 13.718666C18.426666 13.765333 18.469333 13.822666 18.484 13.844C18.5 13.864 18.516 13.890666 18.516 13.896C18.516 13.901333 18.536 13.942666 18.568 13.984C18.598666 14.026666 18.625333 14.068 18.625333 14.073333C18.625333 14.078666 18.636 14.104 18.656 14.130666C18.693333 14.188 18.958666 14.598666 18.994666 14.666666C19.036 14.729333 19.098666 14.806666 19.150666 14.86L19.197333 14.906666L19.150666 14.906666C19.125333 14.906666 19.098666 14.912 19.098666 14.921333C19.088 14.948 18.917333 14.953333 18.817333 14.926666C18.688 14.901333 16.781333 14.901333 16.661333 14.926666C16.562666 14.953333 16.442666 14.953333 16.412 14.926666C16.396 14.917333 16.354666 14.906666 16.306666 14.906666C16.245333 14.906666 16.24 14.901333 16.26 14.890666C16.354666 14.828 16.426666 14.74 16.448 14.650666C16.453333 14.625333 16.458666 13.584 16.458666 12.349333C16.458666 9.828 16.469333 10.010666 16.36 9.890666C16.322666 9.849333 16.297333 9.828 16.270666 9.828C16.250666 9.828 16.213333 9.817333 16.193333 9.802666C16.150666 9.776 16.125333 9.776 15.078666 9.776L14.005333 9.776L13.942666 9.812C13.906666 9.833333 13.874666 9.854666 13.869333 9.854666C13.869333 9.86 13.849333 9.874666 13.828 9.885333C13.806666 9.901333 13.786666 9.921333 13.781333 9.932C13.776 9.948 13.76 9.973333 13.745333 9.989333C13.724 10.021333 13.724 10.114666 13.724 12.338666C13.724 14.630666 13.724 14.650666 13.749333 14.682666C13.765333 14.702666 13.776 14.729333 13.776 14.74C13.776 14.770666 13.838666 14.838666 13.896 14.874666L13.948 14.906666L13.890666 14.906666C13.86 14.906666 13.817333 14.917333 13.797333 14.926666C13.745333 14.953333 13.609333 14.953333 13.536 14.926666C13.464 14.901333 13.082666 14.901333 13.005333 14.926666C12.937333 14.953333 12.812 14.953333 12.765333 14.926666C12.745333 14.917333 12.693333 14.906666 12.645333 14.906666L12.573333 14.906666L12.62 14.88C12.682666 14.849333 12.729333 14.792 12.770666 14.708L12.802666 14.64L12.802666 10.489333L12.765333 10.412C12.729333 10.338666 12.650666 10.265333 12.604 10.265333C12.593333 10.265333 12.568 10.250666 12.546666 10.24C12.505333 10.213333 12.478666 10.208 11.708 10.208C10.926666 10.208 10.906666 10.208 10.885333 10.24C10.869333 10.250666 10.849333 10.265333 10.844 10.265333C10.812 10.265333 10.734666 10.338666 10.702666 10.401333C10.636 10.552 10.636 10.448 10.636 12.530666C10.630666 14.234666 10.636 14.473333 10.650666 14.541333C10.661333 14.588 10.672 14.64 10.672 14.666666C10.672 14.693333 10.682666 14.718666 10.697333 14.734666C10.713333 14.749333 10.729333 14.770666 10.729333 14.792C10.734666 14.806666 10.76 14.833333 10.797333 14.86L10.864 14.906666L10.786666 14.912C10.74 14.912 10.682666 14.921333 10.650666 14.932C10.609333 14.942666 10.578666 14.942666 10.521333 14.926666C10.437333 14.912 9.36 14.912 9.172 14.926666C9.098666 14.932 9.057333 14.932 9.046666 14.921333C9.041333 14.912 8.989333 14.906666 8.937333 14.906666C8.86 14.906666 8.844 14.901333 8.869333 14.890666C8.937333 14.844 9.005333 14.770666 9.036 14.702666L9.073333 14.625333L9.073333 14.213333C9.073333 13.812 9.073333 13.792 9.041333 13.729333C9.005333 13.650666 8.948 13.584 8.917333 13.584C8.901333 13.584 8.88 13.573333 8.869333 13.562666C8.844 13.541333 8.702666 13.536 6.344 13.536C3.86 13.530666 3.844 13.530666 3.806667 13.557333C3.786667 13.573333 3.76 13.584 3.749333 13.584C3.718667 13.584 3.645333 13.661333 3.645333 13.697333C3.645333 13.713333 3.636 13.74 3.625333 13.754666C3.604 13.776 3.598667 13.822666 3.598667 14.182666C3.593333 14.562666 3.593333 14.584 3.62 14.636C3.636 14.666666 3.645333 14.702666 3.645333 14.724C3.645333 14.770666 3.688 14.822666 3.754667 14.869333L3.817333 14.906666L3.724 14.906666C3.672 14.906666 3.36 14.912 3.036 14.917333C2.708 14.917333 2.416 14.921333 2.390667 14.921333C2.36 14.921333 2.312 14.917333 2.281333 14.912L2.224 14.901333L2.224 12.12L2.218667 9.338666L2.254667 9.333333C2.317333 9.322666 21.693333 9.322666 21.718666 9.333333ZM21.718666 16.302666C21.729333 16.306666 21.739999 16.322666 21.739999 16.344C21.739999 16.36 21.749333 16.390666 21.759999 16.412C21.786666 16.464 21.786666 16.530666 21.759999 16.625333C21.745333 16.677333 21.739999 16.724 21.745333 16.797333C21.754666 16.906666 21.754666 20.275999 21.745333 21.202666C21.739999 21.885333 21.734666 21.989333 21.697333 22.035999C21.682666 22.057333 21.671999 22.078666 21.671999 22.087999C21.671999 22.109333 21.551999 22.229333 21.499999 22.259999C21.469333 22.275999 21.411999 22.297333 21.374666 22.306666C21.333333 22.311999 21.270666 22.327999 21.245333 22.338666C21.177333 22.354666 20.401333 22.354666 20.343999 22.338666C20.322666 22.333333 20.270666 22.322666 20.234666 22.322666C20.166666 22.317333 20.114666 22.297333 20.161333 22.297333C20.207999 22.297333 20.297333 22.213333 20.333333 22.139999L20.369333 22.062666L20.374666 21.671999C20.379999 21.327999 20.374666 21.270666 20.359999 21.239999L20.338666 21.207999L19.541333 21.207999C18.64 21.207999 18.702666 21.202666 18.672 21.327999C18.656 21.379999 18.656 21.431999 18.666666 21.535999C18.672 21.614666 18.677333 21.775999 18.677333 21.895999C18.677333 22.087999 18.682666 22.114666 18.702666 22.145333C18.718666 22.161333 18.729333 22.187999 18.729333 22.197333C18.729333 22.218666 18.781333 22.259999 18.833333 22.286666L18.874666 22.311999L18.828 22.311999C18.802666 22.311999 18.754666 22.322666 18.724 22.333333C18.661333 22.354666 18.489333 22.359999 18.437333 22.338666C18.416 22.327999 18.364 22.322666 18.322666 22.322666C18.276 22.317333 18.24 22.317333 18.24 22.311999C18.245333 22.306666 18.270666 22.286666 18.302666 22.270666C18.349333 22.245333 18.369333 22.213333 18.401333 22.150666L18.448 22.062666L18.448 20.661333C18.448 19.401333 18.442666 19.254666 18.421333 19.234666C18.406666 19.213333 18.369333 19.208 17.921333 19.218666C17.38 19.229333 17.234666 19.229333 16.745333 19.213333L16.396 19.202666L16.354666 19.250666C16.317333 19.292 16.317333 19.297333 16.317333 19.396C16.322666 19.453333 16.322666 20.087999 16.328 20.806666C16.333333 21.963999 16.338666 22.114666 16.36 22.135999C16.369333 22.150666 16.390666 22.182666 16.401333 22.207999C16.416 22.229333 16.442666 22.265333 16.469333 22.281333C16.494666 22.297333 16.510666 22.311999 16.505333 22.311999C16.5 22.311999 16.453333 22.317333 16.401333 22.333333C16.306666 22.349333 15.729333 22.349333 14.484 22.338666C14.369333 22.333333 14.136 22.343999 13.964 22.349333C13.688 22.363999 13.645333 22.363999 13.62 22.343999C13.598666 22.333333 13.552 22.327999 13.510666 22.327999C13.464 22.327999 13.437333 22.317333 13.442666 22.311999C13.458666 22.302666 14.161333 21.999999 14.177333 21.999999C14.182666 21.999999 14.218666 21.978666 14.26 21.953333C14.354666 21.890666 14.406666 21.806666 14.412 21.693333C14.421333 21.598666 14.421333 21.609333 14.202666 21.087999C14.161333 20.983999 14.104 20.838666 14.068 20.759999C14.016 20.625333 13.937333 20.447999 13.912 20.385333C13.874666 20.297333 13.765333 20.035999 13.62 19.677333C13.510666 19.406666 13.437333 19.229333 13.421333 19.202666C13.416 19.193333 13.401333 19.156 13.390666 19.130666C13.364 19.062666 13.229333 18.729333 13.188 18.630666C13.177333 18.604 13.150666 18.546666 13.130666 18.494666C13.093333 18.406666 13.062666 18.333333 12.989333 18.166666C12.942666 18.068 12.906666 17.978666 12.896 17.942666C12.890666 17.921333 12.88 17.901333 12.869333 17.885333C12.86 17.874666 12.849333 17.854666 12.849333 17.833333C12.844 17.812 12.797333 17.702666 12.749333 17.584C12.666666 17.38 12.609333 17.286666 12.573333 17.286666C12.562666 17.286666 12.541333 17.276 12.521333 17.26C12.473333 17.224 12.369333 17.224 12.312 17.26C12.292 17.276 12.250666 17.286666 12.218666 17.286666C12.188 17.286666 12.156 17.302666 12.136 17.317333C12.114666 17.333333 12.078666 17.344 12.052 17.344C12.021333 17.344 12 17.354666 11.984 17.369333C11.969333 17.385333 11.942666 17.396 11.921333 17.396C11.906666 17.396 11.874666 17.412 11.86 17.426666C11.838666 17.437333 11.817333 17.453333 11.802666 17.453333C11.792 17.453333 11.765333 17.464 11.74 17.478666C11.718666 17.494666 11.682666 17.505333 11.666666 17.505333C11.645333 17.505333 11.62 17.521333 11.604 17.530666C11.593333 17.546666 11.568 17.562666 11.546666 17.562666C11.530666 17.562666 11.5 17.573333 11.478666 17.588C11.458666 17.604 11.437333 17.614666 11.426666 17.614666C11.401333 17.614666 11.328 17.688 11.328 17.713333C11.328 17.724 11.312 17.749333 11.297333 17.770666C11.26 17.828 11.26 17.942666 11.297333 18.016C11.312 18.041333 11.328 18.073333 11.328 18.082666C11.328 18.098666 11.338666 18.130666 11.354666 18.161333C11.426666 18.302666 11.437333 18.322666 11.437333 18.349333C11.437333 18.36 11.448 18.390666 11.464 18.412C11.478666 18.432 11.489333 18.469333 11.489333 18.478666C11.489333 18.5 11.5 18.526666 11.516 18.546666C11.530666 18.562666 11.541333 18.588 11.541333 18.604C11.541333 18.614666 11.557333 18.656 11.573333 18.688C11.588 18.724 11.614666 18.781333 11.630666 18.812C11.645333 18.849333 11.666666 18.896 11.682666 18.926666C11.697333 18.953333 11.708 18.984 11.708 19C11.708 19.016 11.718666 19.046666 11.734666 19.068C11.749333 19.093333 11.76 19.125333 11.76 19.14C11.76 19.150666 11.776 19.177333 11.786666 19.197333C11.802666 19.218666 11.817333 19.245333 11.817333 19.26C11.817333 19.270666 11.828 19.302666 11.844 19.322666C11.86 19.344 11.869333 19.38 11.869333 19.396C11.869333 19.412 11.885333 19.437333 11.896 19.458666C11.912 19.473333 11.926666 19.505333 11.926666 19.526666C11.926666 19.541333 11.937333 19.573333 11.953333 19.598666C11.964 19.62 11.978666 19.656 11.984 19.682666C11.989333 19.702666 12.005333 19.729333 12.016 19.74C12.026666 19.749333 12.036 19.765333 12.036 19.781333C12.036 19.797333 12.046666 19.833333 12.062666 19.864C12.078666 19.890666 12.098666 19.942666 12.114666 19.969333C12.130666 19.999999 12.14 20.035999 12.14 20.046666C12.14 20.062666 12.156 20.087999 12.172 20.114666C12.188 20.135999 12.197333 20.166666 12.197333 20.182666C12.197333 20.197333 12.213333 20.239999 12.229333 20.275999C12.250666 20.311999 12.265333 20.354666 12.265333 20.359999C12.265333 20.369333 12.276 20.385333 12.286666 20.390666C12.297333 20.401333 12.306666 20.421333 12.306666 20.442666C12.306666 20.458666 12.317333 20.483999 12.333333 20.499999C12.349333 20.521333 12.36 20.546666 12.36 20.567999C12.36 20.583999 12.374666 20.619999 12.385333 20.639999C12.401333 20.666666 12.416 20.702666 12.421333 20.729333C12.426666 20.749333 12.437333 20.781333 12.453333 20.786666C12.464 20.797333 12.469333 20.817333 12.469333 20.833333C12.469333 20.849333 12.484 20.879999 12.494666 20.901333C12.510666 20.926666 12.526666 20.963999 12.530666 20.989333C12.536 21.010666 12.546666 21.035999 12.557333 21.046666C12.573333 21.057333 12.578666 21.078666 12.578666 21.093333C12.578666 21.109333 12.588 21.145333 12.604 21.171999C12.62 21.197333 12.636 21.229333 12.636 21.239999C12.636 21.250666 12.645333 21.281333 12.661333 21.306666C12.677333 21.333333 12.688 21.369333 12.688 21.379999C12.688 21.385333 12.697333 21.411999 12.713333 21.431999C12.729333 21.447999 12.74 21.473333 12.74 21.489333C12.74 21.505333 12.754666 21.530666 12.770666 21.557333C12.786666 21.578666 12.797333 21.609333 12.797333 21.625333C12.797333 21.639999 12.806666 21.671999 12.822666 21.693333C12.833333 21.713333 12.849333 21.749333 12.854666 21.765333C12.864 21.817333 12.926666 21.958666 12.942666 21.973333C12.953333 21.983999 12.958666 21.999999 12.958666 22.015999C12.958666 22.026666 12.978666 22.073333 13 22.125333C13.036 22.202666 13.088 22.265333 13.156 22.306666C13.177333 22.317333 13.172 22.322666 13.109333 22.322666C13.073333 22.327999 13.026666 22.333333 13.016 22.338666C12.984 22.349333 10.584 22.343999 10.469333 22.327999L10.38 22.317333L10.421333 22.297333C10.448 22.281333 10.484 22.250666 10.5 22.223999C10.578666 22.125333 10.578666 22.254666 10.578666 19.656C10.578666 17.530666 10.578666 17.26 10.557333 17.213333C10.526666 17.136 10.489333 17.098666 10.406666 17.052L10.328 17.016L9.754666 17.016C9.208 17.016 9.182666 17.016 9.14 17.041333C9.12 17.057333 9.088 17.073333 9.078666 17.073333C9.026666 17.073333 8.948 17.161333 8.917333 17.254666L8.890666 17.344L8.890666 19.702666C8.890666 21.754666 8.896 22.062666 8.912 22.087999C8.921333 22.098666 8.932 22.130666 8.932 22.150666C8.932 22.187999 9 22.281333 9.041333 22.291999C9.078666 22.306666 9.073333 22.317333 9.021333 22.322666C8.958666 22.327999 8.426666 22.338666 8.317333 22.343999C8.202666 22.343999 8.005333 22.322666 8.005333 22.311999C8.005333 22.306666 8.026666 22.297333 8.046666 22.281333C8.109333 22.254666 8.161333 22.171999 8.188 22.073333C8.208 21.999999 8.208 21.797333 8.208 20.411999C8.202666 18.890666 8.202666 18.833333 8.177333 18.786666C8.130666 18.702666 8.093333 18.666666 8.052 18.650666C8.026666 18.64 8 18.625333 7.989333 18.614666C7.973333 18.598666 7.88 18.593333 7.36 18.593333C6.770666 18.593333 6.745333 18.598666 6.702666 18.625333C6.682666 18.636 6.650667 18.650666 6.64 18.650666C6.609333 18.650666 6.536 18.718666 6.536 18.745333C6.536 18.749333 6.521333 18.781333 6.505333 18.806666C6.478667 18.86 6.478667 18.885333 6.478667 20.447999C6.478667 22.005333 6.478667 22.035999 6.505333 22.082666C6.521333 22.109333 6.536 22.150666 6.536 22.166666C6.536 22.197333 6.584 22.259999 6.64 22.297333C6.672 22.317333 6.672 22.317333 6.593333 22.322666C6.552 22.322666 6.489333 22.333333 6.464 22.343999C6.421333 22.354666 6.369333 22.354666 6.24 22.338666C6.098667 22.327999 6.046667 22.327999 5.921333 22.338666C5.797333 22.354666 5.76 22.354666 5.718667 22.338666C5.693333 22.327999 5.64 22.322666 5.604 22.322666C5.568 22.322666 5.541333 22.317333 5.541333 22.311999C5.541333 22.306666 5.562667 22.291999 5.584 22.275999C5.656 22.234666 5.702667 22.155999 5.718667 22.046666C5.729333 21.978666 5.729333 21.338666 5.724 19.817333C5.718667 17.745333 5.718667 17.677333 5.693333 17.625333C5.656 17.546666 5.64 17.530666 5.557333 17.489333L5.484 17.453333L3.838667 17.453333L3.781333 17.484C3.713333 17.521333 3.645333 17.578666 3.645333 17.604C3.645333 17.614666 3.636 17.64 3.62 17.661333C3.593333 17.702666 3.593333 17.729333 3.593333 19.88C3.593333 21.729333 3.598667 22.067999 3.614667 22.087999C3.625333 22.103999 3.64 22.139999 3.645333 22.171999C3.661333 22.223999 3.693333 22.259999 3.765333 22.306666C3.786667 22.322666 3.786667 22.322666 3.749333 22.317333C3.729333 22.317333 3.682667 22.322666 3.645333 22.327999C3.614667 22.333333 3.412 22.343999 3.197333 22.343999C2.806667 22.349333 2.770667 22.349333 2.588 22.297333C2.562667 22.291999 2.494667 22.259999 2.442667 22.229333C2.349333 22.177333 2.344 22.171999 2.286667 22.057333L2.224 21.937333L2.224 19.125333L2.218667 16.312L2.26 16.302666C2.338667 16.297333 21.693333 16.292 21.718666 16.302666Z"/><path d="M4.254667 11.697333C4.245333 11.713333 4.218667 11.729333 4.197333 11.734666C4.150667 11.749333 4.082667 11.854666 4.082667 11.906666C4.082667 11.926666 4.073333 11.969333 4.062667 12C4.036 12.078666 4.036 12.650666 4.062667 12.745333C4.073333 12.786666 4.088 12.833333 4.088 12.854666C4.098667 12.906666 4.156 12.969333 4.224 13.005333L4.281333 13.036L6.302667 13.036C7.666666 13.041333 8.338666 13.036 8.374666 13.026666C8.453333 13.005333 8.536 12.937333 8.578666 12.86L8.609333 12.792L8.609333 11.901333L8.562666 11.828C8.536 11.781333 8.505333 11.745333 8.494666 11.74C8.478666 11.74 8.458666 11.724 8.442666 11.708C8.406666 11.682666 8.38 11.682666 6.344 11.682666C4.5 11.682666 4.276 11.682666 4.254667 11.697333Z"/><path d="M18.890666 17.041333C18.869333 17.057333 18.844 17.073333 18.828 17.073333C18.812 17.073333 18.776 17.104 18.74 17.14C18.677333 17.208 18.677333 17.213333 18.677333 17.302666C18.677333 17.349333 18.677333 17.833333 18.677333 18.38C18.677333 18.921333 18.672 19.636 18.677333 19.958666C18.677333 20.541333 18.677333 20.557333 18.702666 20.583999C18.729333 20.609333 18.745333 20.609333 19.541333 20.609333C19.984 20.603999 20.354666 20.598666 20.359999 20.593333C20.363999 20.587999 20.369333 19.833333 20.363999 18.921333C20.363999 17.588 20.359999 17.250666 20.343999 17.213333C20.322666 17.156 20.245333 17.073333 20.218666 17.073333C20.202666 17.073333 20.177333 17.057333 20.155999 17.041333C20.114666 17.016 20.087999 17.016 19.521333 17.016C18.948 17.016 18.926666 17.016 18.890666 17.041333Z"/><path d="M16.557333 17.478666C16.536 17.494666 16.510666 17.505333 16.494666 17.505333C16.478666 17.505333 16.442666 17.536 16.406666 17.573333L16.344 17.636L16.333333 18.026666C16.328 18.24 16.317333 18.442666 16.317333 18.478666C16.306666 18.516 16.312 18.557333 16.322666 18.584L16.338666 18.625333L17.390666 18.62L18.437333 18.614666L18.442666 18.161333C18.448 17.718666 18.448 17.708 18.416 17.645333C18.374666 17.562666 18.328 17.505333 18.297333 17.505333C18.281333 17.505333 18.26 17.494666 18.24 17.478666C18.208 17.453333 18.193333 17.453333 17.401333 17.453333C16.614666 17.453333 16.588 17.453333 16.557333 17.478666Z"/></svg>
