<svg xmlns="http://www.w3.org/2000/svg" width="24" height="24" viewBox="0 0 24 24"><path d="M2.250667 0.489333C2.306667 0.464 2.364 0.464 12.036 0.469333C20.057333 0.469333 21.765333 0.473333 21.786667 0.489333C21.797333 0.494667 21.844 0.510667 21.890665 0.516C21.937332 0.526667 21.983999 0.541333 21.999998 0.552C22.010666 0.562667 22.035999 0.573333 22.051998 0.573333C22.082666 0.573333 22.270666 0.666667 22.396 0.749333C22.515999 0.833333 22.754665 1.073333 22.844 1.202667C22.969334 1.401333 23.046665 1.593333 23.098665 1.849333L23.130667 1.984V21.999998L23.098665 22.139999C23.046665 22.406666 22.958666 22.630667 22.822666 22.838667C22.734667 22.973333 22.707998 23.005333 22.598665 23.119999C22.270666 23.469334 21.896 23.655998 21.411999 23.718666C21.265333 23.74 20.250666 23.74 11.984 23.74C11.207561 23.74 10.494724 23.740032 9.840183 23.740063C2.660703 23.740395 2.49515 23.740404 2.344541 23.692965C2.334348 23.689754 2.324225 23.686327 2.312 23.682667C2.281333 23.671999 2.224 23.655998 2.188 23.645332C2.150667 23.636 2.12 23.625334 2.114667 23.619999C2.109333 23.609333 2.098667 23.603998 2.082667 23.603998C2.052 23.603998 1.86 23.510666 1.745333 23.437332C1.546667 23.306665 1.369333 23.150665 1.229333 22.963999C1.161333 22.874666 1.14 22.844 1.088 22.74C1.073333 22.707998 1.057333 22.677334 1.052 22.671999C1.041333 22.666666 1.036 22.650665 1.036 22.636C1.036 22.614666 1.021333 22.584 1.005333 22.567999C0.994667 22.546665 0.978667 22.515999 0.978667 22.499998C0.978667 22.483999 0.969333 22.447998 0.953333 22.426666C0.937333 22.406666 0.926667 22.369333 0.926667 22.354666C0.926667 22.333332 0.917333 22.302666 0.901333 22.286667C0.885333 22.259998 0.88 22.202665 0.869333 22.051998C0.864 21.947998 0.854667 17.749332 0.854667 12.729333C0.849333 7.708 0.844 3.281333 0.838667 2.890667C0.828 2.369333 0.833333 2.166667 0.844 2.114667C0.854667 2.078667 0.864 1.978667 0.869333 1.896C0.874667 1.781333 0.885333 1.74 0.901333 1.718667C0.917333 1.702667 0.926667 1.672 0.926667 1.645333C0.926667 1.62 0.937333 1.584 0.953333 1.562667C0.969333 1.541333 0.978667 1.510667 0.978667 1.494667C0.978667 1.473333 0.994667 1.448 1.005333 1.437333C1.021333 1.421333 1.036 1.396 1.036 1.385333C1.036 1.364 1.046667 1.344 1.062667 1.328C1.078667 1.317333 1.088 1.297333 1.088 1.286667C1.088 1.270667 1.114667 1.234667 1.14 1.197333C1.172 1.166667 1.202667 1.12 1.218667 1.098667C1.281333 0.994667 1.5 0.792 1.546667 0.792C1.557333 0.792 1.568 0.781333 1.573333 0.770667C1.578667 0.76 1.614667 0.734667 1.656 0.713333C1.693333 0.693333 1.74 0.666667 1.749333 0.650667C1.765333 0.636 1.786667 0.625333 1.802667 0.625333C1.817333 0.625333 1.844 0.614667 1.86 0.598667C1.874667 0.584 1.901333 0.573333 1.926667 0.573333C1.958667 0.573333 1.989333 0.557333 2.010667 0.546667C2.036 0.526667 2.068 0.516 2.114667 0.516C2.161333 0.516 2.213333 0.505333 2.250667 0.489333ZM21.489332 1.812C21.406666 1.792 2.526667 1.792 2.469333 1.812C2.36 1.86 2.286667 1.932 2.245333 2.046667C2.218667 2.12 2.218667 2.182667 2.224 5.026667V7.926666L2.281333 7.942666C2.312 7.948 2.36 7.953333 2.396 7.953333C2.609333 7.942666 3.464 7.948 3.536 7.958666C3.593333 7.964 3.630667 7.964 3.64 7.953333C3.645333 7.942666 3.693333 7.937333 3.734667 7.937333H3.817333L3.770667 7.912C3.702667 7.874666 3.645333 7.806666 3.645333 7.765333C3.645333 7.745333 3.636 7.708 3.62 7.682666C3.593333 7.630666 3.593333 7.604 3.593333 5.396V3.156L3.630667 3.093333C3.645333 3.057333 3.688 3.005333 3.724 2.969333L3.786667 2.912H4.302667C4.749333 2.912 4.817333 2.917333 4.833333 2.937333C4.844 2.948 4.869333 2.964 4.890667 2.973333C4.912 2.984 4.942667 3.026667 4.958667 3.068L4.994667 3.136V5.406667C4.994667 7.286666 4.994667 7.677333 4.978667 7.697333C4.969333 7.713333 4.953333 7.74 4.948 7.76C4.937333 7.806666 4.885333 7.864 4.812 7.901333L4.754667 7.937333H4.854667C4.906667 7.937333 4.958667 7.942666 4.964 7.953333C4.973333 7.964 5.010667 7.964 5.068 7.958666C5.265333 7.937333 5.516 7.932 5.552 7.948C5.609333 7.973333 5.754667 7.973333 5.776 7.953333C5.781333 7.942666 5.822667 7.937333 5.86 7.937333L5.926667 7.932L5.885333 7.917333C5.838667 7.890666 5.812 7.864 5.76 7.770666C5.729333 7.708 5.718667 7.677333 5.708 7.546666C5.697333 7.364 5.697333 2.792 5.708 2.656C5.718667 2.562667 5.724 2.557333 5.786667 2.489333C5.822667 2.453333 5.864 2.421333 5.874667 2.421333C5.890667 2.421333 5.917333 2.412 5.926667 2.396C5.953333 2.369333 5.969333 2.369333 6.526667 2.369333C7.082666 2.369333 7.104 2.369333 7.136 2.396C7.156 2.412 7.182666 2.421333 7.197333 2.421333C7.234666 2.421333 7.333333 2.536 7.349333 2.598667C7.354666 2.625333 7.36 3.776 7.36 5.161333V7.672L7.328 7.734666C7.281333 7.828 7.250666 7.864 7.177333 7.901333L7.114666 7.937333H7.202666C7.250666 7.937333 7.297333 7.942666 7.306666 7.953333C7.333333 7.978666 7.464 7.978666 7.557333 7.958666C7.630666 7.942666 7.734666 7.937333 8.270666 7.942666C8.672 7.942666 8.917333 7.948 8.958666 7.958666C9.005333 7.973333 9.036 7.973333 9.073333 7.964C9.104 7.953333 9.172 7.942666 9.218666 7.942666L9.312 7.932L9.24 7.901333C9.188 7.869333 9.166666 7.854666 9.145333 7.806666C9.136 7.776 9.114666 7.745333 9.109333 7.74C9.098666 7.734666 9.093333 7.702666 9.093333 7.672C9.093333 7.636 9.082666 7.609333 9.073333 7.593333C9.062666 7.588 9.052 7.557333 9.046666 7.530666C9.041333 7.5 9.026666 7.458666 9.010666 7.426666C8.994666 7.396 8.984 7.354666 8.984 7.344C8.984 7.328 8.973333 7.292 8.958666 7.26C8.942666 7.234666 8.932 7.193333 8.932 7.172C8.932 7.150666 8.917333 7.109333 8.901333 7.078666C8.890666 7.046666 8.874666 6.994666 8.874666 6.964C8.874666 6.932 8.864 6.901333 8.854666 6.890666C8.844 6.874666 8.828 6.833333 8.822666 6.797333C8.817333 6.76 8.802666 6.713333 8.786666 6.693333C8.776 6.666666 8.765333 6.636 8.765333 6.62C8.765333 6.604 8.754666 6.568 8.74 6.530667C8.724 6.5 8.713333 6.458667 8.713333 6.437333C8.713333 6.416 8.697333 6.374667 8.688 6.344C8.672 6.306667 8.656 6.26 8.656 6.24C8.656 6.213333 8.645333 6.172 8.630666 6.145333C8.614666 6.114667 8.604 6.078667 8.604 6.057333C8.604 6.030667 8.593333 5.994667 8.578666 5.969333C8.562666 5.937333 8.546666 5.901333 8.546666 5.88C8.546666 5.854667 8.536 5.817333 8.521333 5.792C8.505333 5.76 8.494666 5.718667 8.494666 5.693333C8.494666 5.666667 8.484 5.625333 8.469333 5.593333C8.453333 5.562667 8.442666 5.521333 8.442666 5.489333C8.442666 5.464 8.432 5.421333 8.416 5.396C8.406666 5.374667 8.390666 5.328 8.385333 5.292C8.374666 5.254667 8.364 5.218667 8.36 5.213333C8.349333 5.208 8.338666 5.182667 8.333333 5.150667C8.322666 5.12 8.312 5.073333 8.302666 5.036C8.24 4.854667 8.224 4.797333 8.224 4.765333C8.224 4.749333 8.213333 4.724 8.202666 4.702667C8.188 4.688 8.177333 4.64 8.166666 4.604C8.161333 4.568 8.145333 4.510667 8.136 4.473333C8.12 4.432 8.104 4.385333 8.098666 4.364C8.088 4.338667 8.078666 4.297333 8.068 4.265333C8.062666 4.24 8.046666 4.193333 8.036 4.166667C8.026666 4.14 8.010666 4.088 8.010666 4.052C8.005333 4.016 7.989333 3.958667 7.973333 3.932C7.964 3.906667 7.948 3.869333 7.948 3.844C7.948 3.822667 7.937333 3.781333 7.921333 3.754667C7.906666 3.724 7.896 3.688 7.896 3.666667C7.896 3.650667 7.885333 3.609333 7.864 3.578667C7.844 3.536 7.838666 3.505333 7.838666 3.369333C7.838666 3.224 7.844 3.208 7.869333 3.177333C7.969333 3.068 8.036 3.021333 8.088 3.021333C8.109333 3.021333 8.145333 3.010667 8.161333 2.994667C8.188 2.978667 8.218666 2.969333 8.26 2.969333C8.302666 2.969333 8.338666 2.958667 8.364 2.942667C8.390666 2.921333 8.426666 2.912 8.464 2.912C8.5 2.912 8.526666 2.906667 8.546666 2.885333C8.568 2.869333 8.593333 2.86 8.609333 2.86C8.630666 2.86 8.661333 2.849333 8.688 2.833333C8.724 2.806667 8.754666 2.802667 8.901333 2.802667C9.062666 2.802667 9.073333 2.806667 9.130666 2.838667C9.208 2.896 9.265333 3 9.312 3.193333C9.317333 3.224 9.349333 3.338667 9.385333 3.453333C9.416 3.562667 9.464 3.724 9.489333 3.806667C9.510666 3.885333 9.536 3.973333 9.541333 3.994667C9.557333 4.036 9.62 4.245333 9.713333 4.568C9.749333 4.677333 9.786666 4.812 9.802666 4.86C9.817333 4.912 9.838666 4.978667 9.849333 5.016C9.86 5.052 9.88 5.125333 9.896 5.182667C9.917333 5.229333 9.937333 5.312 9.953333 5.364C9.969333 5.412 9.989333 5.489333 10.005333 5.541333C10.057333 5.708 10.145333 6.010667 10.172 6.098667C10.182666 6.145333 10.218666 6.26 10.245333 6.344C10.270666 6.426667 10.317333 6.593333 10.354666 6.702666C10.385333 6.817333 10.432 6.969333 10.453333 7.036C10.510666 7.213333 10.536 7.333333 10.536 7.38C10.536 7.442666 10.478666 7.557333 10.426666 7.604C10.364 7.656 10.328 7.672 9.869333 7.806666L9.473333 7.926666L9.562666 7.932C9.62 7.937333 9.661333 7.942666 9.666666 7.953333C9.682666 7.978666 10.24 7.973333 10.432 7.953333C10.541333 7.937333 10.64 7.937333 10.786666 7.942666C10.901333 7.948 11.114666 7.948 11.265333 7.948C11.781333 7.942666 13.292 7.948 13.354666 7.958666C13.390666 7.964 13.416 7.964 13.426666 7.953333C13.432 7.942666 13.489333 7.937333 13.541333 7.937333H13.645333L13.593333 7.912C13.521333 7.88 13.448 7.792 13.448 7.74C13.448 7.713333 13.437333 7.672 13.421333 7.645333C13.396 7.588 13.396 7.530666 13.396 5.145333C13.396 2.74 13.396 2.702667 13.421333 2.64C13.437333 2.609333 13.448 2.578667 13.448 2.568C13.448 2.536 13.505333 2.478667 13.588 2.426667L13.672 2.369333H14.24C14.781333 2.369333 14.806666 2.369333 14.844 2.396C14.869333 2.412 14.896 2.421333 14.912 2.421333C14.926666 2.421333 14.958666 2.448 14.989333 2.478667C15.000999 2.491122 15.011212 2.499326 15.020144 2.508744C15.082679 2.57468 15.082485 2.700107 15.079309 4.759775C15.079102 4.894115 15.078881 5.036683 15.078666 5.188C15.078666 7.578666 15.073333 7.702666 15.052 7.745333C15.016 7.812 14.937333 7.890666 14.890666 7.912C14.87527 7.917463 14.865611 7.92089 14.865747 7.923868C14.865978 7.928885 14.894026 7.932625 14.969333 7.942666C15.036 7.948 15.12 7.953333 15.156 7.948H18.412001C18.437332 7.953333 18.510666 7.948 18.573334 7.942666L18.582369 7.941462C18.693508 7.926656 18.696268 7.926288 18.656 7.912C18.593332 7.885333 18.516001 7.797333 18.516001 7.754666C18.516001 7.734666 18.5 7.697333 18.483999 7.666666C18.458666 7.614666 18.458666 7.593333 18.464001 5.390667C18.469334 3.297333 18.469334 3.161333 18.489332 3.130667C18.505333 3.114667 18.516001 3.088 18.516001 3.073333C18.516001 3.041333 18.584 2.969333 18.614666 2.969333C18.625334 2.969333 18.650665 2.953333 18.666666 2.942667C18.697332 2.917333 18.729334 2.917333 19.431999 2.912L20.161333 2.906667L20.218666 2.948C20.250666 2.973333 20.297333 3.021333 20.317333 3.057333L20.359999 3.125333V7.713333L20.317333 7.781333C20.292 7.817333 20.245333 7.864 20.213333 7.890666L20.150665 7.932L20.259998 7.942666C20.322666 7.948 20.415998 7.953333 20.469334 7.948C20.518896 7.948 20.616962 7.947624 20.734982 7.947171H20.735035C21.061501 7.94592 21.540581 7.944082 21.567999 7.948C21.630667 7.953333 21.729334 7.937333 21.734667 7.917333C21.754665 7.864 21.765333 4.792 21.749332 3.749333C21.74 3.098667 21.74 2.817333 21.749332 2.64C21.765333 2.426667 21.765333 2.374667 21.745333 2.218667C21.729334 2.062667 21.718666 2.026667 21.682667 1.973333C21.636 1.896 21.557333 1.833333 21.489332 1.812ZM21.718666 16.302666C21.693333 16.292 2.338667 16.297333 2.26 16.302666L2.218667 16.312L2.224 19.125334V21.937332L2.286667 22.057333C2.344 22.171999 2.349333 22.177334 2.442667 22.229334C2.494667 22.259998 2.562667 22.292 2.588 22.297333C2.770667 22.349333 2.806667 22.349333 3.197333 22.344C3.412 22.344 3.614667 22.333332 3.645333 22.327999C3.682667 22.322666 3.729333 22.317333 3.749333 22.317333C3.769664 22.320238 3.778924 22.32156 3.779695 22.319578C3.78034 22.317923 3.775057 22.313959 3.765333 22.306665C3.693333 22.259998 3.661333 22.223999 3.645333 22.171999C3.64 22.139999 3.625333 22.103998 3.614667 22.087999C3.598667 22.067999 3.593333 21.729334 3.593333 19.879999C3.593333 17.729334 3.593333 17.702665 3.62 17.661333C3.636 17.639999 3.645333 17.614666 3.645333 17.604C3.645333 17.578667 3.713333 17.521334 3.781333 17.483999L3.838667 17.453333H5.484L5.557333 17.489332C5.64 17.530666 5.656 17.546665 5.693333 17.625334C5.718667 17.677334 5.718667 17.745333 5.724 19.817333C5.729333 21.338667 5.729333 21.978666 5.718667 22.046665C5.702667 22.155998 5.656 22.234667 5.584 22.275999C5.562667 22.292 5.541333 22.306665 5.541333 22.311998C5.541333 22.317333 5.568 22.322666 5.604 22.322666C5.64 22.322666 5.693333 22.327999 5.718667 22.338667C5.76 22.354666 5.797333 22.354666 5.921333 22.338667C6.046667 22.327999 6.098667 22.327999 6.24 22.338667C6.369333 22.354666 6.421333 22.354666 6.464 22.344C6.489333 22.333332 6.552 22.322666 6.593333 22.322666C6.640177 22.31949 6.659127 22.318207 6.660036 22.313463C6.660653 22.310242 6.652945 22.305424 6.64 22.297333C6.584 22.259998 6.536 22.197332 6.536 22.166666C6.536 22.150665 6.521333 22.109333 6.505333 22.082666C6.478667 22.035999 6.478667 22.005333 6.478667 20.447998C6.478667 18.885332 6.478667 18.860001 6.505333 18.806665C6.521333 18.781334 6.536 18.749332 6.536 18.745333C6.536 18.718666 6.609333 18.650665 6.64 18.650665C6.650667 18.650665 6.682666 18.636 6.702666 18.625334C6.745333 18.598665 6.770666 18.593332 7.36 18.593332C7.88 18.593332 7.973333 18.598665 7.989333 18.614666C8 18.625334 8.026666 18.639999 8.052 18.650665C8.093333 18.666666 8.130666 18.702665 8.177333 18.786667C8.202666 18.833332 8.202666 18.890665 8.208 20.411999C8.208 21.797333 8.208 21.999998 8.188 22.073334C8.161333 22.171999 8.109333 22.254665 8.046666 22.281334C8.026666 22.297333 8.005333 22.306665 8.005333 22.311998C8.005333 22.322666 8.202666 22.344 8.317333 22.344C8.426666 22.338667 8.958666 22.327999 9.021333 22.322666C9.073333 22.317333 9.078666 22.306665 9.041333 22.292C9 22.281334 8.932 22.188 8.932 22.150665C8.932 22.130667 8.921333 22.098665 8.912 22.087999C8.896 22.062666 8.890666 21.754665 8.890666 19.702665V17.344L8.917333 17.254665C8.948 17.161333 9.026666 17.073334 9.078666 17.073334C9.088 17.073334 9.12 17.057333 9.14 17.041332C9.182666 17.016001 9.208 17.016001 9.754666 17.016001H10.328L10.406666 17.052C10.489333 17.098665 10.526666 17.136 10.557333 17.213333C10.578666 17.26 10.578666 17.530666 10.578666 19.656C10.578666 22.005287 10.578666 22.125034 10.520543 22.19928C10.514374 22.207163 10.507549 22.214531 10.5 22.223999C10.484 22.250666 10.448 22.281334 10.421333 22.297333L10.38 22.317333L10.469333 22.327999C10.584 22.344 12.984 22.349333 13.016 22.338667C13.026666 22.333332 13.073333 22.327999 13.109333 22.322666C13.172 22.322666 13.177333 22.317333 13.156 22.306665C13.088 22.265333 13.036 22.202665 13 22.125334C12.978666 22.073334 12.958666 22.026667 12.958666 22.015999C12.958666 21.999998 12.953333 21.983999 12.942666 21.973333C12.926666 21.958666 12.864 21.817333 12.854666 21.765333C12.849333 21.749332 12.833333 21.713333 12.822666 21.693333C12.806666 21.671999 12.797333 21.639999 12.797333 21.625334C12.797333 21.609333 12.786666 21.578667 12.770666 21.557333C12.754666 21.530666 12.74 21.505333 12.74 21.489332C12.74 21.473333 12.729333 21.447998 12.713333 21.431999C12.697333 21.411999 12.688 21.385332 12.688 21.379999C12.688 21.369333 12.677333 21.333332 12.661333 21.306665C12.645333 21.281334 12.636 21.250666 12.636 21.24C12.636 21.229334 12.62 21.197332 12.604 21.171999C12.588 21.145332 12.578666 21.109333 12.578666 21.093332C12.578666 21.078667 12.573333 21.057333 12.557333 21.046665C12.546666 21.035999 12.536 21.010666 12.530666 20.989332C12.526666 20.963999 12.510666 20.926666 12.494666 20.901333C12.484 20.879999 12.469333 20.849333 12.469333 20.833332C12.469333 20.817333 12.464 20.797333 12.453333 20.786667C12.437333 20.781334 12.426666 20.749332 12.421333 20.729334C12.416 20.702665 12.401333 20.666666 12.385333 20.639999C12.374666 20.619999 12.36 20.584 12.36 20.567999C12.36 20.546665 12.349333 20.521334 12.333333 20.499998C12.317333 20.483999 12.306666 20.458666 12.306666 20.442665C12.306666 20.421333 12.297333 20.401333 12.286666 20.390665C12.276 20.385332 12.265333 20.369333 12.265333 20.359999C12.265333 20.354666 12.250666 20.311998 12.229333 20.275999C12.213333 20.24 12.197333 20.197332 12.197333 20.182667C12.197333 20.166666 12.188 20.136 12.172 20.114666C12.156 20.087999 12.14 20.062666 12.14 20.046665C12.14 20.035999 12.130666 19.999998 12.114666 19.969334C12.098666 19.942665 12.078666 19.890665 12.062666 19.864C12.046666 19.833332 12.036 19.797333 12.036 19.781334C12.036 19.765333 12.026666 19.749332 12.016 19.74C12.005333 19.729334 11.989333 19.702665 11.984 19.682667C11.978666 19.656 11.964 19.620001 11.953333 19.598665C11.937333 19.573334 11.926666 19.541332 11.926666 19.526667C11.926666 19.505333 11.912 19.473333 11.896 19.458666C11.885333 19.437332 11.869333 19.412001 11.869333 19.396C11.869333 19.379999 11.86 19.344 11.844 19.322666C11.828 19.302666 11.817333 19.270666 11.817333 19.26C11.817333 19.245333 11.802666 19.218666 11.786666 19.197332C11.776 19.177334 11.76 19.150665 11.76 19.139999C11.76 19.125334 11.749333 19.093332 11.734666 19.068001C11.718666 19.046665 11.708 19.016001 11.708 19C11.708 18.983999 11.697333 18.953333 11.682666 18.926666C11.666666 18.896 11.645333 18.849333 11.630666 18.812C11.614666 18.781334 11.588 18.724001 11.573333 18.688C11.557333 18.656 11.541333 18.614666 11.541333 18.604C11.541333 18.587999 11.530666 18.562666 11.516 18.546665C11.5 18.526667 11.489333 18.5 11.489333 18.478666C11.489333 18.469334 11.478666 18.431999 11.464 18.412001C11.448 18.390665 11.437333 18.360001 11.437333 18.349333C11.437333 18.322666 11.426666 18.302666 11.354666 18.161333C11.338666 18.130667 11.328 18.098665 11.328 18.082666C11.328 18.073334 11.312 18.041332 11.297333 18.016001C11.26 17.942665 11.26 17.827999 11.297333 17.770666C11.312 17.749332 11.328 17.724001 11.328 17.713333C11.328 17.688 11.401333 17.614666 11.426666 17.614666C11.437333 17.614666 11.458666 17.604 11.478666 17.587999C11.5 17.573334 11.530666 17.562666 11.546666 17.562666C11.568 17.562666 11.593333 17.546665 11.604 17.530666C11.62 17.521334 11.645333 17.505333 11.666666 17.505333C11.682666 17.505333 11.718666 17.494665 11.74 17.478666C11.765333 17.464001 11.792 17.453333 11.802666 17.453333C11.817333 17.453333 11.838666 17.437332 11.86 17.426666C11.874666 17.412001 11.906666 17.396 11.921333 17.396C11.942666 17.396 11.969333 17.385332 11.984 17.369333C12 17.354666 12.021333 17.344 12.052 17.344C12.078666 17.344 12.114666 17.333332 12.136 17.317333C12.156 17.302666 12.188 17.286667 12.218666 17.286667C12.250666 17.286667 12.292 17.275999 12.312 17.26C12.369333 17.224001 12.473333 17.224001 12.521333 17.26C12.541333 17.275999 12.562666 17.286667 12.573333 17.286667C12.609333 17.286667 12.666666 17.379999 12.749333 17.584C12.797333 17.702665 12.844 17.812 12.849333 17.833332C12.849333 17.854666 12.86 17.874666 12.869333 17.885332C12.88 17.901333 12.890666 17.921333 12.896 17.942665C12.906666 17.978666 12.942666 18.068001 12.989333 18.166666C13.062666 18.333332 13.093333 18.406666 13.130666 18.494665C13.150666 18.546665 13.177333 18.604 13.188 18.630667C13.229333 18.729334 13.364 19.062666 13.390666 19.130667C13.401333 19.156 13.416 19.193333 13.421333 19.202665C13.437333 19.229334 13.510666 19.406666 13.62 19.677334C13.765333 20.035999 13.874666 20.297333 13.912 20.385332C13.937333 20.447998 14.016 20.625334 14.068 20.759998C14.104 20.838667 14.161333 20.983999 14.202666 21.087999C14.220954 21.131599 14.237712 21.171478 14.253063 21.20801C14.39085 21.5359 14.415287 21.594053 14.414918 21.652046C14.414837 21.66485 14.413547 21.677645 14.412 21.693333C14.406666 21.806665 14.354666 21.890665 14.26 21.953333C14.218666 21.978666 14.182666 21.999998 14.177333 21.999998C14.161333 21.999998 13.458666 22.302666 13.442666 22.311998C13.437333 22.317333 13.464 22.327999 13.510666 22.327999C13.552 22.327999 13.598666 22.333332 13.62 22.344C13.645333 22.363998 13.688 22.363998 13.964 22.349333C14.000482 22.348202 14.039723 22.34683 14.080007 22.345423L14.080089 22.345419C14.229704 22.340193 14.393671 22.334463 14.484 22.338667C15.729333 22.349333 16.306665 22.349333 16.401333 22.333332C16.453333 22.317333 16.5 22.311998 16.505333 22.311998C16.510666 22.311998 16.494665 22.297333 16.469334 22.281334C16.442665 22.265333 16.416 22.229334 16.401333 22.207998C16.390665 22.182667 16.369333 22.150665 16.360001 22.136C16.338667 22.114666 16.333332 21.963999 16.327999 20.806665C16.322666 20.087999 16.322666 19.453333 16.317333 19.396C16.317333 19.297333 16.317333 19.292 16.354666 19.250666L16.396 19.202665L16.745333 19.213333C17.234667 19.229334 17.379999 19.229334 17.921333 19.218666C18.369333 19.208 18.406666 19.213333 18.421333 19.234667C18.442665 19.254665 18.448 19.401333 18.448 20.661333V22.062666L18.401333 22.150665C18.369333 22.213333 18.349333 22.245333 18.302666 22.270666C18.270666 22.286667 18.245333 22.306665 18.24 22.311998C18.24 22.317333 18.275999 22.317333 18.322666 22.322666C18.364 22.322666 18.416 22.327999 18.437332 22.338667C18.489332 22.359999 18.661333 22.354666 18.724001 22.333332C18.754665 22.322666 18.802666 22.311998 18.827999 22.311998H18.874666L18.833332 22.286667C18.781334 22.259998 18.729334 22.218666 18.729334 22.197332C18.729334 22.188 18.718666 22.161333 18.702665 22.145332C18.682667 22.114666 18.677334 22.087999 18.677334 21.896C18.677334 21.775999 18.672001 21.614666 18.666666 21.535999C18.656 21.431999 18.656 21.379999 18.672001 21.327999C18.679216 21.298506 18.681265 21.276249 18.691921 21.259455C18.724699 21.2078 18.838921 21.20783 19.435434 21.207981L19.541332 21.207998H20.338667L20.359999 21.24C20.374666 21.270666 20.379999 21.327999 20.374666 21.671999L20.369333 22.062666L20.333332 22.139999C20.297333 22.213333 20.207998 22.297333 20.161333 22.297333C20.114666 22.297333 20.166666 22.317333 20.234667 22.322666C20.270666 22.322666 20.322666 22.333332 20.344 22.338667C20.401333 22.354666 21.177334 22.354666 21.245333 22.338667C21.270666 22.327999 21.333332 22.311998 21.374666 22.306665C21.411999 22.297333 21.469334 22.275999 21.499998 22.259998C21.551998 22.229334 21.671999 22.109333 21.671999 22.087999C21.671999 22.078667 21.682667 22.057333 21.697332 22.035999C21.734667 21.989332 21.74 21.885332 21.745333 21.202665C21.754665 20.275999 21.754665 16.906666 21.745333 16.797333C21.74 16.724001 21.745333 16.677334 21.759998 16.625334C21.786667 16.530666 21.786667 16.464001 21.759998 16.412001C21.749332 16.390665 21.74 16.360001 21.74 16.344C21.74 16.322666 21.729334 16.306665 21.718666 16.302666ZM21.718666 9.333333C21.693333 9.322666 2.317333 9.322666 2.254667 9.333333L2.218667 9.338666L2.224 12.12V14.901333L2.281333 14.912C2.312 14.917333 2.36 14.921333 2.390667 14.921333C2.416 14.921333 2.708 14.917333 3.036 14.917333C3.36 14.912 3.672 14.906666 3.724 14.906666H3.817333L3.754667 14.869333C3.688 14.822666 3.645333 14.770666 3.645333 14.724C3.645333 14.702666 3.636 14.666666 3.62 14.636C3.593333 14.584 3.593333 14.562666 3.598667 14.182666C3.598667 13.822666 3.604 13.776 3.625333 13.754666C3.636 13.74 3.645333 13.713333 3.645333 13.697333C3.645333 13.661333 3.718667 13.584 3.749333 13.584C3.76 13.584 3.786667 13.573333 3.806667 13.557333C3.844 13.530666 3.86 13.530666 6.344 13.536C8.702666 13.536 8.844 13.541333 8.869333 13.562666C8.88 13.573333 8.901333 13.584 8.917333 13.584C8.948 13.584 9.005333 13.650666 9.041333 13.729333C9.073333 13.792 9.073333 13.812 9.073333 14.213333V14.625333L9.036 14.702666C9.005333 14.770666 8.937333 14.844 8.869333 14.890666C8.844 14.901333 8.86 14.906666 8.937333 14.906666C8.989333 14.906666 9.041333 14.912 9.046666 14.921333C9.057333 14.932 9.098666 14.932 9.172 14.926666C9.36 14.912 10.437333 14.912 10.521333 14.926666C10.578666 14.942666 10.609333 14.942666 10.650666 14.932C10.682666 14.921333 10.74 14.912 10.786666 14.912L10.864 14.906666L10.797333 14.86C10.76 14.833333 10.734666 14.806666 10.729333 14.792C10.729333 14.770666 10.713333 14.749333 10.697333 14.734666C10.682666 14.718666 10.672 14.693333 10.672 14.666666C10.672 14.64 10.661333 14.588 10.650666 14.541333C10.636 14.473333 10.630666 14.234666 10.636 12.530666C10.636 10.448 10.636 10.552 10.702666 10.401333C10.734666 10.338666 10.812 10.265333 10.844 10.265333C10.849333 10.265333 10.869333 10.250666 10.885333 10.24C10.906666 10.208 10.926666 10.208 11.708 10.208C12.478666 10.208 12.505333 10.213333 12.546666 10.24C12.568 10.250666 12.593333 10.265333 12.604 10.265333C12.650666 10.265333 12.729333 10.338666 12.765333 10.412L12.802666 10.489333V14.64L12.770666 14.708C12.729333 14.792 12.682666 14.849333 12.62 14.88L12.573333 14.906666H12.645333C12.693333 14.906666 12.745333 14.917333 12.765333 14.926666C12.812 14.953333 12.937333 14.953333 13.005333 14.926666C13.082666 14.901333 13.464 14.901333 13.536 14.926666C13.609333 14.953333 13.745333 14.953333 13.797333 14.926666C13.817333 14.917333 13.86 14.906666 13.890666 14.906666H13.948L13.896 14.874666C13.838666 14.838666 13.776 14.770666 13.776 14.74C13.776 14.729333 13.765333 14.702666 13.749333 14.682666C13.724 14.650666 13.724 14.630666 13.724 12.338666C13.724 10.114666 13.724 10.021333 13.745333 9.989333C13.76 9.973333 13.776 9.948 13.781333 9.932C13.786666 9.921333 13.806666 9.901333 13.828 9.885333C13.849333 9.874666 13.869333 9.86 13.869333 9.854666C13.874666 9.854666 13.906666 9.833333 13.942666 9.812L14.005333 9.776H15.078666C16.125334 9.776 16.150665 9.776 16.193333 9.802666C16.213333 9.817333 16.250666 9.828 16.270666 9.828C16.297333 9.828 16.322666 9.849333 16.360001 9.890666C16.374266 9.906322 16.386486 9.916826 16.396955 9.928855C16.459555 10.000781 16.459501 10.127234 16.458828 11.735529C16.458752 11.919932 16.458666 12.123816 16.458666 12.349333C16.458666 13.584 16.453333 14.625333 16.448 14.650666C16.426666 14.74 16.354666 14.828 16.26 14.890666C16.24 14.901333 16.245333 14.906666 16.306665 14.906666C16.354666 14.906666 16.396 14.917333 16.412001 14.926666C16.442665 14.953333 16.562666 14.953333 16.661333 14.926666C16.781334 14.901333 18.688 14.901333 18.817333 14.926666C18.917334 14.953333 19.087999 14.948 19.098665 14.921333C19.098665 14.912 19.125334 14.906666 19.150665 14.906666H19.197332L19.150665 14.86C19.098665 14.806666 19.035999 14.729333 18.994665 14.666666C18.958666 14.598666 18.693333 14.188 18.656 14.130666C18.636 14.104 18.625334 14.078666 18.625334 14.073333C18.625334 14.068 18.598665 14.026666 18.568001 13.984C18.535999 13.942666 18.516001 13.901333 18.516001 13.896C18.516001 13.890666 18.5 13.864 18.483999 13.844C18.469334 13.822666 18.426666 13.765333 18.401333 13.718666C18.369333 13.672 18.322666 13.598666 18.297333 13.552C18.265333 13.505333 18.24 13.464 18.24 13.453333C18.24 13.448 18.229334 13.426666 18.213333 13.416C18.197332 13.401333 18.188 13.385333 18.188 13.374666C18.188 13.369333 18.161333 13.328 18.130667 13.286666C18.104 13.24 18.078667 13.202666 18.078667 13.193333C18.078667 13.188 18.068001 13.166666 18.052 13.150666C18.035999 13.130666 18.026667 13.109333 18.026667 13.098666C18.026667 13.093333 18 13.057333 17.973333 13.021333C17.906666 12.932 17.806665 12.770666 17.806665 12.749333C17.806665 12.74 17.797333 12.724 17.786667 12.718666C17.770666 12.708 17.697332 12.598666 17.697332 12.578666C17.697332 12.573333 17.688 12.562666 17.677334 12.552C17.666666 12.541333 17.636 12.5 17.614666 12.458666C17.546665 12.344 17.530666 12.317333 17.478666 12.24C17.421333 12.150666 17.193333 11.786666 17.161333 11.729333C17.136 11.682666 17.093332 11.609333 17.046665 11.541333C16.765333 11.109333 16.718666 11.026666 16.708 10.937333C16.702829 10.892082 16.700165 10.868773 16.700615 10.845525C16.701092 10.820812 16.70509 10.796168 16.713333 10.745333C16.718666 10.688 16.729334 10.666666 16.781334 10.609333C16.812 10.578666 16.869333 10.530666 16.901333 10.516C16.942665 10.494666 16.978666 10.469333 16.994665 10.453333C17.010666 10.437333 17.035999 10.426666 17.052 10.426666C17.073334 10.426666 17.087999 10.421333 17.093332 10.406666C17.098665 10.396 17.136 10.369333 17.177334 10.349333C17.218666 10.328 17.254665 10.306666 17.254665 10.297333C17.26 10.286666 17.286667 10.270666 17.306665 10.254666C17.379999 10.218666 17.416 10.197333 17.426666 10.177333C17.431999 10.166666 17.453333 10.156 17.464001 10.156C17.478666 10.156 17.505333 10.14 17.526667 10.130666C17.541332 10.114666 17.573334 10.098666 17.587999 10.098666C17.604 10.098666 17.639999 10.088 17.666666 10.073333C17.724001 10.041333 17.775999 10.046666 17.827999 10.082666C17.844 10.093333 17.864 10.098666 17.874666 10.098666C17.917334 10.098666 18 10.213333 18.245333 10.614666C18.270666 10.656 18.302666 10.713333 18.322666 10.74C18.374666 10.817333 18.510666 11.030666 18.516001 11.052C18.521334 11.062666 18.546665 11.098666 18.568001 11.136C18.587999 11.166666 18.639999 11.254666 18.688 11.328C18.74 11.406666 18.792 11.489333 18.806665 11.516C18.860001 11.593333 19.161333 12.082666 19.26 12.24C19.338667 12.369333 19.516001 12.650666 19.630667 12.833333C19.688 12.926666 19.754665 13.036 19.879999 13.24C20.015999 13.464 20.155998 13.682666 20.245333 13.828C20.359999 14.005333 20.369333 14.030666 20.369333 14.136C20.369333 14.306666 20.344 14.338666 19.983999 14.562666C19.838667 14.656 19.656 14.770666 19.584 14.817333L19.448 14.906666H19.521334C19.568001 14.906666 19.598665 14.912 19.614666 14.926666C19.636 14.948 19.661333 14.948 19.833332 14.942666C19.942665 14.942666 20.046665 14.932 20.073334 14.921333C20.119999 14.901333 21.453333 14.901333 21.541332 14.921333C21.578667 14.926666 21.619999 14.926666 21.661333 14.917333L21.734667 14.896L21.749332 14.817333C21.759998 14.76 21.759998 14.713333 21.749332 14.661333C21.74 14.614666 21.74 14.344 21.745333 13.906666C21.759998 12.88 21.759998 9.901333 21.745333 9.812C21.74 9.76 21.745333 9.718666 21.759998 9.666666C21.786667 9.573333 21.786667 9.478666 21.759998 9.426666C21.749332 9.406666 21.74 9.38 21.74 9.364C21.74 9.354666 21.729334 9.338666 21.718666 9.333333ZM4.254667 11.697333C4.276 11.682666 4.5 11.682666 6.344 11.682666C8.38 11.682666 8.406666 11.682666 8.442666 11.708C8.458666 11.724 8.478666 11.74 8.494666 11.74C8.505333 11.745333 8.536 11.781333 8.562666 11.828L8.609333 11.901333V12.792L8.578666 12.86C8.536 12.937333 8.453333 13.005333 8.374666 13.026666C8.338666 13.036 7.666666 13.041333 6.302667 13.036H4.281333L4.224 13.005333C4.156 12.969333 4.098667 12.906666 4.088 12.854666C4.088 12.833333 4.073333 12.786666 4.062667 12.745333C4.036 12.650666 4.036 12.078666 4.062667 12C4.073333 11.969333 4.082667 11.926666 4.082667 11.906666C4.082667 11.854666 4.150667 11.749333 4.197333 11.734666C4.218667 11.729333 4.245333 11.713333 4.254667 11.697333ZM18.890665 17.041332C18.926666 17.016001 18.948 17.016001 19.521334 17.016001C20.087999 17.016001 20.114666 17.016001 20.155998 17.041332C20.177334 17.057333 20.202665 17.073334 20.218666 17.073334C20.245333 17.073334 20.322666 17.156 20.344 17.213333C20.359999 17.250666 20.363998 17.587999 20.363998 18.921333C20.369333 19.833332 20.363998 20.587999 20.359999 20.593332C20.354666 20.598665 19.983999 20.603998 19.541332 20.609333C18.745333 20.609333 18.729334 20.609333 18.702665 20.584C18.677334 20.557333 18.677334 20.541332 18.677334 19.958666C18.673796 19.744576 18.674952 19.35791 18.676132 18.963806C18.676729 18.763937 18.677334 18.562155 18.677334 18.379999V17.302666C18.677334 17.213333 18.677334 17.208 18.74 17.139999C18.775999 17.104 18.812 17.073334 18.827999 17.073334C18.844 17.073334 18.869333 17.057333 18.890665 17.041332ZM16.557333 17.478666C16.587999 17.453333 16.614666 17.453333 17.401333 17.453333C18.193333 17.453333 18.208 17.453333 18.24 17.478666C18.26 17.494665 18.281334 17.505333 18.297333 17.505333C18.327999 17.505333 18.374666 17.562666 18.416 17.645332C18.448 17.708 18.448 17.718666 18.442665 18.161333L18.437332 18.614666L17.390665 18.620001L16.338667 18.625334L16.322666 18.584C16.312 18.557333 16.306665 18.516001 16.317333 18.478666C16.317333 18.442665 16.327999 18.24 16.333332 18.026667L16.344 17.636L16.406666 17.573334C16.442665 17.535999 16.478666 17.505333 16.494665 17.505333C16.510666 17.505333 16.535999 17.494665 16.557333 17.478666Z"/></svg>
