<svg xmlns="http://www.w3.org/2000/svg" width="24" height="24" viewBox="0 0 24 24"><path d="M19.414 8.414C19.789 8.789 20 9.298 20 9.828V20C20 21.104 19.104 22 18 22H6C4.896 22 4 21.104 4 20V4C4 2.896 4.896 2 6 2H12.172C12.6865 2 13.2194 2.22035 13.585 2.586ZM18.5 20V10H14C12.896 10 12 9.104 12 8V3.5H6C5.724 3.5 5.5 3.725 5.5 4V20C5.5 20.275 5.724 20.5 6 20.5H18C18.275999 20.5 18.5 20.275 18.5 20ZM13.5 4.621V8C13.5 8.275 13.724 8.5 14 8.5H17.378ZM7 12.25C7 11.8358 7.3358 11.5 7.75 11.5H11.25C11.6642 11.5 12 11.8358 12 12.25C12 12.6642 11.6642 13 11.25 13H7.75C7.3358 13 7 12.6642 7 12.25ZM7 15.25C7 14.8358 7.3358 14.5 7.75 14.5H11.25C11.6642 14.5 12 14.8358 12 15.25C12 15.6642 11.6642 16 11.25 16H7.75C7.3358 16 7 15.6642 7 15.25ZM7 18.25C7 17.8358 7.3358 17.5 7.75 17.5H11.25C11.6642 17.5 12 17.8358 12 18.25C12 18.6642 11.6642 19 11.25 19H7.75C7.3358 19 7 18.6642 7 18.25ZM13.25 11.5H16.25C16.6642 11.5 17 11.8358 17 12.25C17 12.6642 16.6642 13 16.25 13H13.25C12.8358 13 12.5 12.6642 12.5 12.25C12.5 11.8358 12.8358 11.5 13.25 11.5ZM13.25 14.5H16.25C16.6642 14.5 17 14.8358 17 15.25C17 15.6642 16.6642 16 16.25 16H13.25C12.8358 16 12.5 15.6642 12.5 15.25C12.5 14.8358 12.8358 14.5 13.25 14.5ZM13.25 17.5H16.25C16.6642 17.5 17 17.8358 17 18.25C17 18.6642 16.6642 19 16.25 19H13.25C12.8358 19 12.5 18.6642 12.5 18.25C12.5 17.8358 12.8358 17.5 13.25 17.5Z"/></svg>
