<svg width="24" height="24" viewBox="0 0 24 24" fill="none" xmlns="http://www.w3.org/2000/svg">
<path d="M19.414 8.414L13.585 2.586C13.2194 2.22035 12.6865 2 12.172 2H6C4.896 2 4 2.896 4 4V20C4 21.104 4.896 22 6 22H18C19.104 22 20 21.104 20 20V9.828C20 9.298 19.789 8.789 19.414 8.414ZM18.5 20C18.5 20.275 18.276 20.5 18 20.5H6C5.724 20.5 5.5 20.275 5.5 20V4C5.5 3.725 5.724 3.5 6 3.5H12V8C12 9.104 12.896 10 14 10H18.5V20ZM13.5 4.621L17.378 8.5H14C13.724 8.5 13.5 8.275 13.5 8V4.621ZM7 12.25C7 11.8358 7.3358 11.5 7.75 11.5H11.25C11.6642 11.5 12 11.8358 12 12.25C12 12.6642 11.6642 13 11.25 13H7.75C7.3358 13 7 12.6642 7 12.25ZM13.25 11.5H16.25C16.6642 11.5 17 11.8358 17 12.25C17 12.6642 16.6642 13 16.25 13H13.25C12.8358 13 12.5 12.6642 12.5 12.25C12.5 11.8358 12.8358 11.5 13.25 11.5ZM7 15.25C7 14.8358 7.3358 14.5 7.75 14.5H11.25C11.6642 14.5 12 14.8358 12 15.25C12 15.6642 11.6642 16 11.25 16H7.75C7.3358 16 7 15.6642 7 15.25ZM13.25 14.5H16.25C16.6642 14.5 17 14.8358 17 15.25C17 15.6642 16.6642 16 16.25 16H13.25C12.8358 16 12.5 15.6642 12.5 15.25C12.5 14.8358 12.8358 14.5 13.25 14.5ZM7 18.25C7 17.8358 7.3358 17.5 7.75 17.5H11.25C11.6642 17.5 12 17.8358 12 18.25C12 18.6642 11.6642 19 11.25 19H7.75C7.3358 19 7 18.6642 7 18.25ZM13.25 17.5H16.25C16.6642 17.5 17 17.8358 17 18.25C17 18.6642 16.6642 19 16.25 19H13.25C12.8358 19 12.5 18.6642 12.5 18.25C12.5 17.8358 12.8358 17.5 13.25 17.5Z" fill="#212121"/>
</svg>
