<svg xmlns="http://www.w3.org/2000/svg" width="24" height="24" viewBox="0 0 24 24"><path d="M19.412001 8.412C19.786667 8.786666 20 9.297333 20 9.828V20C20 21.103998 19.104 21.999998 18 21.999998H6C4.896 21.999998 4 21.103998 4 20V4C4 2.896 4.896 2 6 2H12.172C12.688 2 13.218666 2.218667 13.584 2.588ZM18.5 20V10H14C12.896 10 12 9.104 12 8V3.5H6C5.724 3.5 5.5 3.724 5.5 4V20C5.5 20.275999 5.724 20.499998 6 20.499998H18C18.275999 20.499998 18.5 20.275999 18.5 20ZM9.322666 17.5 7.781333 11.057333H9.114666L10.088 15.484L11.265333 11.057333H12.812L13.942666 15.557333L14.926666 11.057333H16.24L14.672 17.5H13.292L12.010666 12.682666L10.734666 17.5ZM13.5 4.62V8C13.5 8.276 13.724 8.5 14 8.5H17.379999Z"/></svg>
