<svg xmlns="http://www.w3.org/2000/svg" width="24" height="24" viewBox="0 0 24 24"><path d="M19.414 8.414C19.789 8.789 20 9.298 20 9.828V20C20 21.104 19.104 22 18 22H6C4.896 22 4 21.104 4 20V4C4 2.896 4.896 2 6 2H12.172C12.6865 2 13.2194 2.22035 13.585 2.586ZM18.5 20V10H14C12.906 10 12 9.104 12 8V3.5H6C5.724 3.5 5.5 3.725 5.5 4V20C5.5 20.275 5.724 20.5 6 20.5H18C18.275999 20.5 18.5 20.275 18.5 20ZM14 15.25C14 15.6642 13.6642 16 13.25 16H7.75C7.33579 16 7 15.6642 7 15.25C7 14.8358 7.33579 14.5 7.75 14.5H13.25C13.6642 14.5 14 14.8358 14 15.25ZM13.25 11.5C13.6642 11.5 14 11.8358 14 12.25C14 12.6642 13.6642 13 13.25 13H7.75C7.33579 13 7 12.6642 7 12.25C7 11.8358 7.33579 11.5 7.75 11.5ZM13.25 17.5C13.6642 17.5 14 17.8358 14 18.25C14 18.6642 13.6642 19 13.25 19H7.75C7.33579 19 7 18.6642 7 18.25C7 17.8358 7.33579 17.5 7.75 17.5ZM13.5 4.621V8C13.5 8.275 13.724 8.5 14 8.5H17.378ZM17 12.25C17 12.6642 16.6642 13 16.25 13C15.8358 13 15.5 12.6642 15.5 12.25C15.5 11.8358 15.8358 11.5 16.25 11.5C16.6642 11.5 17 11.8358 17 12.25ZM16.25 14.5C16.6642 14.5 17 14.8358 17 15.25C17 15.6642 16.6642 16 16.25 16C15.8358 16 15.5 15.6642 15.5 15.25C15.5 14.8358 15.8358 14.5 16.25 14.5ZM17 18.25C17 18.6642 16.6642 19 16.25 19C15.8358 19 15.5 18.6642 15.5 18.25C15.5 17.8358 15.8358 17.5 16.25 17.5C16.6642 17.5 17 17.8358 17 18.25Z"/></svg>
