<svg xmlns="http://www.w3.org/2000/svg" width="24" height="24" viewBox="0 0 24 24" fill="none">
  <!-- מסגרת דף וקיפול (הופרדו ועברו היפוך אופקי לשמאל) - צבע שחור -->
  <path fill="black" d="M12 8L12 2L6 2C4.89543 2 4 2.89543 4 4L4 20C4 21.1046 4.89543 22 6 22L18 22C19.1046 22 20 21.1046 20 20L20 10L14 10C12.8954 10 12 9.10457 12 8ZM13.5 8L13.5 2.5L19.5 8.5L14 8.5C13.7239 8.5 13.5 8.27614 13.5 8Z"/>

  <!-- שורות ותבליטים (נשארו במצב המקורי מימין לשמאל) - צבע לבן -->
  <path fill="white" d="M17 12.25C17 11.8358 16.6642 11.5 16.25 11.5C15.8358 11.5 15.5 11.8358 15.5 12.25C15.5 12.6642 15.8358 13 16.25 13C16.6642 13 17 12.6642 17 12.25ZM17 15.25C17 14.8358 16.6642 14.5 16.25 14.5C15.8358 14.5 15.5 14.8358 15.5 15.25C15.5 15.6642 15.8358 16 16.25 16C16.6642 16 17 15.6642 17 15.25ZM17 18.25C17 17.8358 16.6642 17.5 16.25 17.5C15.8358 17.5 15.5 17.8358 15.5 18.25C15.5 18.6642 15.8358 19 16.25 19C16.6642 19 17 18.6642 17 18.25ZM14 12.25C14 11.8358 13.6642 11.5 13.25 11.5L7.75 11.5C7.33579 11.5 7 11.8358 7 12.25C7 12.6642 7.33579 13 7.75 13L13.25 13C13.6642 13 14 12.6642 14 12.25ZM14 15.25C14 14.8358 13.6642 14.5 13.25 14.5L7.75 14.5C7.33579 14.5 7 14.8358 7 15.25C7 15.6642 7.33579 16 7.75 16L13.25 16C13.6642 16 14 15.6642 14 15.25ZM14 18.25C14 17.8358 13.6642 17.5 13.25 17.5L7.75 17.5C7.33579 17.5 7 17.8358 7 18.25C7 18.6642 7.33579 19 7.75 19L13.25 19C13.6642 19 14 18.6642 14 18.25Z"/>
</svg>
