<svg xmlns="http://www.w3.org/2000/svg" width="24" height="24" viewBox="0 0 24 24"><path d="M19.412 8.412L13.584 2.588C13.218666 2.218667 12.688 2 12.172 2L6 2C4.896 2 4 2.896 4 4L4 20C4 21.103999 4.896 21.999999 6 21.999999L18 21.999999C19.104 21.999999 20 21.103999 20 20L20 9.828C20 9.297333 19.786666 8.786666 19.412 8.412ZM18.5 20C18.5 20.275999 18.276 20.499999 18 20.499999L6 20.499999C5.724 20.499999 5.5 20.275999 5.5 20L5.5 4C5.5 3.724 5.724 3.5 6 3.5L12 3.5L12 8C12 9.104 12.896 10 14 10L18.5 10ZM13.5 4.62L17.38 8.5L14 8.5C13.724 8.5 13.5 8.276 13.5 8Z"/><path d="M9.322666 17.5L7.781333 11.057333L9.114666 11.057333L10.088 15.484L11.265333 11.057333L12.812 11.057333L13.942666 15.557333L14.926666 11.057333L16.24 11.057333L14.672 17.5L13.292 17.5L12.010666 12.682666L10.734666 17.5Z"/></svg>
