<svg xmlns="http://www.w3.org/2000/svg" width="24" height="24" viewBox="0 0 24 24"><path d="M12 8C12 9.10457 12.8954 10 14 10H20V20C20 21.104601 19.104601 22 18 22H6C4.89543 22 4 21.104601 4 20V4C4 2.89543 4.89543 2 6 2H12ZM13.5 8V2.5L19.5 8.5H14C13.7239 8.5 13.5 8.27614 13.5 8ZM7 12.25C7 12.6642 7.33579 13 7.75 13H11.25C11.6642 13 12 12.6642 12 12.25C12 11.8358 11.6642 11.5 11.25 11.5H7.75C7.33579 11.5 7 11.8358 7 12.25ZM7 15.25C7 15.6642 7.33579 16 7.75 16H11.25C11.6642 16 12 15.6642 12 15.25C12 14.8358 11.6642 14.5 11.25 14.5H7.75C7.33579 14.5 7 14.8358 7 15.25ZM7 18.25C7 18.6642 7.33579 19 7.75 19H11.25C11.6642 19 12 18.6642 12 18.25C12 17.8358 11.6642 17.5 11.25 17.5H7.75C7.33579 17.5 7 17.8358 7 18.25ZM13.25 11.5C12.8358 11.5 12.5 11.8358 12.5 12.25C12.5 12.6642 12.8358 13 13.25 13H16.25C16.6642 13 17 12.6642 17 12.25C17 11.8358 16.6642 11.5 16.25 11.5ZM13.25 14.5C12.8358 14.5 12.5 14.8358 12.5 15.25C12.5 15.6642 12.8358 16 13.25 16H16.25C16.6642 16 17 15.6642 17 15.25C17 14.8358 16.6642 14.5 16.25 14.5ZM13.25 17.5C12.8358 17.5 12.5 17.8358 12.5 18.25C12.5 18.6642 12.8358 19 13.25 19H16.25C16.6642 19 17 18.6642 17 18.25C17 17.8358 16.6642 17.5 16.25 17.5Z"/></svg>
