<svg xmlns="http://www.w3.org/2000/svg" width="24" height="24" viewBox="0 0 24 24"><path d="M12 8L12 2L6 2C4.896 2 4 2.896 4 4L4 20C4 21.103999 4.896 21.999999 6 21.999999L18 21.999999C19.104 21.999999 20 21.103999 20 20L20 10L14 10C12.896 10 12 9.104 12 8ZM13.5 8L13.5 2.5L19.5 8.5L14 8.5C13.724 8.5 13.5 8.276 13.5 8Z"/><path d="M9.322666 17.5L7.781333 11.057333L9.114666 11.057333L10.088 15.484L11.265333 11.057333L12.812 11.057333L13.942666 15.557333L14.926666 11.057333L16.24 11.057333L14.672 17.5L13.292 17.5L12.010666 12.682666L10.734666 17.5Z"/></svg>
