<svg width="24" height="24" viewBox="0 0 24 24" fill="none" xmlns="http://www.w3.org/2000/svg">
<path d="M12 8V2H6C4.89543 2 4 2.89543 4 4V20C4 21.1046 4.89543 22 6 22H18C19.1046 22 20 21.1046 20 20V10H14C12.8954 10 12 9.10457 12 8ZM13.5 8V2.5L19.5 8.5H14C13.7239 8.5 13.5 8.27614 13.5 8ZM7 12.25C7 11.8358 7.33579 11.5 7.75 11.5H11.25C11.6642 11.5 12 11.8358 12 12.25C12 12.6642 11.6642 13 11.25 13H7.75C7.33579 13 7 12.6642 7 12.25ZM13.25 11.5H16.25C16.6642 11.5 17 11.8358 17 12.25C17 12.6642 16.6642 13 16.25 13H13.25C12.8358 13 12.5 12.6642 12.5 12.25C12.5 11.8358 12.8358 11.5 13.25 11.5ZM7 15.25C7 14.8358 7.33579 14.5 7.75 14.5H11.25C11.6642 14.5 12 14.8358 12 15.25C12 15.6642 11.6642 16 11.25 16H7.75C7.33579 16 7 15.6642 7 15.25ZM13.25 14.5H16.25C16.6642 14.5 17 14.8358 17 15.25C17 15.6642 16.6642 16 16.25 16H13.25C12.8358 16 12.5 15.6642 12.5 15.25C12.5 14.8358 12.8358 14.5 13.25 14.5ZM7 18.25C7 17.8358 7.33579 17.5 7.75 17.5H11.25C11.6642 17.5 12 17.8358 12 18.25C12 18.6642 11.6642 19 11.25 19H7.75C7.33579 19 7 18.6642 7 18.25ZM13.25 17.5H16.25C16.6642 17.5 17 17.8358 17 18.25C17 18.6642 16.6642 19 16.25 19H13.25C12.8358 19 12.5 18.6642 12.5 18.25C12.5 17.8358 12.8358 17.5 13.25 17.5Z" fill="#212121"/>
</svg>
