<svg xmlns="http://www.w3.org/2000/svg" width="24" height="24" viewBox="0 0 24 24">
  <!-- שורות ותבליטים (נשארו במצב המקורי מימין לשמאל) -->
  <path d="M17 12.25C17 11.8358 16.6642 11.5 16.25 11.5C15.8358 11.5 15.5 11.8358 15.5 12.25C15.5 12.6642 15.8358 13 16.25 13C16.6642 13 17 12.6642 17 12.25ZM16.25 14.5C16.6642 14.5 17 14.8358 17 15.25C17 15.6642 16.6642 16 16.25 16C15.8358 16 15.5 15.6642 15.5 15.25C15.5 14.8358 15.8358 14.5 16.25 14.5ZM17 18.25C17 17.8358 16.6642 17.5 16.25 17.5C15.8358 17.5 15.5 17.8358 15.5 18.25C15.5 18.6642 15.8358 19 16.25 19C16.6642 19 17 18.6642 17 18.25ZM13.25 11.5C13.6642 11.5 14 11.8358 14 12.25C14 12.6642 13.6642 13 13.25 13L7.75 13C7.33579 13 7 12.6642 7 12.25C7 11.8358 7.33579 11.5 7.75 11.5L13.25 11.5ZM14 15.25C14 14.8358 13.6642 14.5 13.25 14.5L7.75 14.5C7.33579 14.5 7 14.8358 7 15.25C7 15.6642 7.33579 16 7.75 16L13.25 16C13.6642 16 14 15.6642 14 15.25ZM13.25 17.5C13.6642 17.5 14 17.8358 14 18.25C14 18.6642 13.6642 19 13.25 19L7.75 19C7.33579 19 7 18.6642 7 18.25C7 17.8358 7.33579 17.5 7.75 17.5L13.25 17.5Z"/>
  <!-- מסגרת דף וקיפול (הופרדו ועברו היפוך אופקי לשמאל) -->
  <path d="M19.414 8.414L13.585 2.586C13.2194 2.22035 12.6865 2 12.172 2L6 2C4.896 2 4 2.896 4 4L4 20C4 21.104 4.896 22 6 22L18 22C19.104 22 20 21.104 20 20L20 9.828C20 9.298 19.789 8.789 19.414 8.414ZM18.5 20C18.5 20.275 18.276 20.5 18 20.5L6 20.5C5.724 20.5 5.5 20.275 5.5 20L5.5 4C5.5 3.725 5.724 3.5 6 3.5L12 3.5L12 8C12 9.104 12.906 10 14 10L18.5 10L18.5 20ZM13.5 4.621L17.378 8.5L14 8.5C13.724 8.5 13.5 8.275 13.5 8L13.5 4.621Z"/>
</svg>
