<svg xmlns="http://www.w3.org/2000/svg" width="24" height="24" viewBox="0 0 24 24"><path d="M20.99865 11.996 21.115391 12.0025C21.613251 12.0597 22 12.4826 22 12.996V20L21.993271 20.1166C21.935511 20.614 21.51284 21 21 21H18L17.883381 20.993299C17.38604 20.935499 17 20.5128 17 20L17.006729 19.8834C17.064489 19.386 17.48716 19 18 19L20 18.999001V13.996L18.00135 14L17.88472 13.9934C17.3873 13.9363 17.00069 13.5142 17 13.0013C16.99926 12.4491 17.446369 12.0007 17.99865 12ZM18 2H21L21.116619 2.00673C21.61396 2.06449 22 2.48716 22 3V9.99506L21.993271 10.1117C21.935511 10.609 21.51284 10.9951 21 10.9951H18L17.883381 10.9883C17.38604 10.9306 17 10.5079 17 9.99506L17.006729 9.87844C17.064489 9.3811 17.48716 8.99506 18 8.99506L20 8.995V4H18L17.883381 3.99327C17.38604 3.93551 17 3.51284 17 3C17 2.44772 17.44772 2 18 2ZM3 17H15L15.11662 17.006701C15.61396 17.064501 16 17.4872 16 18C16 18.552299 15.55228 19 15 19H3L2.8834 18.993299C2.386 18.935499 2 18.5128 2 18C2 17.447701 2.4477 17 3 17ZM3 14H15L15.11662 14.0067C15.61396 14.0645 16 14.4872 16 15C16 15.5523 15.55228 16 15 16H3L2.8834 15.9933C2.386 15.9355 2 15.5128 2 15C2 14.4477 2.4477 14 3 14ZM3 7H15L15.11662 7.00673C15.61396 7.06449 16 7.48716 16 8C16 8.55228 15.55228 9 15 9H3L2.8834 8.99327C2.386 8.93551 2 8.51284 2 8C2 7.44772 2.4477 7 3 7ZM3 4H15L15.11662 4.00673C15.61396 4.06449 16 4.48716 16 5C16 5.55228 15.55228 6 15 6H3L2.8834 5.99327C2.386 5.93551 2 5.51284 2 5C2 4.44772 2.4477 4 3 4Z"/></svg>
