<svg xmlns="http://www.w3.org/2000/svg" width="24" height="24" viewBox="0 0 24 24"><path d="M20.99865 11.996L17.99865 12C17.44637 12.0007 16.99926 12.4491 17 13.0013C17.00069 13.5142 17.3873 13.9363 17.88472 13.9934L18.00135 14L20 13.996L20 18.999L18 19C17.48716 19 17.06449 19.386 17.00673 19.8834L17 20C17 20.5128 17.38604 20.9355 17.88338 20.9933L18 21L21 21C21.51284 21 21.93551 20.614 21.99327 20.1166L22 20L22 12.996C22 12.4826 21.61325 12.0597 21.11539 12.0025L20.99865 11.996ZM3 17C2.4477 17 2 17.4477 2 18C2 18.5128 2.386 18.9355 2.8834 18.9933L3 19L15 19C15.55228 19 16 18.5523 16 18C16 17.4872 15.61396 17.0645 15.11662 17.0067L15 17L3 17ZM3 14C2.4477 14 2 14.4477 2 15C2 15.5128 2.386 15.9355 2.8834 15.9933L3 16L15 16C15.55228 16 16 15.5523 16 15C16 14.4872 15.61396 14.0645 15.11662 14.0067L15 14L3 14ZM18 2C17.44772 2 17 2.44772 17 3C17 3.51284 17.38604 3.93551 17.88338 3.99327L18 4L20 4L20 8.995L18 8.99506C17.48716 8.99506 17.06449 9.3811 17.00673 9.87844L17 9.99506C17 10.5079 17.38604 10.9306 17.88338 10.9883L18 10.9951L21 10.9951C21.51284 10.9951 21.93551 10.609 21.99327 10.1117L22 9.99506L22 3C22 2.48716 21.61396 2.06449 21.11662 2.00673L21 2L18 2ZM3 7C2.4477 7 2 7.44772 2 8C2 8.51284 2.386 8.93551 2.8834 8.99327L3 9L15 9C15.55228 9 16 8.55228 16 8C16 7.48716 15.61396 7.06449 15.11662 7.00673L15 7L3 7ZM3 4C2.4477 4 2 4.44772 2 5C2 5.51284 2.386 5.93551 2.8834 5.99327L3 6L15 6C15.55228 6 16 5.55228 16 5C16 4.48716 15.61396 4.06449 15.11662 4.00673L15 4L3 4Z"/></svg>
