<svg xmlns="http://www.w3.org/2000/svg" width="24" height="24" viewBox="0 0 24 24"><path d="M2.7498 4.00431H16.246229L16.347969 4.01115C16.713949 4.06082 16.996031 4.37461 16.996031 4.75431C16.996031 5.16852 16.66033 5.50431 16.246229 5.50431H2.7498L2.6481 5.49746C2.2821 5.4478 2 5.134 2 4.75431C2 4.34009 2.3357 4.00431 2.7498 4.00431ZM2.7551 8.00431H16.25152L16.35327 8.01115C16.71924 8.06082 17.00132 8.37461 17.00132 8.75431C17.00132 9.16852 16.66563 9.50431 16.25152 9.50431H2.7551L2.6534 9.49746C2.2874 9.4478 2.0053 9.134 2.0053 8.75431C2.0053 8.34009 2.341 8.00431 2.7551 8.00431ZM2.7551 17.5H16.25152L16.35327 17.5068C16.71924 17.556499 17.00132 17.8703 17.00132 18.25C17.00132 18.6642 16.66563 19 16.25152 19H2.7551L2.6534 18.993099C2.2874 18.943501 2.0053 18.6297 2.0053 18.25C2.0053 17.8358 2.341 17.5 2.7551 17.5ZM2.7551 13.5H16.25152L16.35327 13.5068C16.71924 13.5565 17.00132 13.8703 17.00132 14.25C17.00132 14.6642 16.66563 15 16.25152 15H2.7551L2.6534 14.9931C2.2874 14.9435 2.0053 14.6297 2.0053 14.25C2.0053 13.8358 2.341 13.5 2.7551 13.5ZM21.246889 11.996 21.34897 12.0024C21.71623 12.0507 22 12.3651 22 12.7459V19.75L21.99316 19.851801C21.94351 20.2178 21.629789 20.5 21.2502 20.5H18.75086L18.64912 20.493099C18.28314 20.443501 18.001051 20.1297 18.001051 19.75L18.0079 19.648199C18.05755 19.282101 18.371269 19 18.75086 19L20.500401 18.999001V13.498L18.754169 13.507L18.65239 13.5006C18.2862 13.4525 18.002741 13.14 18.001051 12.7603C17.999241 12.3461 18.33346 12.0088 18.747561 12.007ZM21.246889 2.5 21.34897 2.50644C21.71623 2.55477 22 2.86911 22 3.24999V10.2451L21.99316 10.3468C21.94351 10.7129 21.629789 10.9951 21.2502 10.9951H18.75086L18.64912 10.9882C18.28314 10.9385 18.001051 10.6247 18.001051 10.2451L18.0079 10.1433C18.05755 9.77721 18.371269 9.49505 18.75086 9.49505L20.500401 9.49499V4.00299L18.754169 4.011L18.65239 4.00461C18.2862 3.95656 18.002741 3.64401 18.001051 3.26432C17.999241 2.85011 18.33346 2.51284 18.747561 2.51102Z"/></svg>
