<svg xmlns="http://www.w3.org/2000/svg" width="24" height="24" viewBox="0 0 24 24"><path d="M21.24689 11.996L18.74756 12.007C18.33346 12.0088 17.99924 12.3461 18.00105 12.7603C18.00274 13.14 18.2862 13.4525 18.65239 13.5006L18.75417 13.507L20.5004 13.498L20.5004 18.999L18.75086 19C18.37127 19 18.05755 19.2821 18.0079 19.6482L18.00105 19.75C18.00105 20.1297 18.28314 20.4435 18.64912 20.4931L18.75086 20.5L21.2502 20.5C21.62979 20.5 21.94351 20.2178 21.99316 19.8518L22 19.75L22 12.7459C22 12.3651 21.71623 12.0507 21.34897 12.0024L21.24689 11.996ZM2.7551 17.5C2.341 17.5 2.0053 17.8358 2.0053 18.25C2.0053 18.6297 2.2874 18.9435 2.6534 18.9931L2.7551 19L16.25152 19C16.66563 19 17.00132 18.6642 17.00132 18.25C17.00132 17.8703 16.71924 17.5565 16.35327 17.5068L16.25152 17.5L2.7551 17.5ZM2.7551 13.5C2.341 13.5 2.0053 13.8358 2.0053 14.25C2.0053 14.6297 2.2874 14.9435 2.6534 14.9931L2.7551 15L16.25152 15C16.66563 15 17.00132 14.6642 17.00132 14.25C17.00132 13.8703 16.71924 13.5565 16.35327 13.5068L16.25152 13.5L2.7551 13.5ZM21.24689 2.5L18.74756 2.51102C18.33346 2.51284 17.99924 2.85011 18.00105 3.26432C18.00274 3.64401 18.2862 3.95656 18.65239 4.00461L18.75417 4.011L20.5004 4.00299L20.5004 9.49499L18.75086 9.49505C18.37127 9.49505 18.05755 9.77721 18.0079 10.1433L18.00105 10.2451C18.00105 10.6247 18.28314 10.9385 18.64912 10.9882L18.75086 10.9951L21.2502 10.9951C21.62979 10.9951 21.94351 10.7129 21.99316 10.3468L22 10.2451L22 3.24999C22 2.86911 21.71623 2.55477 21.34897 2.50644L21.24689 2.5ZM2.7551 8.00431C2.341 8.00431 2.0053 8.34009 2.0053 8.75431C2.0053 9.134 2.2874 9.4478 2.6534 9.49746L2.7551 9.50431L16.25152 9.50431C16.66563 9.50431 17.00132 9.16852 17.00132 8.75431C17.00132 8.37461 16.71924 8.06082 16.35327 8.01115L16.25152 8.00431L2.7551 8.00431ZM2.7498 4.00431C2.3357 4.00431 2 4.34009 2 4.75431C2 5.134 2.2821 5.4478 2.6481 5.49746L2.7498 5.50431L16.24623 5.50431C16.66033 5.50431 16.99603 5.16852 16.99603 4.75431C16.99603 4.37461 16.71395 4.06082 16.34797 4.01115L16.24623 4.00431L2.7498 4.00431Z"/></svg>
