<svg xmlns="http://www.w3.org/2000/svg" width="24" height="24" viewBox="0 0 24 24"><path d="M4.92864 14.8288L6.34368 13.41376C7.51872 12.23872 9.40992 12.23872 10.58624 13.41376C11.76128 14.59008 11.76128 16.48128 10.58624 17.65632L9.1712 19.07136C7.99616 20.246399 6.10368 20.246399 4.92864 19.07136C3.7536 17.89632 3.7536 16.00384 4.92864 14.8288Z"/><path d="M13.41376 6.34368L14.8288 4.92864C16.00384 3.7536 17.89632 3.7536 19.07136 4.92864C20.246399 6.10368 20.246399 7.99616 19.07136 9.1712L17.65632 10.58624C16.48128 11.76128 14.59008 11.76128 13.41376 10.58624C12.23872 9.40992 12.23872 7.51872 13.41376 6.34368Z"/><path d="M11.29248 12.70752L12.70752 11.29248"/></svg>
