<svg xmlns="http://www.w3.org/2000/svg" width="24" height="24" viewBox="0 0 24 24"><path d="M4.22112 14.12128 5.63616 12.70752C6.949356 11.394595 8.97007 11.19029 10.502494 12.094607C10.52807 12.061767 10.555985 12.030155 10.58624 12L12 10.58624C12.030155 10.555985 12.061767 10.52807 12.094607 10.502497C11.19029 8.97007 11.394595 6.949356 12.70752 5.63616L14.12128 4.22112C15.67616 2.66752 18.22368 2.66752 19.778879 4.22112C21.332479 5.77632 21.332479 8.32384 19.778879 9.87872L18.36384 11.29248C17.050644 12.605405 15.029929 12.80971 13.497506 11.905393C13.47193 11.938233 13.444015 11.969845 13.41376 12L12 13.41376C11.969845 13.444015 11.938233 13.47193 11.905393 13.497503C12.80971 15.029929 12.605405 17.050644 11.29248 18.36384L9.87872 19.778879C8.32384 21.332479 5.77632 21.332479 4.22112 19.778879C2.66752 18.22368 2.66752 15.67616 4.22112 14.12128ZM5.63616 15.53504C4.84 16.3312 4.84 17.56864 5.63616 18.36384C6.43136 19.16 7.6688 19.16 8.46496 18.36384L9.87872 16.950081C10.67488 16.153601 10.67488 14.91744 9.87872 14.12128C9.08256 13.32512 7.8464 13.32512 7.04992 14.12128ZM14.12128 7.04992C13.32512 7.8464 13.32512 9.08256 14.12128 9.87872C14.91744 10.67488 16.153601 10.67488 16.950081 9.87872L18.36384 8.46496C19.16 7.6688 19.16 6.43136 18.36384 5.63616C17.56864 4.84 16.3312 4.84 15.53504 5.63616Z"/></svg>
