<svg xmlns="http://www.w3.org/2000/svg" width="24" height="24" viewBox="0 0 24 24"><path d="M4.22112 14.12128C2.66752 15.67616 2.66752 18.22368 4.22112 19.77888C5.77632 21.332479 8.32384 21.332479 9.87872 19.77888L11.29248 18.36384C12.84736 16.80864 12.84736 14.26112 11.29248 12.70752C9.73888 11.15264 7.19136 11.15264 5.63616 12.70752ZM5.63616 15.53504L7.04992 14.12128C7.8464 13.32512 9.08256 13.32512 9.87872 14.12128C10.67488 14.91744 10.67488 16.1536 9.87872 16.95008L8.46496 18.36384C7.6688 19.16 6.43136 19.16 5.63616 18.36384C4.84 17.56864 4.84 16.3312 5.63616 15.53504Z"/><path d="M12.70752 5.63616C11.15264 7.19136 11.15264 9.73888 12.70752 11.29248C14.26112 12.84736 16.80864 12.84736 18.36384 11.29248L19.77888 9.87872C21.332479 8.32384 21.332479 5.77632 19.77888 4.22112C18.22368 2.66752 15.67616 2.66752 14.12128 4.22112ZM14.12128 7.04992L15.53504 5.63616C16.3312 4.84 17.56864 4.84 18.36384 5.63616C19.16 6.43136 19.16 7.6688 18.36384 8.46496L16.95008 9.87872C16.1536 10.67488 14.91744 10.67488 14.12128 9.87872C13.32512 9.08256 13.32512 7.8464 14.12128 7.04992Z"/><path d="M10.58624 12C10.19488 12.39008 10.19488 13.02368 10.58624 13.41376C10.97632 13.80512 11.60992 13.80512 12 13.41376L13.41376 12C13.80512 11.60992 13.80512 10.97632 13.41376 10.58624C13.02368 10.19488 12.39008 10.19488 12 10.58624Z"/></svg>
