<svg xmlns="http://www.w3.org/2000/svg" width="24" height="24" viewBox="0 0 24 24"><path d="M 20.274036,3.725964 L 3.725964,20.274036 Z"/><path d="M 19.0534502093,2.50537820928 L 2.50537820928,19.0534502093 C 1.83154071744,19.727728983 1.83154071744,20.820343017 2.50537820928,21.4946217907 C 3.17965698304,22.1684592826 4.27227101696,22.1684592826 4.94654979072,21.4946217907 L 21.4946217907,4.94654979072 C 22.1684592826,4.27227101696 22.1684592826,3.17965698304 21.4946217907,2.50537820928 C 20.820343017,1.83154071744 19.727728983,1.83154071744 19.0534502093,2.50537820928 Z"/><path d="M 3.725964,3.725964 L 20.274036,20.274036 Z"/><path d="M 2.50537820928,2.50537820928 C 1.83154071744,3.17965698304 1.83154071744,4.27227101696 2.50537820928,4.94654979072 L 19.0534502093,21.4946217907 C 19.727728983,22.1684592826 20.820343017,22.1684592826 21.4946217907,21.4946217907 C 22.1684592826,20.820343017 22.1684592826,19.727728983 21.4946217907,19.0534502093 L 4.94654979072,2.50537820928 C 4.27227101696,1.83154071744 3.17965698304,1.83154071744 2.50537820928,2.50537820928 Z"/></svg>
