<svg xmlns="http://www.w3.org/2000/svg" width="24" height="24" viewBox="0 0 24 24"><path d="M19.05345 2.505378C19.72773 1.831541 20.820343 1.831541 21.494621 2.505378C22.168459 3.179657 22.168459 4.272271 21.494621 4.94655L14.441172 12L21.494621 19.05345C22.168459 19.72773 22.168459 20.820343 21.494621 21.494621C20.820343 22.168459 19.72773 22.168459 19.05345 21.494621L12 14.441172L4.94655 21.494621C4.272271 22.168459 3.179657 22.168459 2.505378 21.494621C1.831541 20.820343 1.831541 19.72773 2.505378 19.05345L9.558828 12L2.505378 4.94655C1.831541 4.272271 1.831541 3.179657 2.505378 2.505378C3.179657 1.831541 4.272271 1.831541 4.94655 2.505378L12 9.558828Z"/></svg>
