<svg xmlns="http://www.w3.org/2000/svg" width="24" height="24" viewBox="0 0 24 24"><path d="M18 6L6 18Z"/><path d="M17.11488 5.11488L5.11488 17.11488C4.62624 17.60384 4.62624 18.39616 5.11488 18.88512C5.60384 19.37376 6.39616 19.37376 6.88512 18.88512L18.88512 6.88512C19.37376 6.39616 19.37376 5.60384 18.88512 5.11488C18.39616 4.62624 17.60384 4.62624 17.11488 5.11488Z"/><path d="M6 6L18 18Z"/><path d="M5.11488 5.11488C4.62624 5.60384 4.62624 6.39616 5.11488 6.88512L17.11488 18.88512C17.60384 19.37376 18.39616 19.37376 18.88512 18.88512C19.37376 18.39616 19.37376 17.60384 18.88512 17.11488L6.88512 5.11488C6.39616 4.62624 5.60384 4.62624 5.11488 5.11488Z"/></svg>
