<svg xmlns="http://www.w3.org/2000/svg" width="24" height="24" viewBox="0 0 24 24"><path d="M17.267521 0.9936C18.778879 1.09376 20.156158 1.7936 21.184959 2.82368C22.215038 3.85376 22.916159 5.23136 23.016319 6.7424C23.11488 8.25248 22.56992 9.87744 21.260159 11.23488C21.256319 11.23872 21.25248 11.24384 21.247358 11.24736L18.24736 14.2464C15.67744 16.8176 11.3776 16.51136 9.19872 13.6C8.86752 13.15744 8.95744 12.52992 9.4 12.19872C9.84256 11.86752 10.47008 11.95744 10.80128 12.4C12.27136 14.3664 15.09632 14.56992 16.83264 12.8336V12.83264L19.82016 9.8464C19.822399 9.84384 19.822399 9.84128 19.823681 9.84C20.78496 8.84256 21.08256 7.83872 21.020159 6.87264C20.95616 5.90496 20.48864 4.95616 19.7712 4.23872C19.053761 3.52128 18.104959 3.05376 17.13632 2.99008C16.1712 2.92736 15.16736 3.22496 14.16992 4.18496L14.16384 4.19008L12.45504 5.88864C12.06368 6.27744 11.43008 6.27616 11.04128 5.88512C10.6512 5.49376 10.65376 4.86016 11.04512 4.47136L12.76512 2.76128C12.76864 2.75744 12.77248 2.7536 12.77504 2.75008C14.13248 1.44 15.75616 0.89504 17.267521 0.9936ZM10.42368 8.01984C12.09248 8.13888 13.71136 8.94368 14.80128 10.4C15.13248 10.84256 15.04256 11.47008 14.6 11.80128C14.15744 12.13248 13.52992 12.04256 13.19872 11.6C11.72864 9.6336 8.90368 9.43008 7.16736 11.1664V11.16736L4.17984 14.1536C4.1776 14.15616 4.1776 14.15872 4.17632 14.16C3.21504 15.15744 2.91744 16.16128 2.97984 17.127359C3.04384 18.095039 3.51136 19.04384 4.2288 19.76128C4.94624 20.47872 5.89504 20.946239 6.86368 21.009918C7.8288 21.072639 8.83264 20.77504 9.83008 19.815041L11.53376 18.1136C11.92384 17.722561 12.55616 17.722561 12.94752 18.1136C13.3376 18.503679 13.3376 19.13632 12.94752 19.527361L11.23616 21.236158C11.23264 21.24128 11.2288 21.245119 11.22496 21.24992C9.86752 22.559999 8.24384 23.104959 6.73248 23.006399C5.22112 22.906239 3.84384 22.2064 2.81504 21.176319C1.78496 20.146238 1.08384 18.768641 0.98368 17.257601C0.88512 15.74752 1.43008 14.12256 2.73984 12.76512C2.74368 12.76128 2.74752 12.75616 2.75264 12.75264L5.75264 9.7536C7.03744 8.46752 8.75488 7.90016 10.42368 8.01984Z"/></svg>
