<svg xmlns="http://www.w3.org/2000/svg" width="24" height="24" viewBox="0 0 24 24"><path d="M10 13C10.8688 14.16128 12.2 14.88864 13.6464 14.99264C15.09376 15.09632 16.5136 14.5664 17.53984 13.53984L20.540159 10.54016C22.434879 8.5776 22.407359 5.45984 20.478719 3.5312C18.55008 1.60256 15.43264 1.57504 13.47008 3.47008L11.75008 5.18016"/><path d="M14 11C13.1312 9.83872 11.8 9.11136 10.3536 9.00736C8.90624 8.90368 7.4864 9.4336 6.46016 10.46016L3.45984 13.45984C1.56512 15.4224 1.59264 18.54016 3.52128 20.468799C5.44992 22.397439 8.56736 22.424959 10.52992 20.529919L12.24 18.81984"/></svg>
