<svg xmlns="http://www.w3.org/2000/svg" width="24" height="24" viewBox="0 0 24 24"><path d="M17.26752 0.9936C15.75616 0.89504 14.13248 1.44 12.77504 2.75008C12.77248 2.7536 12.76864 2.75744 12.76512 2.76128L11.04512 4.47136C10.65376 4.86016 10.6512 5.49376 11.04128 5.88512C11.43008 6.27616 12.06368 6.27744 12.45504 5.88864L14.16384 4.19008L14.16992 4.18496C15.16736 3.22496 16.1712 2.92736 17.13632 2.99008C18.10496 3.05376 19.05376 3.52128 19.7712 4.23872C20.488639 4.95616 20.956159 5.90496 21.020159 6.87264C21.082559 7.83872 20.784959 8.84256 19.82368 9.84C19.8224 9.84128 19.8224 9.84384 19.82016 9.8464L16.83264 12.83264C16.83264 12.83264 16.83264 12.8336 16.83264 12.8336C15.09632 14.56992 12.27136 14.3664 10.80128 12.4C10.47008 11.95744 9.84256 11.86752 9.4 12.19872C8.95744 12.52992 8.86752 13.15744 9.19872 13.6C11.3776 16.51136 15.67744 16.8176 18.24736 14.2464L21.247359 11.24736C21.252479 11.24384 21.256319 11.23872 21.260159 11.23488C22.569919 9.87744 23.114879 8.25248 23.016319 6.7424C22.916159 5.23136 22.215039 3.85376 21.184959 2.82368C20.156159 1.7936 18.77888 1.09376 17.26752 0.9936Z"/><path d="M10.42368 8.01984C8.75488 7.90016 7.03744 8.46752 5.75264 9.7536L2.75264 12.75264C2.74752 12.75616 2.74368 12.76128 2.73984 12.76512C1.43008 14.12256 0.88512 15.74752 0.98368 17.2576C1.08384 18.76864 1.78496 20.146239 2.81504 21.176319C3.84384 22.206399 5.22112 22.906239 6.73248 23.006399C8.24384 23.104959 9.86752 22.559999 11.22496 21.249919C11.2288 21.245119 11.23264 21.241279 11.23616 21.236159L12.94752 19.52736C13.3376 19.13632 13.3376 18.50368 12.94752 18.1136C12.55616 17.72256 11.92384 17.72256 11.53376 18.1136L9.83008 19.81504C8.83264 20.775039 7.8288 21.072639 6.86368 21.009919C5.89504 20.946239 4.94624 20.478719 4.2288 19.76128C3.51136 19.04384 3.04384 18.09504 2.97984 17.12736C2.91744 16.16128 3.21504 15.15744 4.17632 14.16C4.1776 14.15872 4.1776 14.15616 4.17984 14.1536L7.16736 11.16736C7.16736 11.16736 7.16736 11.1664 7.16736 11.1664C8.90368 9.43008 11.72864 9.6336 13.19872 11.6C13.52992 12.04256 14.15744 12.13248 14.6 11.80128C15.04256 11.47008 15.13248 10.84256 14.80128 10.4C13.71136 8.94368 12.09248 8.13888 10.42368 8.01984Z"/></svg>
