<svg xmlns="http://www.w3.org/2000/svg" width="24" height="24" viewBox="0 0 24 24"><path d="M22 5.75C22 5.33579 21.6642 5 21.25 5L5.75 5C5.33579 5 5 5.33579 5 5.75C5 6.16421 5.33579 6.5 5.75 6.5L21.25 6.5C21.6642 6.5 22 6.16421 22 5.75ZM22 17.75C22 17.3358 21.6642 17 21.25 17L8.75 17C8.33579 17 8 17.3358 8 17.75C8 18.1642 8.33579 18.5 8.75 18.5L21.25 18.5C21.6642 18.5 22 18.1642 22 17.75ZM21.25 11C21.6642 11 22 11.3358 22 11.75C22 12.1642 21.6642 12.5 21.25 12.5L2.75 12.5C2.33579 12.5 2 12.1642 2 11.75C2 11.3358 2.33579 11 2.75 11L21.25 11Z"/></svg>
