<svg xmlns="http://www.w3.org/2000/svg" width="24" height="24" viewBox="0 0 24 24"><path d="M21.25 11C21.6642 11 22 11.3358 22 11.75C22 12.1642 21.6642 12.5 21.25 12.5H2.75C2.33579 12.5 2 12.1642 2 11.75C2 11.3358 2.33579 11 2.75 11ZM22 5.75C22 6.16421 21.6642 6.5 21.25 6.5H5.75C5.33579 6.5 5 6.16421 5 5.75C5 5.33579 5.33579 5 5.75 5H21.25C21.6642 5 22 5.33579 22 5.75ZM22 17.75C22 18.1642 21.6642 18.5 21.25 18.5H8.75C8.33579 18.5 8 18.1642 8 17.75C8 17.3358 8.33579 17 8.75 17H21.25C21.6642 17 22 17.3358 22 17.75Z"/></svg>
