<svg xmlns="http://www.w3.org/2000/svg" width="24" height="24" viewBox="0 0 24 24"><path d="M21 11 21.1166 11.0067C21.614 11.0645 22 11.4872 22 12C22 12.5523 21.552299 13 21 13H3L2.88338 12.9933C2.38604 12.9355 2 12.5128 2 12C2 11.4477 2.44772 11 3 11ZM21 5 21.1166 5.00673C21.614 5.06449 22 5.48716 22 6C22 6.55228 21.552299 7 21 7H6L5.88338 6.99327C5.38604 6.93551 5 6.51284 5 6C5 5.44772 5.55228 5 6 5ZM21 17 21.1166 17.006701C21.614 17.064501 22 17.4872 22 18C22 18.552299 21.552299 19 21 19H9L8.88338 18.993299C8.38604 18.935499 8 18.5128 8 18C8 17.447701 8.44772 17 9 17Z"/></svg>
