<svg xmlns="http://www.w3.org/2000/svg" width="24" height="24" viewBox="0 0 24 24"><path d="M4.026667 2.958667C4.010667 2.989333 4.005333 3.010667 4.016 3.057333C4.021333 3.093333 4.026667 3.333333 4.026667 3.593333L4.030667 4.062667L4 4.093333C3.969333 4.125333 3.964 4.125333 3.86 4.12C3.62 4.104 3.281333 4.12 3.234667 4.150667C3.218667 4.161333 3.188 4.172 3.161333 4.172C3.130667 4.172 3.104 4.182667 3.082667 4.197333C3.068 4.208 3.046667 4.218667 3.036 4.218667C3.010667 4.218667 2.838667 4.306667 2.806667 4.338667C2.792 4.349333 2.770667 4.36 2.754667 4.364C2.718667 4.374667 2.406667 4.688 2.396 4.724C2.390667 4.74 2.38 4.76 2.369333 4.776C2.354667 4.786667 2.333333 4.822667 2.317333 4.854667C2.302667 4.88 2.281333 4.917333 2.270667 4.932C2.26 4.948 2.250667 4.978667 2.245333 5.005333C2.24 5.030667 2.229333 5.052 2.218667 5.062667C2.208 5.073333 2.202667 5.098667 2.202667 5.130667C2.202667 5.166667 2.193333 5.197333 2.182667 5.213333C2.156 5.250667 2.150667 5.354667 2.136 5.802667C2.12 6.234667 2.130667 19.489333 2.145333 19.630666C2.150667 19.697333 2.156 19.781333 2.156 19.817333C2.156 19.864 2.161333 19.906666 2.177333 19.926666C2.188 19.948 2.197333 19.989333 2.202667 20.026666C2.208 20.062666 2.224 20.098666 2.229333 20.109333C2.24 20.119999 2.250667 20.135999 2.250667 20.150666C2.250667 20.166666 2.276 20.218666 2.312 20.286666C2.317333 20.297333 2.328 20.317333 2.338667 20.338666C2.344 20.359999 2.364 20.379999 2.369333 20.390666C2.38 20.401333 2.390667 20.411999 2.390667 20.415999C2.390667 20.437333 2.484 20.551999 2.578667 20.639999C2.776 20.833333 2.969333 20.931999 3.270667 21.010666L3.390667 21.041333L6.584 21.046666L9.770666 21.051999L9.948 21.197333C10.14 21.354666 10.224 21.415999 10.416 21.541333C10.510666 21.598666 10.792 21.734666 10.937333 21.786666C11.749333 22.073333 12.661333 22.015999 13.421333 21.625333C13.661333 21.505333 13.917333 21.327999 14.130666 21.135999L14.229333 21.046666L17.322666 21.046666C19.136 21.046666 20.473333 21.041333 20.546666 21.035999C20.906666 21.005333 21.213333 20.859999 21.469333 20.598666C21.666666 20.390666 21.786666 20.161333 21.854666 19.869333C21.869333 19.781333 21.874666 19.489333 21.874666 12.573333L21.874666 5.374667L21.843999 5.254667C21.759999 4.896 21.583999 4.604 21.302666 4.390667C21.202666 4.317333 21.030666 4.218667 20.999999 4.218667C20.983999 4.218667 20.958666 4.208 20.937333 4.197333C20.917333 4.182667 20.885333 4.172 20.859999 4.172C20.838666 4.172 20.802666 4.161333 20.775999 4.150667C20.739999 4.136 20.682666 4.125333 20.557333 4.12C20.359999 4.109333 20.338666 4.109333 20.193333 4.12C20.109333 4.125333 20.073333 4.125333 20.067999 4.114667C20.062666 4.109333 20.046666 4.104 20.026666 4.104L19.994666 4.104L19.994666 2.953333L19.964 2.937333C19.937333 2.917333 19.776 2.917333 18.193333 2.917333C17.041333 2.917333 16.432 2.921333 16.396 2.932C16.364 2.937333 16.177333 2.948 15.978666 2.953333C15.729333 2.958667 15.604 2.964 15.578666 2.978667C15.557333 2.984 15.458666 2.994667 15.333333 3C15.188 3.005333 15.114666 3.010667 15.093333 3.026667C15.073333 3.030667 15.005333 3.041333 14.906666 3.046667C14.792 3.052 14.74 3.057333 14.708 3.073333C14.682666 3.088 14.645333 3.093333 14.584 3.093333C14.516 3.093333 14.478666 3.098667 14.442666 3.12C14.412 3.136 14.369333 3.14 14.302666 3.14C14.229333 3.14 14.197333 3.145333 14.166666 3.166667C14.136 3.177333 14.098666 3.188 14.057333 3.188C14.016 3.188 13.973333 3.197333 13.948 3.213333C13.921333 3.224 13.874666 3.234667 13.849333 3.234667C13.822666 3.234667 13.781333 3.245333 13.754666 3.26C13.729333 3.270667 13.693333 3.281333 13.666666 3.281333C13.645333 3.281333 13.614666 3.292 13.598666 3.306667C13.578666 3.317333 13.546666 3.328 13.521333 3.328C13.489333 3.328 13.464 3.338667 13.442666 3.354667C13.426666 3.364 13.396 3.374667 13.369333 3.374667C13.349333 3.374667 13.312 3.385333 13.297333 3.401333C13.276 3.412 13.245333 3.421333 13.224 3.421333C13.208 3.421333 13.172 3.432 13.156 3.448C13.136 3.458667 13.104 3.469333 13.088 3.469333C13.073333 3.469333 13.046666 3.478667 13.036 3.494667C13.026666 3.505333 13 3.516 12.984 3.516C12.964 3.516 12.942666 3.526667 12.932 3.530667C12.926666 3.541333 12.901333 3.552 12.885333 3.557333C12.864 3.562667 12.792 3.598667 12.724 3.636C12.521333 3.734667 12.484 3.754667 12.458666 3.781333C12.448 3.797333 12.412 3.817333 12.385333 3.833333C12.354666 3.844 12.328 3.864 12.322666 3.869333C12.322666 3.88 12.302666 3.890667 12.286666 3.896C12.265333 3.896 12.224 3.926667 12.188 3.964C12.068 4.082667 12.021333 4.093333 11.942666 4.036C11.833333 3.958667 11.661333 3.844 11.650666 3.844C11.645333 3.844 11.636 3.838667 11.630666 3.828C11.62 3.812 11.469333 3.718667 11.416 3.697333C11.406666 3.693333 11.374666 3.677333 11.349333 3.661333C11.322666 3.645333 11.292 3.625333 11.276 3.62C11.202666 3.588 11.136 3.557333 11.098666 3.536C11.073333 3.526667 11.041333 3.516 11.026666 3.516C11.016 3.516 10.989333 3.505333 10.973333 3.494667C10.958666 3.478667 10.932 3.469333 10.917333 3.469333C10.906666 3.469333 10.874666 3.458667 10.86 3.448C10.838666 3.432 10.806666 3.421333 10.792 3.421333C10.776 3.421333 10.754666 3.416 10.745333 3.406667C10.734666 3.396 10.682666 3.374667 10.625333 3.36C10.568 3.338667 10.5 3.322667 10.484 3.312C10.464 3.306667 10.416 3.297333 10.38 3.286667C10.349333 3.281333 10.306666 3.265333 10.292 3.26C10.276 3.250667 10.234666 3.24 10.193333 3.234667C10.150666 3.229333 10.098666 3.218667 10.073333 3.208C10.046666 3.197333 10.005333 3.188 9.973333 3.188C9.948 3.188 9.912 3.177333 9.890666 3.172C9.869333 3.161333 9.812 3.145333 9.76 3.14C9.702666 3.136 9.650666 3.125333 9.636 3.12C9.62 3.109333 9.546666 3.098667 9.469333 3.093333C9.396 3.088 9.322666 3.078667 9.306666 3.073333C9.286666 3.062667 9.213333 3.052 9.104 3.046667C9 3.041333 8.917333 3.030667 8.890666 3.021333C8.854666 3.005333 8.797333 3 8.697333 3C8.598666 3 8.526666 2.994667 8.484 2.984C8.437333 2.969333 8.322666 2.958667 8.068 2.953333C7.874666 2.948 7.688 2.937333 7.650666 2.932C7.614666 2.921333 6.854666 2.917333 5.817333 2.917333L4.046667 2.917333ZM8.213333 3.86C8.333333 3.869333 8.494666 3.885333 8.568 3.890667C9.088 3.937333 9.682666 4.036 10.088 4.150667C10.625333 4.297333 11.073333 4.516 11.412 4.781333C11.458666 4.822667 11.536 4.885333 11.578666 4.917333C11.62 4.948 11.693333 5.005333 11.734666 5.052C11.854666 5.166667 11.958666 5.245333 12 5.254667C12.030666 5.26 12.041333 5.254667 12.093333 5.213333C12.36 4.978667 12.505333 4.854667 12.609333 4.770667C13.062666 4.426667 13.625333 4.193333 14.344 4.052C14.636 3.994667 14.942666 3.942667 15.125333 3.926667C15.188 3.917333 15.276 3.906667 15.322666 3.901333C15.412 3.890667 15.817333 3.86 16.130666 3.844C16.234666 3.838667 16.932 3.833333 17.688 3.833333C19.030666 3.833333 19.057333 3.833333 19.057333 3.854667C19.057333 3.869333 19.062666 3.88 19.068 3.885333C19.082666 3.896 19.082666 18.213333 19.068 18.250666L19.052 18.281333L16.885333 18.281333C15.068 18.286666 14.718666 18.292 14.688 18.302666C14.666666 18.312 14.584 18.322666 14.437333 18.328C14.270666 18.333333 14.213333 18.338666 14.188 18.354666C14.161333 18.369333 14.12 18.374666 14.062666 18.374666C14.010666 18.374666 13.964 18.38 13.937333 18.396C13.912 18.406666 13.849333 18.416 13.792 18.421333C13.729333 18.426666 13.677333 18.437333 13.661333 18.448C13.645333 18.458666 13.614666 18.469333 13.588 18.469333C13.557333 18.469333 13.526666 18.478666 13.510666 18.494666C13.489333 18.505333 13.464 18.516 13.426666 18.516C13.401333 18.516 13.369333 18.526666 13.36 18.530666C13.349333 18.541333 13.312 18.557333 13.281333 18.562666C13.250666 18.568 13.208 18.578666 13.193333 18.588C13.177333 18.598666 13.150666 18.609333 13.136 18.609333C13.114666 18.609333 13.093333 18.62 13.082666 18.636C13.068 18.645333 13.046666 18.656 13.030666 18.656C13.016 18.656 12.984 18.666666 12.969333 18.682666C12.948 18.693333 12.917333 18.702666 12.901333 18.702666C12.885333 18.702666 12.86 18.713333 12.849333 18.729333C12.838666 18.74 12.812 18.749333 12.797333 18.749333C12.776 18.749333 12.76 18.76 12.749333 18.776C12.745333 18.786666 12.724 18.797333 12.708 18.797333C12.693333 18.797333 12.672 18.806666 12.661333 18.822666C12.645333 18.833333 12.630666 18.844 12.614666 18.844C12.598666 18.844 12.578666 18.854666 12.568 18.869333C12.557333 18.88 12.541333 18.890666 12.526666 18.890666C12.510666 18.890666 12.432 18.937333 12.401333 18.969333C12.390666 18.978666 12.374666 18.984 12.364 18.984C12.349333 18.984 12.338666 18.994666 12.333333 19C12.328 19.010666 12.302666 19.030666 12.270666 19.052C12.24 19.068 12.182666 19.114666 12.14 19.150666C12.098666 19.188 12.057333 19.218666 12.046666 19.218666C12.036 19.218666 12.021333 19.224 12.016 19.229333C12.005333 19.24 11.984 19.224 11.932 19.182666C11.896 19.150666 11.86 19.125333 11.854666 19.125333C11.849333 19.125333 11.817333 19.104 11.781333 19.073333C11.713333 19.021333 11.64 18.973333 11.473333 18.874666C11.322666 18.792 11.041333 18.656 11.010666 18.656C11.005333 18.656 10.978666 18.645333 10.953333 18.636C10.926666 18.62 10.896 18.609333 10.885333 18.609333C10.874666 18.609333 10.844 18.598666 10.817333 18.588C10.797333 18.573333 10.765333 18.562666 10.754666 18.562666C10.745333 18.562666 10.718666 18.552 10.697333 18.541333C10.677333 18.536 10.636 18.521333 10.609333 18.516C10.578666 18.510666 10.530666 18.5 10.505333 18.489333C10.478666 18.478666 10.437333 18.469333 10.412 18.469333C10.385333 18.469333 10.354666 18.458666 10.338666 18.448C10.322666 18.437333 10.270666 18.426666 10.218666 18.421333C10.172 18.416 10.109333 18.406666 10.082666 18.396C10.057333 18.385333 10.005333 18.374666 9.964 18.374666C9.917333 18.374666 9.869333 18.369333 9.849333 18.354666C9.822666 18.344 9.76 18.333333 9.636 18.328C9.530666 18.322666 9.432 18.312 9.412 18.302666C9.374666 18.292 8.921333 18.286666 7.156 18.281333L4.948 18.281333L4.948 3.833333L6.473333 3.833333C7.781333 3.838667 8.026666 3.844 8.213333 3.86ZM20.505333 5.010667C20.625333 5.021333 20.811999 5.14 20.874666 5.254667C20.890666 5.281333 20.911999 5.333333 20.926666 5.374667L20.953333 5.448L20.953333 12.598666C20.947999 19.396 20.947999 19.754666 20.926666 19.776C20.917333 19.792 20.906666 19.812 20.906666 19.822666C20.906666 19.833333 20.895999 19.86 20.879999 19.874666C20.863999 19.896 20.838666 19.932 20.817333 19.958666C20.802666 19.984 20.781333 20.005333 20.775999 20.005333C20.770666 20.005333 20.754666 20.015999 20.734666 20.030666C20.718666 20.046666 20.687999 20.062666 20.671999 20.067999C20.655999 20.073333 20.635999 20.082666 20.625333 20.093333C20.614666 20.098666 20.583999 20.109333 20.557333 20.114666C20.530666 20.119999 20.494666 20.130666 20.478666 20.139999C20.458666 20.155999 20.067999 20.155999 17.213333 20.150666C15.432 20.150666 13.964 20.145333 13.953333 20.145333C13.937333 20.145333 13.901333 20.145333 13.864 20.150666C13.812 20.155999 13.797333 20.166666 13.734666 20.229333C13.693333 20.270666 13.656 20.317333 13.645333 20.333333C13.636 20.349333 13.584 20.406666 13.521333 20.458666C13.464 20.510666 13.385333 20.578666 13.349333 20.614666C13.312 20.645333 13.276 20.671999 13.270666 20.671999C13.26 20.671999 13.24 20.682666 13.172 20.739999C13.156 20.754666 13.130666 20.765333 13.12 20.765333C13.109333 20.765333 13.093333 20.775999 13.082666 20.791999C13.068 20.802666 13.046666 20.811999 13.036 20.811999C13.021333 20.811999 13 20.822666 12.989333 20.838666C12.973333 20.849333 12.953333 20.859999 12.942666 20.859999C12.926666 20.859999 12.906666 20.869333 12.896 20.885333C12.88 20.895999 12.86 20.906666 12.844 20.906666C12.828 20.906666 12.802666 20.917333 12.792 20.931999C12.776 20.942666 12.754666 20.953333 12.729333 20.953333C12.697333 20.953333 12.672 20.963999 12.656 20.978666C12.636 20.994666 12.614666 20.999999 12.562666 20.999999C12.516 20.999999 12.473333 21.010666 12.437333 21.026666C12.385333 21.046666 12.364 21.051999 12.026666 21.051999C11.682666 21.051999 11.661333 21.051999 11.593333 21.026666C11.552 21.010666 11.505333 20.999999 11.484 20.999999C11.469333 20.999999 11.426666 20.989333 11.401333 20.978666C11.374666 20.963999 11.333333 20.953333 11.312 20.953333C11.292 20.953333 11.270666 20.947999 11.26 20.937333C11.254666 20.926666 11.229333 20.917333 11.213333 20.911999C11.193333 20.906666 11.161333 20.895999 11.145333 20.890666C11.130666 20.879999 11.078666 20.859999 11.030666 20.838666C10.989333 20.817333 10.942666 20.797333 10.932 20.791999C10.921333 20.781333 10.890666 20.765333 10.864 20.745333C10.682666 20.639999 10.478666 20.463999 10.317333 20.270666L10.218666 20.155999L6.906666 20.155999C4.109333 20.155999 3.588 20.155999 3.557333 20.139999C3.536 20.130666 3.494667 20.119999 3.469333 20.114666C3.344 20.093333 3.177333 19.969333 3.12 19.854666C3.098667 19.817333 3.078667 19.76 3.073333 19.729333C3.052 19.661333 3.041333 5.656 3.057333 5.489333C3.078667 5.292 3.188 5.14 3.364 5.052L3.448 5.010667L3.729333 5.005333L4.010667 5.005333L4.010667 5.030667C4.010667 5.046667 4.016 5.062667 4.021333 5.068C4.026667 5.073333 4.030667 7.437333 4.030667 12.12C4.030667 17.74 4.036 19.172 4.046667 19.188C4.057333 19.208 4.250667 19.208 6.76 19.208L9.464 19.213333L9.672 19.245333C9.917333 19.281333 10.057333 19.306666 10.224 19.354666C10.666666 19.469333 11.078666 19.672 11.401333 19.932C11.598666 20.087999 11.754666 20.145333 12 20.145333C12.245333 20.145333 12.416 20.082666 12.598666 19.932C13.052 19.562666 13.630666 19.338666 14.354666 19.24L14.546666 19.213333L17.270666 19.208L19.994666 19.208L19.994666 5.005333L20.041333 5C20.098666 4.994667 20.406666 5 20.505333 5.010667Z"/></svg>
