<svg xmlns="http://www.w3.org/2000/svg" width="24" height="24" viewBox="0 0 24 24"><path d="M4.041333 2.948 4.068 2.917333H5.776C6.776 2.917333 7.510666 2.921333 7.546666 2.932C7.584 2.937333 7.797333 2.948 8.021333 2.953333C8.292 2.958667 8.442666 2.969333 8.469333 2.978667C8.484 2.984 8.588 2.994667 8.688 3C8.806666 3.005333 8.885333 3.016 8.906666 3.026667C8.926666 3.036 9 3.041333 9.114666 3.046667C9.218666 3.052 9.302666 3.062667 9.317333 3.073333C9.333333 3.078667 9.406666 3.088 9.478666 3.093333C9.552 3.098667 9.62 3.109333 9.636 3.12C9.650666 3.125333 9.702666 3.136 9.76 3.14C9.812 3.145333 9.869333 3.161333 9.88 3.166667C9.896 3.177333 9.942666 3.188 9.984 3.193333C10.026666 3.193333 10.078666 3.202667 10.093333 3.213333C10.114666 3.224 10.150666 3.234667 10.177333 3.234667C10.202666 3.234667 10.245333 3.245333 10.270666 3.254667C10.297333 3.265333 10.344 3.276 10.374666 3.281333C10.406666 3.292 10.442666 3.302667 10.458666 3.312C10.469333 3.322667 10.5 3.328 10.516 3.328C10.536 3.328 10.578666 3.338667 10.604 3.354667C10.630666 3.364 10.666666 3.374667 10.677333 3.374667C10.688 3.374667 10.708 3.385333 10.729333 3.401333C10.749333 3.412 10.776 3.421333 10.786666 3.421333C10.802666 3.421333 10.828 3.432 10.854666 3.448C10.88 3.458667 10.906666 3.469333 10.921333 3.469333C10.932 3.469333 10.953333 3.478667 10.969333 3.494667C10.984 3.505333 11.010666 3.516 11.026666 3.516C11.041333 3.516 11.073333 3.526667 11.093333 3.541333C11.114666 3.552 11.14 3.562667 11.150666 3.562667C11.156 3.562667 11.177333 3.573333 11.193333 3.588C11.213333 3.598667 11.234666 3.609333 11.250666 3.609333C11.26 3.609333 11.276 3.614667 11.276 3.62C11.281333 3.625333 11.306666 3.64 11.333333 3.656C11.364 3.666667 11.390666 3.682667 11.401333 3.688C11.412 3.693333 11.432 3.708 11.453333 3.713333C11.530666 3.76 11.62 3.812 11.630666 3.828C11.636 3.838667 11.645333 3.844 11.650666 3.844C11.666666 3.844 11.786666 3.921333 11.912 4.016C11.984 4.068 12 4.073333 12.036 4.068C12.078666 4.062667 12.082666 4.062667 12.166666 3.984C12.24 3.912 12.270666 3.890667 12.292 3.890667C12.306666 3.890667 12.322666 3.88 12.333333 3.869333C12.344 3.854667 12.36 3.844 12.369333 3.844C12.38 3.844 12.401333 3.833333 12.469333 3.776C12.484 3.76 12.510666 3.749333 12.516 3.749333C12.526666 3.749333 12.541333 3.74 12.552 3.734667C12.578666 3.702667 12.869333 3.562667 12.890666 3.562667C12.901333 3.562667 12.921333 3.552 12.932 3.541333C12.942666 3.526667 12.964 3.516 12.978666 3.516C12.994666 3.516 13.021333 3.505333 13.041333 3.494667C13.057333 3.478667 13.082666 3.469333 13.104 3.469333C13.12 3.469333 13.145333 3.458667 13.161333 3.448C13.182666 3.432 13.208 3.421333 13.234666 3.421333C13.26 3.421333 13.292 3.412 13.306666 3.401333C13.328 3.385333 13.36 3.374667 13.38 3.374667C13.401333 3.374667 13.432 3.364 13.448 3.354667C13.469333 3.338667 13.5 3.328 13.526666 3.328C13.552 3.328 13.584 3.317333 13.593333 3.306667C13.604 3.302667 13.64 3.286667 13.677333 3.281333C13.713333 3.276 13.754666 3.265333 13.770666 3.254667C13.786666 3.245333 13.822666 3.234667 13.86 3.234667C13.890666 3.234667 13.937333 3.224 13.964 3.213333C13.989333 3.197333 14.036 3.188 14.073333 3.188C14.109333 3.188 14.150666 3.177333 14.182666 3.166667C14.213333 3.145333 14.250666 3.14 14.317333 3.14C14.38 3.14 14.421333 3.136 14.453333 3.12C14.489333 3.098667 14.526666 3.093333 14.588 3.093333C14.650666 3.093333 14.688 3.088 14.713333 3.073333C14.74 3.062667 14.797333 3.052 14.912 3.046667C15.005333 3.041333 15.098666 3.030667 15.136 3.021333C15.172 3.005333 15.234666 3 15.333333 3C15.421333 3 15.505333 2.989333 15.557333 2.978667C15.614666 2.969333 15.74 2.958667 16.026667 2.953333C16.24 2.948 16.437332 2.937333 16.464001 2.932C16.5 2.921333 17.087999 2.917333 18.213333 2.917333C19.781334 2.917333 19.912001 2.917333 19.953333 2.937333L19.994665 2.958667V4.098667L20.030666 4.109333C20.051998 4.109333 20.213333 4.114667 20.390665 4.12C20.682667 4.125333 20.713333 4.125333 20.754665 4.145333C20.781334 4.161333 20.822666 4.172 20.844 4.172C20.869333 4.172 20.906666 4.182667 20.931999 4.197333C20.958666 4.208 20.983999 4.218667 20.994665 4.218667C21.026667 4.218667 21.218666 4.328 21.297333 4.390667C21.593332 4.625333 21.775999 4.917333 21.849333 5.281333C21.869333 5.38 21.874666 5.614667 21.874666 12.568C21.874666 19.573334 21.874666 19.754665 21.849333 19.864C21.797333 20.130667 21.688 20.354666 21.515999 20.546665C21.259998 20.833332 20.926666 21.005333 20.557333 21.035999C20.473333 21.041332 19.224001 21.046665 17.327999 21.046665H14.234666L14.145333 21.125334C13.781333 21.442665 13.426666 21.655998 13.046666 21.786667C12.245333 22.067999 11.36 22.015999 10.630666 21.650665C10.458666 21.567999 10.396 21.526667 10.229333 21.415998C10.145333 21.363998 9.906666 21.166666 9.822666 21.087999L9.781333 21.046665L6.578667 21.041332H3.38L3.281333 21.015999C2.973333 20.931999 2.765333 20.822666 2.573333 20.636C2.484 20.551998 2.390667 20.437332 2.390667 20.415998C2.390667 20.411999 2.38 20.401333 2.369333 20.390665C2.364 20.379999 2.344 20.359999 2.338667 20.338667C2.328 20.317333 2.306667 20.275999 2.286667 20.245333C2.265333 20.213333 2.250667 20.171999 2.250667 20.155998C2.250667 20.139999 2.24 20.109333 2.229333 20.093332C2.213333 20.073334 2.202667 20.041332 2.202667 20.015999C2.202667 19.994665 2.193333 19.958666 2.182667 19.937332C2.166667 19.901333 2.156 19.854666 2.150667 19.724001C2.14 19.5 2.14 5.718667 2.150667 5.458667C2.156 5.292 2.161333 5.250667 2.182667 5.218667C2.193333 5.197333 2.202667 5.156 2.202667 5.136C2.202667 5.109333 2.213333 5.068 2.224 5.046667C2.24 5.026667 2.250667 4.994667 2.254667 4.973333C2.26 4.953333 2.270667 4.926667 2.281333 4.921333C2.292 4.912 2.297333 4.901333 2.297333 4.896C2.297333 4.885333 2.317333 4.854667 2.338667 4.817333C2.364 4.781333 2.390667 4.74 2.396 4.724C2.437333 4.650667 2.745333 4.36 2.781333 4.36C2.792 4.36 2.802667 4.349333 2.806667 4.344C2.817333 4.322667 2.921333 4.265333 2.948 4.265333C2.953333 4.265333 2.973333 4.254667 2.989333 4.245333C3.010667 4.229333 3.036 4.218667 3.052 4.218667C3.068 4.218667 3.088 4.208 3.098667 4.197333C3.114667 4.182667 3.136 4.172 3.166667 4.172C3.193333 4.172 3.229333 4.161333 3.250667 4.150667C3.312 4.12 3.625333 4.104 3.86 4.12C3.964 4.125333 3.969333 4.125333 4 4.093333L4.030667 4.062667L4.026667 3.584C4.021333 3.317333 4.021333 3.073333 4.016 3.036C4.016 2.989333 4.021333 2.973333 4.041333 2.948ZM7.88 3.844C7.749333 3.838667 7.036 3.833333 6.297333 3.833333H4.948V18.281334L7.104 18.286667C8.786666 18.286667 9.276 18.292 9.312 18.302666C9.338666 18.312 9.453333 18.322666 9.568 18.327999C9.718666 18.333332 9.792 18.344 9.822666 18.354666C9.849333 18.369333 9.901333 18.374666 9.953333 18.374666C10.010666 18.374666 10.052 18.379999 10.082666 18.401333C10.114666 18.412001 10.156 18.421333 10.202666 18.421333C10.245333 18.421333 10.292 18.431999 10.322666 18.448C10.349333 18.458666 10.396 18.469334 10.416 18.469334C10.442666 18.469334 10.478666 18.478666 10.505333 18.494665C10.530666 18.505333 10.573333 18.516001 10.593333 18.516001C10.614666 18.516001 10.650666 18.526667 10.682666 18.535999C10.708 18.552 10.745333 18.562666 10.770666 18.568001C10.797333 18.573334 10.817333 18.584 10.828 18.593332C10.838666 18.598665 10.854666 18.609333 10.874666 18.609333C10.890666 18.609333 10.921333 18.620001 10.948 18.636C10.973333 18.645332 11 18.656 11.010666 18.656C11.021333 18.656 11.046666 18.666666 11.073333 18.677334C11.093333 18.693333 11.150666 18.713333 11.193333 18.734667C11.265333 18.770666 11.390666 18.833332 11.494666 18.890665C11.526666 18.912001 11.568 18.931999 11.584 18.942665C11.625333 18.964001 11.724 19.030666 11.921333 19.177334C11.989333 19.224001 12 19.229334 12.041333 19.218666C12.068 19.213333 12.088 19.202665 12.093333 19.197332C12.104 19.182667 12.229333 19.078667 12.24 19.078667C12.245333 19.078667 12.270666 19.057333 12.306666 19.030666C12.338666 19.005333 12.369333 18.983999 12.38 18.983999C12.385333 18.983999 12.401333 18.973333 12.416 18.964001C12.426666 18.948 12.464 18.926666 12.5 18.912001C12.530666 18.890665 12.568 18.869333 12.573333 18.860001C12.584 18.849333 12.598666 18.844 12.614666 18.844C12.630666 18.844 12.650666 18.833332 12.656 18.822666C12.666666 18.806665 12.682666 18.797333 12.702666 18.797333C12.724 18.797333 12.74 18.786667 12.749333 18.775999C12.76 18.76 12.776 18.749332 12.797333 18.749332C12.812 18.749332 12.838666 18.74 12.849333 18.729334C12.86 18.713333 12.885333 18.702665 12.901333 18.702665C12.917333 18.702665 12.948 18.693333 12.969333 18.682667C12.984 18.666666 13.016 18.656 13.030666 18.656C13.041333 18.656 13.068 18.645332 13.088 18.636C13.104 18.620001 13.130666 18.609333 13.145333 18.609333C13.161333 18.609333 13.193333 18.598665 13.213333 18.587999C13.234666 18.573334 13.265333 18.562666 13.281333 18.562666C13.302666 18.562666 13.333333 18.552 13.354666 18.541332C13.374666 18.526667 13.406666 18.516001 13.442666 18.516001C13.473333 18.516001 13.510666 18.505333 13.530666 18.494665C13.552 18.478666 13.588 18.469334 13.609333 18.469334C13.636 18.469334 13.672 18.458666 13.697333 18.448C13.724 18.426666 13.76 18.421333 13.812 18.421333C13.86 18.421333 13.901333 18.412001 13.932 18.401333C13.969333 18.379999 14.010666 18.374666 14.073333 18.374666C14.125333 18.374666 14.172 18.369333 14.202666 18.354666C14.234666 18.338667 14.302666 18.333332 14.494666 18.327999C14.645333 18.322666 14.765333 18.312 14.792 18.302666C14.822666 18.292 15.276 18.286667 16.937332 18.286667C18.729334 18.286667 19.046665 18.281334 19.062666 18.265333C19.078667 18.254665 19.078667 17.224001 19.078667 11.073333C19.078667 5.593333 19.078667 3.885333 19.068001 3.864L19.052 3.833333H17.718666C16.989332 3.833333 16.292 3.838667 16.177334 3.844C15.844 3.86 15.432 3.890667 15.338666 3.901333C15.292 3.906667 15.193333 3.917333 15.125333 3.926667C15 3.937333 14.953333 3.942667 14.666666 3.989333C14.426666 4.030667 14.068 4.104 13.948 4.14C13.478666 4.286667 13.406666 4.312 13.156 4.437333C12.844 4.588 12.584 4.776 12.202666 5.114667C12.14 5.172 12.078666 5.229333 12.062666 5.24C12.041333 5.26 12.026666 5.26 11.994666 5.254667C11.953333 5.250667 11.926666 5.229333 11.724 5.041333C11.62 4.948 11.578666 4.917333 11.349333 4.745333C11.030666 4.505333 10.661333 4.317333 10.254666 4.197333C10.073333 4.145333 10.036 4.136 9.942666 4.114667C9.557333 4.021333 9.182666 3.953333 8.849333 3.921333C8.754666 3.912 8.661333 3.901333 8.636 3.896C8.562666 3.885333 8.12 3.854667 7.88 3.844ZM4.016 5.052 4 5.005333H3.745333C3.530667 5.005333 3.473333 5.010667 3.426667 5.026667C3.254667 5.082667 3.136 5.202667 3.078667 5.374667L3.052 5.442667L3.046667 12.521333C3.046667 13.01996 3.046645 13.484171 3.046625 13.916367C3.046357 19.634388 3.046352 19.74865 3.100407 19.824268C3.106277 19.832479 3.112785 19.840237 3.12 19.854666C3.172 19.958666 3.36 20.109333 3.437333 20.109333C3.448 20.109333 3.489333 20.119999 3.526667 20.136C3.588 20.155998 3.62 20.155998 6.901333 20.155998H10.208L10.270666 20.223999C10.478666 20.463999 10.697333 20.650665 10.901333 20.765333C10.948 20.792 10.994666 20.817333 11.005333 20.822666C11.016 20.833332 11.036 20.844 11.052 20.849333C11.068 20.854666 11.098666 20.869333 11.125333 20.885332C11.145333 20.896 11.177333 20.906666 11.188 20.906666C11.197333 20.906666 11.224 20.917334 11.245333 20.926666C11.26 20.942665 11.302666 20.953333 11.333333 20.958666C11.36 20.963999 11.390666 20.973333 11.401333 20.978666C11.412 20.989332 11.448 20.999998 11.484 21.005333C11.521333 21.005333 11.568 21.021334 11.588 21.030666C11.625333 21.046665 11.672 21.051998 12.016 21.051998C12.390666 21.051998 12.406666 21.051998 12.453333 21.026667C12.484 21.010666 12.526666 20.999998 12.568 20.999998C12.609333 20.999998 12.636 20.994665 12.661333 20.978666C12.677333 20.963999 12.708 20.953333 12.729333 20.953333C12.754666 20.953333 12.781333 20.942665 12.797333 20.931999C12.812 20.917334 12.833333 20.906666 12.844 20.906666C12.86 20.906666 12.88 20.896 12.901333 20.885332C12.917333 20.869333 12.937333 20.859999 12.948 20.859999C12.958666 20.859999 12.978666 20.849333 12.989333 20.838667C13 20.822666 13.021333 20.811998 13.036 20.811998C13.052 20.811998 13.073333 20.802666 13.082666 20.792C13.093333 20.775999 13.12 20.765333 13.136 20.765333C13.150666 20.765333 13.161333 20.754665 13.166666 20.749332C13.172 20.74 13.188 20.723999 13.202666 20.713333C13.276 20.677334 13.297333 20.661333 13.344 20.619999C13.369333 20.598665 13.442666 20.535999 13.5 20.483999C13.562666 20.431999 13.630666 20.369333 13.650666 20.344C13.702666 20.265333 13.745333 20.218666 13.792 20.188L13.838666 20.155998H17.150665C20.447998 20.155998 20.469334 20.155998 20.510666 20.136C20.535999 20.119999 20.567999 20.109333 20.584 20.109333C20.609333 20.109333 20.688 20.073334 20.74 20.030666C20.775999 20.005333 20.859999 19.917334 20.859999 19.906666C20.859999 19.896 20.869333 19.879999 20.885332 19.869333C20.896 19.860001 20.906666 19.838667 20.906666 19.827999C20.906666 19.817333 20.917334 19.792 20.931999 19.775999C20.953333 19.74 20.953333 19.702665 20.953333 12.588V5.432L20.921333 5.354667C20.906666 5.317333 20.879999 5.26 20.863998 5.24C20.822666 5.172 20.723999 5.088 20.636 5.046667L20.562666 5.010667L20.275999 5.005333H19.994665V19.208H17.270666C14.568 19.213333 14.546666 19.213333 14.364 19.24C13.593333 19.344 13.046666 19.562666 12.573333 19.958666C12.421333 20.082666 12.229333 20.145332 12 20.145332C11.76 20.145332 11.604 20.087999 11.385333 19.917334C11.213333 19.792 11.082666 19.702665 10.921333 19.620001C10.505333 19.401333 9.984 19.26 9.416 19.218666C9.344 19.213333 8.114666 19.208 6.677333 19.208C4.322667 19.208 4.068 19.202665 4.052 19.188C4.030667 19.172001 4.030667 18.516001 4.030667 12.136C4.030667 6.557333 4.026667 5.088 4.016 5.052ZM7.026666 5.912C7.041333 5.906667 7.458666 5.901333 7.948 5.901333C8.682666 5.906667 8.838666 5.906667 8.849333 5.917333C8.86 5.937333 8.864 6.693333 8.854666 6.749333L8.844 6.786666H8.448C8.234666 6.786666 8.021333 6.786666 7.978666 6.792L7.912 6.802666V11.401333L7.917333 16L7.958666 16.010666C7.984 16.021334 8.552 16.026667 9.5 16.030666L11 16.035999V16.478666L11.005333 16.921333H7.036L7.010666 16.896C6.989333 16.874666 6.989333 16.765333 6.989333 11.432C6.984298 8.609464 6.988771 6.255272 6.989286 5.984509L6.989286 5.984247L6.989333 5.958667C6.994666 5.932 7.005333 5.917333 7.026666 5.912ZM15.213333 5.906667C15.234666 5.901333 16.978666 5.906667 17 5.912C17.010666 5.917333 17.016001 7.026666 17.016001 11.412C17.016001 16.412001 17.016001 16.906666 16.994665 16.917334C16.983999 16.917334 16.093332 16.921333 15.010666 16.921333H13.041333L13.021333 16.885332C12.994666 16.854666 12.994666 16.838667 13 16.775999C13.010666 16.688 13.010666 16.338667 13 16.182667C12.994666 16.082666 12.994666 16.068001 13.016 16.052C13.036 16.030666 13.114666 16.030666 14.536 16.030666C15.656 16.030666 16.035999 16.026667 16.057333 16.021334C16.078667 16.010666 16.087999 15.994666 16.087999 15.978666C16.087999 15.964 16.093332 15.948 16.104 15.942666C16.109333 15.932 16.114666 15.906666 16.104 15.869333C16.098665 15.817333 16.093332 11.136 16.098665 8.901333C16.102737 8.42381 16.100592 7.928404 16.099348 7.64192V7.6417C16.098963 7.553129 16.098665 7.484548 16.098665 7.442666C16.093332 7.182666 16.093332 7.109333 16.109333 7.068C16.130667 7.005333 16.130667 6.917333 16.109333 6.88C16.098665 6.864 16.087999 6.838666 16.087999 6.822666C16.087999 6.786666 16.041332 6.786666 15.588 6.786666H15.193333L15.177333 6.749333C15.166666 6.729333 15.161333 6.625333 15.156 6.338667C15.150666 5.994667 15.156 5.958667 15.172 5.937333C15.182666 5.926667 15.202666 5.912 15.213333 5.906667ZM11.838666 6.937333C13.713333 6.932 13.781333 6.932 13.838666 6.958666C13.864 6.973333 13.896 6.984 13.917333 6.989333C14.005333 7.010666 14.202666 7.197333 14.265333 7.322666C14.349333 7.5 14.349333 7.484 14.349333 8.229333C14.349333 8.953333 14.349333 8.964 14.276 9.114666C14.193333 9.306666 14.030666 9.448 13.828 9.516L13.729333 9.546666H12.010666C10.38 9.546666 10.292 9.541333 10.213333 9.526666C10.082666 9.489333 9.978666 9.426666 9.88 9.328C9.786666 9.234666 9.702666 9.098666 9.702666 9.036C9.702666 9.021333 9.693333 8.984 9.682666 8.958666C9.656 8.917333 9.656 8.88 9.656 8.254666C9.656 7.625333 9.656 7.598666 9.682666 7.546666C9.693333 7.521333 9.702666 7.478666 9.702666 7.458666C9.702666 7.437333 9.708 7.416 9.718666 7.406666C9.729333 7.401333 9.74 7.374666 9.749333 7.349333C9.754666 7.322666 9.765333 7.302666 9.770666 7.302666C9.776 7.302666 9.786666 7.286666 9.792 7.265333C9.802666 7.224 9.984 7.046666 10.036 7.030666C10.057333 7.026666 10.078666 7.010666 10.082666 7C10.088 6.994666 10.104 6.984 10.12 6.984C10.136 6.984 10.161333 6.973333 10.177333 6.964C10.197333 6.942666 10.297333 6.942666 11.838666 6.937333ZM8.890666 14.188 8.917333 14.156H15.062666L15.104 14.182666C15.125333 14.197333 15.14 14.224 15.145333 14.24C15.150666 14.254666 15.150666 14.448 15.145333 14.666666C15.14 14.978666 15.14 15.062666 15.125333 15.073333C15.12 15.078666 13.713333 15.082666 12 15.078666C8.937333 15.078666 8.890666 15.078666 8.874666 15.052C8.864 15.036 8.86 14.958666 8.86 14.625333V14.213333ZM8.885333 12.354666C8.906666 12.328 8.937333 12.328 11.989333 12.328C13.844 12.328 15.078666 12.333333 15.098666 12.338666C15.114666 12.344 15.130666 12.36 15.136 12.369333C15.145333 12.396 15.150666 13.114666 15.14 13.188L15.136 13.229333H12.016C9.010666 13.229333 8.896 13.229333 8.88 13.208C8.86 13.188 8.86 13.145333 8.86 12.781333C8.86 12.390666 8.86 12.374666 8.885333 12.354666ZM8.890666 10.494666C8.917333 10.478666 8.958666 10.478666 9.145333 10.484C9.270666 10.484 10.661333 10.489333 12.245333 10.489333C14.584 10.494666 15.12 10.494666 15.130666 10.510666C15.14 10.521333 15.145333 10.614666 15.145333 10.948C15.145333 11.177333 15.14 11.369333 15.14 11.374666C15.136 11.374666 13.729333 11.38 12.016 11.38H8.901333L8.88 11.354666C8.86 11.333333 8.86 11.292 8.86 10.921333V10.510666Z"/></svg>
