<svg xmlns="http://www.w3.org/2000/svg" width="24" height="24" viewBox="0 0 24 24"><path d="M4.041333 2.948C4.021333 2.973333 4.016 2.989333 4.016 3.036C4.021333 3.073333 4.021333 3.317333 4.026667 3.584L4.030667 4.062667L4 4.093333C3.969333 4.125333 3.964 4.125333 3.86 4.12C3.625333 4.104 3.312 4.12 3.250667 4.150667C3.229333 4.161333 3.193333 4.172 3.166667 4.172C3.136 4.172 3.114667 4.182667 3.098667 4.197333C3.088 4.208 3.068 4.218667 3.052 4.218667C3.036 4.218667 3.010667 4.229333 2.989333 4.245333C2.973333 4.254667 2.953333 4.265333 2.948 4.265333C2.921333 4.265333 2.817333 4.322667 2.806667 4.344C2.802667 4.349333 2.792 4.36 2.781333 4.36C2.745333 4.36 2.437333 4.650667 2.396 4.724C2.390667 4.74 2.364 4.781333 2.338667 4.817333C2.317333 4.854667 2.297333 4.885333 2.297333 4.896C2.297333 4.901333 2.292 4.912 2.281333 4.921333C2.270667 4.926667 2.26 4.953333 2.254667 4.973333C2.250667 4.994667 2.24 5.026667 2.224 5.046667C2.213333 5.068 2.202667 5.109333 2.202667 5.136C2.202667 5.156 2.193333 5.197333 2.182667 5.218667C2.161333 5.250667 2.156 5.292 2.150667 5.458667C2.14 5.718667 2.14 19.5 2.150667 19.724C2.156 19.854666 2.166667 19.901333 2.182667 19.937333C2.193333 19.958666 2.202667 19.994666 2.202667 20.015999C2.202667 20.041333 2.213333 20.073333 2.229333 20.093333C2.24 20.109333 2.250667 20.139999 2.250667 20.155999C2.250667 20.171999 2.265333 20.213333 2.286667 20.245333C2.306667 20.275999 2.328 20.317333 2.338667 20.338666C2.344 20.359999 2.364 20.379999 2.369333 20.390666C2.38 20.401333 2.390667 20.411999 2.390667 20.415999C2.390667 20.437333 2.484 20.551999 2.573333 20.635999C2.765333 20.822666 2.973333 20.931999 3.281333 21.015999L3.38 21.041333L6.578667 21.041333L9.781333 21.046666L9.822666 21.087999C9.906666 21.166666 10.145333 21.363999 10.229333 21.415999C10.396 21.526666 10.458666 21.567999 10.630666 21.650666C11.36 22.015999 12.245333 22.067999 13.046666 21.786666C13.426666 21.655999 13.781333 21.442666 14.145333 21.125333L14.234666 21.046666L17.328 21.046666C19.224 21.046666 20.473333 21.041333 20.557333 21.035999C20.926666 21.005333 21.259999 20.833333 21.515999 20.546666C21.687999 20.354666 21.797333 20.130666 21.849333 19.864C21.874666 19.754666 21.874666 19.573333 21.874666 12.568C21.874666 5.614667 21.869333 5.38 21.849333 5.281333C21.775999 4.917333 21.593333 4.625333 21.297333 4.390667C21.218666 4.328 21.026666 4.218667 20.994666 4.218667C20.983999 4.218667 20.958666 4.208 20.931999 4.197333C20.906666 4.182667 20.869333 4.172 20.843999 4.172C20.822666 4.172 20.781333 4.161333 20.754666 4.145333C20.713333 4.125333 20.682666 4.125333 20.390666 4.12C20.213333 4.114667 20.051999 4.109333 20.030666 4.109333L19.994666 4.098667L19.994666 2.958667L19.953333 2.937333C19.912 2.917333 19.781333 2.917333 18.213333 2.917333C17.088 2.917333 16.5 2.921333 16.464 2.932C16.437333 2.937333 16.24 2.948 16.026666 2.953333C15.74 2.958667 15.614666 2.969333 15.557333 2.978667C15.505333 2.989333 15.421333 3 15.333333 3C15.234666 3 15.172 3.005333 15.136 3.021333C15.098666 3.030667 15.005333 3.041333 14.912 3.046667C14.797333 3.052 14.74 3.062667 14.713333 3.073333C14.688 3.088 14.650666 3.093333 14.588 3.093333C14.526666 3.093333 14.489333 3.098667 14.453333 3.12C14.421333 3.136 14.38 3.14 14.317333 3.14C14.250666 3.14 14.213333 3.145333 14.182666 3.166667C14.150666 3.177333 14.109333 3.188 14.073333 3.188C14.036 3.188 13.989333 3.197333 13.964 3.213333C13.937333 3.224 13.890666 3.234667 13.86 3.234667C13.822666 3.234667 13.786666 3.245333 13.770666 3.254667C13.754666 3.265333 13.713333 3.276 13.677333 3.281333C13.64 3.286667 13.604 3.302667 13.593333 3.306667C13.584 3.317333 13.552 3.328 13.526666 3.328C13.5 3.328 13.469333 3.338667 13.448 3.354667C13.432 3.364 13.401333 3.374667 13.38 3.374667C13.36 3.374667 13.328 3.385333 13.306666 3.401333C13.292 3.412 13.26 3.421333 13.234666 3.421333C13.208 3.421333 13.182666 3.432 13.161333 3.448C13.145333 3.458667 13.12 3.469333 13.104 3.469333C13.082666 3.469333 13.057333 3.478667 13.041333 3.494667C13.021333 3.505333 12.994666 3.516 12.978666 3.516C12.964 3.516 12.942666 3.526667 12.932 3.541333C12.921333 3.552 12.901333 3.562667 12.890666 3.562667C12.869333 3.562667 12.578666 3.702667 12.552 3.734667C12.541333 3.74 12.526666 3.749333 12.516 3.749333C12.510666 3.749333 12.484 3.76 12.469333 3.776C12.401333 3.833333 12.38 3.844 12.369333 3.844C12.36 3.844 12.344 3.854667 12.333333 3.869333C12.322666 3.88 12.306666 3.890667 12.292 3.890667C12.270666 3.890667 12.24 3.912 12.166666 3.984C12.082666 4.062667 12.078666 4.062667 12.036 4.068C12 4.073333 11.984 4.068 11.912 4.016C11.786666 3.921333 11.666666 3.844 11.650666 3.844C11.645333 3.844 11.636 3.838667 11.630666 3.828C11.62 3.812 11.530666 3.76 11.453333 3.713333C11.432 3.708 11.412 3.693333 11.401333 3.688C11.390666 3.682667 11.364 3.666667 11.333333 3.656C11.306666 3.64 11.281333 3.625333 11.276 3.62C11.276 3.614667 11.26 3.609333 11.250666 3.609333C11.234666 3.609333 11.213333 3.598667 11.193333 3.588C11.177333 3.573333 11.156 3.562667 11.150666 3.562667C11.14 3.562667 11.114666 3.552 11.093333 3.541333C11.073333 3.526667 11.041333 3.516 11.026666 3.516C11.010666 3.516 10.984 3.505333 10.969333 3.494667C10.953333 3.478667 10.932 3.469333 10.921333 3.469333C10.906666 3.469333 10.88 3.458667 10.854666 3.448C10.828 3.432 10.802666 3.421333 10.786666 3.421333C10.776 3.421333 10.749333 3.412 10.729333 3.401333C10.708 3.385333 10.688 3.374667 10.677333 3.374667C10.666666 3.374667 10.630666 3.364 10.604 3.354667C10.578666 3.338667 10.536 3.328 10.516 3.328C10.5 3.328 10.469333 3.322667 10.458666 3.312C10.442666 3.302667 10.406666 3.292 10.374666 3.281333C10.344 3.276 10.297333 3.265333 10.270666 3.254667C10.245333 3.245333 10.202666 3.234667 10.177333 3.234667C10.150666 3.234667 10.114666 3.224 10.093333 3.213333C10.078666 3.202667 10.026666 3.193333 9.984 3.193333C9.942666 3.188 9.896 3.177333 9.88 3.166667C9.869333 3.161333 9.812 3.145333 9.76 3.14C9.702666 3.136 9.650666 3.125333 9.636 3.12C9.62 3.109333 9.552 3.098667 9.478666 3.093333C9.406666 3.088 9.333333 3.078667 9.317333 3.073333C9.302666 3.062667 9.218666 3.052 9.114666 3.046667C9 3.041333 8.926666 3.036 8.906666 3.026667C8.885333 3.016 8.806666 3.005333 8.688 3C8.588 2.994667 8.484 2.984 8.469333 2.978667C8.442666 2.969333 8.292 2.958667 8.021333 2.953333C7.797333 2.948 7.584 2.937333 7.546666 2.932C7.510666 2.921333 6.776 2.917333 5.776 2.917333L4.068 2.917333ZM7.88 3.844C8.12 3.854667 8.562666 3.885333 8.636 3.896C8.661333 3.901333 8.754666 3.912 8.849333 3.921333C9.182666 3.953333 9.557333 4.021333 9.942666 4.114667C10.036 4.136 10.073333 4.145333 10.254666 4.197333C10.661333 4.317333 11.030666 4.505333 11.349333 4.745333C11.578666 4.917333 11.62 4.948 11.724 5.041333C11.926666 5.229333 11.953333 5.250667 11.994666 5.254667C12.026666 5.26 12.041333 5.26 12.062666 5.24C12.078666 5.229333 12.14 5.172 12.202666 5.114667C12.584 4.776 12.844 4.588 13.156 4.437333C13.406666 4.312 13.478666 4.286667 13.948 4.14C14.068 4.104 14.426666 4.030667 14.666666 3.989333C14.953333 3.942667 15 3.937333 15.125333 3.926667C15.193333 3.917333 15.292 3.906667 15.338666 3.901333C15.432 3.890667 15.844 3.86 16.177333 3.844C16.292 3.838667 16.989333 3.833333 17.718666 3.833333L19.052 3.833333L19.068 3.864C19.078666 3.885333 19.078666 5.593333 19.078666 11.073333C19.078666 17.224 19.078666 18.254666 19.062666 18.265333C19.046666 18.281333 18.729333 18.286666 16.937333 18.286666C15.276 18.286666 14.822666 18.292 14.792 18.302666C14.765333 18.312 14.645333 18.322666 14.494666 18.328C14.302666 18.333333 14.234666 18.338666 14.202666 18.354666C14.172 18.369333 14.125333 18.374666 14.073333 18.374666C14.010666 18.374666 13.969333 18.38 13.932 18.401333C13.901333 18.412 13.86 18.421333 13.812 18.421333C13.76 18.421333 13.724 18.426666 13.697333 18.448C13.672 18.458666 13.636 18.469333 13.609333 18.469333C13.588 18.469333 13.552 18.478666 13.530666 18.494666C13.510666 18.505333 13.473333 18.516 13.442666 18.516C13.406666 18.516 13.374666 18.526666 13.354666 18.541333C13.333333 18.552 13.302666 18.562666 13.281333 18.562666C13.265333 18.562666 13.234666 18.573333 13.213333 18.588C13.193333 18.598666 13.161333 18.609333 13.145333 18.609333C13.130666 18.609333 13.104 18.62 13.088 18.636C13.068 18.645333 13.041333 18.656 13.030666 18.656C13.016 18.656 12.984 18.666666 12.969333 18.682666C12.948 18.693333 12.917333 18.702666 12.901333 18.702666C12.885333 18.702666 12.86 18.713333 12.849333 18.729333C12.838666 18.74 12.812 18.749333 12.797333 18.749333C12.776 18.749333 12.76 18.76 12.749333 18.776C12.74 18.786666 12.724 18.797333 12.702666 18.797333C12.682666 18.797333 12.666666 18.806666 12.656 18.822666C12.650666 18.833333 12.630666 18.844 12.614666 18.844C12.598666 18.844 12.584 18.849333 12.573333 18.86C12.568 18.869333 12.530666 18.890666 12.5 18.912C12.464 18.926666 12.426666 18.948 12.416 18.964C12.401333 18.973333 12.385333 18.984 12.38 18.984C12.369333 18.984 12.338666 19.005333 12.306666 19.030666C12.270666 19.057333 12.245333 19.078666 12.24 19.078666C12.229333 19.078666 12.104 19.182666 12.093333 19.197333C12.088 19.202666 12.068 19.213333 12.041333 19.218666C12 19.229333 11.989333 19.224 11.921333 19.177333C11.724 19.030666 11.625333 18.964 11.584 18.942666C11.568 18.932 11.526666 18.912 11.494666 18.890666C11.390666 18.833333 11.265333 18.770666 11.193333 18.734666C11.150666 18.713333 11.093333 18.693333 11.073333 18.677333C11.046666 18.666666 11.021333 18.656 11.010666 18.656C11 18.656 10.973333 18.645333 10.948 18.636C10.921333 18.62 10.890666 18.609333 10.874666 18.609333C10.854666 18.609333 10.838666 18.598666 10.828 18.593333C10.817333 18.584 10.797333 18.573333 10.770666 18.568C10.745333 18.562666 10.708 18.552 10.682666 18.536C10.650666 18.526666 10.614666 18.516 10.593333 18.516C10.573333 18.516 10.530666 18.505333 10.505333 18.494666C10.478666 18.478666 10.442666 18.469333 10.416 18.469333C10.396 18.469333 10.349333 18.458666 10.322666 18.448C10.292 18.432 10.245333 18.421333 10.202666 18.421333C10.156 18.421333 10.114666 18.412 10.082666 18.401333C10.052 18.38 10.010666 18.374666 9.953333 18.374666C9.901333 18.374666 9.849333 18.369333 9.822666 18.354666C9.792 18.344 9.718666 18.333333 9.568 18.328C9.453333 18.322666 9.338666 18.312 9.312 18.302666C9.276 18.292 8.786666 18.286666 7.104 18.286666L4.948 18.281333L4.948 3.833333L6.297333 3.833333C7.036 3.833333 7.749333 3.838667 7.88 3.844ZM4.016 5.052C4.026667 5.088 4.030667 6.557333 4.030667 12.136C4.030667 18.516 4.030667 19.172 4.052 19.188C4.068 19.202666 4.322667 19.208 6.677333 19.208C8.114666 19.208 9.344 19.213333 9.416 19.218666C9.984 19.26 10.505333 19.401333 10.921333 19.62C11.082666 19.702666 11.213333 19.792 11.385333 19.917333C11.604 20.087999 11.76 20.145333 12 20.145333C12.229333 20.145333 12.421333 20.082666 12.573333 19.958666C13.046666 19.562666 13.593333 19.344 14.364 19.24C14.546666 19.213333 14.568 19.213333 17.270666 19.208L19.994666 19.208L19.994666 12.166666C19.994666 8.297333 19.994666 5.098667 19.994666 5.062667L19.994666 5.005333L20.275999 5.005333L20.562666 5.010667L20.635999 5.046667C20.723999 5.088 20.822666 5.172 20.863999 5.24C20.879999 5.26 20.906666 5.317333 20.921333 5.354667L20.953333 5.432L20.953333 12.588C20.953333 19.702666 20.953333 19.74 20.931999 19.776C20.917333 19.792 20.906666 19.817333 20.906666 19.828C20.906666 19.838666 20.895999 19.86 20.885333 19.869333C20.869333 19.88 20.859999 19.896 20.859999 19.906666C20.859999 19.917333 20.775999 20.005333 20.739999 20.030666C20.687999 20.073333 20.609333 20.109333 20.583999 20.109333C20.567999 20.109333 20.535999 20.119999 20.510666 20.135999C20.469333 20.155999 20.447999 20.155999 17.150666 20.155999L13.838666 20.155999L13.792 20.187999C13.745333 20.218666 13.702666 20.265333 13.650666 20.343999C13.630666 20.369333 13.562666 20.431999 13.5 20.483999C13.442666 20.535999 13.369333 20.598666 13.344 20.619999C13.297333 20.661333 13.276 20.677333 13.202666 20.713333C13.188 20.723999 13.172 20.739999 13.166666 20.749333C13.161333 20.754666 13.150666 20.765333 13.136 20.765333C13.12 20.765333 13.093333 20.775999 13.082666 20.791999C13.073333 20.802666 13.052 20.811999 13.036 20.811999C13.021333 20.811999 13 20.822666 12.989333 20.838666C12.978666 20.849333 12.958666 20.859999 12.948 20.859999C12.937333 20.859999 12.917333 20.869333 12.901333 20.885333C12.88 20.895999 12.86 20.906666 12.844 20.906666C12.833333 20.906666 12.812 20.917333 12.797333 20.931999C12.781333 20.942666 12.754666 20.953333 12.729333 20.953333C12.708 20.953333 12.677333 20.963999 12.661333 20.978666C12.636 20.994666 12.609333 20.999999 12.568 20.999999C12.526666 20.999999 12.484 21.010666 12.453333 21.026666C12.406666 21.051999 12.390666 21.051999 12.016 21.051999C11.672 21.051999 11.625333 21.046666 11.588 21.030666C11.568 21.021333 11.521333 21.005333 11.484 21.005333C11.448 20.999999 11.412 20.989333 11.401333 20.978666C11.390666 20.973333 11.36 20.963999 11.333333 20.958666C11.302666 20.953333 11.26 20.942666 11.245333 20.926666C11.224 20.917333 11.197333 20.906666 11.188 20.906666C11.177333 20.906666 11.145333 20.895999 11.125333 20.885333C11.098666 20.869333 11.068 20.854666 11.052 20.849333C11.036 20.843999 11.016 20.833333 11.005333 20.822666C10.994666 20.817333 10.948 20.791999 10.901333 20.765333C10.697333 20.650666 10.478666 20.463999 10.270666 20.223999L10.208 20.155999L6.901333 20.155999C3.62 20.155999 3.588 20.155999 3.526667 20.135999C3.489333 20.119999 3.448 20.109333 3.437333 20.109333C3.36 20.109333 3.172 19.958666 3.12 19.854666C3.041333 19.697333 3.046667 20.333333 3.046667 12.521333L3.052 5.442667L3.078667 5.374667C3.136 5.202667 3.254667 5.082667 3.426667 5.026667C3.473333 5.010667 3.530667 5.005333 3.745333 5.005333L4 5.005333Z"/><path d="M7.026666 5.912C7.005333 5.917333 6.994666 5.932 6.989333 5.958667C6.989333 5.978667 6.984 8.442666 6.989333 11.432C6.989333 16.765333 6.989333 16.874666 7.010666 16.896L7.036 16.921333L11.005333 16.921333L11 16.478666L11 16.036L9.5 16.030666C8.552 16.026666 7.984 16.021333 7.958666 16.010666L7.917333 16L7.912 11.401333L7.912 6.802666L7.978666 6.792C8.021333 6.786666 8.234666 6.786666 8.448 6.786666L8.844 6.786666L8.854666 6.749333C8.864 6.693333 8.86 5.937333 8.849333 5.917333C8.838666 5.906667 8.682666 5.906667 7.948 5.901333C7.458666 5.901333 7.041333 5.906667 7.026666 5.912Z"/><path d="M15.213333 5.906667C15.202666 5.912 15.182666 5.926667 15.172 5.937333C15.156 5.958667 15.150666 5.994667 15.156 6.338667C15.161333 6.625333 15.166666 6.729333 15.177333 6.749333L15.193333 6.786666L15.588 6.786666C16.041333 6.786666 16.088 6.786666 16.088 6.822666C16.088 6.838666 16.098666 6.864 16.109333 6.88C16.130666 6.917333 16.130666 7.005333 16.109333 7.068C16.093333 7.109333 16.093333 7.182666 16.098666 7.442666C16.098666 7.62 16.104 8.276 16.098666 8.901333C16.093333 11.136 16.098666 15.817333 16.104 15.869333C16.114666 15.906666 16.109333 15.932 16.104 15.942666C16.093333 15.948 16.088 15.964 16.088 15.978666C16.088 15.994666 16.078666 16.010666 16.057333 16.021333C16.036 16.026666 15.656 16.030666 14.536 16.030666C13.114666 16.030666 13.036 16.030666 13.016 16.052C12.994666 16.068 12.994666 16.082666 13 16.182666C13.010666 16.338666 13.010666 16.688 13 16.776C12.994666 16.838666 12.994666 16.854666 13.021333 16.885333L13.041333 16.921333L15.010666 16.921333C16.093333 16.921333 16.984 16.917333 16.994666 16.917333C17.016 16.906666 17.016 16.412 17.016 11.412C17.016 7.026666 17.010666 5.917333 17 5.912C16.978666 5.906667 15.234666 5.901333 15.213333 5.906667Z"/><path d="M11.838666 6.937333C10.297333 6.942666 10.197333 6.942666 10.177333 6.964C10.161333 6.973333 10.136 6.984 10.12 6.984C10.104 6.984 10.088 6.994666 10.082666 7C10.078666 7.010666 10.057333 7.026666 10.036 7.030666C9.984 7.046666 9.802666 7.224 9.792 7.265333C9.786666 7.286666 9.776 7.302666 9.770666 7.302666C9.765333 7.302666 9.754666 7.322666 9.749333 7.349333C9.74 7.374666 9.729333 7.401333 9.718666 7.406666C9.708 7.416 9.702666 7.437333 9.702666 7.458666C9.702666 7.478666 9.693333 7.521333 9.682666 7.546666C9.656 7.598666 9.656 7.625333 9.656 8.254666C9.656 8.88 9.656 8.917333 9.682666 8.958666C9.693333 8.984 9.702666 9.021333 9.702666 9.036C9.702666 9.098666 9.786666 9.234666 9.88 9.328C9.978666 9.426666 10.082666 9.489333 10.213333 9.526666C10.292 9.541333 10.38 9.546666 12.010666 9.546666L13.729333 9.546666L13.828 9.516C14.030666 9.448 14.193333 9.306666 14.276 9.114666C14.349333 8.964 14.349333 8.953333 14.349333 8.229333C14.349333 7.484 14.349333 7.5 14.265333 7.322666C14.202666 7.197333 14.005333 7.010666 13.917333 6.989333C13.896 6.984 13.864 6.973333 13.838666 6.958666C13.781333 6.932 13.713333 6.932 11.838666 6.937333Z"/><path d="M8.890666 10.494666L8.86 10.510666L8.86 10.921333C8.86 11.292 8.86 11.333333 8.88 11.354666L8.901333 11.38L12.016 11.38C13.729333 11.38 15.136 11.374666 15.14 11.374666C15.14 11.369333 15.145333 11.177333 15.145333 10.948C15.145333 10.614666 15.14 10.521333 15.130666 10.510666C15.12 10.494666 14.584 10.494666 12.245333 10.489333C10.661333 10.489333 9.270666 10.484 9.145333 10.484C8.958666 10.478666 8.917333 10.478666 8.890666 10.494666Z"/><path d="M8.885333 12.354666C8.86 12.374666 8.86 12.390666 8.86 12.781333C8.86 13.145333 8.86 13.188 8.88 13.208C8.896 13.229333 9.010666 13.229333 12.016 13.229333L15.136 13.229333L15.14 13.188C15.150666 13.114666 15.145333 12.396 15.136 12.369333C15.130666 12.36 15.114666 12.344 15.098666 12.338666C15.078666 12.333333 13.844 12.328 11.989333 12.328C8.937333 12.328 8.906666 12.328 8.885333 12.354666Z"/><path d="M8.890666 14.188L8.86 14.213333L8.86 14.625333C8.86 14.958666 8.864 15.036 8.874666 15.052C8.890666 15.078666 8.937333 15.078666 12 15.078666C13.713333 15.082666 15.12 15.078666 15.125333 15.073333C15.14 15.062666 15.14 14.978666 15.145333 14.666666C15.150666 14.448 15.150666 14.254666 15.145333 14.24C15.14 14.224 15.125333 14.197333 15.104 14.182666L15.062666 14.156L8.917333 14.156Z"/></svg>
