<svg xmlns="http://www.w3.org/2000/svg" width="24" height="24" viewBox="0 0 24 24"><path d="M4.036 2.953333 4.068 2.917333H5.833333C6.912 2.917333 7.636 2.921333 7.688 2.932C7.734666 2.937333 7.932 2.948 8.12 2.953333C8.38 2.958667 8.484 2.969333 8.526666 2.978667C8.562666 2.994667 8.625333 3 8.708 3C8.786666 3 8.849333 3.005333 8.874666 3.021333C8.906666 3.030667 8.994666 3.041333 9.104 3.046667C9.218666 3.052 9.286666 3.062667 9.302666 3.073333C9.312 3.078667 9.374666 3.088 9.448 3.093333C9.521333 3.098667 9.598666 3.114667 9.625333 3.12C9.645333 3.130667 9.693333 3.14 9.729333 3.14C9.76 3.14 9.812 3.150667 9.838666 3.161333C9.864 3.166667 9.921333 3.182667 9.969333 3.188C10.010666 3.193333 10.068 3.208 10.082666 3.213333C10.104 3.224 10.14 3.234667 10.166666 3.234667C10.193333 3.234667 10.234666 3.245333 10.26 3.254667C10.286666 3.265333 10.333333 3.276 10.36 3.281333C10.396 3.286667 10.432 3.302667 10.442666 3.306667C10.458666 3.317333 10.484 3.328 10.505333 3.328C10.526666 3.328 10.557333 3.338667 10.588 3.349333C10.614666 3.364 10.650666 3.374667 10.677333 3.38C10.702666 3.385333 10.724 3.396 10.734666 3.406667C10.745333 3.412 10.76 3.421333 10.781333 3.421333C10.797333 3.421333 10.828 3.432 10.849333 3.448C10.869333 3.458667 10.896 3.469333 10.912 3.469333C10.921333 3.469333 10.942666 3.478667 10.958666 3.494667C10.978666 3.505333 11 3.516 11.016 3.516C11.030666 3.516 11.062666 3.526667 11.088 3.536C11.12 3.552 11.150666 3.568 11.166666 3.573333C11.182666 3.578667 11.202666 3.588 11.213333 3.598667C11.224 3.604 11.265333 3.625333 11.306666 3.645333C11.349333 3.661333 11.390666 3.682667 11.401333 3.693333C11.412 3.693333 11.432 3.708 11.453333 3.713333C11.530666 3.76 11.62 3.812 11.630666 3.828C11.636 3.838667 11.645333 3.844 11.650666 3.844C11.666666 3.844 11.838666 3.958667 11.932 4.030667C12.021333 4.104 12.046666 4.098667 12.156 3.994667C12.208 3.948 12.270666 3.901333 12.292 3.896C12.312 3.885333 12.328 3.874667 12.328 3.869333C12.328 3.864 12.36 3.844 12.396 3.822667C12.426666 3.806667 12.464 3.781333 12.469333 3.770667C12.473333 3.76 12.489333 3.749333 12.5 3.749333C12.516 3.749333 12.536 3.74 12.552 3.729333C12.593333 3.697333 12.682666 3.656 12.697333 3.656C12.702666 3.656 12.724 3.645333 12.74 3.636C12.754666 3.62 12.776 3.609333 12.786666 3.609333C12.797333 3.609333 12.817333 3.598667 12.833333 3.588C12.854666 3.573333 12.874666 3.562667 12.890666 3.562667C12.901333 3.562667 12.921333 3.552 12.937333 3.541333C12.953333 3.526667 12.973333 3.516 12.989333 3.516C13.005333 3.516 13.030666 3.505333 13.046666 3.494667C13.068 3.478667 13.098666 3.469333 13.12 3.469333C13.14 3.469333 13.166666 3.458667 13.177333 3.448C13.193333 3.432 13.213333 3.421333 13.245333 3.421333C13.265333 3.421333 13.297333 3.412 13.317333 3.401333C13.333333 3.385333 13.364 3.374667 13.385333 3.374667C13.406666 3.374667 13.437333 3.364 13.458666 3.354667C13.473333 3.338667 13.505333 3.328 13.530666 3.328C13.557333 3.328 13.588 3.317333 13.604 3.306667C13.62 3.297333 13.661333 3.286667 13.697333 3.281333C13.734666 3.276 13.770666 3.26 13.781333 3.254667C13.792 3.24 13.822666 3.234667 13.854666 3.234667C13.885333 3.234667 13.937333 3.224 13.969333 3.213333C14 3.197333 14.052 3.188 14.088 3.188C14.12 3.188 14.161333 3.177333 14.188 3.166667C14.224 3.145333 14.254666 3.14 14.328 3.14C14.396 3.14 14.432 3.136 14.473333 3.12C14.505333 3.098667 14.546666 3.093333 14.604 3.093333C14.656 3.093333 14.697333 3.088 14.729333 3.073333C14.770666 3.052 14.806666 3.046667 14.901333 3.046667C14.984 3.046667 15.041333 3.041333 15.098666 3.026667C15.156 3.005333 15.218666 3 15.306666 3C15.374666 3 15.458666 2.989333 15.5 2.978667C15.552 2.969333 15.672 2.958667 15.969333 2.953333C16.188 2.948 16.401333 2.937333 16.448 2.932C16.5 2.921333 17.125334 2.917333 18.234667 2.917333C19.76 2.917333 19.942665 2.921333 19.969334 2.937333L19.994665 2.953333V4.098667L20.041332 4.109333C20.073334 4.12 20.202665 4.125333 20.401333 4.125333C20.688 4.125333 20.713333 4.125333 20.754665 4.150667C20.781334 4.161333 20.822666 4.172 20.844 4.172C20.863998 4.172 20.901333 4.182667 20.921333 4.193333C20.942665 4.208 20.978666 4.218667 20.999998 4.224C21.026667 4.229333 21.051998 4.24 21.057333 4.250667C21.067999 4.254667 21.082666 4.265333 21.093332 4.265333C21.098665 4.265333 21.136 4.281333 21.166666 4.302667C21.526667 4.521333 21.759998 4.864 21.854666 5.286667C21.869333 5.38 21.874666 5.682667 21.874666 12.578666V19.775999L21.849333 19.885332C21.811998 20.030666 21.786667 20.103998 21.734667 20.213333C21.630667 20.421333 21.442665 20.645332 21.270666 20.765333C21.026667 20.937332 20.811998 21.015999 20.515999 21.035999C20.421333 21.041332 18.989332 21.046665 17.286667 21.046665H14.224L14.150666 21.114666C13.885333 21.363998 13.521333 21.598665 13.208 21.723999C12.817333 21.885332 12.416 21.963999 11.994666 21.963999C11.64 21.963999 11.364 21.921333 11.026666 21.811998C10.64 21.688 10.385333 21.546665 9.989333 21.223999L9.76 21.046665H6.677333C4.978667 21.046665 3.536 21.041332 3.469333 21.035999C3.202667 21.015999 2.964 20.931999 2.74 20.775999C2.64 20.713333 2.469333 20.535999 2.406667 20.442665C2.385333 20.411999 2.364 20.379999 2.354667 20.374666C2.349333 20.369333 2.344 20.354666 2.344 20.344C2.344 20.333332 2.333333 20.311998 2.322667 20.302666C2.306667 20.292 2.297333 20.275999 2.297333 20.259998C2.297333 20.250666 2.286667 20.229334 2.276 20.207998C2.26 20.188 2.250667 20.161333 2.250667 20.145332C2.250667 20.130667 2.24 20.098665 2.229333 20.078667C2.213333 20.062666 2.202667 20.026667 2.202667 20C2.202667 19.973333 2.193333 19.937332 2.182667 19.917334C2.161333 19.885332 2.156 19.849333 2.150667 19.682667C2.14 19.401333 2.14 5.802667 2.150667 5.510667C2.156 5.306667 2.161333 5.26 2.182667 5.229333C2.193333 5.202667 2.202667 5.166667 2.202667 5.136C2.202667 5.109333 2.213333 5.078667 2.229333 5.057333C2.24 5.041333 2.250667 5.021333 2.250667 5.010667C2.250667 4.989333 2.306667 4.874667 2.328 4.854667C2.338667 4.844 2.344 4.828 2.344 4.817333C2.344 4.802667 2.354667 4.786667 2.369333 4.781333C2.38 4.776 2.390667 4.765333 2.390667 4.754667C2.390667 4.708 2.645333 4.442667 2.749333 4.385333C2.781333 4.364 2.812 4.344 2.812 4.338667C2.812 4.322667 2.926667 4.265333 2.948 4.265333C2.953333 4.265333 2.973333 4.254667 2.989333 4.245333C3.010667 4.229333 3.036 4.218667 3.052 4.218667C3.068 4.218667 3.088 4.208 3.098667 4.197333C3.114667 4.177333 3.136 4.172 3.166667 4.172C3.197333 4.172 3.229333 4.161333 3.245333 4.150667C3.292 4.12 3.614667 4.104 3.849333 4.12C3.964 4.130667 4 4.12 4.021333 4.068C4.030667 4.030667 4.030667 3.182667 4.016 3.057333C4.005333 3 4.010667 2.989333 4.036 2.953333ZM12.301333 19.031775 12.302666 19.030666C12.338666 19.005333 12.369333 18.983999 12.38 18.983999C12.385333 18.983999 12.401333 18.973333 12.416 18.964001C12.426666 18.948 12.464 18.926666 12.5 18.906666C12.536 18.890665 12.573333 18.869333 12.573333 18.864C12.578666 18.864 12.593333 18.854666 12.609333 18.849333C12.625333 18.844 12.650666 18.833332 12.666666 18.817333C12.682666 18.806665 12.702666 18.797333 12.713333 18.797333C12.724 18.797333 12.745333 18.786667 12.754666 18.775999C12.765333 18.76 12.786666 18.749332 12.802666 18.749332C12.817333 18.749332 12.844 18.74 12.86 18.729334C12.88 18.713333 12.912 18.702665 12.926666 18.702665C12.942666 18.702665 12.969333 18.693333 12.978666 18.682667C12.989333 18.666666 13.016 18.656 13.030666 18.656C13.046666 18.656 13.078666 18.645332 13.093333 18.636C13.114666 18.620001 13.145333 18.609333 13.161333 18.609333C13.177333 18.609333 13.208 18.598665 13.224 18.587999C13.24 18.573334 13.270666 18.562666 13.297333 18.562666C13.322666 18.562666 13.349333 18.552 13.36 18.541332C13.374666 18.530666 13.416 18.516001 13.453333 18.516001C13.494666 18.510666 13.536 18.5 13.546666 18.489332C13.557333 18.478666 13.584 18.469334 13.609333 18.469334C13.636 18.469334 13.672 18.458666 13.697333 18.448C13.724 18.426666 13.76 18.421333 13.812 18.421333C13.86 18.421333 13.906666 18.412001 13.948 18.401333C13.984 18.385332 14.030666 18.374666 14.078666 18.374666C14.12 18.374666 14.177333 18.364 14.218666 18.354666C14.276 18.333332 14.312 18.327999 14.464 18.327999C14.598666 18.327999 14.661333 18.322666 14.708 18.306665C14.770666 18.286667 15.281333 18.286667 19.026667 18.281334C19.041332 18.281334 19.057333 18.270666 19.062666 18.250666C19.082666 18.208 19.082666 3.942667 19.062666 3.88L19.046665 3.833333H17.535999C15.901333 3.838667 15.874666 3.844 15.234666 3.917333C15.021333 3.937333 14.937333 3.948 14.656 3.994667C13.88 4.125333 13.38 4.292 12.906666 4.573333C12.561976 4.816992 12.473345 4.879646 12.301333 5.03022V19.031775ZM8.193333 3.86C8 3.844 7.729333 3.838667 6.464 3.833333C5.636 3.833333 4.958667 3.833333 4.953333 3.838667C4.948 3.844 4.948 7.093333 4.948 11.057333C4.948 16.806665 4.948 18.270666 4.958667 18.275999C4.969333 18.281334 5.964 18.281334 7.166666 18.286667C8.926666 18.286667 9.364 18.292 9.401333 18.302666C9.421333 18.312 9.521333 18.322666 9.614666 18.327999C9.734666 18.333332 9.806666 18.344 9.833333 18.354666C9.86 18.364 9.912 18.374666 9.958666 18.374666C10.010666 18.374666 10.052 18.385332 10.088 18.401333C10.114666 18.412001 10.166666 18.421333 10.197333 18.421333C10.234666 18.421333 10.281333 18.431999 10.306666 18.442665C10.333333 18.453333 10.385333 18.469334 10.416 18.469334C10.453333 18.473333 10.5 18.483999 10.516 18.494665C10.536 18.505333 10.568 18.516001 10.588 18.516001C10.609333 18.516001 10.645333 18.526667 10.672 18.541332C10.697333 18.552 10.724 18.562666 10.74 18.562666C10.754666 18.562666 10.781333 18.573334 10.806666 18.587999C10.833333 18.598665 10.864 18.609333 10.874666 18.609333C10.890666 18.609333 10.921333 18.620001 10.937333 18.636C10.958666 18.645332 10.984 18.656 11 18.656C11.010666 18.656 11.041333 18.666666 11.068 18.682667C11.088 18.693333 11.114666 18.702665 11.12 18.702665C11.136 18.702665 11.437333 18.854666 11.448 18.864C11.453333 18.869333 11.473333 18.879999 11.494666 18.890665C11.521333 18.906666 11.546666 18.921333 11.562666 18.926666C11.636 18.973333 11.682666 19.005333 11.693333 19.016001C11.694646 19.017502 11.695986 19.018871 11.697333 19.020115V5.016507C11.615752 4.947388 11.279778 4.683797 11.208 4.64C10.828 4.390667 10.349333 4.197333 9.838666 4.088C9.641897 4.081079 9.659245 4.070491 9.671019 4.063305C9.675121 4.060802 9.678546 4.058712 9.672 4.057333C9.36 3.984 8.792 3.912 8.193333 3.86ZM4.010667 5.030667V5.005333H3.74C3.489333 5.005333 3.469333 5.005333 3.412 5.030667C3.245333 5.098667 3.130667 5.224 3.078667 5.38C3.057333 5.448 3.057333 5.713333 3.057333 12.568C3.057333 18.469334 3.062667 19.693333 3.073333 19.74C3.125333 19.926666 3.292 20.087999 3.469333 20.114666C3.5 20.119999 3.536 20.130667 3.552 20.139999C3.578667 20.155998 4.104 20.155998 6.906666 20.155998H10.224L10.317333 20.265333C10.5 20.483999 10.781333 20.718666 11.005333 20.822666C11.145333 20.896 11.172 20.911999 11.213333 20.911999C11.229333 20.917334 11.254666 20.926666 11.26 20.937332C11.270666 20.947998 11.292 20.953333 11.312 20.953333C11.333333 20.953333 11.364 20.963999 11.385333 20.973333C11.406666 20.983999 11.453333 20.994665 11.489333 20.999998C11.530666 21.005333 11.578666 21.021334 11.604 21.030666C11.636 21.046665 11.682666 21.051998 12.026666 21.051998C12.390666 21.051998 12.406666 21.051998 12.458666 21.026667C12.494666 21.010666 12.536 20.999998 12.573333 20.999998C12.609333 20.999998 12.64 20.994665 12.661333 20.978666C12.677333 20.963999 12.708 20.953333 12.729333 20.953333C12.754666 20.953333 12.781333 20.942665 12.797333 20.931999C12.812 20.917334 12.833333 20.906666 12.849333 20.906666C12.864 20.906666 12.885333 20.896 12.896 20.890665C12.906666 20.879999 12.917333 20.869333 12.921333 20.869333C12.937333 20.869333 13.161333 20.754665 13.182666 20.74C13.193333 20.729334 13.213333 20.718666 13.224 20.713333C13.24 20.707998 13.276 20.645332 13.312 20.645332C13.349333 20.614666 13.421333 20.551998 13.478666 20.505333C13.578666 20.421333 13.677333 20.322666 13.677333 20.306665C13.677333 20.292 13.76 20.202665 13.797333 20.182667L13.838666 20.155998H17.136C20.415998 20.155998 20.437332 20.155998 20.494665 20.136C20.530666 20.119999 20.567999 20.109333 20.578667 20.109333C20.587999 20.109333 20.625334 20.093332 20.661333 20.078667C20.781334 20.015999 20.817333 19.983999 20.854666 19.917334C20.863998 19.896 20.879999 19.869333 20.890665 19.869333C20.901333 19.864 20.906666 19.849333 20.906666 19.838667C20.906666 19.822666 20.917334 19.775999 20.931999 19.775999C20.953333 19.74 20.953333 19.702665 20.953333 12.598666V5.453333L20.926666 5.385333C20.863998 5.218667 20.786667 5.130667 20.645332 5.057333L20.562666 5.010667L20.275999 5.005333H19.994665V19.208H17.265333C14.568 19.213333 14.536 19.213333 14.354666 19.24C13.869333 19.302666 13.442666 19.431999 13.078666 19.620001C12.921333 19.702665 12.786666 19.786667 12.630666 19.912001C12.469333 20.041332 12.421333 20.067999 12.297333 20.109333C12.193333 20.139999 12.177333 20.145332 12.010666 20.145332C11.864 20.145332 11.812 20.139999 11.745333 20.119999C11.630666 20.087999 11.526666 20.030666 11.421333 19.948C10.948 19.562666 10.458666 19.369333 9.636 19.24L9.464 19.213333L6.754666 19.208C4.636 19.208 4.046667 19.202665 4.041333 19.193333C4.036 19.182667 4.030667 16.005333 4.030667 12.125333C4.030667 7.437333 4.026667 5.073333 4.021333 5.068C4.016 5.062667 4.010667 5.046667 4.010667 5.030667Z"/></svg>
