<svg xmlns="http://www.w3.org/2000/svg" width="24" height="24" viewBox="0 0 24 24"><path d="M4.026667 2.958667 4.046667 2.917333H5.817333C6.854666 2.917333 7.614666 2.921333 7.650666 2.932C7.688 2.937333 7.874666 2.948 8.068 2.953333C8.322666 2.958667 8.437333 2.969333 8.484 2.984C8.526666 2.994667 8.598666 3 8.697333 3C8.797333 3 8.854666 3.005333 8.890666 3.021333C8.917333 3.030667 9 3.041333 9.104 3.046667C9.213333 3.052 9.286666 3.062667 9.306666 3.073333C9.322666 3.078667 9.396 3.088 9.469333 3.093333C9.546666 3.098667 9.62 3.109333 9.636 3.12C9.650666 3.125333 9.702666 3.136 9.76 3.14C9.812 3.145333 9.869333 3.161333 9.890666 3.172C9.912 3.177333 9.948 3.188 9.973333 3.188C10.005333 3.188 10.046666 3.197333 10.073333 3.208C10.098666 3.218667 10.150666 3.229333 10.193333 3.234667C10.234666 3.24 10.276 3.250667 10.292 3.26C10.306666 3.265333 10.349333 3.281333 10.38 3.286667C10.416 3.297333 10.464 3.306667 10.484 3.312C10.5 3.322667 10.568 3.338667 10.625333 3.36C10.682666 3.374667 10.734666 3.396 10.745333 3.406667C10.754666 3.416 10.776 3.421333 10.792 3.421333C10.806666 3.421333 10.838666 3.432 10.86 3.448C10.874666 3.458667 10.906666 3.469333 10.917333 3.469333C10.932 3.469333 10.958666 3.478667 10.973333 3.494667C10.989333 3.505333 11.016 3.516 11.026666 3.516C11.041333 3.516 11.073333 3.526667 11.098666 3.536C11.136 3.557333 11.202666 3.588 11.276 3.62C11.292 3.625333 11.322666 3.645333 11.349333 3.661333C11.374666 3.677333 11.406666 3.693333 11.416 3.697333C11.469333 3.718667 11.62 3.812 11.630666 3.828C11.636 3.838667 11.645333 3.844 11.650666 3.844C11.661333 3.844 11.833333 3.958667 11.942666 4.036C12.021333 4.093333 12.068 4.082667 12.188 3.964C12.224 3.926667 12.265333 3.896 12.286666 3.896C12.302666 3.890667 12.322666 3.88 12.322666 3.869333C12.328 3.864 12.354666 3.844 12.385333 3.833333C12.412 3.817333 12.448 3.797333 12.458666 3.781333C12.484 3.754667 12.521333 3.734667 12.724 3.636C12.792 3.598667 12.864 3.562667 12.885333 3.557333C12.901333 3.552 12.926666 3.541333 12.932 3.530667C12.942666 3.526667 12.964 3.516 12.984 3.516C13 3.516 13.026666 3.505333 13.036 3.494667C13.046666 3.478667 13.073333 3.469333 13.088 3.469333C13.104 3.469333 13.136 3.458667 13.156 3.448C13.172 3.432 13.208 3.421333 13.224 3.421333C13.245333 3.421333 13.276 3.412 13.297333 3.401333C13.312 3.385333 13.349333 3.374667 13.369333 3.374667C13.396 3.374667 13.426666 3.364 13.442666 3.354667C13.464 3.338667 13.489333 3.328 13.521333 3.328C13.546666 3.328 13.578666 3.317333 13.598666 3.306667C13.614666 3.292 13.645333 3.281333 13.666666 3.281333C13.693333 3.281333 13.729333 3.270667 13.754666 3.26C13.781333 3.245333 13.822666 3.234667 13.849333 3.234667C13.874666 3.234667 13.921333 3.224 13.948 3.213333C13.973333 3.197333 14.016 3.188 14.057333 3.188C14.098666 3.188 14.136 3.177333 14.166666 3.166667C14.197333 3.145333 14.229333 3.14 14.302666 3.14C14.369333 3.14 14.412 3.136 14.442666 3.12C14.478666 3.098667 14.516 3.093333 14.584 3.093333C14.645333 3.093333 14.682666 3.088 14.708 3.073333C14.74 3.057333 14.792 3.052 14.906666 3.046667C15.005333 3.041333 15.073333 3.030667 15.093333 3.026667C15.114666 3.010667 15.188 3.005333 15.333333 3C15.458666 2.994667 15.557333 2.984 15.578666 2.978667C15.604 2.964 15.729333 2.958667 15.978666 2.953333C16.177334 2.948 16.364 2.937333 16.396 2.932C16.431999 2.921333 17.041332 2.917333 18.193333 2.917333C19.775999 2.917333 19.937332 2.917333 19.964001 2.937333L19.994665 2.953333V4.104H20.026667C20.046665 4.104 20.062666 4.109333 20.067999 4.114667C20.073334 4.125333 20.109333 4.125333 20.193333 4.12C20.338667 4.109333 20.359999 4.109333 20.557333 4.12C20.682667 4.125333 20.74 4.136 20.775999 4.150667C20.802666 4.161333 20.838667 4.172 20.859999 4.172C20.885332 4.172 20.917334 4.182667 20.937332 4.197333C20.958666 4.208 20.983999 4.218667 20.999998 4.218667C21.030666 4.218667 21.202665 4.317333 21.302666 4.390667C21.584 4.604 21.759998 4.896 21.844 5.254667L21.874666 5.374667V12.573333C21.874666 19.489332 21.869333 19.781334 21.854666 19.869333C21.786667 20.161333 21.666666 20.390665 21.469334 20.598665C21.213333 20.859999 20.906666 21.005333 20.546665 21.035999C20.473333 21.041332 19.136 21.046665 17.322666 21.046665H14.229333L14.130666 21.136C13.917333 21.327999 13.661333 21.505333 13.421333 21.625334C12.661333 22.015999 11.749333 22.073334 10.937333 21.786667C10.792 21.734667 10.510666 21.598665 10.416 21.541332C10.224 21.415998 10.14 21.354666 9.948 21.197332L9.770666 21.051998L6.584 21.046665L3.390667 21.041332L3.270667 21.010666C2.969333 20.931999 2.776 20.833332 2.578667 20.639999C2.484 20.551998 2.390667 20.437332 2.390667 20.415998C2.390667 20.411999 2.38 20.401333 2.369333 20.390665C2.364 20.379999 2.344 20.359999 2.338667 20.338667C2.328 20.317333 2.317333 20.297333 2.312 20.286667C2.276 20.218666 2.250667 20.166666 2.250667 20.150665C2.250667 20.136 2.24 20.119999 2.229333 20.109333C2.224 20.098665 2.208 20.062666 2.202667 20.026667C2.197333 19.989332 2.188 19.948 2.177333 19.926666C2.161333 19.906666 2.156 19.864 2.156 19.817333C2.156 19.781334 2.150667 19.697332 2.145333 19.630667C2.130667 19.489332 2.12 6.234667 2.136 5.802667C2.150667 5.354667 2.156 5.250667 2.182667 5.213333C2.193333 5.197333 2.202667 5.166667 2.202667 5.130667C2.202667 5.098667 2.208 5.073333 2.218667 5.062667C2.229333 5.052 2.24 5.030667 2.245333 5.005333C2.250667 4.978667 2.26 4.948 2.270667 4.932C2.281333 4.917333 2.302667 4.88 2.317333 4.854667C2.333333 4.822667 2.354667 4.786667 2.369333 4.776C2.38 4.76 2.390667 4.74 2.396 4.724C2.406667 4.688 2.718667 4.374667 2.754667 4.364C2.770667 4.36 2.792 4.349333 2.806667 4.338667C2.838667 4.306667 3.010667 4.218667 3.036 4.218667C3.046667 4.218667 3.068 4.208 3.082667 4.197333C3.104 4.182667 3.130667 4.172 3.161333 4.172C3.188 4.172 3.218667 4.161333 3.234667 4.150667C3.281333 4.12 3.62 4.104 3.86 4.12C3.964 4.125333 3.969333 4.125333 4 4.093333L4.030667 4.062667L4.026667 3.593333C4.026667 3.333333 4.021333 3.093333 4.016 3.057333C4.005333 3.010667 4.010667 2.989333 4.026667 2.958667ZM8.213333 3.86C8.026666 3.844 7.781333 3.838667 6.473333 3.833333H4.948V18.281334H7.156C8.921333 18.286667 9.374666 18.292 9.412 18.302666C9.432 18.312 9.530666 18.322666 9.636 18.327999C9.76 18.333332 9.822666 18.344 9.849333 18.354666C9.869333 18.369333 9.917333 18.374666 9.964 18.374666C10.005333 18.374666 10.057333 18.385332 10.082666 18.396C10.109333 18.406666 10.172 18.416 10.218666 18.421333C10.270666 18.426666 10.322666 18.437332 10.338666 18.448C10.354666 18.458666 10.385333 18.469334 10.412 18.469334C10.437333 18.469334 10.478666 18.478666 10.505333 18.489332C10.530666 18.5 10.578666 18.510666 10.609333 18.516001C10.636 18.521334 10.677333 18.535999 10.697333 18.541332C10.718666 18.552 10.745333 18.562666 10.754666 18.562666C10.765333 18.562666 10.797333 18.573334 10.817333 18.587999C10.844 18.598665 10.874666 18.609333 10.885333 18.609333C10.896 18.609333 10.926666 18.620001 10.953333 18.636C10.978666 18.645332 11.005333 18.656 11.010666 18.656C11.041333 18.656 11.322666 18.792 11.473333 18.874666C11.64 18.973333 11.713333 19.021334 11.781333 19.073334C11.817333 19.104 11.849333 19.125334 11.854666 19.125334C11.86 19.125334 11.896 19.150665 11.932 19.182667C11.984 19.224001 12.005333 19.24 12.016 19.229334C12.021333 19.224001 12.036 19.218666 12.046666 19.218666C12.057333 19.218666 12.098666 19.188 12.14 19.150665C12.182666 19.114666 12.24 19.068001 12.270666 19.052C12.302666 19.030666 12.328 19.010666 12.333333 19C12.338666 18.994665 12.349333 18.983999 12.364 18.983999C12.374666 18.983999 12.390666 18.978666 12.401333 18.969334C12.432 18.937332 12.510666 18.890665 12.526666 18.890665C12.541333 18.890665 12.557333 18.879999 12.568 18.869333C12.578666 18.854666 12.598666 18.844 12.614666 18.844C12.630666 18.844 12.645333 18.833332 12.661333 18.822666C12.672 18.806665 12.693333 18.797333 12.708 18.797333C12.724 18.797333 12.745333 18.786667 12.749333 18.775999C12.76 18.76 12.776 18.749332 12.797333 18.749332C12.812 18.749332 12.838666 18.74 12.849333 18.729334C12.86 18.713333 12.885333 18.702665 12.901333 18.702665C12.917333 18.702665 12.948 18.693333 12.969333 18.682667C12.984 18.666666 13.016 18.656 13.030666 18.656C13.046666 18.656 13.068 18.645332 13.082666 18.636C13.093333 18.620001 13.114666 18.609333 13.136 18.609333C13.150666 18.609333 13.177333 18.598665 13.193333 18.587999C13.208 18.578667 13.250666 18.568001 13.281333 18.562666C13.312 18.557333 13.349333 18.541332 13.36 18.530666C13.369333 18.526667 13.401333 18.516001 13.426666 18.516001C13.464 18.516001 13.489333 18.505333 13.510666 18.494665C13.526666 18.478666 13.557333 18.469334 13.588 18.469334C13.614666 18.469334 13.645333 18.458666 13.661333 18.448C13.677333 18.437332 13.729333 18.426666 13.792 18.421333C13.849333 18.416 13.912 18.406666 13.937333 18.396C13.964 18.379999 14.010666 18.374666 14.062666 18.374666C14.12 18.374666 14.161333 18.369333 14.188 18.354666C14.213333 18.338667 14.270666 18.333332 14.437333 18.327999C14.584 18.322666 14.666666 18.312 14.688 18.302666C14.718666 18.292 15.068 18.286667 16.885332 18.281334H19.052L19.068001 18.250666C19.082666 18.213333 19.082666 3.896 19.068001 3.885333C19.062666 3.88 19.057333 3.869333 19.057333 3.854667C19.057333 3.833333 19.030666 3.833333 17.688 3.833333C16.931999 3.833333 16.234667 3.838667 16.130667 3.844C15.817333 3.86 15.412 3.890667 15.322666 3.901333C15.276 3.906667 15.188 3.917333 15.125333 3.926667C14.942666 3.942667 14.636 3.994667 14.344 4.052C13.625333 4.193333 13.062666 4.426667 12.609333 4.770667C12.505333 4.854667 12.36 4.978667 12.093333 5.213333C12.041333 5.254667 12.030666 5.26 12 5.254667C11.958666 5.245333 11.854666 5.166667 11.734666 5.052C11.693333 5.005333 11.62 4.948 11.578666 4.917333C11.536 4.885333 11.458666 4.822667 11.412 4.781333C11.073333 4.516 10.625333 4.297333 10.088 4.150667C9.682666 4.036 9.088 3.937333 8.568 3.890667C8.494666 3.885333 8.333333 3.869333 8.213333 3.86ZM20.505333 5.010667C20.406666 5 20.098665 4.994667 20.041332 5L19.994665 5.005333V19.208H17.270666L14.546666 19.213333L14.354666 19.24C13.630666 19.338667 13.052 19.562666 12.598666 19.931999C12.416 20.082666 12.245333 20.145332 12 20.145332C11.754666 20.145332 11.598666 20.087999 11.401333 19.931999C11.078666 19.672001 10.666666 19.469334 10.224 19.354666C10.057333 19.306665 9.917333 19.281334 9.672 19.245333L9.464 19.213333L6.76 19.208C4.250667 19.208 4.057333 19.208 4.046667 19.188C4.036 19.172001 4.030667 17.74 4.030667 12.12C4.030667 7.437333 4.026667 5.073333 4.021333 5.068C4.016 5.062667 4.010667 5.046667 4.010667 5.030667V5.005333H3.729333L3.448 5.010667L3.364 5.052C3.188 5.14 3.078667 5.292 3.057333 5.489333C3.041333 5.656 3.052 19.661333 3.073333 19.729334C3.078667 19.76 3.098667 19.817333 3.12 19.854666C3.177333 19.969334 3.344 20.093332 3.469333 20.114666C3.494667 20.119999 3.536 20.130667 3.557333 20.139999C3.588 20.155998 4.109333 20.155998 6.906666 20.155998H10.218666L10.317333 20.270666C10.478666 20.463999 10.682666 20.639999 10.864 20.745333C10.890666 20.765333 10.921333 20.781334 10.932 20.792C10.942666 20.797333 10.989333 20.817333 11.030666 20.838667C11.078666 20.859999 11.130666 20.879999 11.145333 20.890665C11.161333 20.896 11.193333 20.906666 11.213333 20.911999C11.229333 20.917334 11.254666 20.926666 11.26 20.937332C11.270666 20.947998 11.292 20.953333 11.312 20.953333C11.333333 20.953333 11.374666 20.963999 11.401333 20.978666C11.426666 20.989332 11.469333 20.999998 11.484 20.999998C11.505333 20.999998 11.552 21.010666 11.593333 21.026667C11.661333 21.051998 11.682666 21.051998 12.026666 21.051998C12.364 21.051998 12.385333 21.046665 12.437333 21.026667C12.473333 21.010666 12.516 20.999998 12.562666 20.999998C12.614666 20.999998 12.636 20.994665 12.656 20.978666C12.672 20.963999 12.697333 20.953333 12.729333 20.953333C12.754666 20.953333 12.776 20.942665 12.792 20.931999C12.802666 20.917334 12.828 20.906666 12.844 20.906666C12.86 20.906666 12.88 20.896 12.896 20.885332C12.906666 20.869333 12.926666 20.859999 12.942666 20.859999C12.953333 20.859999 12.973333 20.849333 12.989333 20.838667C13 20.822666 13.021333 20.811998 13.036 20.811998C13.046666 20.811998 13.068 20.802666 13.082666 20.792C13.093333 20.775999 13.109333 20.765333 13.12 20.765333C13.130666 20.765333 13.156 20.754665 13.172 20.74C13.24 20.682667 13.26 20.671999 13.270666 20.671999C13.276 20.671999 13.312 20.645332 13.349333 20.614666C13.385333 20.578667 13.464 20.510666 13.521333 20.458666C13.584 20.406666 13.636 20.349333 13.645333 20.333332C13.656 20.317333 13.693333 20.270666 13.734666 20.229334C13.797333 20.166666 13.812 20.155998 13.864 20.150665C13.901333 20.145332 13.937333 20.145332 13.953333 20.145332C13.964 20.145332 15.432 20.150665 17.213333 20.150665C20.067999 20.155998 20.458666 20.155998 20.478666 20.139999C20.494665 20.130667 20.530666 20.119999 20.557333 20.114666C20.584 20.109333 20.614666 20.098665 20.625334 20.093332C20.636 20.082666 20.655998 20.073334 20.671999 20.067999C20.688 20.062666 20.718666 20.046665 20.734667 20.030666C20.754665 20.015999 20.770666 20.005333 20.775999 20.005333C20.781334 20.005333 20.802666 19.983999 20.817333 19.958666C20.838667 19.931999 20.863998 19.896 20.879999 19.874666C20.896 19.860001 20.906666 19.833332 20.906666 19.822666C20.906666 19.812 20.917334 19.792 20.926666 19.775999C20.947998 19.754665 20.947998 19.396 20.953333 12.598666V5.448L20.926666 5.374667C20.911999 5.333333 20.890665 5.281333 20.874666 5.254667C20.811998 5.14 20.625334 5.021333 20.505333 5.010667Z"/></svg>
