<svg xmlns="http://www.w3.org/2000/svg" width="24" height="24" viewBox="0 0 24 24"><path d="M4.036 2.953333C4.010667 2.989333 4.005333 3 4.016 3.057333C4.030667 3.182667 4.030667 4.030667 4.021333 4.068C4 4.12 3.964 4.130667 3.849333 4.12C3.614667 4.104 3.292 4.12 3.245333 4.150667C3.229333 4.161333 3.197333 4.172 3.166667 4.172C3.136 4.172 3.114667 4.177333 3.098667 4.197333C3.088 4.208 3.068 4.218667 3.052 4.218667C3.036 4.218667 3.010667 4.229333 2.989333 4.245333C2.973333 4.254667 2.953333 4.265333 2.948 4.265333C2.926667 4.265333 2.812 4.322667 2.812 4.338667C2.812 4.344 2.781333 4.364 2.749333 4.385333C2.645333 4.442667 2.390667 4.708 2.390667 4.754667C2.390667 4.765333 2.38 4.776 2.369333 4.781333C2.354667 4.786667 2.344 4.802667 2.344 4.817333C2.344 4.828 2.338667 4.844 2.328 4.854667C2.306667 4.874667 2.250667 4.989333 2.250667 5.010667C2.250667 5.021333 2.24 5.041333 2.229333 5.057333C2.213333 5.078667 2.202667 5.109333 2.202667 5.136C2.202667 5.166667 2.193333 5.202667 2.182667 5.229333C2.161333 5.26 2.156 5.306667 2.150667 5.510667C2.14 5.802667 2.14 19.401333 2.150667 19.682666C2.156 19.849333 2.161333 19.885333 2.182667 19.917333C2.193333 19.937333 2.202667 19.973333 2.202667 20C2.202667 20.026666 2.213333 20.062666 2.229333 20.078666C2.24 20.098666 2.250667 20.130666 2.250667 20.145333C2.250667 20.161333 2.26 20.187999 2.276 20.207999C2.286667 20.229333 2.297333 20.250666 2.297333 20.259999C2.297333 20.275999 2.306667 20.291999 2.322667 20.302666C2.333333 20.311999 2.344 20.333333 2.344 20.343999C2.344 20.354666 2.349333 20.369333 2.354667 20.374666C2.364 20.379999 2.385333 20.411999 2.406667 20.442666C2.469333 20.535999 2.64 20.713333 2.74 20.775999C2.964 20.931999 3.202667 21.015999 3.469333 21.035999C3.536 21.041333 4.978667 21.046666 6.677333 21.046666L9.76 21.046666L9.989333 21.223999C10.385333 21.546666 10.64 21.687999 11.026666 21.811999C11.364 21.921333 11.64 21.963999 11.994666 21.963999C12.416 21.963999 12.817333 21.885333 13.208 21.723999C13.521333 21.598666 13.885333 21.363999 14.150666 21.114666L14.224 21.046666L17.286666 21.046666C18.989333 21.046666 20.421333 21.041333 20.515999 21.035999C20.811999 21.015999 21.026666 20.937333 21.270666 20.765333C21.442666 20.645333 21.630666 20.421333 21.734666 20.213333C21.786666 20.103999 21.811999 20.030666 21.849333 19.885333L21.874666 19.776L21.874666 12.578666C21.874666 5.682667 21.869333 5.38 21.854666 5.286667C21.759999 4.864 21.526666 4.521333 21.166666 4.302667C21.135999 4.281333 21.098666 4.265333 21.093333 4.265333C21.082666 4.265333 21.067999 4.254667 21.057333 4.250667C21.051999 4.24 21.026666 4.229333 20.999999 4.224C20.978666 4.218667 20.942666 4.208 20.921333 4.193333C20.901333 4.182667 20.863999 4.172 20.843999 4.172C20.822666 4.172 20.781333 4.161333 20.754666 4.150667C20.713333 4.125333 20.687999 4.125333 20.401333 4.125333C20.202666 4.125333 20.073333 4.12 20.041333 4.109333L19.994666 4.098667L19.994666 2.953333L19.969333 2.937333C19.942666 2.921333 19.76 2.917333 18.234666 2.917333C17.125333 2.917333 16.5 2.921333 16.448 2.932C16.401333 2.937333 16.188 2.948 15.969333 2.953333C15.672 2.958667 15.552 2.969333 15.5 2.978667C15.458666 2.989333 15.374666 3 15.306666 3C15.218666 3 15.156 3.005333 15.098666 3.026667C15.041333 3.041333 14.984 3.046667 14.901333 3.046667C14.806666 3.046667 14.770666 3.052 14.729333 3.073333C14.697333 3.088 14.656 3.093333 14.604 3.093333C14.546666 3.093333 14.505333 3.098667 14.473333 3.12C14.432 3.136 14.396 3.14 14.328 3.14C14.254666 3.14 14.224 3.145333 14.188 3.166667C14.161333 3.177333 14.12 3.188 14.088 3.188C14.052 3.188 14 3.197333 13.969333 3.213333C13.937333 3.224 13.885333 3.234667 13.854666 3.234667C13.822666 3.234667 13.792 3.24 13.781333 3.254667C13.770666 3.26 13.734666 3.276 13.697333 3.281333C13.661333 3.286667 13.62 3.297333 13.604 3.306667C13.588 3.317333 13.557333 3.328 13.530666 3.328C13.505333 3.328 13.473333 3.338667 13.458666 3.354667C13.437333 3.364 13.406666 3.374667 13.385333 3.374667C13.364 3.374667 13.333333 3.385333 13.317333 3.401333C13.297333 3.412 13.265333 3.421333 13.245333 3.421333C13.213333 3.421333 13.193333 3.432 13.177333 3.448C13.166666 3.458667 13.14 3.469333 13.12 3.469333C13.098666 3.469333 13.068 3.478667 13.046666 3.494667C13.030666 3.505333 13.005333 3.516 12.989333 3.516C12.973333 3.516 12.953333 3.526667 12.937333 3.541333C12.921333 3.552 12.901333 3.562667 12.890666 3.562667C12.874666 3.562667 12.854666 3.573333 12.833333 3.588C12.817333 3.598667 12.797333 3.609333 12.786666 3.609333C12.776 3.609333 12.754666 3.62 12.74 3.636C12.724 3.645333 12.702666 3.656 12.697333 3.656C12.682666 3.656 12.593333 3.697333 12.552 3.729333C12.536 3.74 12.516 3.749333 12.5 3.749333C12.489333 3.749333 12.473333 3.76 12.469333 3.770667C12.464 3.781333 12.426666 3.806667 12.396 3.822667C12.36 3.844 12.328 3.864 12.328 3.869333C12.328 3.874667 12.312 3.885333 12.292 3.896C12.270666 3.901333 12.208 3.948 12.156 3.994667C12.046666 4.098667 12.021333 4.104 11.932 4.030667C11.838666 3.958667 11.666666 3.844 11.650666 3.844C11.645333 3.844 11.636 3.838667 11.630666 3.828C11.62 3.812 11.530666 3.76 11.453333 3.713333C11.432 3.708 11.412 3.693333 11.401333 3.693333C11.390666 3.682667 11.349333 3.661333 11.306666 3.645333C11.265333 3.625333 11.224 3.604 11.213333 3.598667C11.202666 3.588 11.182666 3.578667 11.166666 3.573333C11.150666 3.568 11.12 3.552 11.088 3.536C11.062666 3.526667 11.030666 3.516 11.016 3.516C11 3.516 10.978666 3.505333 10.958666 3.494667C10.942666 3.478667 10.921333 3.469333 10.912 3.469333C10.896 3.469333 10.869333 3.458667 10.849333 3.448C10.828 3.432 10.797333 3.421333 10.781333 3.421333C10.76 3.421333 10.745333 3.412 10.734666 3.406667C10.724 3.396 10.702666 3.385333 10.677333 3.38C10.650666 3.374667 10.614666 3.364 10.588 3.349333C10.557333 3.338667 10.526666 3.328 10.505333 3.328C10.484 3.328 10.458666 3.317333 10.442666 3.306667C10.432 3.302667 10.396 3.286667 10.36 3.281333C10.333333 3.276 10.286666 3.265333 10.26 3.254667C10.234666 3.245333 10.193333 3.234667 10.166666 3.234667C10.14 3.234667 10.104 3.224 10.082666 3.213333C10.068 3.208 10.010666 3.193333 9.969333 3.188C9.921333 3.182667 9.864 3.166667 9.838666 3.161333C9.812 3.150667 9.76 3.14 9.729333 3.14C9.693333 3.14 9.645333 3.130667 9.625333 3.12C9.598666 3.114667 9.521333 3.098667 9.448 3.093333C9.374666 3.088 9.312 3.078667 9.302666 3.073333C9.286666 3.062667 9.218666 3.052 9.104 3.046667C8.994666 3.041333 8.906666 3.030667 8.874666 3.021333C8.849333 3.005333 8.786666 3 8.708 3C8.625333 3 8.562666 2.994667 8.526666 2.978667C8.484 2.969333 8.38 2.958667 8.12 2.953333C7.932 2.948 7.734666 2.937333 7.688 2.932C7.636 2.921333 6.912 2.917333 5.833333 2.917333L4.068 2.917333ZM8.193333 3.86C8.792 3.912 9.36 3.984 9.672 4.057333C9.697333 4.062667 9.573333 4.078667 9.838666 4.088C10.349333 4.197333 10.828 4.390667 11.208 4.64C11.286666 4.688 11.682666 5 11.713333 5.030667C11.745333 5.062667 11.953333 5.250667 11.978666 5.265333L12.010666 5.286667L12.078666 5.229333C12.442666 4.901333 12.442666 4.901333 12.906666 4.573333C13.38 4.292 13.88 4.125333 14.656 3.994667C14.937333 3.948 15.021333 3.937333 15.234666 3.917333C15.874666 3.844 15.901333 3.838667 17.536 3.833333L19.046666 3.833333L19.062666 3.88C19.082666 3.942667 19.082666 18.208 19.062666 18.250666C19.057333 18.270666 19.041333 18.281333 19.026666 18.281333C15.281333 18.286666 14.770666 18.286666 14.708 18.306666C14.661333 18.322666 14.598666 18.328 14.464 18.328C14.312 18.328 14.276 18.333333 14.218666 18.354666C14.177333 18.364 14.12 18.374666 14.078666 18.374666C14.030666 18.374666 13.984 18.385333 13.948 18.401333C13.906666 18.412 13.86 18.421333 13.812 18.421333C13.76 18.421333 13.724 18.426666 13.697333 18.448C13.672 18.458666 13.636 18.469333 13.609333 18.469333C13.584 18.469333 13.557333 18.478666 13.546666 18.489333C13.536 18.5 13.494666 18.510666 13.453333 18.516C13.416 18.516 13.374666 18.530666 13.36 18.541333C13.349333 18.552 13.322666 18.562666 13.297333 18.562666C13.270666 18.562666 13.24 18.573333 13.224 18.588C13.208 18.598666 13.177333 18.609333 13.161333 18.609333C13.145333 18.609333 13.114666 18.62 13.093333 18.636C13.078666 18.645333 13.046666 18.656 13.030666 18.656C13.016 18.656 12.989333 18.666666 12.978666 18.682666C12.969333 18.693333 12.942666 18.702666 12.926666 18.702666C12.912 18.702666 12.88 18.713333 12.86 18.729333C12.844 18.74 12.817333 18.749333 12.802666 18.749333C12.786666 18.749333 12.765333 18.76 12.754666 18.776C12.745333 18.786666 12.724 18.797333 12.713333 18.797333C12.702666 18.797333 12.682666 18.806666 12.666666 18.817333C12.650666 18.833333 12.625333 18.844 12.609333 18.849333C12.593333 18.854666 12.578666 18.864 12.573333 18.864C12.573333 18.869333 12.536 18.890666 12.5 18.906666C12.464 18.926666 12.426666 18.948 12.416 18.964C12.401333 18.973333 12.385333 18.984 12.38 18.984C12.369333 18.984 12.338666 19.005333 12.302666 19.030666C12.270666 19.057333 12.24 19.078666 12.234666 19.078666C12.224 19.078666 12.188 19.109333 12.150666 19.150666C12.114666 19.188 12.073333 19.218666 12.057333 19.218666C12.046666 19.218666 12.030666 19.229333 12.026666 19.234666C12.010666 19.250666 12 19.250666 11.958666 19.208C11.932 19.182666 11.896 19.150666 11.874666 19.14C11.86 19.130666 11.817333 19.098666 11.786666 19.078666C11.754666 19.052 11.729333 19.030666 11.718666 19.030666C11.713333 19.030666 11.702666 19.026666 11.693333 19.016C11.682666 19.005333 11.636 18.973333 11.562666 18.926666C11.546666 18.921333 11.521333 18.906666 11.494666 18.890666C11.473333 18.88 11.453333 18.869333 11.448 18.864C11.437333 18.854666 11.136 18.702666 11.12 18.702666C11.114666 18.702666 11.088 18.693333 11.068 18.682666C11.041333 18.666666 11.010666 18.656 11 18.656C10.984 18.656 10.958666 18.645333 10.937333 18.636C10.921333 18.62 10.890666 18.609333 10.874666 18.609333C10.864 18.609333 10.833333 18.598666 10.806666 18.588C10.781333 18.573333 10.754666 18.562666 10.74 18.562666C10.724 18.562666 10.697333 18.552 10.672 18.541333C10.645333 18.526666 10.609333 18.516 10.588 18.516C10.568 18.516 10.536 18.505333 10.516 18.494666C10.5 18.484 10.453333 18.473333 10.416 18.469333C10.385333 18.469333 10.333333 18.453333 10.306666 18.442666C10.281333 18.432 10.234666 18.421333 10.197333 18.421333C10.166666 18.421333 10.114666 18.412 10.088 18.401333C10.052 18.385333 10.010666 18.374666 9.958666 18.374666C9.912 18.374666 9.86 18.364 9.833333 18.354666C9.806666 18.344 9.734666 18.333333 9.614666 18.328C9.521333 18.322666 9.421333 18.312 9.401333 18.302666C9.364 18.292 8.926666 18.286666 7.166666 18.286666C5.964 18.281333 4.969333 18.281333 4.958667 18.276C4.948 18.270666 4.948 16.806666 4.948 11.057333C4.948 7.093333 4.948 3.844 4.953333 3.838667C4.958667 3.833333 5.636 3.833333 6.464 3.833333C7.729333 3.838667 8 3.844 8.193333 3.86ZM4.010667 5.030667C4.010667 5.046667 4.016 5.062667 4.021333 5.068C4.026667 5.073333 4.030667 7.437333 4.030667 12.125333C4.030667 16.005333 4.036 19.182666 4.041333 19.193333C4.046667 19.202666 4.636 19.208 6.754666 19.208L9.464 19.213333L9.636 19.24C10.458666 19.369333 10.948 19.562666 11.421333 19.948C11.526666 20.030666 11.630666 20.087999 11.745333 20.119999C11.812 20.139999 11.864 20.145333 12.010666 20.145333C12.177333 20.145333 12.193333 20.139999 12.297333 20.109333C12.421333 20.067999 12.469333 20.041333 12.630666 19.912C12.786666 19.786666 12.921333 19.702666 13.078666 19.62C13.442666 19.432 13.869333 19.302666 14.354666 19.24C14.536 19.213333 14.568 19.213333 17.265333 19.208L19.994666 19.208L19.994666 5.005333L20.275999 5.005333L20.562666 5.010667L20.645333 5.057333C20.786666 5.130667 20.863999 5.218667 20.926666 5.385333L20.953333 5.453333L20.953333 12.598666C20.953333 19.702666 20.953333 19.74 20.931999 19.776C20.917333 19.776 20.906666 19.822666 20.906666 19.838666C20.906666 19.849333 20.901333 19.864 20.890666 19.869333C20.879999 19.869333 20.863999 19.896 20.854666 19.917333C20.817333 19.984 20.781333 20.015999 20.661333 20.078666C20.625333 20.093333 20.587999 20.109333 20.578666 20.109333C20.567999 20.109333 20.530666 20.119999 20.494666 20.135999C20.437333 20.155999 20.415999 20.155999 17.136 20.155999L13.838666 20.155999L13.797333 20.182666C13.76 20.202666 13.677333 20.291999 13.677333 20.306666C13.677333 20.322666 13.578666 20.421333 13.478666 20.505333C13.421333 20.551999 13.349333 20.614666 13.312 20.645333C13.276 20.645333 13.24 20.707999 13.224 20.713333C13.213333 20.718666 13.193333 20.729333 13.182666 20.739999C13.161333 20.754666 12.937333 20.869333 12.921333 20.869333C12.917333 20.869333 12.906666 20.879999 12.896 20.890666C12.885333 20.895999 12.864 20.906666 12.849333 20.906666C12.833333 20.906666 12.812 20.917333 12.797333 20.931999C12.781333 20.942666 12.754666 20.953333 12.729333 20.953333C12.708 20.953333 12.677333 20.963999 12.661333 20.978666C12.64 20.994666 12.609333 20.999999 12.573333 20.999999C12.536 20.999999 12.494666 21.010666 12.458666 21.026666C12.406666 21.051999 12.390666 21.051999 12.026666 21.051999C11.682666 21.051999 11.636 21.046666 11.604 21.030666C11.578666 21.021333 11.530666 21.005333 11.489333 20.999999C11.453333 20.994666 11.406666 20.983999 11.385333 20.973333C11.364 20.963999 11.333333 20.953333 11.312 20.953333C11.292 20.953333 11.270666 20.947999 11.26 20.937333C11.254666 20.926666 11.229333 20.917333 11.213333 20.911999C11.172 20.911999 11.145333 20.895999 11.005333 20.822666C10.781333 20.718666 10.5 20.483999 10.317333 20.265333L10.224 20.155999L6.906666 20.155999C4.104 20.155999 3.578667 20.155999 3.552 20.139999C3.536 20.130666 3.5 20.119999 3.469333 20.114666C3.292 20.087999 3.125333 19.926666 3.073333 19.74C3.062667 19.693333 3.057333 18.469333 3.057333 12.568C3.057333 5.713333 3.057333 5.448 3.078667 5.38C3.130667 5.224 3.245333 5.098667 3.412 5.030667C3.469333 5.005333 3.489333 5.005333 3.74 5.005333L4.010667 5.005333Z"/><path d="M11.697333 4.197333L12.301333 4.197333L12.301333 19.348L11.697333 19.348Z"/></svg>
