<svg xmlns="http://www.w3.org/2000/svg" width="24" height="24" viewBox="0 0 24 24"><path d="M17.754666 16C18.994666 16 20.005333 17.005333 20.005333 18.250666L20.005333 18.822666C20.005333 19.718666 19.682666 20.583999 19.104 21.259999C17.530666 23.098666 15.145333 23.999999 12 23.999999C8.854666 23.999999 6.469333 23.093333 4.901333 21.259999C4.322667 20.583999 4.005333 19.718666 4.005333 18.828L4.005333 18.250666C4.005333 17.005333 5.010667 16 6.254667 16ZM17.754666 17.5L6.254667 17.5C5.838667 17.5 5.505333 17.833333 5.505333 18.250666L5.505333 18.828C5.505333 19.364 5.693333 19.88 6.041333 20.286666C7.297333 21.754666 9.26 22.499999 12 22.499999C14.74 22.499999 16.708 21.754666 17.964 20.286666C18.312 19.88 18.505333 19.36 18.505333 18.822666L18.505333 18.250666C18.505333 17.833333 18.166666 17.5 17.754666 17.5Z"/><path d="M12 4.005333C14.76 4.005333 17 6.245333 17 9.005333C17 11.765333 14.76 14.005333 12 14.005333C9.24 14.005333 7 11.765333 7 9.005333C7 6.245333 9.24 4.005333 12 4.005333ZM12 5.505333C10.068 5.505333 8.5 7.073333 8.5 9.005333C8.5 10.937333 10.068 12.505333 12 12.505333C13.932 12.505333 15.5 10.937333 15.5 9.005333C15.5 7.073333 13.932 5.505333 12 5.505333Z"/><path d="M7.401333 6.598667C7.177333 6.598667 7 6.781333 7 7C7 7.234666 6.937333 7.453333 6.890666 7.74C6.849333 8.030666 6.854666 8.401333 7.041333 8.781333C7.208 9.109333 7.38 9.364 7.453333 9.546666C7.526666 9.734666 7.541333 9.817333 7.442666 10.021333C7.306666 10.292 7.130666 10.536 7.005333 10.854666C6.88 11.166666 6.844 11.584 7.041333 11.978666C7.208 12.312 7.38 12.562666 7.453333 12.749333C7.526666 12.932 7.541333 13.016 7.442666 13.218666C7.306666 13.489333 7.130666 13.734666 7.005333 14.052C6.88 14.364 6.844 14.786666 7.041333 15.182666C7.14 15.374666 7.38 15.453333 7.578666 15.36C7.776 15.26 7.86 15.021333 7.76 14.822666C7.656 14.614666 7.672 14.530666 7.745333 14.349333C7.822666 14.161333 7.994666 13.912 8.156 13.578666C8.354666 13.182666 8.322666 12.765333 8.197333 12.453333C8.073333 12.136 7.890666 11.890666 7.76 11.62C7.656 11.416 7.672 11.333333 7.745333 11.150666C7.822666 10.964 7.994666 10.708 8.156 10.38C8.354666 9.984 8.322666 9.568 8.197333 9.250666C8.073333 8.937333 7.890666 8.688 7.76 8.421333C7.645333 8.202666 7.650666 8.073333 7.682666 7.86C7.713333 7.645333 7.802666 7.364 7.802666 7C7.802666 6.781333 7.62 6.598667 7.401333 6.598667Z"/><path d="M16.598666 6.598667C16.38 6.598667 16.197333 6.781333 16.197333 7C16.197333 7.364 16.286666 7.645333 16.317333 7.86C16.349333 8.073333 16.354666 8.202666 16.24 8.421333C16.109333 8.688 15.926666 8.937333 15.802666 9.250666C15.677333 9.568 15.645333 9.984 15.844 10.38C16.005333 10.708 16.177333 10.964 16.254666 11.150666C16.328 11.333333 16.344 11.416 16.24 11.62C16.109333 11.890666 15.926666 12.136 15.802666 12.453333C15.677333 12.765333 15.645333 13.182666 15.844 13.578666C16.005333 13.912 16.177333 14.161333 16.254666 14.349333C16.328 14.530666 16.344 14.614666 16.24 14.822666C16.14 15.021333 16.224 15.26 16.421333 15.36C16.62 15.453333 16.86 15.374666 16.958666 15.182666C17.156 14.786666 17.12 14.364 16.994666 14.052C16.869333 13.734666 16.693333 13.489333 16.557333 13.218666C16.458666 13.016 16.473333 12.932 16.546666 12.749333C16.62 12.562666 16.792 12.312 16.958666 11.978666C17.156 11.584 17.12 11.166666 16.994666 10.854666C16.869333 10.536 16.693333 10.292 16.557333 10.021333C16.458666 9.817333 16.473333 9.734666 16.546666 9.546666C16.62 9.364 16.792 9.109333 16.958666 8.781333C17.145333 8.401333 17.150666 8.030666 17.109333 7.74C17.062666 7.453333 17 7.234666 17 7C17 6.781333 16.822666 6.598667 16.598666 6.598667Z"/><path d="M8.5 4.5C8.5 2.5 10 0.5 12 0.5C14 0.5 15.5 2.5 15.5 4.5L15.5 5L8.5 5Z"/><path d="M12 6.5C15.864 6.5 19 5.828 19 5C19 4.172 15.864 3.5 12 3.5C8.136 3.5 5 4.172 5 5C5 5.828 8.136 6.5 12 6.5Z"/></svg>
