<svg xmlns="http://www.w3.org/2000/svg" width="24" height="24" viewBox="0 0 24 24"><path d="M6.9883 7.1848 7.0072 6.9244 7.0204 6.8737 7.0661 6.7798 7.1344 6.7009 7.2209 6.6423 7.2691 6.622 7.3714 6.601 7.4237 6.6007 7.5263 6.6204 7.5747 6.6402 7.588569 6.649345C7.669767 6.497603 7.758565 6.35054 7.854456 6.208664C6.123293 5.935505 5 5.49571 5 5C5 4.438001 6.443808 3.94787 8.580339 3.690955C8.916222 1.994123 10.271345 0.5 12 0.5C13.728655 0.5 15.083778 1.994123 15.419665 3.690958C17.556192 3.94787 19 4.438001 19 5C19 5.49571 17.876707 5.935505 16.145544 6.208664C16.241661 6.350876 16.330654 6.498301 16.412008 6.650425L16.4737 6.6204L16.5763 6.6007L16.628599 6.601L16.7309 6.622L16.824301 6.6688L16.865601 6.7009L16.9023 6.7381L16.959801 6.8253L16.9928 6.9244L17.0117 7.1848L17.112301 7.7715L17.132099 8.0056L17.1175 8.2701L17.105301 8.3432L17.0483 8.5601L17.0243 8.6266L16.990746 8.698266C16.996885 8.799724 17 8.901999 17 9.005C17 9.505502 16.926462 9.988827 16.7896 10.44476L16.9142 10.6703L17.009001 10.8853L17.0875 11.1656L17.104401 11.3982L17.099199 11.4927L17.0637 11.6951L17.0383 11.7814L16.929701 12.0339L16.606501 12.618L16.541 12.7647L16.5056 12.8867L16.4967 12.9916L16.5131 13.1003L16.573601 13.2515L16.894199 13.831L17.010799 14.0912L17.0681 14.2773L17.083599 14.3526L17.106199 14.5901L17.0688 14.8826L16.9527 15.1887L16.8918 15.2736L16.8111 15.3398L16.7159 15.3828L16.6129 15.3998L16.509001 15.3895L16.411301 15.3527L16.366899 15.325L16.290701 15.2536L16.2356 15.1649L16.205299 15.065L16.2019 14.9606L16.2257 14.8589L16.289801 14.6888L16.303499 14.5817L16.2922 14.4759L16.254 14.3517L16.1856 14.2025L15.9734 13.8237L15.8394 13.5699L15.7386 13.311L15.6943 13.0178L15.7172 12.74L15.7993 12.4637L15.8958 12.2506L16.138277 11.81206C15.23875 13.1356 13.720905 14.005 12 14.005C10.279095 14.005 8.761249 13.1356 7.861722 11.81206L8.1042 12.2506L8.2195 12.5151L8.2828 12.74L8.3045 12.9707L8.3014 13.0647L8.2614 13.311L8.1606 13.5699L8.0266 13.8237L7.8144 14.2025L7.746 14.3517L7.7078 14.4759L7.6965 14.5817L7.7102 14.6888L7.7743 14.8589L7.7981 14.9606L7.7998 15.0129L7.7828 15.1159L7.7398 15.2111L7.6736 15.2918L7.6331 15.325L7.5411 15.3743L7.4394 15.3981L7.335 15.3947L7.2351 15.3644L7.1464 15.3093L7.075 15.2331L7.0257 15.1411L6.9312 14.8826L6.8938 14.5901L6.9164 14.3526L6.9319 14.2773L7.0078 14.0422L7.1058 13.831L7.4264 13.2515L7.4869 13.1003L7.5033 12.9916L7.4944 12.8867L7.459 12.7647L7.3935 12.618L7.0703 12.0339L6.9617 11.7814L6.9363 11.6951L6.8954 11.4456L6.9125 11.1656L6.991 10.8853L7.0858 10.6703L7.210401 10.44476C7.073539 9.988827 7 9.505502 7 9.005C7 8.901999 7.003114 8.799725 7.009254 8.698267L6.9757 8.6266L6.9517 8.5601L6.8947 8.3432L6.8825 8.2701L6.8679 8.0056L6.8877 7.7715ZM17.754999 16C18.996861 16.001104 20.003 17.008141 20.003 18.25V19.167999C20.002983 19.740999 19.82398 20.299683 19.490999 20.766001C17.945 22.93 15.421 24.000999 12.001 24.000999C8.579 24.000999 6.056 22.929001 4.514 20.764999C4.182126 20.299 4.003849 19.741098 4.004 19.169001V18.249001C4.004552 17.007141 5.01114 16.000551 6.253 16Z"/></svg>
