<svg xmlns="http://www.w3.org/2000/svg" width="24" height="24" fill="none" viewBox="0 0 24 24"><path fill="#212121" d="M17.755 16a2.25 2.25 0 0 1 2.248 2.25v.918a2.75 2.75 0 0 1-.512 1.598c-1.546 2.164-4.07 3.235-7.49 3.235-3.422 0-5.945-1.072-7.487-3.236a2.75 2.75 0 0 1-.51-1.596v-.92A2.25 2.25 0 0 1 6.253 16zM12 4.005a5 5 0 1 1 0 10 5 5 0 0 1 0-10"/><path fill="#212121" d="M6.9883,7.1848 L6.8877,7.7715 L6.8679,8.0056 L6.8825,8.2701 L6.8947,8.3432 L6.9517,8.5601 L6.9757,8.6266 L7.0935,8.8782 L7.4084,9.4482 L7.4681,9.5901 L7.498,9.7077 L7.5023,9.8114 L7.4797,9.925 L7.4086,10.086 L7.0858,10.6703 L6.991,10.8853 L6.9125,11.1656 L6.8954,11.4456 L6.9363,11.6951 L6.9617,11.7814 L7.0703,12.0339 L7.3935,12.618 L7.459,12.7647 L7.4944,12.8867 L7.5033,12.9916 L7.4869,13.1003 L7.4264,13.2515 L7.1058,13.831 L7.0078,14.0422 L6.9319,14.2773 L6.9164,14.3526 L6.8938,14.5901 L6.9312,14.8826 L7.0257,15.1411 L7.075,15.2331 L7.1464,15.3093 L7.2351,15.3644 L7.335,15.3947 L7.4394,15.3981 L7.5411,15.3743 L7.6331,15.325 L7.6736,15.2918 L7.7398,15.2111 L7.7828,15.1159 L7.7998,15.0129 L7.7981,14.9606 L7.7743,14.8589 L7.7102,14.6888 L7.6965,14.5817 L7.7078,14.4759 L7.746,14.3517 L7.8144,14.2025 L8.0266,13.8237 L8.1606,13.5699 L8.2614,13.311 L8.3014,13.0647 L8.3045,12.9707 L8.2828,12.74 L8.2195,12.5151 L8.1042,12.2506 L7.7824,11.6686 L7.7165,11.5124 L7.6971,11.4014 L7.7037,11.2973 L7.7363,11.1775 L7.799,11.0332 L8.1181,10.4562 L8.2448,10.1668 L8.3028,9.8735 L8.2956,9.6329 L8.2836,9.5509 L8.236,9.3638 L8.1389,9.1217 L8.0244,8.9016 L7.8002,8.5029 L7.7164,8.3222 L7.6778,8.1756 L7.6679,8.0375 L7.6795,7.8866 L7.7819,7.2873 L7.7993,7.0237 L7.799,6.9714 L7.778,6.8691 L7.7312,6.7757 L7.6991,6.7344 L7.6619,6.6977 L7.5747,6.6402 L7.5263,6.6204 L7.4237,6.6007 L7.3714,6.601 L7.2691,6.622 L7.2209,6.6423 L7.1344,6.7009 L7.0661,6.7798 L7.0204,6.8737 L7.0072,6.9244 Z M16.2181,7.2873 L16.3205,7.8866 L16.3321,8.0375 L16.3222,8.1756 L16.2836,8.3222 L16.1998,8.5029 L15.876,9.0901 L15.783,9.3073 L15.7083,9.5915 L15.6972,9.8735 L15.7443,10.1244 L15.7706,10.2077 L15.8819,10.4562 L16.201,11.0332 L16.2637,11.1775 L16.2963,11.2973 L16.3029,11.4014 L16.2835,11.5124 L16.2176,11.6686 L15.8958,12.2506 L15.7993,12.4637 L15.7172,12.74 L15.6943,13.0178 L15.7386,13.311 L15.8394,13.5699 L15.9734,13.8237 L16.1856,14.2025 L16.254,14.3517 L16.2922,14.4759 L16.3035,14.5817 L16.2898,14.6888 L16.2257,14.8589 L16.2019,14.9606 L16.2053,15.065 L16.2356,15.1649 L16.2907,15.2536 L16.3669,15.325 L16.4113,15.3527 L16.509,15.3895 L16.6129,15.3998 L16.7159,15.3828 L16.8111,15.3398 L16.8918,15.2736 L16.9527,15.1887 L17.0688,14.8826 L17.1062,14.5901 L17.0836,14.3526 L17.0681,14.2773 L17.0108,14.0912 L16.8942,13.831 L16.5736,13.2515 L16.5131,13.1003 L16.4967,12.9916 L16.5056,12.8867 L16.541,12.7647 L16.6065,12.618 L16.9297,12.0339 L17.0383,11.7814 L17.0637,11.6951 L17.0992,11.4927 L17.1044,11.3982 L17.0875,11.1656 L17.009,10.8853 L16.9142,10.6703 L16.5914,10.086 L16.5203,9.925 L16.4977,9.8114 L16.502,9.7077 L16.5319,9.5901 L16.5916,9.4482 L16.9065,8.8782 L17.0243,8.6266 L17.0483,8.5601 L17.1053,8.3432 L17.1175,8.2701 L17.1321,8.0056 L17.1123,7.7715 L17.0117,7.1848 L16.9928,6.9244 L16.9598,6.8253 L16.9023,6.7381 L16.8656,6.7009 L16.8243,6.6688 L16.7309,6.622 L16.6286,6.601 L16.5763,6.6007 L16.4737,6.6204 L16.3798,6.6661 L16.3381,6.6977 L16.3009,6.7344 L16.2423,6.8209 L16.2082,6.9196 L16.2007,7.0237 Z"/><path fill="#212121" d="M8.5 4.5c0-2 1.5-4 3.5-4s3.5 2 3.5 4V5h-7z"/><path fill="#212121" d="M12 6.5c3.866 0 7-.672 7-1.5s-3.134-1.5-7-1.5S5 4.172 5 5s3.134 1.5 7 1.5"/></svg>