<svg xmlns="http://www.w3.org/2000/svg" width="24" height="24" viewBox="0 0 24 24"><path d="M15.844 17.369333C14.5 18.390666 12.822666 19 11 19C6.584 19 3 15.416 3 11C3 6.584 6.584 3 11 3C15.416 3 19 6.584 19 11C19 12.874666 18.354666 14.604 17.270666 15.969333L21.697333 20.286666C22.093333 20.671999 22.098666 21.302666 21.713333 21.697333C21.327999 22.093333 20.697333 22.098666 20.302666 21.713333ZM17 11C17 7.688 14.312 5 11 5C7.688 5 5 7.688 5 11C5 14.312 7.688 17 11 17C14.312 17 17 14.312 17 11Z"/><path d="M13.598666 7.401333C13.270666 7.401333 13 7.666666 13 8L13 14C13 14.333333 13.270666 14.598666 13.598666 14.598666L14.401333 14.598666C14.729333 14.598666 15 14.333333 15 14L15 8C15 7.666666 14.729333 7.401333 14.401333 7.401333ZM11.197333 7.401333C10.869333 7.401333 10.598666 7.666666 10.598666 8L10.598666 14C10.598666 14.333333 10.869333 14.598666 11.197333 14.598666L12 14.598666C12.333333 14.598666 12.598666 14.333333 12.598666 14L12.598666 8C12.598666 7.666666 12.333333 7.401333 12 7.401333ZM8.286666 8.650666L7 13.656C6.921333 13.978666 7.114666 14.306666 7.432 14.385333L8.182666 14.578666C8.505333 14.661333 8.833333 14.469333 8.917333 14.145333L10.197333 9.14C10.281333 8.817333 10.088 8.494666 9.770666 8.412L9.016 8.218666C8.697333 8.136 8.369333 8.328 8.286666 8.650666Z"/></svg>
