<svg xmlns="http://www.w3.org/2000/svg" width="24" height="24" viewBox="0 0 24 24"><path d="M8.364 0.656C8.828 0.609333 10.297333 0.672 10.776 0.765333C12.369333 1.073333 13.849333 1.864 15.021333 3.041333C16.120001 4.136 16.912001 5.489333 17.265333 6.901333C17.510666 7.86 17.416 10.344 17.416 10.344C17.172001 11.734666 16.562666 13.104 15.754666 14.104C15.526666 14.38 15.458666 14.5 15.5 14.573333C15.526666 14.630666 15.776 14.885333 16.057333 15.156L16.562666 15.64L16.973333 15.598666C17.275999 15.568 17.464001 15.584 17.718666 15.656C18.052 15.754666 18.104 15.797333 20.499998 18.188C22.24 19.926666 22.978666 20.697332 23.062666 20.885332C23.374666 21.515999 23.223999 22.354666 22.702665 22.869333C22.078667 23.499998 21.057333 23.557333 20.442665 23.005333C19.530666 22.177334 15.578666 18.213333 15.578666 18.136C15.578666 18.078667 15.552 18.010666 15.521333 17.994665C15.489333 17.973333 15.458666 17.896 15.458666 17.817333C15.458666 17.745333 15.437333 17.661333 15.401333 17.645332C15.328 17.598665 15.328 17.166666 15.401333 17.120001C15.437333 17.098665 15.458666 17.010666 15.458666 16.926666C15.458666 16.806665 15.338666 16.645332 14.948 16.254665C14.666666 15.969333 14.390666 15.708 14.333333 15.677333C14.250666 15.630666 14.136 15.682666 13.781333 15.921333C12.932 16.489332 11.942666 16.906666 10.817333 17.188C10.218666 17.333332 8.202666 17.333332 7.546666 17.188C5.562667 16.74 3.901333 15.74 2.729333 14.286666C2.584 14.109333 2.448 13.953333 2.426667 13.948C2.396 13.932 2.38 13.901333 2.38 13.869333C2.38 13.844 2.333333 13.765333 2.276 13.702666C2.098667 13.489333 1.677333 12.718666 1.494667 12.254666C1.369333 11.932 1.306667 11.797333 1.265333 11.702666C1.234667 11.645333 1.208 11.546666 1.208 11.489333C1.208 11.421333 1.188 11.354666 1.150667 11.333333C1.125333 11.317333 1.093333 11.197333 1.093333 11.073333C1.093333 10.948 1.073333 10.828 1.036 10.812C1.005333 10.792 0.978667 10.672 0.978667 10.546666C0.978667 10.426666 0.953333 10.302666 0.917333 10.286666C0.838667 10.24 0.838667 7.817333 0.917333 7.770666C0.953333 7.754666 0.978667 7.636 0.978667 7.510666C0.978667 7.385333 1.005333 7.265333 1.036 7.250666C1.073333 7.229333 1.093333 7.109333 1.093333 6.984C1.093333 6.864 1.125333 6.74 1.150667 6.724C1.188 6.702666 1.208 6.625333 1.208 6.546667C1.208 6.469333 1.24 6.390667 1.270667 6.369333C1.302667 6.354667 1.328 6.286667 1.328 6.218667C1.328 6.161333 1.354667 6.057333 1.385333 5.989333C1.421333 5.926667 1.473333 5.822667 1.5 5.76C1.536 5.693333 1.562667 5.598667 1.562667 5.552C1.562667 5.505333 1.588 5.469333 1.62 5.469333C1.656 5.469333 1.677333 5.426667 1.677333 5.38C1.677333 5.292 1.786667 5.057333 1.86 5C1.874667 4.978667 1.926667 4.88 1.973333 4.776C2.021333 4.677333 2.073333 4.588 2.098667 4.588C2.125333 4.588 2.145333 4.557333 2.145333 4.516C2.145333 4.473333 2.193333 4.385333 2.250667 4.322667C2.306667 4.265333 2.421333 4.12 2.494667 4.005333C2.734667 3.666667 2.797333 3.593333 3.224 3.166667C3.708 2.677333 3.844 2.562667 4.412 2.156C5.541333 1.344 6.948 0.812 8.364 0.656ZM10.38 2.396C9.969333 2.317333 8.421333 2.292 8.130666 2.354667C6.964 2.609333 6.254667 2.890667 5.505333 3.385333C4.890667 3.802667 4.229333 4.416 3.806667 4.969333C2.625333 6.546667 2.161333 8.765333 2.650667 10.546666C3.494667 13.62 6.145333 15.688 9.234666 15.688C10.026666 15.688 10.666666 15.578666 11.421333 15.306666C11.958666 15.114666 12.849333 14.625333 13.213333 14.312C13.312 14.234666 13.494666 14.082666 13.614666 13.978666C13.745333 13.874666 13.912 13.713333 13.994666 13.625333C14.078666 13.530666 14.197333 13.401333 14.270666 13.328C14.437333 13.145333 15.073333 12.188 15.177333 11.958666C15.224 11.86 15.276 11.776 15.297333 11.776C15.328 11.776 15.344 11.734666 15.344 11.688C15.344 11.64 15.369333 11.552 15.396 11.494666C15.536 11.218666 15.693333 10.729333 15.693333 10.557333C15.693333 10.494666 15.724 10.416 15.754666 10.401333C15.786666 10.385333 15.812 10.202666 15.812 10C15.812 9.802666 15.838666 9.609333 15.874666 9.573333C15.921333 9.526666 15.926666 9.344 15.906666 9.016C15.88 8.754666 15.854666 8.344 15.833333 8.125333C15.817333 7.896 15.776 7.693333 15.745333 7.656C15.718666 7.625333 15.693333 7.546666 15.693333 7.469333C15.693333 7.396 15.672 7.286666 15.64 7.229333C15.614666 7.177333 15.562666 7.016 15.521333 6.869333C15.478666 6.724 15.426666 6.557333 15.396 6.505333C15.369333 6.448 15.344 6.36 15.344 6.312C15.344 6.265333 15.328 6.224 15.302666 6.224C15.276 6.224 15.193333 6.078667 15.109333 5.906667C15.030666 5.729333 14.948 5.584 14.921333 5.584C14.896 5.584 14.874666 5.546667 14.874666 5.505333C14.874666 5.458667 14.822666 5.38 14.76 5.322667C14.697333 5.26 14.645333 5.193333 14.645333 5.166667C14.645333 5.021333 13.64 3.989333 13.156 3.625333C12.328 3.016 11.36 2.588 10.38 2.396ZM9.078666 3.505333C9.161333 3.421333 9.245333 3.416 9.666666 3.448C10.964 3.552 12.166666 4.136 13.125333 5.109333C13.912 5.921333 14.390666 6.844 14.614666 8.005333C14.770666 8.838666 14.713333 9.193333 14.426666 9.136C14.344 9.125333 14.312 9.036 14.281333 8.765333C14.188 7.989333 14.109333 7.573333 14 7.306666C13.864 6.964 13.453333 6.172 13.338666 6.036C13.270666 5.953333 13.136 5.786667 13.046666 5.672C12.76 5.306667 12.052 4.749333 11.510666 4.464C10.86 4.125333 10.254666 3.942667 9.630666 3.901333C9.026666 3.864 8.849333 3.74 9.078666 3.505333Z"/></svg>
