<svg xmlns="http://www.w3.org/2000/svg" width="24" height="24" viewBox="0 0 24 24"><path d="M10.360456 3.657491C9.887756 3.700075 9.504485 3.785247 8.950874 3.964106C7.805322 4.343118 6.681064 5.143726 5.931559 6.123193C5.871939 6.199847 5.782509 6.31057 5.731406 6.37019C5.680304 6.429809 5.616426 6.527756 5.582357 6.587376C5.552548 6.646996 5.518478 6.706616 5.505704 6.719392C5.467376 6.757718 5.33536 6.996197 5.224638 7.230417C5.165019 7.358175 5.096882 7.498707 5.075589 7.537034C5.054296 7.579619 5.037262 7.643498 5.037262 7.677566C5.037262 7.711634 5.020227 7.741444 4.994677 7.741444C4.973383 7.741444 4.952091 7.788288 4.952091 7.84365C4.952091 7.90327 4.935057 7.962889 4.909505 7.975664C4.888213 7.98844 4.866919 8.04806 4.866919 8.103421C4.866919 8.158783 4.849885 8.218403 4.824335 8.231178C4.798783 8.243953 4.781749 8.307832 4.781749 8.367451C4.781749 8.473915 4.730646 8.669809 4.649733 8.869961C4.496426 9.25749 4.521977 10.977946 4.692319 11.638022C4.713612 11.73171 4.74768 11.863725 4.760456 11.936121C4.786007 12.063877 4.841369 12.20441 4.913763 12.3492C4.935057 12.391786 4.952091 12.455664 4.952091 12.489732C4.952091 12.523802 4.969125 12.58768 4.990418 12.630265C5.011711 12.668592 5.096882 12.847451 5.182053 13.022052C5.36517 13.401063 5.471634 13.592698 5.518478 13.609732C5.535512 13.61825 5.548288 13.652318 5.548288 13.686386C5.548288 13.720456 5.569582 13.746006 5.590874 13.746006C5.616426 13.746006 5.63346 13.771558 5.63346 13.805626C5.63346 13.839694 5.646236 13.873763 5.667528 13.88228C5.69308 13.895056 5.825095 14.056881 6.059315 14.363497C6.25095 14.614752 6.89825 15.219466 7.234677 15.462203C8.133231 16.105246 9.082889 16.488515 10.151786 16.641823C10.624485 16.709961 11.799847 16.675892 12.234219 16.577945C13.056121 16.394827 13.988744 15.994524 14.580683 15.568668C14.759542 15.440911 14.925626 15.321671 14.951178 15.308896C14.97247 15.291861 15.130037 15.411101 15.291861 15.568668L15.594219 15.862508L15.611253 16.284105C15.632546 16.790873 15.662356 16.910112 15.811406 17.131558C15.951938 17.340226 19.103268 20.48304 19.311938 20.623572C19.495056 20.74707 19.861291 20.857793 20.086995 20.857793C20.904637 20.853534 21.586006 20.082735 21.500835 19.252318C21.441215 18.690188 21.424181 18.664637 19.5419 16.795131C18.281368 15.538858 17.783117 15.070417 17.642584 15.006538C17.497793 14.94266 17.353002 14.917109 17.046386 14.91285C16.824941 14.908592 16.616273 14.900074 16.586463 14.900074C16.535359 14.895816 16.262812 14.640303 16.049884 14.393307C15.968972 14.299619 15.968972 14.299619 16.096728 14.137793C16.684409 13.401063 17.131558 12.430112 17.353002 11.412318C17.4765 10.845931 17.485017 9.52152 17.370036 8.976426C16.922888 6.842889 15.683649 5.203346 13.809884 4.266464C12.775056 3.751179 11.591178 3.542509 10.360456 3.657491M12.149048 4.441064C13.022052 4.632699 13.860988 5.037262 14.563649 5.595132C14.866006 5.83787 15.445169 6.425551 15.543117 6.595892C15.585702 6.66403 15.632546 6.719392 15.64958 6.719392C15.666615 6.719392 15.683649 6.740684 15.683649 6.761976C15.683649 6.787528 15.717717 6.847148 15.764561 6.893992C15.807147 6.940836 15.88806 7.068593 15.94342 7.179315C15.998782 7.290037 16.054144 7.387984 16.066918 7.40076C16.113762 7.447604 16.365017 7.971406 16.365017 8.026768C16.365017 8.056577 16.38631 8.120456 16.407603 8.1673C16.433155 8.214144 16.471481 8.290797 16.492774 8.337641C16.518325 8.384485 16.535359 8.469657 16.535359 8.525019C16.535359 8.584638 16.556653 8.644258 16.577945 8.657033C16.603497 8.669809 16.620531 8.746463 16.620531 8.827376C16.620531 8.908288 16.637565 8.980684 16.658857 8.99346C16.718477 9.031786 16.761063 9.508745 16.761063 10.16882C16.761063 10.752243 16.726995 11.080151 16.624789 11.46768C16.603497 11.561368 16.569429 11.693383 16.556653 11.765779C16.539619 11.833915 16.509809 11.940379 16.484257 11.999999C16.458705 12.059619 16.420379 12.149048 16.403345 12.200151C16.382052 12.255512 16.347983 12.340684 16.326691 12.391786C16.250036 12.591938 16.088212 12.915588 16.058402 12.928364C16.037108 12.936881 16.024334 12.979467 16.024334 13.026311C16.024334 13.068897 16.007298 13.107223 15.981748 13.107223C15.960454 13.107223 15.939162 13.137033 15.939162 13.171101C15.939162 13.20517 15.922128 13.23498 15.896576 13.23498C15.875284 13.23498 15.853991 13.264789 15.853991 13.298858C15.853991 13.332927 15.836956 13.362736 15.811406 13.362736C15.790112 13.362736 15.76882 13.392546 15.76882 13.426615C15.76882 13.460683 15.751786 13.490493 15.726234 13.490493C15.704942 13.490493 15.683649 13.507528 15.683649 13.533078C15.683649 13.575664 15.598477 13.690646 15.449429 13.848212C15.257793 14.044105 15.257793 14.044105 16.045626 14.831938C16.718477 15.509048 16.79939 15.577185 16.931405 15.577185C17.318934 15.577185 17.27209 15.538858 19.026615 17.284866C19.942203 18.196196 20.713002 18.992545 20.742812 19.056424C20.819466 19.222508 20.802432 19.661139 20.713002 19.814447C20.51285 20.155131 20.040151 20.244561 19.682432 20.010341C19.414142 19.827223 16.382052 16.773839 16.322432 16.624789C16.275588 16.501291 16.254295 16.198934 16.284105 16.105246C16.309656 16.03285 14.85323 14.640303 14.755284 14.640303C14.712698 14.640303 14.606234 14.695664 14.52958 14.76806C14.448668 14.836196 14.372014 14.895816 14.354979 14.895816C14.337945 14.895816 14.299619 14.921368 14.269809 14.946918C13.920607 15.270569 12.958173 15.687907 12.127755 15.879542C11.5273 16.011558 10.526539 16.011558 9.917566 15.875284C9.321368 15.743268 8.835892 15.564409 8.316349 15.291861C6.796045 14.482736 5.684562 12.992243 5.30981 11.254752C5.216121 10.828897 5.203346 9.542813 5.288516 9.189353C5.318326 9.061596 5.36943 8.840152 5.403498 8.699619C5.48441 8.341901 5.688821 7.830874 5.918783 7.392243C6.451102 6.382965 7.417794 5.446084 8.478175 4.913763C8.882736 4.709353 9.474676 4.51346 9.977186 4.415513C10.488212 4.317566 11.650797 4.330342 12.149048 4.441064"/><path d="M10.509505 5.659011C9.542813 5.752699 8.614448 6.199847 7.830874 6.949353C7.652014 7.119695 7.507224 7.273003 7.507224 7.290037C7.507224 7.307071 7.481672 7.345399 7.456121 7.375209C7.285779 7.545551 7.123953 7.809582 6.932319 8.209885C6.86844 8.337641 6.800304 8.478175 6.779011 8.516501C6.757718 8.559087 6.740684 8.631482 6.740684 8.674068C6.740684 8.720912 6.72365 8.767756 6.702356 8.780532C6.668288 8.806083 6.642738 8.908288 6.587376 9.261748C6.5746 9.351178 6.54479 9.461901 6.523498 9.508745C6.472395 9.619467 6.497946 10.747983 6.561824 11.041824C6.587376 11.156805 6.621444 11.310114 6.63422 11.382508C6.659772 11.510265 6.715132 11.655056 6.787528 11.795589C6.80882 11.838173 6.825855 11.910569 6.825855 11.957413C6.825855 12.004257 6.847148 12.042585 6.86844 12.042585C6.893992 12.042585 6.911026 12.080911 6.911026 12.127755C6.911026 12.1746 6.923802 12.212927 6.945094 12.212927C6.962129 12.212927 7.000456 12.276805 7.034524 12.3492C7.136729 12.58768 7.417794 12.970949 7.711634 13.286083C8.299315 13.907832 9.065854 14.367755 9.892014 14.5892C10.241216 14.67863 10.390265 14.695664 10.977946 14.695664C11.544334 14.699922 11.718934 14.682888 12.008516 14.606234C13.775816 14.146311 15.019314 12.85171 15.432395 11.041824C15.517565 10.667071 15.509048 9.593915 15.415359 9.19787C15.125778 7.98844 14.452927 7.008973 13.456424 6.361672C12.834676 5.952851 12.246995 5.744182 11.484714 5.654752C11.063117 5.607908 11.0546 5.607908 10.509505 5.659011M11.999999 6.208365C12.404562 6.31057 13.026311 6.608668 13.345702 6.847148C13.716196 7.123953 14.188896 7.613688 14.350721 7.890494C14.593459 8.295057 14.746766 8.597414 14.746766 8.661292C14.746766 8.69536 14.7638 8.720912 14.785094 8.720912C14.806386 8.720912 14.831938 8.772014 14.844714 8.835892C14.85749 8.90403 14.891558 9.031786 14.917109 9.125474C15.044866 9.564105 15.117261 10.271026 15.044866 10.360456C14.976728 10.445626 14.772318 10.441368 14.687147 10.356197C14.606234 10.279543 14.5892 10.207148 14.555132 9.798326C14.452927 8.584638 13.613992 7.383725 12.523802 6.893992C12.127755 6.715132 11.663573 6.591634 11.254752 6.561824C10.960911 6.540532 10.879999 6.519239 10.799087 6.438326C10.679847 6.314828 10.675589 6.276501 10.790569 6.161521C10.875741 6.076349 10.914067 6.072091 11.271786 6.093383C11.484714 6.110417 11.812623 6.161521 11.999999 6.208365"/></svg>
