<svg xmlns="http://www.w3.org/2000/svg" width="24" height="24" viewBox="0 0 24 24"><path d="M15.844 17.369333C15.656087 17.512133 15.461658 17.646875 15.261227 17.773027L16.270666 19.937332C16.505333 20.437332 16.286667 21.030666 15.786666 21.265333C15.286666 21.494665 14.693333 21.281334 14.458666 20.781334L13.449724 18.618097C12.67807 18.865908 11.855026 19 11 19C8.149578 19 5.645799 17.506765 4.228762 15.260391L2.062667 16.270666C1.562667 16.505333 0.969333 16.286667 0.734667 15.786666C0.505333 15.286666 0.718667 14.693333 1.218667 14.458666L3.382441 13.449473C3.134121 12.677399 3 11.854267 3 11C3 8.149578 4.493235 5.6458 6.739608 4.228763L5.729333 2.062667C5.494667 1.562667 5.713333 0.969333 6.213333 0.734667C6.453333 0.625333 6.729333 0.614667 6.978666 0.702667C7.229333 0.792 7.432 0.978667 7.541333 1.218667L8.550526 3.382441C9.3226 3.134121 10.145733 3 11 3C13.850422 3 16.354198 4.493235 17.771236 6.739608L19.937332 5.729333C20.437332 5.494667 21.030666 5.713333 21.265333 6.213333C21.494665 6.713333 21.281334 7.306666 20.781334 7.541333L18.617559 8.550526C18.865879 9.3226 19 10.145733 19 11C19 12.874666 18.354666 14.604 17.270666 15.969333L21.697332 20.286667C22.093332 20.671999 22.098665 21.302666 21.713333 21.697332C21.327999 22.093332 20.697332 22.098665 20.302666 21.713333ZM6.060728 14.405955C7.143631 15.972788 8.952586 17 11 17C11.552185 17 12.087025 16.925283 12.594954 16.785416L10.516 12.328L6.060728 14.405955ZM15.939272 7.594044C14.856369 6.027212 13.047414 5 11 5C10.447815 5 9.912974 5.074717 9.405045 5.214585L11.484 9.672L15.939272 7.594044ZM17 11C17 10.447815 16.925283 9.912974 16.785416 9.405045L12.328 11.484L14.405955 15.939272C15.972788 14.856369 17 13.047415 17 11ZM7.594044 6.060729C6.027212 7.143632 5 8.952586 5 11C5 11.552185 5.074717 12.087025 5.214585 12.594954L9.672 10.516L7.594044 6.060729Z"/></svg>
