<svg xmlns="http://www.w3.org/2000/svg" width="24" height="24" viewBox="0 0 24 24"><path d="M8.478666 0.541333C10.12 0.390667 11.697333 0.666667 13.078666 1.354667C15.578666 2.604 17.229334 4.792 17.827999 7.636C17.978666 8.364 17.969334 10.130666 17.802666 10.885333C17.510666 12.24 16.912001 13.536 16.130667 14.516C16.029112 14.645107 15.987518 14.697986 15.992988 14.74544C15.996781 14.778358 16.02322 14.808667 16.068001 14.86C16.349333 15.188 16.713333 15.526666 16.781334 15.530666C16.822666 15.530666 17.098665 15.546666 17.396 15.552C17.802666 15.557333 17.994665 15.588 18.193333 15.677333C18.374666 15.76 19.041332 16.385332 20.723999 18.062666C23.234667 20.551998 23.254665 20.587999 23.333332 21.338667C23.447998 22.442665 22.541332 23.473333 21.447998 23.478666C21.145332 23.478666 20.661333 23.327999 20.415998 23.166666C20.136 22.978666 15.937333 18.786667 15.749333 18.510666C15.552 18.213333 15.510666 18.052 15.478666 17.379999L15.458666 16.817333L15.057333 16.426666C14.838666 16.213333 14.630666 16.057333 14.604 16.078667C14.568 16.093332 14.344 16.254665 14.109333 16.426666C13.317333 16.994665 12.073333 17.526667 10.978666 17.770666C10.401333 17.901333 8.833333 17.948 8.202666 17.854666C6.776 17.650665 5.510667 17.139999 4.312 16.281334C3.864 15.958666 3 15.150666 2.745333 14.817333C2.432 14.412 2.254667 14.193333 2.224 14.177333C2.193333 14.166666 2.177333 14.12 2.177333 14.073333C2.177333 14.030666 2.156 13.994666 2.12 13.994666C2.093333 13.994666 2.062667 13.958666 2.062667 13.917333C2.062667 13.869333 2.046667 13.822666 2.026667 13.812C1.964 13.792 1.817333 13.536 1.578667 13.030666C1.464 12.797333 1.349333 12.557333 1.322667 12.505333C1.292 12.448 1.270667 12.364 1.270667 12.317333C1.270667 12.276 1.245333 12.188 1.218667 12.130666C1.12 11.937333 1.046667 11.749333 1.016 11.584C0.994667 11.484 0.953333 11.306666 0.921333 11.182666C0.697333 10.302666 0.661333 8.010666 0.864 7.494666C0.973333 7.224 1.041333 6.964 1.041333 6.822666C1.041333 6.745333 1.062667 6.656 1.098667 6.64C1.136 6.625333 1.156 6.546667 1.156 6.469333C1.156 6.396 1.182667 6.317333 1.213333 6.302667C1.245333 6.281333 1.270667 6.202667 1.270667 6.125333C1.270667 6.052 1.297333 5.989333 1.328 5.989333C1.36 5.989333 1.385333 5.948 1.385333 5.901333C1.385333 5.86 1.406667 5.770667 1.432 5.713333C1.464 5.666667 1.552 5.478667 1.636 5.306667C1.781333 4.994667 1.958667 4.677333 2.005333 4.625333C2.026667 4.609333 2.068 4.530667 2.109333 4.448C2.156 4.369333 2.24 4.24 2.306667 4.161333C2.374667 4.082667 2.494667 3.932 2.573333 3.833333C3.573333 2.526667 5.073333 1.458667 6.598667 0.953333C7.338666 0.713333 7.849333 0.598667 8.478666 0.541333ZM10.864 1.588C10.202666 1.442667 8.650666 1.421333 7.969333 1.552C7.302666 1.682667 6.510667 1.948 5.969333 2.218667C4.557333 2.926667 3.265333 4.177333 2.557333 5.521333C2.250667 6.109333 1.978667 6.792 1.869333 7.265333C1.828 7.453333 1.754667 7.749333 1.718667 7.917333C1.604 8.390666 1.62 10.104 1.745333 10.672C2.245333 12.989333 3.729333 14.978666 5.754667 16.057333C6.448 16.416 7.093333 16.656 7.890666 16.833332C8.702666 17.016001 10.036 17.016001 10.838666 16.838667C11.942666 16.584 13.229333 16.026667 13.693333 15.593333C13.734666 15.562666 13.786666 15.526666 13.806666 15.526666C13.828 15.526666 13.932 15.448 14.041333 15.36C14.14 15.26 14.281333 15.188 14.338666 15.188C14.469333 15.188 16.412001 17.041332 16.379999 17.139999C16.338667 17.265333 16.369333 17.666666 16.431999 17.833332C16.510666 18.030666 20.551998 22.103998 20.911999 22.349333C21.385332 22.661333 22.015999 22.541332 22.286667 22.082666C22.401333 21.879999 22.426666 21.297333 22.322666 21.073334C22.286667 20.989332 21.254665 19.926666 20.035999 18.713333C18.111736 16.797846 17.81319 16.493633 17.478144 16.445965C17.41489 16.436966 17.350334 16.437111 17.273294 16.437283L17.24 16.437332C17.068001 16.437332 16.958666 16.344 16.062666 15.442666C15.305737 14.685737 15.093429 14.473429 15.128741 14.317031C15.142508 14.256063 15.193903 14.203592 15.265333 14.130666C15.464 13.921333 15.578666 13.765333 15.578666 13.708C15.578666 13.677333 15.604 13.656 15.636 13.656C15.666666 13.656 15.693333 13.614666 15.693333 13.568C15.693333 13.521333 15.718666 13.484 15.749333 13.484C15.781333 13.484 15.806666 13.442666 15.806666 13.401333C15.806666 13.354666 15.833333 13.312 15.864 13.312C15.896 13.312 15.917333 13.276 15.917333 13.229333C15.917333 13.182666 15.948 13.14 15.973333 13.14C16.010666 13.14 16.030666 13.093333 16.030666 13.036C16.030666 12.973333 16.046665 12.917333 16.078667 12.906666C16.120001 12.885333 16.333332 12.458666 16.437332 12.188C16.464001 12.12 16.510666 12.005333 16.535999 11.932C16.562666 11.864 16.609333 11.745333 16.645332 11.666666C16.682667 11.588 16.718666 11.442666 16.745333 11.354666C16.76 11.26 16.802666 11.082666 16.833332 10.958666C16.969334 10.442666 17.016001 10.005333 17.016001 9.224C17.016001 8.344 16.958666 7.708 16.879999 7.656C16.849333 7.64 16.827999 7.546666 16.827999 7.437333C16.827999 7.328 16.802666 7.224 16.770666 7.208C16.745333 7.193333 16.713333 7.114666 16.713333 7.030666C16.713333 6.958666 16.693333 6.844 16.656 6.781333C16.630667 6.718666 16.578667 6.62 16.541332 6.557333C16.516001 6.494667 16.483999 6.406667 16.483999 6.369333C16.483999 6.297333 16.150665 5.598667 16.087999 5.536C16.073334 5.516 16 5.385333 15.926666 5.24C15.849333 5.093333 15.745333 4.921333 15.688 4.86C15.625333 4.797333 15.578666 4.718667 15.578666 4.682667C15.578666 4.656 15.557333 4.625333 15.530666 4.625333C15.510666 4.625333 15.448 4.552 15.390666 4.464C15.26 4.234667 14.489333 3.448 14.082666 3.125333C13.145333 2.385333 12.030666 1.844 10.864 1.588ZM8.677333 3.213333C9.406666 3.145333 9.416 3.145333 9.978666 3.208C10.994666 3.328 11.781333 3.604 12.609333 4.150667C13.937333 5.010667 14.833333 6.317333 15.218666 7.932C15.344 8.458666 15.354666 9.890666 15.245333 10.390666C14.693333 12.802666 13.036 14.526666 10.677333 15.14C10.292 15.245333 10.057333 15.265333 9.302666 15.26C8.521333 15.26 8.322666 15.24 7.854666 15.12C6.754666 14.822666 5.734667 14.208 4.948 13.38C4.557333 12.964 4.182667 12.448 4.046667 12.130666C4 12.036 3.948 11.953333 3.926667 11.953333C3.896 11.953333 3.88 11.901333 3.88 11.838666C3.88 11.776 3.86 11.724 3.822667 11.724C3.797333 11.724 3.765333 11.672 3.765333 11.609333C3.765333 11.546666 3.745333 11.396 3.718667 11.396C3.62 11.208 3.546667 11.016 3.510667 10.844C3.494667 10.745333 3.448 10.541333 3.416 10.390666C3.328 9.994666 3.297333 8.494666 3.364 8.344C3.390667 8.281333 3.432 8.136 3.448 8.016C3.526667 7.546666 3.557333 7.406666 3.604 7.374666C3.630667 7.36 3.656 7.297333 3.656 7.234666C3.656 7.177333 3.677333 7.078666 3.702667 7.021333C3.734667 6.969333 3.822667 6.781333 3.912 6.614667C4.166667 6.078667 4.38 5.729333 4.609333 5.5C4.64 5.458667 4.677333 5.412 4.677333 5.385333C4.677333 5.364 4.869333 5.161333 5.109333 4.932C6.150667 3.932 7.390666 3.338667 8.677333 3.213333ZM10.666666 3.942667C10.416 3.88 9.978666 3.812 9.697333 3.792C9.218666 3.76 9.166666 3.770667 9.052 3.88C8.901333 4.036 8.906666 4.088 9.068 4.250667C9.172 4.36 9.281333 4.385333 9.672 4.416C10.218666 4.453333 10.838666 4.62 11.364 4.86C12.817333 5.510667 13.937333 7.114666 14.073333 8.729333C14.12 9.276 14.14 9.374666 14.250666 9.473333C14.364 9.588 14.636 9.593333 14.724 9.478666C14.822666 9.36 14.724 8.416 14.557333 7.833333C14.521333 7.708 14.478666 7.536 14.458666 7.448C14.442666 7.364 14.406666 7.297333 14.38 7.297333C14.354666 7.297333 14.328 7.26 14.328 7.213333C14.328 7.130666 14.125333 6.729333 13.802666 6.188C13.584 5.817333 12.953333 5.166667 12.458666 4.797333C12.036 4.478667 11.208 4.082667 10.666666 3.942667Z"/></svg>
