<svg xmlns="http://www.w3.org/2000/svg" width="24" height="24" viewBox="0 0 24 24">
  <path d="M15.844 17.369333C14.5 18.390666 12.822666 19 11 19C6.584 19 3 15.416 3 11C3 6.584 6.584 3 11 3C15.416 3 19 6.584 19 11C19 12.874666 18.354666 14.604 17.270666 15.969333L21.697333 20.286666C22.093333 20.671999 22.098666 21.302666 21.713333 21.697333C21.327999 22.093333 20.697333 22.098666 20.302666 21.713333ZM17 11C17 7.688 14.312 5 11 5C7.688 5 5 7.688 5 11C5 14.312 7.688 17 11 17C14.312 17 17 14.312 17 11Z"/>
    <path d="M 8.6764,6.48608 c -0.01216,0.0076 -0.04256,0.0228 -0.06688,0.03344 c -0.06536,0.0304 -0.16568,0.13376 -0.25232,0.25688 c -0.01976,0.02888 -0.04104,0.05624 -0.0456,0.0608 c -0.01976,0.0152 -0.10184,0.14592 -0.12312,0.19304 c -0.01216,0.02736 -0.02584,0.05016 -0.03192,0.05016 c -0.0076,0 -0.01216,0.01368 -0.01216,0.0304 s -0.00608,0.0304 -0.0152,0.0304 c -0.0076,0 -0.0152,0.01368 -0.0152,0.0304 s -0.00608,0.0304 -0.0152,0.0304 c -0.0076,0 -0.0152,0.01064 -0.0152,0.0228 c 0,0.01368 -0.01368,0.0532 -0.0304,0.08664 c -0.01672,0.03496 -0.0304,0.07448 -0.0304,0.08816 s -0.00608,0.0304 -0.01368,0.038 c -0.0076,0.00912 -0.01824,0.0532 -0.0228,0.0988 c -0.02736,0.24472 -0.03952,0.36176 -0.04104,0.3952 c -0.00152,0.08512 0.02128,0.29032 0.03344,0.29792 c 0.0076,0.00456 0.01368,0.03496 0.01368,0.06688 s 0.0076,0.06384 0.0152,0.0684 c 0.00912,0.00456 0.0152,0.0228 0.0152,0.03952 c 0,0.0152 0.01216,0.05776 0.02888,0.09424 c 0.0152,0.03496 0.038,0.08816 0.04864,0.11704 c 0.076,0.20064 0.20368,0.35264 0.87552,1.0336 c 0.1444,0.14744 0.26296,0.2736 0.26296,0.2812 c 0,0.01824 -0.0684,0.0988 -0.08208,0.0988 c -0.04712,0 -0.5016,0.42256 -0.58672,0.5472 c -0.02128,0.02888 -0.04864,0.06688 -0.06384,0.08208 c -0.0152,0.01672 -0.02736,0.03952 -0.02736,0.05016 s -0.00608,0.01976 -0.01216,0.01976 s -0.02432,0.01976 -0.038,0.0456 c -0.0152,0.02432 -0.03496,0.0532 -0.0456,0.06536 c -0.01976,0.02128 -0.04712,0.06536 -0.09272,0.15504 c -0.01824,0.03344 -0.03496,0.06384 -0.03952,0.0684 c -0.01824,0.01824 -0.0456,0.07752 -0.0456,0.0988 c 0,0.01216 -0.00608,0.0228 -0.0152,0.0228 c -0.0076,0 -0.0152,0.01064 -0.0152,0.0228 s -0.0076,0.038 -0.01824,0.05776 c -0.03648,0.07296 -0.04256,0.08664 -0.04256,0.11552 c 0,0.01672 -0.00608,0.03496 -0.0152,0.03952 c -0.0076,0.00456 -0.0152,0.02584 -0.0152,0.0456 s -0.00608,0.03952 -0.01368,0.04408 s -0.01672,0.0304 -0.02128,0.05776 c -0.00608,0.02736 -0.01672,0.08816 -0.02736,0.13376 c -0.02432,0.11096 -0.03496,0.7448 -0.01368,0.76608 c 0.0076,0.0076 0.0152,0.04408 0.0152,0.07904 c 0,0.03648 0.00608,0.0684 0.01368,0.07296 s 0.01672,0.03496 0.0228,0.06536 c 0.01976,0.13376 0.02888,0.17176 0.04104,0.18088 c 0.0076,0.00456 0.01368,0.02736 0.01368,0.0532 c 0,0.02432 0.00608,0.05624 0.01368,0.07144 c 0.0076,0.01368 0.02128,0.0532 0.0304,0.08664 c 0.01064,0.03344 0.02432,0.07448 0.03192,0.0912 c 0.00608,0.01672 0.01824,0.05776 0.02736,0.0912 c 0.038,0.1444 0.0532,0.19912 0.06536,0.228 c 0.0304,0.07448 0.05168,0.31008 0.0304,0.33136 c -0.00912,0.00912 -0.01672,0.02888 -0.01672,0.04408 c 0,0.02888 -0.05016,0.12616 -0.08056,0.15504 c -0.0152,0.0152 -0.06536,0.04408 -0.18088,0.10184 c -0.0152,0.0076 -0.05016,0.01368 -0.07904,0.01368 c -0.10944,0 -0.23712,0.11552 -0.23712,0.21432 c 0,0.04256 0.03496,0.10488 0.0836,0.15048 l 0.04104,0.038 l 1.05792,0.00456 l 1.05792,0.00304 l 0.08056,-0.0532 c 0.07296,-0.04864 0.08816,-0.0684 0.16264,-0.22496 c 0.12008,-0.24472 0.13832,-0.32224 0.1368,-0.58824 c 0,-0.21584 -0.00152,-0.22344 -0.05776,-0.39216 c -0.06992,-0.2052 -0.16416,-0.36784 -0.31616,-0.54568 c -0.25992,-0.304 -0.51832,-0.62776 -0.62168,-0.77976 c -0.16112,-0.2356 -0.20216,-0.60344 -0.1064,-0.97128 c 0.01824,-0.06992 0.05168,-0.16264 0.07296,-0.2052 c 0.03496,-0.06992 0.21432,-0.32528 0.29336,-0.418 l 0.0304,-0.03496 l 0.08056,0.0684 c 0.04256,0.038 0.77368,0.76152 1.62336,1.60816 C 12.78952,13.45528 12.8868,13.5556 12.95672,13.6772 c 0.07144,0.12312 0.12768,0.2356 0.16112,0.3192 c 0.00912,0.02128 0.02128,0.05016 0.02888,0.06384 c 0.0076,0.0152 0.01368,0.04104 0.01368,0.05624 c 0,0.01672 0.00608,0.03344 0.01368,0.038 c 0.01672,0.01064 0.03192,0.09576 0.04104,0.22952 c 0.01368,0.21128 0.09424,0.3116 0.24928,0.3116 c 0.07752,0 0.11856,-0.0228 0.24624,-0.13072 c 0.21888,-0.19 0.41344,-0.50312 0.49096,-0.79648 c 0.12312,-0.4636 0.07448,-0.912 -0.14592,-1.33912 c -0.08512,-0.1672 -0.11704,-0.20368 -0.58368,-0.68248 c -0.75696,-0.77672 -0.684,-0.69464 -0.72048,-0.81472 c -0.04256,-0.14592 -0.04408,-0.44688 -0.00304,-0.61408 c 0.05928,-0.23256 0.19912,-0.50616 0.39064,-0.76 c 0.15656,-0.20824 0.24168,-0.24776 0.33288,-0.15504 c 0.0608,0.05928 0.0836,0.13072 0.0836,0.25384 c 0,0.1064 0.00152,0.11248 0.05168,0.15504 c 0.02736,0.02584 0.08208,0.0532 0.1216,0.06384 c 0.13528,0.03344 0.23864,-0.0456 0.38912,-0.30096 c 0.19912,-0.3344 0.27968,-0.70528 0.22648,-1.03512 c -0.02432,-0.15656 -0.11096,-0.38456 -0.18696,-0.50008 c -0.07296,-0.10944 -0.19912,-0.2356 -0.31464,-0.31312 c -0.03648,-0.02432 -0.06992,-0.05016 -0.07448,-0.05624 c -0.0152,-0.01976 -0.4332,-0.22496 -0.45904,-0.22496 c -0.0152,0 -0.02736,-0.0076 -0.02736,-0.0152 c 0,-0.00912 -0.01064,-0.0152 -0.0228,-0.0152 s -0.05624,-0.0152 -0.09576,-0.03344 c -0.27968,-0.1292 -0.48944,-0.38456 -0.48944,-0.59584 c 0,-0.11248 -0.02584,-0.1976 -0.07296,-0.24472 c -0.03192,-0.03192 -0.05168,-0.038 -0.13376,-0.038 c -0.05472,0 -0.09728,0.00608 -0.09728,0.0152 c 0,0.0076 -0.00912,0.0152 -0.01976,0.0152 c -0.02888,0 -0.28424,0.27056 -0.28424,0.30096 c 0,0.00608 -0.01672,0.0304 -0.038,0.05472 s -0.038,0.04864 -0.038,0.05472 s -0.01672,0.0304 -0.038,0.05472 s -0.038,0.0532 -0.038,0.06232 c 0,0.01064 -0.00456,0.01976 -0.01216,0.01976 c -0.01064,0 -0.02888,0.03648 -0.06384,0.1368 c -0.01064,0.02888 -0.03192,0.08208 -0.04712,0.11704 c -0.01672,0.03648 -0.02888,0.07752 -0.02888,0.09272 s -0.00608,0.03344 -0.01368,0.04104 c -0.04864,0.05168 -0.04864,0.63992 0,0.67032 c 0.0076,0.00456 0.01368,0.02128 0.01368,0.03648 c 0,0.03648 0.09424,0.2052 0.1368,0.2432 c 0.00456,0.00456 0.03192,0.038 0.0608,0.076 c 0.16568,0.21584 0.37392,0.36176 0.7296,0.5092 c 0.17024,0.06992 0.17176,0.0836 0.0228,0.24016 c -0.05472,0.05776 -0.0988,0.114 -0.0988,0.12616 s -0.00608,0.02128 -0.0152,0.02128 c -0.0076,0 -0.0152,0.00912 -0.0152,0.01976 s -0.01216,0.03344 -0.02584,0.05016 c -0.03344,0.038 -0.0684,0.09576 -0.1216,0.20368 c -0.0228,0.0456 -0.04712,0.08512 -0.0532,0.08816 s -0.01216,0.01824 -0.01216,0.03344 s -0.00608,0.03344 -0.0152,0.038 c -0.0076,0.00456 -0.0152,0.02584 -0.0152,0.04712 c 0,0.01976 -0.00608,0.03648 -0.0152,0.03648 c -0.0076,0 -0.0152,0.01368 -0.0152,0.02888 c 0,0.01672 -0.0152,0.05928 -0.03192,0.09576 c -0.05624,0.11096 -0.0532,0.10488 -0.08512,0.2812 c -0.00456,0.02736 -0.01368,0.05016 -0.01976,0.05016 c -0.0076,0 -0.0152,0.01064 -0.01824,0.02432 c -0.00456,0.02584 -2.7968,-2.7588 -2.89104,-2.88344 c -0.09424,-0.12616 -0.20672,-0.39672 -0.23864,-0.58216 c -0.0152,-0.08968 -0.02888,-0.19152 -0.02888,-0.22648 c 0,-0.07296 -0.04408,-0.14896 -0.10184,-0.17632 c -0.0228,-0.01064 -0.05472,-0.02584 -0.0684,-0.03344 c -0.03344,-0.01672 -0.11856,-0.01672 -0.14896,0" fill="currentColor"/>
</svg>
