<svg xmlns="http://www.w3.org/2000/svg" width="24" height="24" viewBox="0 0 24 24"><path d="M15.844 17.369333C14.5 18.390666 12.822666 19 11 19C6.584 19 3 15.416 3 11C3 6.584 6.584 3 11 3C15.416 3 19 6.584 19 11C19 12.874666 18.354666 14.604 17.270666 15.969333L21.697333 20.286666C22.093333 20.671999 22.098666 21.302666 21.713333 21.697333C21.327999 22.093333 20.697333 22.098666 20.302666 21.713333ZM17 11C17 7.688 14.312 5 11 5C7.688 5 5 7.688 5 11C5 14.312 7.688 17 11 17C14.312 17 17 14.312 17 11Z"/><path d="M20.353803 6.635071L1.646316 15.365163M6.635014 1.646374L15.365105 20.35386"/></svg>
