<svg xmlns="http://www.w3.org/2000/svg" width="24" height="24" viewBox="0 0 24 24"><path d="M15.844 17.369333C14.5 18.390665 12.822666 19 11 19C6.584 19 3 15.416 3 11C3 6.584 6.584 3 11 3C15.416 3 19 6.584 19 11C19 12.874666 18.354666 14.604 17.270666 15.969333L21.697332 20.286667C22.093332 20.671999 22.098665 21.302666 21.713333 21.697332C21.327999 22.093332 20.697332 22.098665 20.302666 21.713333ZM17 11C17 7.688 14.312 5 11 5C7.688 5 5 7.688 5 11C5 14.312 7.688 17 11 17C14.312 17 17 14.312 17 11ZM11.197333 7.401333H12C12.333333 7.401333 12.598666 7.666666 12.598666 8V14C12.598666 14.333333 12.333333 14.598666 12 14.598666H11.197333C10.869333 14.598666 10.598666 14.333333 10.598666 14V8C10.598666 7.666666 10.869333 7.401333 11.197333 7.401333ZM13.598666 7.401333H14.401333C14.729333 7.401333 15 7.666666 15 8V14C15 14.333333 14.729333 14.598666 14.401333 14.598666H13.598666C13.270666 14.598666 13 14.333333 13 14V8C13 7.666666 13.270666 7.401333 13.598666 7.401333ZM8.286666 8.650666C8.369333 8.328 8.697333 8.136 9.016 8.218666L9.770666 8.412C10.088 8.494666 10.281333 8.817333 10.197333 9.14L8.917333 14.145333C8.833333 14.469333 8.505333 14.661333 8.182666 14.578666L7.432 14.385333C7.114666 14.306666 6.921333 13.978666 7 13.656Z"/></svg>
