<svg xmlns="http://www.w3.org/2000/svg" width="24" height="24" viewBox="0 0 24 24"><path d="M15.844 17.369333C14.5 18.390666 12.822666 19 11 19C6.584 19 3 15.416 3 11C3 6.584 6.584 3 11 3C15.416 3 19 6.584 19 11C19 12.874666 18.354666 14.604 17.270666 15.969333L21.697333 20.286666C22.093333 20.671999 22.098666 21.302666 21.713333 21.697333C21.327999 22.093333 20.697333 22.098666 20.302666 21.713333ZM17 11C17 7.688 14.312 5 11 5C7.688 5 5 7.688 5 11C5 14.312 7.688 17 11 17C14.312 17 17 14.312 17 11Z"/><path d="M20.354666 6.636L1.645333 15.364M6.636 1.645333L15.364 20.354666"/><path d="M6.978666 0.702667C6.729333 0.614667 6.453333 0.625333 6.213333 0.734667C5.713333 0.969333 5.494667 1.562667 5.729333 2.062667L9.672 10.516L1.218667 14.458666C0.718667 14.693333 0.505333 15.286666 0.734667 15.786666C0.969333 16.286666 1.562667 16.505333 2.062667 16.270666L10.516 12.328L14.458666 20.781333C14.693333 21.281333 15.286666 21.494666 15.786666 21.265333C16.286666 21.030666 16.505333 20.437333 16.270666 19.937333L12.328 11.484L20.781333 7.541333C21.281333 7.306666 21.494666 6.713333 21.265333 6.213333C21.030666 5.713333 20.437333 5.494667 19.937333 5.729333L11.484 9.672L7.541333 1.218667C7.432 0.978667 7.229333 0.792 6.978666 0.702667Z"/></svg>
