<svg xmlns="http://www.w3.org/2000/svg" width="24" height="24" viewBox="0 0 24 24"><path d="M8.478666 0.541333C7.849333 0.598667 7.338666 0.713333 6.598667 0.953333C5.073333 1.458667 3.573333 2.526667 2.573333 3.833333C2.494667 3.932 2.374667 4.082667 2.306667 4.161333C2.24 4.24 2.156 4.369333 2.109333 4.448C2.068 4.530667 2.026667 4.609333 2.005333 4.625333C1.958667 4.677333 1.781333 4.994667 1.636 5.306667C1.552 5.478667 1.464 5.666667 1.432 5.713333C1.406667 5.770667 1.385333 5.86 1.385333 5.901333C1.385333 5.948 1.36 5.989333 1.328 5.989333C1.297333 5.989333 1.270667 6.052 1.270667 6.125333C1.270667 6.202667 1.245333 6.281333 1.213333 6.302667C1.182667 6.317333 1.156 6.396 1.156 6.469333C1.156 6.546667 1.136 6.625333 1.098667 6.64C1.062667 6.656 1.041333 6.745333 1.041333 6.822666C1.041333 6.964 0.973333 7.224 0.864 7.494666C0.661333 8.010666 0.697333 10.302666 0.921333 11.182666C0.953333 11.306666 0.994667 11.484 1.016 11.584C1.046667 11.749333 1.12 11.937333 1.218667 12.130666C1.245333 12.188 1.270667 12.276 1.270667 12.317333C1.270667 12.364 1.292 12.448 1.322667 12.505333C1.349333 12.557333 1.464 12.797333 1.578667 13.030666C1.817333 13.536 1.964 13.792 2.026667 13.812C2.046667 13.822666 2.062667 13.869333 2.062667 13.917333C2.062667 13.958666 2.093333 13.994666 2.12 13.994666C2.156 13.994666 2.177333 14.030666 2.177333 14.073333C2.177333 14.12 2.193333 14.166666 2.224 14.177333C2.254667 14.193333 2.432 14.412 2.745333 14.817333C3 15.150666 3.864 15.958666 4.312 16.281333C5.510667 17.14 6.776 17.650666 8.202666 17.854666C8.833333 17.948 10.401333 17.901333 10.978666 17.770666C12.073333 17.526666 13.317333 16.994666 14.109333 16.426666C14.344 16.254666 14.568 16.093333 14.604 16.078666C14.630666 16.057333 14.838666 16.213333 15.057333 16.426666L15.458666 16.817333L15.478666 17.38C15.510666 18.052 15.552 18.213333 15.749333 18.510666C15.937333 18.786666 20.135999 22.978666 20.415999 23.166666C20.661333 23.327999 21.145333 23.478666 21.447999 23.478666C22.541333 23.473333 23.447999 22.442666 23.333333 21.338666C23.254666 20.587999 23.234666 20.551999 20.723999 18.062666C19.041333 16.385333 18.374666 15.76 18.193333 15.677333C17.994666 15.588 17.802666 15.557333 17.396 15.552C17.098666 15.546666 16.822666 15.530666 16.781333 15.530666C16.713333 15.526666 16.349333 15.188 16.068 14.86C15.958666 14.734666 15.958666 14.734666 16.130666 14.516C16.912 13.536 17.510666 12.24 17.802666 10.885333C17.969333 10.130666 17.978666 8.364 17.828 7.636C17.229333 4.792 15.578666 2.604 13.078666 1.354667C11.697333 0.666667 10.12 0.390667 8.478666 0.541333M10.864 1.588C12.030666 1.844 13.145333 2.385333 14.082666 3.125333C14.489333 3.448 15.26 4.234667 15.390666 4.464C15.448 4.552 15.510666 4.625333 15.530666 4.625333C15.557333 4.625333 15.578666 4.656 15.578666 4.682667C15.578666 4.718667 15.625333 4.797333 15.688 4.86C15.745333 4.921333 15.849333 5.093333 15.926666 5.24C16 5.385333 16.073333 5.516 16.088 5.536C16.150666 5.598667 16.484 6.297333 16.484 6.369333C16.484 6.406667 16.516 6.494667 16.541333 6.557333C16.578666 6.62 16.630666 6.718666 16.656 6.781333C16.693333 6.844 16.713333 6.958666 16.713333 7.030666C16.713333 7.114666 16.745333 7.193333 16.770666 7.208C16.802666 7.224 16.828 7.328 16.828 7.437333C16.828 7.546666 16.849333 7.64 16.88 7.656C16.958666 7.708 17.016 8.344 17.016 9.224C17.016 10.005333 16.969333 10.442666 16.833333 10.958666C16.802666 11.082666 16.76 11.26 16.745333 11.354666C16.718666 11.442666 16.682666 11.588 16.645333 11.666666C16.609333 11.745333 16.562666 11.864 16.536 11.932C16.510666 12.005333 16.464 12.12 16.437333 12.188C16.333333 12.458666 16.12 12.885333 16.078666 12.906666C16.046666 12.917333 16.030666 12.973333 16.030666 13.036C16.030666 13.093333 16.010666 13.14 15.973333 13.14C15.948 13.14 15.917333 13.182666 15.917333 13.229333C15.917333 13.276 15.896 13.312 15.864 13.312C15.833333 13.312 15.806666 13.354666 15.806666 13.401333C15.806666 13.442666 15.781333 13.484 15.749333 13.484C15.718666 13.484 15.693333 13.521333 15.693333 13.568C15.693333 13.614666 15.666666 13.656 15.636 13.656C15.604 13.656 15.578666 13.677333 15.578666 13.708C15.578666 13.765333 15.464 13.921333 15.265333 14.130666C15.010666 14.390666 15.010666 14.390666 16.062666 15.442666C16.958666 16.344 17.068 16.437333 17.24 16.437333C17.76 16.437333 17.697333 16.385333 20.035999 18.713333C21.254666 19.926666 22.286666 20.989333 22.322666 21.073333C22.426666 21.297333 22.401333 21.879999 22.286666 22.082666C22.015999 22.541333 21.385333 22.661333 20.911999 22.349333C20.551999 22.103999 16.510666 18.030666 16.432 17.833333C16.369333 17.666666 16.338666 17.265333 16.38 17.14C16.412 17.041333 14.469333 15.188 14.338666 15.188C14.281333 15.188 14.14 15.26 14.041333 15.36C13.932 15.448 13.828 15.526666 13.806666 15.526666C13.786666 15.526666 13.734666 15.562666 13.693333 15.593333C13.229333 16.026666 11.942666 16.584 10.838666 16.838666C10.036 17.016 8.702666 17.016 7.890666 16.833333C7.093333 16.656 6.448 16.416 5.754667 16.057333C3.729333 14.978666 2.245333 12.989333 1.745333 10.672C1.62 10.104 1.604 8.390666 1.718667 7.917333C1.754667 7.749333 1.828 7.453333 1.869333 7.265333C1.978667 6.792 2.250667 6.109333 2.557333 5.521333C3.265333 4.177333 4.557333 2.926667 5.969333 2.218667C6.510667 1.948 7.302666 1.682667 7.969333 1.552C8.650666 1.421333 10.202666 1.442667 10.864 1.588"/><path d="M8.677333 3.213333C7.390666 3.338667 6.150667 3.932 5.109333 4.932C4.869333 5.161333 4.677333 5.364 4.677333 5.385333C4.677333 5.412 4.64 5.458667 4.609333 5.5C4.38 5.729333 4.166667 6.078667 3.912 6.614667C3.822667 6.781333 3.734667 6.969333 3.702667 7.021333C3.677333 7.078666 3.656 7.177333 3.656 7.234666C3.656 7.297333 3.630667 7.36 3.604 7.374666C3.557333 7.406666 3.526667 7.546666 3.448 8.016C3.432 8.136 3.390667 8.281333 3.364 8.344C3.297333 8.494666 3.328 9.994666 3.416 10.390666C3.448 10.541333 3.494667 10.745333 3.510667 10.844C3.546667 11.016 3.62 11.208 3.718667 11.396C3.745333 11.396 3.765333 11.546666 3.765333 11.609333C3.765333 11.672 3.797333 11.724 3.822667 11.724C3.86 11.724 3.88 11.776 3.88 11.838666C3.88 11.901333 3.896 11.953333 3.926667 11.953333C3.948 11.953333 4 12.036 4.046667 12.130666C4.182667 12.448 4.557333 12.964 4.948 13.38C5.734667 14.208 6.754666 14.822666 7.854666 15.12C8.322666 15.24 8.521333 15.26 9.302666 15.26C10.057333 15.265333 10.292 15.245333 10.677333 15.14C13.036 14.526666 14.693333 12.802666 15.245333 10.390666C15.354666 9.890666 15.344 8.458666 15.218666 7.932C14.833333 6.317333 13.937333 5.010667 12.609333 4.150667C11.781333 3.604 10.994666 3.328 9.978666 3.208C9.416 3.145333 9.406666 3.145333 8.677333 3.213333M10.666666 3.942667C11.208 4.082667 12.036 4.478667 12.458666 4.797333C12.953333 5.166667 13.584 5.817333 13.802666 6.188C14.125333 6.729333 14.328 7.130666 14.328 7.213333C14.328 7.26 14.354666 7.297333 14.38 7.297333C14.406666 7.297333 14.442666 7.364 14.458666 7.448C14.478666 7.536 14.521333 7.708 14.557333 7.833333C14.724 8.416 14.822666 9.36 14.724 9.478666C14.636 9.593333 14.364 9.588 14.250666 9.473333C14.14 9.374666 14.12 9.276 14.073333 8.729333C13.937333 7.114666 12.817333 5.510667 11.364 4.86C10.838666 4.62 10.218666 4.453333 9.672 4.416C9.281333 4.385333 9.172 4.36 9.068 4.250667C8.906666 4.088 8.901333 4.036 9.052 3.88C9.166666 3.770667 9.218666 3.76 9.697333 3.792C9.978666 3.812 10.416 3.88 10.666666 3.942667"/></svg>
