<svg xmlns="http://www.w3.org/2000/svg" width="24" height="24" viewBox="0 0 24 24"><path d="M15.844 17.369333C14.5 18.390666 12.822666 19 11 19C6.584 19 3 15.416 3 11C3 6.584 6.584 3 11 3C15.416 3 19 6.584 19 11C19 12.874666 18.354666 14.604 17.270666 15.969333L21.697333 20.286666C22.093333 20.671999 22.098666 21.302666 21.713333 21.697333C21.327999 22.093333 20.697333 22.098666 20.302666 21.713333ZM17 11C17 7.688 14.312 5 11 5C7.688 5 5 7.688 5 11C5 14.312 7.688 17 11 17C14.312 17 17 14.312 17 11Z"/><path d="M13.473333 6.5C14.093333 6.5 14.598666 7.005333 14.598666 7.625333L14.598666 14.374666C14.598666 14.994666 14.093333 15.5 13.473333 15.5L7.510666 15.5C7.328 15.5 7.177333 15.349333 7.177333 15.161333C7.177333 14.973333 7.328 14.822666 7.510666 14.822666L13.473333 14.822666C13.724 14.822666 13.926666 14.625333 13.926666 14.374666L7.510666 14.374666C7.328 14.374666 7.177333 14.224 7.177333 14.036L7.177333 7.625333C7.177333 7.005333 7.677333 6.5 8.302666 6.5ZM12.802666 7.849333L9.197333 7.849333C8.953333 7.849333 8.749333 8.052 8.749333 8.302666L8.749333 8.749333C8.749333 9 8.953333 9.197333 9.197333 9.197333L12.802666 9.197333C13.046666 9.197333 13.250666 9 13.250666 8.749333L13.250666 8.302666C13.250666 8.052 13.046666 7.849333 12.802666 7.849333Z"/></svg>
