<svg xmlns="http://www.w3.org/2000/svg" width="24" height="24" viewBox="0 0 24 24"><path d="M9.849429 3.976882C8.8146 4.091863 7.792546 4.479392 6.966387 5.071331C6.553308 5.36943 6.45536 5.450342 6.101901 5.80806C5.791026 6.118935 5.744182 6.174296 5.569582 6.421292C5.51422 6.502204 5.433308 6.608668 5.390722 6.651254C5.348136 6.698098 5.314068 6.761976 5.314068 6.791786C5.314068 6.821596 5.301292 6.847148 5.28 6.847148C5.262965 6.847148 5.224638 6.911026 5.19057 6.983421C5.156501 7.060075 5.118175 7.132471 5.105399 7.145247C5.054296 7.187833 4.973383 7.358175 4.973383 7.422053C4.973383 7.456121 4.956349 7.485931 4.930799 7.485931C4.909505 7.485931 4.888213 7.515741 4.888213 7.549809C4.888213 7.583878 4.871179 7.652014 4.845627 7.698858C4.824335 7.745702 4.786007 7.822356 4.760456 7.8692C4.739163 7.916045 4.717871 7.992699 4.717871 8.035284C4.717871 8.082129 4.700836 8.133231 4.675285 8.146007C4.653992 8.158783 4.632699 8.218403 4.632699 8.273763C4.632699 8.329125 4.615665 8.388745 4.590114 8.401521C4.568821 8.414295 4.547528 8.503725 4.547528 8.593155C4.547528 8.682585 4.530494 8.772014 4.504942 8.78479C4.48365 8.797566 4.462357 8.886996 4.462357 8.976426C4.462357 9.065854 4.445323 9.155284 4.419772 9.16806C4.360152 9.202128 4.360152 10.96517 4.419772 10.999239C4.445323 11.012014 4.462357 11.101444 4.462357 11.190874C4.462357 11.280304 4.48365 11.369732 4.504942 11.382508C4.530494 11.395284 4.547528 11.484714 4.547528 11.574144C4.547528 11.663573 4.568821 11.753003 4.590114 11.765779C4.615665 11.778554 4.632699 11.829657 4.632699 11.876501C4.632699 11.919087 4.649733 11.991481 4.671026 12.034067C4.705095 12.102204 4.74768 12.200151 4.841369 12.434372C4.973383 12.775056 5.28 13.337185 5.407756 13.490493C5.450342 13.537337 5.48441 13.592698 5.48441 13.613992C5.48441 13.635284 5.497186 13.660836 5.518478 13.669352C5.535512 13.67361 5.63346 13.788592 5.739924 13.916348C6.595892 14.976728 7.805322 15.704941 9.253231 16.03285C9.730189 16.139314 11.19939 16.139314 11.638022 16.03285C12.459922 15.82844 13.179619 15.521823 13.797109 15.108744C14.056881 14.934144 14.142052 14.895816 14.201671 14.929884C14.244257 14.955436 14.444409 15.142812 14.64882 15.351481C14.934144 15.636805 15.023573 15.756044 15.023573 15.841215C15.023573 15.905094 15.006538 15.968972 14.980988 15.981748C14.925626 16.015816 14.925626 16.330949 14.980988 16.365017C15.006538 16.377793 15.023573 16.437413 15.023573 16.492774C15.023573 16.548135 15.044866 16.607755 15.066158 16.620531C15.09171 16.633307 15.108744 16.680151 15.108744 16.722736C15.108744 16.782356 17.991785 19.669656 18.65612 20.274371C19.103268 20.678934 19.848515 20.636348 20.304181 20.176424C20.683192 19.801671 20.793914 19.188439 20.568211 18.728515C20.504332 18.592242 19.967755 18.030112 18.698705 16.761063C16.952698 15.019314 16.914371 14.989504 16.671633 14.917109C16.484257 14.861748 16.347983 14.85323 16.126538 14.874524L15.82844 14.904334L15.457945 14.550873C15.253535 14.354979 15.070417 14.167603 15.053383 14.125017C15.023573 14.073915 15.070417 13.984485 15.236501 13.784334C15.82844 13.056121 16.271329 12.05536 16.450189 11.041824C16.569429 10.37749 16.518325 9.231938 16.339466 8.533535C16.079694 7.502965 15.504789 6.51498 14.704181 5.718631C13.848212 4.858403 12.770797 4.283498 11.608212 4.057794C11.25901 3.989657 10.185854 3.942813 9.849429 3.976882M11.31863 5.245931C12.034067 5.386464 12.740988 5.697338 13.341444 6.144487C13.694904 6.408516 14.427375 7.162281 14.427375 7.268745C14.427375 7.285779 14.465702 7.336881 14.512546 7.379467C14.55939 7.422053 14.597717 7.481672 14.597717 7.515741C14.597717 7.545551 14.610493 7.571102 14.631786 7.571102C14.64882 7.571102 14.70844 7.677566 14.76806 7.805322C14.82768 7.93308 14.8873 8.039543 14.908592 8.039543C14.925626 8.039543 14.938402 8.069353 14.938402 8.103421C14.938402 8.13749 14.955436 8.201368 14.976728 8.243953C14.998022 8.282281 15.036348 8.401521 15.066158 8.507984C15.095968 8.614448 15.134295 8.733688 15.155588 8.772014C15.176881 8.8146 15.193915 8.891254 15.193915 8.946616C15.193915 9.001976 15.210949 9.061596 15.232242 9.082889C15.253535 9.10844 15.283345 9.25749 15.296121 9.423573C15.308896 9.585399 15.330189 9.883497 15.347223 10.075132C15.364257 10.313612 15.359999 10.445626 15.32593 10.479695C15.300379 10.505246 15.279086 10.645779 15.279086 10.790569C15.279086 10.939619 15.262052 11.071634 15.236501 11.08441C15.215208 11.097185 15.193915 11.152546 15.193915 11.19939C15.193915 11.322888 15.078934 11.680607 14.976728 11.880759C14.955436 11.923345 14.938402 11.987223 14.938402 12.021291C14.938402 12.05536 14.925626 12.08517 14.904334 12.08517C14.8873 12.08517 14.848972 12.149048 14.814904 12.221444C14.742508 12.387528 14.278325 13.085931 14.154827 13.217945C14.103725 13.273307 14.014295 13.366995 13.954676 13.435132C13.895056 13.49901 13.771558 13.61825 13.67787 13.694904C13.58844 13.7673 13.456424 13.878022 13.384029 13.937641C13.119999 14.163345 12.46844 14.521063 12.076653 14.661596C11.5273 14.85749 11.058858 14.938402 10.483953 14.938402C8.231178 14.938402 6.297794 13.430873 5.684562 11.190874C5.326844 9.892014 5.66327 8.273763 6.527756 7.123953C6.834372 6.719392 7.315589 6.272243 7.762736 5.969885C8.312091 5.607908 8.827376 5.403498 9.679087 5.216121C9.892014 5.169277 11.020531 5.19057 11.31863 5.245931"/><path d="M10.368972 6.055057C10.202888 6.225399 10.330646 6.319087 10.773535 6.344638C11.2292 6.374448 11.667832 6.506464 12.14479 6.75346C12.536576 6.962129 13.056121 7.37095 13.264789 7.63498C13.328668 7.720152 13.426615 7.83939 13.477718 7.90327C13.55863 8.001216 13.860988 8.576121 13.958934 8.827376C14.039847 9.02327 14.095208 9.325627 14.163345 9.892014C14.184637 10.087908 14.210189 10.151786 14.269809 10.160304C14.478478 10.202888 14.521063 9.943117 14.406083 9.338402C14.244257 8.490949 13.895056 7.818098 13.320151 7.226159C12.621748 6.51498 11.744485 6.089125 10.799087 6.012471C10.492471 5.991179 10.428592 5.995437 10.368972 6.055057"/></svg>
