<svg xmlns="http://www.w3.org/2000/svg" width="24" height="24" viewBox="0 0 24 24"><path d="M16.104 17.161333C14.718666 18.312 12.937333 19 11 19C6.584 19 3 15.416 3 11C3 6.584 6.584 3 11 3C15.416 3 19 6.584 19 11C19 12.937333 18.312 14.718666 17.161333 16.104L21.781333 20.718666C22.073333 21.010666 22.073333 21.489333 21.781333 21.781333C21.489333 22.073333 21.010666 22.073333 20.718666 21.781333ZM17.5 11C17.5 7.412 14.588 4.5 11 4.5C7.412 4.5 4.5 7.412 4.5 11C4.5 14.588 7.412 17.5 11 17.5C14.588 17.5 17.5 14.588 17.5 11Z"/><path d="M20.614666 5.932C20.426666 5.864 20.218666 5.874667 20.041333 5.958667L11.364 10.005333L7.317333 1.328C7.14 0.953333 6.697333 0.792 6.317333 0.964C5.942667 1.14 5.781333 1.584 5.958667 1.958667L10.005333 10.636L1.328 14.682666C0.953333 14.86 0.792 15.302666 0.964 15.682666C1.14 16.057333 1.584 16.218666 1.958667 16.041333L10.636 11.994666L14.682666 20.671999C14.86 21.046666 15.302666 21.207999 15.682666 21.035999C16.057333 20.859999 16.218666 20.415999 16.041333 20.041333L11.994666 11.364L20.671999 7.317333C21.046666 7.14 21.207999 6.697333 21.035999 6.317333C20.953333 6.14 20.802666 6 20.614666 5.932Z"/></svg>
