<svg xmlns="http://www.w3.org/2000/svg" width="24" height="24" viewBox="0 0 24 24"><path d="M15.844 17.369333C14.5 18.390665 12.822666 19 11 19C6.584 19 3 15.416 3 11C3 6.584 6.584 3 11 3C15.416 3 19 6.584 19 11C19 12.874666 18.354666 14.604 17.270666 15.969333L21.697332 20.286667C22.093332 20.671999 22.098665 21.302666 21.713333 21.697332C21.327999 22.093332 20.697332 22.098665 20.302666 21.713333ZM17 11C17 7.688 14.312 5 11 5C7.688 5 5 7.688 5 11C5 14.312 7.688 17 11 17C14.312 17 17 14.312 17 11ZM8.6764 6.48608C8.7068 6.46936 8.79192 6.46936 8.82536 6.48608C8.83904 6.49368 8.87096 6.50888 8.89376 6.51952C8.95152 6.54688 8.9956 6.62288 8.9956 6.69584C8.9956 6.7308 9.00928 6.83264 9.02448 6.92232C9.0564 7.10776 9.16888 7.37832 9.26312 7.50448C9.35736 7.62912 12.1496 10.41376 12.15416 10.38792C12.1572 10.37424 12.1648 10.3636 12.1724 10.3636C12.17848 10.3636 12.1876 10.3408 12.19216 10.31344C12.22408 10.13712 12.22104 10.1432 12.27728 10.03224C12.294 9.99576 12.3092 9.9532 12.3092 9.93648C12.3092 9.92128 12.3168 9.9076 12.3244 9.9076C12.33352 9.9076 12.3396 9.89088 12.3396 9.87112C12.3396 9.84984 12.3472 9.82856 12.3548 9.824C12.36392 9.81944 12.37 9.8012 12.37 9.786C12.37 9.7708 12.37608 9.7556 12.38216 9.75256C12.38824 9.74952 12.41256 9.71 12.43536 9.6644C12.48856 9.55648 12.52352 9.49872 12.55696 9.46072C12.57064 9.444 12.5828 9.4212 12.5828 9.41056C12.5828 9.39992 12.5904 9.3908 12.598 9.3908C12.60712 9.3908 12.6132 9.38168 12.6132 9.36952C12.6132 9.35736 12.65728 9.30112 12.712 9.24336C12.86096 9.0868 12.85944 9.07312 12.6892 9.0032C12.33352 8.85576 12.12528 8.70984 11.9596 8.494C11.93072 8.456 11.90336 8.42256 11.8988 8.418C11.85624 8.38 11.762 8.21128 11.762 8.1748C11.762 8.1596 11.75592 8.14288 11.74832 8.13832C11.69968 8.10792 11.69968 7.51968 11.74832 7.468C11.75592 7.4604 11.762 7.44216 11.762 7.42696C11.762 7.41176 11.77416 7.37072 11.79088 7.33424C11.80608 7.29928 11.82736 7.24608 11.838 7.2172C11.87296 7.11688 11.8912 7.0804 11.90184 7.0804C11.90944 7.0804 11.914 7.07128 11.914 7.06064C11.914 7.05152 11.93072 7.02264 11.952 6.99832C11.97328 6.974 11.99 6.94968 11.99 6.9436C11.99 6.93752 12.00672 6.9132 12.028 6.88888C12.04928 6.86456 12.066 6.84024 12.066 6.83416C12.066 6.80376 12.32136 6.5332 12.35024 6.5332C12.36088 6.5332 12.37 6.5256 12.37 6.518C12.37 6.50888 12.41256 6.5028 12.46728 6.5028C12.54936 6.5028 12.56912 6.50888 12.60104 6.5408C12.64816 6.58792 12.674 6.67304 12.674 6.78552C12.674 6.9968 12.88376 7.25216 13.16344 7.38136C13.20296 7.3996 13.24704 7.4148 13.2592 7.4148C13.27136 7.4148 13.282 7.42088 13.282 7.43C13.282 7.4376 13.29416 7.4452 13.30936 7.4452C13.3352 7.4452 13.7532 7.6504 13.7684 7.67016C13.77296 7.67624 13.8064 7.70208 13.84288 7.7264C13.9584 7.80392 14.08456 7.93008 14.15752 8.03952C14.23352 8.15504 14.32016 8.38304 14.34448 8.5396C14.39768 8.86944 14.31712 9.24032 14.118 9.57472C13.96752 9.83008 13.86416 9.90912 13.72888 9.87568C13.68936 9.86504 13.63464 9.83768 13.60728 9.81184C13.55712 9.76928 13.5556 9.7632 13.5556 9.6568C13.5556 9.53368 13.5328 9.46224 13.472 9.40296C13.3808 9.31024 13.29568 9.34976 13.13912 9.558C12.9476 9.81184 12.80776 10.08544 12.74848 10.318C12.70744 10.4852 12.70896 10.78616 12.75152 10.93208C12.757864 10.952961 12.760898 10.96773 12.765562 10.981963C12.787722 11.049583 12.84667 11.105147 13.472 11.7468C13.93864 12.2256 13.97056 12.26208 14.05568 12.42928C14.27608 12.8564 14.32472 13.3048 14.2016 13.7684C14.12408 14.06176 13.92952 14.37488 13.71064 14.56488C13.58296 14.6728 13.54192 14.6956 13.4644 14.6956C13.30936 14.6956 13.2288 14.59528 13.21512 14.384C13.206 14.25024 13.1908 14.16512 13.17408 14.15448C13.16648 14.14992 13.1604 14.1332 13.1604 14.11648C13.1604 14.10128 13.15432 14.07544 13.14672 14.06024C13.13912 14.04656 13.12696 14.01768 13.11784 13.9964C13.0844 13.9128 13.02816 13.80032 12.95672 13.6772C12.8868 13.5556 12.78952 13.45528 11.33792 12.00672C10.48824 11.16008 9.75712 10.43656 9.71456 10.39856L9.634 10.33016L9.6036 10.36512C9.52456 10.45784 9.3452 10.7132 9.31024 10.78312C9.28896 10.82568 9.25552 10.9184 9.23728 10.98832C9.14152 11.35616 9.18256 11.724 9.34368 11.9596C9.44704 12.1116 9.70544 12.43536 9.96536 12.73936C10.11736 12.9172 10.2116 13.07984 10.28152 13.28504C10.33776 13.45376 10.33928 13.46136 10.33928 13.6772C10.3408 13.9432 10.32256 14.02072 10.20248 14.26544C10.128 14.422 10.1128 14.44176 10.03984 14.4904L9.95928 14.5436L8.90136 14.54056L7.84344 14.536L7.8024 14.498C7.75376 14.4524 7.7188 14.39008 7.7188 14.34752C7.7188 14.24872 7.84648 14.1332 7.95592 14.1332C7.9848 14.1332 8.01976 14.12712 8.03496 14.11952C8.15048 14.06176 8.20064 14.03288 8.21584 14.01768C8.24624 13.9888 8.2964 13.89152 8.2964 13.86264C8.2964 13.84744 8.304 13.82768 8.31312 13.81856C8.3344 13.79728 8.31312 13.56168 8.28272 13.4872C8.27056 13.45832 8.25536 13.4036 8.21736 13.2592C8.20824 13.22576 8.19608 13.18472 8.19 13.168C8.1824 13.15128 8.16872 13.11024 8.15808 13.0768C8.14896 13.04336 8.13528 13.00384 8.12768 12.99016C8.12008 12.97496 8.114 12.94304 8.114 12.91872C8.114 12.89288 8.10792 12.87008 8.10032 12.86552C8.08816 12.8564 8.07904 12.8184 8.05928 12.68464C8.0532 12.65424 8.04408 12.62384 8.03648 12.61928C8.02888 12.61472 8.0228 12.5828 8.0228 12.54632C8.0228 12.51136 8.0152 12.47488 8.0076 12.46728C7.98632 12.446 7.99696 11.81216 8.02128 11.7012C8.03192 11.6556 8.04256 11.5948 8.04864 11.56744C8.0532 11.54008 8.06232 11.51424 8.06992 11.50968C8.07752 11.50512 8.0836 11.48536 8.0836 11.4656C8.0836 11.44584 8.0912 11.42456 8.0988 11.42C8.10792 11.41544 8.114 11.3972 8.114 11.38048C8.114 11.3516 8.12008 11.33792 8.15656 11.26496C8.1672 11.2452 8.1748 11.21936 8.1748 11.2072C8.1748 11.19504 8.1824 11.1844 8.19 11.1844C8.19912 11.1844 8.2052 11.17376 8.2052 11.1616C8.2052 11.14032 8.23256 11.08104 8.2508 11.0628C8.25536 11.05824 8.27208 11.02784 8.29032 10.9944C8.33592 10.90472 8.36328 10.86064 8.38304 10.83936C8.39368 10.8272 8.41344 10.79832 8.42864 10.774C8.44232 10.74816 8.46056 10.7284 8.46664 10.7284C8.47272 10.7284 8.4788 10.71928 8.4788 10.70864C8.4788 10.698 8.49096 10.6752 8.50616 10.65848C8.52136 10.64328 8.54872 10.60528 8.57 10.5764C8.65512 10.45176 9.1096 10.0292 9.15672 10.0292C9.1704 10.0292 9.2388 9.94864 9.2388 9.9304C9.2388 9.9228 9.12024 9.79664 8.97584 9.6492C8.304 8.96824 8.17632 8.81624 8.10032 8.6156C8.08968 8.58672 8.06688 8.53352 8.05168 8.49856C8.03496 8.46208 8.0228 8.41952 8.0228 8.40432C8.0228 8.3876 8.01672 8.36936 8.0076 8.3648C8 8.36024 7.9924 8.32832 7.9924 8.2964C7.9924 8.26448 7.98632 8.23408 7.97872 8.22952C7.96656 8.22192 7.94376 8.01672 7.94528 7.9316C7.9468 7.89816 7.95896 7.78112 7.98632 7.5364C7.99088 7.4908 8.00152 7.44672 8.00912 7.4376C8.01672 7.43 8.0228 7.41328 8.0228 7.3996C8.0228 7.38592 8.03648 7.3464 8.0532 7.31144C8.06992 7.278 8.0836 7.23848 8.0836 7.2248C8.0836 7.21264 8.0912 7.202 8.0988 7.202C8.10792 7.202 8.114 7.18832 8.114 7.1716C8.114 7.15488 8.1216 7.1412 8.1292 7.1412C8.13832 7.1412 8.1444 7.12752 8.1444 7.1108C8.1444 7.09408 8.14896 7.0804 8.15656 7.0804C8.16264 7.0804 8.17632 7.0576 8.18848 7.03024C8.20976 6.98312 8.29184 6.8524 8.3116 6.8372C8.31616 6.83264 8.33744 6.80528 8.3572 6.7764C8.44384 6.65328 8.54416 6.54992 8.60952 6.51952C8.63384 6.50888 8.66424 6.49368 8.6764 6.48608Z"/></svg>
