<svg xmlns="http://www.w3.org/2000/svg" width="24" height="24" viewBox="0 0 24 24"><path d="M15.844 17.369333C14.5 18.390665 12.822666 19 11 19C6.584 19 3 15.416 3 11C3 6.584 6.584 3 11 3C15.416 3 19 6.584 19 11C19 12.874666 18.354666 14.604 17.270666 15.969333L21.697332 20.286667C22.093332 20.671999 22.098665 21.302666 21.713333 21.697332C21.327999 22.093332 20.697332 22.098665 20.302666 21.713333ZM17 11C17 7.688 14.312 5 11 5C7.688 5 5 7.688 5 11C5 13.36815 6.374254 15.417276 8.368249 16.392868C7.926157 16.137236 7.554952 15.800638 7.257 15.3825C7.091063 15.1495 7.001925 14.870549 7.002 14.5845V14.1245C7.002276 13.503571 7.50557 13.000276 8.1265 13H13.8775C14.49843 13.000552 15.0015 13.50407 15.0015 14.125V14.584C15.001492 14.8705 14.91199 15.149841 14.7455 15.383C14.448677 15.798474 14.079754 16.133369 13.64105 16.388308C15.630017 15.410901 17 13.364467 17 11ZM8.49415 8.5924 8.5036 8.4622 8.5102 8.43685 8.53305 8.3899 8.5672 8.35045 8.61045 8.32115 8.63455 8.311 8.6857 8.3005 8.71185 8.30035 8.76315 8.3102 8.78735 8.3201 8.794285 8.324673C8.834884 8.248801 8.879283 8.17527 8.927228 8.104332C8.061646 7.967752 7.5 7.747855 7.5 7.5C7.5 7.219 8.221904 6.973935 9.29017 6.845478C9.458111 5.997062 10.135673 5.25 11 5.25C11.864327 5.25 12.541889 5.997062 12.709832 6.845479C13.778096 6.973935 14.5 7.219 14.5 7.5C14.5 7.747855 13.938354 7.967752 13.072772 8.104332C13.120831 8.175438 13.165327 8.24915 13.206004 8.325212L13.23685 8.3102L13.28815 8.30035L13.3143 8.3005L13.36545 8.311L13.41215 8.3344L13.4328 8.35045L13.45115 8.36905L13.4799 8.41265L13.4964 8.4622L13.50585 8.5924L13.55615 8.88575L13.56605 9.0028L13.55875 9.13505L13.55265 9.1716L13.52415 9.28005L13.51215 9.3133L13.495373 9.349133C13.498443 9.399862 13.5 9.450999 13.5 9.5025C13.5 9.752751 13.463231 9.994413 13.3948 10.22238L13.4571 10.33515L13.5045 10.44265L13.54375 10.5828L13.5522 10.6991L13.5496 10.74635L13.53185 10.84755L13.51915 10.8907L13.46485 11.01695L13.30325 11.309L13.2705 11.38235L13.2528 11.44335L13.24835 11.4958L13.25655 11.55015L13.2868 11.62575L13.4471 11.9155L13.5054 12.0456L13.53405 12.13865L13.5418 12.1763L13.5531 12.29505L13.5344 12.4413L13.47635 12.59435L13.4459 12.6368L13.40555 12.6699L13.35795 12.6914L13.30645 12.6999L13.2545 12.69475L13.20565 12.67635L13.18345 12.6625L13.14535 12.6268L13.1178 12.58245L13.10265 12.5325L13.10095 12.4803L13.11285 12.42945L13.1449 12.3444L13.15175 12.29085L13.1461 12.23795L13.127 12.17585L13.0928 12.10125L12.9867 11.91185L12.9197 11.78495L12.8693 11.6555L12.84715 11.5089L12.8586 11.37L12.89965 11.23185L12.9479 11.1253L13.069139 10.90603C12.619375 11.5678 11.860453 12.0025 11 12.0025C10.139547 12.0025 9.380625 11.5678 8.930861 10.90603L9.0521 11.1253L9.10975 11.25755L9.1414 11.37L9.15225 11.48535L9.1507 11.53235L9.1307 11.6555L9.0803 11.78495L9.0133 11.91185L8.9072 12.10125L8.873 12.17585L8.8539 12.23795L8.84825 12.29085L8.8551 12.3444L8.88715 12.42945L8.89905 12.4803L8.8999 12.50645L8.8914 12.55795L8.8699 12.60555L8.8368 12.6459L8.81655 12.6625L8.77055 12.68715L8.7197 12.69905L8.6675 12.69735L8.61755 12.6822L8.5732 12.65465L8.5375 12.61655L8.51285 12.57055L8.4656 12.4413L8.4469 12.29505L8.4582 12.1763L8.46595 12.13865L8.5039 12.0211L8.5529 11.9155L8.7132 11.62575L8.74345 11.55015L8.75165 11.4958L8.7472 11.44335L8.7295 11.38235L8.69675 11.309L8.53515 11.01695L8.48085 10.8907L8.46815 10.84755L8.4477 10.7228L8.45625 10.5828L8.4955 10.44265L8.5429 10.33515L8.605201 10.22238C8.53677 9.994413 8.5 9.752751 8.5 9.5025C8.5 9.450999 8.501557 9.399862 8.504627 9.349133L8.48785 9.3133L8.47585 9.28005L8.44735 9.1716L8.44125 9.13505L8.43395 9.0028L8.44385 8.88575Z"/></svg>
