<svg xmlns="http://www.w3.org/2000/svg" width="24" height="24" viewBox="0 0 24 24"><path d="M16.104 17.161333C14.718666 18.312 12.937333 19 11 19C6.584 19 3 15.416 3 11C3 6.584 6.584 3 11 3C15.416 3 19 6.584 19 11C19 12.937333 18.312 14.718666 17.161333 16.104L21.781333 20.718666C22.073333 21.010666 22.073333 21.489333 21.781333 21.781333C21.489333 22.073333 21.010666 22.073333 20.718666 21.781333ZM17.5 11C17.5 7.412 14.588 4.5 11 4.5C7.412 4.5 4.5 7.412 4.5 11C4.5 14.588 7.412 17.5 11 17.5C14.588 17.5 17.5 14.588 17.5 11Z"/><path d="M20.353803 6.635071L1.646316 15.365163M6.635014 1.646374L15.365105 20.35386"/></svg>
