<svg xmlns="http://www.w3.org/2000/svg" width="24" height="24" viewBox="0 0 24 24"><path d="M16.104 17.161333C15.772547 17.43664 15.418425 17.685463 15.044921 17.904713L16.041332 20.041332C16.218666 20.415998 16.057333 20.859999 15.682666 21.035999C15.302666 21.207998 14.86 21.046665 14.682666 20.671999L13.687488 18.538021C12.84692 18.837376 11.941897 19 11 19C8.059046 19 5.487105 17.410406 4.097056 15.044096L1.958667 16.041332C1.584 16.218666 1.14 16.057333 0.964 15.682666C0.792 15.302666 0.953333 14.86 1.328 14.682666L3.463003 13.687009C3.163252 12.847073 3 11.942486 3 11C3 8.059047 4.589594 5.487106 6.955903 4.097057L5.958667 1.958667C5.781333 1.584 5.942667 1.14 6.317333 0.964C6.697333 0.792 7.14 0.953333 7.317333 1.328L8.31299 3.463003C9.152926 3.163252 10.057514 3 11 3C13.940953 3 16.512894 4.589593 17.902943 6.955903L20.041332 5.958667C20.218666 5.874667 20.426666 5.864 20.614666 5.932C20.802666 6 20.953333 6.14 21.035999 6.317333C21.207998 6.697333 21.046665 7.14 20.671999 7.317333L18.536997 8.31299C18.836748 9.152926 19 10.057514 19 11C19 12.937333 18.312 14.718666 17.161333 16.104L21.781334 20.718666C22.073334 21.010666 22.073334 21.489332 21.781334 21.781334C21.489332 22.073334 21.010666 22.073334 20.718666 21.781334ZM5.46407 14.40659C6.609025 16.262342 8.660856 17.5 11 17.5C11.715996 17.5 12.405071 17.384041 13.04946 17.169889L10.636 11.994666L5.46407 14.40659ZM17.5 11C17.5 10.284004 17.384041 9.594929 17.169889 8.95054L11.994666 11.364L14.40659 16.535929C16.262342 15.390974 17.5 13.339145 17.5 11ZM7.593409 5.464071C5.737657 6.609026 4.5 8.660856 4.5 11C4.5 11.715995 4.61596 12.405071 4.830111 13.049459L10.005333 10.636L7.593409 5.464071ZM16.535929 7.593409C15.390974 5.737657 13.339144 4.5 11 4.5C10.284004 4.5 9.594929 4.61596 8.95054 4.830111L11.364 10.005333L16.535929 7.593409Z"/></svg>
