<svg xmlns="http://www.w3.org/2000/svg" width="24" height="24" viewBox="0 0 24 24"><path d="M9.515625 1.054688C9.541407 1.042969 9.6 1.038281 9.644531 1.045313C9.73125 1.059375 10.239843 1.0875 11.027344 1.125C11.292188 1.136719 11.617969 1.157812 11.753906 1.169531C12.051562 1.197656 12.548437 1.230469 13.160156 1.265625C14.289844 1.33125 14.299219 1.33125 15.164062 1.40625C15.307032 1.417969 15.644531 1.439062 15.914062 1.453125C16.185938 1.464844 16.565624 1.488281 16.757812 1.502344C16.952343 1.514063 17.226562 1.532812 17.369532 1.542187C17.596874 1.55625 17.641407 1.565625 17.723438 1.621875C17.896875 1.736719 17.946095 1.964062 17.838282 2.175C17.807812 2.235938 17.639063 2.524219 17.463282 2.817188C17.289845 3.1125 17.135157 3.372656 17.11875 3.400781C17.1 3.438281 17.1 3.539062 17.121094 3.80625C17.146875 4.115625 17.146875 4.204688 17.111719 4.507031C17.085938 4.727344 17.043751 4.952344 16.992188 5.128125C16.858593 5.596875 16.717968 5.852344 16.457813 6.100781L16.289062 6.260156V8.730469L16.36875 8.840625C16.44375 8.94375 16.460155 8.953125 16.544531 8.953125C16.675781 8.955469 16.713282 8.990625 16.78125 9.185156C16.851562 9.386719 16.851562 9.398438 16.790625 9.588282C16.720312 9.799219 16.713282 9.803906 16.565624 9.785156L16.441406 9.771093V14.786718C16.441406 19.035938 16.446095 19.804688 16.474218 19.804688C16.490625 19.804688 16.577343 19.727345 16.666407 19.633595C16.898438 19.387501 16.945312 19.359375 17.128124 19.359375C17.301563 19.359375 17.392969 19.396875 17.49375 19.511719C17.63203 19.671093 17.643749 19.903126 17.52422 20.083593C17.486719 20.137501 17.107031 20.561718 16.675781 21.028126C15.035972 22.802412 14.881227 22.978191 14.713105 22.992083C14.694639 22.993608 14.676011 22.993181 14.655237 22.992704C14.644289 22.992453 14.632744 22.992188 14.620313 22.992188C14.451563 22.992188 14.327344 22.926563 14.226562 22.785938C14.163281 22.69453 14.15625 22.666407 14.15625 22.516407C14.158594 22.387501 14.170313 22.328907 14.207812 22.270313C14.247656 22.204687 14.521875 21.895313 14.71875 21.69375C14.744532 21.665625 14.903906 21.494532 15.075 21.311718L15.384375 20.978907L15.391406 19.214062C15.396093 18.24375 15.389063 17.428125 15.379687 17.4C15.360937 17.357813 15.328125 17.346094 15.157031 17.325001C15.044531 17.310938 14.775 17.273438 14.554688 17.240625C14.217188 17.191406 12.8625 16.999218 10.628906 16.685156C10.352344 16.645313 9.907031 16.582031 9.642187 16.544531C9.375 16.50703 9.15 16.476562 9.142969 16.476562C9.135938 16.476562 9.128906 17.003906 9.128906 17.650782V18.822657L9.182813 18.808594C9.210938 18.799219 9.323438 18.700781 9.433594 18.588282C9.54375 18.47578 9.658594 18.372656 9.691406 18.358593C9.874219 18.283594 10.005468 18.262501 10.03125 18.304688C10.038281 18.316406 10.06875 18.328125 10.094531 18.328125C10.169531 18.328125 10.300781 18.440624 10.35 18.548437C10.40625 18.674999 10.40625 18.829687 10.347656 18.949219C10.314844 19.017187 9.911718 19.429688 9.051562 20.275782C7.66875 21.639843 7.549219 21.754688 7.467187 21.796875C7.375781 21.84375 7.139062 21.83672 7.03125 21.780468C6.846094 21.684376 6.775781 21.550781 6.789844 21.323437C6.803906 21.126562 6.832031 21.089062 7.242188 20.690624C7.396875 20.540625 7.645312 20.299219 7.792969 20.153906L8.0625 19.891407L8.074219 14.132812L8.085938 8.374219L8.153906 8.278125L8.219531 8.182032V6.996094C8.219531 6.342187 8.214844 5.805469 8.210156 5.800781C8.203125 5.79375 7.48125 5.721094 6.914062 5.669531C6.358594 5.622656 6.250781 5.589844 6.203906 5.465625C6.171094 5.378906 6.147656 5.08125 6.164062 4.982812C6.173438 4.938281 6.199219 4.882031 6.222656 4.858594C6.297656 4.78125 6.363281 4.734375 6.398438 4.734375C6.414844 4.734375 6.438281 4.722656 6.445312 4.710938C6.452344 4.696875 6.494531 4.6875 6.536719 4.6875C6.628125 4.6875 6.665625 4.654687 6.832031 4.417969C6.902344 4.317187 6.99375 4.190625 7.03125 4.139062C7.096875 4.052344 7.6875 3.225 7.849219 2.992969C8.479688 2.095313 9.023438 1.347656 9.117188 1.253906C9.255468 1.115625 9.316406 1.078125 9.403125 1.075781C9.440625 1.075781 9.489843 1.066406 9.515625 1.054688ZM9.84375 5.941406C9.496875 5.910937 9.161718 5.882812 9.100781 5.882812H8.990625L8.988281 7.021875L8.985937 8.158594L9.05625 8.228907C9.117188 8.289844 9.140625 8.296875 9.264844 8.296875C9.367969 8.296875 9.4125 8.308594 9.438281 8.336719C9.485156 8.390625 9.574219 8.653125 9.574219 8.7375C9.571875 8.821875 9.4875 9.075 9.45 9.098437C9.435938 9.107813 9.35625 9.117188 9.276563 9.117188H9.128906V15.492188L9.182813 15.501562C9.210938 15.508594 9.28125 15.520312 9.339844 15.527344C9.398438 15.536718 9.508594 15.553125 9.585938 15.564844C9.663281 15.578906 9.801562 15.597656 9.890625 15.609375C10.057032 15.632812 10.253906 15.660937 10.546875 15.703125C10.638281 15.714844 10.790625 15.735937 10.886719 15.75C11.102344 15.780469 11.336719 15.813281 11.554688 15.84375C11.646093 15.857813 11.798437 15.878906 11.894531 15.890625C11.990625 15.902344 12.138281 15.923437 12.222656 15.935156C12.440625 15.970312 12.675 16.003124 12.878906 16.03125C13.18125 16.071095 13.401563 16.101562 13.558594 16.125C13.642969 16.139063 13.790625 16.160156 13.886719 16.171875C13.982813 16.185938 14.130468 16.204687 14.214844 16.21875C14.299219 16.232813 14.463282 16.253906 14.578125 16.265625C14.695312 16.277344 14.857031 16.298437 14.941406 16.3125C15.025782 16.326563 15.159375 16.342968 15.241406 16.35C15.372656 16.364063 15.386719 16.361719 15.386719 16.321875C15.386719 16.296093 15.389063 14.625 15.39375 12.604688L15.398438 8.934375L15.457031 8.854688L15.515625 8.777344L15.527344 7.488281C15.534375 6.778125 15.532031 6.189844 15.522656 6.175781C15.510938 6.164062 15.503906 6.133594 15.503906 6.107812C15.503906 6.075 15.485156 6.091406 15.435938 6.166406C15.35625 6.295312 15.269531 6.365625 15.152344 6.400781C15.063281 6.428906 14.861719 6.417188 14.203125 6.351562C14.074219 6.3375 13.741406 6.307031 13.464844 6.28125C12.911718 6.229688 12.738281 6.213281 11.988281 6.140625C11.711719 6.1125 11.374219 6.082031 11.238281 6.070312C10.884375 6.0375 10.560938 6.009375 9.84375 5.941406ZM10.464844 1.347656 10.435721 1.345679C9.566518 1.28667 9.536103 1.284606 9.480469 1.305469C9.353907 1.354687 9.307032 1.415625 7.875 3.433594C7.619531 3.794531 7.361719 4.157813 7.303125 4.242188C7.244531 4.326562 7.150781 4.455469 7.094531 4.528125L6.99375 4.664062L7.052344 4.727344C7.103906 4.783594 7.117969 4.785937 7.171875 4.7625C7.244531 4.729688 7.354688 4.725 7.413281 4.755469C7.434375 4.767188 7.689844 4.795312 7.980469 4.816406C8.271093 4.839844 8.625 4.865625 8.765625 4.877344C8.908594 4.886719 9.091406 4.907813 9.175781 4.921875C9.360937 4.954688 9.682032 4.9875 10.042969 5.013281C10.685156 5.0625 11.001562 5.090625 11.144531 5.111719C11.228907 5.125781 11.439844 5.146875 11.613281 5.15625C11.786718 5.167969 12.039844 5.189063 12.175781 5.203125C12.311719 5.217187 12.569531 5.238281 12.75 5.25C12.930469 5.261719 13.153125 5.282813 13.242188 5.296875C13.333593 5.310937 13.516406 5.332031 13.652344 5.346094C13.788281 5.357812 13.999219 5.378906 14.121094 5.390625C14.242969 5.402344 14.470312 5.41875 14.625 5.428125C14.784375 5.4375 14.934375 5.45625 14.969531 5.475C15.072657 5.528906 15.199219 5.676562 15.227344 5.782031C15.24375 5.838281 15.2625 5.882812 15.269531 5.882812C15.276563 5.882812 15.307032 5.845313 15.339844 5.798438C15.372656 5.753906 15.43125 5.671875 15.471094 5.617969C15.510938 5.564063 15.574219 5.463281 15.611719 5.392969C15.649219 5.325 15.69375 5.240625 15.7125 5.205469C15.754687 5.130469 16.099218 4.560937 16.270313 4.289062C16.338282 4.178906 16.408594 4.057031 16.427343 4.019531C16.460155 3.951562 16.521093 3.850781 16.821095 3.379688C16.947657 3.180469 16.985157 3.114844 17.167969 2.789062C17.264063 2.613281 17.273438 2.599219 17.44453 2.341406C17.542969 2.19375 17.596874 2.08125 17.606251 2.022656C17.620312 1.921875 17.585155 1.828125 17.533594 1.828125C17.517187 1.828125 17.38125 2.032031 17.233593 2.278125C16.110937 4.155469 15.309375 5.472656 15.285937 5.472656C15.250781 5.472656 15.084375 5.336719 15.082031 5.30625C15.082031 5.294531 15.128906 5.214844 15.1875 5.130469C15.246094 5.048438 15.302343 4.957031 15.316406 4.926562C15.328125 4.896094 15.379687 4.811719 15.428906 4.739062C15.480469 4.666406 15.571875 4.509375 15.6375 4.394531C15.853125 4.007812 16.099218 3.602344 16.185938 3.489844C16.223438 3.442969 16.263281 3.379688 16.277344 3.349219C16.289062 3.31875 16.335938 3.229687 16.382812 3.152344C16.427343 3.075 16.483593 2.974219 16.509375 2.929688C16.551563 2.852344 16.63125 2.725781 16.828125 2.425781C16.86797 2.367188 16.921875 2.278125 16.947657 2.226562C16.97578 2.177344 17.022655 2.095313 17.053125 2.046094C17.102345 1.964062 17.172657 1.8 17.160938 1.790625C17.158594 1.788281 16.966406 1.776562 16.734375 1.760156C15.808594 1.701563 12.016406 1.450781 10.464844 1.347656ZM9.550781 1.521094C9.550781 1.488281 10.204687 1.509375 10.40625 1.546875C10.483594 1.563281 10.790625 1.584375 11.085938 1.59375C11.383594 1.605469 11.767969 1.626562 11.941406 1.640625C12.114843 1.652344 12.447657 1.673437 12.679688 1.6875C12.911718 1.699219 13.164844 1.720312 13.242188 1.734375C13.319531 1.748438 13.640625 1.769531 13.957031 1.78125C14.273438 1.792969 14.669531 1.814062 14.835938 1.828125C15.004687 1.842188 15.292969 1.863281 15.480469 1.875C15.667969 1.889063 15.895312 1.910156 15.984375 1.924219C16.075781 1.935938 16.293751 1.954687 16.471874 1.959375C16.717968 1.96875 16.797657 1.980469 16.809376 2.003906C16.81875 2.032031 16.380468 2.770313 15.159375 4.78125C14.892187 5.219531 14.878125 5.238281 14.8125 5.233594C14.749219 5.226562 13.14375 5.08125 11.917969 4.96875C11.641406 4.942969 11.292188 4.9125 11.144531 4.898438C10.996875 4.886719 10.647656 4.853906 10.371094 4.828125C9.876562 4.78125 8.730469 4.678125 7.898438 4.605469C7.401563 4.560937 7.371094 4.55625 7.371094 4.514062C7.371094 4.497656 7.408594 4.441406 7.455469 4.392188C7.502344 4.340625 7.553906 4.272656 7.572656 4.2375C7.605469 4.174219 7.746094 3.967969 7.9875 3.632812C8.046094 3.548438 8.125781 3.438281 8.160937 3.386719C8.196094 3.335156 8.310938 3.178125 8.411718 3.035156C8.514844 2.894531 8.634375 2.723438 8.678906 2.660156C8.725781 2.594531 8.79375 2.498437 8.833593 2.444531C8.873438 2.390625 8.995313 2.219531 9.105469 2.0625C9.386719 1.659375 9.475781 1.546875 9.515625 1.546875C9.534375 1.546875 9.550781 1.535156 9.550781 1.521094ZM7.190625 4.992188 7.183399 4.9915C6.659389 4.94167 6.501558 4.926661 6.454041 4.991945C6.43356 5.020083 6.433574 5.063138 6.433593 5.124752L6.433594 5.130469C6.433594 5.23125 6.445312 5.282813 6.478125 5.325C6.522656 5.378906 6.541406 5.383594 6.836719 5.4C7.167188 5.41875 7.441406 5.444531 7.710938 5.484375C7.802344 5.496094 8.04375 5.517188 8.25 5.53125C8.782031 5.561719 9.201563 5.596875 9.433594 5.627344C9.54375 5.641406 9.721875 5.660156 9.832031 5.671875C9.942187 5.683594 10.132031 5.702344 10.253906 5.716406C10.375781 5.730469 10.65 5.753906 10.863281 5.767969C11.076563 5.779687 11.334375 5.803125 11.4375 5.814844C11.540625 5.826562 11.725781 5.847656 11.847656 5.859375C11.969531 5.871094 12.180469 5.889844 12.316406 5.903906C12.452344 5.917969 12.721875 5.939063 12.914062 5.953125C13.249219 5.976562 13.410937 5.992969 13.78125 6.046875C14.069531 6.091406 14.336719 6.119531 14.578125 6.13125C14.707031 6.140625 14.821875 6.154687 14.835938 6.166406C14.875781 6.203906 14.939062 6.1875 14.978907 6.128906C15.014063 6.075 15.014063 6.060937 14.974218 5.936719C14.908594 5.735156 14.859375 5.709375 14.446875 5.674219C14.261719 5.660156 14.020312 5.636719 13.910156 5.625C13.8 5.610938 13.415625 5.575781 13.054688 5.542969C12.69375 5.510156 12.135938 5.45625 11.8125 5.425781C11.491406 5.395312 10.821094 5.332031 10.324219 5.285156C9.321094 5.19375 8.596875 5.128125 8.050781 5.074219C7.851562 5.055469 7.4625 5.017969 7.190625 4.992188ZM16.863281 4.328906C16.879688 4.178906 16.877344 4.0875 16.856251 3.99375L16.825781 3.864844L16.769531 3.965625C16.739063 4.021875 16.619532 4.223437 16.504688 4.415625L16.293751 4.764844L16.296093 5.289844C16.296093 5.580469 16.303125 5.821875 16.310156 5.828906C16.314844 5.835938 16.340626 5.833594 16.366405 5.826562C16.429688 5.805469 16.703907 5.245313 16.736719 5.069531C16.746094 5.020312 16.760157 4.96875 16.769531 4.957031C16.78828 4.933594 16.825781 4.682813 16.863281 4.328906Z"/></svg>
