<svg width="24" height="24" xmlns="http://www.w3.org/2000/svg" viewBox="0 0 24 24"><path fill="currentColor" d="M 9.515625,1.0546875 c -0.02578125,0.01171875 -0.075,0.02109375 -0.1125,0.02109375 c -0.08671875,0.00234375 -0.14765625,0.03984375 -0.2859375,0.178125 c -0.09375,0.09375 -0.6375,0.84140625 -1.26796875,1.7390625 c -0.16171875,0.23203125 -0.75234375,1.059375 -0.81796875,1.14609375 c -0.0375,0.0515625 -0.12890625,0.178125 -0.19921875,0.27890625 c -0.16640625,0.23671875 -0.20390625,0.26953125 -0.2953125,0.26953125 c -0.0421875,0 -0.084375,0.009375 -0.09140625,0.0234375 c -0.00703125,0.01171875 -0.03046875,0.0234375 -0.046875,0.0234375 c -0.03515625,0 -0.10078125,0.046875 -0.17578125,0.12421875 c -0.0234375,0.0234375 -0.04921875,0.0796875 -0.05859375,0.12421875 c -0.01640625,0.0984375 0.00703125,0.39609375 0.03984375,0.4828125 c 0.046875,0.12421875 0.1546875,0.15703125 0.71015625,0.20390625 c 0.5671875,0.0515625 1.2890625,0.12421875 1.29609375,0.13125 c 0.0046875,0.0046875 0.009375,0.54140625 0.009375,1.1953125 l 0,1.1859375 l -0.065625,0.09609375 l -0.06796875,0.09609375 L 8.07421875,14.1328125 l -0.01171875,5.75859375 l -0.26953125,0.2625 c -0.14765625,0.1453125 -0.39609375,0.38671875 -0.55078125,0.53671875 c -0.41015625,0.3984375 -0.43828125,0.4359375 -0.45234375,0.6328125 c -0.0140625,0.22734375 0.05625,0.3609375 0.24140625,0.45703125 c 0.1078125,0.05625 0.34453125,0.06328125 0.4359375,0.01640625 c 0.08203125,-0.0421875 0.2015625,-0.15703125 1.584375,-1.52109375 c 0.86015625,-0.84609375 1.26328125,-1.25859375 1.29609375,-1.3265625 c 0.05859375,-0.11953125 0.05859375,-0.27421875 0.00234375,-0.40078125 c -0.04921875,-0.1078125 -0.18046875,-0.2203125 -0.25546875,-0.2203125 c -0.02578125,0 -0.05625,-0.01171875 -0.06328125,-0.0234375 c -0.02578125,-0.0421875 -0.15703125,-0.02109375 -0.33984375,0.05390625 c -0.0328125,0.0140625 -0.14765625,0.1171875 -0.2578125,0.2296875 s -0.22265625,0.2109375 -0.25078125,0.2203125 l -0.05390625,0.0140625 l 0,-1.171875 c 0,-0.646875 0.00703125,-1.17421875 0.0140625,-1.17421875 s 0.23203125,0.03046875 0.49921875,0.06796875 c 0.26484375,0.0375 0.71015625,0.10078125 0.98671875,0.140625 c 2.23359375,0.3140625 3.58828125,0.50625 3.92578125,0.55546875 c 0.2203125,0.0328125 0.48984375,0.0703125 0.60234375,0.084375 c 0.17109375,0.02109375 0.20390625,0.0328125 0.22265625,0.075 c 0.009375,0.028125 0.01640625,0.84375 0.01171875,1.8140625 l -0.00703125,1.76484375 l -0.309375,0.3328125 c -0.17109375,0.1828125 -0.33046875,0.35390625 -0.35625,0.38203125 c -0.196875,0.2015625 -0.47109375,0.5109375 -0.5109375,0.5765625 c -0.0375,0.05859375 -0.04921875,0.1171875 -0.0515625,0.24609375 c 0,0.15 0.00703125,0.178125 0.0703125,0.26953125 c 0.10078125,0.140625 0.225,0.20625 0.39375,0.20625 c 0.25078125,0 0.140625,0.1078125 2.05546875,-1.9640625 c 0.43125,-0.46640625 0.8109375,-0.890625 0.8484375,-0.94453125 c 0.11953125,-0.18046875 0.1078125,-0.4125 -0.03046875,-0.571875 c -0.10078125,-0.11484375 -0.1921875,-0.15234375 -0.365625,-0.15234375 c -0.1828125,0 -0.2296875,0.028125 -0.46171875,0.27421875 c -0.0890625,0.09375 -0.17578125,0.17109375 -0.1921875,0.17109375 c -0.028125,0 -0.0328125,-0.76875 -0.0328125,-5.01796875 l 0,-5.015625 l 0.12421875,0.0140625 c 0.14765625,0.01875 0.1546875,0.0140625 0.225,-0.196875 c 0.0609375,-0.18984375 0.0609375,-0.2015625 -0.009375,-0.403125 c -0.06796875,-0.19453125 -0.10546875,-0.2296875 -0.23671875,-0.23203125 c -0.084375,0 -0.10078125,-0.009375 -0.17578125,-0.1125 l -0.0796875,-0.11015625 L 16.2890625,6.26015625 l 0.16875,-0.159375 c 0.26015625,-0.2484375 0.40078125,-0.50390625 0.534375,-0.97265625 c 0.0515625,-0.17578125 0.09375,-0.40078125 0.11953125,-0.62109375 c 0.03515625,-0.30234375 0.03515625,-0.39140625 0.009375,-0.70078125 c -0.02109375,-0.2671875 -0.02109375,-0.36796875 -0.00234375,-0.40546875 c 0.01640625,-0.028125 0.17109375,-0.28828125 0.34453125,-0.58359375 c 0.17578125,-0.29296875 0.34453125,-0.58125 0.375,-0.6421875 c 0.1078125,-0.2109375 0.05859375,-0.43828125 -0.11484375,-0.553125 c -0.08203125,-0.05625 -0.1265625,-0.065625 -0.35390625,-0.0796875 c -0.14296875,-0.009375 -0.4171875,-0.028125 -0.61171875,-0.03984375 c -0.1921875,-0.0140625 -0.571875,-0.0375 -0.84375,-0.04921875 c -0.26953125,-0.0140625 -0.60703125,-0.03515625 -0.75,-0.046875 c -0.86484375,-0.075 -0.87421875,-0.075 -2.00390625,-0.140625 c -0.61171875,-0.03515625 -1.10859375,-0.06796875 -1.40625,-0.09609375 c -0.1359375,-0.01171875 -0.46171875,-0.0328125 -0.7265625,-0.04453125 c -0.7875,-0.0375 -1.29609375,-0.065625 -1.3828125,-0.0796875 c -0.04453125,-0.00703125 -0.103125,-0.00234375 -0.12890625,0.009375 M 10.46484375,1.34765625 c 1.5515625,0.103125 5.34375,0.35390625 6.26953125,0.4125 c 0.23203125,0.01640625 0.42421875,0.028125 0.4265625,0.03046875 c 0.01171875,0.009375 -0.05859375,0.1734375 -0.1078125,0.25546875 c -0.03046875,0.04921875 -0.07734375,0.13125 -0.10546875,0.18046875 c -0.02578125,0.0515625 -0.0796875,0.140625 -0.11953125,0.19921875 c -0.196875,0.3 -0.2765625,0.4265625 -0.31875,0.50390625 c -0.02578125,0.04453125 -0.08203125,0.1453125 -0.1265625,0.22265625 c -0.046875,0.07734375 -0.09375,0.16640625 -0.10546875,0.196875 c -0.0140625,0.03046875 -0.05390625,0.09375 -0.09140625,0.140625 c -0.08671875,0.1125 -0.3328125,0.51796875 -0.5484375,0.9046875 c -0.065625,0.11484375 -0.15703125,0.271875 -0.20859375,0.34453125 c -0.04921875,0.07265625 -0.10078125,0.15703125 -0.1125,0.1875 c -0.0140625,0.03046875 -0.0703125,0.121875 -0.12890625,0.20390625 c -0.05859375,0.084375 -0.10546875,0.1640625 -0.10546875,0.17578125 c 0.00234375,0.03046875 0.16875,0.16640625 0.20390625,0.16640625 c 0.0234375,0 0.825,-1.3171875 1.94765625,-3.19453125 c 0.14765625,-0.24609375 0.28359375,-0.45 0.3,-0.45 c 0.0515625,0 0.08671875,0.09375 0.07265625,0.19453125 c -0.009375,0.05859375 -0.06328125,0.17109375 -0.16171875,0.31875 c -0.17109375,0.2578125 -0.18046875,0.271875 -0.2765625,0.44765625 c -0.1828125,0.32578125 -0.2203125,0.39140625 -0.346875,0.590625 c -0.3,0.47109375 -0.3609375,0.571875 -0.39375,0.63984375 c -0.01875,0.0375 -0.0890625,0.159375 -0.15703125,0.26953125 c -0.17109375,0.271875 -0.515625,0.84140625 -0.5578125,0.91640625 c -0.01875,0.03515625 -0.06328125,0.11953125 -0.10078125,0.1875 c -0.0375,0.0703125 -0.10078125,0.17109375 -0.140625,0.225 s -0.0984375,0.1359375 -0.13125,0.18046875 c -0.0328125,0.046875 -0.06328125,0.084375 -0.0703125,0.084375 s -0.02578125,-0.04453125 -0.0421875,-0.10078125 c -0.028125,-0.10546875 -0.1546875,-0.253125 -0.2578125,-0.30703125 c -0.03515625,-0.01875 -0.18515625,-0.0375 -0.34453125,-0.046875 c -0.1546875,-0.009375 -0.38203125,-0.02578125 -0.50390625,-0.0375 s -0.3328125,-0.0328125 -0.46875,-0.04453125 c -0.1359375,-0.0140625 -0.31875,-0.03515625 -0.41015625,-0.04921875 c -0.0890625,-0.0140625 -0.31171875,-0.03515625 -0.4921875,-0.046875 s -0.43828125,-0.0328125 -0.57421875,-0.046875 s -0.3890625,-0.03515625 -0.5625,-0.046875 c -0.1734375,-0.009375 -0.384375,-0.03046875 -0.46875,-0.04453125 c -0.14296875,-0.02109375 -0.459375,-0.04921875 -1.1015625,-0.0984375 c -0.3609375,-0.02578125 -0.68203125,-0.05859375 -0.8671875,-0.09140625 c -0.084375,-0.0140625 -0.2671875,-0.03515625 -0.41015625,-0.04453125 c -0.140625,-0.01171875 -0.49453125,-0.0375 -0.78515625,-0.0609375 c -0.290625,-0.02109375 -0.54609375,-0.04921875 -0.5671875,-0.0609375 c -0.05859375,-0.03046875 -0.16875,-0.02578125 -0.24140625,0.00703125 c -0.05390625,0.0234375 -0.06796875,0.02109375 -0.11953125,-0.03515625 l -0.05859375,-0.06328125 l 0.10078125,-0.1359375 c 0.05625,-0.07265625 0.15,-0.2015625 0.20859375,-0.2859375 s 0.31640625,-0.44765625 0.571875,-0.80859375 c 1.43203125,-2.01796875 1.47890625,-2.07890625 1.60546875,-2.128125 c 0.05625,-0.02109375 0.08671875,-0.01875 0.984375,0.0421875 m 6.3984375,2.98125 c -0.0375,0.35390625 -0.075,0.6046875 -0.09375,0.628125 c -0.009375,0.01171875 -0.0234375,0.06328125 -0.0328125,0.1125 c -0.0328125,0.17578125 -0.30703125,0.7359375 -0.3703125,0.75703125 c -0.02578125,0.00703125 -0.0515625,0.009375 -0.05625,0.00234375 c -0.00703125,-0.00703125 -0.0140625,-0.2484375 -0.0140625,-0.5390625 l -0.00234375,-0.525 l 0.2109375,-0.34921875 c 0.11484375,-0.1921875 0.234375,-0.39375 0.26484375,-0.45 l 0.05625,-0.10078125 l 0.03046875,0.12890625 c 0.02109375,0.09375 0.0234375,0.18515625 0.00703125,0.33515625 M 7.190625,4.9921875 c 0.271875,0.02578125 0.6609375,0.06328125 0.86015625,0.08203125 c 0.54609375,0.05390625 1.2703125,0.11953125 2.2734375,0.2109375 c 0.496875,0.046875 1.1671875,0.11015625 1.48828125,0.140625 c 0.3234375,0.03046875 0.88125,0.084375 1.2421875,0.1171875 s 0.7453125,0.06796875 0.85546875,0.08203125 c 0.11015625,0.01171875 0.3515625,0.03515625 0.53671875,0.04921875 c 0.4125,0.03515625 0.46171875,0.0609375 0.52734375,0.2625 c 0.03984375,0.12421875 0.03984375,0.13828125 0.0046875,0.1921875 c -0.03984375,0.05859375 -0.103125,0.075 -0.14296875,0.0375 c -0.0140625,-0.01171875 -0.12890625,-0.02578125 -0.2578125,-0.03515625 c -0.24140625,-0.01171875 -0.50859375,-0.03984375 -0.796875,-0.084375 c -0.3703125,-0.05390625 -0.53203125,-0.0703125 -0.8671875,-0.09375 c -0.1921875,-0.0140625 -0.46171875,-0.03515625 -0.59765625,-0.04921875 s -0.346875,-0.0328125 -0.46875,-0.04453125 s -0.30703125,-0.0328125 -0.41015625,-0.04453125 s -0.3609375,-0.03515625 -0.57421875,-0.046875 c -0.21328125,-0.0140625 -0.4875,-0.0375 -0.609375,-0.0515625 s -0.31171875,-0.0328125 -0.421875,-0.04453125 s -0.28828125,-0.03046875 -0.3984375,-0.04453125 c -0.23203125,-0.03046875 -0.6515625,-0.065625 -1.18359375,-0.09609375 c -0.20625,-0.0140625 -0.44765625,-0.03515625 -0.5390625,-0.046875 c -0.26953125,-0.03984375 -0.54375,-0.065625 -0.87421875,-0.084375 c -0.2953125,-0.01640625 -0.3140625,-0.02109375 -0.35859375,-0.075 c -0.0328125,-0.0421875 -0.04453125,-0.09375 -0.04453125,-0.19453125 c 0,-0.2109375 -0.00703125,-0.2109375 0.75703125,-0.13828125 m 2.653125,0.94921875 c 0.7171875,0.06796875 1.040625,0.09609375 1.39453125,0.12890625 c 0.1359375,0.01171875 0.4734375,0.0421875 0.75,0.0703125 c 0.75,0.07265625 0.9234375,0.0890625 1.4765625,0.140625 c 0.2765625,0.02578125 0.609375,0.05625 0.73828125,0.0703125 c 0.65859375,0.065625 0.86015625,0.07734375 0.94921875,0.04921875 c 0.1171875,-0.03515625 0.20390625,-0.10546875 0.28359375,-0.234375 c 0.04921875,-0.075 0.06796875,-0.09140625 0.06796875,-0.05859375 c 0,0.02578125 0.00703125,0.05625 0.01875,0.06796875 c 0.009375,0.0140625 0.01171875,0.60234375 0.0046875,1.3125 l -0.01171875,1.2890625 l -0.05859375,0.07734375 l -0.05859375,0.0796875 l -0.0046875,3.6703125 c -0.0046875,2.0203125 -0.00703125,3.69140625 -0.00703125,3.7171875 c 0,0.03984375 -0.0140625,0.0421875 -0.1453125,0.028125 c -0.08203125,-0.00703125 -0.215625,-0.0234375 -0.3,-0.0375 s -0.24609375,-0.03515625 -0.36328125,-0.046875 c -0.11484375,-0.01171875 -0.27890625,-0.0328125 -0.36328125,-0.046875 s -0.23203125,-0.0328125 -0.328125,-0.046875 c -0.09609375,-0.01171875 -0.24375,-0.0328125 -0.328125,-0.046875 c -0.15703125,-0.0234375 -0.37734375,-0.05390625 -0.6796875,-0.09375 c -0.20390625,-0.028125 -0.43828125,-0.0609375 -0.65625,-0.09609375 c -0.084375,-0.01171875 -0.23203125,-0.0328125 -0.328125,-0.04453125 s -0.2484375,-0.0328125 -0.33984375,-0.046875 c -0.21796875,-0.03046875 -0.45234375,-0.06328125 -0.66796875,-0.09375 c -0.09609375,-0.0140625 -0.2484375,-0.03515625 -0.33984375,-0.046875 c -0.29296875,-0.0421875 -0.48984375,-0.0703125 -0.65625,-0.09375 c -0.0890625,-0.01171875 -0.22734375,-0.03046875 -0.3046875,-0.04453125 c -0.07734375,-0.01171875 -0.1875,-0.028125 -0.24609375,-0.0375 c -0.05859375,-0.00703125 -0.12890625,-0.01875 -0.15703125,-0.02578125 l -0.05390625,-0.009375 L 9.12890625,9.1171875 l 0.14765625,0 c 0.0796875,0 0.159375,-0.009375 0.1734375,-0.01875 c 0.0375,-0.0234375 0.121875,-0.2765625 0.12421875,-0.3609375 c 0,-0.084375 -0.0890625,-0.346875 -0.1359375,-0.40078125 c -0.02578125,-0.028125 -0.0703125,-0.03984375 -0.1734375,-0.03984375 c -0.12421875,0 -0.14765625,-0.00703125 -0.20859375,-0.06796875 l -0.0703125,-0.0703125 l 0.00234375,-1.13671875 l 0.00234375,-1.1390625 l 0.11015625,0 c 0.0609375,0 0.39609375,0.028125 0.74296875,0.05859375 M 9.55078125,1.52109375 c 0,0.0140625 -0.01640625,0.02578125 -0.03515625,0.02578125 c -0.03984375,0 -0.12890625,0.1125 -0.41015625,0.515625 c -0.11015625,0.15703125 -0.23203125,0.328125 -0.271875,0.38203125 s -0.1078125,0.15 -0.1546875,0.215625 c -0.04453125,0.06328125 -0.1640625,0.234375 -0.2671875,0.375 c -0.10078125,0.14296875 -0.215625,0.3 -0.25078125,0.3515625 s -0.11484375,0.16171875 -0.1734375,0.24609375 c -0.24140625,0.33515625 -0.38203125,0.54140625 -0.41484375,0.6046875 c -0.01875,0.03515625 -0.0703125,0.103125 -0.1171875,0.1546875 c -0.046875,0.04921875 -0.084375,0.10546875 -0.084375,0.121875 c 0,0.0421875 0.03046875,0.046875 0.52734375,0.09140625 c 0.83203125,0.07265625 1.978125,0.17578125 2.47265625,0.22265625 c 0.2765625,0.02578125 0.62578125,0.05859375 0.7734375,0.0703125 c 0.14765625,0.0140625 0.496875,0.04453125 0.7734375,0.0703125 c 1.22578125,0.1125 2.83125,0.2578125 2.89453125,0.26484375 c 0.065625,0.0046875 0.0796875,-0.0140625 0.346875,-0.45234375 c 1.22109375,-2.0109375 1.659375,-2.74921875 1.65,-2.77734375 c -0.01171875,-0.0234375 -0.09140625,-0.03515625 -0.3375,-0.04453125 c -0.178125,-0.0046875 -0.39609375,-0.0234375 -0.4875,-0.03515625 c -0.0890625,-0.0140625 -0.31640625,-0.03515625 -0.50390625,-0.04921875 c -0.1875,-0.01171875 -0.47578125,-0.0328125 -0.64453125,-0.046875 c -0.16640625,-0.0140625 -0.5625,-0.03515625 -0.87890625,-0.046875 s -0.6375,-0.0328125 -0.71484375,-0.046875 s -0.33046875,-0.03515625 -0.5625,-0.046875 c -0.23203125,-0.0140625 -0.56484375,-0.03515625 -0.73828125,-0.046875 c -0.1734375,-0.0140625 -0.5578125,-0.03515625 -0.85546875,-0.046875 c -0.2953125,-0.009375 -0.60234375,-0.03046875 -0.6796875,-0.046875 c -0.2015625,-0.0375 -0.85546875,-0.05859375 -0.85546875,-0.02578125"/></svg>