<svg xmlns="http://www.w3.org/2000/svg" width="24" height="24" viewBox="0 0 24 24"><path d="M9.515625 1.054688C9.489844 1.066406 9.440625 1.075781 9.403125 1.075781C9.316406 1.078125 9.255469 1.115625 9.117188 1.253906C9.023438 1.347656 8.479688 2.095313 7.849219 2.992969C7.6875 3.225 7.096875 4.052344 7.03125 4.139062C6.99375 4.190625 6.902344 4.317187 6.832031 4.417969C6.665625 4.654687 6.628125 4.6875 6.536719 4.6875C6.494531 4.6875 6.452344 4.696875 6.445313 4.710938C6.438281 4.722656 6.414844 4.734375 6.398438 4.734375C6.363281 4.734375 6.297656 4.78125 6.222656 4.858594C6.199219 4.882031 6.173438 4.938281 6.164063 4.982813C6.147656 5.08125 6.171094 5.378906 6.203906 5.465625C6.250781 5.589844 6.358594 5.622656 6.914063 5.669531C7.48125 5.721094 8.203125 5.79375 8.210156 5.800781C8.214844 5.805469 8.219531 6.342188 8.219531 6.996094L8.219531 8.182031L8.153906 8.278125L8.085938 8.374219L8.074219 14.132813L8.0625 19.891406L7.792969 20.153906C7.645312 20.299219 7.396875 20.540625 7.242188 20.690625C6.832031 21.089063 6.803906 21.126563 6.789844 21.323438C6.775781 21.550781 6.846094 21.684375 7.03125 21.780469C7.139062 21.836719 7.375781 21.84375 7.467187 21.796875C7.549219 21.754688 7.66875 21.639844 9.051562 20.275781C9.911719 19.429688 10.314844 19.017188 10.347656 18.949219C10.40625 18.829688 10.40625 18.675 10.35 18.548438C10.300781 18.440625 10.169531 18.328125 10.094531 18.328125C10.06875 18.328125 10.038281 18.316406 10.03125 18.304688C10.005469 18.2625 9.874219 18.283594 9.691406 18.358594C9.658594 18.372656 9.54375 18.475781 9.433594 18.588281C9.323438 18.700781 9.210938 18.799219 9.182813 18.808594L9.128906 18.822656L9.128906 17.650781C9.128906 17.003906 9.135938 16.476563 9.142969 16.476563C9.15 16.476563 9.375 16.507031 9.642188 16.544531C9.907031 16.582031 10.352344 16.645312 10.628906 16.685156C12.8625 16.999219 14.217188 17.191406 14.554688 17.240625C14.775 17.273438 15.044531 17.310938 15.157031 17.325C15.328125 17.346094 15.360938 17.357813 15.379688 17.4C15.389063 17.428125 15.396094 18.24375 15.391406 19.214063L15.384375 20.978906L15.075 21.311719C14.903906 21.494531 14.744531 21.665625 14.71875 21.69375C14.521875 21.895313 14.247656 22.204687 14.207813 22.270313C14.170313 22.328906 14.158594 22.3875 14.15625 22.516406C14.15625 22.666406 14.163281 22.694531 14.226563 22.785938C14.327344 22.926563 14.451563 22.992188 14.620313 22.992188C14.871094 22.992188 14.760938 23.1 16.675781 21.028125C17.107031 20.561719 17.486719 20.1375 17.524219 20.083594C17.64375 19.903125 17.632031 19.671094 17.49375 19.511719C17.392969 19.396875 17.301563 19.359375 17.128125 19.359375C16.945313 19.359375 16.898438 19.3875 16.666406 19.633594C16.577344 19.727344 16.490625 19.804688 16.474219 19.804688C16.446094 19.804688 16.441406 19.035938 16.441406 14.786719L16.441406 9.771094L16.565625 9.785156C16.713281 9.803906 16.720313 9.799219 16.790625 9.588281C16.851563 9.398438 16.851563 9.386719 16.78125 9.185156C16.713281 8.990625 16.675781 8.955469 16.544531 8.953125C16.460156 8.953125 16.44375 8.94375 16.36875 8.840625L16.289063 8.730469L16.289063 6.260156L16.457813 6.100781C16.717969 5.852344 16.858594 5.596875 16.992188 5.128125C17.04375 4.952344 17.085938 4.727344 17.111719 4.507031C17.146875 4.204688 17.146875 4.115625 17.121094 3.80625C17.1 3.539063 17.1 3.438281 17.11875 3.400781C17.135156 3.372656 17.289844 3.1125 17.463281 2.817187C17.639063 2.524219 17.807813 2.235937 17.838281 2.175C17.946094 1.964062 17.896875 1.736719 17.723438 1.621875C17.641406 1.565625 17.596875 1.55625 17.369531 1.542187C17.226563 1.532812 16.952344 1.514062 16.757813 1.502344C16.565625 1.488281 16.185938 1.464844 15.914063 1.453125C15.644531 1.439062 15.307031 1.417969 15.164063 1.40625C14.299219 1.33125 14.289844 1.33125 13.160156 1.265625C12.548438 1.230469 12.051563 1.197656 11.753906 1.169531C11.617969 1.157812 11.292188 1.136719 11.027344 1.125C10.239844 1.0875 9.73125 1.059375 9.644531 1.045312C9.6 1.038281 9.541406 1.042969 9.515625 1.054687ZM10.464844 1.347656C12.016406 1.450781 15.808594 1.701562 16.734375 1.760156C16.966406 1.776562 17.158594 1.788281 17.160938 1.790625C17.172656 1.8 17.102344 1.964062 17.053125 2.046094C17.022656 2.095312 16.975781 2.177344 16.947656 2.226563C16.921875 2.278125 16.867969 2.367188 16.828125 2.425781C16.63125 2.725781 16.551563 2.852344 16.509375 2.929688C16.483594 2.974219 16.427344 3.075 16.382813 3.152344C16.335938 3.229688 16.289063 3.31875 16.277344 3.349219C16.263281 3.379688 16.223438 3.442969 16.185938 3.489844C16.099219 3.602344 15.853125 4.007813 15.6375 4.394531C15.571875 4.509375 15.480469 4.666406 15.428906 4.739062C15.379688 4.811719 15.328125 4.896094 15.316406 4.926562C15.302344 4.957031 15.246094 5.048437 15.1875 5.130469C15.128906 5.214844 15.082031 5.294531 15.082031 5.30625C15.084375 5.336719 15.250781 5.472656 15.285938 5.472656C15.309375 5.472656 16.110938 4.155469 17.233594 2.278125C17.38125 2.032031 17.517188 1.828125 17.533594 1.828125C17.585156 1.828125 17.620313 1.921875 17.60625 2.022656C17.596875 2.08125 17.542969 2.19375 17.444531 2.341406C17.273438 2.599219 17.264063 2.613281 17.167969 2.789062C16.985156 3.114844 16.947656 3.180469 16.821094 3.379687C16.521094 3.850781 16.460156 3.951562 16.427344 4.019531C16.408594 4.057031 16.338281 4.178906 16.270313 4.289062C16.099219 4.560937 15.754688 5.130469 15.7125 5.205469C15.69375 5.240625 15.649219 5.325 15.611719 5.392969C15.574219 5.463281 15.510938 5.564062 15.471094 5.617969C15.43125 5.671875 15.372656 5.753906 15.339844 5.798437C15.307031 5.845312 15.276563 5.882812 15.269531 5.882812C15.2625 5.882812 15.24375 5.838281 15.227344 5.782031C15.199219 5.676562 15.072656 5.528906 14.969531 5.475C14.934375 5.45625 14.784375 5.4375 14.625 5.428125C14.470313 5.41875 14.242969 5.402344 14.121094 5.390625C13.999219 5.378906 13.788281 5.357812 13.652344 5.346094C13.516406 5.332031 13.333594 5.310937 13.242188 5.296875C13.153125 5.282812 12.930469 5.261719 12.75 5.25C12.569531 5.238281 12.311719 5.217187 12.175781 5.203125C12.039844 5.189062 11.786719 5.167969 11.613281 5.15625C11.439844 5.146875 11.228906 5.125781 11.144531 5.111719C11.001563 5.090625 10.685156 5.0625 10.042969 5.013281C9.682031 4.9875 9.360938 4.954687 9.175781 4.921875C9.091406 4.907812 8.908594 4.886719 8.765625 4.877344C8.625 4.865625 8.271094 4.839844 7.980469 4.816406C7.689844 4.795312 7.434375 4.767187 7.413281 4.755469C7.354688 4.725 7.244531 4.729687 7.171875 4.7625C7.117969 4.785937 7.103906 4.783594 7.052344 4.727344L6.99375 4.664062L7.094531 4.528125C7.150781 4.455469 7.244531 4.326562 7.303125 4.242187C7.361719 4.157812 7.619531 3.794531 7.875 3.433594C9.307031 1.415625 9.353906 1.354687 9.480469 1.305469C9.536719 1.284375 9.567188 1.286719 10.464844 1.347656ZM16.863281 4.328906C16.825781 4.682812 16.788281 4.933594 16.769531 4.957031C16.760156 4.96875 16.746094 5.020312 16.736719 5.069531C16.703906 5.245312 16.429688 5.805469 16.366406 5.826562C16.340625 5.833594 16.314844 5.835937 16.310156 5.828906C16.303125 5.821875 16.296094 5.580469 16.296094 5.289844L16.29375 4.764844L16.504688 4.415625C16.619531 4.223437 16.739063 4.021875 16.769531 3.965625L16.825781 3.864844L16.85625 3.99375C16.877344 4.0875 16.879688 4.178906 16.863281 4.328906ZM7.190625 4.992188C7.4625 5.017969 7.851563 5.055469 8.050781 5.074219C8.596875 5.128125 9.321094 5.19375 10.324219 5.285156C10.821094 5.332031 11.491406 5.395312 11.8125 5.425781C12.135938 5.45625 12.69375 5.510156 13.054688 5.542969C13.415625 5.575781 13.8 5.610938 13.910156 5.625C14.020312 5.636719 14.261719 5.660156 14.446875 5.674219C14.859375 5.709375 14.908594 5.735156 14.974219 5.936719C15.014062 6.060937 15.014062 6.075 14.978906 6.128906C14.939062 6.1875 14.875781 6.203906 14.835937 6.166406C14.821875 6.154688 14.707031 6.140625 14.578125 6.13125C14.336719 6.119531 14.069531 6.091406 13.78125 6.046875C13.410937 5.992969 13.249219 5.976563 12.914062 5.953125C12.721875 5.939063 12.452344 5.917969 12.316406 5.903906C12.180469 5.889844 11.969531 5.871094 11.847656 5.859375C11.725781 5.847656 11.540625 5.826562 11.4375 5.814844C11.334375 5.803125 11.076562 5.779687 10.863281 5.767969C10.65 5.753906 10.375781 5.730469 10.253906 5.716406C10.132031 5.702344 9.942187 5.683594 9.832031 5.671875C9.721875 5.660156 9.54375 5.641406 9.433594 5.627344C9.201562 5.596875 8.782031 5.561719 8.25 5.53125C8.04375 5.517188 7.802344 5.496094 7.710937 5.484375C7.441406 5.444531 7.167187 5.41875 6.836719 5.4C6.541406 5.383594 6.522656 5.378906 6.478125 5.325C6.445312 5.282813 6.433594 5.23125 6.433594 5.130469C6.433594 4.919531 6.426562 4.919531 7.190625 4.992188ZM9.84375 5.941406C10.560937 6.009375 10.884375 6.0375 11.238281 6.070313C11.374219 6.082031 11.711719 6.1125 11.988281 6.140625C12.738281 6.213281 12.911719 6.229688 13.464844 6.28125C13.741406 6.307031 14.074219 6.3375 14.203125 6.351563C14.861719 6.417188 15.063281 6.428906 15.152344 6.400781C15.269531 6.365625 15.35625 6.295313 15.435937 6.166406C15.485156 6.091406 15.503906 6.075 15.503906 6.107813C15.503906 6.133594 15.510937 6.164063 15.522656 6.175781C15.532031 6.189844 15.534375 6.778125 15.527344 7.488281L15.515625 8.777344L15.457031 8.854688L15.398437 8.934375L15.39375 12.604687C15.389062 14.625 15.386719 16.296094 15.386719 16.321875C15.386719 16.361719 15.372656 16.364062 15.241406 16.35C15.159375 16.342969 15.025781 16.326563 14.941406 16.3125C14.857031 16.298437 14.695312 16.277344 14.578125 16.265625C14.463281 16.253906 14.299219 16.232813 14.214844 16.21875C14.130469 16.204687 13.982812 16.185938 13.886719 16.171875C13.790625 16.160156 13.642969 16.139063 13.558594 16.125C13.401562 16.101563 13.18125 16.071094 12.878906 16.03125C12.675 16.003125 12.440625 15.970312 12.222656 15.935156C12.138281 15.923437 11.990625 15.902344 11.894531 15.890625C11.798437 15.878906 11.646094 15.857813 11.554687 15.84375C11.336719 15.813281 11.102344 15.780469 10.886719 15.75C10.790625 15.735937 10.638281 15.714844 10.546875 15.703125C10.253906 15.660938 10.057031 15.632813 9.890625 15.609375C9.801562 15.597656 9.663281 15.578906 9.585937 15.564844C9.508594 15.553125 9.398437 15.536719 9.339844 15.527344C9.28125 15.520313 9.210937 15.508594 9.182812 15.501562L9.128906 15.492188L9.128906 9.117188L9.276562 9.117188C9.35625 9.117188 9.435937 9.107813 9.45 9.098437C9.4875 9.075 9.571875 8.821875 9.574219 8.7375C9.574219 8.653125 9.485156 8.390625 9.438281 8.336719C9.4125 8.308594 9.367969 8.296875 9.264844 8.296875C9.140625 8.296875 9.117187 8.289844 9.05625 8.228906L8.985937 8.158594L8.988281 7.021875L8.990625 5.882813L9.100781 5.882813C9.161719 5.882813 9.496875 5.910938 9.84375 5.941406ZM9.550781 1.521094C9.550781 1.535156 9.534375 1.546875 9.515625 1.546875C9.475781 1.546875 9.386719 1.659375 9.105469 2.0625C8.995313 2.219531 8.873437 2.390625 8.833594 2.444531C8.79375 2.498437 8.725781 2.594531 8.678906 2.660156C8.634375 2.723438 8.514844 2.894531 8.411719 3.035156C8.310937 3.178125 8.196094 3.335156 8.160937 3.386719C8.125781 3.438281 8.046094 3.548438 7.9875 3.632813C7.746094 3.967969 7.605469 4.174219 7.572656 4.2375C7.553906 4.272656 7.502344 4.340625 7.455469 4.392188C7.408594 4.441406 7.371094 4.497656 7.371094 4.514062C7.371094 4.55625 7.401563 4.560937 7.898438 4.605469C8.730469 4.678125 9.876563 4.78125 10.371094 4.828125C10.647656 4.853906 10.996875 4.886719 11.144531 4.898438C11.292188 4.9125 11.641406 4.942969 11.917969 4.96875C13.14375 5.08125 14.749219 5.226563 14.8125 5.233594C14.878125 5.238281 14.892187 5.219531 15.159375 4.78125C16.380469 2.770313 16.81875 2.032031 16.809375 2.003906C16.797656 1.980469 16.717969 1.96875 16.471875 1.959375C16.29375 1.954687 16.075781 1.935937 15.984375 1.924219C15.895313 1.910156 15.667969 1.889062 15.480469 1.875C15.292969 1.863281 15.004688 1.842187 14.835938 1.828125C14.669531 1.814063 14.273438 1.792969 13.957031 1.78125C13.640625 1.769531 13.319531 1.748437 13.242188 1.734375C13.164844 1.720313 12.911719 1.699219 12.679688 1.6875C12.447656 1.673438 12.114844 1.652344 11.941406 1.640625C11.767969 1.626563 11.383594 1.605469 11.085938 1.59375C10.790625 1.584375 10.483594 1.563281 10.40625 1.546875C10.204688 1.509375 9.550781 1.488281 9.550781 1.521094Z"/></svg>
