<svg xmlns="http://www.w3.org/2000/svg" width="24" height="24" viewBox="0 0 24 24"><path d="M9.375 1.052344C9.367969 1.066406 9.335156 1.078125 9.302344 1.078125C9.271875 1.078125 9.246094 1.0875 9.246094 1.101563C9.246094 1.113281 9.232031 1.125 9.213281 1.125C9.194531 1.125 9.154687 1.155469 9.124219 1.195313C9.09375 1.232813 9.035156 1.303125 8.995313 1.352344C8.953125 1.399219 8.917969 1.450781 8.917969 1.467188C8.917969 1.483594 8.908594 1.5 8.899219 1.504688C8.8875 1.507031 8.833594 1.579688 8.777344 1.664063C8.721094 1.748437 8.669531 1.821094 8.660156 1.828125C8.653125 1.835156 8.620313 1.877344 8.589844 1.921875C8.557031 1.966406 8.514844 2.025 8.491406 2.048438C8.467969 2.074219 8.449219 2.109375 8.449219 2.125781C8.449219 2.142188 8.442187 2.15625 8.430469 2.15625C8.421094 2.15625 8.388281 2.198437 8.355469 2.25C8.322656 2.301563 8.289844 2.34375 8.280469 2.34375C8.271094 2.34375 8.259375 2.3625 8.25 2.388281C8.242969 2.411719 8.210156 2.460938 8.179688 2.498438C8.146875 2.535938 8.121094 2.580469 8.121094 2.594531C8.121094 2.610938 8.111719 2.625 8.102344 2.625C8.092969 2.625 8.064844 2.655469 8.04375 2.695313C8.020312 2.732812 7.989844 2.777344 7.973437 2.79375C7.957031 2.810156 7.896094 2.892188 7.839844 2.976563C7.783594 3.060937 7.722656 3.142969 7.70625 3.159375C7.689844 3.175781 7.675781 3.199219 7.675781 3.210938C7.675781 3.222656 7.661719 3.246094 7.645312 3.2625C7.628906 3.278906 7.589062 3.330469 7.558594 3.375C7.528125 3.419531 7.483594 3.478125 7.460156 3.501563C7.436719 3.527344 7.417969 3.5625 7.417969 3.578906C7.417969 3.595313 7.410937 3.609375 7.399219 3.609375C7.389844 3.609375 7.357031 3.651563 7.324219 3.703125C7.291406 3.754688 7.258594 3.796875 7.251562 3.796875C7.242187 3.796875 7.223437 3.827344 7.207031 3.867188C7.190625 3.904688 7.171875 3.9375 7.1625 3.9375C7.153125 3.9375 7.129687 3.965625 7.108594 4.000781C7.0875 4.038281 7.042969 4.096875 7.010156 4.136719C6.977344 4.174219 6.949219 4.221094 6.949219 4.235156C6.949219 4.251563 6.939844 4.265625 6.930469 4.265625C6.921094 4.265625 6.895312 4.29375 6.874219 4.328906C6.853125 4.366406 6.808594 4.425 6.775781 4.464844C6.742969 4.502344 6.714844 4.544531 6.714844 4.553906C6.714844 4.603125 6.583594 4.6875 6.503906 4.6875C6.414844 4.6875 6.271875 4.78125 6.210937 4.875C6.140625 4.985156 6.13125 5.170313 6.1875 5.383594C6.239062 5.585156 6.283594 5.60625 6.738281 5.646094C7.849219 5.744531 8.114062 5.767969 8.15625 5.777344C8.221875 5.791406 8.273438 5.913281 8.240625 5.974219C8.224219 6.004687 8.214844 6.386719 8.214844 7.110937C8.214844 7.710938 8.205469 8.203125 8.196094 8.203125C8.184375 8.203125 8.153906 8.245313 8.125781 8.299219L8.074219 8.395313L8.074219 19.875L7.9875 19.957031C7.938281 20.003906 7.654687 20.280469 7.359375 20.573437C6.907031 21.021094 6.815625 21.121875 6.789844 21.203906C6.754687 21.323437 6.752344 21.438281 6.785156 21.457031C6.799219 21.464062 6.808594 21.4875 6.808594 21.50625C6.808594 21.571875 6.935156 21.73125 7.024219 21.775781C7.150781 21.841406 7.359375 21.839062 7.485937 21.775781C7.542187 21.745312 7.992187 21.321094 8.629687 20.688281C9.20625 20.11875 9.817969 19.516406 9.989062 19.35C10.319531 19.026562 10.394531 18.916406 10.394531 18.745312C10.394531 18.621094 10.326562 18.46875 10.244531 18.405469C10.209375 18.377344 10.122656 18.3375 10.052344 18.314062C9.944531 18.28125 9.907031 18.278906 9.846094 18.3C9.803906 18.316406 9.747656 18.328125 9.719531 18.328125C9.691406 18.328125 9.667969 18.3375 9.667969 18.351563C9.667969 18.363281 9.653906 18.375 9.635156 18.375C9.604688 18.375 9.414844 18.567188 9.328125 18.686719C9.302344 18.721875 9.264844 18.75 9.241406 18.75C9.220313 18.75 9.194531 18.759375 9.1875 18.773438C9.135938 18.855469 9.128906 18.7125 9.128906 17.636719C9.128906 16.675781 9.133594 16.476563 9.161719 16.476563C9.178125 16.476563 9.332813 16.497656 9.50625 16.523438C9.679688 16.549219 10.279688 16.633594 10.839844 16.710938C11.4 16.788281 11.960156 16.867969 12.082031 16.886719C12.309375 16.919531 12.717188 16.978125 14.402344 17.217188C14.925 17.289844 15.358594 17.3625 15.367969 17.376562C15.377344 17.390625 15.386719 18.196875 15.386719 19.167187L15.386719 20.934375L15.335156 21.007031C15.304688 21.049219 15.213281 21.15 15.128906 21.234375C15.044531 21.31875 14.927344 21.445313 14.866406 21.515625C14.805469 21.585938 14.650781 21.754688 14.519531 21.890625C14.196094 22.225781 14.15625 22.298437 14.158594 22.530469C14.160938 22.694531 14.167969 22.720312 14.228906 22.8C14.325 22.919531 14.475 22.992188 14.625 22.992188C14.857031 22.989844 14.885156 22.96875 15.574219 22.207031C15.761719 22.000781 15.998438 21.742969 16.101563 21.632813C16.659375 21.035156 17.458594 20.153906 17.5125 20.078906C17.578125 19.985156 17.60625 19.81875 17.580469 19.678125C17.564062 19.59375 17.439844 19.446094 17.339063 19.3875C17.273438 19.352344 16.971094 19.35 16.903125 19.385156C16.839844 19.417969 16.652344 19.610156 16.652344 19.642969C16.652344 19.680469 16.551563 19.771875 16.492969 19.785938C16.450781 19.797656 16.441406 19.790625 16.441406 19.750781L16.441406 14.325C16.441406 9.447656 16.439062 8.94375 16.403906 8.871094C16.385156 8.828906 16.352344 8.786719 16.333594 8.779688C16.305469 8.767969 16.300781 8.573438 16.303125 7.495313L16.303125 6.222656L16.425 6.126563C16.778906 5.85 17.060156 5.153906 17.116406 4.408594C17.135156 4.164844 17.116406 3.588281 17.085938 3.494531C17.078906 3.473438 17.242969 3.175781 17.472656 2.791406C17.690625 2.428125 17.875781 2.090625 17.885156 2.046094C17.920313 1.858594 17.814844 1.617188 17.685938 1.598438C17.660156 1.59375 17.636719 1.582031 17.636719 1.570313C17.636719 1.546875 17.479688 1.532813 16.921875 1.502344C16.703906 1.488281 16.375781 1.467188 16.195313 1.453125C16.014844 1.439063 15.703125 1.415625 15.503906 1.403906C15.161719 1.382813 15.01875 1.373438 14.191406 1.3125C14.003906 1.300781 13.657031 1.277344 13.417969 1.265625C12.482813 1.211719 11.711719 1.1625 11.25 1.125C10.429688 1.057031 9.398438 1.019531 9.375 1.052344ZM10.148438 1.324219C10.420313 1.342969 10.814063 1.36875 11.027344 1.382813C11.538281 1.415625 12.757031 1.492969 13.183594 1.521094C13.371094 1.535156 13.708594 1.55625 13.933594 1.570313C14.158594 1.584375 14.892188 1.63125 15.5625 1.675781C16.232813 1.720313 16.919531 1.7625 17.085938 1.771875C17.477344 1.790625 17.554688 1.809375 17.603906 1.900781C17.627344 1.945313 17.632031 1.982812 17.617969 1.999219C17.60625 2.015625 17.589844 2.055469 17.582813 2.088281C17.573438 2.121094 17.540625 2.177344 17.507813 2.217187C17.475 2.254687 17.449219 2.299219 17.449219 2.313281C17.449219 2.329687 17.439844 2.34375 17.428125 2.34375C17.416406 2.34375 17.402344 2.3625 17.395313 2.383594C17.38125 2.425781 17.308594 2.554687 17.285156 2.578125C17.261719 2.601562 17.189063 2.730469 17.175 2.770312C17.167969 2.79375 17.153906 2.8125 17.142188 2.8125C17.130469 2.8125 17.121094 2.833594 17.121094 2.859375C17.121094 2.885156 17.111719 2.90625 17.1 2.90625C17.088281 2.90625 17.074219 2.925 17.067188 2.946094C17.050781 2.997656 16.980469 3.114844 16.940625 3.159375C16.924219 3.175781 16.910156 3.199219 16.910156 3.210937C16.910156 3.222656 16.896094 3.246094 16.882031 3.2625C16.839844 3.307031 16.769531 3.424219 16.753125 3.473437C16.746094 3.496875 16.732031 3.515625 16.720313 3.515625C16.708594 3.515625 16.699219 3.527344 16.699219 3.541406C16.699219 3.553125 16.657031 3.628125 16.605469 3.703125C16.553906 3.778125 16.511719 3.853125 16.511719 3.864844C16.511719 3.878906 16.504688 3.890625 16.495313 3.890625C16.483594 3.890625 16.464844 3.914062 16.453125 3.944531C16.417969 4.017187 16.314844 4.204687 16.300781 4.21875C16.29375 4.225781 16.275 4.253906 16.260938 4.282031C16.197656 4.392187 16.171875 4.439062 16.153125 4.4625C16.092188 4.546875 15.949219 4.785937 15.949219 4.804687C15.949219 4.81875 15.939844 4.828125 15.925781 4.828125C15.914063 4.828125 15.902344 4.849219 15.902344 4.875C15.902344 4.900781 15.892969 4.921875 15.88125 4.921875C15.869531 4.921875 15.855469 4.940625 15.848438 4.961719C15.834375 5.00625 15.759375 5.135156 15.738281 5.15625C15.73125 5.163281 15.69375 5.219531 15.65625 5.282812C15.616406 5.348437 15.557813 5.446875 15.520313 5.505469C15.485156 5.564062 15.43125 5.660156 15.400781 5.71875C15.370313 5.777344 15.323438 5.835937 15.3 5.85C15.260156 5.875781 15.250781 5.864062 15.201563 5.7375C15.164063 5.639062 15.126563 5.585156 15.079688 5.557031C15.042188 5.535937 15.011719 5.5125 15.011719 5.500781C15.011719 5.491406 14.990625 5.484375 14.967188 5.484375C14.941406 5.484375 14.915625 5.475 14.908594 5.463281C14.901563 5.453906 14.807813 5.4375 14.702344 5.428125C14.594531 5.41875 14.38125 5.402344 14.226563 5.388281C13.528125 5.332031 13.303125 5.310937 12.75 5.252344C12.515625 5.226562 12.208594 5.198437 11.71875 5.15625C11.578125 5.144531 11.371875 5.123437 11.261719 5.111719C10.954688 5.076562 10.577344 5.041406 10.230469 5.015625C9.738281 4.975781 9.45 4.95 8.800781 4.877344C8.678906 4.863281 8.430469 4.839844 8.25 4.825781C8.069531 4.811719 7.821094 4.790625 7.699219 4.778906C7.577344 4.764844 7.403906 4.750781 7.3125 4.746094C7.059375 4.734375 7.057031 4.734375 7.010156 4.699219C6.960938 4.661719 6.850781 4.828125 8.121094 3.046875C8.4375 2.601562 8.838281 2.039062 9.009375 1.797656C9.182813 1.55625 9.351563 1.342969 9.384375 1.324219C9.461719 1.282031 9.550781 1.282031 10.148438 1.324219ZM16.867969 4.000781C16.882031 4.028906 16.886719 4.089844 16.877344 4.141406C16.863281 4.225781 16.835156 4.469531 16.802344 4.792969C16.795313 4.870312 16.778906 4.942969 16.767188 4.954687C16.755469 4.96875 16.746094 4.999219 16.746094 5.027344C16.746094 5.055469 16.736719 5.085937 16.727344 5.1C16.717969 5.111719 16.694531 5.163281 16.678125 5.214844C16.603125 5.45625 16.436719 5.772656 16.36875 5.805469L16.3125 5.833594L16.305469 5.2875L16.300781 4.739062L16.563281 4.300781C16.729688 4.026562 16.830469 3.878906 16.835156 3.904687C16.839844 3.930469 16.853906 3.972656 16.867969 4.000781ZM7.246875 5.003906C7.579688 5.034375 8.205469 5.092969 8.636719 5.132812C9.067969 5.172656 9.58125 5.219531 9.773438 5.238281C10.195313 5.280469 11.554688 5.409375 12.75 5.519531C13.228125 5.564062 13.886719 5.625 14.214844 5.655469C14.5875 5.690625 14.833594 5.723437 14.866406 5.744531C14.929688 5.784375 14.9625 5.864062 14.969531 6.011719L14.976563 6.128906L14.71875 6.124219C14.460938 6.121875 14.116406 6.091406 13.804688 6.049219C13.511719 6.007031 13.223438 5.976562 12.902344 5.950781C12.182813 5.894531 11.744531 5.852344 11.425781 5.814844C11.315625 5.800781 11.074219 5.777344 10.886719 5.763281C10.413281 5.728125 10.0875 5.7 9.867188 5.674219C9.375 5.615625 9.210938 5.599219 8.929688 5.575781C8.217188 5.519531 7.884375 5.489062 7.429688 5.4375C7.300781 5.423437 7.052344 5.404687 6.878906 5.395312C6.471094 5.374219 6.457031 5.367187 6.421875 5.139844C6.410156 5.060156 6.414844 5.034375 6.454688 4.994531C6.515625 4.933594 6.515625 4.933594 7.246875 5.003906ZM16.017188 5.378906C16.026563 5.390625 16.033594 6.175781 16.03125 7.120312C16.028906 8.688281 16.024219 8.840625 15.989063 8.875781C15.958594 8.90625 15.935156 8.910937 15.885938 8.892187L15.820313 8.871094L15.813281 7.209375L15.808594 5.55L15.895313 5.404687C15.963281 5.294531 15.984375 5.273437 15.991406 5.308594C15.996094 5.334375 16.007813 5.364844 16.017188 5.378906ZM8.707031 5.852344C8.714063 5.857031 8.721094 6.407812 8.725781 7.073438C8.730469 8.275781 8.730469 8.285156 8.683594 8.315625C8.641406 8.341406 8.625 8.339063 8.566406 8.296875L8.496094 8.247656L8.496094 7.045312C8.496094 6.384375 8.503125 5.835937 8.5125 5.826562C8.53125 5.810156 8.683594 5.828906 8.707031 5.852344ZM9.761719 5.929687C10.052344 5.955469 10.385156 5.985937 10.5 6C10.617188 6.011719 10.832812 6.032812 10.980469 6.046875C11.425781 6.086719 12.499219 6.1875 12.75 6.213281C12.878906 6.225 13.321875 6.264844 13.734375 6.304688C14.146875 6.342188 14.617969 6.386719 14.784375 6.400781L15.082031 6.428906L15.215625 6.360938C15.307031 6.314063 15.370313 6.260156 15.421875 6.182813L15.499219 6.072656L15.513281 6.147656C15.541406 6.276563 15.527344 8.697656 15.499219 8.749219C15.485156 8.777344 15.454687 8.819531 15.43125 8.845313C15.389062 8.889844 15.386719 9.014063 15.386719 12.623438C15.386719 16.314844 15.386719 16.357031 15.339844 16.371094C15.316406 16.378125 15.255469 16.373438 15.20625 16.359375C15.117188 16.33125 14.948438 16.307812 14.554688 16.263281C14.221875 16.225781 14.027344 16.2 13.875 16.171875C13.600781 16.122656 13.279688 16.078125 12.878906 16.033594C12.76875 16.019531 12.621094 15.998438 12.550781 15.984375C12.4125 15.95625 12.24375 15.932812 11.90625 15.890625C11.463281 15.839062 11.339063 15.822656 11.203125 15.799219C10.865625 15.740625 10.638281 15.707813 10.21875 15.658594C10.115625 15.644531 9.972656 15.625781 9.902344 15.611719C9.588281 15.557813 9.414844 15.539063 9.335156 15.550781C9.276563 15.5625 9.232031 15.553125 9.189844 15.527344L9.128906 15.4875L9.128906 8.299219L9.058594 8.219531L8.988281 8.1375L8.988281 7.014844C8.988281 6.396094 8.995313 5.882813 9.004687 5.873438C9.014062 5.864063 9.070313 5.861719 9.128906 5.86875C9.1875 5.875781 9.471094 5.903906 9.761719 5.929688ZM8.542969 8.571094C8.601563 8.578125 8.690625 8.571094 8.7375 8.559375C8.821875 8.535938 8.828906 8.538281 8.85 8.592188C8.880469 8.674219 8.878125 15.445313 8.847656 15.527344C8.835938 15.560156 8.798438 15.614063 8.765625 15.646875C8.589844 15.822656 8.594531 16.18125 8.775 16.345312C8.800781 16.36875 8.833594 16.427344 8.847656 16.474219C8.861719 16.525781 8.871094 17.114062 8.871094 18.004687C8.871094 19.410937 8.873438 19.453125 8.915625 19.476562C9.032813 19.5375 9.128906 19.471875 9.128906 19.326562C9.128906 19.235156 9.142969 19.216406 9.309375 19.052344C9.773438 18.604687 9.825 18.5625 9.902344 18.5625C10.000781 18.5625 10.059375 18.595312 10.101563 18.679687C10.155469 18.782812 10.117969 18.836719 9.764063 19.18125C9.389063 19.546875 9.407813 19.525781 9.24375 19.701562C8.98125 19.978125 7.413281 21.503906 7.364063 21.532031C7.335938 21.548437 7.279688 21.560156 7.2375 21.5625C7.141406 21.5625 7.042969 21.442969 7.042969 21.325781C7.042969 21.255469 7.096875 21.194531 7.699219 20.601562L8.357813 19.957031L8.355469 14.240625C8.355469 8.807812 8.357813 8.526562 8.397656 8.542969C8.41875 8.552344 8.484375 8.566406 8.542969 8.571094ZM15.902344 9.164063C15.965625 9.164063 16.042969 9.154688 16.073437 9.142969C16.125 9.121875 16.132031 9.128906 16.160156 9.208594C16.176563 9.257813 16.18125 9.31875 16.174219 9.344531C16.153125 9.4125 16.155469 20.336719 16.176563 20.446875C16.197656 20.552344 16.246875 20.592188 16.328906 20.571094C16.399219 20.552344 16.441406 20.467969 16.441406 20.339063C16.441406 20.252344 16.460156 20.224219 16.703906 19.959375C16.846875 19.804688 16.985156 19.661719 17.008594 19.642969C17.064844 19.603125 17.221875 19.621875 17.273438 19.671094C17.294531 19.694531 17.308594 19.750781 17.308594 19.823438C17.308594 19.938281 17.308594 19.940625 17.060156 20.19375C16.924219 20.334375 16.783594 20.486719 16.750781 20.53125C16.715625 20.575781 16.596094 20.707031 16.485937 20.824219C16.375781 20.939062 16.228125 21.098438 16.157812 21.175781C16.0875 21.250781 15.972656 21.372656 15.902344 21.445313C15.832031 21.515625 15.726563 21.632813 15.667969 21.703125C15.609375 21.773438 15.503906 21.890625 15.433594 21.960938C15.363281 22.03125 15.274219 22.127344 15.236719 22.171875C15.201563 22.216406 15.117188 22.3125 15.049219 22.382813C14.983594 22.453125 14.90625 22.544531 14.875781 22.586719C14.819531 22.666406 14.707031 22.734375 14.632031 22.734375C14.5125 22.734375 14.388281 22.572656 14.414063 22.453125C14.423438 22.408594 14.554688 22.249219 14.772656 22.014844C15.276563 21.471094 15.557813 21.161719 15.616406 21.084375L15.667969 21.016406L15.667969 9.117188L15.728906 9.140625C15.761719 9.154688 15.839063 9.164063 15.902344 9.164063ZM9.440625 15.820313C9.611719 15.84375 9.986719 15.897656 10.277344 15.9375C10.567969 15.977344 11.242969 16.071094 11.777344 16.148438C12.311719 16.223438 12.914063 16.307812 13.113281 16.335938C13.3125 16.364063 13.851563 16.439062 14.308594 16.502344C14.765625 16.565625 15.185156 16.624219 15.241406 16.63125C15.367969 16.65 15.391406 16.692188 15.382031 16.89375L15.375 17.050781L15.28125 17.046094C15.229688 17.04375 15.09375 17.029688 14.976563 17.015625C14.861719 17.001563 14.676562 16.980469 14.566406 16.96875C14.45625 16.957031 14.308594 16.935938 14.238281 16.921875C14.027344 16.879688 13.863281 16.853906 13.640625 16.828125C13.190625 16.771875 13.06875 16.755469 12.644531 16.6875C12.560156 16.675781 12.391406 16.652344 12.269531 16.640625C11.939062 16.605469 11.709375 16.575 11.573438 16.546875C11.207812 16.474219 10.926562 16.436719 10.628906 16.415625C10.544531 16.408594 10.455469 16.394531 10.429688 16.382813C10.403906 16.371094 10.324219 16.357031 10.253906 16.35C10.183594 16.342969 10.061719 16.326563 9.984375 16.3125C9.829687 16.286719 9.510938 16.246875 9.257813 16.223438C9.16875 16.214063 9.063281 16.190625 9.023438 16.171875C8.882813 16.101563 8.861719 15.916406 8.98125 15.820313C9.05625 15.761719 9.060937 15.761719 9.440625 15.820313Z"/></svg>
