<svg xmlns="http://www.w3.org/2000/svg" width="24" height="24" viewBox="0 0 24 24"><path d="M14.25 11.5C14.6642 11.5 15 11.8358 15 12.25C15 12.6297 14.7178 12.9435 14.3518 12.9932L14.25 13H2.75C2.33579 13 2 12.6642 2 12.25C2 11.8703 2.28215 11.5565 2.64823 11.5068L2.75 11.5ZM14.25 5C14.6642 5 15 5.33579 15 5.75C15 6.1297 14.7178 6.44349 14.3518 6.49315L14.25 6.5H2.75C2.33579 6.5 2 6.16421 2 5.75C2 5.3703 2.28215 5.05651 2.64823 5.00685L2.75 5ZM14.25 18.0068C14.6642 18.0068 15 18.3426 15 18.7568C15 19.136499 14.7178 19.4503 14.3518 19.5L14.25 19.5068H2.75C2.33579 19.5068 2 19.171101 2 18.7568C2 18.377199 2.28215 18.0634 2.64823 18.0137L2.75 18.0068ZM21.7803 4.78033 19.2803 7.28033C18.9874 7.57322 18.5126 7.57322 18.2197 7.28033L17.2197 6.28033C16.9268 5.98744 16.9268 5.51256 17.2197 5.21967C17.5126 4.92678 17.9874 4.92678 18.2803 5.21967L18.75 5.68934L20.7197 3.71967C21.0126 3.42678 21.4874 3.42678 21.7803 3.71967C22.0732 4.01256 22.0732 4.48744 21.7803 4.78033ZM21.7803 10.2197C22.0732 10.5126 22.0732 10.9874 21.7803 11.2803L19.2803 13.7803C18.9874 14.0732 18.5126 14.0732 18.2197 13.7803L17.2197 12.7803C16.9268 12.4874 16.9268 12.0126 17.2197 11.7197C17.5126 11.4268 17.9874 11.4268 18.2803 11.7197L18.75 12.1893L20.7197 10.2197C21.0126 9.92678 21.4874 9.92678 21.7803 10.2197ZM21.7803 17.7803 19.2803 20.2803C18.9874 20.5732 18.5126 20.5732 18.2197 20.2803L17.2197 19.2803C16.9268 18.9874 16.9268 18.5126 17.2197 18.2197C17.5126 17.9268 17.9874 17.9268 18.2803 18.2197L18.75 18.689301L20.7197 16.7197C21.0126 16.4268 21.4874 16.4268 21.7803 16.7197C22.0732 17.0126 22.0732 17.4874 21.7803 17.7803Z"/></svg>
