<svg xmlns="http://www.w3.org/2000/svg" width="24" height="24" viewBox="0 0 24 24"><path d="M14.0039 17C14.5562 17 15.0039 17.447701 15.0039 18C15.0039 18.5128 14.6179 18.935499 14.1205 18.993299L14.0039 19H3C2.44772 19 2 18.552299 2 18C2 17.4872 2.38604 17.064501 2.88338 17.006701L3 17ZM14.0039 5C14.5562 5 15.0039 5.44772 15.0039 6C15.0039 6.51284 14.6179 6.93551 14.1205 6.99327L14.0039 7H3C2.44772 7 2 6.55228 2 6C2 5.48716 2.38604 5.06449 2.88338 5.00673L3 5ZM14.0039 11C14.5562 11 15.0039 11.4477 15.0039 12C15.0039 12.5128 14.6179 12.9355 14.1205 12.9932L14.0039 13H3C2.44772 13 2 12.5522 2 12C2 11.4871 2.38604 11.0645 2.88338 11.0067L3 11ZM21.7071 3.29289C22.097601 3.68342 22.097601 4.31658 21.7071 4.70711L19.7071 6.70711C19.316601 7.09763 18.683399 7.09763 18.2929 6.70711L17.2929 5.70711C16.902399 5.31658 16.902399 4.68342 17.2929 4.29289C17.683399 3.90237 18.316601 3.90237 18.7071 4.29289L19 4.58579L20.2929 3.29289C20.683399 2.90237 21.316601 2.90237 21.7071 3.29289ZM20.2929 9.79289C20.683399 9.40237 21.316601 9.40237 21.7071 9.79289C22.097601 10.1834 22.097601 10.8166 21.7071 11.2071L19.7071 13.2071C19.316601 13.5976 18.683399 13.5976 18.2929 13.2071L17.2929 12.2071C16.902399 11.8166 16.902399 11.1834 17.2929 10.7929C17.683399 10.4024 18.316601 10.4024 18.7071 10.7929L19 11.0858ZM21.7071 16.2929C22.097601 16.683399 22.097601 17.316601 21.7071 17.7071L19.7071 19.7071C19.316601 20.097601 18.683399 20.097601 18.2929 19.7071L17.2929 18.7071C16.902399 18.316601 16.902399 17.683399 17.2929 17.2929C17.683399 16.902399 18.316601 16.902399 18.7071 17.2929L19 17.5858L20.2929 16.2929C20.683399 15.9024 21.316601 15.9024 21.7071 16.2929Z"/></svg>
