<svg xmlns="http://www.w3.org/2000/svg" width="24" height="24" viewBox="0 0 24 24"><path d="M14 6.00008C14 6.51291 13.614 6.93558 13.1166 6.99335L13 7.00008H4.5C3.94772 7.00008 3.5 6.55236 3.5 6.00008C3.5 5.48724 3.88604 5.06457 4.38338 5.0068L4.5 5.00008H13C13.5523 5.00008 14 5.44779 14 6.00008ZM13 18.000099C13.5523 18.000099 14 18.4478 14 19.000099C14 19.512899 13.614 19.9356 13.1166 19.993299L13 20.000099H4.5C3.94772 20.000099 3.5 19.552401 3.5 19.000099C3.5 18.4872 3.88604 18.0646 4.38338 18.0068L4.5 18.000099ZM13 11.5001C13.5523 11.5001 14 11.9478 14 12.5001C14 13.0129 13.614 13.4356 13.1166 13.4933L13 13.5001H4.5C3.94772 13.5001 3.5 13.0524 3.5 12.5001C3.5 11.9872 3.88604 11.5646 4.38338 11.5068L4.5 11.5001ZM16.9697 21.280399C16.6768 20.987499 16.6768 20.5126 16.9697 20.2197C17.2586 19.930799 17.7246 19.926901 18.018299 20.208C18.0217 20.210899 18.030199 20.218 18.043699 20.228201C18.0744 20.2512 18.129999 20.289101 18.2104 20.3293C18.3687 20.4084 18.629601 20.500099 19 20.500099C19.3608 20.500099 19.535999 20.4002 19.608101 20.3365C19.6777 20.275 19.6982 20.2094 19.696301 20.149099C19.694201 20.084499 19.664 19.9974 19.5728 19.918301C19.484501 19.8417 19.309601 19.750099 19 19.750099C18.5858 19.750099 18.25 19.414301 18.25 19.000099C18.25 18.585899 18.5858 18.250099 19 18.250099C19.309601 18.250099 19.484501 18.158501 19.5728 18.0819C19.664 18.0028 19.694201 17.9156 19.696301 17.851101C19.6982 17.790701 19.6777 17.7251 19.608101 17.6637C19.535999 17.6 19.3608 17.500099 19 17.500099C18.629601 17.500099 18.3687 17.591801 18.2104 17.6709C18.129999 17.7111 18.0744 17.749001 18.043699 17.771999C18.030199 17.782101 18.0217 17.7892 18.018299 17.792101C17.7246 18.0732 17.2586 18.0693 16.9697 17.780399C16.6768 17.487499 16.6768 17.0126 16.9697 16.7197L16.9709 16.7185L16.971901 16.7176L16.974199 16.7152L16.979601 16.709999L16.992901 16.6973C17.002899 16.688 17.0151 16.6768 17.0296 16.6642C17.0585 16.638901 17.0965 16.607401 17.143801 16.572001C17.2381 16.5012 17.370001 16.414101 17.5396 16.3293C17.8813 16.1584 18.370399 16.000099 19 16.000099C19.6392 16.000099 20.195999 16.1814 20.601299 16.5396C21.009199 16.9 21.211599 17.3969 21.195499 17.899099C21.182199 18.3155 21.028999 18.694799 20.769899 19.000099C21.028999 19.305401 21.182199 19.6847 21.195499 20.101101C21.211599 20.603201 21.009199 21.1001 20.601299 21.4606C20.195999 21.818701 19.6392 22.000099 19 22.000099C18.370399 22.000099 17.8813 21.841801 17.5396 21.6709C17.370001 21.5861 17.2381 21.499001 17.143801 21.4282C17.0965 21.392799 17.0585 21.3613 17.0296 21.336C17.0151 21.323299 17.002899 21.312201 16.992901 21.302799L16.979601 21.290199L16.9743 21.284901C17.002674 21.310379 17.012316 21.318998 17.012342 21.31897C17.012396 21.318909 16.9697 21.280399 16.9697 21.280399ZM19.1509 10.52C18.8496 10.4668 18.4744 10.5864 18.2803 10.7805C17.9874 11.0733 17.512501 11.0733 17.2197 10.7804C16.9268 10.4875 16.9268 10.0127 17.2197 9.71977C17.7756 9.16393 18.6504 8.90848 19.4116 9.04278C19.809 9.11291 20.2173 9.29717 20.527201 9.64842C20.8426 10.0058 21 10.4727 21 11.0001C21 11.6195 20.729 12.0801 20.3941 12.4206C20.116301 12.7029 19.763201 12.9311 19.4883 13.1087L19.408701 13.1602C19.213499 13.2871 19.0543 13.3971 18.926901 13.5001H20.25C20.6642 13.5001 21 13.8359 21 14.2501C21 14.6643 20.6642 15.0001 20.25 15.0001H17.75C17.3358 15.0001 17 14.6643 17 14.2501C17 12.9365 17.9839 12.2972 18.5751 11.913L18.635201 11.8739C18.9526 11.6678 19.1684 11.5275 19.324699 11.3687C19.4585 11.2326 19.5 11.1307 19.5 11.0001C19.5 10.7775 19.4387 10.6819 19.4025 10.6409C19.3608 10.5937 19.2847 10.5436 19.1509 10.52ZM20.000099 2.75007V7.25007C20.000099 7.66429 19.664301 8.00007 19.250099 8.00007C18.835899 8.00007 18.500099 7.66429 18.500099 7.25007V4.88772C18.389601 4.97481 18.271999 5.05833 18.147499 5.13616C17.7962 5.35562 17.3335 5.24873 17.114 4.89743C16.8946 4.54613 17.0014 4.08344 17.352699 3.86399C17.735399 3.62496 18.0418 3.27544 18.259399 2.96255C18.365801 2.80953 18.445299 2.67364 18.497 2.57815C18.5228 2.53063 18.541401 2.49373 18.552799 2.47049C18.558399 2.45889 18.5623 2.45075 18.564301 2.44645L18.5658 2.44311C18.7103 2.12094 19.060101 1.94307 19.4058 2.0164C19.7523 2.08992 20.000099 2.39585 20.000099 2.75007Z"/></svg>
