<svg xmlns="http://www.w3.org/2000/svg" width="24" height="24" viewBox="0 0 24 24"><path d="M21 6C21 5.44772 20.55228 5 20 5L4 5C3.4477 5 3 5.44772 3 6C3 6.55228 3.4477 7 4 7L20 7C20.55228 7 21 6.55228 21 6ZM16 10C16 9.44772 15.55228 9 15 9L4 9C3.4477 9 3 9.44772 3 10C3 10.5523 3.4477 11 4 11L15 11C15.55228 11 16 10.5523 16 10ZM16 14C16 13.4477 15.55228 13 15 13L4 13C3.4477 13 3 13.4477 3 14C3 14.5523 3.4477 15 4 15L15 15C15.55228 15 16 14.5523 16 14ZM4 19L20 19C20.55228 19 21 18.5523 21 18C21 17.4477 20.55228 17 20 17L4 17C3.4477 17 3 17.4477 3 18C3 18.5523 3.4477 19 4 19ZM20.70711 11.2071C21.09763 10.8166 21.09763 10.1834 20.70711 9.79289C20.31658 9.40237 19.68342 9.40237 19.29289 9.79289L17.79289 11.2929C17.40237 11.6834 17.40237 12.3166 17.79289 12.7071L19.29289 14.2071C19.68342 14.5976 20.31658 14.5976 20.70711 14.2071C21.09763 13.8166 21.09763 13.1834 20.70711 12.7929L19.91421 12L20.70711 11.2071Z"/></svg>
