<svg xmlns="http://www.w3.org/2000/svg" width="24" height="24" viewBox="0 0 24 24"><path d="M14 12.2437C14 12.658 13.6642 12.9937 13.25 12.9937H4.25C3.83579 12.9937 3.5 12.658 3.5 12.2437C3.5 11.8295 3.83579 11.4937 4.25 11.4937H13.25C13.6642 11.4937 14 11.8295 14 12.2437ZM14 5.75008C14 6.16429 13.6642 6.50008 13.25 6.50008H4.25C3.83579 6.50008 3.5 6.16429 3.5 5.75008C3.5 5.33586 3.83579 5.00008 4.25 5.00008H13.25C13.6642 5.00008 14 5.33586 14 5.75008ZM14 18.750099C14 19.164301 13.6642 19.500099 13.25 19.500099H4.25C3.83579 19.500099 3.5 19.164301 3.5 18.750099C3.5 18.335899 3.83579 18.000099 4.25 18.000099H13.25C13.6642 18.000099 14 18.335899 14 18.750099ZM19.245199 6.5C19.084801 6.2222 18.928499 5.9631 18.7764 5.7224C18.624201 5.4818 18.470699 5.251 18.315701 5.0301C18.264191 4.956643 18.211464 4.88354 18.15752 4.810787C18.067509 4.851995 17.996923 4.910877 17.9459 4.9875C17.887199 5.0755 17.8444 5.1775 17.817301 5.2934C17.7903 5.4094 17.766199 5.5325 17.7451 5.6626L17.617201 6.5H16.7854L16.9174 5.6131C16.947599 5.4133 16.996 5.2242 17.062401 5.0459C17.128901 4.8676 17.232 4.7091 17.371799 4.5702C17.475525 4.467143 17.608372 4.382913 17.77038 4.317469C17.709066 4.240597 17.642921 4.156857 17.571899 4.0663C17.482 3.9517 17.3927 3.8373 17.303699 3.7232C17.2148 3.6091 17.132999 3.5046 17.0583 3.4097C16.983601 3.3148 16.9224 3.2399 16.874701 3.1849H17.897699C17.9692 3.2701 18.0474 3.3705 18.1322 3.486C18.216999 3.6015 18.302 3.7177 18.387199 3.8346C18.4725 3.9514 18.548599 4.0575 18.615499 4.1529C18.709248 4.292437 18.804754 4.432777 18.902023 4.573905C18.978046 4.534019 19.039061 4.48353 19.0851 4.4224C19.1506 4.3353 19.1987 4.2331 19.229401 4.1158C19.260099 3.9984 19.2815 3.8774 19.2934 3.7528L19.360701 3.1849H20.1926L20.1294 3.8023C20.111 3.9993 20.063601 4.1875 19.987101 4.3667C19.9105 4.5459 19.7959 4.7038 19.643299 4.8404C19.53718 4.935393 19.407896 5.015298 19.255415 5.080114C19.397068 5.282064 19.539446 5.485859 19.682501 5.6915C19.864901 5.9537 20.0418 6.2232 20.2132 6.5ZM17.038401 13.5V12.8111H18.7544V11.3646C18.7544 11.2005 18.7138 11.0777 18.6327 10.9961C18.5516 10.9145 18.4349 10.8738 18.282801 10.8738H17.2034L17.2927 10.1849H18.3267C18.743799 10.1849 19.058701 10.2825 19.2714 10.4778C19.483999 10.673 19.590401 10.9631 19.590401 11.3481V12.8111H20.002899L19.9135 13.5ZM18.764 20.227501 18.6073 19.5166H18.5495C18.4881 19.643101 18.426701 19.750099 18.3652 19.8377C18.303801 19.9252 18.237801 19.995399 18.1672 20.0481C18.096701 20.1008 18.016899 20.139299 17.927999 20.163601C17.8391 20.187901 17.735001 20.200001 17.6159 20.200001H17.4839V19.4946H17.611799C17.7181 19.491899 17.817499 19.476101 17.910101 19.447201C18.002701 19.418301 18.086599 19.379601 18.1618 19.330999C18.2369 19.2824 18.3018 19.232 18.3563 19.179701C18.4109 19.127501 18.4533 19.076599 18.4835 19.0271V17.936701C18.4835 17.7983 18.451599 17.703899 18.387899 17.6535C18.3242 17.6031 18.2145 17.5779 18.058599 17.5779H17.7355L17.8249 16.884899H18.2841C18.522499 16.884899 18.717501 16.922001 18.8692 16.996201C19.020901 17.070499 19.1339 17.179399 19.208099 17.3228C19.2824 17.466299 19.3195 17.6434 19.3195 17.8543V19.232L19.5051 20.095501Z"/></svg>
