<svg xmlns="http://www.w3.org/2000/svg" width="24" height="24" viewBox="0 0 24 24"><path d="M16.503099 17 16.619801 17.006701C17.1171 17.064501 17.503099 17.4872 17.503099 18C17.503099 18.552299 17.055401 19 16.503099 19H3L2.88338 18.993299C2.38604 18.935499 2 18.5128 2 18C2 17.447701 2.44772 17 3 17ZM16.503099 11 16.619801 11.0067C17.1171 11.0645 17.503099 11.4872 17.503099 12C17.503099 12.5523 17.055401 13 16.503099 13H3L2.88338 12.9933C2.38604 12.9355 2 12.5128 2 12C2 11.4477 2.44772 11 3 11ZM16.503099 5.00082 16.619801 5.00755C17.1171 5.06532 17.503099 5.48799 17.503099 6.00082C17.503099 6.55311 17.055401 7.00082 16.503099 7.00082H3L2.88338 6.9941C2.38604 6.93633 2 6.51366 2 6.00082C2 5.44854 2.44772 5.00082 3 5.00082ZM20.504101 4.50781C21.332199 4.50781 22.0035 5.17912 22.0035 6.00723C22.0035 6.83533 21.332199 7.50664 20.504101 7.50664C19.676001 7.50664 19.004601 6.83533 19.004601 6.00723C19.004601 5.17912 19.676001 4.50781 20.504101 4.50781ZM20.504101 10.5006C21.332199 10.5006 22.0035 11.1719 22.0035 12C22.0035 12.8281 21.332199 13.4994 20.504101 13.4994C19.676001 13.4994 19.004601 12.8281 19.004601 12C19.004601 11.1719 19.676001 10.5006 20.504101 10.5006ZM20.504101 16.500601C21.332199 16.500601 22.0035 17.1719 22.0035 18C22.0035 18.8281 21.332199 19.499399 20.504101 19.499399C19.676001 19.499399 19.004601 18.8281 19.004601 18C19.004601 17.1719 19.676001 16.500601 20.504101 16.500601Z"/></svg>
