<svg xmlns="http://www.w3.org/2000/svg" width="24" height="24" viewBox="0 0 24 24"><path d="M20.25 5C20.664209 5 21 5.33579 21 5.75C21 6.16421 20.664209 6.5 20.25 6.5H3.75C3.3358 6.5 3 6.16421 3 5.75C3 5.33579 3.3358 5 3.75 5ZM20.25 17C20.664209 17 21 17.3358 21 17.75C21 18.1642 20.664209 18.5 20.25 18.5H3.75C3.3358 18.5 3 18.1642 3 17.75C3 17.3358 3.3358 17 3.75 17ZM15.25 9C15.66421 9 16 9.33579 16 9.75C16 10.1642 15.66421 10.5 15.25 10.5H3.75C3.3358 10.5 3 10.1642 3 9.75C3 9.33579 3.3358 9 3.75 9ZM16 13.75C16 14.1642 15.66421 14.5 15.25 14.5H3.75C3.3358 14.5 3 14.1642 3 13.75C3 13.3358 3.3358 13 3.75 13H15.25C15.66421 13 16 13.3358 16 13.75ZM20.780331 11.0303 19.810659 12 20.780331 12.9697C21.073219 13.2626 21.073219 13.7374 20.780331 14.0303C20.48744 14.3232 20.01256 14.3232 19.719669 14.0303L18.219669 12.5303C17.926781 12.2374 17.926781 11.7626 18.219669 11.4697L19.719669 9.96967C20.01256 9.67678 20.48744 9.67678 20.780331 9.96967C21.073219 10.2626 21.073219 10.7374 20.780331 11.0303Z"/></svg>
