<svg xmlns="http://www.w3.org/2000/svg" width="24" height="24" viewBox="0 0 24 24"><path d="M17.25 18 17.351801 18.0068C17.7178 18.056499 18 18.3703 18 18.75C18 19.1642 17.6642 19.5 17.25 19.5H2.75L2.64823 19.4932C2.28215 19.443501 2 19.1297 2 18.75C2 18.3358 2.33579 18 2.75 18ZM17.25 11.5 17.351801 11.5068C17.7178 11.5565 18 11.8703 18 12.25C18 12.6642 17.6642 13 17.25 13H2.75L2.64823 12.9932C2.28215 12.9435 2 12.6297 2 12.25C2 11.8358 2.33579 11.5 2.75 11.5ZM17.25 5 17.351801 5.00685C17.7178 5.05651 18 5.3703 18 5.75C18 6.16421 17.6642 6.5 17.25 6.5H2.75L2.64823 6.49315C2.28215 6.44349 2 6.1297 2 5.75C2 5.33579 2.33579 5 2.75 5ZM20.7507 17.5C21.440701 17.5 22 18.059299 22 18.7493C22 19.439301 21.440701 19.9986 20.7507 19.9986C20.060699 19.9986 19.5014 19.439301 19.5014 18.7493C19.5014 18.059299 20.060699 17.5 20.7507 17.5ZM20.7507 11C21.440701 11 22 11.5593 22 12.2493C22 12.9393 21.440701 13.4986 20.7507 13.4986C20.060699 13.4986 19.5014 12.9393 19.5014 12.2493C19.5014 11.5593 20.060699 11 20.7507 11ZM20.7507 4.5C21.440701 4.5 22 5.05933 22 5.74929C22 6.43925 21.440701 6.99858 20.7507 6.99858C20.060699 6.99858 19.5014 6.43925 19.5014 5.74929C19.5014 5.05933 20.060699 4.5 20.7507 4.5Z"/></svg>
