<svg width="24" height="24" viewBox="0 0 24 24" fill="none" xmlns="http://www.w3.org/2000/svg">
  <!-- הקווים האופקיים והמבנה הראשי של האייקון -->
  <path d="M14 18.7501C14 18.3359 13.6642 18.0001 13.25 18.0001H4.25C3.83579 18.0001 3.5 18.3359 3.5 18.7501C3.5 19.1643 3.83579 19.5001 4.25 19.5001H13.25C13.6642 19.5001 14 19.1643 14 18.7501ZM14 12.2437C14 11.8295 13.6642 11.4937 13.25 11.4937H4.25C3.83579 11.4937 3.5 11.8295 3.5 12.2437C3.5 12.658 3.83579 12.9937 4.25 12.9937H13.25C13.6642 12.9937 14 12.658 14 12.2437ZM14 5.75008C14 5.33586 13.6642 5.00008 13.25 5.00008H4.25C3.83579 5.00008 3.5 5.33586 3.5 5.75008C3.5 6.16429 3.83579 6.50008 4.25 6.50008H13.25C13.6642 6.50008 14 6.16429 14 5.75008Z" fill="#212121"/>

  <!-- אותיות א-ב-ג, ממירות מטקסט (Noto Sans Hebrew Bold) ל-path -->
  <path d="M19.2452,6.5 C19.0848,6.2222 18.9285,5.9631 18.7764,5.7224 C18.6242,5.4818 18.4707,5.251 18.3157,5.0301 C18.1608,4.8092 17.9949,4.5915 17.818,4.377 C17.7437,4.2844 17.6617,4.1808 17.5719,4.0663 C17.482,3.9517 17.3927,3.8373 17.3037,3.7232 C17.2148,3.6091 17.133,3.5046 17.0583,3.4097 C16.9836,3.3148 16.9224,3.2399 16.8747,3.1849 L17.8977,3.1849 C17.9692,3.2701 18.0474,3.3705 18.1322,3.486 C18.217,3.6015 18.302,3.7177 18.3872,3.8346 C18.4725,3.9514 18.5486,4.0575 18.6155,4.1529 C18.7842,4.404 18.9586,4.6577 19.1387,4.9139 C19.3188,5.1701 19.5001,5.4293 19.6825,5.6915 C19.8649,5.9537 20.0418,6.2232 20.2132,6.5 Z M16.7854,6.5 L16.9174,5.6131 C16.9476,5.4133 16.996,5.2242 17.0624,5.0459 C17.1289,4.8676 17.232,4.7091 17.3718,4.5702 C17.5116,4.4313 17.7043,4.3266 17.95,4.256 L18.1989,4.7936 C18.0889,4.8349 18.0045,4.8995 17.9459,4.9875 C17.8872,5.0755 17.8444,5.1775 17.8173,5.2934 C17.7903,5.4094 17.7662,5.5325 17.7451,5.6626 L17.6172,6.5 Z M19.0417,5.1566 L18.797,4.619 C18.9235,4.575 19.0195,4.5095 19.0851,4.4224 C19.1506,4.3353 19.1987,4.2331 19.2294,4.1158 C19.2601,3.9984 19.2815,3.8774 19.2934,3.7528 L19.3607,3.1849 L20.1926,3.1849 L20.1294,3.8023 C20.111,3.9993 20.0636,4.1875 19.9871,4.3667 C19.9105,4.5459 19.7959,4.7038 19.6433,4.8404 C19.4907,4.977 19.2902,5.0824 19.0417,5.1566 Z M18.7544,13.5 L18.7544,11.3646 C18.7544,11.2005 18.7138,11.0777 18.6327,10.9961 C18.5516,10.9145 18.4349,10.8738 18.2828,10.8738 L17.2034,10.8738 L17.2927,10.1849 L18.3267,10.1849 C18.7438,10.1849 19.0587,10.2825 19.2714,10.4778 C19.484,10.673 19.5904,10.9631 19.5904,11.3481 L19.5904,12.8703 C19.5629,12.9775 19.5136,13.0847 19.4426,13.192 C19.3715,13.2992 19.2993,13.4019 19.226,13.5 Z M17.0384,13.5 L17.0384,12.8111 L20.0029,12.8111 L19.9135,13.5 Z M18.764,20.2275 L18.6073,19.5166 L18.5495,19.5166 C18.4881,19.6431 18.4267,19.7501 18.3652,19.8377 C18.3038,19.9252 18.2378,19.9954 18.1672,20.0481 C18.0967,20.1008 18.0169,20.1393 17.928,20.1636 C17.8391,20.1879 17.735,20.2 17.6159,20.2 L17.4839,20.2 L17.4839,19.4946 L17.6118,19.4946 C17.7181,19.4919 17.8175,19.4761 17.9101,19.4472 C18.0027,19.4183 18.0866,19.3796 18.1618,19.331 C18.2369,19.2824 18.3018,19.232 18.3563,19.1797 C18.4109,19.1275 18.4533,19.0766 18.4835,19.0271 L18.4835,17.9367 C18.4835,17.7983 18.4516,17.7039 18.3879,17.6535 C18.3242,17.6031 18.2145,17.5779 18.0586,17.5779 L17.7355,17.5779 L17.8249,16.8849 L18.2841,16.8849 C18.5225,16.8849 18.7175,16.922 18.8692,16.9962 C19.0209,17.0705 19.1339,17.1794 19.2081,17.3228 C19.2824,17.4663 19.3195,17.6434 19.3195,17.8543 L19.3195,19.232 L19.5051,20.0955 Z" fill="#212121"/>
</svg>
