<svg xmlns="http://www.w3.org/2000/svg" width="24" height="24" viewBox="0 0 24 24"><path d="M4 19C3.4477 19 3 18.552299 3 18C3 17.447701 3.4477 17 4 17H20C20.55228 17 21 17.447701 21 18C21 18.552299 20.55228 19 20 19ZM21 6C21 6.55228 20.55228 7 20 7H4C3.4477 7 3 6.55228 3 6C3 5.44772 3.4477 5 4 5H20C20.55228 5 21 5.44772 21 6ZM16 14C16 14.5523 15.55228 15 15 15H4C3.4477 15 3 14.5523 3 14C3 13.4477 3.4477 13 4 13H15C15.55228 13 16 13.4477 16 14ZM16 10C16 10.5523 15.55228 11 15 11H4C3.4477 11 3 10.5523 3 10C3 9.44772 3.4477 9 4 9H15C15.55228 9 16 9.44772 16 10ZM20.707109 11.2071 19.914209 12 20.707109 12.7929C21.09763 13.1834 21.09763 13.8166 20.707109 14.2071C20.31658 14.5976 19.68342 14.5976 19.292891 14.2071L17.792891 12.7071C17.40237 12.3166 17.40237 11.6834 17.792891 11.2929L19.292891 9.79289C19.68342 9.40237 20.31658 9.40237 20.707109 9.79289C21.09763 10.1834 21.09763 10.8166 20.707109 11.2071Z"/></svg>
