<svg xmlns="http://www.w3.org/2000/svg" width="24" height="24" viewBox="0 0 24 24"><path d="M20.25 5C20.66421 5 21 5.33579 21 5.75C21 6.16421 20.66421 6.5 20.25 6.5L3.75 6.5C3.3358 6.5 3 6.16421 3 5.75C3 5.33579 3.3358 5 3.75 5L20.25 5ZM15.25 9C15.66421 9 16 9.33579 16 9.75C16 10.1642 15.66421 10.5 15.25 10.5L3.75 10.5C3.3358 10.5 3 10.1642 3 9.75C3 9.33579 3.3358 9 3.75 9L15.25 9ZM16 13.75C16 13.3358 15.66421 13 15.25 13L3.75 13C3.3358 13 3 13.3358 3 13.75C3 14.1642 3.3358 14.5 3.75 14.5L15.25 14.5C15.66421 14.5 16 14.1642 16 13.75ZM20.25 17C20.66421 17 21 17.3358 21 17.75C21 18.1642 20.66421 18.5 20.25 18.5L3.75 18.5C3.3358 18.5 3 18.1642 3 17.75C3 17.3358 3.3358 17 3.75 17L20.25 17ZM20.78033 11.0303C21.07322 10.7374 21.07322 10.2626 20.78033 9.96967C20.48744 9.67678 20.01256 9.67678 19.71967 9.96967L18.21967 11.4697C17.92678 11.7626 17.92678 12.2374 18.21967 12.5303L19.71967 14.0303C20.01256 14.3232 20.48744 14.3232 20.78033 14.0303C21.07322 13.7374 21.07322 13.2626 20.78033 12.9697L19.81066 12L20.78033 11.0303Z"/></svg>
