<svg xmlns="http://www.w3.org/2000/svg" width="24" height="24" viewBox="0 0 24 24"><path d="M4.232019 1.787471C4.399072 1.642691 4.47703 1.614849 4.710905 1.614849C5.056148 1.614849 5.267749 1.731787 5.423666 2.00464C5.562877 2.25522 5.574014 2.594896 5.457077 3.146172C5.356845 3.625058 5.351276 4.321114 5.44594 4.510441C5.507193 4.632947 5.562877 4.65522 6.075174 4.710905C6.765661 4.783295 7.044084 4.911369 7.138747 5.189791C7.27239 5.585151 7.071926 5.986079 6.704408 6.064037C6.559629 6.097448 6.52065 6.130858 6.531787 6.214385C6.542923 6.27007 6.570766 6.431555 6.587471 6.570766L6.62645 6.821346L12.044548 6.838051L17.457077 6.849188V6.682135C17.457077 6.587471 17.496056 6.431555 17.546171 6.336891C17.640835 6.153132 17.596289 6.069606 17.395824 6.069606C17.106264 6.069606 16.844547 5.596288 16.955915 5.267749C17.078423 4.894664 17.351276 4.766589 18.136427 4.699768C18.370302 4.677494 18.593039 4.644084 18.637587 4.616241C18.73782 4.554988 18.73782 3.58051 18.632019 2.945708C18.531788 2.322042 18.576334 2.110441 18.854755 1.832019C19.05522 1.631555 19.0942 1.614849 19.383759 1.614849C19.673319 1.614849 19.712297 1.631555 19.907192 1.82645C20.174479 2.093735 20.224594 2.333179 20.135498 2.923434C19.974014 3.920186 20.001856 4.588399 20.196753 4.644084C20.235731 4.65522 20.519722 4.6942 20.820417 4.72761C21.187935 4.772158 21.432947 4.827842 21.555452 4.9058C22.023203 5.19536 21.889559 5.952668 21.343851 6.064037C21.199072 6.097448 21.165661 6.12529 21.187935 6.214385C21.199072 6.27007 21.221346 8.959629 21.226913 12.17819L21.24362 18.041763L21.471926 18.153131C21.772621 18.30905 21.895128 18.581903 21.800465 18.888166C21.700232 19.238979 21.516474 19.316936 20.553131 19.4116C20.191183 19.445011 20.168909 19.456148 20.096519 19.634338C19.985151 19.896055 20.001856 20.441763 20.12993 21.132252C20.258005 21.778191 20.230162 22.017633 20.012993 22.296057C19.645475 22.758238 18.932714 22.691416 18.670998 22.162413C18.548492 21.92297 18.542923 21.638979 18.654291 21.06543C18.821346 20.20789 18.73225 19.433874 18.470533 19.433874C18.075174 19.433874 17.356846 19.305799 17.200928 19.205568C16.994896 19.077494 16.955915 19.005104 16.955915 18.709976C16.955915 18.476103 17.150812 18.186543 17.345709 18.12529C17.418097 18.103016 17.457077 18.041763 17.457077 17.952667V17.819027H12.027842C6.704408 17.819027 6.598608 17.819027 6.598608 17.924826C6.598608 17.997215 6.682135 18.080742 6.838051 18.164268C7.122042 18.320187 7.238979 18.587471 7.149884 18.893736C7.066357 19.194431 6.838051 19.305799 6.119722 19.389326C5.562877 19.456148 5.512761 19.472855 5.44594 19.600927C5.340139 19.812529 5.356845 20.519722 5.490487 21.148956C5.618561 21.783758 5.585151 22.03434 5.345708 22.318329C5.039443 22.685846 4.499304 22.70812 4.159629 22.368444C3.992575 22.201391 3.959165 22.123434 3.936891 21.872854C3.925754 21.705799 3.942459 21.399536 3.981439 21.182367C4.098376 20.530857 4.115081 19.879351 4.014849 19.651045C3.936891 19.467285 3.909049 19.445011 3.636195 19.41717C3.47471 19.394896 3.268677 19.378189 3.174014 19.378189C2.90116 19.378189 2.583759 19.266821 2.444548 19.127609C2.177262 18.860325 2.316473 18.286776 2.678422 18.153131L2.812065 18.097448V12.339675C2.812065 7.227842 2.823202 6.559629 2.90116 6.37587C2.990255 6.153132 2.951276 6.069606 2.750812 6.069606C2.594896 6.069606 2.372158 5.846868 2.305336 5.62413C2.249652 5.44594 2.25522 5.379118 2.344316 5.19536C2.483527 4.911369 2.756381 4.783295 3.407889 4.710905C4.087239 4.632947 4.109513 4.605104 4.076102 3.925754C4.059397 3.647332 4.020418 3.196288 3.97587 2.917865C3.886775 2.288631 3.942459 2.043619 4.232019 1.787471ZM17.44594 12.306265 17.457077 7.238979H6.598608V12.272854C6.598608 15.346636 6.620882 17.323435 6.648724 17.345709C6.682135 17.362413 9.115545 17.37355 12.066821 17.37355H17.429234ZM5.774478 6.23109C5.379118 6.080742 4.387935 6.030626 3.953596 6.141995C3.597216 6.236659 3.32993 6.37587 3.257541 6.515081C3.218561 6.587471 3.207425 8.430626 3.212993 12.17819L3.213046 12.195687V12.195713C3.229698 17.696602 3.229816 17.735487 3.341067 17.724361C3.40232 17.718794 3.563805 17.685383 3.703016 17.646404C4.081671 17.540604 5.55174 17.551741 5.896984 17.668676C6.047332 17.718794 6.192111 17.746635 6.219954 17.729931C6.242227 17.713224 6.264501 15.201856 6.264501 12.150348C6.264501 7.289095 6.253364 6.581903 6.180974 6.476102C6.136427 6.409281 5.952668 6.297912 5.774478 6.23109ZM20.419491 6.23109C20.029697 6.080742 19.088631 6.036195 18.62645 6.141995C18.292343 6.219954 18.013922 6.348028 17.913689 6.476102C17.863573 6.537355 17.852436 7.907193 17.858006 12.14478L17.858059 12.162277V12.162374C17.87471 17.696602 17.874826 17.735487 17.986078 17.724361C18.047333 17.718794 18.208817 17.685383 18.348028 17.646404C18.73225 17.540604 20.196753 17.551741 20.547564 17.668676C20.697912 17.718794 20.825987 17.752205 20.837124 17.741068C20.848261 17.735498 20.859398 15.207425 20.864965 12.122506C20.870535 7.651044 20.859398 6.503944 20.803713 6.437123C20.764732 6.392575 20.592112 6.297912 20.419491 6.23109ZM6.086311 5.106265C5.134107 5.033875 4.321114 5.022738 3.658469 5.072854C2.851044 5.139675 2.700696 5.184223 2.700696 5.356845V5.484919L4.744316 5.473782C6.431555 5.468213 6.787935 5.457077 6.776798 5.390255C6.737819 5.217633 6.542923 5.139675 6.086311 5.106265ZM20.731323 5.106265C19.779118 5.033875 18.966125 5.022738 18.30348 5.072854C17.496056 5.139675 17.345709 5.184223 17.345709 5.356845V5.484919L19.389326 5.473782C21.076567 5.468213 21.432947 5.457077 21.42181 5.390255C21.382832 5.217633 21.187935 5.139675 20.731323 5.106265ZM6.676566 18.576334C6.62645 18.559629 5.724362 18.542923 4.671926 18.542923C3.018097 18.542923 2.750812 18.55406 2.72297 18.62645C2.65058 18.815777 2.739675 18.865892 3.240835 18.91044C3.875638 18.971695 5.529466 18.971695 6.225522 18.91601C6.737819 18.871462 6.765661 18.860325 6.765661 18.73782C6.765661 18.665428 6.726682 18.593039 6.676566 18.576334ZM21.343851 18.609745C21.293736 18.559629 20.770302 18.542923 19.339211 18.542923C17.663109 18.542923 17.395824 18.55406 17.367981 18.62645C17.290024 18.821346 17.384687 18.865892 17.94153 18.91044C18.654291 18.971695 20.180046 18.971695 20.870535 18.91601C21.321577 18.871462 21.410673 18.849188 21.410673 18.771231C21.410673 18.721113 21.382832 18.648724 21.343851 18.609745ZM7.556381 13.620418C7.645476 13.553596 11.465429 13.536891 11.532251 13.603712C11.554524 13.620418 11.554524 13.676102 11.537819 13.726218C11.504408 13.798608 11.253828 13.809745 9.52761 13.809745C7.550812 13.809745 7.328074 13.787471 7.556381 13.620418ZM12.567981 13.620418C12.657077 13.553596 16.482599 13.542459 16.549419 13.603712C16.566126 13.620418 16.566126 13.676102 16.549419 13.726218C16.516008 13.798608 16.265429 13.809745 14.539211 13.809745C12.562413 13.809745 12.339675 13.787471 12.567981 13.620418ZM7.511833 11.03109C7.539675 10.986543 8.146636 10.969838 9.555452 10.969838C11.225986 10.969838 11.554524 10.980974 11.554524 11.047796C11.554524 11.092343 11.515545 11.142459 11.465429 11.159165C11.326218 11.209281 7.639907 11.198144 7.550812 11.142459C7.511833 11.114617 7.495128 11.064501 7.511833 11.03109ZM12.540139 15.613921C12.562413 15.5471 12.885383 15.535963 14.550348 15.5471C16.393503 15.563805 16.538282 15.569374 16.554989 15.658469C16.571693 15.753132 16.449188 15.758701 14.572622 15.758701C13.475638 15.758701 12.562413 15.741995 12.540139 15.72529C12.523434 15.708585 12.523434 15.658469 12.540139 15.613921ZM12.562413 9.037587C12.618097 8.976334 12.991183 8.965197 14.583759 8.976334C16.393503 8.993039 16.538282 8.998608 16.554989 9.087703C16.571693 9.182367 16.449188 9.187935 14.572622 9.187935C13.475638 9.187935 12.556845 9.17123 12.540139 9.148956C12.517865 9.132251 12.529002 9.082135 12.562413 9.037587ZM12.562413 9.7058C12.618097 9.644548 12.991183 9.633411 14.583759 9.644548C16.393503 9.661253 16.538282 9.666821 16.554989 9.755916C16.571693 9.85058 16.449188 9.856148 14.572622 9.856148C13.475638 9.856148 12.556845 9.839443 12.540139 9.817169C12.517865 9.800464 12.529002 9.750348 12.562413 9.7058ZM12.523434 16.265429C12.551276 16.220882 13.186079 16.204176 14.567053 16.204176C16.449188 16.204176 16.571693 16.209745 16.554989 16.29884C16.538282 16.393503 16.393503 16.399073 14.561485 16.415777C13.408817 16.421347 12.567981 16.40464 12.540139 16.376799C12.512297 16.348955 12.506729 16.29884 12.523434 16.265429ZM12.523434 12.980046C12.551276 12.935499 13.186079 12.918794 14.567053 12.918794C16.449188 12.918794 16.571693 12.924362 16.554989 13.013457C16.538282 13.108121 16.393503 13.113689 14.561485 13.130394C13.408817 13.135963 12.567981 13.119258 12.540139 13.091415C12.512297 13.063573 12.506729 13.013457 12.523434 12.980046ZM7.511833 12.980046C7.539675 12.935499 8.174478 12.918794 9.555452 12.918794C11.437587 12.918794 11.560093 12.924362 11.543387 13.013457C11.526682 13.108121 11.381903 13.113689 9.549884 13.130394C8.397216 13.135963 7.556381 13.119258 7.528538 13.091415C7.500696 13.063573 7.495128 13.013457 7.511833 12.980046ZM7.511833 16.265429C7.539675 16.220882 8.174478 16.204176 9.555452 16.204176C11.437587 16.204176 11.560093 16.209745 11.543387 16.29884C11.526682 16.393503 11.381903 16.399073 9.549884 16.415777C8.397216 16.421347 7.556381 16.40464 7.528538 16.376799C7.500696 16.348955 7.495128 16.29884 7.511833 16.265429ZM12.523434 10.362877C12.551276 10.318329 13.186079 10.301624 14.567053 10.301624C16.449188 10.301624 16.571693 10.307193 16.554989 10.396288C16.538282 10.490951 16.393503 10.49652 14.561485 10.513225C13.408817 10.518794 12.567981 10.502088 12.540139 10.474246C12.512297 10.446404 12.506729 10.396288 12.523434 10.362877ZM7.511833 10.362877C7.539675 10.318329 8.174478 10.301624 9.555452 10.301624C11.437587 10.301624 11.560093 10.307193 11.543387 10.396288C11.526682 10.490951 11.381903 10.49652 9.549884 10.513225C8.397216 10.518794 7.556381 10.502088 7.528538 10.474246C7.500696 10.446404 7.495128 10.396288 7.511833 10.362877ZM12.534571 11.019954C12.551276 10.992111 13.464501 10.969838 14.567053 10.969838C16.449188 10.969838 16.571693 10.975406 16.554989 11.064501C16.538282 11.159165 16.393503 11.164733 14.594896 11.181439C12.696056 11.192575 12.439907 11.17587 12.534571 11.019954ZM7.561949 9.004176C7.59536 8.987471 8.503016 8.981903 9.577726 8.981903C11.381903 8.993039 11.526682 8.998608 11.543387 9.087703C11.560093 9.182367 11.437587 9.187935 9.52761 9.187935C7.806961 9.187935 7.489559 9.176798 7.489559 9.109977C7.489559 9.065429 7.52297 9.015313 7.561949 9.004176ZM7.545244 11.626914C7.578654 11.615777 8.486311 11.610209 9.561021 11.610209C11.387471 11.610209 11.526682 11.615777 11.543387 11.704872C11.560093 11.799536 11.437587 11.805104 9.52761 11.805104C7.806961 11.805104 7.489559 11.793968 7.489559 11.727146C7.489559 11.682599 7.517401 11.638051 7.545244 11.626914ZM12.545708 11.643619C12.57355 11.626914 13.486775 11.610209 14.567053 11.610209C16.399073 11.610209 16.538282 11.615777 16.554989 11.704872C16.571693 11.799536 16.449188 11.805104 14.567053 11.805104C13.158237 11.805104 12.551276 11.788399 12.523434 11.743852C12.506729 11.710441 12.512297 11.665893 12.545708 11.643619ZM7.545244 14.244084C7.578654 14.232947 8.486311 14.227378 9.566589 14.232947C11.359629 14.232947 11.526682 14.244084 11.543387 14.32761C11.560093 14.416705 11.404176 14.422274 9.52761 14.422274C7.806961 14.422274 7.489559 14.411137 7.489559 14.344316C7.489559 14.299768 7.517401 14.25522 7.545244 14.244084ZM7.517401 15.597216C7.539675 15.552668 8.141067 15.541531 9.538747 15.5471C11.264965 15.563805 11.526682 15.574942 11.526682 15.647332C11.526682 15.719722 11.264965 15.730858 9.555452 15.747564C8.397216 15.753132 7.556381 15.736427 7.528538 15.708585C7.500696 15.680742 7.495128 15.630626 7.517401 15.597216ZM7.545244 9.689095C7.59536 9.655684 8.41949 9.638979 9.577726 9.650116C11.264965 9.661253 11.526682 9.67239 11.526682 9.74478C11.526682 9.817169 11.264965 9.828306 9.555452 9.845012C7.617633 9.856148 7.316937 9.833875 7.545244 9.689095ZM12.545708 14.260789C12.57355 14.244084 13.486775 14.227378 14.572622 14.232947C16.371229 14.232947 16.538282 14.244084 16.554989 14.32761C16.571693 14.416705 16.421347 14.422274 14.567053 14.422274C13.158237 14.422274 12.551276 14.405568 12.523434 14.361021C12.506729 14.32761 12.512297 14.283063 12.545708 14.260789ZM7.528538 8.391647C7.545244 8.369374 8.464037 8.352668 9.561021 8.352668C11.298376 8.352668 11.554524 8.363805 11.554524 8.436195C11.554524 8.508585 11.292807 8.519722 9.522042 8.519722C8.402784 8.519722 7.489559 8.497448 7.489559 8.475174C7.489559 8.447332 7.506265 8.408353 7.528538 8.391647ZM12.540139 8.386079C12.556845 8.369374 13.475638 8.352668 14.572622 8.352668C16.309977 8.352668 16.566126 8.363805 16.566126 8.436195C16.566126 8.508585 16.304407 8.519722 14.567053 8.519722C13.464501 8.519722 12.551276 8.497448 12.534571 8.469606C12.517865 8.447332 12.517865 8.408353 12.540139 8.386079ZM7.528538 12.339675C7.545244 12.32297 8.464037 12.306265 9.561021 12.306265C11.298376 12.306265 11.554524 12.317401 11.554524 12.389791C11.554524 12.462181 11.292807 12.473318 9.555452 12.473318C8.4529 12.473318 7.539675 12.451044 7.52297 12.423202C7.506265 12.400928 7.506265 12.361949 7.528538 12.339675ZM12.540139 12.339675C12.556845 12.32297 13.475638 12.306265 14.572622 12.306265C16.309977 12.306265 16.566126 12.317401 16.566126 12.389791C16.566126 12.462181 16.304407 12.473318 14.567053 12.473318C13.464501 12.473318 12.551276 12.451044 12.534571 12.423202C12.517865 12.400928 12.517865 12.361949 12.540139 12.339675ZM7.528538 14.956845C7.545244 14.940139 8.464037 14.923434 9.561021 14.923434C11.298376 14.923434 11.554524 14.934571 11.554524 15.006961C11.554524 15.07935 11.292807 15.090487 9.555452 15.090487C8.4529 15.090487 7.539675 15.068213 7.52297 15.040371C7.506265 15.018097 7.506265 14.979118 7.528538 14.956845ZM14.394432 14.923434C15.419026 14.906729 16.29327 14.90116 16.332251 14.906729C16.376799 14.917865 16.443619 14.923434 16.488167 14.923434C16.532715 14.923434 16.566126 14.962413 16.566126 15.006961C16.566126 15.07935 16.321114 15.090487 14.550348 15.07935C13.247332 15.068213 12.529002 15.040371 12.529002 15.006961C12.529002 14.97355 13.208353 14.940139 14.394432 14.923434Z"/></svg>
