<svg xmlns="http://www.w3.org/2000/svg" width="24" height="24" viewBox="0 0 24 24"><path d="M4.232019 1.787471C3.942459 2.043619 3.886775 2.288631 3.97587 2.917865C4.020418 3.196288 4.059397 3.647332 4.076102 3.925754C4.109513 4.605104 4.087239 4.632947 3.407889 4.710905C2.756381 4.783295 2.483527 4.911369 2.344316 5.19536C2.25522 5.379118 2.249652 5.44594 2.305336 5.62413C2.372158 5.846868 2.594896 6.069606 2.750812 6.069606C2.951276 6.069606 2.990255 6.153132 2.90116 6.37587C2.823202 6.559629 2.812065 7.227842 2.812065 12.339675L2.812065 18.097448L2.678422 18.153132C2.316473 18.286775 2.177262 18.860325 2.444548 19.12761C2.583759 19.266821 2.90116 19.37819 3.174014 19.37819C3.268677 19.37819 3.47471 19.394896 3.636195 19.417169C3.909049 19.445012 3.936891 19.467285 4.014849 19.651044C4.115081 19.87935 4.098376 20.530858 3.981439 21.182367C3.942459 21.399536 3.925754 21.7058 3.936891 21.872854C3.959165 22.123434 3.992575 22.201392 4.159629 22.368445C4.499304 22.708121 5.039443 22.685847 5.345708 22.318329C5.585151 22.034339 5.618561 21.783759 5.490487 21.148956C5.356845 20.519722 5.340139 19.812529 5.44594 19.600928C5.512761 19.472854 5.562877 19.456148 6.119722 19.389327C6.838051 19.3058 7.066357 19.194432 7.149884 18.893735C7.238979 18.587471 7.122042 18.320186 6.838051 18.164269C6.682135 18.080742 6.598608 17.997216 6.598608 17.924826C6.598608 17.819026 6.704408 17.819026 12.027842 17.819026L17.457077 17.819026L17.457077 17.952668C17.457077 18.041763 17.418097 18.103016 17.345708 18.12529C17.150812 18.186543 16.955916 18.476102 16.955916 18.709977C16.955916 19.005104 16.994896 19.077494 17.200928 19.205568C17.356845 19.3058 18.075174 19.433875 18.470534 19.433875C18.732251 19.433875 18.821346 20.207889 18.654292 21.065429C18.542923 21.638979 18.548492 21.92297 18.670998 22.162413C18.932715 22.691415 19.645476 22.758237 20.012993 22.296056C20.230162 22.017633 20.258005 21.77819 20.12993 21.132251C20.001856 20.441763 19.985151 19.896056 20.09652 19.634339C20.16891 19.456148 20.191183 19.445012 20.553132 19.411601C21.516473 19.316937 21.700232 19.238979 21.800464 18.888167C21.895128 18.581903 21.772622 18.309049 21.471926 18.153132L21.243619 18.041763L21.226914 12.17819C21.221346 8.959629 21.199072 6.27007 21.187935 6.214385C21.165661 6.12529 21.199072 6.097448 21.343852 6.064037C21.889559 5.952668 22.023202 5.19536 21.555452 4.9058C21.432947 4.827842 21.187935 4.772158 20.820418 4.72761C20.519722 4.6942 20.235731 4.65522 20.196752 4.644084C20.001856 4.588399 19.974014 3.920186 20.135499 2.923434C20.224594 2.333179 20.174478 2.093735 19.907193 1.82645C19.712297 1.631555 19.673318 1.614849 19.383759 1.614849C19.0942 1.614849 19.05522 1.631555 18.854756 1.832019C18.576334 2.110441 18.531787 2.322042 18.632019 2.945708C18.737819 3.58051 18.737819 4.554988 18.637587 4.616241C18.593039 4.644084 18.370302 4.677494 18.136427 4.699768C17.351276 4.766589 17.078422 4.894664 16.955916 5.267749C16.844548 5.596288 17.106265 6.069606 17.395824 6.069606C17.596288 6.069606 17.640835 6.153132 17.546172 6.336891C17.496056 6.431555 17.457077 6.587471 17.457077 6.682135L17.457077 6.849188L12.044548 6.838051L6.62645 6.821346L6.587471 6.570766C6.570766 6.431555 6.542923 6.27007 6.531787 6.214385C6.52065 6.130858 6.559629 6.097448 6.704408 6.064037C7.071926 5.986079 7.27239 5.585151 7.138747 5.189791C7.044084 4.911369 6.765661 4.783295 6.075174 4.710905C5.562877 4.65522 5.507193 4.632947 5.44594 4.510441C5.351276 4.321114 5.356845 3.625058 5.457077 3.146172C5.574014 2.594896 5.562877 2.25522 5.423666 2.00464C5.267749 1.731787 5.056148 1.614849 4.710905 1.614849C4.47703 1.614849 4.399072 1.642691 4.232019 1.787471ZM6.086311 5.106265C6.542923 5.139675 6.737819 5.217633 6.776798 5.390255C6.787935 5.457077 6.431555 5.468213 4.744316 5.473782L2.700696 5.484919L2.700696 5.356845C2.700696 5.184223 2.851044 5.139675 3.658469 5.072854C4.321114 5.022738 5.134107 5.033875 6.086311 5.106265ZM20.731323 5.106265C21.187935 5.139675 21.382831 5.217633 21.42181 5.390255C21.432947 5.457077 21.076566 5.468213 19.389327 5.473782L17.345708 5.484919L17.345708 5.356845C17.345708 5.184223 17.496056 5.139675 18.30348 5.072854C18.966125 5.022738 19.779118 5.033875 20.731323 5.106265ZM5.774478 6.23109C5.952668 6.297912 6.136427 6.409281 6.180974 6.476102C6.253364 6.581903 6.264501 7.289095 6.264501 12.150348C6.264501 15.201856 6.242227 17.713225 6.219954 17.72993C6.192111 17.746636 6.047332 17.718794 5.896984 17.668677C5.55174 17.55174 4.081671 17.540603 3.703016 17.646404C3.563805 17.685383 3.40232 17.718794 3.341067 17.724362C3.229698 17.735499 3.229698 17.69652 3.212993 12.17819C3.207425 8.430626 3.218561 6.587471 3.257541 6.515081C3.32993 6.37587 3.597216 6.236659 3.953596 6.141995C4.387935 6.030626 5.379118 6.080742 5.774478 6.23109ZM20.41949 6.23109C20.592111 6.297912 20.764733 6.392575 20.803712 6.437123C20.859397 6.503944 20.870534 7.651044 20.864965 12.122506C20.859397 15.207425 20.84826 17.735499 20.837123 17.741067C20.825986 17.752204 20.697912 17.718794 20.547564 17.668677C20.196752 17.55174 18.732251 17.540603 18.348028 17.646404C18.208817 17.685383 18.047332 17.718794 17.986079 17.724362C17.87471 17.735499 17.87471 17.69652 17.858005 12.14478C17.852436 7.907193 17.863573 6.537355 17.913689 6.476102C18.013921 6.348028 18.292343 6.219954 18.62645 6.141995C19.088631 6.036195 20.029698 6.080742 20.41949 6.23109ZM17.44594 12.306265L17.429234 17.37355L12.066821 17.37355C9.115545 17.37355 6.682135 17.362413 6.648724 17.345708C6.620882 17.323434 6.598608 15.346636 6.598608 12.272854L6.598608 7.238979L17.457077 7.238979ZM6.676566 18.576334C6.726682 18.593039 6.765661 18.665429 6.765661 18.737819C6.765661 18.860325 6.737819 18.871462 6.225522 18.916009C5.529466 18.971694 3.875638 18.971694 3.240835 18.910441C2.739675 18.865893 2.65058 18.815777 2.72297 18.62645C2.750812 18.55406 3.018097 18.542923 4.671926 18.542923C5.724362 18.542923 6.62645 18.559629 6.676566 18.576334ZM21.343852 18.609745C21.382831 18.648724 21.410673 18.721114 21.410673 18.77123C21.410673 18.849188 21.321578 18.871462 20.870534 18.916009C20.180046 18.971694 18.654292 18.971694 17.941531 18.910441C17.384687 18.865893 17.290023 18.821346 17.367981 18.62645C17.395824 18.55406 17.663109 18.542923 19.339211 18.542923C20.770302 18.542923 21.293735 18.559629 21.343852 18.609745Z"/><path d="M7.528538 8.391647C7.506265 8.408353 7.489559 8.447332 7.489559 8.475174C7.489559 8.497448 8.402784 8.519722 9.522042 8.519722C11.292807 8.519722 11.554524 8.508585 11.554524 8.436195C11.554524 8.363805 11.298376 8.352668 9.561021 8.352668C8.464037 8.352668 7.545244 8.369374 7.528538 8.391647ZM12.540139 8.386079C12.517865 8.408353 12.517865 8.447332 12.534571 8.469606C12.551276 8.497448 13.464501 8.519722 14.567053 8.519722C16.304408 8.519722 16.566125 8.508585 16.566125 8.436195C16.566125 8.363805 16.309977 8.352668 14.572622 8.352668C13.475638 8.352668 12.556845 8.369374 12.540139 8.386079ZM7.561949 9.004176C7.52297 9.015313 7.489559 9.065429 7.489559 9.109977C7.489559 9.176798 7.806961 9.187935 9.52761 9.187935C11.437587 9.187935 11.560093 9.182367 11.543387 9.087703C11.526682 8.998608 11.381903 8.993039 9.577726 8.981903C8.503016 8.981903 7.59536 8.987471 7.561949 9.004176ZM12.562413 9.037587C12.529002 9.082135 12.517865 9.132251 12.540139 9.148956C12.556845 9.17123 13.475638 9.187935 14.572622 9.187935C16.449188 9.187935 16.571694 9.182367 16.554988 9.087703C16.538283 8.998608 16.393503 8.993039 14.583759 8.976334C12.991183 8.965197 12.618097 8.976334 12.562413 9.037587ZM7.545244 9.689095C7.316937 9.833875 7.617633 9.856148 9.555452 9.845012C11.264965 9.828306 11.526682 9.817169 11.526682 9.74478C11.526682 9.67239 11.264965 9.661253 9.577726 9.650116C8.41949 9.638979 7.59536 9.655684 7.545244 9.689095ZM12.562413 9.7058C12.529002 9.750348 12.517865 9.800464 12.540139 9.817169C12.556845 9.839443 13.475638 9.856148 14.572622 9.856148C16.449188 9.856148 16.571694 9.85058 16.554988 9.755916C16.538283 9.666821 16.393503 9.661253 14.583759 9.644548C12.991183 9.633411 12.618097 9.644548 12.562413 9.7058ZM7.511833 10.362877C7.495128 10.396288 7.500696 10.446404 7.528538 10.474246C7.556381 10.502088 8.397216 10.518794 9.549884 10.513225C11.381903 10.49652 11.526682 10.490951 11.543387 10.396288C11.560093 10.307193 11.437587 10.301624 9.555452 10.301624C8.174478 10.301624 7.539675 10.318329 7.511833 10.362877ZM12.523434 10.362877C12.506729 10.396288 12.512297 10.446404 12.540139 10.474246C12.567981 10.502088 13.408817 10.518794 14.561485 10.513225C16.393503 10.49652 16.538283 10.490951 16.554988 10.396288C16.571694 10.307193 16.449188 10.301624 14.567053 10.301624C13.186079 10.301624 12.551276 10.318329 12.523434 10.362877ZM7.511833 11.03109C7.495128 11.064501 7.511833 11.114617 7.550812 11.142459C7.639907 11.198144 11.326218 11.209281 11.465429 11.159165C11.515545 11.142459 11.554524 11.092343 11.554524 11.047796C11.554524 10.980974 11.225986 10.969838 9.555452 10.969838C8.146636 10.969838 7.539675 10.986543 7.511833 11.03109ZM12.534571 11.019954C12.439907 11.17587 12.696056 11.192575 14.594896 11.181439C16.393503 11.164733 16.538283 11.159165 16.554988 11.064501C16.571694 10.975406 16.449188 10.969838 14.567053 10.969838C13.464501 10.969838 12.551276 10.992111 12.534571 11.019954ZM7.545244 11.626914C7.517401 11.638051 7.489559 11.682599 7.489559 11.727146C7.489559 11.793968 7.806961 11.805104 9.52761 11.805104C11.437587 11.805104 11.560093 11.799536 11.543387 11.704872C11.526682 11.615777 11.387471 11.610209 9.561021 11.610209C8.486311 11.610209 7.578654 11.615777 7.545244 11.626914ZM12.545708 11.643619C12.512297 11.665893 12.506729 11.710441 12.523434 11.743852C12.551276 11.788399 13.158237 11.805104 14.567053 11.805104C16.449188 11.805104 16.571694 11.799536 16.554988 11.704872C16.538283 11.615777 16.399072 11.610209 14.567053 11.610209C13.486775 11.610209 12.57355 11.626914 12.545708 11.643619ZM7.528538 12.339675C7.506265 12.361949 7.506265 12.400928 7.52297 12.423202C7.539675 12.451044 8.4529 12.473318 9.555452 12.473318C11.292807 12.473318 11.554524 12.462181 11.554524 12.389791C11.554524 12.317401 11.298376 12.306265 9.561021 12.306265C8.464037 12.306265 7.545244 12.32297 7.528538 12.339675ZM12.540139 12.339675C12.517865 12.361949 12.517865 12.400928 12.534571 12.423202C12.551276 12.451044 13.464501 12.473318 14.567053 12.473318C16.304408 12.473318 16.566125 12.462181 16.566125 12.389791C16.566125 12.317401 16.309977 12.306265 14.572622 12.306265C13.475638 12.306265 12.556845 12.32297 12.540139 12.339675ZM7.511833 12.980046C7.495128 13.013457 7.500696 13.063573 7.528538 13.091415C7.556381 13.119258 8.397216 13.135963 9.549884 13.130394C11.381903 13.113689 11.526682 13.108121 11.543387 13.013457C11.560093 12.924362 11.437587 12.918794 9.555452 12.918794C8.174478 12.918794 7.539675 12.935499 7.511833 12.980046ZM12.523434 12.980046C12.506729 13.013457 12.512297 13.063573 12.540139 13.091415C12.567981 13.119258 13.408817 13.135963 14.561485 13.130394C16.393503 13.113689 16.538283 13.108121 16.554988 13.013457C16.571694 12.924362 16.449188 12.918794 14.567053 12.918794C13.186079 12.918794 12.551276 12.935499 12.523434 12.980046ZM7.556381 13.620418C7.328074 13.787471 7.550812 13.809745 9.52761 13.809745C11.253828 13.809745 11.504408 13.798608 11.537819 13.726218C11.554524 13.676102 11.554524 13.620418 11.532251 13.603712C11.465429 13.536891 7.645476 13.553596 7.556381 13.620418ZM12.567981 13.620418C12.339675 13.787471 12.562413 13.809745 14.539211 13.809745C16.265429 13.809745 16.516009 13.798608 16.54942 13.726218C16.566125 13.676102 16.566125 13.620418 16.54942 13.603712C16.482599 13.542459 12.657077 13.553596 12.567981 13.620418ZM7.545244 14.244084C7.517401 14.25522 7.489559 14.299768 7.489559 14.344316C7.489559 14.411137 7.806961 14.422274 9.52761 14.422274C11.404176 14.422274 11.560093 14.416705 11.543387 14.32761C11.526682 14.244084 11.359629 14.232947 9.566589 14.232947C8.486311 14.227378 7.578654 14.232947 7.545244 14.244084ZM12.545708 14.260789C12.512297 14.283063 12.506729 14.32761 12.523434 14.361021C12.551276 14.405568 13.158237 14.422274 14.567053 14.422274C16.421346 14.422274 16.571694 14.416705 16.554988 14.32761C16.538283 14.244084 16.37123 14.232947 14.572622 14.232947C13.486775 14.227378 12.57355 14.244084 12.545708 14.260789ZM14.394432 14.923434C13.208353 14.940139 12.529002 14.97355 12.529002 15.006961C12.529002 15.040371 13.247332 15.068213 14.550348 15.07935C16.321114 15.090487 16.566125 15.07935 16.566125 15.006961C16.566125 14.962413 16.532715 14.923434 16.488167 14.923434C16.443619 14.923434 16.376798 14.917865 16.332251 14.906729C16.293271 14.90116 15.419026 14.906729 14.394432 14.923434ZM7.528538 14.956845C7.506265 14.979118 7.506265 15.018097 7.52297 15.040371C7.539675 15.068213 8.4529 15.090487 9.555452 15.090487C11.292807 15.090487 11.554524 15.07935 11.554524 15.006961C11.554524 14.934571 11.298376 14.923434 9.561021 14.923434C8.464037 14.923434 7.545244 14.940139 7.528538 14.956845ZM7.517401 15.597216C7.495128 15.630626 7.500696 15.680742 7.528538 15.708585C7.556381 15.736427 8.397216 15.753132 9.555452 15.747564C11.264965 15.730858 11.526682 15.719722 11.526682 15.647332C11.526682 15.574942 11.264965 15.563805 9.538747 15.5471C8.141067 15.541531 7.539675 15.552668 7.517401 15.597216ZM12.540139 15.613921C12.523434 15.658469 12.523434 15.708585 12.540139 15.72529C12.562413 15.741995 13.475638 15.758701 14.572622 15.758701C16.449188 15.758701 16.571694 15.753132 16.554988 15.658469C16.538283 15.569374 16.393503 15.563805 14.550348 15.5471C12.885383 15.535963 12.562413 15.5471 12.540139 15.613921ZM7.511833 16.265429C7.495128 16.29884 7.500696 16.348956 7.528538 16.376798C7.556381 16.40464 8.397216 16.421346 9.549884 16.415777C11.381903 16.399072 11.526682 16.393503 11.543387 16.29884C11.560093 16.209745 11.437587 16.204176 9.555452 16.204176C8.174478 16.204176 7.539675 16.220882 7.511833 16.265429ZM12.523434 16.265429C12.506729 16.29884 12.512297 16.348956 12.540139 16.376798C12.567981 16.40464 13.408817 16.421346 14.561485 16.415777C16.393503 16.399072 16.538283 16.393503 16.554988 16.29884C16.571694 16.209745 16.449188 16.204176 14.567053 16.204176C13.186079 16.204176 12.551276 16.220882 12.523434 16.265429Z"/></svg>
