<svg xmlns="http://www.w3.org/2000/svg" width="24" height="24" viewBox="0 0 24 24"><path d="M11.293318 2.016761C11.562401 1.927067 11.956512 2.054813 12.184824 2.307588C12.385957 2.530464 12.448471 2.745187 12.448471 3.209966V3.506229L13.584598 3.500793L14.718007 3.492639L14.734315 3.139298C14.756059 2.584824 14.845753 2.389128 15.16376 2.179841C15.362174 2.049377 15.432843 2.024915 15.672027 1.995017C15.88675 1.965119 16.240091 2.120045 16.403172 2.315742C16.443941 2.361948 16.506454 2.462514 16.547226 2.538618C16.615175 2.669083 16.620611 2.704417 16.628765 3.090374L16.639639 3.506229H18.911892L18.9282 3.443715C18.936354 3.411099 18.944508 3.239864 18.944508 3.065912C18.944508 2.883805 18.955379 2.742469 18.971687 2.731597C18.987995 2.723443 18.998867 2.685391 18.998867 2.647339C18.998867 2.52231 19.167383 2.30487 19.368517 2.171687C19.547905 2.052095 19.613136 2.027633 19.852322 1.992299C20.034428 1.967837 20.341562 2.081993 20.52095 2.245074C20.760136 2.462514 20.847113 2.709853 20.847113 3.185504V3.506229L20.923216 3.508947C20.963985 3.508947 21.377123 3.511665 21.839186 3.517101C22.371914 3.519819 22.727974 3.533409 22.812231 3.555153C23.084032 3.623103 23.383013 3.878596 23.527067 4.17214L23.605888 4.335221L23.614042 12.076104L23.619478 19.81427L23.562401 19.982786C23.445526 20.333408 23.187317 20.591619 22.836693 20.708494C22.670895 20.765572 22.660023 20.765572 16.919592 20.765572C16.520721 20.765572 16.148891 20.765615 15.802256 20.765657C11.319896 20.76619 11.050421 20.766222 11.003138 20.663738C10.996719 20.649828 10.994395 20.634026 10.986183 20.616081C10.934541 20.50736 10.945413 20.450283 11.037826 20.360588L11.122084 20.276331H16.805435C17.067732 20.276331 17.318117 20.27634 17.557146 20.276352C22.371185 20.276548 22.579672 20.276558 22.739473 20.188358C22.753939 20.180376 22.768003 20.171669 22.785051 20.162174C22.983465 20.050735 23.04598 19.925709 23.078596 19.583239C23.089468 19.447338 23.10034 16.838053 23.097622 13.780294C23.092186 8.289921 23.092186 7.903964 23.103058 7.664779C23.105776 7.596829 23.10034 7.501699 23.089468 7.452775L23.070442 7.365798L15.672027 7.371234L8.276331 7.379388L8.270895 8.330691C8.265459 8.983012 8.254587 9.301019 8.232843 9.341789C8.200227 9.404304 8.056172 9.485844 7.980068 9.485844C7.958324 9.485844 7.89581 9.447792 7.84145 9.401586L7.746319 9.317327V6.865685C7.746319 6.750849 7.746304 6.641119 7.74629 6.536246C7.746025 4.542883 7.745993 4.304896 7.850993 4.129947C7.870955 4.096685 7.894714 4.065702 7.92299 4.025368C8.026274 3.875878 8.287203 3.642129 8.352435 3.642129C8.371461 3.642129 8.401359 3.628539 8.414949 3.614949C8.480181 3.549717 8.779162 3.525255 9.621744 3.514383C10.271348 3.506229 10.507814 3.495357 10.524122 3.470895C10.534994 3.451869 10.545866 3.283352 10.545866 3.09581C10.545866 2.753341 10.55402 2.707135 10.668177 2.459796C10.719819 2.348358 11.010646 2.092865 11.08675 2.092865C11.103058 2.092865 11.138392 2.081993 11.165572 2.068403C11.190034 2.054813 11.24983 2.033069 11.293318 2.016761ZM5.074519 7.13205C5.237599 6.966251 5.411552 7.020612 5.561042 7.276104C5.707814 7.531597 6.104643 8.145866 6.292186 8.409513C6.680861 8.955832 6.795017 9.132503 6.901019 9.339071C7.26795 10.059343 7.28154 10.771461 6.941789 11.353114C6.824915 11.559683 6.455266 11.907588 6.24598 12.016308L6.061155 12.10872V12.451189C6.061155 12.785504 6.063873 12.796376 6.123669 12.812684C6.156285 12.820838 6.493318 12.828992 6.871121 12.828992C7.248924 12.828992 7.577803 12.839864 7.604983 12.853454C7.629445 12.869762 7.683805 12.88607 7.721857 12.894224C7.808834 12.91325 8.048018 13.122537 8.12684 13.253001C8.140101 13.274063 8.152069 13.292538 8.162869 13.311672C8.262793 13.488694 8.262789 13.722121 8.262743 16.582546L8.262741 16.77282C8.262741 19.740883 8.265459 19.917555 8.311665 19.936581C8.336127 19.947453 8.689468 19.952888 9.091733 19.952888C9.711438 19.947453 9.839185 19.952888 9.909853 19.99094C10.021291 20.0453 10.056625 20.088787 10.083805 20.2111C10.127293 20.40136 10.067497 20.591619 9.888109 20.860703C9.624462 21.246658 9.352661 21.605436 9.230351 21.722309C9.075425 21.869083 8.779162 22.007702 8.548131 22.043036C8.243715 22.089241 1.916195 22.067497 1.793884 22.021292C1.44598 21.888109 1.233975 21.727745 1.030125 21.442356C0.964892 21.349943 0.877916 21.235786 0.839864 21.189581C0.684938 20.999319 0.443035 20.637827 0.413137 20.545412C0.366931 20.412231 0.372367 20.219254 0.421291 20.121405C0.505549 19.952888 0.516421 19.950171 1.378029 19.950171C1.807475 19.950171 2.177123 19.939299 2.198867 19.925709C2.266818 19.882219 2.280408 19.379389 2.280408 16.389582V13.492186L2.340204 13.361721C2.448924 13.111665 2.677237 12.924122 2.935447 12.867044C2.987089 12.856172 3.337712 12.842582 3.710079 12.837146C4.21546 12.83043 4.393093 12.835123 4.453766 12.753197C4.486609 12.708851 4.485183 12.639125 4.482919 12.528473C4.482595 12.512626 4.482254 12.49594 4.481993 12.478369C4.479275 12.152208 4.465685 12.12231 4.297169 12.035334C3.998188 11.87769 3.658437 11.546093 3.536127 11.287882C3.503511 11.217214 3.465459 11.135674 3.449151 11.111212C3.435561 11.084032 3.424689 11.040544 3.424689 11.013364C3.424689 10.986183 3.408381 10.948131 3.392072 10.929105C3.364892 10.904643 3.356738 10.766025 3.356738 10.423556C3.356738 10.081087 3.364892 9.942469 3.392072 9.915289C3.408381 9.898981 3.424689 9.847339 3.424689 9.803851C3.424689 9.648924 3.889468 8.800906 4.000906 8.757418C4.011778 8.751982 4.02265 8.735674 4.02265 8.719366C4.02265 8.689468 4.128652 8.537259 4.367837 8.216535C4.460249 8.094224 4.568969 7.933862 4.60974 7.863194C4.647792 7.792525 4.721178 7.670215 4.770102 7.596829C4.819026 7.520725 4.886976 7.406569 4.92231 7.341336C4.954926 7.276104 5.025595 7.180974 5.074519 7.13205ZM10.49966 4.055266C10.415402 3.992752 8.746546 4.033522 8.616082 4.101472C8.488335 4.169422 8.371461 4.305323 8.317101 4.449377C8.265459 4.587995 8.262741 4.661382 8.262741 5.705096V6.816761L8.330691 6.833069C8.368743 6.843941 11.690147 6.849377 15.715515 6.849377H23.035109L23.084032 6.789581C23.122084 6.740657 23.12752 6.702605 23.11393 6.618347C23.103058 6.55855 23.092186 6.063873 23.092186 5.517554L23.089468 4.525481L23.007929 4.378709C22.964439 4.299887 22.888334 4.204757 22.842129 4.169422C22.670895 4.03624 22.556738 4.02265 21.716873 4.03624C21.290148 4.041676 20.920498 4.047112 20.896036 4.047112C20.852549 4.04983 20.847113 4.085164 20.847113 4.424915C20.847113 4.992978 20.751982 5.256625 20.472027 5.46863C20.262741 5.628992 20.159456 5.664326 19.882219 5.664326C19.66478 5.667044 19.62129 5.65889 19.48811 5.59094C19.322309 5.506682 19.126614 5.330011 19.061382 5.207701C18.977123 5.047339 18.960815 4.952208 18.947226 4.520045C18.939072 4.278143 18.920046 4.071574 18.909172 4.057984C18.88471 4.03624 16.971233 4.025368 16.751076 4.044394L16.634201 4.055266V4.487429C16.634201 4.851642 16.626047 4.938618 16.579842 5.063647C16.313477 5.773046 15.307814 5.892639 14.910985 5.262061C14.772367 5.041903 14.747905 4.92231 14.742469 4.476557C14.742469 4.161268 14.731597 4.066138 14.701699 4.047112C14.655493 4.019932 14.302152 4.017214 13.244847 4.041676L12.453907 4.057984L12.443035 4.495583C12.432163 4.865232 12.421291 4.957644 12.369649 5.085391C12.285391 5.302831 12.127746 5.471348 11.910306 5.57735C11.744507 5.65889 11.706455 5.667044 11.483579 5.667044C11.279728 5.664326 11.214496 5.653454 11.08675 5.593658C10.899207 5.5094 10.727973 5.335447 10.632843 5.137033C10.564892 4.995696 10.559456 4.960362 10.551302 4.539071C10.545866 4.161268 10.534994 4.085164 10.49966 4.055266ZM7.518007 13.361721C7.433749 13.323669 7.208154 13.318233 5.253907 13.320951C3.881314 13.320951 3.060476 13.331823 3.016988 13.348131C2.930011 13.383465 2.826727 13.478596 2.799547 13.551982C2.785957 13.58188 2.772367 15.016988 2.766931 16.740204C2.758777 19.81427 2.758777 19.874065 2.810419 19.912119C2.856625 19.944735 3.23171 19.950171 5.253907 19.950171C6.846659 19.950171 7.659343 19.942017 7.694677 19.922991C7.746319 19.895809 7.746319 19.830578 7.746319 16.764666V13.63624L7.678369 13.522084C7.640317 13.454134 7.572367 13.388901 7.518007 13.361721ZM9.499434 20.485617C9.51846 20.442129 9.303737 20.439411 5.221291 20.439411H0.92684L1.008381 20.580748C1.054587 20.659571 1.100793 20.730238 1.111665 20.738392C1.122537 20.746546 1.233975 20.885164 1.356285 21.045527C1.484032 21.211325 1.630804 21.368969 1.6906 21.40974C1.720601 21.428408 1.744184 21.444664 1.768965 21.458822C1.936095 21.554317 2.157707 21.554462 4.770422 21.556164C4.928949 21.556267 5.096279 21.556376 5.272933 21.556513L8.526387 21.559231L8.694904 21.474972C8.879728 21.385277 8.893318 21.371687 9.010193 21.214043C9.053681 21.154247 9.165119 21.012911 9.254813 20.901472C9.344507 20.790033 9.431484 20.662289 9.447792 20.616081C9.4641 20.572594 9.488562 20.512796 9.499434 20.485617ZM14.807701 8.879728C14.848471 8.871574 15.302378 8.868856 15.8188 8.871574C16.666819 8.874292 16.767384 8.879728 16.832617 8.923216C16.984823 9.021065 16.987541 9.042809 16.987541 10.108267V10.108533C16.989693 10.969275 16.990131 11.144996 16.902494 11.233491C16.879463 11.256746 16.850351 11.273978 16.813589 11.296036C16.737486 11.342242 16.653229 11.347678 15.8188 11.355832C14.818573 11.366704 14.747905 11.35855 14.620159 11.217214L14.541336 11.132956V9.069989L14.636467 8.980294C14.688109 8.93137 14.764213 8.885164 14.807701 8.879728ZM19.012459 8.885164C19.115742 8.860702 20.591619 8.855266 20.814495 8.87701C20.955832 8.893318 20.996601 8.909626 21.078142 8.988448L21.173273 9.080861V10.083805C21.173273 10.793205 21.165119 11.108494 21.140657 11.157418C21.12435 11.19547 21.064552 11.255266 21.012911 11.287882C20.91778 11.34496 20.893318 11.347678 19.97735 11.355832C19.88064 11.356607 19.791365 11.357852 19.708956 11.359002C19.214838 11.365893 18.967573 11.369342 18.844597 11.247423C18.721413 11.125299 18.722937 10.877386 18.725986 10.381141C18.726505 10.296673 18.727068 10.20501 18.727068 10.105549C18.727068 9.252095 18.732504 9.118913 18.770555 9.053681C18.822197 8.966704 18.8983 8.912344 19.012459 8.885164ZM19.085844 16.221066C19.436466 16.20204 20.425821 16.196602 20.692186 16.212912C20.980293 16.231937 20.988447 16.234655 21.08086 16.324348L21.173273 16.419479V17.425142C21.173273 18.403624 21.170555 18.436239 21.116196 18.512344C20.996601 18.680861 20.983011 18.683578 19.936581 18.686296C19.05051 18.686296 18.979841 18.683578 18.901018 18.634655C18.727068 18.528652 18.727068 18.536806 18.727068 17.44145V16.449377L18.833069 16.340656C18.9282 16.242809 18.958097 16.229219 19.085844 16.221066ZM14.853907 16.221066C14.913703 16.21563 15.373046 16.212912 15.870442 16.21563C16.530916 16.218348 16.783691 16.226501 16.791845 16.248245C16.797281 16.267271 16.819027 16.280861 16.840771 16.280861C16.862514 16.280861 16.903284 16.32163 16.933182 16.367838C16.984823 16.452095 16.987541 16.509172 16.987541 17.452322C16.987541 18.419931 16.984823 18.449829 16.930464 18.520498C16.805435 18.680861 16.783691 18.683578 15.797055 18.69445C14.772367 18.70804 14.701699 18.697168 14.595696 18.525934C14.544054 18.438957 14.541336 18.39547 14.541336 17.44145V16.449377L14.644621 16.340656C14.723443 16.253681 14.766931 16.229219 14.853907 16.221066ZM10.589354 16.221066C10.632843 16.210194 11.094904 16.207476 11.614043 16.212912L12.559909 16.221066L12.652322 16.291733C12.796376 16.403172 12.80453 16.473839 12.796376 17.503963C12.788222 18.384598 12.785504 18.428085 12.731144 18.498755C12.592525 18.686296 12.625142 18.680861 11.619479 18.69445C10.806795 18.705322 10.695357 18.702604 10.586636 18.661835C10.526882 18.638483 10.482749 18.623114 10.450113 18.594591C10.35787 18.513971 10.357477 18.32826 10.355849 17.560156C10.355774 17.524572 10.355696 17.487736 10.355606 17.449604L10.352888 16.435787L10.43171 16.337938C10.475198 16.283579 10.545866 16.231937 10.589354 16.221066ZM10.583918 8.887882C10.630125 8.874292 11.084032 8.866138 11.605889 8.868856C12.636014 8.874292 12.62786 8.874292 12.739298 9.042809C12.782786 9.110759 12.788222 9.205889 12.788222 10.083805C12.788222 11.157418 12.785504 11.18188 12.61427 11.285164C12.516421 11.347678 12.505549 11.347678 11.551529 11.347678C10.649151 11.347678 10.5812 11.34496 10.510532 11.296036C10.347452 11.187316 10.344734 11.151982 10.35017 9.850057L10.355606 9.059117L10.426274 8.98573C10.467044 8.947678 10.537712 8.90419 10.583918 8.887882ZM18.895582 12.597961C18.94179 12.570781 19.197283 12.562627 19.969196 12.559909L20.980293 12.557191L21.078142 12.652322L21.173273 12.75017V14.791393L21.06727 14.897395L20.961267 15.003398H18.939072L18.833069 14.897395L18.727068 14.791393V13.796602C18.727068 12.867044 18.729786 12.796376 18.778709 12.717554C18.808607 12.671348 18.860249 12.616988 18.895582 12.597961ZM10.545866 12.584371C10.545866 12.568063 10.901925 12.557191 11.559683 12.557191H12.576217L12.674066 12.652322C12.744734 12.720272 12.774632 12.77735 12.788222 12.861608C12.796376 12.92684 12.801812 13.378029 12.796376 13.867271C12.788222 14.715289 12.785504 14.758777 12.731144 14.829445C12.597961 15.008834 12.638732 15.00068 11.578709 15.008834C10.727973 15.01427 10.602945 15.008834 10.529558 14.968063C10.355606 14.875651 10.358324 14.894677 10.35017 13.769422L10.344734 12.747452L10.409966 12.679502C10.4453 12.64145 10.488788 12.611552 10.510532 12.611552C10.529558 12.611552 10.545866 12.597961 10.545866 12.584371ZM14.690827 12.61427C14.766931 12.565345 14.837599 12.559909 15.786183 12.559909C16.354246 12.557191 16.797281 12.568063 16.797281 12.581653C16.797281 12.595243 16.821745 12.611552 16.848925 12.619706C16.878822 12.625142 16.92231 12.671348 16.944054 12.717554C16.982105 12.79094 16.987541 12.932276 16.987541 13.783012C16.987541 14.731597 16.984823 14.766931 16.930464 14.843035C16.821745 14.997961 16.810871 14.997961 15.759003 15.006116C14.853907 15.01427 14.785957 15.011552 14.715289 14.962627C14.674236 14.935881 14.643005 14.918244 14.619218 14.893463C14.543525 14.814605 14.543208 14.663396 14.541641 13.91606C14.54155 13.872006 14.541452 13.825881 14.541336 13.777576L14.541324 13.669394C14.541188 12.888584 14.541162 12.741874 14.614506 12.668422C14.63419 12.648708 14.659158 12.634272 14.690827 12.61427ZM5.637146 8.344281C5.512118 8.156738 5.373499 7.95017 5.330011 7.884938L5.251189 7.768063L5.120725 7.97735C5.047339 8.091506 4.892412 8.322537 4.778256 8.491053C3.96829 9.659796 3.91393 9.76308 3.83239 10.260476C3.802492 10.450736 3.802492 10.502378 3.843262 10.679049C3.867724 10.787769 3.919366 10.939977 3.960136 11.016082C4.03624 11.16829 4.346093 11.497169 4.411325 11.497169C4.441223 11.497169 4.457531 11.456399 4.471121 11.339524C4.479275 11.255266 4.501019 11.135674 4.514609 11.075878C4.530917 11.016082 4.549943 10.937259 4.555379 10.899207C4.585277 10.763307 4.71846 10.475198 4.857078 10.25504C4.906002 10.176217 4.946772 10.102831 4.946772 10.086523C4.946772 10.043035 5.196829 9.839185 5.251189 9.839185C5.362627 9.839185 5.460476 9.926161 5.599094 10.140883C5.860023 10.548584 5.974179 10.847565 6.033975 11.285164L6.066591 11.521631L6.137259 11.489015C6.322084 11.412911 6.534088 11.122084 6.645527 10.790487C6.694451 10.643715 6.699887 10.20068 6.656399 10.059343C6.553114 9.738618 6.357418 9.371687 6.101925 9.021065C5.976897 8.852548 5.849151 8.665006 5.637146 8.344281ZM20.708494 9.45051 20.675879 9.349943H19.219027L19.202719 9.49128C19.191847 9.570102 19.189129 9.901699 19.194565 10.225142C19.202719 10.774179 19.205437 10.817667 19.257078 10.855719C19.300566 10.885617 19.420158 10.891053 19.922991 10.882899C20.621517 10.872027 20.673161 10.863873 20.694904 10.782333C20.705776 10.749717 20.719366 10.45889 20.72752 10.138165C20.738392 9.714156 20.732956 9.526614 20.708494 9.45051ZM16.509172 9.434202 16.492865 9.349943H15.764439C15.36761 9.349943 15.030578 9.358097 15.022424 9.368969C15.011552 9.377123 15.003398 9.711438 15.003398 10.108267V10.831257L15.106682 10.861155C15.215402 10.891053 16.340656 10.891053 16.435787 10.861155C16.468403 10.850283 16.501019 10.814949 16.509172 10.782333C16.530916 10.703511 16.530916 9.542922 16.509172 9.434202ZM12.304417 9.43692 12.274519 9.349943H10.825821L10.806795 9.45051C10.798641 9.507588 10.790487 9.831031 10.790487 10.170781C10.790487 10.763307 10.793205 10.790487 10.847565 10.842129C10.901925 10.891053 10.937259 10.893771 11.478143 10.882899C11.978256 10.872027 12.279955 10.853001 12.288109 10.836693C12.288109 10.833975 12.298981 10.537712 12.312571 10.178935C12.328879 9.719592 12.326161 9.499434 12.304417 9.43692ZM20.703058 16.775537 20.673161 16.688562H19.219027L19.202719 16.832617C19.178255 17.028313 19.197283 18.145412 19.224463 18.17531C19.251642 18.199774 20.463873 18.221518 20.594337 18.197056C20.662289 18.186184 20.684032 18.164438 20.697622 18.101925C20.730238 17.952435 20.735674 16.870668 20.703058 16.775537ZM16.51189 16.805435 16.495583 16.688562H15.003398V18.180746L15.120272 18.194338C15.305096 18.216082 16.462967 18.199774 16.490147 18.17531C16.517326 18.14813 16.536352 16.968515 16.51189 16.805435ZM16.514608 13.106229 16.492865 13.019253H15.003398V13.750396C15.003398 14.285844 15.011552 14.489694 15.036014 14.503284C15.060476 14.519592 16.188448 14.527746 16.449377 14.516874C16.479275 14.514156 16.498301 14.48154 16.509172 14.410872C16.533634 14.247792 16.53907 13.204077 16.514608 13.106229ZM12.304417 16.789127 12.271801 16.688562H10.820385L10.804077 16.832617C10.779615 17.028313 10.798641 18.145412 10.825821 18.17531C10.853001 18.199774 12.244621 18.20521 12.271801 18.180746C12.279955 18.169874 12.298981 17.876331 12.312571 17.528425C12.328879 17.060928 12.326161 16.865232 12.304417 16.789127ZM12.304417 13.106229 12.274519 13.019253H10.820385L10.804077 13.160589C10.779615 13.356285 10.798641 14.476104 10.825821 14.506002C10.853001 14.530464 12.255493 14.527746 12.279955 14.500566C12.315289 14.46795 12.337033 13.198641 12.304417 13.106229ZM20.703058 13.119819 20.670443 13.019253H19.219027L19.200001 13.174179C19.178255 13.342695 19.208155 14.486976 19.232616 14.511438C19.251642 14.533182 20.659571 14.519592 20.681314 14.500566C20.71393 14.465232 20.732956 13.225821 20.703058 13.119819ZM11.701019 2.56308C11.518913 2.459796 11.320498 2.492412 11.165572 2.650057C11.124802 2.690827 11.078596 2.769649 11.062288 2.824009C11.04598 2.881087 11.035108 3.310532 11.035108 3.85957C11.035108 4.723896 11.040544 4.805436 11.08675 4.911438C11.23624 5.237599 11.733635 5.248471 11.89128 4.930464C11.942922 4.82718 11.94564 4.770102 11.94564 3.843262L11.942922 2.867497L11.87769 2.745187C11.834202 2.671801 11.768969 2.601133 11.701019 2.56308ZM15.854134 2.530464C15.691053 2.446206 15.411099 2.54949 15.310532 2.731597C15.250736 2.837599 15.248018 2.856625 15.248018 3.848698C15.248018 4.85436 15.248018 4.857078 15.310532 4.94949C15.408381 5.096263 15.533409 5.164213 15.701925 5.164213C15.92752 5.164213 16.019932 5.101699 16.098755 4.892412C16.139524 4.783692 16.14496 4.65051 16.14496 3.826954C16.14496 3.076784 16.136806 2.870215 16.106909 2.796829C16.066137 2.698981 15.9547 2.582106 15.854134 2.530464ZM20.083351 2.552208C20.026274 2.525028 19.939299 2.500566 19.890373 2.500566C19.759909 2.500566 19.59411 2.592978 19.515289 2.709853L19.447338 2.810419V4.884258L19.523443 4.982106C19.624008 5.112571 19.727293 5.164213 19.893091 5.164213C20.069761 5.164213 20.205664 5.082673 20.276331 4.938618C20.327972 4.835334 20.33069 4.767384 20.33069 3.826954V2.826727L20.257305 2.715289C20.216536 2.655493 20.137712 2.582106 20.083351 2.552208ZM5.335447 10.692639C5.291959 10.627407 5.251189 10.573046 5.243035 10.573046C5.234881 10.573046 5.183239 10.668177 5.128879 10.782333C4.97667 11.108494 4.946772 11.323216 4.946772 12.103284V12.774632L5.017441 12.801812C5.118007 12.839864 5.444168 12.834428 5.501246 12.793658C5.542016 12.76376 5.547452 12.69581 5.53658 11.98641C5.525708 11.198188 5.514836 11.08675 5.446886 10.934541C5.425142 10.888335 5.408834 10.842129 5.408834 10.831257C5.408834 10.817667 5.376217 10.757871 5.335447 10.692639Z"/></svg>
