<svg xmlns="http://www.w3.org/2000/svg" width="960" height="656" viewBox="0 0 960 656">
<rect width="100%" height="100%" fill="#ffffff"/>
<text x="24" y="42" font-family="Arial, sans-serif" font-size="24" font-weight="600" fill="#202020">Otzaria Icons</text>
<rect x="16" y="64" width="464" height="104" rx="12" fill="#f7f7f7" stroke="#dedede"/>
<svg x="36" y="84" width="64" height="64" viewBox="0 0 24 24" color="#202020"><path d="M4.774 1.523c-.211.183-.232.246-.267.71l-.035.505h-.414c-.794 0-1.11.26-1.11.92v.393l-.561.035c-.653.035-.899.168-1.032.554-.12.344-.12 13.12 0 13.472.049.133.19.308.323.4l.238.161h8.614l.288.19c.246.161.379.196.905.217.766.035 1.032-.007 1.362-.231l.26-.176h4.317c3.953 0 4.339-.007 4.528-.12.435-.259.414.078.414-7.244V4.633l-.231-.26c-.232-.245-.26-.252-.808-.287l-.575-.035v-.31c0-.722-.323-1.003-1.159-1.003h-.456v-.499c0-.456-.014-.512-.217-.709l-.211-.217-1.348.042c-1.144.028-1.453.063-2.029.21-1.291.337-2.358.948-3.152 1.784l-.463.49-.428-.476c-.744-.815-1.882-1.46-3.166-1.798-.569-.147-.885-.182-2.015-.21l-1.34-.042zm2.492.099c.99.119 1.621.309 2.457.73.863.428 1.621 1.053 2.007 1.65l.225.343.19-.294c.273-.436.87-1.004 1.418-1.362 1.186-.766 2.674-1.145 4.5-1.145.708 0 .765.014.926.176.155.154.176.225.176.737v.562h.603c.33 0 .66.028.73.07.169.091.281.435.281.884v.38h.625c.61 0 .632.006.807.217l.183.218v6.507c0 4.584-.021 6.578-.077 6.74-.155.435-.036.428-4.823.428-4.198 0-4.346.007-4.465.133-.309.344-1.6.365-2.092.042l-.267-.175H6.388c-4.59 0-4.584 0-4.773-.344-.05-.092-.07-2.36-.07-6.782v-6.64l.175-.17c.154-.16.225-.175.807-.175h.632v-.484c0-.38.028-.52.147-.667.134-.175.176-.182.808-.182h.66v-.59c0-.555.014-.604.182-.737.162-.127.288-.148.934-.148.407 0 1.032.036 1.376.078"/><path d="M5.405 8.178v6.002h.653c2.092 0 3.98.773 5.21 2.127l.385.429-.014-5.827-.02-5.82-.162-.33c-.787-1.593-2.9-2.583-5.525-2.583h-.527zM16.722 2.253c-1.98.232-3.63 1.194-4.226 2.471l-.211.436v11.555l.28-.323c1.173-1.355 2.872-2.1 5.02-2.205l.913-.042V2.211l-.632-.007a10 10 0 0 0-1.144.05"/><path d="M3.79 9.905v6.255l.162-.042c.87-.218 3.349-.225 4.402-.007 1.032.21 1.93.576 2.534 1.032.484.372.534.386.316.084-1.11-1.502-2.745-2.26-5.202-2.387-.78-.042-.934-.063-1.067-.19l-.161-.14V3.65H3.79zM19.165 9.049c0 5.244-.007 5.398-.14 5.567-.127.168-.183.175-1.068.224-2.05.106-3.278.527-4.486 1.524-.301.252-.905.961-.905 1.067 0 .028.168-.078.372-.232 1.102-.835 2.73-1.264 4.823-1.264.807 0 1.888.092 2.197.183.112.035.12-.295.12-6.213V3.65h-.913z"/><path d="M2.176 11.372v6.389H6.36c3.49 0 4.177-.014 4.107-.092-.134-.161-1.137-.603-1.713-.744a11 11 0 0 0-1.25-.217c-1.137-.113-1.762-.099-3.552.105-.4.049-.442.042-.61-.126l-.183-.183V4.984h-.983zM20.765 10.74l-.02 5.757-.19.19-.19.19-.653-.092c-2.211-.295-4.317-.105-5.637.52-1.025.484-1.25.449 3.426.456h4.19V4.984h-.912z"/></svg>
<text x="120" y="113" font-family="Consolas, monospace" font-size="15" fill="#202020">book_open_arc_24_filled</text>
<text x="120" y="136" font-family="Arial, sans-serif" font-size="13" fill="#666666">U+E000 · filled · 24 px</text>
<rect x="496" y="64" width="464" height="104" rx="12" fill="#f7f7f7" stroke="#dedede"/>
<svg x="516" y="84" width="64" height="64" viewBox="0 0 24 24" color="#202020"><path fill="currentColor" d="M4.34 1.515c-.177.156-.198.22-.22.736l-.028.567-.594.028c-.8.028-.9.128-.935.906l-.028.567h-.376c-.198 0-.46.035-.573.07-.439.156-.418-.226-.432 6.868-.007 4.085.014 6.563.064 6.705.141.467-.085.446 4.807.446 4.043 0 4.446.007 4.531.12.22.262.637.376 1.402.376.616 0 .793-.029 1.055-.15.17-.084.326-.197.347-.247.028-.085.786-.099 4.51-.099 4.928 0 4.701.021 4.843-.446.05-.142.07-2.627.063-6.719l-.014-6.5-.198-.19c-.17-.17-.255-.199-.722-.22l-.531-.028v-.531c0-.489-.014-.546-.206-.737-.198-.19-.24-.205-.778-.205h-.574V2.28c0-.46-.021-.58-.141-.708-.213-.227-.411-.255-1.516-.198-1.762.077-2.888.325-4.042.892-.758.368-1.275.764-1.791 1.373l-.319.382-.262-.332c-1.218-1.537-3.455-2.337-6.528-2.344-.545 0-.637.021-.814.17m2.627.758c1.5.155 2.839.729 3.688 1.586.277.269.588.665.701.87l.199.376.007 5.607c.007 3.42-.022 5.593-.057 5.572a3 3 0 0 1-.312-.304c-1.076-1.19-3.051-1.947-5.402-2.082-.693-.035-.835-.064-.842-.156a3143 3143 0 0 1 0-11.554c.007-.057 1.097-.007 2.018.085m12.007 5.713v5.87l-.8.042c-2.329.135-4.042.758-5.26 1.912l-.602.566.021-5.657.022-5.657.19-.318c.567-.97 1.374-1.608 2.585-2.047.828-.304 1.565-.438 2.712-.495a82 82 0 0 1 1.083-.064c.028-.007.05 2.627.05 5.848m-14.868.935c0 5.614 0 5.586.347 5.7.071.02.524.056.999.07 2.442.092 4.078.7 5.295 1.968.496.524.567.652.177.347-.693-.53-1.741-.934-2.902-1.111-1.048-.156-3.604-.128-4.581.056-.036.007-.064-2.598-.07-6.124l-.008-6.145h.743zm16.426.906v6.145l-.687-.092c-.878-.113-3.072-.127-3.773-.02-1.289.197-2.323.573-2.988 1.082-.191.142-.34.234-.34.199 0-.107.857-.949 1.204-1.19 1.14-.779 2.612-1.182 4.566-1.253.885-.028.928-.042 1.076-.22l.163-.183V3.682h.779zm-17.983.913c0 5.806 0 5.813.29 5.99.085.057.489.035 1.36-.057 1.444-.148 3.115-.12 4.085.071.672.135 1.571.46 1.84.673.177.141.17.141-3.979.141H1.982V5.168h.567zm19.399.623v6.195h-4.191c-2.889 0-4.163-.028-4.093-.077.553-.376 1.6-.716 2.585-.836.878-.106 2.378-.092 3.398.028 1.154.142 1.303.135 1.501-.05l.163-.148V5.168h.637z"/></svg>
<text x="600" y="113" font-family="Consolas, monospace" font-size="15" fill="#202020">book_open_arc_24_regular</text>
<text x="600" y="136" font-family="Arial, sans-serif" font-size="13" fill="#666666">U+E001 · regular · 24 px</text>
<rect x="16" y="176" width="464" height="104" rx="12" fill="#f7f7f7" stroke="#dedede"/>
<svg x="36" y="196" width="64" height="64" viewBox="0 0 24 24" color="#202020"><path d="M5.205464 4.444413C4.97401 4.550332 4.919089 4.699404 4.919089 5.221156C4.919089 5.476147 4.90732 5.684064 4.891629 5.687986C4.872014 5.687986 4.628792 5.691909 4.350262 5.695831C3.934431 5.703678 3.816742 5.715447 3.730437 5.774291C3.526445 5.90767 3.487215 6.01359 3.471524 6.511804L3.459755 6.970788L3.020385 6.98648C2.541786 7.006095 2.380946 7.061016 2.263258 7.241472C2.196567 7.343468 2.192645 7.688687 2.192645 13.357338C2.192645 19.877268 2.180876 19.484973 2.404483 19.637969C2.498633 19.704658 2.769317 19.708581 6.602031 19.72035L10.697583 19.728196L10.846655 19.849808C11.125184 20.069492 11.352715 20.120491 12.050998 20.120491C12.764973 20.120491 12.968967 20.077338 13.247495 19.865499L13.424028 19.728196L17.499965 19.72035C21.348371 19.708581 21.579825 19.704658 21.701437 19.637969C21.96035 19.496742 21.944659 19.896883 21.944659 13.349492C21.944659 7.927986 21.940736 7.390543 21.881891 7.268932C21.764204 7.021786 21.689668 7.006095 20.701086 6.978635C20.661857 6.978635 20.650088 6.864868 20.650088 6.543188C20.650088 6.060666 20.603012 5.895901 20.422557 5.774291C20.336252 5.715447 20.22641 5.703678 19.79881 5.699755C19.516357 5.695831 19.265289 5.68014 19.241752 5.664448C19.214291 5.648757 19.1986 5.472224 19.1986 5.201541C19.1986 4.47972 19.09268 4.389492 18.268862 4.389492C16.754606 4.389492 15.267811 4.624868 14.353765 5.005394C13.914396 5.189773 13.431874 5.444763 13.169037 5.633064C12.82774 5.876287 12.407986 6.276427 12.270683 6.48042C12.082382 6.766796 12.070613 6.766796 11.882312 6.515727C11.242872 5.65268 9.971839 4.938704 8.555657 4.644483C7.822066 4.495412 7.182627 4.428722 6.21366 4.405184C5.483993 4.389492 5.30746 4.397338 5.205464 4.444413M7.58669 5.154466C9.603082 5.460456 10.956497 6.197969 11.533169 7.296392L11.725394 7.665149L11.737163 12.804204C11.741086 15.628722 11.737163 17.966796 11.725394 17.994256C11.713625 18.029563 11.607705 17.947181 11.423328 17.747111C11.270332 17.582347 11.046725 17.370508 10.925114 17.28028C10.6662 17.084134 10.034606 16.70753 9.76 16.58592C9.293169 16.381926 8.410508 16.115167 7.939755 16.036707C7.31993 15.930788 7.112014 15.911173 6.390192 15.887635L5.605604 15.864099L5.593835 10.454361L5.58599 5.044623L6.378424 5.068161C6.817794 5.083853 7.359159 5.123082 7.58669 5.154466M18.508161 5.091699C18.523853 5.115237 18.543468 14.051699 18.531699 15.828792C18.531699 15.856252 18.280631 15.87979 17.778494 15.895482C16.61338 15.934711 15.989633 16.040631 15.004973 16.358389C14.44007 16.538845 13.949703 16.774221 13.475027 17.088056C13.121961 17.323433 12.655132 17.743188 12.568827 17.904028C12.541367 17.955027 12.486445 18.006025 12.447216 18.01387C12.37268 18.033485 12.37268 17.904028 12.37268 13.008196C12.376602 9.006796 12.384449 7.931909 12.4276 7.739685C12.588441 6.994326 13.216112 6.323503 14.236077 5.81352C14.961821 5.448687 15.94648 5.193695 17.001752 5.099544C17.484274 5.05247 18.484624 5.048546 18.508161 5.091699M4.919089 11.325254L4.938704 16.283853L5.060315 16.389773L5.181926 16.499615L6.060666 16.523152C7.939755 16.578074 9.163713 16.9076 10.317058 17.672575C10.654431 17.896182 11.207565 18.417934 11.329177 18.629773C11.415482 18.778845 11.391944 18.770998 11.097724 18.551313C9.920841 17.664728 7.74753 17.30774 5.095622 17.566655C4.664099 17.605884 4.295342 17.645114 4.271804 17.649037C4.252189 17.65296 4.209037 17.656883 4.185499 17.65296C4.14627 17.649037 4.134501 16.491769 4.134501 12L4.134501 6.347041L4.518949 6.358809L4.899474 6.370578ZM19.95965 6.38627C19.987111 6.429422 19.994956 17.61373 19.967496 17.637268C19.95965 17.645114 19.708581 17.625499 19.406515 17.594116C18.068792 17.441121 17.150823 17.441121 15.785639 17.590193C14.695062 17.707881 13.514256 18.11979 13.019965 18.555237C12.976812 18.594466 12.890508 18.641542 12.831664 18.665079L12.721821 18.708231L12.804204 18.58662C13.157268 18.096252 13.73394 17.637268 14.432224 17.292049C15.491419 16.774221 16.456462 16.570228 18.080561 16.523152C18.535622 16.511384 18.935762 16.483923 18.974992 16.464309C19.014221 16.444693 19.080911 16.370158 19.12014 16.303468C19.194676 16.181856 19.1986 16.060245 19.1986 11.289948C19.1986 8.602732 19.210368 6.390192 19.22606 6.378424C19.265289 6.335272 19.936113 6.347041 19.95965 6.38627M3.475447 12.859124L3.487215 18.037408L3.569598 18.147251C3.714746 18.343398 3.832435 18.355167 4.664099 18.253171C7.057093 17.958949 9.206866 18.18648 10.36021 18.857303C10.49359 18.931839 10.595587 19.010298 10.583818 19.029913C10.56028 19.065219 2.996848 19.073065 2.902697 19.037759C2.843853 19.014221 2.83993 18.476777 2.83993 13.349492L2.83993 7.684763L3.4676 7.684763ZM21.285604 7.723993C21.29345 7.743608 21.289528 10.301367 21.277759 13.400491L21.258144 19.041682L17.441121 19.05345C15.338424 19.057373 13.592715 19.045604 13.561332 19.02599C13.514256 19.002452 13.553485 18.963223 13.730018 18.857303C14.21254 18.567006 14.977513 18.339474 15.883713 18.21394C16.58592 18.115868 18.359089 18.115868 19.12014 18.21394C19.410437 18.249247 19.810578 18.2924 20.010648 18.304169L20.371559 18.327705L20.512785 18.18648L20.650088 18.049177L20.650088 7.684763L20.96 7.684763C21.13261 7.684763 21.277759 7.700456 21.285604 7.723993"/><path d="M6.58634 7.45331C6.398039 7.559229 6.350963 7.782837 6.488266 7.92014C6.562802 7.994676 6.617724 7.9986 8.638039 7.9986C10.670123 7.9986 10.713275 7.9986 10.795657 7.92014C10.909422 7.814221 10.909422 7.606305 10.79958 7.504309C10.721121 7.433695 10.619124 7.429773 8.689037 7.421926C7.257163 7.41408 6.641261 7.421926 6.58634 7.45331M6.547111 8.869492C6.437268 8.93226 6.409808 8.979334 6.409808 9.124483C6.409808 9.210788 6.441191 9.273555 6.511804 9.328476C6.6138 9.410858 6.653029 9.410858 8.645884 9.410858C10.63874 9.410858 10.677969 9.410858 10.779965 9.328476C10.913345 9.222557 10.921191 9.018564 10.795657 8.900876C10.713275 8.822417 10.670123 8.822417 8.669422 8.822417C7.217934 8.82634 6.602031 8.838109 6.547111 8.869492M6.515727 10.285674C6.409808 10.36021 6.38627 10.591664 6.476497 10.697583L6.547111 10.787811L8.62627 10.783888C10.944728 10.783888 10.881961 10.787811 10.881961 10.528897C10.881961 10.442592 10.850578 10.36021 10.803503 10.313134C10.728967 10.2386 10.674045 10.234676 8.65373 10.234676C7.053169 10.234676 6.566725 10.246445 6.515727 10.285674M6.488266 11.725394C6.441191 11.77247 6.409808 11.854851 6.409808 11.937233C6.409808 12.203993 6.343117 12.196147 8.645884 12.196147C10.670123 12.196147 10.713275 12.196147 10.795657 12.117688C10.913345 12.007846 10.913345 11.792084 10.795657 11.709703C10.717198 11.654781 10.446515 11.646936 8.638039 11.646936C6.617724 11.646936 6.562802 11.650858 6.488266 11.725394M6.496112 13.110193C6.382347 13.231804 6.382347 13.41226 6.500035 13.522101L6.590262 13.608406L8.634116 13.608406C10.63874 13.608406 10.677969 13.608406 10.779965 13.526025C10.909422 13.424028 10.921191 13.216112 10.803503 13.098424C10.728967 13.023888 10.674045 13.019965 8.65373 13.019965L6.578494 13.019965ZM6.511804 14.514606C6.441191 14.569528 6.409808 14.632295 6.409808 14.7186C6.41373 15.024588 6.370578 15.020666 8.657653 15.020666C10.63874 15.020666 10.677969 15.020666 10.779965 14.938284C10.909422 14.836287 10.921191 14.628371 10.803503 14.510683C10.728967 14.436147 10.674045 14.432224 8.669422 14.432224C6.653029 14.432224 6.6138 14.432224 6.511804 14.514606M13.404414 7.469002C13.220035 7.54746 13.176883 7.763223 13.314186 7.912295L13.396567 7.9986L15.471804 7.9986C17.499965 7.9986 17.554886 7.994676 17.629422 7.92014C17.735342 7.814221 17.731419 7.602382 17.625499 7.504309C17.547041 7.433695 17.448967 7.429773 15.530648 7.425849C13.996777 7.421926 13.494641 7.433695 13.404414 7.469002M13.3338 8.920491C13.20042 9.049948 13.204344 9.222557 13.337724 9.328476C13.43972 9.410858 13.478949 9.410858 15.471804 9.410858C17.464658 9.410858 17.503888 9.410858 17.605884 9.328476C17.747111 9.218635 17.747111 9.014641 17.605884 8.904798C17.503888 8.822417 17.464658 8.822417 15.463958 8.822417L13.427951 8.822417ZM13.318109 10.336672C13.220035 10.462206 13.216112 10.575972 13.30634 10.69366L13.37303 10.783888L15.393345 10.783888C16.503538 10.787811 17.445044 10.787811 17.484274 10.787811C17.590193 10.783888 17.707881 10.63874 17.707881 10.509282C17.707881 10.442592 17.672575 10.356287 17.629422 10.313134C17.554886 10.2386 17.499965 10.234676 15.475727 10.234676L13.396567 10.234676ZM13.392645 11.674396C13.227881 11.73324 13.180806 11.984309 13.314186 12.117688C13.388722 12.192224 13.443643 12.196147 15.471804 12.196147C17.499965 12.196147 17.554886 12.192224 17.629422 12.117688C17.676497 12.070613 17.707881 11.988231 17.707881 11.905849C17.707881 11.639089 17.770648 11.646936 15.491419 11.650858C14.369457 11.650858 13.424028 11.662627 13.392645 11.674396M13.3338 13.118039C13.20042 13.247495 13.204344 13.420105 13.337724 13.526025C13.43972 13.608406 13.478949 13.608406 15.471804 13.608406C17.464658 13.608406 17.503888 13.608406 17.605884 13.526025C17.739264 13.420105 17.747111 13.223958 17.617653 13.10627L17.527426 13.019965L13.427951 13.019965ZM13.3338 14.530297C13.20042 14.659755 13.204344 14.832365 13.337724 14.938284C13.43972 15.020666 13.478949 15.020666 15.471804 15.020666C17.464658 15.020666 17.503888 15.020666 17.605884 14.938284C17.739264 14.832365 17.747111 14.628371 17.621577 14.510683C17.539194 14.432224 17.496043 14.432224 15.483573 14.432224L13.427951 14.432224Z"/></svg>
<text x="120" y="225" font-family="Consolas, monospace" font-size="15" fill="#202020">book_open_lines_24_filled</text>
<text x="120" y="248" font-family="Arial, sans-serif" font-size="13" fill="#666666">U+E002 · filled · 24 px</text>
<rect x="496" y="176" width="464" height="104" rx="12" fill="#f7f7f7" stroke="#dedede"/>
<svg x="516" y="196" width="64" height="64" viewBox="0 0 24 24" color="#202020"><path d="M5.205464 4.444413C4.97401 4.550332 4.919089 4.699404 4.919089 5.221156C4.919089 5.476147 4.90732 5.684064 4.891629 5.687986C4.872014 5.687986 4.628792 5.691909 4.350262 5.695831C3.934431 5.703678 3.816742 5.715447 3.730437 5.774291C3.526445 5.90767 3.487215 6.01359 3.471524 6.511804L3.459755 6.970788L3.020385 6.98648C2.541786 7.006095 2.380946 7.061016 2.263258 7.241472C2.196567 7.343468 2.192645 7.688687 2.192645 13.357338C2.192645 19.877268 2.180876 19.484973 2.404483 19.637969C2.498633 19.704658 2.769317 19.708581 6.602031 19.72035L10.697583 19.728196L10.846655 19.849808C11.125184 20.069492 11.352715 20.120491 12.050998 20.120491C12.764973 20.120491 12.968967 20.077338 13.247495 19.865499L13.424028 19.728196L17.499965 19.72035C21.348371 19.708581 21.579825 19.704658 21.701437 19.637969C21.96035 19.496742 21.944659 19.896883 21.944659 13.349492C21.944659 7.927986 21.940736 7.390543 21.881891 7.268932C21.764204 7.021786 21.689668 7.006095 20.701086 6.978635C20.661857 6.978635 20.650088 6.864868 20.650088 6.543188C20.650088 6.060666 20.603012 5.895901 20.422557 5.774291C20.336252 5.715447 20.22641 5.703678 19.79881 5.699755C19.516357 5.695831 19.265289 5.68014 19.241752 5.664448C19.214291 5.648757 19.1986 5.472224 19.1986 5.201541C19.1986 4.47972 19.09268 4.389492 18.268862 4.389492C16.754606 4.389492 15.267811 4.624868 14.353765 5.005394C13.914396 5.189773 13.431874 5.444763 13.169037 5.633064C12.82774 5.876287 12.407986 6.276427 12.270683 6.48042C12.082382 6.766796 12.070613 6.766796 11.882312 6.515727C11.242872 5.65268 9.971839 4.938704 8.555657 4.644483C7.822066 4.495412 7.182627 4.428722 6.21366 4.405184C5.483993 4.389492 5.30746 4.397338 5.205464 4.444413M7.58669 5.154466C9.603082 5.460456 10.956497 6.197969 11.533169 7.296392L11.725394 7.665149L11.737163 12.804204C11.741086 15.628722 11.737163 17.966796 11.725394 17.994256C11.713625 18.029563 11.607705 17.947181 11.423328 17.747111C11.270332 17.582347 11.046725 17.370508 10.925114 17.28028C10.6662 17.084134 10.034606 16.70753 9.76 16.58592C9.293169 16.381926 8.410508 16.115167 7.939755 16.036707C7.31993 15.930788 7.112014 15.911173 6.390192 15.887635L5.605604 15.864099L5.593835 10.454361L5.58599 5.044623L6.378424 5.068161C6.817794 5.083853 7.359159 5.123082 7.58669 5.154466M18.508161 5.091699C18.523853 5.115237 18.543468 14.051699 18.531699 15.828792C18.531699 15.856252 18.280631 15.87979 17.778494 15.895482C16.61338 15.934711 15.989633 16.040631 15.004973 16.358389C14.44007 16.538845 13.949703 16.774221 13.475027 17.088056C13.121961 17.323433 12.655132 17.743188 12.568827 17.904028C12.541367 17.955027 12.486445 18.006025 12.447216 18.01387C12.37268 18.033485 12.37268 17.904028 12.37268 13.008196C12.376602 9.006796 12.384449 7.931909 12.4276 7.739685C12.588441 6.994326 13.216112 6.323503 14.236077 5.81352C14.961821 5.448687 15.94648 5.193695 17.001752 5.099544C17.484274 5.05247 18.484624 5.048546 18.508161 5.091699M4.919089 11.325254L4.938704 16.283853L5.060315 16.389773L5.181926 16.499615L6.060666 16.523152C7.939755 16.578074 9.163713 16.9076 10.317058 17.672575C10.654431 17.896182 11.207565 18.417934 11.329177 18.629773C11.415482 18.778845 11.391944 18.770998 11.097724 18.551313C9.920841 17.664728 7.74753 17.30774 5.095622 17.566655C4.664099 17.605884 4.295342 17.645114 4.271804 17.649037C4.252189 17.65296 4.209037 17.656883 4.185499 17.65296C4.14627 17.649037 4.134501 16.491769 4.134501 12L4.134501 6.347041L4.518949 6.358809L4.899474 6.370578ZM19.95965 6.38627C19.987111 6.429422 19.994956 17.61373 19.967496 17.637268C19.95965 17.645114 19.708581 17.625499 19.406515 17.594116C18.068792 17.441121 17.150823 17.441121 15.785639 17.590193C14.695062 17.707881 13.514256 18.11979 13.019965 18.555237C12.976812 18.594466 12.890508 18.641542 12.831664 18.665079L12.721821 18.708231L12.804204 18.58662C13.157268 18.096252 13.73394 17.637268 14.432224 17.292049C15.491419 16.774221 16.456462 16.570228 18.080561 16.523152C18.535622 16.511384 18.935762 16.483923 18.974992 16.464309C19.014221 16.444693 19.080911 16.370158 19.12014 16.303468C19.194676 16.181856 19.1986 16.060245 19.1986 11.289948C19.1986 8.602732 19.210368 6.390192 19.22606 6.378424C19.265289 6.335272 19.936113 6.347041 19.95965 6.38627M3.475447 12.859124L3.487215 18.037408L3.569598 18.147251C3.714746 18.343398 3.832435 18.355167 4.664099 18.253171C7.057093 17.958949 9.206866 18.18648 10.36021 18.857303C10.49359 18.931839 10.595587 19.010298 10.583818 19.029913C10.56028 19.065219 2.996848 19.073065 2.902697 19.037759C2.843853 19.014221 2.83993 18.476777 2.83993 13.349492L2.83993 7.684763L3.4676 7.684763ZM21.285604 7.723993C21.29345 7.743608 21.289528 10.301367 21.277759 13.400491L21.258144 19.041682L17.441121 19.05345C15.338424 19.057373 13.592715 19.045604 13.561332 19.02599C13.514256 19.002452 13.553485 18.963223 13.730018 18.857303C14.21254 18.567006 14.977513 18.339474 15.883713 18.21394C16.58592 18.115868 18.359089 18.115868 19.12014 18.21394C19.410437 18.249247 19.810578 18.2924 20.010648 18.304169L20.371559 18.327705L20.512785 18.18648L20.650088 18.049177L20.650088 7.684763L20.96 7.684763C21.13261 7.684763 21.277759 7.700456 21.285604 7.723993"/><path d="M6.58634 7.45331C6.398039 7.559229 6.350963 7.782837 6.488266 7.92014C6.562802 7.994676 6.617724 7.9986 8.638039 7.9986C10.670123 7.9986 10.713275 7.9986 10.795657 7.92014C10.909422 7.814221 10.909422 7.606305 10.79958 7.504309C10.721121 7.433695 10.619124 7.429773 8.689037 7.421926C7.257163 7.41408 6.641261 7.421926 6.58634 7.45331M6.547111 8.869492C6.437268 8.93226 6.409808 8.979334 6.409808 9.124483C6.409808 9.210788 6.441191 9.273555 6.511804 9.328476C6.6138 9.410858 6.653029 9.410858 8.645884 9.410858C10.63874 9.410858 10.677969 9.410858 10.779965 9.328476C10.913345 9.222557 10.921191 9.018564 10.795657 8.900876C10.713275 8.822417 10.670123 8.822417 8.669422 8.822417C7.217934 8.82634 6.602031 8.838109 6.547111 8.869492M6.515727 10.285674C6.409808 10.36021 6.38627 10.591664 6.476497 10.697583L6.547111 10.787811L8.62627 10.783888C10.944728 10.783888 10.881961 10.787811 10.881961 10.528897C10.881961 10.442592 10.850578 10.36021 10.803503 10.313134C10.728967 10.2386 10.674045 10.234676 8.65373 10.234676C7.053169 10.234676 6.566725 10.246445 6.515727 10.285674M6.488266 11.725394C6.441191 11.77247 6.409808 11.854851 6.409808 11.937233C6.409808 12.203993 6.343117 12.196147 8.645884 12.196147C10.670123 12.196147 10.713275 12.196147 10.795657 12.117688C10.913345 12.007846 10.913345 11.792084 10.795657 11.709703C10.717198 11.654781 10.446515 11.646936 8.638039 11.646936C6.617724 11.646936 6.562802 11.650858 6.488266 11.725394M6.496112 13.110193C6.382347 13.231804 6.382347 13.41226 6.500035 13.522101L6.590262 13.608406L8.634116 13.608406C10.63874 13.608406 10.677969 13.608406 10.779965 13.526025C10.909422 13.424028 10.921191 13.216112 10.803503 13.098424C10.728967 13.023888 10.674045 13.019965 8.65373 13.019965L6.578494 13.019965ZM6.511804 14.514606C6.441191 14.569528 6.409808 14.632295 6.409808 14.7186C6.41373 15.024588 6.370578 15.020666 8.657653 15.020666C10.63874 15.020666 10.677969 15.020666 10.779965 14.938284C10.909422 14.836287 10.921191 14.628371 10.803503 14.510683C10.728967 14.436147 10.674045 14.432224 8.669422 14.432224C6.653029 14.432224 6.6138 14.432224 6.511804 14.514606M13.404414 7.469002C13.220035 7.54746 13.176883 7.763223 13.314186 7.912295L13.396567 7.9986L15.471804 7.9986C17.499965 7.9986 17.554886 7.994676 17.629422 7.92014C17.735342 7.814221 17.731419 7.602382 17.625499 7.504309C17.547041 7.433695 17.448967 7.429773 15.530648 7.425849C13.996777 7.421926 13.494641 7.433695 13.404414 7.469002M13.3338 8.920491C13.20042 9.049948 13.204344 9.222557 13.337724 9.328476C13.43972 9.410858 13.478949 9.410858 15.471804 9.410858C17.464658 9.410858 17.503888 9.410858 17.605884 9.328476C17.747111 9.218635 17.747111 9.014641 17.605884 8.904798C17.503888 8.822417 17.464658 8.822417 15.463958 8.822417L13.427951 8.822417ZM13.318109 10.336672C13.220035 10.462206 13.216112 10.575972 13.30634 10.69366L13.37303 10.783888L15.393345 10.783888C16.503538 10.787811 17.445044 10.787811 17.484274 10.787811C17.590193 10.783888 17.707881 10.63874 17.707881 10.509282C17.707881 10.442592 17.672575 10.356287 17.629422 10.313134C17.554886 10.2386 17.499965 10.234676 15.475727 10.234676L13.396567 10.234676ZM13.392645 11.674396C13.227881 11.73324 13.180806 11.984309 13.314186 12.117688C13.388722 12.192224 13.443643 12.196147 15.471804 12.196147C17.499965 12.196147 17.554886 12.192224 17.629422 12.117688C17.676497 12.070613 17.707881 11.988231 17.707881 11.905849C17.707881 11.639089 17.770648 11.646936 15.491419 11.650858C14.369457 11.650858 13.424028 11.662627 13.392645 11.674396M13.3338 13.118039C13.20042 13.247495 13.204344 13.420105 13.337724 13.526025C13.43972 13.608406 13.478949 13.608406 15.471804 13.608406C17.464658 13.608406 17.503888 13.608406 17.605884 13.526025C17.739264 13.420105 17.747111 13.223958 17.617653 13.10627L17.527426 13.019965L13.427951 13.019965ZM13.3338 14.530297C13.20042 14.659755 13.204344 14.832365 13.337724 14.938284C13.43972 15.020666 13.478949 15.020666 15.471804 15.020666C17.464658 15.020666 17.503888 15.020666 17.605884 14.938284C17.739264 14.832365 17.747111 14.628371 17.621577 14.510683C17.539194 14.432224 17.496043 14.432224 15.483573 14.432224L13.427951 14.432224Z"/></svg>
<text x="600" y="225" font-family="Consolas, monospace" font-size="15" fill="#202020">book_open_lines_24_regular</text>
<text x="600" y="248" font-family="Arial, sans-serif" font-size="13" fill="#666666">U+E003 · regular · 24 px</text>
<rect x="16" y="288" width="464" height="104" rx="12" fill="#f7f7f7" stroke="#dedede"/>
<svg x="36" y="308" width="64" height="64" viewBox="0 0 24 24" color="#202020"><path d="M5.460274 4.528219C5.276165 4.570412 5.141919 4.670138 5.057534 4.815891C4.980822 4.950138 4.969315 5.023014 4.976987 5.310686C4.980822 5.525479 4.96548 5.655891 4.938631 5.675069C4.915617 5.686576 4.727672 5.698083 4.524384 5.694247C4.202193 5.686576 4.133151 5.698083 3.983562 5.778631C3.741919 5.905206 3.66137 6.058631 3.638357 6.457534L3.619179 6.783562L3.19726 6.802741C2.710138 6.825755 2.560548 6.887124 2.441644 7.113425C2.372603 7.247672 2.372603 7.454795 2.372603 12.939727C2.372603 18.597263 2.372603 18.627947 2.453151 18.754523C2.495343 18.823564 2.595069 18.919454 2.671781 18.969318L2.813698 19.057537L6.791234 19.076714L10.764932 19.095892L10.856987 19.17644C10.906851 19.222468 11.02192 19.29918 11.11781 19.349044C11.282741 19.437263 11.328768 19.441099 12.01918 19.441099C12.698084 19.441099 12.759454 19.433427 12.939728 19.35288C13.047125 19.303016 13.173701 19.222468 13.227399 19.172605L13.327125 19.076714L17.293152 19.069044L21.263016 19.057537L21.412605 18.965482C21.493154 18.915619 21.59288 18.819728 21.631236 18.754523C21.700276 18.639454 21.704112 18.45918 21.704112 12.920549C21.704112 7.324384 21.704112 7.201644 21.6274 7.082741C21.49699 6.86411 21.389592 6.825755 20.902469 6.802741L20.457537 6.783562L20.438359 6.457534C20.403838 5.870686 20.20055 5.690412 19.571509 5.690412C19.375893 5.690412 19.191783 5.678905 19.157263 5.667398C19.1074 5.64822 19.095893 5.579179 19.095893 5.299179C19.095893 4.930959 19.057537 4.815891 18.884933 4.654795C18.785208 4.558905 18.777537 4.558905 17.972057 4.547398C17.016988 4.532055 16.387947 4.578083 15.701372 4.712329C14.51233 4.946302 13.764385 5.218631 13.123837 5.640548C12.778632 5.870686 12.295344 6.27726 12.233974 6.392329C12.207125 6.442193 12.153427 6.503562 12.107399 6.530412C12.038358 6.572603 12.01918 6.564932 11.911782 6.430686C11.12548 5.467946 9.418632 4.754521 7.473974 4.581919C6.983015 4.539726 5.579179 4.50137 5.460274 4.528219M7.780823 4.808219C8.517261 4.919452 9.292056 5.107398 9.871234 5.318357C10.120549 5.406576 10.726577 5.724932 10.998906 5.90137C11.309591 6.108493 11.773701 6.561096 11.907947 6.787398C11.961646 6.879453 12.023015 6.956165 12.042194 6.956165C12.057536 6.956165 12.118906 6.883288 12.168768 6.791234C12.291508 6.580274 12.790139 6.096986 13.093152 5.8937C13.630139 5.533151 14.41644 5.207124 15.202742 5.015343C16.084933 4.804384 16.453152 4.762193 17.546304 4.743014C18.290413 4.727672 18.608769 4.735343 18.666304 4.766028C18.838907 4.858083 18.884933 4.988493 18.904112 5.460274L18.92329 5.90137L19.421921 5.90137C20.143016 5.90137 20.181373 5.932055 20.208221 6.549589L20.2274 6.975343L20.749044 6.994521C21.121099 7.009864 21.289866 7.029041 21.335893 7.067398C21.520003 7.220822 21.512331 6.963836 21.512331 12.920549C21.512331 18.393975 21.512331 18.509044 21.435619 18.650961C21.385756 18.750687 21.32055 18.815892 21.236167 18.842742C21.147948 18.873427 20.001099 18.884933 17.162742 18.884933L13.212056 18.881099L13.135344 18.973152C12.932056 19.207126 12.575344 19.287673 11.869591 19.260824C11.355618 19.237811 11.175344 19.184112 10.979727 18.996166L10.860823 18.881099L6.902467 18.884933C2.529864 18.888769 2.798357 18.904112 2.641096 18.64329C2.564384 18.524385 2.564384 18.405482 2.564384 12.92822C2.564384 6.963836 2.556712 7.220822 2.740822 7.067398C2.78685 7.029041 2.955617 7.009864 3.327672 6.994521L3.849315 6.975343L3.868493 6.553425C3.887672 6.108493 3.929864 5.981919 4.067946 5.932055C4.117808 5.916713 4.382467 5.90137 4.654795 5.90137L5.153425 5.90137L5.172603 5.441096C5.191781 4.980822 5.226302 4.850412 5.356713 4.769864C5.441096 4.716165 7.378083 4.74685 7.780823 4.808219"/><path d="M5.774795 5.295343C5.759453 5.30685 5.747946 7.558357 5.747946 10.293151L5.747946 15.264111L6.564932 15.310139C7.995617 15.394522 8.789591 15.559454 9.671782 15.954523C10.427399 16.299728 11.094796 16.771509 11.501372 17.250961C11.61644 17.389044 11.720001 17.504111 11.731508 17.504111C11.750687 17.504111 11.743015 12.652056 11.720001 9.123289L11.71233 7.589041L11.562741 7.30137C11.367125 6.929315 10.906851 6.469041 10.481097 6.223562C9.859727 5.859179 8.862467 5.529315 8.01096 5.406576C7.193974 5.287672 5.847672 5.218631 5.774795 5.295343M10.853152 7.374248C10.96822 7.466302 10.975892 7.692603 10.868494 7.796165C10.795618 7.865206 10.684385 7.872877 8.843289 7.892055C6.818083 7.918905 6.630138 7.907398 6.553425 7.761644C6.492055 7.642741 6.507398 7.462467 6.591782 7.378083C6.668494 7.30137 6.718357 7.30137 8.716713 7.30137C10.661372 7.30137 10.768768 7.305206 10.853152 7.374248M10.87233 8.6937C10.979727 8.820275 10.991234 8.950686 10.89918 9.061919C10.830139 9.138631 10.803289 9.138631 8.751234 9.150138C6.760549 9.161644 6.672329 9.15781 6.595617 9.088768C6.442193 8.950686 6.503562 8.670686 6.70685 8.593974C6.737536 8.582467 7.669589 8.574796 8.770412 8.578631L10.780275 8.586303ZM10.791782 9.894248C10.883837 9.928768 10.96822 10.124384 10.941372 10.231782C10.887673 10.450412 10.914522 10.446577 8.739727 10.446577C6.745206 10.446577 6.626303 10.438905 6.545755 10.316165C6.48822 10.231782 6.515069 10.024658 6.591782 9.947946C6.664658 9.87507 6.718357 9.871234 8.697536 9.871234C9.8137 9.871234 10.757261 9.882741 10.791782 9.894248M10.753427 11.190686C10.929865 11.267398 10.991234 11.39781 10.926029 11.558905C10.89918 11.627946 10.833974 11.696987 10.784111 11.716165C10.730413 11.735344 9.8137 11.750686 8.705206 11.750686C6.752877 11.750686 6.714522 11.750686 6.614796 11.670139C6.538083 11.608768 6.515069 11.558905 6.515069 11.443837C6.515069 11.267398 6.58411 11.206029 6.818083 11.171508C6.913974 11.160001 7.807672 11.144658 8.804932 11.140823C10.327672 11.136987 10.638358 11.144658 10.753427 11.190686M10.787946 12.483289C10.89918 12.536987 10.983563 12.709591 10.945206 12.820823C10.883837 13.024111 10.964385 13.01644 8.747398 13.01644C6.42685 13.01644 6.515069 13.027946 6.515069 12.747946C6.515069 12.632878 6.538083 12.583015 6.614796 12.521646C6.714522 12.441097 6.752877 12.441097 8.705206 12.441097C10.101372 12.441097 10.718906 12.452604 10.787946 12.483289M10.707399 13.749042C10.991234 13.825755 11.041097 14.186303 10.787946 14.286029C10.718906 14.309042 9.967125 14.320549 8.682193 14.312878C6.772056 14.301372 6.672329 14.297536 6.595617 14.228494C6.541919 14.178632 6.515069 14.109591 6.515069 14.013701C6.515069 13.852604 6.572603 13.787399 6.756713 13.745208C6.952329 13.69918 10.538632 13.69918 10.707399 13.749042M17.082194 5.295343C15.973701 5.387398 15.16055 5.556165 14.358906 5.870686C13.469042 6.215891 12.866851 6.691507 12.529316 7.320548L12.364385 7.627398L12.345208 12.556166C12.333701 15.267947 12.326029 17.488769 12.329865 17.49644C12.333701 17.500276 12.452604 17.373701 12.598358 17.208769C13.265755 16.464659 14.466303 15.804933 15.663016 15.528769C16.249865 15.390687 17.807126 15.244933 18.160002 15.294796L18.328769 15.31781L18.328769 5.268493L17.784112 5.276165C17.481099 5.28 17.166578 5.287672 17.082194 5.295343M15.551783 7.688768C15.900824 7.750138 16.284385 7.953425 16.587399 8.237261C16.80603 8.436713 16.890413 8.551782 17.036166 8.843289C17.46192 9.698631 17.320002 10.611508 16.652605 11.313425C16.518358 11.451508 16.410961 11.581919 16.410961 11.604932C16.410961 11.693152 16.575892 11.904111 16.664111 11.927125C16.813701 11.96548 16.905756 12.107399 17.343016 12.978084C17.74192 13.775892 17.753427 13.806577 17.718906 13.956166C17.623016 14.339728 17.109044 14.427947 16.882742 14.105755C16.84055 14.044385 16.629592 13.649316 16.414797 13.231234C16.031235 12.487125 16.019728 12.460275 16.042742 12.27233C16.06192 12.11507 16.050413 12.0537 15.989044 11.950139C15.931509 11.854248 15.889318 11.827399 15.84329 11.846577C15.505756 11.973152 14.765482 11.969316 14.412604 11.831234C14.128769 11.723837 13.69918 11.420823 13.503563 11.186851C12.83233 10.404384 12.83233 9.15781 13.503563 8.394522C14.025208 7.800001 14.765482 7.54685 15.551783 7.688768"/><path d="M14.681097 8.202741C14.274523 8.352329 14.052056 8.513425 13.833427 8.820275C13.564933 9.192329 13.518906 9.338083 13.51507 9.8137C13.51507 10.220275 13.518906 10.247124 13.645482 10.504111C13.913975 11.048768 14.424111 11.401646 14.984111 11.436165C15.881646 11.486029 16.598906 10.922193 16.763838 10.028494C16.871235 9.453151 16.56055 8.762741 16.035071 8.4137C15.670687 8.172055 15.030139 8.072329 14.681097 8.202741M15.12603 8.54411C15.12603 8.643836 15.110687 8.659179 14.91507 8.709042C14.800002 8.735891 14.623563 8.812603 14.523837 8.87781C14.228495 9.069589 14.113427 9.28822 14.009865 9.852056C13.998358 9.913425 13.983016 9.974796 13.971509 9.993974C13.940823 10.043837 13.814249 10.028494 13.764385 9.967124C13.691509 9.878905 13.745208 9.483837 13.864111 9.215343C14.055892 8.789589 14.589044 8.402193 14.953427 8.42137C15.114523 8.432877 15.12603 8.440549 15.12603 8.54411M4.443836 6.503562L4.443836 11.750686C4.44 16.602742 4.443836 16.947947 4.505206 16.940276C4.539727 16.93644 4.812055 16.905756 5.111234 16.867399C5.774795 16.77918 7.589042 16.767673 8.164384 16.844385C9.483837 17.020823 10.684385 17.46192 11.313427 17.995071C11.393974 18.067947 11.463015 18.106304 11.463015 18.087125C11.463015 17.972057 10.880001 17.354523 10.523289 17.08603C9.433974 16.265208 8.183563 15.91233 6.238905 15.873975C5.767124 15.866303 5.414248 15.843289 5.36822 15.81644C5.164932 15.709042 5.172603 15.916166 5.172603 11.002741L5.172603 6.457534L4.80822 6.457534C4.543562 6.457534 4.443836 6.469041 4.443836 6.503562M18.904112 10.952878C18.904112 13.960001 18.888769 15.498084 18.861921 15.59781C18.796714 15.835618 18.750687 15.847125 17.841646 15.870139C16.687125 15.900823 15.908495 16.015892 15.149044 16.265208C14.535344 16.464659 13.756714 16.90192 13.315618 17.285482C13.11233 17.465756 12.678906 17.964385 12.70192 17.991235C12.713427 17.998906 12.828494 17.929865 12.962742 17.837811C13.676166 17.33918 14.688769 17.001646 15.912331 16.844385C16.506852 16.771509 18.286578 16.783016 18.92329 16.863563C19.199454 16.90192 19.479454 16.940276 19.548495 16.951783L19.671235 16.974797L19.671235 6.457534L18.904112 6.457534Z"/><path d="M3.158905 7.562193C3.132055 7.58137 3.128219 9.395617 3.139726 12.939727L3.158905 18.290413L6.956165 18.298085L10.753427 18.305756L10.657536 18.225208C10.523289 18.110139 9.928768 17.837811 9.564385 17.718906C8.678358 17.435071 8.16822 17.369865 6.821919 17.369865C5.755617 17.369865 5.153425 17.412057 4.547398 17.52329C4.232877 17.580824 4.060274 17.546304 3.945206 17.40055C3.868493 17.300824 3.868493 17.281646 3.868493 12.441097C3.868493 8.041644 3.860822 7.577534 3.807124 7.554522C3.72274 7.523836 3.204932 7.527672 3.158905 7.562193M20.2274 7.577534C20.215893 7.604384 20.204386 9.8137 20.20055 12.487125L20.189044 17.343016L20.096988 17.442742C19.981921 17.565482 19.939728 17.565482 19.191783 17.46192C18.359454 17.346851 16.775345 17.320002 16.046578 17.404385C15.141372 17.515618 14.485482 17.695892 13.814249 18.02192C13.57644 18.140824 13.380823 18.252057 13.380823 18.271235C13.380823 18.298085 14.704111 18.309592 17.158906 18.309592L20.936988 18.309592L20.936988 7.531508L20.591783 7.531508C20.35014 7.531508 20.238907 7.54685 20.2274 7.577534"/></svg>
<text x="120" y="337" font-family="Consolas, monospace" font-size="15" fill="#202020">book_open_lines_search_24_filled</text>
<text x="120" y="360" font-family="Arial, sans-serif" font-size="13" fill="#666666">U+E004 · filled · 24 px</text>
<rect x="496" y="288" width="464" height="104" rx="12" fill="#f7f7f7" stroke="#dedede"/>
<svg x="516" y="308" width="64" height="64" viewBox="0 0 24 24" color="#202020"><path d="M5.510645 4.431693C5.205724 4.459057 5.010261 4.564607 4.932076 4.744433C4.90862 4.799162 4.881256 5.037626 4.869528 5.27609L4.846073 5.706107L4.337871 5.725654C3.888307 5.741291 3.814031 5.756928 3.700663 5.835113C3.50911 5.975846 3.477836 6.05794 3.45829 6.546597L3.438744 6.99616L3.008726 7.015707C2.559162 7.035253 2.484887 7.058708 2.324607 7.230715L2.226876 7.336265L2.215148 13.110226L2.207329 18.888096L2.293333 18.997555C2.469249 19.220382 2.289424 19.212564 6.652146 19.212564L10.674763 19.212564L10.874135 19.365024C11.159511 19.576124 11.378428 19.623035 12.09773 19.623035C12.805304 19.623035 13.043768 19.568305 13.297869 19.349387L13.458148 19.212564L17.488585 19.212564C21.452563 19.212564 21.52293 19.212564 21.67539 19.134379C21.972493 18.981918 21.949037 19.474484 21.949037 13.106316C21.949037 7.512181 21.949037 7.383175 21.870852 7.261989C21.757485 7.070435 21.659754 7.035253 21.167188 7.015707L20.717624 6.99616L20.698078 6.546597C20.666804 5.823385 20.565163 5.725654 19.845862 5.725654C19.607397 5.725654 19.38848 5.713926 19.353296 5.702199C19.302476 5.682652 19.290749 5.604467 19.290749 5.260454C19.290749 4.791344 19.239929 4.658429 19.009283 4.509878C18.884186 4.435602 18.837275 4.431693 17.863872 4.447329C16.479998 4.474694 15.741151 4.595882 14.560557 5.002443C13.465967 5.377731 12.817032 5.819476 12.140731 6.648237C12.086003 6.710784 12.074274 6.706876 11.984361 6.581779C11.249423 5.604467 9.959371 4.935985 8.149388 4.595882C7.430086 4.462967 6.120488 4.380872 5.510645 4.431693M7.582548 5.217451C8.618498 5.373821 9.365165 5.59274 10.092285 5.960208C10.85068 6.347224 11.288516 6.753787 11.589528 7.344083L11.765444 7.692006L11.769353 12.555112C11.769353 15.229038 11.757625 17.426037 11.741988 17.437765C11.726352 17.445583 11.581709 17.324396 11.41752 17.164117C11.073507 16.824012 10.760767 16.593366 10.256474 16.307992C9.114973 15.662966 8.075112 15.404955 6.448864 15.354135C5.991483 15.342407 5.64356 15.315042 5.616195 15.291587C5.573194 15.256403 5.565375 14.466735 5.584921 10.69431C5.596649 8.188481 5.604467 5.90157 5.608376 5.612286L5.608376 5.088446L6.323769 5.111901C6.714694 5.12363 7.281535 5.17054 7.582548 5.217451M18.579265 10.178289C18.583174 13.6067 18.575355 15.252495 18.547992 15.283768C18.520627 15.318951 18.356438 15.334588 18.028061 15.338497C16.41745 15.354135 15.033576 15.674693 13.974169 16.276718C13.446421 16.57773 13.118044 16.820103 12.793576 17.14848C12.629387 17.316577 12.473017 17.453401 12.449562 17.453401C12.422197 17.453401 12.41047 15.960068 12.41047 12.629388C12.41047 7.926561 12.414379 7.797556 12.488655 7.555183C12.82876 6.456683 14.275181 5.58883 16.331447 5.256544C17.011656 5.147085 17.46122 5.107993 18.059334 5.115811L18.567538 5.11972ZM4.873438 11.065688L4.885165 15.702058L5.025898 15.827154L5.162723 15.956159L5.971937 15.979614C7.19944 16.018707 7.973472 16.139894 8.794414 16.413541C9.28307 16.57773 9.975008 16.917834 10.346386 17.175845C10.690401 17.414308 11.198603 17.879509 11.292424 18.039789C11.374519 18.184431 11.354973 18.176613 11.085234 17.969422C10.709947 17.684047 9.986735 17.375216 9.290889 17.20321C7.907015 16.859195 6.624781 16.827921 4.349598 17.089841L4.161954 17.113297L4.161954 12.011726C4.161954 9.204885 4.150227 6.800698 4.138498 6.667783L4.111134 6.429319L4.865619 6.429319ZM19.994413 11.765444C19.994413 16.820103 19.990504 17.101569 19.927956 17.101569C19.888863 17.101569 19.681673 17.074205 19.470574 17.04293C18.121883 16.839649 16.386176 16.882651 15.146945 17.14848C14.357276 17.316577 13.360417 17.719231 13.172773 17.942058C13.149318 17.969422 13.059406 18.024152 12.965583 18.071063L12.801395 18.149248L12.887398 18.028061C13.184501 17.609771 13.821709 17.105479 14.447189 16.788829C15.463593 16.276718 16.609004 16.030434 18.196158 15.979614L18.997555 15.956159L19.146106 15.811517L19.290749 15.662966L19.290749 6.429319L19.994413 6.429319ZM3.45829 12.605932C3.473926 16.597276 3.485654 17.527677 3.528656 17.601953C3.55993 17.652773 3.657661 17.727048 3.747573 17.766141C3.884397 17.828689 3.950855 17.836508 4.161954 17.805234C6.06185 17.527677 7.590366 17.531586 8.872599 17.809143C9.466805 17.938148 10.577032 18.375984 10.58876 18.489353C10.59267 18.532354 3.165096 18.571447 3.000908 18.528445L2.910995 18.508899L2.910995 7.67637L3.176824 7.688097L3.438744 7.699825ZM21.237554 7.72719C21.272738 7.762372 21.284465 9.017242 21.284465 13.137591C21.284465 18.129702 21.280556 18.50108 21.218008 18.524535C21.124186 18.559719 13.645793 18.547992 13.587154 18.512808C13.450331 18.426804 14.470644 17.985059 15.166491 17.824781C16.300173 17.56677 17.891237 17.527677 19.408026 17.727048C20.197694 17.832598 20.295426 17.832598 20.459614 17.750504C20.709805 17.61759 20.698078 17.906874 20.698078 12.547294L20.698078 7.680279L20.94436 7.680279C21.085094 7.680279 21.21019 7.699825 21.237554 7.72719"/><path d="M6.472321 7.390994C6.343316 7.555183 6.37068 7.688097 6.550506 7.77801C6.640418 7.82883 6.984432 7.836649 8.688864 7.836649C10.682582 7.836649 10.721675 7.836649 10.823315 7.754555C10.948411 7.656824 10.960138 7.480906 10.846771 7.367539C10.768586 7.289354 10.717765 7.289354 8.6615 7.289354L6.550506 7.289354ZM6.487957 8.673228C6.362862 8.798324 6.362862 8.907783 6.487957 9.028969L6.581779 9.1267L10.756857 9.1267L10.838952 9.036788C10.936683 8.931238 10.948411 8.782687 10.870226 8.673228C10.815496 8.602862 10.741221 8.598952 8.700592 8.587224L6.585688 8.575497ZM6.503594 9.982826C6.362862 10.12356 6.358952 10.217381 6.491867 10.342477L6.593507 10.4363L8.552041 10.448027C9.630994 10.455846 10.573122 10.448027 10.64349 10.4363C10.913227 10.385479 11.007049 10.143106 10.827224 9.967189L10.733402 9.869458L6.616963 9.869458ZM6.487957 11.296334C6.37068 11.413612 6.366771 11.507433 6.472321 11.644258L6.550506 11.745898L10.764676 11.745898L10.842861 11.644258C10.944502 11.511343 10.948411 11.378428 10.846771 11.276788C10.768586 11.198603 10.717765 11.198603 8.677137 11.198603L6.581779 11.198603ZM6.491867 12.586386C6.366771 12.703664 6.362862 12.840487 6.480139 12.949946L6.570052 13.03595L10.764676 13.03595L10.846771 12.949946C10.956229 12.82876 10.948411 12.668481 10.823315 12.57075C10.721675 12.488655 10.682582 12.488655 8.657591 12.488655L6.597417 12.488655ZM6.585688 13.825618C6.495776 13.856892 6.390226 14.009353 6.390226 14.103175C6.390226 14.142268 6.433228 14.216543 6.487957 14.271273L6.585688 14.369004L8.681046 14.357276L10.776403 14.345549L10.85068 14.251726C10.944502 14.138358 10.944502 14.005444 10.858498 13.903803C10.788132 13.825618 10.74904 13.821709 8.724048 13.809982C7.586456 13.802163 6.628691 13.809982 6.585688 13.825618M14.795112 7.67246C14.259545 7.817102 13.720068 8.227573 13.430784 8.712321C13.180592 9.134519 13.09068 9.80691 13.211866 10.334659C13.383873 11.061779 13.997625 11.687259 14.736474 11.882721C15.029667 11.960906 15.569143 11.960906 15.846699 11.88663C15.963977 11.855356 16.073437 11.83581 16.092983 11.847538C16.108619 11.859266 16.15944 11.937451 16.202442 12.023454C16.264989 12.144641 16.276718 12.218916 16.257172 12.363559C16.233715 12.539475 16.249353 12.582477 16.499544 13.055496C16.644186 13.336962 16.839649 13.716159 16.93738 13.907713C17.121115 14.279091 17.222756 14.365095 17.469038 14.365095C17.543313 14.365095 17.652773 14.345549 17.707502 14.318184C17.816962 14.267364 17.961603 14.028899 17.961603 13.899894C17.961603 13.81389 17.214937 12.340104 17.078114 12.15246C17.031202 12.086003 16.93738 12.007818 16.874832 11.984361C16.800556 11.953088 16.722371 11.867084 16.655914 11.749807L16.554274 11.562163L16.745828 11.401884C17.105479 11.100872 17.379126 10.577032 17.457311 10.053192C17.598043 9.095427 16.972564 8.079022 16.022616 7.731099C15.659056 7.598184 15.146945 7.574729 14.795112 7.67246M15.627782 8.129842C16.419132 8.295929 16.985422 8.994408 16.98429 9.803C16.984291 10.182199 16.910016 10.440208 16.718463 10.717765C16.515181 11.018777 16.327538 11.182966 16.006979 11.331517C15.768514 11.444885 15.725513 11.452704 15.303315 11.452704C14.869387 11.452704 14.842022 11.448794 14.580104 11.319789C14.271273 11.167329 13.950714 10.870226 13.817799 10.608306C13.372146 9.740453 13.720068 8.665409 14.576194 8.24712C14.928026 8.075112 15.217311 8.043839 15.627782 8.129842"/><path d="M14.885025 8.438673C14.513646 8.55986 14.134449 8.907783 14.017172 9.243978C13.907713 9.560628 13.876438 9.869458 13.946805 9.967189C14.036718 10.084467 14.114903 9.986736 14.146176 9.728725C14.212634 9.169703 14.521465 8.802233 15.049213 8.657591C15.252493 8.598952 15.283768 8.579406 15.283768 8.497312C15.283768 8.419127 15.260312 8.40349 15.166491 8.395671C15.103942 8.391762 14.974937 8.411308 14.885025 8.438673"/></svg>
<text x="600" y="337" font-family="Consolas, monospace" font-size="15" fill="#202020">book_open_lines_search_24_regular</text>
<text x="600" y="360" font-family="Arial, sans-serif" font-size="13" fill="#666666">U+E005 · regular · 24 px</text>
<rect x="16" y="400" width="464" height="104" rx="12" fill="#f7f7f7" stroke="#dedede"/>
<svg x="36" y="420" width="64" height="64" viewBox="0 0 24 24" color="#202020"><path fill="#212121" fill-rule="evenodd" clip-rule="evenodd" d="M17.5 2H6A2.5 2.5 0 0 0 3.5 4.5v14.25c0 .414.336.75.75.75H18.5a1 1 0 0 1-1 1H4.25a.75.75 0 0 0 0 1.5H17.5a2.5 2.5 0 0 0 2.5-2.5V4.5A2.5 2.5 0 0 0 17.5 2zM10.688 5.171a3.724 3.724 0 1 0 2.071 6.82l2.476 2.475a.724.724 0 1 0 1.024-1.024l-2.476-2.475a3.724 3.724 0 0 0-3.095-5.796zm0 1.448a2.276 2.276 0 1 1 0 4.553 2.276 2.276 0 0 1 0-4.553z"/></svg>
<text x="120" y="449" font-family="Consolas, monospace" font-size="15" fill="#202020">book_search_trl_24_filled</text>
<text x="120" y="472" font-family="Arial, sans-serif" font-size="13" fill="#666666">U+E006 · filled · 24 px</text>
<rect x="496" y="400" width="464" height="104" rx="12" fill="#f7f7f7" stroke="#dedede"/>
<svg x="516" y="420" width="64" height="64" viewBox="0 0 24 24" color="#202020"><path fill="#212121" d="M13.784 11.795a3.724 3.724 0 1 0-1.024 1.024l2.476 2.475.067.058.007.006a.724.724 0 0 0 .943-1.093zm-3.095-4.348a2.276 2.276 0 1 1 0 4.553 2.276 2.276 0 0 1 0-4.553"/><path fill="#212121" d="M17.5 2A2.5 2.5 0 0 1 20 4.5v15a2.5 2.5 0 0 1-2.5 2.5H4.25a.75.75 0 0 1 0-1.5H17.5a1 1 0 0 0 1-1H4.25a.75.75 0 0 1-.75-.75V4.5A2.5 2.5 0 0 1 6 2zM5 18h13.5V4.5a1 1 0 0 0-1-1H6a1 1 0 0 0-1 1z"/></svg>
<text x="600" y="449" font-family="Consolas, monospace" font-size="15" fill="#202020">book_search_trl_24_regular</text>
<text x="600" y="472" font-family="Arial, sans-serif" font-size="13" fill="#666666">U+E007 · regular · 24 px</text>
<rect x="16" y="512" width="464" height="104" rx="12" fill="#f7f7f7" stroke="#dedede"/>
<svg x="36" y="532" width="64" height="64" viewBox="0 0 24 24" color="#202020"><path d="M10.360456 3.657491C9.887756 3.700075 9.504485 3.785247 8.950874 3.964106C7.805322 4.343118 6.681064 5.143726 5.931559 6.123193C5.871939 6.199847 5.782509 6.31057 5.731406 6.37019C5.680304 6.429809 5.616426 6.527756 5.582357 6.587376C5.552548 6.646996 5.518478 6.706616 5.505704 6.719392C5.467376 6.757718 5.33536 6.996197 5.224638 7.230417C5.165019 7.358175 5.096882 7.498707 5.075589 7.537034C5.054296 7.579619 5.037262 7.643498 5.037262 7.677566C5.037262 7.711634 5.020227 7.741444 4.994677 7.741444C4.973383 7.741444 4.952091 7.788288 4.952091 7.84365C4.952091 7.90327 4.935057 7.962889 4.909505 7.975664C4.888213 7.98844 4.866919 8.04806 4.866919 8.103421C4.866919 8.158783 4.849885 8.218403 4.824335 8.231178C4.798783 8.243953 4.781749 8.307832 4.781749 8.367451C4.781749 8.473915 4.730646 8.669809 4.649733 8.869961C4.496426 9.25749 4.521977 10.977946 4.692319 11.638022C4.713612 11.73171 4.74768 11.863725 4.760456 11.936121C4.786007 12.063877 4.841369 12.20441 4.913763 12.3492C4.935057 12.391786 4.952091 12.455664 4.952091 12.489732C4.952091 12.523802 4.969125 12.58768 4.990418 12.630265C5.011711 12.668592 5.096882 12.847451 5.182053 13.022052C5.36517 13.401063 5.471634 13.592698 5.518478 13.609732C5.535512 13.61825 5.548288 13.652318 5.548288 13.686386C5.548288 13.720456 5.569582 13.746006 5.590874 13.746006C5.616426 13.746006 5.63346 13.771558 5.63346 13.805626C5.63346 13.839694 5.646236 13.873763 5.667528 13.88228C5.69308 13.895056 5.825095 14.056881 6.059315 14.363497C6.25095 14.614752 6.89825 15.219466 7.234677 15.462203C8.133231 16.105246 9.082889 16.488515 10.151786 16.641823C10.624485 16.709961 11.799847 16.675892 12.234219 16.577945C13.056121 16.394827 13.988744 15.994524 14.580683 15.568668C14.759542 15.440911 14.925626 15.321671 14.951178 15.308896C14.97247 15.291861 15.130037 15.411101 15.291861 15.568668L15.594219 15.862508L15.611253 16.284105C15.632546 16.790873 15.662356 16.910112 15.811406 17.131558C15.951938 17.340226 19.103268 20.48304 19.311938 20.623572C19.495056 20.74707 19.861291 20.857793 20.086995 20.857793C20.904637 20.853534 21.586006 20.082735 21.500835 19.252318C21.441215 18.690188 21.424181 18.664637 19.5419 16.795131C18.281368 15.538858 17.783117 15.070417 17.642584 15.006538C17.497793 14.94266 17.353002 14.917109 17.046386 14.91285C16.824941 14.908592 16.616273 14.900074 16.586463 14.900074C16.535359 14.895816 16.262812 14.640303 16.049884 14.393307C15.968972 14.299619 15.968972 14.299619 16.096728 14.137793C16.684409 13.401063 17.131558 12.430112 17.353002 11.412318C17.4765 10.845931 17.485017 9.52152 17.370036 8.976426C16.922888 6.842889 15.683649 5.203346 13.809884 4.266464C12.775056 3.751179 11.591178 3.542509 10.360456 3.657491M12.149048 4.441064C13.022052 4.632699 13.860988 5.037262 14.563649 5.595132C14.866006 5.83787 15.445169 6.425551 15.543117 6.595892C15.585702 6.66403 15.632546 6.719392 15.64958 6.719392C15.666615 6.719392 15.683649 6.740684 15.683649 6.761976C15.683649 6.787528 15.717717 6.847148 15.764561 6.893992C15.807147 6.940836 15.88806 7.068593 15.94342 7.179315C15.998782 7.290037 16.054144 7.387984 16.066918 7.40076C16.113762 7.447604 16.365017 7.971406 16.365017 8.026768C16.365017 8.056577 16.38631 8.120456 16.407603 8.1673C16.433155 8.214144 16.471481 8.290797 16.492774 8.337641C16.518325 8.384485 16.535359 8.469657 16.535359 8.525019C16.535359 8.584638 16.556653 8.644258 16.577945 8.657033C16.603497 8.669809 16.620531 8.746463 16.620531 8.827376C16.620531 8.908288 16.637565 8.980684 16.658857 8.99346C16.718477 9.031786 16.761063 9.508745 16.761063 10.16882C16.761063 10.752243 16.726995 11.080151 16.624789 11.46768C16.603497 11.561368 16.569429 11.693383 16.556653 11.765779C16.539619 11.833915 16.509809 11.940379 16.484257 11.999999C16.458705 12.059619 16.420379 12.149048 16.403345 12.200151C16.382052 12.255512 16.347983 12.340684 16.326691 12.391786C16.250036 12.591938 16.088212 12.915588 16.058402 12.928364C16.037108 12.936881 16.024334 12.979467 16.024334 13.026311C16.024334 13.068897 16.007298 13.107223 15.981748 13.107223C15.960454 13.107223 15.939162 13.137033 15.939162 13.171101C15.939162 13.20517 15.922128 13.23498 15.896576 13.23498C15.875284 13.23498 15.853991 13.264789 15.853991 13.298858C15.853991 13.332927 15.836956 13.362736 15.811406 13.362736C15.790112 13.362736 15.76882 13.392546 15.76882 13.426615C15.76882 13.460683 15.751786 13.490493 15.726234 13.490493C15.704942 13.490493 15.683649 13.507528 15.683649 13.533078C15.683649 13.575664 15.598477 13.690646 15.449429 13.848212C15.257793 14.044105 15.257793 14.044105 16.045626 14.831938C16.718477 15.509048 16.79939 15.577185 16.931405 15.577185C17.318934 15.577185 17.27209 15.538858 19.026615 17.284866C19.942203 18.196196 20.713002 18.992545 20.742812 19.056424C20.819466 19.222508 20.802432 19.661139 20.713002 19.814447C20.51285 20.155131 20.040151 20.244561 19.682432 20.010341C19.414142 19.827223 16.382052 16.773839 16.322432 16.624789C16.275588 16.501291 16.254295 16.198934 16.284105 16.105246C16.309656 16.03285 14.85323 14.640303 14.755284 14.640303C14.712698 14.640303 14.606234 14.695664 14.52958 14.76806C14.448668 14.836196 14.372014 14.895816 14.354979 14.895816C14.337945 14.895816 14.299619 14.921368 14.269809 14.946918C13.920607 15.270569 12.958173 15.687907 12.127755 15.879542C11.5273 16.011558 10.526539 16.011558 9.917566 15.875284C9.321368 15.743268 8.835892 15.564409 8.316349 15.291861C6.796045 14.482736 5.684562 12.992243 5.30981 11.254752C5.216121 10.828897 5.203346 9.542813 5.288516 9.189353C5.318326 9.061596 5.36943 8.840152 5.403498 8.699619C5.48441 8.341901 5.688821 7.830874 5.918783 7.392243C6.451102 6.382965 7.417794 5.446084 8.478175 4.913763C8.882736 4.709353 9.474676 4.51346 9.977186 4.415513C10.488212 4.317566 11.650797 4.330342 12.149048 4.441064"/><path d="M10.509505 5.659011C9.542813 5.752699 8.614448 6.199847 7.830874 6.949353C7.652014 7.119695 7.507224 7.273003 7.507224 7.290037C7.507224 7.307071 7.481672 7.345399 7.456121 7.375209C7.285779 7.545551 7.123953 7.809582 6.932319 8.209885C6.86844 8.337641 6.800304 8.478175 6.779011 8.516501C6.757718 8.559087 6.740684 8.631482 6.740684 8.674068C6.740684 8.720912 6.72365 8.767756 6.702356 8.780532C6.668288 8.806083 6.642738 8.908288 6.587376 9.261748C6.5746 9.351178 6.54479 9.461901 6.523498 9.508745C6.472395 9.619467 6.497946 10.747983 6.561824 11.041824C6.587376 11.156805 6.621444 11.310114 6.63422 11.382508C6.659772 11.510265 6.715132 11.655056 6.787528 11.795589C6.80882 11.838173 6.825855 11.910569 6.825855 11.957413C6.825855 12.004257 6.847148 12.042585 6.86844 12.042585C6.893992 12.042585 6.911026 12.080911 6.911026 12.127755C6.911026 12.1746 6.923802 12.212927 6.945094 12.212927C6.962129 12.212927 7.000456 12.276805 7.034524 12.3492C7.136729 12.58768 7.417794 12.970949 7.711634 13.286083C8.299315 13.907832 9.065854 14.367755 9.892014 14.5892C10.241216 14.67863 10.390265 14.695664 10.977946 14.695664C11.544334 14.699922 11.718934 14.682888 12.008516 14.606234C13.775816 14.146311 15.019314 12.85171 15.432395 11.041824C15.517565 10.667071 15.509048 9.593915 15.415359 9.19787C15.125778 7.98844 14.452927 7.008973 13.456424 6.361672C12.834676 5.952851 12.246995 5.744182 11.484714 5.654752C11.063117 5.607908 11.0546 5.607908 10.509505 5.659011M11.999999 6.208365C12.404562 6.31057 13.026311 6.608668 13.345702 6.847148C13.716196 7.123953 14.188896 7.613688 14.350721 7.890494C14.593459 8.295057 14.746766 8.597414 14.746766 8.661292C14.746766 8.69536 14.7638 8.720912 14.785094 8.720912C14.806386 8.720912 14.831938 8.772014 14.844714 8.835892C14.85749 8.90403 14.891558 9.031786 14.917109 9.125474C15.044866 9.564105 15.117261 10.271026 15.044866 10.360456C14.976728 10.445626 14.772318 10.441368 14.687147 10.356197C14.606234 10.279543 14.5892 10.207148 14.555132 9.798326C14.452927 8.584638 13.613992 7.383725 12.523802 6.893992C12.127755 6.715132 11.663573 6.591634 11.254752 6.561824C10.960911 6.540532 10.879999 6.519239 10.799087 6.438326C10.679847 6.314828 10.675589 6.276501 10.790569 6.161521C10.875741 6.076349 10.914067 6.072091 11.271786 6.093383C11.484714 6.110417 11.812623 6.161521 11.999999 6.208365"/></svg>
<text x="120" y="561" font-family="Consolas, monospace" font-size="15" fill="#202020">search_full_24_filled</text>
<text x="120" y="584" font-family="Arial, sans-serif" font-size="13" fill="#666666">U+E008 · filled · 24 px</text>
<rect x="496" y="512" width="464" height="104" rx="12" fill="#f7f7f7" stroke="#dedede"/>
<svg x="516" y="532" width="64" height="64" viewBox="0 0 24 24" color="#202020"><path d="M9.849429 3.976882C8.8146 4.091863 7.792546 4.479392 6.966387 5.071331C6.553308 5.36943 6.45536 5.450342 6.101901 5.80806C5.791026 6.118935 5.744182 6.174296 5.569582 6.421292C5.51422 6.502204 5.433308 6.608668 5.390722 6.651254C5.348136 6.698098 5.314068 6.761976 5.314068 6.791786C5.314068 6.821596 5.301292 6.847148 5.28 6.847148C5.262965 6.847148 5.224638 6.911026 5.19057 6.983421C5.156501 7.060075 5.118175 7.132471 5.105399 7.145247C5.054296 7.187833 4.973383 7.358175 4.973383 7.422053C4.973383 7.456121 4.956349 7.485931 4.930799 7.485931C4.909505 7.485931 4.888213 7.515741 4.888213 7.549809C4.888213 7.583878 4.871179 7.652014 4.845627 7.698858C4.824335 7.745702 4.786007 7.822356 4.760456 7.8692C4.739163 7.916045 4.717871 7.992699 4.717871 8.035284C4.717871 8.082129 4.700836 8.133231 4.675285 8.146007C4.653992 8.158783 4.632699 8.218403 4.632699 8.273763C4.632699 8.329125 4.615665 8.388745 4.590114 8.401521C4.568821 8.414295 4.547528 8.503725 4.547528 8.593155C4.547528 8.682585 4.530494 8.772014 4.504942 8.78479C4.48365 8.797566 4.462357 8.886996 4.462357 8.976426C4.462357 9.065854 4.445323 9.155284 4.419772 9.16806C4.360152 9.202128 4.360152 10.96517 4.419772 10.999239C4.445323 11.012014 4.462357 11.101444 4.462357 11.190874C4.462357 11.280304 4.48365 11.369732 4.504942 11.382508C4.530494 11.395284 4.547528 11.484714 4.547528 11.574144C4.547528 11.663573 4.568821 11.753003 4.590114 11.765779C4.615665 11.778554 4.632699 11.829657 4.632699 11.876501C4.632699 11.919087 4.649733 11.991481 4.671026 12.034067C4.705095 12.102204 4.74768 12.200151 4.841369 12.434372C4.973383 12.775056 5.28 13.337185 5.407756 13.490493C5.450342 13.537337 5.48441 13.592698 5.48441 13.613992C5.48441 13.635284 5.497186 13.660836 5.518478 13.669352C5.535512 13.67361 5.63346 13.788592 5.739924 13.916348C6.595892 14.976728 7.805322 15.704941 9.253231 16.03285C9.730189 16.139314 11.19939 16.139314 11.638022 16.03285C12.459922 15.82844 13.179619 15.521823 13.797109 15.108744C14.056881 14.934144 14.142052 14.895816 14.201671 14.929884C14.244257 14.955436 14.444409 15.142812 14.64882 15.351481C14.934144 15.636805 15.023573 15.756044 15.023573 15.841215C15.023573 15.905094 15.006538 15.968972 14.980988 15.981748C14.925626 16.015816 14.925626 16.330949 14.980988 16.365017C15.006538 16.377793 15.023573 16.437413 15.023573 16.492774C15.023573 16.548135 15.044866 16.607755 15.066158 16.620531C15.09171 16.633307 15.108744 16.680151 15.108744 16.722736C15.108744 16.782356 17.991785 19.669656 18.65612 20.274371C19.103268 20.678934 19.848515 20.636348 20.304181 20.176424C20.683192 19.801671 20.793914 19.188439 20.568211 18.728515C20.504332 18.592242 19.967755 18.030112 18.698705 16.761063C16.952698 15.019314 16.914371 14.989504 16.671633 14.917109C16.484257 14.861748 16.347983 14.85323 16.126538 14.874524L15.82844 14.904334L15.457945 14.550873C15.253535 14.354979 15.070417 14.167603 15.053383 14.125017C15.023573 14.073915 15.070417 13.984485 15.236501 13.784334C15.82844 13.056121 16.271329 12.05536 16.450189 11.041824C16.569429 10.37749 16.518325 9.231938 16.339466 8.533535C16.079694 7.502965 15.504789 6.51498 14.704181 5.718631C13.848212 4.858403 12.770797 4.283498 11.608212 4.057794C11.25901 3.989657 10.185854 3.942813 9.849429 3.976882M11.31863 5.245931C12.034067 5.386464 12.740988 5.697338 13.341444 6.144487C13.694904 6.408516 14.427375 7.162281 14.427375 7.268745C14.427375 7.285779 14.465702 7.336881 14.512546 7.379467C14.55939 7.422053 14.597717 7.481672 14.597717 7.515741C14.597717 7.545551 14.610493 7.571102 14.631786 7.571102C14.64882 7.571102 14.70844 7.677566 14.76806 7.805322C14.82768 7.93308 14.8873 8.039543 14.908592 8.039543C14.925626 8.039543 14.938402 8.069353 14.938402 8.103421C14.938402 8.13749 14.955436 8.201368 14.976728 8.243953C14.998022 8.282281 15.036348 8.401521 15.066158 8.507984C15.095968 8.614448 15.134295 8.733688 15.155588 8.772014C15.176881 8.8146 15.193915 8.891254 15.193915 8.946616C15.193915 9.001976 15.210949 9.061596 15.232242 9.082889C15.253535 9.10844 15.283345 9.25749 15.296121 9.423573C15.308896 9.585399 15.330189 9.883497 15.347223 10.075132C15.364257 10.313612 15.359999 10.445626 15.32593 10.479695C15.300379 10.505246 15.279086 10.645779 15.279086 10.790569C15.279086 10.939619 15.262052 11.071634 15.236501 11.08441C15.215208 11.097185 15.193915 11.152546 15.193915 11.19939C15.193915 11.322888 15.078934 11.680607 14.976728 11.880759C14.955436 11.923345 14.938402 11.987223 14.938402 12.021291C14.938402 12.05536 14.925626 12.08517 14.904334 12.08517C14.8873 12.08517 14.848972 12.149048 14.814904 12.221444C14.742508 12.387528 14.278325 13.085931 14.154827 13.217945C14.103725 13.273307 14.014295 13.366995 13.954676 13.435132C13.895056 13.49901 13.771558 13.61825 13.67787 13.694904C13.58844 13.7673 13.456424 13.878022 13.384029 13.937641C13.119999 14.163345 12.46844 14.521063 12.076653 14.661596C11.5273 14.85749 11.058858 14.938402 10.483953 14.938402C8.231178 14.938402 6.297794 13.430873 5.684562 11.190874C5.326844 9.892014 5.66327 8.273763 6.527756 7.123953C6.834372 6.719392 7.315589 6.272243 7.762736 5.969885C8.312091 5.607908 8.827376 5.403498 9.679087 5.216121C9.892014 5.169277 11.020531 5.19057 11.31863 5.245931"/><path d="M10.368972 6.055057C10.202888 6.225399 10.330646 6.319087 10.773535 6.344638C11.2292 6.374448 11.667832 6.506464 12.14479 6.75346C12.536576 6.962129 13.056121 7.37095 13.264789 7.63498C13.328668 7.720152 13.426615 7.83939 13.477718 7.90327C13.55863 8.001216 13.860988 8.576121 13.958934 8.827376C14.039847 9.02327 14.095208 9.325627 14.163345 9.892014C14.184637 10.087908 14.210189 10.151786 14.269809 10.160304C14.478478 10.202888 14.521063 9.943117 14.406083 9.338402C14.244257 8.490949 13.895056 7.818098 13.320151 7.226159C12.621748 6.51498 11.744485 6.089125 10.799087 6.012471C10.492471 5.991179 10.428592 5.995437 10.368972 6.055057"/></svg>
<text x="600" y="561" font-family="Consolas, monospace" font-size="15" fill="#202020">search_full_24_regular</text>
<text x="600" y="584" font-family="Arial, sans-serif" font-size="13" fill="#666666">U+E009 · regular · 24 px</text>
</svg>
