<svg xmlns="http://www.w3.org/2000/svg" width="960" height="656" viewBox="0 0 960 656">
<rect width="100%" height="100%" fill="#ffffff"/>
<text x="24" y="42" font-family="Arial, sans-serif" font-size="24" font-weight="600" fill="#202020">Otzaria Icons</text>
<rect x="16" y="64" width="464" height="104" rx="12" fill="#f7f7f7" stroke="#dedede"/>
<svg x="36" y="84" width="64" height="64" viewBox="0 0 24 24" color="#202020"><path d="M4.774 1.523c-.211.183-.232.246-.267.71l-.035.505h-.414c-.794 0-1.11.26-1.11.92v.393l-.561.035c-.653.035-.899.168-1.032.554-.12.344-.12 13.12 0 13.472.049.133.19.308.323.4l.238.161h8.614l.288.19c.246.161.379.196.905.217.766.035 1.032-.007 1.362-.231l.26-.176h4.317c3.953 0 4.339-.007 4.528-.12.435-.259.414.078.414-7.244V4.633l-.231-.26c-.232-.245-.26-.252-.808-.287l-.575-.035v-.31c0-.722-.323-1.003-1.159-1.003h-.456v-.499c0-.456-.014-.512-.217-.709l-.211-.217-1.348.042c-1.144.028-1.453.063-2.029.21-1.291.337-2.358.948-3.152 1.784l-.463.49-.428-.476c-.744-.815-1.882-1.46-3.166-1.798-.569-.147-.885-.182-2.015-.21l-1.34-.042zm2.492.099c.99.119 1.621.309 2.457.73.863.428 1.621 1.053 2.007 1.65l.225.343.19-.294c.273-.436.87-1.004 1.418-1.362 1.186-.766 2.674-1.145 4.5-1.145.708 0 .765.014.926.176.155.154.176.225.176.737v.562h.603c.33 0 .66.028.73.07.169.091.281.435.281.884v.38h.625c.61 0 .632.006.807.217l.183.218v6.507c0 4.584-.021 6.578-.077 6.74-.155.435-.036.428-4.823.428-4.198 0-4.346.007-4.465.133-.309.344-1.6.365-2.092.042l-.267-.175H6.388c-4.59 0-4.584 0-4.773-.344-.05-.092-.07-2.36-.07-6.782v-6.64l.175-.17c.154-.16.225-.175.807-.175h.632v-.484c0-.38.028-.52.147-.667.134-.175.176-.182.808-.182h.66v-.59c0-.555.014-.604.182-.737.162-.127.288-.148.934-.148.407 0 1.032.036 1.376.078"/><path d="M5.405 8.178v6.002h.653c2.092 0 3.98.773 5.21 2.127l.385.429-.014-5.827-.02-5.82-.162-.33c-.787-1.593-2.9-2.583-5.525-2.583h-.527zM16.722 2.253c-1.98.232-3.63 1.194-4.226 2.471l-.211.436v11.555l.28-.323c1.173-1.355 2.872-2.1 5.02-2.205l.913-.042V2.211l-.632-.007a10 10 0 0 0-1.144.05"/><path d="M3.79 9.905v6.255l.162-.042c.87-.218 3.349-.225 4.402-.007 1.032.21 1.93.576 2.534 1.032.484.372.534.386.316.084-1.11-1.502-2.745-2.26-5.202-2.387-.78-.042-.934-.063-1.067-.19l-.161-.14V3.65H3.79zM19.165 9.049c0 5.244-.007 5.398-.14 5.567-.127.168-.183.175-1.068.224-2.05.106-3.278.527-4.486 1.524-.301.252-.905.961-.905 1.067 0 .028.168-.078.372-.232 1.102-.835 2.73-1.264 4.823-1.264.807 0 1.888.092 2.197.183.112.035.12-.295.12-6.213V3.65h-.913z"/><path d="M2.176 11.372v6.389H6.36c3.49 0 4.177-.014 4.107-.092-.134-.161-1.137-.603-1.713-.744a11 11 0 0 0-1.25-.217c-1.137-.113-1.762-.099-3.552.105-.4.049-.442.042-.61-.126l-.183-.183V4.984h-.983zM20.765 10.74l-.02 5.757-.19.19-.19.19-.653-.092c-2.211-.295-4.317-.105-5.637.52-1.025.484-1.25.449 3.426.456h4.19V4.984h-.912z"/></svg>
<text x="120" y="113" font-family="Consolas, monospace" font-size="15" fill="#202020">book_open_arc_24_filled</text>
<text x="120" y="136" font-family="Arial, sans-serif" font-size="13" fill="#666666">U+E000 · filled · 24 px</text>
<rect x="496" y="64" width="464" height="104" rx="12" fill="#f7f7f7" stroke="#dedede"/>
<svg x="516" y="84" width="64" height="64" viewBox="0 0 24 24" color="#202020"><path fill="currentColor" d="M4.34 1.515c-.177.156-.198.22-.22.736l-.028.567-.594.028c-.8.028-.9.128-.935.906l-.028.567h-.376c-.198 0-.46.035-.573.07-.439.156-.418-.226-.432 6.868-.007 4.085.014 6.563.064 6.705.141.467-.085.446 4.807.446 4.043 0 4.446.007 4.531.12.22.262.637.376 1.402.376.616 0 .793-.029 1.055-.15.17-.084.326-.197.347-.247.028-.085.786-.099 4.51-.099 4.928 0 4.701.021 4.843-.446.05-.142.07-2.627.063-6.719l-.014-6.5-.198-.19c-.17-.17-.255-.199-.722-.22l-.531-.028v-.531c0-.489-.014-.546-.206-.737-.198-.19-.24-.205-.778-.205h-.574V2.28c0-.46-.021-.58-.141-.708-.213-.227-.411-.255-1.516-.198-1.762.077-2.888.325-4.042.892-.758.368-1.275.764-1.791 1.373l-.319.382-.262-.332c-1.218-1.537-3.455-2.337-6.528-2.344-.545 0-.637.021-.814.17m2.627.758c1.5.155 2.839.729 3.688 1.586.277.269.588.665.701.87l.199.376.007 5.607c.007 3.42-.022 5.593-.057 5.572a3 3 0 0 1-.312-.304c-1.076-1.19-3.051-1.947-5.402-2.082-.693-.035-.835-.064-.842-.156a3143 3143 0 0 1 0-11.554c.007-.057 1.097-.007 2.018.085m12.007 5.713v5.87l-.8.042c-2.329.135-4.042.758-5.26 1.912l-.602.566.021-5.657.022-5.657.19-.318c.567-.97 1.374-1.608 2.585-2.047.828-.304 1.565-.438 2.712-.495a82 82 0 0 1 1.083-.064c.028-.007.05 2.627.05 5.848m-14.868.935c0 5.614 0 5.586.347 5.7.071.02.524.056.999.07 2.442.092 4.078.7 5.295 1.968.496.524.567.652.177.347-.693-.53-1.741-.934-2.902-1.111-1.048-.156-3.604-.128-4.581.056-.036.007-.064-2.598-.07-6.124l-.008-6.145h.743zm16.426.906v6.145l-.687-.092c-.878-.113-3.072-.127-3.773-.02-1.289.197-2.323.573-2.988 1.082-.191.142-.34.234-.34.199 0-.107.857-.949 1.204-1.19 1.14-.779 2.612-1.182 4.566-1.253.885-.028.928-.042 1.076-.22l.163-.183V3.682h.779zm-17.983.913c0 5.806 0 5.813.29 5.99.085.057.489.035 1.36-.057 1.444-.148 3.115-.12 4.085.071.672.135 1.571.46 1.84.673.177.141.17.141-3.979.141H1.982V5.168h.567zm19.399.623v6.195h-4.191c-2.889 0-4.163-.028-4.093-.077.553-.376 1.6-.716 2.585-.836.878-.106 2.378-.092 3.398.028 1.154.142 1.303.135 1.501-.05l.163-.148V5.168h.637z"/></svg>
<text x="600" y="113" font-family="Consolas, monospace" font-size="15" fill="#202020">book_open_arc_24_regular</text>
<text x="600" y="136" font-family="Arial, sans-serif" font-size="13" fill="#666666">U+E001 · regular · 24 px</text>
<rect x="16" y="176" width="464" height="104" rx="12" fill="#f7f7f7" stroke="#dedede"/>
<svg x="36" y="196" width="64" height="64" viewBox="0 0 24 24" color="#202020">
  <path fill-rule="evenodd" d="M4.5 2A3.5 3.5 0 0 0 1 5.5v11A3.5 3.5 0 0 0 4.5 20h4.25c.98 0 1.92.39 2.61 1.08a.9.9 0 0 0 1.28 0A3.69 3.69 0 0 1 15.25 20h4.25a3.5 3.5 0 0 0 3.5-3.5v-11A3.5 3.5 0 0 0 19.5 2h-4.25A4.56 4.56 0 0 0 12 3.35 4.56 4.56 0 0 0 8.75 2zM5 6.25a.75.75 0 0 1 .75-.75h3a.75.75 0 0 1 0 1.5h-3A.75.75 0 0 1 5 6.25m0 3.5A.75.75 0 0 1 5.75 9h3a.75.75 0 0 1 0 1.5h-3A.75.75 0 0 1 5 9.75m.75 2.75a.75.75 0 0 0 0 1.5h3a.75.75 0 0 0 0-1.5zm9.5-7a.75.75 0 0 0 0 1.5h3a.75.75 0 0 0 0-1.5zm-.75 4.25a.75.75 0 0 1 .75-.75h3a.75.75 0 0 1 0 1.5h-3a.75.75 0 0 1-.75-.75m.75 2.75a.75.75 0 0 0 0 1.5h3a.75.75 0 0 0 0-1.5z" clip-rule="evenodd"/>
</svg>
<text x="120" y="225" font-family="Consolas, monospace" font-size="15" fill="#202020">book_open_lines_24_filled</text>
<text x="120" y="248" font-family="Arial, sans-serif" font-size="13" fill="#666666">U+E002 · filled · 24 px</text>
<rect x="496" y="176" width="464" height="104" rx="12" fill="#f7f7f7" stroke="#dedede"/>
<svg x="516" y="196" width="64" height="64" viewBox="0 0 24 24" color="#202020">
  <path fill-rule="evenodd" d="M4.5 3A3.5 3.5 0 0 0 1 6.5v10A3.5 3.5 0 0 0 4.5 20h4.25c.98 0 1.92.39 2.61 1.08a.9.9 0 0 0 1.28 0A3.69 3.69 0 0 1 15.25 20h4.25a3.5 3.5 0 0 0 3.5-3.5v-10A3.5 3.5 0 0 0 19.5 3h-4.25c-1.24 0-2.4.49-3.25 1.35A4.56 4.56 0 0 0 8.75 3zm6.75 3.25A2.75 2.75 0 0 0 8.5 4.5h-4A2 2 0 0 0 2.5 6.5v10a2 2 0 0 0 2 2h4.25c.9 0 1.75.23 2.5.64zm1.5 12.89a5.2 5.2 0 0 1 2.5-.64h4.25a2 2 0 0 0 2-2v-10a2 2 0 0 0-2-2h-4a2.75 2.75 0 0 0-2.75 2.75z" clip-rule="evenodd"/>
  <path d="M4.5 7.25c0-.41.34-.75.75-.75h3.5a.75.75 0 0 1 0 1.5h-3.5a.75.75 0 0 1-.75-.75M4.5 10.75c0-.41.34-.75.75-.75h3.5a.75.75 0 0 1 0 1.5h-3.5a.75.75 0 0 1-.75-.75M4.5 14.25c0-.41.34-.75.75-.75h3.5a.75.75 0 0 1 0 1.5h-3.5a.75.75 0 0 1-.75-.75M14.5 7.25c0-.41.34-.75.75-.75h3.5a.75.75 0 0 1 0 1.5h-3.5a.75.75 0 0 1-.75-.75M14.5 10.75c0-.41.34-.75.75-.75h3.5a.75.75 0 0 1 0 1.5h-3.5a.75.75 0 0 1-.75-.75M14.5 14.25c0-.41.34-.75.75-.75h3.5a.75.75 0 0 1 0 1.5h-3.5a.75.75 0 0 1-.75-.75"/>
</svg>
<text x="600" y="225" font-family="Consolas, monospace" font-size="15" fill="#202020">book_open_lines_24_regular</text>
<text x="600" y="248" font-family="Arial, sans-serif" font-size="13" fill="#666666">U+E003 · regular · 24 px</text>
<rect x="16" y="288" width="464" height="104" rx="12" fill="#f7f7f7" stroke="#dedede"/>
<svg x="36" y="308" width="64" height="64" viewBox="0 0 24 24" color="#202020">
  <path fill-rule="evenodd" d="M4.25 2A3.25 3.25 0 0 0 1 5.25v10.5A3.25 3.25 0 0 0 4.25 19h4.5c.98 0 1.92.39 2.61 1.08a.9.9 0 0 0 1.28 0c.54-.54 1.22-.9 1.96-1.02A5.75 5.75 0 0 1 13 15.07V5.75A2.25 2.25 0 0 1 15.25 3.5h4.5a1.75 1.75 0 0 1 1.75 1.75v4.9c.56.36 1.07.81 1.5 1.33V5.25A3.25 3.25 0 0 0 19.75 2h-4.5A3.75 3.75 0 0 0 12 3.88 3.75 3.75 0 0 0 8.75 2zM4.5 6.25a.75.75 0 0 1 .75-.75h3a.75.75 0 0 1 0 1.5h-3a.75.75 0 0 1-.75-.75m.75 2.75a.75.75 0 0 0 0 1.5h3a.75.75 0 0 0 0-1.5z" clip-rule="evenodd"/>
  <path fill-rule="evenodd" d="M18.25 10a4.75 4.75 0 1 0 2.74 8.63l1.23 1.23a.8.8 0 0 0 1.14-1.13l-1.24-1.24A4.75 4.75 0 0 0 18.25 10m-2.75 4.75a2.75 2.75 0 1 1 5.5 0 2.75 2.75 0 0 1-5.5 0" clip-rule="evenodd"/>
</svg>
<text x="120" y="337" font-family="Consolas, monospace" font-size="15" fill="#202020">book_open_lines_search_24_filled</text>
<text x="120" y="360" font-family="Arial, sans-serif" font-size="13" fill="#666666">U+E004 · filled · 24 px</text>
<rect x="496" y="288" width="464" height="104" rx="12" fill="#f7f7f7" stroke="#dedede"/>
<svg x="516" y="308" width="64" height="64" viewBox="0 0 24 24" color="#202020">
  <path fill-rule="evenodd" d="M4.25 3A3.25 3.25 0 0 0 1 6.25v9.5A3.25 3.25 0 0 0 4.25 19h4.5c.98 0 1.92.39 2.61 1.08a.9.9 0 0 0 1.28 0A3.69 3.69 0 0 1 15.25 19h.23a5.75 5.75 0 0 1-.95-1.5 5.2 5.2 0 0 0-1.78.51V6.75A2.25 2.25 0 0 1 15 4.5h4.75a1.75 1.75 0 0 1 1.75 1.75v3.78c.56.28 1.06.65 1.5 1.08V6.25A3.25 3.25 0 0 0 19.75 3H15a3.75 3.75 0 0 0-3 1.5A3.75 3.75 0 0 0 9 3zm7 15.01a5.2 5.2 0 0 0-2.5-.51h-4.5a1.75 1.75 0 0 1-1.75-1.75v-9.5A1.75 1.75 0 0 1 4.25 4.5H9a2.25 2.25 0 0 1 2.25 2.25z" clip-rule="evenodd"/>
  <path d="M4.5 7.25c0-.41.34-.75.75-.75h3a.75.75 0 0 1 0 1.5h-3a.75.75 0 0 1-.75-.75M4.5 10.75c0-.41.34-.75.75-.75h3a.75.75 0 0 1 0 1.5h-3a.75.75 0 0 1-.75-.75"/>
  <path fill-rule="evenodd" d="M18.25 10a4.75 4.75 0 1 0 2.74 8.63l1.23 1.23a.8.8 0 0 0 1.14-1.13l-1.24-1.24A4.75 4.75 0 0 0 18.25 10m-3.15 4.75a3.15 3.15 0 1 1 6.3 0 3.15 3.15 0 0 1-6.3 0" clip-rule="evenodd"/>
</svg>
<text x="600" y="337" font-family="Consolas, monospace" font-size="15" fill="#202020">book_open_lines_search_24_regular</text>
<text x="600" y="360" font-family="Arial, sans-serif" font-size="13" fill="#666666">U+E005 · regular · 24 px</text>
<rect x="16" y="400" width="464" height="104" rx="12" fill="#f7f7f7" stroke="#dedede"/>
<svg x="36" y="420" width="64" height="64" viewBox="0 0 24 24" color="#202020"><path fill="#212121" fill-rule="evenodd" clip-rule="evenodd" d="M17.5 2H6A2.5 2.5 0 0 0 3.5 4.5v14.25c0 .414.336.75.75.75H18.5a1 1 0 0 1-1 1H4.25a.75.75 0 0 0 0 1.5H17.5a2.5 2.5 0 0 0 2.5-2.5V4.5A2.5 2.5 0 0 0 17.5 2zM10.688 5.171a3.724 3.724 0 1 0 2.071 6.82l2.476 2.475a.724.724 0 1 0 1.024-1.024l-2.476-2.475a3.724 3.724 0 0 0-3.095-5.796zm0 1.448a2.276 2.276 0 1 1 0 4.553 2.276 2.276 0 0 1 0-4.553z"/></svg>
<text x="120" y="449" font-family="Consolas, monospace" font-size="15" fill="#202020">book_search_trl_24_filled</text>
<text x="120" y="472" font-family="Arial, sans-serif" font-size="13" fill="#666666">U+E006 · filled · 24 px</text>
<rect x="496" y="400" width="464" height="104" rx="12" fill="#f7f7f7" stroke="#dedede"/>
<svg x="516" y="420" width="64" height="64" viewBox="0 0 24 24" color="#202020"><path fill="#212121" d="M13.784 11.795a3.724 3.724 0 1 0-1.024 1.024l2.476 2.475.067.058.007.006a.724.724 0 0 0 .943-1.093zm-3.095-4.348a2.276 2.276 0 1 1 0 4.553 2.276 2.276 0 0 1 0-4.553"/><path fill="#212121" d="M17.5 2A2.5 2.5 0 0 1 20 4.5v15a2.5 2.5 0 0 1-2.5 2.5H4.25a.75.75 0 0 1 0-1.5H17.5a1 1 0 0 0 1-1H4.25a.75.75 0 0 1-.75-.75V4.5A2.5 2.5 0 0 1 6 2zM5 18h13.5V4.5a1 1 0 0 0-1-1H6a1 1 0 0 0-1 1z"/></svg>
<text x="600" y="449" font-family="Consolas, monospace" font-size="15" fill="#202020">book_search_trl_24_regular</text>
<text x="600" y="472" font-family="Arial, sans-serif" font-size="13" fill="#666666">U+E007 · regular · 24 px</text>
<rect x="16" y="512" width="464" height="104" rx="12" fill="#f7f7f7" stroke="#dedede"/>
<svg x="36" y="532" width="64" height="64" viewBox="0 0 24 24" color="#202020">
  <path fill-rule="evenodd" d="M10.75 2a8.75 8.75 0 1 0 5.44 15.6l4.1 4.11a1 1 0 0 0 1.42-1.42l-4.1-4.1A8.75 8.75 0 0 0 10.75 2m-4.5 8.75a4.5 4.5 0 1 1 9 0 4.5 4.5 0 0 1-9 0" clip-rule="evenodd"/>
</svg>
<text x="120" y="561" font-family="Consolas, monospace" font-size="15" fill="#202020">search_full_24_filled</text>
<text x="120" y="584" font-family="Arial, sans-serif" font-size="13" fill="#666666">U+E008 · filled · 24 px</text>
<rect x="496" y="512" width="464" height="104" rx="12" fill="#f7f7f7" stroke="#dedede"/>
<svg x="516" y="532" width="64" height="64" viewBox="0 0 24 24" color="#202020">
  <path fill-rule="evenodd" d="M10.75 2a8.75 8.75 0 1 0 5.44 15.6l4.1 4.11a1 1 0 0 0 1.42-1.42l-4.1-4.1A8.75 8.75 0 0 0 10.75 2m-6.5 8.75a6.5 6.5 0 1 1 13 0 6.5 6.5 0 0 1-13 0" clip-rule="evenodd"/>
</svg>
<text x="600" y="561" font-family="Consolas, monospace" font-size="15" fill="#202020">search_full_24_regular</text>
<text x="600" y="584" font-family="Arial, sans-serif" font-size="13" fill="#666666">U+E009 · regular · 24 px</text>
</svg>
